<svg width="107" height="241" viewBox="0 0 107 241" fill="none" xmlns="http://www.w3.org/2000/svg">
<path d="M-2.87241 240.072L-25.3687 217.576L-25.3687 108.094L98.181 231.651L-2.87241 240.072Z" fill="#FFFF05"/>
<path d="M27.0379 237.573L12.3538 238.809L16.7686 227.303L27.0379 237.573Z" fill="white"/>
<path d="M-7.25568 229L-0.123066 210.415L11.3082 221.85L-7.25568 229Z" fill="white"/>
<path d="M60.0116 234.834L47.8727 235.845L51.5236 226.343L60.0116 234.834Z" fill="white"/>
<path d="M27.4991 228.025L34.6282 209.451L46.0558 220.875L27.4991 228.025Z" fill="white"/>
<path d="M10.604 211.13L17.7366 192.559L29.1678 203.987L10.604 211.13Z" fill="white"/>
<path d="M-6.28389 194.246L0.848726 175.668L12.2764 187.096L-6.28389 194.246Z" fill="white"/>
<path d="M92.9849 232.077L83.3914 232.88L86.2747 225.364L92.9849 232.077Z" fill="white"/>
<path d="M62.2504 227.054L69.3866 208.479L80.8143 219.907L62.2504 227.054Z" fill="white"/>
<path d="M45.3626 210.166L52.4917 191.584L63.9194 203.015L45.3626 210.166Z" fill="white"/>
<path d="M28.4674 193.267L35.6001 174.692L47.0348 186.123L28.4674 193.267Z" fill="white"/>
<path d="M11.5828 176.379L18.7118 157.805L30.1395 169.232L11.5828 176.379Z" fill="white"/>
<path d="M-5.31224 159.484L1.82038 140.913L13.248 152.344L-5.31224 159.484Z" fill="white"/>
<path d="M98.5894 233.679L-25.3687 109.725L-25.3687 0.260632L107 132.629L98.5894 233.679Z" fill="#FFB540"/>
</svg>
