<svg width="291" height="290" viewBox="0 0 291 290" fill="none" xmlns="http://www.w3.org/2000/svg">
<path d="M62.5417 223.6C64.4976 222.948 67.9662 219.76 67.9662 219.753C67.9662 219.747 65.1757 218.13 64.9866 218.052C62.7894 217.126 57.9973 216.63 56.2565 218.658C55.9812 219.003 55.7809 219.402 55.6687 219.829C55.5564 220.255 55.5345 220.701 55.6045 221.137C55.6745 221.573 55.8348 221.989 56.075 222.359C56.3153 222.73 56.6303 223.046 56.9998 223.287C58.5385 224.382 60.8465 224.148 62.5417 223.6Z" fill="#9C9C9C"/>
<path d="M98.6678 192.865C98.7135 192.865 97.2334 189.977 97.1161 189.801C95.8121 187.845 92.0697 184.761 89.5009 185.491C89.0774 185.625 88.6866 185.845 88.3539 186.139C88.0211 186.433 87.7539 186.794 87.5695 187.198C87.3851 187.602 87.2876 188.04 87.2833 188.484C87.2791 188.928 87.3682 189.368 87.5449 189.775C88.2425 191.522 90.2963 192.604 92.0176 193.08C94.0387 193.641 98.6613 192.872 98.6678 192.865Z" fill="#9C9C9C"/>
<path d="M72.7707 232.669C74.4529 231.567 76.774 227.884 76.9565 227.59C79.0609 228.922 81.2521 230.111 83.5155 231.15C84.8195 231.763 86.1756 232.343 87.5317 232.904C86.8798 232.734 86.2865 232.597 86.2278 232.584C83.8611 232.271 79.1081 233.06 77.9671 235.473C77.7882 235.88 77.6974 236.321 77.7006 236.766C77.7038 237.211 77.8008 237.65 77.9854 238.055C78.1701 238.46 78.4381 238.822 78.772 239.116C79.1059 239.41 79.4981 239.631 79.9231 239.763C81.6965 240.415 83.835 239.561 85.3541 238.583C86.8732 237.605 88.9074 234.482 89.4356 233.654L91.0003 234.306C93.5105 235.303 96.0141 236.262 98.446 237.331C99.3001 237.696 100.128 238.094 100.963 238.478C100.376 238.335 99.8869 238.218 99.8087 238.211C97.442 237.898 92.6955 238.687 91.548 241.099C91.3692 241.506 91.2784 241.947 91.2816 242.391C91.2849 242.836 91.382 243.275 91.5667 243.679C91.7513 244.084 92.0194 244.444 92.3532 244.738C92.6871 245.032 93.0792 245.251 93.504 245.383C95.2839 246.035 97.4485 245.181 98.935 244.203C100.422 243.225 102.286 240.408 102.925 239.43C103.76 239.854 104.601 240.278 105.396 240.734C105.931 241.054 106.472 241.321 106.994 241.673L108.545 242.671C109.504 243.323 110.501 244.027 111.427 244.705C112.079 245.174 112.679 245.631 113.292 246.087C112.444 245.715 110.769 245.011 110.619 244.972C108.33 244.32 103.512 244.366 102.019 246.576C101.78 246.95 101.622 247.37 101.556 247.81C101.491 248.249 101.519 248.697 101.638 249.125C101.757 249.552 101.966 249.95 102.249 250.292C102.533 250.633 102.885 250.911 103.284 251.107C104.94 252.001 107.196 251.505 108.832 250.762C110.612 249.947 113.396 246.798 113.709 246.4C114.72 247.163 115.698 247.913 116.604 248.636C119.251 250.729 121.455 252.613 123.124 254.087L124.428 252.9C122.68 251.427 120.346 249.51 117.536 247.384C116.513 246.609 115.404 245.794 114.276 244.972C114.878 243.767 115.409 242.529 115.867 241.262C117.869 241.464 121.637 240.428 122.126 240.291C122.55 241.484 122.948 242.651 123.306 243.753C124.336 246.902 125.125 249.621 125.706 251.779L127.166 250.475C126.56 248.46 125.777 246.002 124.806 243.231C124.382 242.019 123.906 240.734 123.398 239.417C123.847 239.163 127.473 237.05 128.613 235.46C129.65 234.012 130.569 231.88 130.009 230.074C129.89 229.647 129.684 229.249 129.402 228.907C129.121 228.565 128.77 228.285 128.374 228.087C127.978 227.889 127.544 227.775 127.101 227.755C126.659 227.735 126.216 227.807 125.803 227.968C123.345 229.018 122.367 233.732 122.583 236.105C122.583 236.249 122.909 237.755 123.117 238.713C122.909 238.172 122.713 237.65 122.465 237.103C122.035 236.007 121.572 234.932 121.083 233.771C120.822 233.217 120.568 232.663 120.301 232.102C120.033 231.541 119.72 230.974 119.427 230.4C118.729 229.096 117.953 227.792 117.139 226.488C118.097 226.11 121.468 224.715 122.72 223.437C123.971 222.159 125.197 220.177 124.91 218.332C124.86 217.891 124.717 217.466 124.491 217.085C124.266 216.703 123.962 216.373 123.6 216.116C123.239 215.86 122.827 215.683 122.392 215.596C121.957 215.509 121.509 215.515 121.077 215.613C118.469 216.265 116.806 220.79 116.663 223.17C116.663 223.313 116.741 225.034 116.806 225.98C116.31 225.21 115.821 224.441 115.3 223.678C113.787 221.481 112.183 219.303 110.599 217.126C110.11 216.474 109.634 215.789 109.158 215.118C109.497 214.987 113.54 213.416 114.941 211.988C116.187 210.684 117.419 208.728 117.139 206.876C117.087 206.436 116.944 206.011 116.717 205.629C116.491 205.247 116.187 204.917 115.825 204.661C115.462 204.404 115.05 204.227 114.615 204.14C114.18 204.054 113.731 204.06 113.298 204.158C110.69 204.81 109.028 209.334 108.884 211.714C108.884 211.897 109.002 214.368 109.067 214.974C108.011 213.494 106.974 212.014 106.009 210.515C104.694 208.498 103.513 206.396 102.475 204.223C102.632 204.164 106.857 202.541 108.291 201.074C109.536 199.77 110.769 197.814 110.488 195.969C110.438 195.528 110.295 195.103 110.069 194.721C109.844 194.34 109.54 194.01 109.179 193.753C108.817 193.497 108.405 193.319 107.97 193.233C107.535 193.146 107.087 193.152 106.655 193.25C104.047 193.902 102.384 198.427 102.241 200.806C102.241 200.963 102.325 202.847 102.391 203.74L102.247 203.78C101.255 201.567 100.465 199.269 99.8869 196.914C99.5544 195.61 99.3066 194.365 99.0915 193.146C99.9065 192.924 103.655 191.874 105.077 190.694C106.498 189.514 107.893 187.741 107.822 185.856C107.818 185.413 107.721 184.975 107.538 184.571C107.354 184.167 107.088 183.806 106.756 183.512C106.424 183.218 106.034 182.996 105.611 182.862C105.188 182.728 104.742 182.684 104.301 182.733C101.66 183.105 99.4892 187.408 99.085 189.762C99.085 189.886 98.9807 191.209 98.935 192.174C98.8503 191.62 98.7459 191.053 98.6742 190.518C98.3939 188.517 98.2569 186.671 98.1461 185.035C98.0939 184.103 98.0679 183.255 98.0483 182.466C98.7329 181.814 101.484 179.206 102.201 177.557C102.919 175.907 103.342 173.645 102.41 172.002C102.204 171.608 101.917 171.263 101.568 170.988C101.219 170.713 100.816 170.515 100.386 170.406C99.9551 170.297 99.5065 170.28 99.0689 170.356C98.6314 170.432 98.2147 170.6 97.8462 170.848C95.6686 172.399 95.7272 177.218 96.4509 179.493C96.5161 179.689 97.8397 182.649 97.8788 182.616L97.9179 182.577C97.9179 183.333 97.9179 184.148 97.9701 185.041C98.0418 186.684 98.1331 188.543 98.3743 190.557C98.6095 192.728 98.9709 194.883 99.4566 197.012C99.9888 199.402 100.735 201.739 101.686 203.995L101.726 204.073C101.217 203.48 99.737 201.869 99.6066 201.758C97.8071 200.194 93.4062 198.231 91.1307 199.613C90.7571 199.853 90.4382 200.168 90.1949 200.539C89.9515 200.911 89.7892 201.329 89.7184 201.767C89.6477 202.205 89.6701 202.653 89.7842 203.082C89.8984 203.511 90.1017 203.911 90.3809 204.256C91.5154 205.762 93.7778 206.264 95.5642 206.27C97.5724 206.27 101.536 204.477 101.856 204.314C102.877 206.587 104.049 208.789 105.364 210.906C106.12 212.138 106.922 213.364 107.743 214.576C107.287 214.081 106.876 213.638 106.811 213.579C105.012 212.021 100.611 210.052 98.3352 211.434C97.9616 211.673 97.6427 211.989 97.3993 212.36C97.156 212.731 96.9936 213.149 96.9229 213.587C96.8521 214.025 96.8746 214.474 96.9887 214.902C97.1029 215.331 97.3062 215.731 97.5854 216.076C98.7133 217.589 100.982 218.084 102.769 218.091C104.555 218.097 107.985 216.63 108.884 216.233C109.204 216.695 109.536 217.165 109.843 217.628C111.381 219.838 112.927 222.048 114.407 224.252C114.922 225.034 115.398 225.817 115.874 226.599C115.469 226.156 115.124 225.791 115.065 225.738C113.266 224.174 108.865 222.211 106.589 223.593C106.216 223.833 105.898 224.149 105.655 224.521C105.412 224.892 105.251 225.31 105.181 225.748C105.111 226.187 105.134 226.634 105.248 227.063C105.363 227.492 105.567 227.891 105.846 228.236C106.974 229.742 109.243 230.244 111.023 230.25C112.803 230.257 115.913 228.946 116.982 228.464C117.451 229.279 117.921 230.094 118.332 230.909C118.605 231.469 118.905 231.991 119.14 232.571C119.375 233.152 119.642 233.706 119.883 234.26C120.32 235.355 120.77 236.477 121.187 237.553C121.468 238.296 121.722 239.013 121.976 239.73C121.481 238.948 120.464 237.442 120.366 237.324C118.945 235.774 117.149 234.615 115.15 233.96C115.001 233.779 114.835 233.613 114.654 233.465C114.321 233.173 113.929 232.954 113.506 232.823C113.082 232.692 112.636 232.652 112.195 232.705C111.755 232.758 111.331 232.903 110.95 233.13C110.57 233.358 110.241 233.663 109.986 234.025C108.513 236.255 110.299 240.728 111.792 242.592C111.877 242.703 112.966 243.786 113.663 244.457L112.19 243.499C111.231 242.847 110.234 242.195 109.204 241.484L107.633 240.519C107.111 240.187 106.524 239.9 105.963 239.587C104.659 238.883 103.297 238.231 101.915 237.631C102.501 236.79 104.523 233.771 104.881 232.011C105.24 230.25 105.155 227.942 103.897 226.54C103.611 226.201 103.257 225.926 102.858 225.733C102.458 225.539 102.023 225.432 101.58 225.418C101.136 225.404 100.695 225.483 100.284 225.651C99.8736 225.818 99.5027 226.07 99.1958 226.39C97.4028 228.346 98.4917 233.06 99.6783 235.127C99.7565 235.258 100.774 236.64 101.354 237.39C100.519 237.024 99.6848 236.653 98.8307 236.307C96.3531 235.31 93.8169 234.351 91.2937 233.432C90.5179 233.145 89.7485 232.845 88.9792 232.552C89.1943 232.258 91.698 228.718 92.0761 226.749C92.4151 225.002 92.3565 222.681 91.0916 221.279C90.8057 220.94 90.4517 220.665 90.0525 220.471C89.6533 220.278 89.2179 220.17 88.7746 220.156C88.3313 220.142 87.8899 220.221 87.4792 220.389C87.0685 220.557 86.6977 220.809 86.3908 221.129C84.5978 223.085 85.6866 227.799 86.8798 229.866C86.9645 230.022 88.438 232.011 88.8357 232.474C87.1406 231.822 85.4584 231.17 83.8219 230.446C81.6128 229.489 79.4696 228.387 77.4064 227.147C77.5042 227.01 80.1382 223.326 80.5229 221.311C80.8554 219.564 80.7967 217.243 79.5384 215.841C79.2525 215.502 78.8985 215.227 78.4993 215.034C78.1001 214.84 77.6647 214.733 77.2214 214.719C76.778 214.705 76.3367 214.784 75.926 214.951C75.5153 215.119 75.1445 215.371 74.8375 215.691C73.0446 217.647 74.1334 222.361 75.32 224.428C75.3983 224.565 76.5197 226.084 77.0739 226.795L76.9696 226.906C74.9244 225.604 72.9999 224.123 71.219 222.479C70.2215 221.585 69.3217 220.679 68.4676 219.773C69.0283 219.121 71.558 216.206 72.1122 214.427C72.6664 212.647 72.8294 210.41 71.7341 208.885C71.4855 208.517 71.1625 208.206 70.7859 207.971C70.4094 207.736 69.9877 207.583 69.5483 207.522C69.1088 207.46 68.6613 207.492 68.2348 207.614C67.8083 207.737 67.4123 207.947 67.0724 208.233C65.0773 210.006 65.6445 214.792 66.5964 216.976C66.6486 217.093 67.3136 218.241 67.8091 219.069C67.431 218.658 67.0333 218.241 66.6747 217.836C65.3707 216.324 64.2036 214.857 63.2126 213.546C62.6519 212.797 62.1629 212.112 61.7065 211.466C61.9347 210.554 62.7953 206.87 62.4693 205.077C62.1433 203.284 61.2566 201.165 59.5745 200.331C59.1862 200.117 58.7573 199.988 58.3157 199.951C57.8742 199.914 57.4298 199.971 57.0115 200.117C56.5933 200.264 56.2106 200.496 55.8883 200.801C55.566 201.105 55.3114 201.473 55.141 201.882C54.1826 204.373 56.8883 208.356 58.74 209.856C58.903 209.986 61.6413 211.721 61.6544 211.675C61.6557 211.656 61.6557 211.636 61.6544 211.616C62.0781 212.268 62.5411 212.92 63.0561 213.651C64.0211 214.955 65.1294 216.48 66.4399 218.025C67.8356 219.707 69.3268 221.307 70.9061 222.818C72.6698 224.504 74.5788 226.031 76.611 227.382L76.6892 227.427C75.9394 227.212 73.8139 226.684 73.6444 226.664C71.2777 226.351 66.5312 227.14 65.3837 229.553C65.2049 229.96 65.1141 230.401 65.1172 230.846C65.1204 231.291 65.2175 231.73 65.4021 232.135C65.5867 232.54 65.8547 232.902 66.1886 233.196C66.5225 233.49 66.9147 233.71 67.3397 233.843C69.1196 234.482 71.2842 233.654 72.7707 232.669Z" fill="#9C9C9C"/>
<path d="M194.75 67.2729C196.146 69.607 201.173 73.0299 201.179 73.0299C201.186 73.0299 202.431 69.0332 202.483 68.7659C203.018 65.7211 202.261 59.5142 199.223 57.8973C198.707 57.6426 198.143 57.4994 197.567 57.4772C196.992 57.4549 196.419 57.554 195.884 57.768C195.35 57.982 194.866 58.3062 194.465 58.7194C194.064 59.1326 193.755 59.6255 193.557 60.1662C192.612 62.4351 193.564 65.2908 194.75 67.2729Z" fill="#9C9C9C"/>
<path d="M244.047 104.136C244.047 104.195 247.307 101.489 247.483 101.294C249.615 99.0443 252.406 93.4698 250.743 90.412C250.453 89.9145 250.061 89.4838 249.594 89.1479C249.126 88.8119 248.593 88.5781 248.029 88.4619C247.465 88.3457 246.883 88.3495 246.32 88.4732C245.758 88.5968 245.228 88.8376 244.765 89.1797C242.75 90.5684 241.974 93.4763 241.863 95.7843C241.739 98.4966 244.047 104.13 244.047 104.136Z" fill="#9C9C9C"/>
<path d="M186.217 82.8358C188.101 84.6418 193.434 86.5196 193.858 86.663C192.782 89.7115 191.911 92.8284 191.25 95.9929C190.852 97.8315 190.507 99.7028 190.187 101.58C190.187 100.7 190.187 99.9114 190.187 99.8006C189.901 96.7232 187.534 90.9335 184.15 90.1837C183.585 90.0736 183.002 90.084 182.441 90.214C181.88 90.344 181.352 90.5908 180.893 90.9384C180.433 91.2859 180.052 91.7264 179.774 92.2311C179.496 92.7358 179.328 93.2933 179.28 93.8675C178.993 96.2994 180.675 98.803 182.344 100.387C184.013 101.972 188.551 103.706 189.751 104.136C189.633 104.853 189.509 105.577 189.399 106.294C188.857 109.756 188.336 113.212 187.716 116.589C187.501 117.776 187.24 118.943 186.986 120.11C186.986 119.328 186.986 118.669 186.986 118.571C186.699 115.487 184.333 109.704 180.949 108.948C180.383 108.839 179.801 108.85 179.24 108.981C178.679 109.112 178.152 109.36 177.693 109.708C177.235 110.056 176.854 110.497 176.577 111.002C176.3 111.507 176.132 112.064 176.085 112.638C175.798 115.064 177.474 117.567 179.143 119.158C180.812 120.749 184.913 122.301 186.315 122.822C186.021 124.009 185.728 125.195 185.389 126.33C185.135 127.099 184.952 127.856 184.659 128.618L183.837 130.868C183.27 132.276 182.69 133.737 182.096 135.106C181.692 136.051 181.288 136.951 180.884 137.857C181.112 136.677 181.536 134.356 181.536 134.16C181.718 131.07 180.232 124.993 177.024 123.729C176.481 123.534 175.904 123.456 175.329 123.5C174.754 123.544 174.195 123.708 173.688 123.982C173.181 124.257 172.738 124.635 172.387 125.092C172.036 125.55 171.785 126.076 171.651 126.636C170.999 128.99 172.303 131.722 173.686 133.554C175.237 135.575 180.016 138.157 180.616 138.476C179.964 139.97 179.273 141.423 178.621 142.78C176.73 146.737 174.983 150.062 173.601 152.612L175.485 153.955C176.854 151.347 178.602 147.819 180.479 143.647C181.17 142.128 181.881 140.491 182.592 138.802C184.288 139.221 186.008 139.537 187.743 139.748C188.069 142.356 190.461 146.815 190.774 147.389C189.386 148.269 188.029 149.11 186.732 149.88C183.048 152.096 179.808 153.883 177.272 155.233L179.325 156.7C181.705 155.356 184.587 153.661 187.801 151.634C189.216 150.747 190.709 149.769 192.228 148.752C192.678 149.247 196.394 153.224 198.748 154.215C200.88 155.109 203.84 155.663 205.959 154.431C206.467 154.16 206.913 153.785 207.266 153.33C207.62 152.876 207.874 152.352 208.011 151.792C208.148 151.233 208.166 150.651 208.063 150.084C207.96 149.518 207.738 148.979 207.413 148.504C205.379 145.694 199.133 145.818 196.186 146.776C196.016 146.835 194.197 147.656 193.063 148.198C193.682 147.78 194.288 147.376 194.921 146.939C196.179 146.079 197.411 145.185 198.735 144.234L200.626 142.767C201.278 142.284 201.884 141.704 202.523 141.169C203.977 139.904 205.392 138.561 206.781 137.153C207.537 138.248 210.275 142.115 212.251 143.327C214.226 144.54 217.069 145.531 219.344 144.631C219.888 144.44 220.385 144.137 220.804 143.741C221.222 143.345 221.553 142.866 221.773 142.334C221.994 141.802 222.101 141.229 222.085 140.653C222.07 140.077 221.934 139.511 221.685 138.992C220.101 135.908 213.9 135.08 210.849 135.582C210.66 135.614 208.508 136.234 207.335 136.573C208.163 135.732 208.997 134.891 209.806 134.004C212.153 131.461 214.448 128.788 216.743 126.18C217.447 125.372 218.164 124.576 218.868 123.781C219.136 124.172 222.285 128.834 224.502 130.196C226.458 131.402 229.32 132.4 231.602 131.5C232.145 131.309 232.641 131.005 233.059 130.609C233.477 130.213 233.807 129.733 234.027 129.201C234.247 128.669 234.353 128.097 234.337 127.521C234.321 126.946 234.185 126.38 233.936 125.861C232.352 122.777 226.151 121.949 223.1 122.451C222.872 122.483 219.775 123.363 218.999 123.624C220.564 121.864 222.135 120.123 223.758 118.467C225.935 116.224 228.254 114.125 230.702 112.182C230.826 112.364 234.092 117.248 236.361 118.643C238.317 119.849 241.179 120.84 243.461 119.947C244.004 119.755 244.501 119.452 244.919 119.056C245.337 118.659 245.666 118.18 245.886 117.648C246.107 117.116 246.212 116.543 246.197 115.968C246.181 115.392 246.044 114.827 245.795 114.307C244.211 111.223 238.011 110.395 234.959 110.904C234.757 110.904 232.404 111.602 231.289 111.941L231.197 111.765C233.716 109.876 236.398 108.216 239.21 106.803C240.749 106.007 242.262 105.336 243.774 104.71C244.289 105.681 246.695 110.095 248.599 111.575C250.503 113.055 253.163 114.294 255.51 113.655C256.071 113.525 256.597 113.277 257.056 112.93C257.515 112.582 257.895 112.142 258.172 111.638C258.45 111.133 258.618 110.576 258.666 110.003C258.714 109.429 258.64 108.852 258.451 108.309C257.212 105.049 251.148 103.563 248.058 103.745C247.888 103.745 246.187 104.038 244.954 104.254C245.606 103.986 246.324 103.693 246.976 103.445C249.427 102.513 251.722 101.809 253.769 101.202C254.93 100.863 255.993 100.55 256.984 100.329C257.988 101.02 262.063 103.752 264.397 104.175C266.731 104.599 269.684 104.495 271.484 102.839C271.921 102.464 272.275 102.002 272.522 101.482C272.769 100.962 272.904 100.395 272.917 99.8195C272.931 99.2438 272.823 98.6717 272.601 98.1405C272.378 97.6093 272.047 97.1308 271.627 96.7362C269.019 94.4347 262.962 95.8951 260.296 97.4599C260.061 97.5968 256.703 100.133 256.755 100.172L256.814 100.211C255.856 100.433 254.826 100.687 253.704 100.981C251.65 101.548 249.323 102.206 246.845 103.087C244.164 104.021 241.538 105.109 238.982 106.347C236.114 107.711 233.371 109.325 230.787 111.171L230.702 111.243C231.302 110.428 232.919 108.094 233.023 107.898C234.484 105.166 235.703 99.0377 233.297 96.5406C232.885 96.1387 232.392 95.8279 231.852 95.6281C231.312 95.4284 230.736 95.3443 230.162 95.3811C229.587 95.418 229.027 95.5751 228.517 95.8422C228.007 96.1093 227.558 96.4805 227.201 96.9318C225.623 98.803 225.643 101.815 226.151 104.071C226.725 106.614 230.135 111.119 230.409 111.478C227.828 113.425 225.379 115.542 223.08 117.815C221.731 119.119 220.42 120.501 219.116 121.89C219.618 121.166 220.055 120.514 220.107 120.416C221.568 117.691 222.787 111.556 220.381 109.065C219.97 108.662 219.479 108.349 218.939 108.148C218.4 107.948 217.823 107.863 217.249 107.9C216.674 107.937 216.114 108.094 215.604 108.363C215.094 108.631 214.647 109.004 214.291 109.456C212.707 111.321 212.727 114.333 213.235 116.589C213.744 118.845 216.586 122.783 217.349 123.8L215.863 125.411C213.503 128.019 211.162 130.594 208.782 133.065C207.948 133.939 207.087 134.767 206.233 135.601C206.676 134.949 207.048 134.415 207.093 134.297C208.554 131.572 209.773 125.437 207.367 122.946C206.956 122.543 206.464 122.231 205.924 122.03C205.385 121.829 204.808 121.744 204.234 121.78C203.659 121.817 203.098 121.973 202.588 122.24C202.077 122.508 201.629 122.879 201.271 123.331C199.693 125.202 199.713 128.214 200.222 130.47C200.73 132.726 203.292 136.279 204.199 137.498C203.299 138.32 202.399 139.148 201.486 139.911C200.834 140.413 200.28 140.941 199.615 141.417L197.692 142.838C196.44 143.705 195.149 144.599 193.904 145.414C193.037 145.981 192.209 146.509 191.368 147.044C192.215 146.183 193.832 144.468 193.976 144.312C195.526 142.072 196.478 139.473 196.74 136.762C196.924 136.521 197.086 136.263 197.222 135.992C197.496 135.485 197.659 134.926 197.703 134.352C197.746 133.778 197.668 133.2 197.474 132.658C197.279 132.116 196.973 131.62 196.575 131.204C196.177 130.788 195.695 130.46 195.162 130.242C191.902 129.023 186.771 132.569 184.848 134.995C184.73 135.138 183.674 136.827 183.022 137.903C183.309 137.212 183.596 136.547 183.883 135.829C184.456 134.421 184.991 133 185.565 131.468C185.819 130.718 186.08 129.962 186.334 129.199C186.588 128.436 186.797 127.621 187.038 126.825C187.553 124.961 187.984 123.057 188.375 121.121C189.607 121.623 194.021 123.337 196.342 123.259C198.663 123.181 201.558 122.438 202.986 120.436C203.333 119.977 203.58 119.449 203.709 118.888C203.839 118.327 203.849 117.745 203.739 117.18C203.629 116.614 203.401 116.079 203.07 115.607C202.74 115.136 202.313 114.74 201.819 114.444C198.8 112.743 193.174 115.474 190.905 117.574C190.761 117.711 189.301 119.399 188.518 120.345C188.74 119.184 188.975 118.024 189.17 116.837C189.718 113.414 190.168 109.939 190.637 106.47C190.774 105.408 190.931 104.351 191.081 103.295C191.518 103.478 196.72 105.629 199.322 105.538C201.63 105.46 204.538 104.717 205.959 102.715C206.306 102.256 206.553 101.729 206.684 101.168C206.814 100.607 206.825 100.025 206.715 99.4602C206.606 98.895 206.378 98.3592 206.048 97.8876C205.718 97.4161 205.292 97.0193 204.799 96.7232C201.773 95.028 196.147 97.7533 193.878 99.8592C193.708 100.016 191.609 102.467 191.107 103.119C191.439 100.792 191.759 98.4705 192.228 96.1951C192.813 93.1206 193.595 90.087 194.569 87.1129C194.771 87.1976 200.189 89.4731 202.856 89.3818C205.164 89.297 208.071 88.5603 209.493 86.5587C209.84 86.0991 210.087 85.5715 210.218 85.0103C210.348 84.449 210.359 83.8666 210.249 83.3009C210.14 82.7352 209.913 82.1988 209.582 81.7267C209.252 81.2546 208.826 80.8572 208.332 80.5604C205.307 78.8652 199.687 81.5905 197.411 83.6964C197.262 83.8334 195.664 85.6915 194.921 86.5913L194.751 86.4935C195.797 83.531 197.106 80.6682 198.663 77.9394C199.511 76.4268 200.398 75.025 201.271 73.6819C202.236 74.21 206.676 76.5637 209.095 76.7528C211.403 76.9223 214.383 76.505 216.006 74.6729C216.402 74.2544 216.704 73.7573 216.895 73.2139C217.085 72.6706 217.159 72.0933 217.112 71.5194C217.065 70.9456 216.897 70.3882 216.62 69.8834C216.343 69.3787 215.963 68.938 215.504 68.5899C212.688 66.5687 206.8 68.6616 204.31 70.5067C204.179 70.6045 202.914 71.7716 202.008 72.6387C202.419 72.0389 202.836 71.413 203.247 70.8458C204.772 68.7203 206.305 66.8621 207.667 65.2256C208.456 64.3063 209.186 63.4848 209.871 62.7285C211.09 62.7285 216 62.7807 218.177 61.8483C220.355 60.916 222.741 59.1948 223.354 56.8215C223.513 56.2669 223.552 55.685 223.47 55.114C223.389 54.543 223.188 53.9956 222.88 53.5077C222.572 53.0197 222.165 52.6022 221.685 52.2823C221.205 51.9624 220.663 51.7474 220.094 51.6513C216.665 51.1557 212.401 55.7327 211.038 58.5102C210.921 58.7514 209.519 62.722 209.578 62.722H209.656C209.004 63.4392 208.254 64.2151 207.485 65.0822C206.083 66.6861 204.505 68.5182 202.921 70.6176C201.193 72.8681 199.597 75.217 198.142 77.6525C196.503 80.3727 195.108 83.2332 193.976 86.2001L193.936 86.3109C193.995 85.2938 194.047 82.4577 194.028 82.236C193.741 79.1521 191.374 73.369 187.99 72.6192C187.425 72.5101 186.844 72.5212 186.283 72.6517C185.723 72.7822 185.196 73.0292 184.737 73.3767C184.278 73.7241 183.898 74.1642 183.62 74.6684C183.343 75.1725 183.175 75.7294 183.126 76.3029C182.872 78.7348 184.548 81.2385 186.217 82.8358Z" fill="#9C9C9C"/>
<path d="M225.65 197.605V195.421C225.65 184.174 239.89 183.685 239.89 175.679C239.89 172.204 237.06 169.935 232.848 169.935C228.239 169.935 225.324 172.445 225.324 176.005V176.898C225.324 177.785 224.842 178.202 223.948 178.202L215.297 177.876C214.488 177.876 213.921 177.472 213.921 176.911V176.018C213.921 166.238 221.686 159.516 233.096 159.516C244.258 159.516 251.456 165.827 251.456 175.288C251.456 188.719 236.975 188.803 236.975 196.151V197.605C236.997 197.791 236.977 197.98 236.915 198.157C236.854 198.334 236.753 198.494 236.621 198.627C236.489 198.759 236.328 198.86 236.151 198.921C235.974 198.983 235.785 199.003 235.599 198.981H227.026C226.84 199.003 226.651 198.983 226.474 198.921C226.298 198.86 226.137 198.759 226.004 198.627C225.872 198.494 225.771 198.334 225.71 198.157C225.649 197.98 225.628 197.791 225.65 197.605ZM224.92 210.645C224.92 207.085 228.076 204.171 231.877 204.171C235.521 204.171 238.755 207.085 238.755 210.645C238.755 214.205 235.495 217.119 231.798 217.119C228.102 217.119 224.92 214.192 224.92 210.632V210.645Z" fill="#263238"/>
<path d="M54.6977 104.958V103.061C54.6977 93.2807 67.0854 92.8699 67.0854 85.9132C67.0854 82.888 64.6274 80.9255 60.9763 80.9255C56.9666 80.9255 54.4564 83.1032 54.4564 86.1936V86.9695C54.4564 87.7388 54.0392 88.0909 53.2633 88.0909L45.7459 87.8105C45.0417 87.8105 44.5527 87.4584 44.5527 86.9695V86.1936C44.5527 77.7177 51.2943 71.8499 61.2045 71.8499C70.8996 71.8499 77.1586 77.3331 77.1586 85.5416C77.1586 97.2057 64.5753 97.2774 64.5753 103.673V104.938C64.5941 105.099 64.5761 105.263 64.5228 105.416C64.4695 105.569 64.3822 105.709 64.2674 105.824C64.1526 105.938 64.0134 106.026 63.8601 106.079C63.7068 106.132 63.5434 106.15 63.3821 106.131H55.8908C55.7314 106.15 55.5699 106.132 55.4182 106.08C55.2665 106.028 55.1283 105.942 55.0139 105.83C54.8995 105.717 54.8118 105.58 54.757 105.43C54.7023 105.279 54.682 105.117 54.6977 104.958ZM54.0457 116.27C54.0457 113.179 56.784 110.65 60.0831 110.65C63.2452 110.65 66.0618 113.179 66.0618 116.27C66.0618 119.36 63.2452 121.89 60.0179 121.89C58.4847 121.929 56.9985 121.359 55.8834 120.307C54.7682 119.254 54.1147 117.803 54.0652 116.27H54.0457Z" fill="#FFA401"/>
<path d="M212.062 30.1422V29.1838C212.062 24.2482 218.308 24.0331 218.308 20.5189C218.308 18.9932 217.063 17.9957 215.217 17.9957C213.196 17.9957 211.918 19.0975 211.918 20.6623V21.0535C211.918 21.4447 211.703 21.6207 211.312 21.6207L207.517 21.4773C207.159 21.4773 206.911 21.3013 206.911 21.0535V20.6623C206.911 16.3657 210.321 13.4187 215.328 13.4187C220.225 13.4187 223.387 16.1897 223.387 20.3428C223.387 26.2107 217.03 26.2694 217.03 29.4707V30.1227C217.04 30.2043 217.03 30.2871 217.003 30.3647C216.976 30.4423 216.932 30.5126 216.873 30.5705C216.815 30.6283 216.744 30.672 216.666 30.6984C216.588 30.7247 216.505 30.733 216.424 30.7225H212.662C212.582 30.7326 212.501 30.7247 212.425 30.6994C212.349 30.6742 212.28 30.6321 212.222 30.5764C212.165 30.5207 212.12 30.4527 212.093 30.3776C212.065 30.3024 212.054 30.222 212.062 30.1422ZM211.742 35.8601C211.7 35.2505 211.843 34.6424 212.151 34.1149C212.46 33.5873 212.92 33.1648 213.472 32.9022C214.023 32.6396 214.641 32.5491 215.245 32.6425C215.849 32.7359 216.411 33.0088 216.858 33.4258C217.304 33.8427 217.615 34.3845 217.75 34.9805C217.885 35.5766 217.837 36.1993 217.613 36.7679C217.389 37.3364 216.999 37.8243 216.494 38.1682C215.989 38.5122 215.392 38.6962 214.781 38.6963C214.395 38.7102 214.01 38.6479 213.648 38.5128C213.286 38.3776 212.955 38.1725 212.673 37.909C212.39 37.6455 212.163 37.3289 212.003 36.9773C211.844 36.6257 211.755 36.2461 211.742 35.8601Z" fill="#FFA401"/>
<path d="M28.9648 162V160.794C28.9648 154.574 36.8409 154.307 36.8409 149.873C36.8409 147.95 35.2761 146.698 32.9289 146.698C30.3797 146.698 28.7692 148.087 28.7692 150.056V150.545C28.7692 151.04 28.5019 151.262 28.0064 151.262L23.2208 151.086C22.771 151.086 22.458 150.858 22.458 150.545V150.056C22.458 144.644 26.7546 140.928 33.0658 140.928C39.2402 140.928 43.2173 144.416 43.2173 149.652C43.2173 157.078 35.2109 157.123 35.2109 161.198V162C35.2235 162.103 35.2125 162.208 35.1787 162.306C35.1448 162.405 35.089 162.494 35.0155 162.568C34.9419 162.641 34.8526 162.697 34.7543 162.731C34.656 162.765 34.5513 162.776 34.4481 162.763H29.7146C29.6124 162.774 29.5092 162.761 29.4125 162.726C29.3159 162.691 29.2283 162.635 29.1563 162.562C29.0843 162.489 29.0297 162.4 28.9965 162.303C28.9634 162.206 28.9526 162.102 28.9648 162V162ZM28.5606 169.205C28.5096 168.436 28.6909 167.671 29.0811 167.007C29.4713 166.344 30.0523 165.813 30.7484 165.484C31.4444 165.155 32.2234 165.044 32.9838 165.164C33.7442 165.284 34.4508 165.63 35.0117 166.157C35.5726 166.684 35.9617 167.368 36.1285 168.12C36.2953 168.871 36.2319 169.656 35.9467 170.371C35.6615 171.086 35.1676 171.698 34.5293 172.129C33.8911 172.559 33.138 172.788 32.3682 172.784C31.387 172.816 30.4334 172.456 29.7169 171.785C29.0005 171.114 28.5799 170.186 28.5476 169.205H28.5606Z" stroke="#263238" stroke-miterlimit="10"/>
<path d="M88.9475 49.4541V48.626C88.9475 44.349 94.3655 44.1599 94.3655 41.1151C94.3655 39.8112 93.2897 38.931 91.6858 38.931C89.932 38.931 88.8236 39.8829 88.8236 41.239V41.5781C88.8236 41.9171 88.6411 42.0671 88.302 42.0671L85.0421 41.9432C84.7357 41.9432 84.5205 41.7932 84.5205 41.5781V41.239C84.5205 37.5162 87.474 34.9604 91.8097 34.9604C96.1454 34.9604 98.7273 37.3597 98.7273 40.9587C98.7273 46.0703 93.218 46.1029 93.218 48.8999V49.4541C93.2264 49.5246 93.2187 49.5961 93.1954 49.6632C93.1722 49.7303 93.134 49.7912 93.0838 49.8415C93.0336 49.8917 92.9726 49.9298 92.9055 49.9531C92.8384 49.9763 92.7669 49.9841 92.6964 49.9757H89.4365C89.3686 49.9789 89.3008 49.9674 89.2377 49.9419C89.1747 49.9163 89.118 49.8774 89.0715 49.8278C89.025 49.7782 88.9898 49.7191 88.9684 49.6546C88.947 49.59 88.9399 49.5216 88.9475 49.4541ZM88.6737 54.4092C88.645 53.8882 88.7732 53.3706 89.0418 52.9233C89.3103 52.476 89.7069 52.1195 90.1802 51.9C90.6535 51.6804 91.1818 51.6078 91.6967 51.6917C92.2117 51.7755 92.6897 52.0119 93.0689 52.3703C93.4481 52.7286 93.7111 53.1925 93.8239 53.7019C93.9367 54.2113 93.8942 54.7428 93.7017 55.2278C93.5092 55.7127 93.1757 56.1288 92.7443 56.4222C92.3129 56.7156 91.8034 56.8729 91.2816 56.8737C90.6082 56.8966 89.9533 56.6513 89.4606 56.1916C88.968 55.732 88.6779 55.0956 88.6541 54.4222L88.6737 54.4092Z" fill="#263238"/>
<path d="M185.443 228.197V227.368C185.443 223.091 190.861 222.909 190.861 219.858C190.861 218.554 189.785 217.673 188.181 217.673C186.427 217.673 185.319 218.625 185.319 219.981V220.321C185.319 220.66 185.136 220.816 184.797 220.816L181.537 220.692C181.231 220.692 181.016 220.536 181.016 220.321V219.981C181.016 216.259 183.969 213.703 188.305 213.703C192.641 213.703 195.294 216.102 195.294 219.708C195.294 224.813 189.785 224.845 189.785 227.642V228.197C189.793 228.267 189.785 228.339 189.762 228.406C189.739 228.474 189.701 228.535 189.651 228.586C189.601 228.636 189.54 228.675 189.473 228.699C189.406 228.723 189.334 228.732 189.263 228.725H186.003C185.93 228.739 185.853 228.735 185.781 228.714C185.709 228.693 185.643 228.655 185.588 228.603C185.534 228.552 185.492 228.488 185.467 228.417C185.441 228.347 185.433 228.271 185.443 228.197V228.197ZM185.169 233.152C185.14 232.631 185.268 232.113 185.537 231.666C185.805 231.218 186.202 230.862 186.675 230.642C187.149 230.423 187.677 230.35 188.192 230.434C188.707 230.518 189.185 230.754 189.564 231.113C189.943 231.471 190.206 231.935 190.319 232.444C190.432 232.954 190.389 233.485 190.197 233.97C190.004 234.455 189.671 234.871 189.239 235.165C188.808 235.458 188.298 235.615 187.777 235.616C187.106 235.632 186.455 235.382 185.968 234.92C185.481 234.458 185.196 233.823 185.175 233.152H185.169Z" stroke="#263238" stroke-miterlimit="10"/>
<path d="M159.917 243.036C159.871 242.899 159.825 242.762 159.773 242.625C159.721 242.488 159.682 242.345 159.63 242.208C159.578 242.071 159.539 241.934 159.486 241.797C159.434 241.66 159.395 241.517 159.343 241.38C159.291 241.243 159.252 241.106 159.199 240.969C159.147 240.832 159.108 240.689 159.056 240.552L158.913 240.141C158.867 239.997 158.815 239.861 158.769 239.724L158.626 239.313C158.58 239.169 158.528 239.033 158.482 238.896L158.339 238.485C158.293 238.341 158.241 238.205 158.195 238.068L158.058 237.631C158.013 237.487 157.961 237.35 157.915 237.213L157.765 236.803C157.719 236.659 157.674 236.522 157.622 236.385C157.569 236.249 157.53 236.112 157.478 235.975C157.426 235.838 157.387 235.694 157.335 235.557C157.283 235.421 157.244 235.284 157.191 235.147C155.066 228.679 148.494 223.932 141.263 223.932C134.254 223.932 128.158 228.014 125.616 233.764C125.55 233.895 125.492 234.032 125.433 234.162L125.257 234.566C125.192 234.697 125.133 234.827 125.074 234.964C125.016 235.101 124.951 235.231 124.892 235.362L124.716 235.76C124.651 235.896 124.592 236.027 124.533 236.164C124.475 236.301 124.409 236.425 124.351 236.561C124.292 236.698 124.227 236.822 124.168 236.959L123.992 237.357C123.927 237.487 123.868 237.624 123.81 237.755C123.751 237.885 123.686 238.022 123.627 238.152L123.451 238.557C123.386 238.687 123.327 238.817 123.268 238.954C123.21 239.091 123.145 239.222 123.086 239.352L122.91 239.75C122.845 239.887 122.786 240.017 122.727 240.154C122.669 240.291 122.603 240.415 122.545 240.552L122.369 240.949C122.303 241.08 122.245 241.217 122.186 241.347C122.127 241.477 122.062 241.614 122.004 241.751C120.885 244.134 120.31 246.735 120.321 249.367C120.321 259.864 129.384 268.444 140.592 268.444C151.558 268.444 161.097 259.864 161.097 249.367C161.095 247.365 160.744 245.38 160.06 243.499C160.014 243.31 159.969 243.173 159.917 243.036Z" fill="#263238"/>
<path d="M144.405 98.6275C110.782 98.6275 87.8906 118.415 87.8906 147.272V149.88C87.8967 150.311 88.0139 150.733 88.2309 151.106C88.448 151.478 88.7574 151.788 89.1294 152.006C89.2701 152.141 89.4228 152.263 89.5858 152.371C89.7271 152.508 89.8822 152.631 90.0487 152.736C90.19 152.873 90.3451 152.996 90.5116 153.101C90.6516 153.24 90.8069 153.362 90.9745 153.466C91.1135 153.603 91.2665 153.726 91.4309 153.831C91.572 153.971 91.7272 154.095 91.8938 154.203C92.0368 154.338 92.1917 154.461 92.3567 154.568C92.4984 154.705 92.6535 154.827 92.8197 154.933C92.959 155.07 93.1119 155.192 93.276 155.298C93.4292 155.446 93.5975 155.577 93.7781 155.689C93.911 155.811 94.0526 155.922 94.2019 156.022C94.3448 156.157 94.4998 156.28 94.6648 156.387C94.8055 156.522 94.9582 156.645 95.1212 156.752C95.2641 156.888 95.4191 157.01 95.5841 157.117C95.7257 157.254 95.8808 157.377 96.047 157.482C96.1863 157.619 96.3392 157.742 96.5034 157.848C96.645 157.985 96.8001 158.107 96.9663 158.213C97.1056 158.35 97.2585 158.472 97.4227 158.578C97.5656 158.713 97.7206 158.835 97.8856 158.943C98.0249 159.08 98.1778 159.202 98.342 159.308C99.0953 159.971 100.078 160.313 101.08 160.26L122.048 161.042C124.206 161.042 125.38 160.064 125.38 157.906V155.755C125.38 147.129 132.434 141.059 143.636 141.059C153.826 141.059 160.685 146.542 160.685 154.972C160.685 155.933 160.594 156.891 160.411 157.835C149.888 171.631 122.498 177.714 122.498 204.491V210.932C122.498 213.54 123.926 214.981 126.553 214.981H151.798C154.406 214.981 155.854 213.553 155.854 210.932V206.636C155.854 184.938 198.539 184.696 198.539 145.114C198.539 117.222 177.311 98.6275 144.405 98.6275Z" fill="#263238"/>
<path d="M122.466 210.945V204.503C122.466 171.356 164.434 169.948 164.434 146.32C164.434 136.064 156.089 129.368 143.688 129.368C130.094 129.368 121.52 136.762 121.52 147.252V149.86C121.52 152.468 120.086 153.681 117.465 153.681L91.9463 152.722C89.5666 152.722 87.8975 151.529 87.8975 149.86V147.252C87.8975 118.395 110.789 98.6074 144.412 98.6074C177.318 98.6074 198.527 117.202 198.527 145.107C198.527 184.689 155.841 184.931 155.841 206.629V210.925C155.841 213.533 154.407 214.974 151.786 214.974H126.521C123.894 214.994 122.466 213.566 122.466 210.945ZM120.321 249.367C120.321 238.876 129.618 230.289 140.826 230.289C151.558 230.289 161.096 238.876 161.096 249.367C161.096 259.857 151.538 268.411 140.591 268.411C129.37 268.411 120.321 259.831 120.321 249.367Z" fill="#FFA401" stroke="#FFA401" stroke-miterlimit="10"/>
<path d="M139.547 289.79C159.212 289.79 175.152 286.226 175.152 281.829C175.152 277.432 159.212 273.868 139.547 273.868C119.883 273.868 103.942 277.432 103.942 281.829C103.942 286.226 119.883 289.79 139.547 289.79Z" fill="#263238"/>
<path d="M112.333 101.268L110.971 104.241C110.971 104.241 103.056 105.095 103.056 105.688C103.056 106.281 103.14 110.369 103.571 110.539C103.898 110.666 104.261 110.666 104.588 110.539L116.245 107.559L117.354 102.285L112.333 101.268Z" fill="white" stroke="#263238" stroke-linecap="round" stroke-linejoin="round"/>
<path d="M110.117 106.581C108.669 107.767 107.108 108.807 105.455 109.685C103.571 110.532 103.499 111.817 104.099 111.817C104.699 111.817 110.019 109.587 110.019 109.587C110.019 109.587 114.85 108.322 115.548 107.937C116.245 107.553 116.324 105.414 116.324 105.414" fill="white"/>
<path d="M110.117 106.581C108.669 107.767 107.108 108.807 105.455 109.685C103.571 110.532 103.499 111.817 104.099 111.817C104.699 111.817 110.019 109.587 110.019 109.587C110.019 109.587 114.85 108.322 115.548 107.937C116.245 107.553 116.324 105.414 116.324 105.414" stroke="#263238" stroke-linecap="round" stroke-linejoin="round"/>
<path d="M119.296 44.1404L114.433 81.4211L111.049 101.607L118.56 103.38L124.16 79.5042L126.814 64.4759L119.296 44.1404Z" fill="#7D7D7D" stroke="#263238" stroke-linecap="round" stroke-linejoin="round"/>
<path d="M158.547 17.1481L155.58 16.6787L149.504 14.3771L149.282 21.5946L158.703 22.4618L158.547 17.1481Z" fill="white" stroke="#263238" stroke-linecap="round" stroke-linejoin="round"/>
<path d="M123.868 149.352C121.657 151.93 119.591 154.629 117.68 157.436C115.17 161.27 116.057 165.391 119.154 166.427C122.251 167.464 126.221 164.654 127.258 162.444C128.295 160.233 127.995 159.06 129.612 156.85C131.229 154.639 132.559 152.429 131.972 149.482C131.385 146.535 125.459 147.291 123.868 149.352Z" fill="#7D7D7D" stroke="#263238" stroke-linecap="round" stroke-linejoin="round"/>
<path d="M126.958 162.998C126.749 162.554 126.508 162.085 126.221 161.583C123.854 157.417 119.701 157.749 117.093 158.525C115.379 162.026 116.357 165.508 119.167 166.447C121.977 167.386 125.602 165.091 126.958 162.998Z" fill="white" stroke="#263238" stroke-linecap="round" stroke-linejoin="round"/>
<path d="M126.221 161.583C125.341 162.887 124.16 166.447 119.59 164.973C118.316 164.646 117.176 163.928 116.33 162.92C116.429 163.715 116.748 164.466 117.252 165.09C117.755 165.713 118.423 166.183 119.179 166.447C122.27 167.477 126.247 164.673 127.283 162.463C128.32 160.253 128.02 159.079 129.637 156.869C131.254 154.659 132.584 152.449 131.997 149.502C131.997 153.035 130.693 153.622 129.05 155.539C127.407 157.456 127.107 160.253 126.221 161.583Z" fill="white" stroke="#263238" stroke-linecap="round" stroke-linejoin="round"/>
<path d="M167.348 149.352C169.559 151.93 171.625 154.629 173.535 157.436C176.045 161.27 175.159 165.391 172.062 166.427C168.965 167.464 164.994 164.654 163.958 162.444C162.921 160.233 163.221 159.06 161.604 156.85C159.987 154.639 158.657 152.429 159.244 149.482C159.831 146.535 165.731 147.291 167.348 149.352Z" fill="#7D7D7D" stroke="#263238" stroke-linecap="round" stroke-linejoin="round"/>
<path d="M164.265 162.998C164.467 162.554 164.708 162.085 164.995 161.583C167.362 157.417 171.515 157.749 174.123 158.525C175.837 162.026 174.859 165.508 172.049 166.447C169.239 167.386 165.614 165.091 164.265 162.998Z" fill="white" stroke="#263238" stroke-linecap="round" stroke-linejoin="round"/>
<path d="M164.995 161.583C165.875 162.887 167.055 166.447 171.626 164.973C172.9 164.646 174.04 163.928 174.886 162.92C174.787 163.715 174.468 164.466 173.964 165.09C173.461 165.713 172.793 166.183 172.036 166.447C168.946 167.477 164.969 164.673 163.932 162.463C162.896 160.253 163.195 159.079 161.579 156.869C159.962 154.659 158.632 152.449 159.218 149.502C159.218 153.035 160.522 153.622 162.165 155.539C163.808 157.456 164.108 160.253 164.995 161.583Z" fill="white" stroke="#263238" stroke-linecap="round" stroke-linejoin="round"/>
<path d="M174.259 98.5162C174.259 95.8626 169.695 92.9156 169.695 92.9156C162.816 85.9197 150.402 86.8456 145.819 87.4715C141.255 86.8195 128.828 85.9197 121.95 92.9156C121.95 92.9156 117.386 95.8626 117.386 98.5162C117.386 101.17 123.136 149.058 123.136 149.058C123.136 149.058 122.986 151.562 127.113 151.855C131.24 152.149 132.981 149.795 132.981 149.795L134.605 109.274C134.605 109.274 141.235 104.554 142.429 104.41C142.859 104.351 143.42 104.26 144.046 104.182V104.26C145.213 104.017 146.418 104.017 147.586 104.26V104.182C148.238 104.26 148.766 104.351 149.203 104.41C150.383 104.554 157.027 109.274 157.027 109.274L158.65 149.795C158.65 149.795 160.417 152.149 164.518 151.855C168.619 151.562 168.495 149.058 168.495 149.058C168.495 149.058 174.259 101.17 174.259 98.5162Z" fill="#263238" stroke="#263238" stroke-linecap="round" stroke-linejoin="round"/>
<path d="M157.021 109.274C157.021 109.274 156.134 99.5463 160.411 95.8626" stroke="#707070" stroke-linecap="round" stroke-linejoin="round"/>
<path d="M134.625 109.274C134.625 109.274 135.068 101.17 134.181 98.2228C133.295 95.2758 131.821 94.0957 131.821 94.0957" stroke="#707070" stroke-linecap="round" stroke-linejoin="round"/>
<path d="M140.075 89.9686C140.075 89.9686 144.789 95.4192 145.676 99.9897" stroke="#707070" stroke-linecap="round" stroke-linejoin="round"/>
<path d="M150.39 90.2816C150.39 90.2816 147.737 93.2286 147.443 95.4388" stroke="#707070" stroke-linecap="round" stroke-linejoin="round"/>
<path d="M143.76 32.9458C143.76 32.9458 139.489 32.3525 138.016 33.8259C136.542 35.2994 131.528 40.7305 131.528 40.7305L134.182 87.5888C134.182 87.5888 140.226 89.9491 145.383 89.9491C150.54 89.9491 156.434 88.0322 157.771 87.0021C159.107 85.9719 157.921 35.7232 157.921 35.7232C157.921 35.7232 146.974 32.5024 143.76 32.9458Z" fill="#FFA401" stroke="#263238" stroke-linecap="round" stroke-linejoin="round"/>
<path d="M151.57 33.9759C153.814 33.6353 156.076 33.4371 158.345 33.3826C161.292 33.3826 164.212 33.5326 164.212 33.5326L171.58 26.4585L156.754 23.0682L157.934 16.294C157.934 16.294 168.835 15.5573 174.286 16.5874C179.736 17.6175 188.284 20.2711 188.727 20.2711C189.171 20.2711 189.757 21.8946 189.314 23.0682C188.871 24.2417 175.009 39.5765 170.869 43.5536C168.161 46.2077 165.603 49.0113 163.208 51.9512L161.318 84.8114C161.318 84.8114 166.181 87.465 167.068 88.3452C167.955 89.2253 168.985 92.7656 168.985 92.7656C168.985 92.7656 159.994 89.0819 157.634 88.7885C155.274 88.4951 153.807 88.3452 153.363 87.4846C152.92 86.6239 149.236 47.2569 149.236 47.2569L149.386 34.7322C149.386 34.7322 149.36 33.9759 151.57 33.9759Z" fill="#7D7D7D" stroke="#263238" stroke-linecap="round" stroke-linejoin="round"/>
<path d="M160.411 54.1615L152.45 55.1916L153.187 58.1386L157.171 59.1687L160.998 57.4018L160.411 54.1615Z" stroke="#263238" stroke-linecap="round" stroke-linejoin="round"/>
<path d="M164.974 36.4795L163.207 51.9512L167.777 38.8397" stroke="#263238" stroke-linecap="round" stroke-linejoin="round"/>
<path d="M171.605 26.4584C171.605 26.4584 175.289 27.1952 180.89 24.985" stroke="#263238" stroke-linecap="round" stroke-linejoin="round"/>
<path d="M175.439 27.4886C177.859 27.556 180.28 27.3592 182.657 26.9018" stroke="#263238" stroke-linecap="round" stroke-linejoin="round"/>
<path d="M138.752 32.7958L139.489 43.5536C140.16 44.437 141.03 45.1503 142.028 45.6361C143.025 46.1219 144.123 46.3667 145.233 46.3506C148.916 46.2072 149.36 43.5536 149.36 43.5536V34.7126L138.752 32.7958Z" fill="white" stroke="#263238" stroke-linecap="round" stroke-linejoin="round"/>
<path d="M149.502 38.3964L149.209 47.2504L152.306 42.3865C152.306 42.3865 155.696 46.6571 156.576 46.5136C157.457 46.3702 155.99 44.5968 155.696 42.9798C155.403 41.3629 152.893 35.6059 152.599 33.9889C152.306 32.372 149.502 32.0721 149.339 32.8088C149.258 33.4452 149.258 34.0893 149.339 34.7257L149.502 38.3964Z" fill="#7D7D7D" stroke="#263238" stroke-linecap="round" stroke-linejoin="round"/>
<path d="M139.339 46.3506C139.339 46.3506 139.925 87.6084 138.452 88.0778C136.978 88.5473 131.084 88.6711 127.368 90.438C123.652 92.2049 121.918 92.9417 121.918 92.9417C121.918 92.9417 123.684 88.6711 125.751 86.7543C127.125 85.5196 128.66 84.4778 130.315 83.6574L126.488 63.9152C126.488 63.9152 119.414 45.1966 119.264 44.1665C119.114 43.1363 132.675 35.4755 135.472 34.1454C138.269 32.8154 139.013 34.002 139.013 34.002L139.339 46.3506Z" fill="#7D7D7D" stroke="#263238" stroke-linecap="round" stroke-linejoin="round"/>
<path d="M135.655 32.0591C135.655 32.0591 132.121 43.2602 131.821 44.7337C131.521 46.2072 131.821 46.2072 132.858 45.1705C133.895 44.1339 136.542 41.6368 136.542 41.6368L139.339 46.3506L139.189 37.6596V32.6458C139.189 32.6458 139.045 30.5856 135.655 32.0591Z" fill="#7D7D7D" stroke="#263238" stroke-linecap="round" stroke-linejoin="round"/>
<path d="M128.73 56.2282H137.421L137.278 59.762L133.444 61.0856L128.58 59.762L128.73 56.2282Z" stroke="#263238" stroke-linecap="round" stroke-linejoin="round"/>
<path d="M152.599 17.4741C152.599 17.4741 154.66 26.4585 155.103 27.9059C155.546 29.3533 152.749 35.1299 151.843 36.4535C151.498 37.0275 151.024 37.5128 150.458 37.8705C149.892 38.2283 149.25 38.4486 148.583 38.5137C147.553 38.5137 141.952 36.6034 140.622 35.7167C139.292 34.83 137.975 33.7999 137.975 33.7999C137.348 34.0856 136.652 34.1824 135.971 34.0781C135.29 33.9739 134.654 33.6733 134.142 33.2131C132.375 31.5896 130.014 29.6728 130.601 28.3492C130.887 27.6998 131.366 27.1538 131.972 26.7853C132.578 26.4168 133.283 26.2435 133.992 26.289C135.615 26.289 135.028 26.139 135.028 26.139C135.028 26.139 132.081 21.8685 132.081 18.4781C132.081 15.0878 138.412 12.6103 142.096 12.6103C144.643 12.7164 147.145 13.3165 149.463 14.3771L152.599 17.4741Z" fill="white" stroke="#263238" stroke-linecap="round" stroke-linejoin="round"/>
<path d="M147.443 20.8579L150.096 25.8717L147.443 27.6386L146.263 26.1651" stroke="#263238" stroke-linecap="round" stroke-linejoin="round"/>
<path d="M152.307 25.4283C152.307 25.4283 152.45 26.6084 150.684 28.5253" stroke="#263238" stroke-linecap="round" stroke-linejoin="round"/>
<path d="M144.646 22.703C144.646 23.3941 144.346 23.9548 143.994 23.9548C143.642 23.9548 143.342 23.3941 143.342 22.703C143.342 22.0119 143.642 21.4512 143.994 21.4512C144.346 21.4512 144.646 22.0119 144.646 22.703Z" fill="#263238"/>
<path d="M149.281 21.5946C149.649 21.5946 149.946 21.0342 149.946 20.3428C149.946 19.6515 149.649 19.091 149.281 19.091C148.914 19.091 148.616 19.6515 148.616 20.3428C148.616 21.0342 148.914 21.5946 149.281 21.5946Z" fill="#263238"/>
<path d="M136.685 9.80672C136.685 9.80672 127.414 13.1971 127.108 17.4741C126.801 21.7511 135.362 27.6386 135.805 28.3753C136.249 29.1121 137.572 27.4886 137.572 27.4886C137.277 27.0927 137.072 26.6378 136.969 26.155C136.867 25.6722 136.87 25.173 136.979 24.6916C137.422 23.2181 139.339 21.4317 139.339 20.7145C139.339 19.9973 137.129 21.3013 137.129 19.091C137.129 16.8808 142.579 15.5573 145.82 15.7007C149.06 15.8441 151.864 21.3013 154.224 18.6477C156.584 15.9941 153.187 15.2639 153.187 15.2639C153.187 15.2639 157.751 14.6705 157.751 12.3169C157.751 9.96319 155.391 8.33323 154.361 8.33323C153.331 8.33323 150.534 10.1066 150.534 8.18979C150.534 6.27294 153.331 5.38624 150.677 2.3219C148.023 -0.742444 144.64 2.3219 144.64 3.502C144.64 4.6821 143.753 6.88581 143.166 6.88581C142.579 6.88581 140.806 4.23874 138.746 5.71224C138.126 6.20478 137.621 6.82602 137.265 7.53298C136.91 8.23994 136.712 9.01574 136.685 9.80672Z" fill="#263238" stroke="#263238" stroke-linecap="round" stroke-linejoin="round"/>
<path d="M140.519 21.1578L145.232 19.3844" stroke="#263238" stroke-linecap="round" stroke-linejoin="round"/>
<path d="M145.97 17.3242C145.88 16.8616 145.954 16.3821 146.179 15.968" stroke="#263238" stroke-linecap="round" stroke-linejoin="round"/>
<path d="M146.178 15.955C146.51 15.303 147.26 14.4619 148.916 13.7773" stroke="white" stroke-linecap="round" stroke-linejoin="round"/>
</svg>
