<svg width="328" height="305" viewBox="0 0 328 305" fill="none" xmlns="http://www.w3.org/2000/svg">
<path d="M234.098 304.833C259.961 304.833 280.928 301.653 280.928 297.73C280.928 293.808 259.961 290.628 234.098 290.628C208.234 290.628 187.268 293.808 187.268 297.73C187.268 301.653 208.234 304.833 234.098 304.833Z" fill="#FFA400"/>
<path opacity="0.5" d="M234.098 304.833C259.961 304.833 280.928 301.653 280.928 297.73C280.928 293.808 259.961 290.628 234.098 290.628C208.234 290.628 187.268 293.808 187.268 297.73C187.268 301.653 208.234 304.833 234.098 304.833Z" fill="white"/>
<path d="M91.3502 294.503C110.794 294.503 126.556 291.323 126.556 287.4C126.556 283.478 110.794 280.298 91.3502 280.298C71.9066 280.298 56.1445 283.478 56.1445 287.4C56.1445 291.323 71.9066 294.503 91.3502 294.503Z" fill="#FFA400"/>
<path opacity="0.5" d="M91.3502 294.503C110.794 294.503 126.556 291.323 126.556 287.4C126.556 283.478 110.794 280.298 91.3502 280.298C71.9066 280.298 56.1445 283.478 56.1445 287.4C56.1445 291.323 71.9066 294.503 91.3502 294.503Z" fill="white"/>
<path d="M74.2316 268.954L92.158 261.494C90.9061 259.442 89.6543 260.413 88.0532 257.091C87.2016 255.388 87.951 252.646 86.878 250.449C86.0264 248.652 83.3779 247.511 82.3559 245.45C81.4277 243.593 82.1005 240.826 81.0956 238.824C80.0907 236.823 77.5103 235.835 76.5054 233.885C75.5005 231.935 76.1562 229.193 75.1428 227.276C74.1294 225.36 71.4809 224.304 70.4675 222.414C69.454 220.523 69.9905 217.687 68.9516 215.839C67.9126 213.991 65.1789 212.918 64.1315 211.138C62.9562 209.146 63.3906 206.327 62.309 204.632C60.989 202.571 58.2383 201.822 57.1227 200.374C55.0277 197.649 53.9036 194.651 52.8646 194.856C51.8257 195.06 52.7284 198.075 53.299 201.668C53.5885 203.457 52.243 205.927 52.8391 208.32C53.316 210.244 55.6664 211.845 56.3137 214.042C56.8842 216.01 55.7431 218.607 56.4159 220.728C57.0886 222.848 59.4561 224.202 60.1459 226.272C60.8357 228.341 59.7542 230.921 60.4525 232.957C61.1508 234.992 63.6035 236.414 64.3103 238.416C65.0171 240.417 64.0207 243.116 64.7361 245.092C65.4515 247.068 67.9637 248.567 68.6706 250.5C69.4626 252.637 68.4832 255.294 69.1815 257.159C70.0331 259.425 72.5283 260.804 73.1841 262.516C74.6063 266.255 72.605 266.187 73.7802 269.184L74.2316 268.954Z" fill="#2E353A"/>
<path d="M54.9258 200.893L81.5812 264.926" stroke="white" stroke-width="0.360849" stroke-miterlimit="10"/>
<path d="M60.5202 206.446L58.6466 210.176L54.9336 207.987" stroke="white" stroke-width="0.360849" stroke-miterlimit="10"/>
<path d="M65.1523 217.585L63.2872 221.324L59.5742 219.135" stroke="white" stroke-width="0.360849" stroke-miterlimit="10"/>
<path d="M69.5221 228.068L67.6571 231.807L63.9355 229.618" stroke="white" stroke-width="0.360849" stroke-miterlimit="10"/>
<path d="M74.7174 240.536L72.8439 244.275L69.1309 242.086" stroke="white" stroke-width="0.360849" stroke-miterlimit="10"/>
<path d="M79.9648 253.14L78.0997 256.878L74.3867 254.69" stroke="white" stroke-width="0.360849" stroke-miterlimit="10"/>
<path d="M72.2056 264.006L101.45 263.078C100.777 259.518 98.5034 260.217 98.0435 254.69C97.805 251.897 100.275 248.362 99.9341 244.7C99.653 241.686 96.5787 238.688 96.2381 235.239C95.9315 232.131 98.3586 228.588 98.0094 225.233C97.6688 222.065 94.5519 219.109 94.1857 215.822C93.8195 212.535 96.1955 209.009 95.8038 205.782C95.412 202.554 92.2355 199.642 91.8097 196.414C91.3839 193.186 93.6662 189.499 93.1893 186.348C92.6954 183.01 89.4422 180.208 88.9312 177.134C88.3436 173.727 90.4641 169.963 89.8425 167.016C89.0845 163.397 85.5844 160.868 84.818 158.211C83.3362 153.254 83.3447 148.426 81.7692 148.162C80.1937 147.898 79.8531 152.616 78.7545 157.938C78.2009 160.612 74.9733 163.406 74.5475 167.067C74.1984 170.031 76.651 173.54 76.3785 176.972C76.1315 180.055 73.1424 183.103 72.972 186.442C72.7932 189.593 75.4076 192.974 75.2629 196.261C75.1181 199.548 72.2311 202.588 72.1289 205.833C72.0267 209.078 74.6838 212.382 74.6412 215.584C74.5986 218.786 71.7202 222.056 71.6691 225.216C71.618 228.554 74.3602 231.833 74.3261 234.932C74.3261 238.339 71.4988 241.592 71.4902 244.598C71.4902 248.235 74.2495 251.505 74.258 254.281C74.258 260.293 71.4817 259.135 71.5328 263.981L72.2056 264.006Z" fill="#2E353A"/>
<path d="M81.3926 157.819L84.7224 262.261" stroke="white" stroke-width="0.543628" stroke-miterlimit="10"/>
<path d="M86.3063 168.626L81.6735 172.884L77.6113 167.817" stroke="white" stroke-width="0.543628" stroke-miterlimit="10"/>
<path d="M86.8864 186.799L82.2536 191.066L78.1914 185.999" stroke="white" stroke-width="0.543628" stroke-miterlimit="10"/>
<path d="M87.4313 203.9L82.7985 208.158L78.7363 203.091" stroke="white" stroke-width="0.543628" stroke-miterlimit="10"/>
<path d="M88.0771 224.236L83.4443 228.503L79.3906 223.436" stroke="white" stroke-width="0.543628" stroke-miterlimit="10"/>
<path d="M88.736 244.794L84.1032 249.061L80.041 243.994" stroke="white" stroke-width="0.543628" stroke-miterlimit="10"/>
<path d="M89.8169 198.313C91.3157 199.344 95.3524 200.016 95.3609 200.016C95.3694 200.016 95.0032 197.223 94.9607 197.044C94.4327 195.026 92.2355 191.441 89.9106 191.313C89.5232 191.301 89.1377 191.371 88.7791 191.518C88.4205 191.665 88.0969 191.886 87.8293 192.166C87.5618 192.446 87.3563 192.78 87.2263 193.145C87.0963 193.51 87.0446 193.899 87.0747 194.285C87.1429 195.946 88.531 197.427 89.8169 198.313Z" fill="#2E353A"/>
<path d="M130.293 207.076C130.293 207.076 131.545 204.521 131.604 204.377C132.277 202.409 132.456 198.202 130.557 196.806C130.24 196.583 129.88 196.429 129.5 196.354C129.119 196.28 128.728 196.286 128.35 196.373C127.973 196.459 127.618 196.625 127.308 196.858C126.999 197.091 126.742 197.387 126.554 197.726C125.702 199.139 126.043 201.132 126.622 202.58C127.346 204.274 130.293 207.076 130.293 207.076Z" fill="#2E353A"/>
<path d="M145.12 194.839C142.889 194.157 139.576 196.746 138.384 198.458C138.282 198.603 136.928 201.098 136.97 201.106H137.021C136.493 201.507 135.94 201.958 135.318 202.443C134.22 203.363 132.976 204.419 131.707 205.654C130.325 206.969 129.02 208.362 127.798 209.827C126.425 211.464 125.2 213.22 124.136 215.073V215.141C124.281 214.477 124.613 212.586 124.622 212.45C124.75 210.372 123.77 206.276 121.607 205.424C121.242 205.291 120.852 205.237 120.464 205.265C120.076 205.293 119.699 205.402 119.356 205.586C119.014 205.77 118.714 206.025 118.477 206.333C118.239 206.641 118.07 206.996 117.979 207.374C117.536 208.958 118.397 210.781 119.333 212.033C120.398 213.429 123.745 215.235 124.017 215.379C122.981 217.304 122.074 219.296 121.301 221.341C120.849 222.524 120.449 223.725 120.015 224.943C120.117 224.364 120.211 223.836 120.211 223.768C120.338 221.69 119.359 217.594 117.204 216.742C116.84 216.61 116.452 216.557 116.065 216.585C115.679 216.613 115.303 216.722 114.961 216.905C114.62 217.088 114.321 217.341 114.084 217.648C113.847 217.954 113.677 218.307 113.585 218.684C113.134 220.268 113.994 222.09 114.931 223.342C115.867 224.594 118.712 226.195 119.47 226.604L119.01 228.009C118.286 230.249 117.579 232.497 116.821 234.677C116.549 235.443 116.259 236.193 115.969 236.934C116.055 236.423 116.131 235.98 116.14 235.92C116.268 233.834 115.288 229.746 113.125 228.895C112.761 228.761 112.372 228.707 111.986 228.734C111.599 228.762 111.222 228.871 110.88 229.054C110.538 229.237 110.239 229.491 110.002 229.798C109.765 230.105 109.596 230.459 109.506 230.836C109.063 232.42 109.915 234.243 110.86 235.495C111.805 236.746 114.368 238.194 115.254 238.688C114.939 239.437 114.615 240.204 114.275 240.919C114.028 241.405 113.823 241.89 113.551 242.367C113.278 242.844 113.031 243.312 112.776 243.772C112.248 244.624 111.703 245.561 111.166 246.412C110.8 247 110.443 247.553 110.076 248.115C110.349 247.349 110.86 245.85 110.928 245.722C111.249 243.919 111.102 242.063 110.502 240.332C110.551 240.131 110.58 239.925 110.587 239.718C110.613 239.332 110.556 238.944 110.422 238.581C110.288 238.217 110.079 237.886 109.808 237.609C109.537 237.332 109.211 237.115 108.851 236.972C108.491 236.829 108.104 236.764 107.717 236.78C105.392 236.942 103.229 240.553 102.735 242.571C102.735 242.691 102.531 244.019 102.429 244.862C102.429 244.36 102.429 243.874 102.378 243.355C102.378 242.333 102.259 241.311 102.19 240.212C102.131 239.684 102.08 239.148 102.02 238.611C101.96 238.075 101.867 237.513 101.79 236.959C101.586 235.673 101.313 234.404 101.007 233.093C101.909 233.093 105.086 232.872 106.483 232.173C107.879 231.475 109.455 230.206 109.761 228.588C109.845 228.21 109.848 227.818 109.77 227.438C109.692 227.059 109.535 226.7 109.31 226.385C109.084 226.07 108.794 225.806 108.46 225.61C108.125 225.415 107.753 225.292 107.368 225.25C105.043 225.054 102.369 228.298 101.569 230.215C101.518 230.342 101.1 231.781 100.879 232.582C100.692 231.807 100.513 231.032 100.3 230.249C99.6782 228.009 98.9798 225.752 98.29 223.495L97.6769 221.426C97.992 221.426 101.782 221.281 103.349 220.498C104.737 219.808 106.321 218.53 106.619 216.912C106.704 216.535 106.708 216.143 106.631 215.763C106.555 215.384 106.399 215.025 106.174 214.71C105.948 214.394 105.659 214.13 105.325 213.935C104.991 213.739 104.619 213.616 104.234 213.574C101.909 213.378 99.2268 216.623 98.4263 218.547C98.3667 218.692 97.762 220.77 97.6343 221.307C97.1914 219.782 96.7827 218.266 96.3909 216.751C95.8829 214.708 95.5102 212.634 95.2753 210.542C95.4201 210.542 99.3716 210.415 100.981 209.614C102.369 208.924 103.953 207.647 104.251 206.029C104.336 205.651 104.341 205.259 104.264 204.88C104.187 204.5 104.031 204.141 103.806 203.826C103.581 203.511 103.292 203.247 102.958 203.051C102.624 202.855 102.252 202.733 101.867 202.69C99.5419 202.495 96.8593 205.739 96.0588 207.655C96.0077 207.783 95.5478 209.359 95.3434 210.125H95.2157C95.028 208.014 95.028 205.891 95.2157 203.78C95.3094 202.622 95.4627 201.515 95.633 200.442C96.3739 200.493 99.7548 200.698 101.279 200.136C102.804 199.574 104.447 198.509 104.924 196.934C105.05 196.567 105.096 196.177 105.061 195.791C105.026 195.405 104.91 195.03 104.72 194.692C104.53 194.354 104.272 194.059 103.96 193.828C103.649 193.596 103.293 193.433 102.914 193.348C100.623 192.897 97.6087 195.826 96.6038 197.649C96.5442 197.751 96.1014 198.816 95.7522 199.599C95.8374 199.122 95.914 198.62 96.0077 198.16C96.3483 196.457 96.7656 194.864 97.1489 193.485C97.3703 192.701 97.5832 191.994 97.7961 191.338C98.5455 191.006 101.56 189.635 102.633 188.477C103.706 187.319 104.694 185.573 104.396 183.946C104.337 183.567 104.199 183.204 103.991 182.881C103.783 182.557 103.51 182.281 103.19 182.069C102.869 181.858 102.508 181.715 102.129 181.651C101.75 181.588 101.362 181.603 100.99 181.698C98.7584 182.354 97.4299 186.339 97.3703 188.426C97.3703 188.605 97.6172 191.424 97.6598 191.407C97.4469 192.037 97.217 192.71 96.9956 193.459C96.5783 194.83 96.144 196.388 95.7522 198.126C95.323 199.984 95.0045 201.867 94.7984 203.763C94.5505 205.886 94.4964 208.027 94.6366 210.159C94.6325 210.184 94.6325 210.21 94.6366 210.236C94.3811 209.606 93.6232 207.851 93.5465 207.723C92.5161 205.918 89.4418 203.031 87.168 203.516C86.7915 203.608 86.4384 203.778 86.1318 204.015C85.8251 204.252 85.5717 204.551 85.3878 204.892C85.204 205.234 85.0939 205.61 85.0646 205.996C85.0353 206.383 85.0875 206.771 85.2178 207.136C85.7202 208.703 87.449 209.767 88.9138 210.278C90.5744 210.857 94.3641 210.517 94.6621 210.483C94.8532 212.652 95.1918 214.806 95.6756 216.929C95.9396 218.164 96.2547 219.408 96.5868 220.642C96.3483 220.097 96.1354 219.62 96.1014 219.552C95.0624 217.747 91.9966 214.868 89.7143 215.354C89.3371 215.445 88.9832 215.614 88.6759 215.851C88.3685 216.087 88.1145 216.386 87.9304 216.728C87.7464 217.069 87.6365 217.446 87.6078 217.833C87.5791 218.22 87.6324 218.608 87.7641 218.973C88.2666 220.54 89.9953 221.596 91.4686 222.116C92.9419 222.635 96.1951 222.405 97.0467 222.337C97.1829 222.805 97.3022 223.282 97.4384 223.751C98.0771 226.025 98.7243 228.29 99.2864 230.521C99.4908 231.313 99.6526 232.097 99.8229 232.88C99.6185 232.403 99.4397 232.028 99.4056 231.935C98.3667 230.129 95.3009 227.251 93.0185 227.736C92.642 227.828 92.289 227.998 91.9824 228.235C91.6757 228.472 91.4223 228.771 91.2384 229.112C91.0546 229.453 90.9444 229.829 90.9151 230.216C90.8858 230.602 90.938 230.991 91.0683 231.356C91.5708 232.923 93.2996 233.987 94.7729 234.498C96.2462 235.009 99.1842 234.813 100.198 234.728C100.351 235.537 100.504 236.346 100.606 237.138C100.675 237.675 100.768 238.194 100.802 238.739C100.836 239.284 100.887 239.812 100.93 240.349C100.981 241.371 101.032 242.427 101.049 243.423C101.049 244.121 101.049 244.786 101.049 245.45C100.862 244.666 100.462 243.133 100.411 243.006C99.6611 241.064 97.0637 237.751 94.7388 237.896C94.3529 237.93 93.9783 238.044 93.6393 238.231C93.3003 238.419 93.0044 238.675 92.7708 238.984C92.5372 239.294 92.3711 239.648 92.2832 240.025C92.1953 240.403 92.1876 240.794 92.2606 241.175C92.5246 242.801 94.066 244.113 95.4456 244.845C96.953 245.646 100.606 245.893 101.058 245.918C101.058 247.025 101.058 248.098 101.058 249.112C101.007 252.297 100.853 254.988 100.709 256.981L102.25 257.287C102.352 255.243 102.454 252.442 102.446 249.12C102.446 247.996 102.446 246.804 102.378 245.569C103.529 245.355 104.667 245.07 105.784 244.717C106.712 246.216 109.429 248.286 109.778 248.55C109.174 249.478 108.577 250.372 108.007 251.207C106.219 253.804 104.6 255.942 103.4 257.526L105.103 257.849C106.236 256.299 107.658 254.315 109.165 251.973C109.787 251.036 110.425 250.023 111.073 248.976C111.49 249.146 114.871 250.551 116.583 250.5C118.141 250.449 120.108 249.955 121.062 248.609C121.296 248.301 121.462 247.948 121.551 247.572C121.639 247.195 121.648 246.804 121.575 246.425C121.503 246.045 121.352 245.685 121.131 245.367C120.911 245.049 120.626 244.782 120.296 244.581C118.26 243.432 114.471 245.254 112.938 246.659C112.844 246.744 111.967 247.758 111.422 248.362C111.686 247.928 111.941 247.511 112.205 247.068C112.742 246.216 113.244 245.305 113.789 244.351L114.53 242.921C114.794 242.452 115.007 241.916 115.246 241.413C115.782 240.229 116.268 239.003 116.727 237.76C117.502 238.228 120.253 239.829 121.837 240.017C123.421 240.204 125.405 240.017 126.546 238.833C126.826 238.564 127.045 238.239 127.19 237.88C127.336 237.521 127.404 237.135 127.39 236.748C127.376 236.361 127.281 235.981 127.111 235.633C126.941 235.285 126.699 234.977 126.402 234.728C124.571 233.28 120.543 234.507 118.814 235.673C118.712 235.741 117.562 236.712 116.94 237.257C117.213 236.508 117.485 235.767 117.741 234.992C118.456 232.778 119.12 230.513 119.793 228.256C119.998 227.566 120.211 226.876 120.423 226.195C120.696 226.357 123.924 228.332 125.661 228.545C127.211 228.733 129.229 228.545 130.37 227.362C130.649 227.093 130.869 226.768 131.014 226.409C131.159 226.05 131.227 225.664 131.214 225.277C131.2 224.89 131.105 224.51 130.935 224.162C130.764 223.814 130.523 223.505 130.225 223.257C128.395 221.809 124.366 223.035 122.638 224.202C122.51 224.287 120.858 225.692 120.457 226.067C120.917 224.551 121.394 223.044 121.931 221.579C122.633 219.597 123.464 217.663 124.417 215.788C124.545 215.865 127.909 217.943 129.689 218.156C131.239 218.352 133.257 218.156 134.398 216.972C134.677 216.703 134.897 216.379 135.042 216.019C135.187 215.66 135.256 215.274 135.242 214.887C135.228 214.5 135.133 214.12 134.963 213.772C134.793 213.424 134.551 213.116 134.254 212.867C132.423 211.428 128.394 212.654 126.666 213.812C126.555 213.889 125.295 214.954 124.707 215.516L124.605 215.431C125.618 213.57 126.796 211.803 128.122 210.151C128.837 209.239 129.578 208.396 130.311 207.596C130.898 208.039 133.606 210.074 135.19 210.449C136.774 210.823 138.733 210.832 140.002 209.784C140.308 209.547 140.561 209.248 140.744 208.907C140.928 208.565 141.037 208.189 141.065 207.803C141.093 207.416 141.039 207.028 140.908 206.664C140.776 206.3 140.569 205.967 140.3 205.688C138.639 204.053 134.509 204.836 132.636 205.79C132.533 205.85 131.571 206.489 130.881 206.974C131.213 206.616 131.554 206.242 131.886 205.91C133.129 204.658 134.339 203.576 135.42 202.639C136.033 202.103 136.604 201.634 137.124 201.209C137.933 201.345 141.194 201.873 142.736 201.49C144.277 201.106 146.065 200.204 146.704 198.688C146.879 198.335 146.977 197.949 146.991 197.555C147.005 197.161 146.934 196.769 146.784 196.404C146.634 196.04 146.408 195.712 146.121 195.442C145.834 195.172 145.493 194.966 145.12 194.839Z" fill="#2E353A"/>
<path d="M124.051 256.631H60.666V265.02H124.051V256.631Z" fill="#2E353A"/>
<path d="M114.087 289.138H70.6208L65.1875 264.092H119.52L114.087 289.138Z" fill="#2E353A"/>
<path d="M61.2004 129.707L60.5617 190.121C60.5617 190.121 58.0069 191.407 50.9215 191.407C43.8361 191.407 41.2812 190.121 41.2812 190.121L43.8361 165.696C43.8361 165.696 34.8516 163.772 34.8516 161.217C34.8516 158.662 54.7708 87.9783 54.7708 87.9783C54.7708 87.9783 65.0582 105.922 61.2004 129.707Z" fill="#FFA400" stroke="#2E353A" stroke-miterlimit="10"/>
<path d="M43.8457 165.688L52.1745 127.195" stroke="#2E353A" stroke-miterlimit="10"/>
<path d="M47.0625 87.9272C47.0625 87.9272 58.6274 103.35 59.9133 109.78C61.1993 116.209 61.1993 129.707 61.1993 129.707C64.9707 120.247 67.3515 110.291 68.2676 100.148C69.5536 84.0779 56.7027 75.7236 56.7027 75.7236L47.0625 87.9272Z" fill="#2E353A" stroke="#2E353A" stroke-miterlimit="10"/>
<path d="M264.386 129.707L265.024 190.121C265.024 190.121 267.579 191.407 274.665 191.407C281.75 191.407 284.305 190.121 284.305 190.121L281.75 165.696C281.75 165.696 290.735 163.772 290.735 161.217C290.735 158.662 270.807 87.9783 270.807 87.9783C270.807 87.9783 260.528 105.922 264.386 129.707Z" fill="#FFA400" stroke="#2E353A" stroke-miterlimit="10"/>
<path d="M281.734 165.688L274.01 120.927" stroke="#2E353A" stroke-miterlimit="10"/>
<path d="M278.523 87.9272C278.523 87.9272 266.949 103.35 265.663 109.78C264.378 116.209 264.386 129.699 264.386 129.699C260.61 120.24 258.226 110.283 257.309 100.139C256.023 84.0694 268.883 75.7151 268.883 75.7151L278.523 87.9272Z" fill="#2E353A" stroke="#2E353A" stroke-miterlimit="10"/>
<path d="M278.43 87.9272C243.398 67.2093 203.446 56.2793 162.747 56.2793C122.047 56.2793 82.095 67.2093 47.0637 87.9272L26.7783 53.6243C25.322 51.1887 26.6931 47.663 29.8867 45.9087C70.4867 23.2121 116.225 11.2955 162.738 11.2955C209.252 11.2955 254.989 23.2121 295.59 45.9087C298.775 47.6886 300.154 51.1887 298.698 53.6243L278.43 87.9272Z" fill="#FFA400"/>
<path d="M278.43 87.9272C243.398 67.2093 203.446 56.2793 162.747 56.2793C122.047 56.2793 82.095 67.2093 47.0637 87.9272L26.7783 53.6243C25.322 51.1887 26.6931 47.663 29.8867 45.9087C70.4867 23.2121 116.225 11.2955 162.738 11.2955C209.252 11.2955 254.989 23.2121 295.59 45.9087C298.775 47.6886 300.154 51.1887 298.698 53.6243L278.43 87.9272Z" stroke="#2E353A" stroke-miterlimit="10"/>
<path d="M100.945 30.136C100.94 29.7387 101.05 29.412 101.275 29.1559C101.491 28.872 101.766 28.6766 102.1 28.5697C102.545 28.4271 102.965 28.4459 103.36 28.6261C103.774 28.7696 104.053 29.0639 104.195 29.5091C104.258 29.7039 104.287 29.9398 104.284 30.217L103.367 59.8239C103.353 60.258 103.214 60.6398 102.952 60.9694C102.68 61.2711 102.336 61.4888 101.918 61.6224C101.529 61.7472 101.136 61.7657 100.74 61.6779C100.334 61.5622 99.9999 61.3319 99.736 60.9869L84.1499 40.4853L83.292 66.2538C83.2776 66.6879 83.1392 67.0698 82.8766 67.3993C82.6051 67.701 82.2746 67.9142 81.885 68.039C81.4955 68.1638 81.1026 68.1822 80.7063 68.0944C80.3011 67.9788 79.9666 67.7485 79.7027 67.4035L61.7133 43.8521C61.5586 43.6563 61.45 43.461 61.3876 43.2662C61.245 42.821 61.2961 42.4058 61.5409 42.0207C61.8135 41.6266 62.1724 41.3582 62.6175 41.2156C62.9514 41.1087 63.2887 41.108 63.6293 41.2137C63.9888 41.2826 64.2822 41.4801 64.5093 41.8062L80.3242 62.8787L81.1587 36.7496C81.1642 36.2876 81.2887 35.9103 81.5324 35.6175C81.7672 35.2969 82.0654 35.0786 82.4271 34.9628C82.7888 34.8469 83.1584 34.8513 83.5357 34.9758C83.9131 35.1004 84.2382 35.3491 84.511 35.7219L100.259 56.5858L100.945 30.136Z" fill="#2E353A"/>
<path d="M111.299 59.1919C110.755 59.3084 110.277 59.2461 109.866 59.0047C109.484 58.7573 109.237 58.3759 109.127 57.8605L103.375 31.0179C103.264 30.5026 103.333 30.0537 103.58 29.6712C103.856 29.2826 104.266 29.0301 104.81 28.9135L120.873 25.4715C121.388 25.3611 121.817 25.404 122.158 25.6004C122.5 25.7967 122.72 26.1239 122.818 26.582C122.916 27.0401 122.85 27.4287 122.619 27.7478C122.387 28.0668 122.014 28.2815 121.499 28.392L107.111 31.475L109.366 41.9973L122.895 39.0983C123.41 38.9879 123.838 39.0308 124.18 39.2272C124.522 39.4235 124.741 39.7507 124.84 40.2088C124.938 40.6669 124.871 41.0555 124.64 41.3746C124.409 41.6936 124.036 41.9083 123.52 42.0188L109.992 44.9178L112.348 55.9125L126.735 52.8294C127.251 52.719 127.679 52.7619 128.021 52.9583C128.356 53.126 128.576 53.4532 128.68 53.9399C128.779 54.3981 128.712 54.7866 128.481 55.1057C128.25 55.4247 127.877 55.6395 127.361 55.7499L111.299 59.1919Z" fill="#2E353A"/>
<path d="M132.532 55.1921C132.04 55.2567 131.602 55.1672 131.216 54.9235C130.857 54.6471 130.644 54.2631 130.58 53.7713L126.99 26.438C126.918 25.8884 127.02 25.4337 127.297 25.0737C127.569 24.6848 127.98 24.4543 128.53 24.3822C129.08 24.31 129.536 24.4266 129.9 24.7319C130.26 25.0083 130.476 25.4212 130.548 25.9708L133.955 51.9158L147.969 50.0756C148.489 50.0073 148.911 50.0842 149.235 50.3066C149.558 50.5289 149.752 50.8859 149.817 51.3776C149.881 51.8694 149.786 52.2644 149.531 52.5627C149.276 52.861 148.888 53.0443 148.368 53.1127L132.532 55.1921Z" fill="#2E353A"/>
<path d="M164.176 52.7114C161.256 52.8159 158.708 52.2785 156.531 51.0993C154.354 49.8909 152.639 48.1251 151.386 45.8019C150.162 43.4485 149.492 40.6513 149.376 37.4103C149.261 34.1986 149.73 31.3898 150.784 28.9841C151.867 26.5481 153.451 24.6641 155.537 23.3324C157.623 21.9714 160.125 21.2386 163.045 21.1341C165.001 21.0641 166.852 21.3194 168.598 21.9001C170.372 22.4505 171.922 23.2867 173.249 24.4086C173.731 24.8299 173.983 25.3325 174.004 25.9164C174.019 26.3252 173.915 26.6944 173.693 27.0239C173.47 27.3242 173.198 27.4802 172.877 27.4916C172.526 27.5042 172.097 27.3588 171.589 27.0553C170.058 25.9407 168.671 25.1718 167.428 24.7485C166.214 24.3242 164.819 24.1403 163.243 24.1967C159.856 24.318 157.282 25.521 155.522 27.8059C153.79 30.0605 152.997 33.217 153.142 37.2755C153.289 41.3632 154.307 44.4841 156.196 46.6384C158.114 48.7623 160.766 49.7637 164.153 49.6425C165.701 49.5871 167.079 49.3039 168.289 48.7928C169.499 48.2818 170.827 47.4156 172.274 46.1944C172.759 45.8555 173.177 45.6797 173.527 45.6672C173.848 45.6557 174.131 45.7918 174.375 46.0754C174.619 46.359 174.749 46.7198 174.764 47.1577C174.785 47.7417 174.57 48.261 174.119 48.7157C172.876 49.9296 171.39 50.8891 169.661 51.5941C167.96 52.2689 166.132 52.6414 164.176 52.7114Z" fill="#2E353A"/>
<path d="M187.898 53.5775C185.035 53.3198 182.595 52.4523 180.578 50.9748C178.59 49.4999 177.133 47.528 176.206 45.0589C175.28 42.5898 174.961 39.7484 175.25 36.5346C175.542 33.2916 176.35 30.5368 177.673 28.2702C179.028 25.977 180.814 24.2969 183.031 23.2299C185.279 22.1363 187.85 21.7197 190.742 21.98C193.634 22.2403 196.075 23.1079 198.062 24.5828C200.082 26.031 201.539 28.003 202.434 30.4986C203.36 32.9677 203.679 35.8092 203.39 39.023C203.1 42.2368 202.278 44.9903 200.923 47.2834C199.571 49.5474 197.77 51.2262 195.522 52.3198C193.303 53.416 190.761 53.8352 187.898 53.5775ZM188.174 50.5098C191.447 50.8043 194.087 49.9375 196.096 47.9093C198.136 45.8545 199.34 42.7819 199.708 38.6916C200.077 34.6014 199.454 31.3791 197.839 29.0248C196.225 26.6706 193.767 25.3449 190.466 25.0477C187.194 24.7532 184.537 25.6334 182.497 27.6882C180.488 29.7164 179.301 32.761 178.936 36.8221C178.57 40.8832 179.193 44.1054 180.805 46.4889C182.446 48.875 184.902 50.2153 188.174 50.5098Z" fill="#2E353A"/>
<path d="M236.703 31.2291C237.243 31.3594 237.614 31.6293 237.815 32.0387C238.052 32.4265 238.106 32.8903 237.975 33.4299L231.462 60.3952C231.338 60.9064 231.097 61.2839 230.737 61.5277C230.378 61.7715 229.942 61.8317 229.431 61.7082C228.92 61.5847 228.574 61.3359 228.394 60.9618C228.214 60.5876 228.186 60.145 228.309 59.6338L233.568 37.8655L220.043 53.3539C219.446 54.0814 218.765 54.3526 217.998 54.1674C217.259 53.989 216.777 53.4366 216.55 52.5101L211.492 32.7585L206.285 54.3138C206.162 54.825 205.92 55.2025 205.561 55.4463C205.23 55.6969 204.809 55.7605 204.298 55.637C203.786 55.5135 203.427 55.2613 203.218 54.8803C203.009 54.4993 202.967 54.0532 203.09 53.542L209.604 26.5766C209.734 26.037 209.994 25.6488 210.381 25.4118C210.776 25.1465 211.243 25.079 211.783 25.2093C212.493 25.3809 212.961 25.9298 213.188 26.8563L218.997 50.2159L234.701 32.0528C235.038 31.6533 235.355 31.3993 235.652 31.2906C235.984 31.1604 236.334 31.1399 236.703 31.2291Z" fill="#2E353A"/>
<path d="M238.106 64.6695C237.588 64.4691 237.224 64.1558 237.013 63.7295C236.83 63.3138 236.833 62.8607 237.022 62.3703L246.91 36.8267C247.099 36.3362 247.402 35.9992 247.818 35.8155C248.261 35.6423 248.741 35.6559 249.259 35.8563L264.544 41.7728C265.035 41.9626 265.369 42.2329 265.546 42.5836C265.724 42.9343 265.728 43.3276 265.559 43.7635C265.391 44.1995 265.123 44.4873 264.755 44.6271C264.388 44.7668 263.959 44.7418 263.468 44.5519L249.777 39.2524L245.901 49.2655L258.775 54.2486C259.266 54.4385 259.6 54.7087 259.777 55.0594C259.955 55.4101 259.959 55.8034 259.79 56.2393C259.622 56.6753 259.354 56.9631 258.986 57.1029C258.619 57.2426 258.19 57.2176 257.7 57.0278L244.826 52.0446L240.776 62.5073L254.467 67.8068C254.958 67.9966 255.292 68.2669 255.469 68.6176C255.657 68.941 255.662 69.3343 255.482 69.7975C255.314 70.2335 255.046 70.5213 254.678 70.6611C254.311 70.8008 253.882 70.7758 253.391 70.586L238.106 64.6695Z" fill="#2E353A"/>
<path d="M236.506 127.663C236.506 127.663 225.674 119.658 220.47 115.741C215.267 111.823 206.35 100.582 204.119 95.6428C203.015 93.1 201.776 90.6182 200.406 88.2082C200.406 88.2082 201.437 83.2433 201.437 82.017C201.437 80.7907 200.44 79.1726 199.81 78.1337C199.495 77.6142 197.255 74.642 197.255 76.9073C197.255 78.6787 198.32 79.5644 198.32 80.6289C196.886 79.8369 195.705 78.6561 194.913 77.2224C193.67 74.9231 193.142 74.0289 192.427 74.5654C191.158 75.5192 192.784 77.9718 192.784 77.9718C192.784 77.9718 192.427 74.5654 190.655 75.1275C189.633 75.434 191.013 78.321 191.72 79.5644C192.427 80.8077 191.362 78.7128 191.541 80.8077C191.669 82.3662 193.449 86.1984 195.092 88.0805C195.688 88.7703 197.076 88.5574 197.221 88.7958C197.749 89.6475 203.429 102.813 207.33 109.379C211.23 115.945 213.547 117.895 216.74 121.089C219.934 124.283 224.192 129.784 227.913 132.441C231.635 135.098 233.594 134.042 235.723 132.262C237.852 130.482 238.167 129.469 236.506 127.663Z" fill="white" stroke="#2E353A" stroke-linecap="round" stroke-linejoin="round"/>
<path d="M198.26 80.6204C198.26 80.6204 196.659 83.6436 197.409 84.8784" stroke="#2E353A" stroke-linecap="round" stroke-linejoin="round"/>
<path d="M192.758 77.9633L194.18 80.6204" stroke="#2E353A" stroke-linecap="round" stroke-linejoin="round"/>
<path d="M194.352 86.6583C193.129 85.1075 192.06 83.4419 191.158 81.6849C190.451 79.9136 190.988 76.0132 192.052 76.72C193.117 77.4268 192.759 81.3357 192.759 81.3357L194.888 83.8139" fill="white"/>
<path d="M194.352 86.6583C193.129 85.1075 192.06 83.4419 191.158 81.6849C190.451 79.9136 190.988 76.0132 192.052 76.72C193.117 77.4268 192.759 81.3357 192.759 81.3357L194.888 83.8139" stroke="#2E353A" stroke-linecap="round" stroke-linejoin="round"/>
<path d="M238.796 105.538C238.796 105.538 233.355 103.554 234.343 96.6221C235.33 89.69 241.275 93.1561 241.275 93.1561C241.275 93.1561 235.313 85.2276 247.466 83.4988C259.618 81.77 268.526 92.6621 271.498 104.789C274.47 116.916 255.641 118.159 258.367 127.331C261.092 136.503 271.745 146.918 270.008 159.531C268.271 172.143 250.94 179.118 243.012 172.407C235.083 165.696 231.864 155.324 236.352 145.888C240.84 136.452 243.284 125.33 244.519 120.34C245.754 115.349 238.796 105.538 238.796 105.538Z" fill="#2E353A" stroke="#2E353A" stroke-linecap="round" stroke-linejoin="round"/>
<path d="M258.282 114.804C250.83 111.823 246.998 99.688 246.998 92.8751C246.998 86.0622 256.579 89.4686 256.579 89.4686C256.579 89.4686 247.211 91.1718 251.895 100.327C256.579 109.481 264.882 112.249 269.14 109.481" stroke="white" stroke-width="0.75" stroke-linecap="round" stroke-linejoin="round"/>
<path d="M256.792 121.404C256.792 121.404 250.192 123.533 252.108 131.836C254.024 140.14 268.714 150.572 264.456 161.217C260.198 171.862 252.747 176.12 243.805 172.927" stroke="white" stroke-width="0.75" stroke-linecap="round" stroke-linejoin="round"/>
<path d="M253.597 123.107C253.597 123.107 246.358 126.088 245.506 136.733C244.655 147.378 253.384 156.533 249.339 161.856C245.293 167.178 238.693 166.539 236.564 163.346" stroke="white" stroke-width="0.75" stroke-linecap="round" stroke-linejoin="round"/>
<path d="M237.069 117.18C237.069 117.18 237.809 119.905 235.365 124.121C232.921 128.336 231.652 129.316 231.652 129.316L240.569 128.575L246.266 118.168C246.266 118.168 237.563 118.917 237.069 117.18Z" fill="white" stroke="#2E353A" stroke-linecap="round" stroke-linejoin="round"/>
<path d="M245.984 94.144C245.984 94.144 237.314 102.072 235.577 109.005C233.84 115.937 236.071 120.399 239.298 120.399C242.526 120.399 249.203 117.674 249.203 117.674C249.203 117.674 251.187 119.377 253.163 118.423C253.728 118.15 254.21 117.73 254.559 117.207C254.908 116.685 255.111 116.079 255.147 115.451C255.147 115.451 241.521 102.072 245.984 94.144Z" fill="white" stroke="#2E353A" stroke-linecap="round" stroke-linejoin="round"/>
<path d="M242.314 106.041C241.718 106.799 241.003 107.225 240.704 106.995C240.406 106.765 240.645 105.964 241.241 105.206C241.837 104.448 242.552 104.023 242.842 104.253C243.132 104.483 242.902 105.283 242.314 106.041Z" fill="#2E353A"/>
<path d="M246.436 110.359C245.848 111.125 245.124 111.551 244.826 111.321C244.528 111.091 244.775 110.291 245.363 109.533C245.95 108.775 246.674 108.34 246.972 108.57C247.27 108.8 247.023 109.601 246.436 110.359Z" fill="#2E353A"/>
<path d="M241.921 107.659C240.91 108.016 239.937 108.472 239.017 109.022C238.242 109.601 239.596 110.376 239.596 110.376" stroke="#2E353A" stroke-width="0.75" stroke-linecap="round" stroke-linejoin="round"/>
<path d="M237.271 112.309C237.411 112.939 237.751 113.506 238.241 113.926C238.731 114.345 239.344 114.593 239.988 114.634C241.205 114.816 242.446 114.54 243.471 113.859" stroke="#2E353A" stroke-width="0.75" stroke-linecap="round" stroke-linejoin="round"/>
<path d="M242.117 101.076C242.733 100.98 243.362 101.129 243.869 101.493C244.375 101.856 244.719 102.404 244.825 103.018" stroke="#2E353A" stroke-width="0.75" stroke-linecap="round" stroke-linejoin="round"/>
<path d="M246.572 105.922C246.572 105.922 249.859 107.08 248.897 109.601" stroke="#2E353A" stroke-width="0.75" stroke-linecap="round" stroke-linejoin="round"/>
<path d="M214.074 286.566C214.074 286.566 209.493 289.623 207.96 290.381C206.427 291.139 199.946 292.288 199.75 294.009C199.554 295.729 202.995 296.683 206.819 296.683C210.642 296.683 215.215 296.683 217.506 297.066C219.797 297.449 221.33 298.207 222.284 295.729C223.238 293.251 221.705 286.753 221.705 286.753C221.705 286.753 217.702 288.286 214.074 286.566Z" fill="#FFA400" stroke="#2E353A" stroke-linecap="round" stroke-linejoin="round"/>
<path d="M215.787 218.599C215.787 218.599 213.121 231.006 213.121 235.018C213.121 239.029 214.645 264.994 215.029 272.242C215.214 277.036 214.894 281.838 214.075 286.566C214.075 286.566 217.32 288.09 218.657 288.09C219.994 288.09 221.705 286.753 221.705 286.753C221.705 286.753 225.529 269.951 225.529 260.983C225.529 252.016 226.287 246.855 225.529 241.124C224.771 235.392 222.123 224.9 223.042 221.077C223.962 217.253 218.657 212.867 215.787 218.599Z" fill="#2E353A" stroke="#2E353A" stroke-linecap="round" stroke-linejoin="round"/>
<path d="M215.761 163.772C215.761 163.772 212.508 185.794 212.508 202.137C212.508 218.479 219.448 238.058 221.177 240.783C222.906 243.508 238.022 270.751 241.488 276.449C243.941 280.768 245.971 285.314 247.552 290.023C248.761 290.395 250.005 290.643 251.265 290.764C252.508 290.764 254.237 289.282 254.237 289.282C254.237 289.282 246.198 257.866 242.978 249.699C239.759 241.532 233.1 235.086 231.371 231.901C229.642 228.716 228.893 216.291 228.893 216.291C228.893 216.291 239.044 200.195 240.815 191.526C242.587 182.856 237.809 173.139 235.825 169.733C234.528 167.411 233.371 165.014 232.359 162.554C232.359 162.554 221.961 168.703 215.761 163.772Z" fill="#2E353A" stroke="#2E353A" stroke-linecap="round" stroke-linejoin="round"/>
<path d="M234.588 154.83C234.588 154.83 240.779 135.762 242.252 131.3C243.726 126.837 241.503 125.109 234.818 125.849C228.133 126.59 216.491 131.811 215.997 137.491C215.503 143.171 217.7 146.407 217.7 149.133C217.7 151.858 213.783 163.772 216.763 166.224C219.744 168.677 229.146 167.928 231.871 164.521C234.596 161.115 234.588 154.83 234.588 154.83Z" fill="#FFA400" stroke="#2E353A" stroke-linecap="round" stroke-linejoin="round"/>
<path d="M236.505 127.663C236.864 130.779 236.097 133.921 234.342 136.52C231.37 141.221 224.684 139.492 225.178 134.289C225.672 129.086 231.974 124.768 236.505 127.663Z" fill="white" stroke="#2E353A" stroke-linecap="round" stroke-linejoin="round"/>
<path d="M232.282 135.038C233.087 134.91 233.854 134.603 234.526 134.14C235.198 133.678 235.759 133.071 236.167 132.365C236.575 131.658 236.82 130.87 236.884 130.056C236.949 129.243 236.831 128.425 236.54 127.663C236.355 127.138 236.035 126.671 235.612 126.309C235.189 125.947 234.677 125.703 234.13 125.602C229.872 124.862 211.34 126.343 206.631 125.849C201.922 125.356 184.097 114.455 179.38 110.248C174.662 106.041 172.941 103.81 172.941 102.072C172.941 100.335 171.698 96.3752 170.71 95.1403C169.722 93.9055 167.985 91.4188 167.985 91.4188C167.985 91.4188 166.282 91.4188 166.503 92.4152C166.906 93.5276 167.402 94.6044 167.985 95.6343C167.985 95.6343 163.029 92.6621 161.794 91.3762C161.67 91.205 161.511 91.0616 161.329 90.9553C161.146 90.8489 160.943 90.782 160.733 90.7587C160.523 90.7355 160.31 90.7564 160.108 90.8202C159.907 90.884 159.721 90.9893 159.562 91.1292L162.288 94.1014C162.288 94.1014 162.041 96.0856 163.991 99.3047C165.466 101.503 167.31 103.431 169.441 105.002C169.441 105.002 179.345 116.644 186.78 123.082C194.215 129.52 201.138 133.488 207.338 134.476C212.805 135.396 221.338 137.04 232.282 135.038Z" fill="white" stroke="#2E353A" stroke-linecap="round" stroke-linejoin="round"/>
<path d="M247.584 290.023C247.584 290.023 243.667 294.205 240.993 295.916C238.318 297.628 234.878 298.786 235.457 300.311C236.036 301.835 243.122 301.648 246.528 301.452C249.934 301.256 256.833 298.045 257.982 297.253C259.132 296.461 254.269 289.282 254.269 289.282C254.269 289.282 250.548 291.377 247.584 290.023Z" fill="#FFA400" stroke="#2E353A" stroke-linecap="round" stroke-linejoin="round"/>
<path d="M246.571 301.452C249.977 301.265 256.875 298.045 258.025 297.253C258.34 297.04 258.187 296.325 257.812 295.414C253.934 297.337 249.84 298.789 245.617 299.74C240.03 300.932 236.862 300.37 235.44 299.919C235.435 300.052 235.456 300.185 235.5 300.311C236.028 301.835 243.088 301.648 246.571 301.452Z" fill="#2E353A" stroke="#2E353A" stroke-linecap="round" stroke-linejoin="round"/>
<path d="M222.282 295.772C222.452 295.266 222.547 294.738 222.563 294.205C221.047 295.431 219.948 294.852 217.504 295.005C214.447 295.201 213.306 295.201 207.004 295.201C204.537 295.262 202.08 294.855 199.765 294C199.769 294.017 199.769 294.035 199.765 294.051C199.578 295.755 203.01 296.725 206.834 296.725C210.657 296.725 215.23 296.725 217.521 297.109C219.812 297.492 221.328 298.207 222.282 295.772Z" fill="#2E353A" stroke="#2E353A" stroke-linecap="round" stroke-linejoin="round"/>
<path d="M228.893 216.257C228.893 216.257 229.599 204.47 230.902 202.137C232.205 199.803 235.305 196.695 237.375 194.881" stroke="white" stroke-width="0.75" stroke-linecap="round" stroke-linejoin="round"/>
</svg>
