<svg width="277" height="311" viewBox="0 0 277 311" fill="none" xmlns="http://www.w3.org/2000/svg">
<path d="M133.67 310.82C193.491 310.82 241.985 301.122 241.985 289.159C241.985 277.196 193.491 267.497 133.67 267.497C73.8497 267.497 25.3555 277.196 25.3555 289.159C25.3555 301.122 73.8497 310.82 133.67 310.82Z" fill="#FFA400"/>
<path opacity="0.5" d="M133.67 310.82C193.491 310.82 241.985 301.122 241.985 289.159C241.985 277.196 193.491 267.497 133.67 267.497C73.8497 267.497 25.3555 277.196 25.3555 289.159C25.3555 301.122 73.8497 310.82 133.67 310.82Z" fill="white"/>
<path d="M248.659 1.00006H170.561C167.893 1.00006 165.73 3.16277 165.73 5.83061V91.9233C165.73 94.5912 167.893 96.7539 170.561 96.7539H248.659C251.327 96.7539 253.489 94.5912 253.489 91.9233V5.83061C253.489 3.16277 251.327 1.00006 248.659 1.00006Z" fill="white" stroke="#263238" stroke-linecap="round" stroke-linejoin="round"/>
<path d="M170.561 1.00006H248.651C249.926 1.00006 251.148 1.50646 252.05 2.40786C252.951 3.30925 253.457 4.53181 253.457 5.80657V10.8214H165.731V5.83061C165.727 5.19536 165.85 4.56578 166.092 3.97828C166.333 3.39077 166.689 2.85699 167.138 2.40779C167.587 1.9586 168.121 1.60291 168.709 1.36128C169.296 1.11965 169.926 0.996876 170.561 1.00006Z" fill="#263238" stroke="#263238" stroke-linecap="round" stroke-linejoin="round"/>
<path d="M170.514 52.1254H205.826" stroke="#263238" stroke-linecap="round" stroke-linejoin="round"/>
<path d="M170.514 56.6836H205.826" stroke="#263238" stroke-linecap="round" stroke-linejoin="round"/>
<path d="M170.514 61.2418H205.826" stroke="#263238" stroke-linecap="round" stroke-linejoin="round"/>
<path d="M170.514 65.7999H205.826" stroke="#263238" stroke-linecap="round" stroke-linejoin="round"/>
<path d="M170.514 70.3581H205.826" stroke="#263238" stroke-linecap="round" stroke-linejoin="round"/>
<path d="M170.514 74.9243H205.826" stroke="#263238" stroke-linecap="round" stroke-linejoin="round"/>
<path d="M170.514 79.4825H205.826" stroke="#263238" stroke-linecap="round" stroke-linejoin="round"/>
<path d="M170.514 84.0406H205.826" stroke="#263238" stroke-linecap="round" stroke-linejoin="round"/>
<path d="M170.514 88.5988H205.826" stroke="#263238" stroke-linecap="round" stroke-linejoin="round"/>
<path d="M212.033 52.1254H247.345" stroke="#263238" stroke-linecap="round" stroke-linejoin="round"/>
<path d="M212.033 56.6836H247.345" stroke="#263238" stroke-linecap="round" stroke-linejoin="round"/>
<path d="M212.033 61.2418H247.345" stroke="#263238" stroke-linecap="round" stroke-linejoin="round"/>
<path d="M212.033 65.7999H247.345" stroke="#263238" stroke-linecap="round" stroke-linejoin="round"/>
<path d="M212.033 70.3581H247.345" stroke="#263238" stroke-linecap="round" stroke-linejoin="round"/>
<path d="M212.033 74.9243H247.345" stroke="#263238" stroke-linecap="round" stroke-linejoin="round"/>
<path d="M212.033 79.4825H247.345" stroke="#263238" stroke-linecap="round" stroke-linejoin="round"/>
<path d="M212.033 84.0406H247.345" stroke="#263238" stroke-linecap="round" stroke-linejoin="round"/>
<path d="M212.033 88.5988H247.345" stroke="#263238" stroke-linecap="round" stroke-linejoin="round"/>
<path d="M194.13 23.2623C194.304 22.721 194.396 22.1566 194.402 21.588C194.402 19.5132 192.295 19.393 190.228 19.393H189.708V18.9044H198.728V19.393C196.381 19.393 195.523 20.8911 194.795 23.1101L189.988 37.4575C189.628 38.523 189.323 39.316 188.194 39.316H188.097L183.868 25.6094L179.934 37.4896C179.566 38.555 179.261 39.3481 178.132 39.3481H178.044L171.891 19.393H169.729V18.9044H177.643V19.393H175.392L179.958 35.1103H180.143L183.587 24.6722L181.985 19.4331H179.822V18.9044H187.745V19.393H185.494L190.06 35.1103H190.236L194.13 23.2623Z" fill="#FFA400"/>
<path d="M247.595 14.3622H211.258V47.2067H247.595V14.3622Z" fill="#FFA400" stroke="#263238" stroke-width="2" stroke-linecap="round" stroke-linejoin="round"/>
<path d="M247.594 28.0928C246.375 28.1622 245.164 28.331 243.973 28.5975C238.453 29.7991 237.011 37.7219 230.771 37.7219C225.243 37.7219 224.771 30.2798 216.848 29.3185C214.92 29.0149 212.946 29.3645 211.24 30.3118V47.2067H247.594V28.0928Z" fill="#263238" stroke="#263238" stroke-linecap="round" stroke-linejoin="round"/>
<path d="M223.329 21.8764C223.331 22.6851 223.092 23.4761 222.644 24.1492C222.196 24.8223 221.558 25.3472 220.811 25.6574C220.064 25.9676 219.242 26.0492 218.449 25.8918C217.655 25.7344 216.927 25.3451 216.355 24.7733C215.783 24.2014 215.394 23.4727 215.236 22.6795C215.079 21.8862 215.161 21.0641 215.471 20.3172C215.781 19.5703 216.306 18.9324 216.979 18.484C217.652 18.0357 218.443 17.7973 219.252 17.7988C220.333 17.7988 221.37 18.2284 222.135 18.9931C222.9 19.7578 223.329 20.7949 223.329 21.8764Z" fill="white" stroke="#263238" stroke-linecap="round" stroke-linejoin="round"/>
<path d="M249.253 3.87598H168.367V6.9922H249.253V3.87598Z" fill="white" stroke="#263238" stroke-linecap="round" stroke-linejoin="round"/>
<path d="M244.204 115.86H209.188C207.811 115.86 206.491 116.407 205.518 117.38C204.544 118.354 203.997 119.674 203.997 121.051V139.78C203.997 141.157 204.544 142.477 205.518 143.451C206.491 144.424 207.811 144.971 209.188 144.971H210.262C209.172 147.375 207.057 151.06 203.717 153.246C203.717 153.246 210.822 152.75 218.224 144.971H244.188C245.564 144.971 246.885 144.424 247.858 143.451C248.832 142.477 249.379 141.157 249.379 139.78V121.051C249.379 119.677 248.834 118.359 247.864 117.386C246.894 116.413 245.578 115.864 244.204 115.86Z" fill="#263238" stroke="#263238" stroke-linecap="round" stroke-linejoin="round"/>
<path d="M220.677 129.751C220.679 129.221 220.523 128.702 220.23 128.261C219.936 127.82 219.519 127.476 219.029 127.272C218.54 127.069 218.002 127.015 217.482 127.118C216.962 127.221 216.485 127.476 216.11 127.851C215.735 128.225 215.48 128.703 215.377 129.223C215.274 129.742 215.328 130.281 215.531 130.77C215.735 131.259 216.079 131.677 216.52 131.971C216.962 132.264 217.48 132.42 218.01 132.418C218.717 132.416 219.394 132.134 219.894 131.635C220.394 131.135 220.675 130.457 220.677 129.751Z" fill="#FFA400" stroke="#263238" stroke-linecap="round" stroke-linejoin="round"/>
<path d="M229.753 129.751C229.753 129.223 229.597 128.707 229.304 128.269C229.011 127.83 228.594 127.488 228.106 127.286C227.619 127.084 227.083 127.031 226.565 127.134C226.048 127.237 225.572 127.491 225.199 127.864C224.826 128.237 224.572 128.713 224.469 129.23C224.366 129.748 224.419 130.284 224.621 130.771C224.823 131.259 225.165 131.676 225.604 131.969C226.042 132.262 226.558 132.418 227.086 132.418C227.792 132.416 228.47 132.134 228.97 131.635C229.469 131.135 229.751 130.457 229.753 129.751Z" fill="#FFA400" stroke="#263238" stroke-linecap="round" stroke-linejoin="round"/>
<path d="M238.838 129.751C238.839 129.221 238.684 128.703 238.391 128.262C238.098 127.821 237.68 127.477 237.191 127.273C236.703 127.069 236.164 127.015 235.645 127.117C235.125 127.22 234.648 127.474 234.273 127.848C233.898 128.222 233.642 128.698 233.538 129.218C233.434 129.737 233.487 130.275 233.689 130.765C233.891 131.254 234.234 131.672 234.675 131.967C235.115 132.261 235.632 132.418 236.162 132.418C236.87 132.416 237.548 132.135 238.049 131.635C238.55 131.135 238.833 130.458 238.838 129.751Z" fill="#FFA400" stroke="#263238" stroke-linecap="round" stroke-linejoin="round"/>
<path d="M51.651 12.3594H109.329C110.702 12.3594 112.018 12.9047 112.988 13.8752C113.959 14.8457 114.504 16.162 114.504 17.5345V57.5167H46.5V17.5345C46.5 16.1661 47.0419 14.8535 48.0072 13.8836C48.9725 12.9138 50.2826 12.3658 51.651 12.3594Z" fill="#FFA400" stroke="#263238" stroke-linecap="round" stroke-linejoin="round"/>
<path d="M114.472 51.0679H46.5V57.4926H114.472V51.0679Z" fill="#263238" stroke="#263238" stroke-linecap="round" stroke-linejoin="round"/>
<path d="M111.363 53.2629H49.6152V55.2976H111.363V53.2629Z" fill="white" stroke="#263238" stroke-linecap="round" stroke-linejoin="round"/>
<path d="M80.4903 42.24C85.6755 42.24 89.879 38.0365 89.879 32.8512C89.879 27.666 85.6755 23.4625 80.4903 23.4625C75.305 23.4625 71.1016 27.666 71.1016 32.8512C71.1016 38.0365 75.305 42.24 80.4903 42.24Z" fill="#263238" stroke="#263238" stroke-linecap="round" stroke-linejoin="round"/>
<path d="M76.252 27.0113L86.3857 32.8592L76.252 38.7071V27.0113Z" fill="white" stroke="#263238" stroke-linecap="round" stroke-linejoin="round"/>
<path d="M85.0713 73.9389H20.5598C19.3122 73.9389 18.3008 74.9504 18.3008 76.198V100.783C18.3008 102.031 19.3122 103.042 20.5598 103.042H85.0713C86.319 103.042 87.3304 102.031 87.3304 100.783V76.198C87.3304 74.9504 86.319 73.9389 85.0713 73.9389Z" fill="#263238" stroke="#263238" stroke-linecap="round" stroke-linejoin="round"/>
<path d="M26.5202 77.9043L26.8566 78.4651C25.3346 79.3142 23.9166 80.8042 23.9166 82.5506C23.8972 82.8506 23.9377 83.1515 24.036 83.4356C24.1343 83.7197 24.2883 83.9813 24.489 84.2051C24.6897 84.4289 24.9331 84.6105 25.2048 84.739C25.4765 84.8676 25.7712 84.9406 26.0716 84.9539C26.2959 84.9539 26.4481 84.8417 26.4481 84.6174C26.4481 84.3931 26.3359 84.321 26.1116 84.2809C25.8091 84.199 25.5456 84.0122 25.3681 83.754C25.1905 83.4957 25.1105 83.1828 25.1423 82.871C25.1481 82.6223 25.2045 82.3773 25.308 82.1511C25.4114 81.9248 25.5599 81.7219 25.7442 81.5548C25.9285 81.3877 26.1449 81.2599 26.3803 81.179C26.6156 81.0982 26.8649 81.0661 27.113 81.0846C27.3829 81.0855 27.6499 81.1406 27.8981 81.2465C28.1464 81.3524 28.3709 81.507 28.5584 81.7012C28.7458 81.8954 28.8924 82.1252 28.9895 82.3771C29.0866 82.6289 29.1323 82.8977 29.1237 83.1674C29.1198 83.5065 29.0476 83.8412 28.9114 84.1517C28.7752 84.4623 28.5779 84.7421 28.3311 84.9747C28.0844 85.2072 27.7933 85.3876 27.4753 85.5052C27.1572 85.6227 26.8188 85.675 26.4801 85.6588C26.0591 85.6861 25.637 85.6246 25.2412 85.4783C24.8455 85.332 24.4849 85.1042 24.1828 84.8097C23.8807 84.5151 23.6438 84.1604 23.4876 83.7685C23.3313 83.3765 23.2592 82.9562 23.2758 82.5346C23.2517 80.5078 24.8138 78.8736 26.5202 77.9043ZM33.4015 77.9043L33.738 78.4651C32.2079 79.3142 30.798 80.8042 30.798 82.5506C30.7774 82.8508 30.8172 83.1521 30.9151 83.4367C31.0129 83.7213 31.1669 83.9834 31.3678 84.2074C31.5687 84.4315 31.8125 84.613 32.0847 84.7412C32.357 84.8694 32.6522 84.9417 32.9529 84.9539C33.1772 84.9539 33.3294 84.8417 33.3294 84.6174C33.3294 84.3931 33.2172 84.321 32.9929 84.2809C32.6905 84.199 32.4269 84.0122 32.2494 83.754C32.0718 83.4957 31.9918 83.1828 32.0236 82.871C32.0283 82.6219 32.0839 82.3764 32.187 82.1496C32.2901 81.9228 32.4385 81.7195 32.6231 81.5521C32.8077 81.3848 33.0245 81.257 33.2604 81.1766C33.4962 81.0962 33.7459 81.0649 33.9943 81.0846C34.2642 81.0855 34.5312 81.1406 34.7795 81.2465C35.0277 81.3524 35.2522 81.507 35.4397 81.7012C35.6271 81.8954 35.7738 82.1252 35.8709 82.3771C35.968 82.6289 36.0136 82.8977 36.005 83.1674C36 83.5061 35.927 83.8404 35.7905 84.1504C35.6539 84.4604 35.4566 84.7398 35.21 84.9721C34.9635 85.2044 34.6729 85.3849 34.3554 85.5029C34.0378 85.6208 33.6998 85.6739 33.3614 85.6588C32.9407 85.6848 32.5192 85.6224 32.124 85.4757C31.7288 85.329 31.3687 85.1011 31.0669 84.8069C30.765 84.5126 30.5282 84.1584 30.3715 83.767C30.2148 83.3757 30.1418 82.9558 30.1571 82.5346C30.1251 80.5078 31.6872 78.8736 33.4015 77.9043Z" fill="#FFA400"/>
<path d="M39.9863 83.8324H79.2716" stroke="white" stroke-linecap="round" stroke-linejoin="round"/>
<path d="M39.9863 87.2049H79.2716" stroke="white" stroke-linecap="round" stroke-linejoin="round"/>
<path d="M39.9863 90.5775H79.2716" stroke="white" stroke-linecap="round" stroke-linejoin="round"/>
<path d="M39.9863 93.9581H79.2716" stroke="white" stroke-linecap="round" stroke-linejoin="round"/>
<path d="M72.3203 148.167C80.4289 146.844 85.9293 139.198 84.6058 131.089C83.2824 122.98 75.6362 117.48 67.5276 118.803C59.419 120.127 53.9186 127.773 55.2421 135.882C56.5655 143.99 64.2117 149.491 72.3203 148.167Z" fill="#263238" stroke="#263238" stroke-linecap="round" stroke-linejoin="round"/>
<path d="M79.3604 141.786C83.9352 136.576 83.4209 128.645 78.2117 124.07C73.0025 119.495 65.071 120.01 60.4963 125.219C55.9215 130.428 56.4358 138.36 61.645 142.934C66.8542 147.509 74.7856 146.995 79.3604 141.786Z" fill="white" stroke="#263238" stroke-linecap="round" stroke-linejoin="round"/>
<path d="M69.9297 124.407V133.484H76.066" stroke="#263238" stroke-width="2" stroke-linecap="round" stroke-linejoin="round"/>
<path d="M163 133.516C163 133.516 171.531 151.724 171.531 152.686C171.531 153.647 163.961 157.765 162.519 158.63C161.401 159.267 160.248 159.842 159.066 160.352L159.932 168.788C159.932 168.788 172.965 165.816 178.429 162.844C183.892 159.871 183.7 156.515 182.434 151.532C181.168 146.549 172.749 127.291 172.749 127.291L163 133.516Z" fill="white"/>
<g style="mix-blend-mode:multiply" opacity="0.5">
<path d="M178.406 162.844C183.87 159.871 183.678 156.515 182.412 151.532C181.146 146.549 172.727 127.291 172.727 127.291L171.365 128.156L170.932 128.958C170.932 128.958 178.791 148.248 179.264 154.672C179.584 158.99 170.892 164.374 165.148 167.45C169.41 166.32 175.21 164.582 178.406 162.844Z" fill="#FFA400"/>
</g>
<path d="M163 133.516C163 133.516 171.531 151.724 171.531 152.686C171.531 153.647 163.961 157.765 162.519 158.63C161.401 159.267 160.248 159.842 159.066 160.352L159.932 168.788C159.932 168.788 172.965 165.816 178.429 162.844C183.892 159.871 183.7 156.515 182.434 151.532C181.168 146.549 172.749 127.291 172.749 127.291L163 133.516Z" stroke="#263238" stroke-linecap="round" stroke-linejoin="round"/>
<path d="M101.446 129.494C101.446 129.494 95.2214 152.301 95.0372 156.331C94.8529 160.36 107.398 168.307 107.855 168.788C108.311 169.268 107.142 154.929 107.142 154.929L111.395 134.101L101.446 129.494Z" fill="white"/>
<g style="mix-blend-mode:multiply" opacity="0.5">
<path d="M104.298 131.361L104.162 130.744L101.446 129.494C101.446 129.494 95.2214 152.301 95.0372 156.331C94.8529 160.36 107.398 168.307 107.855 168.788C108.039 168.98 107.967 166.833 107.814 164.181C104.081 161.017 98.7222 156.563 98.0973 154.688" fill="#FFA400"/>
</g>
<path d="M101.446 129.494C101.446 129.494 95.2214 152.301 95.0372 156.331C94.8529 160.36 107.398 168.307 107.855 168.788C108.311 169.268 107.142 154.929 107.142 154.929L111.395 134.101L101.446 129.494Z" stroke="#263238" stroke-linecap="round" stroke-linejoin="round"/>
<path d="M130.677 106.583C130.677 106.583 128.274 108.314 123.587 108.506C118.901 108.698 118.677 105.301 112.853 105.301C105.795 105.301 96.9434 127.628 96.9434 127.628C96.9434 127.628 101.349 131.946 105.667 133.764C108.056 134.81 110.567 135.551 113.141 135.967L113.814 150.635H161.351L161.919 135.967L176.78 126.33C176.78 126.33 169.49 113.296 165.949 108.41C162.408 103.523 156.456 105.342 154.638 106.583C152.819 107.825 147.428 108.121 145.441 107.833C142.849 107.259 140.288 106.556 137.767 105.726C137.767 105.726 134.707 103.179 130.677 106.583Z" fill="#FFA400" stroke="#263238" stroke-linecap="round" stroke-linejoin="round"/>
<path d="M113.622 111.758L113.43 136.103" stroke="#263238" stroke-width="0.5" stroke-linecap="round" stroke-linejoin="round"/>
<path d="M115.344 113.969C115.344 113.969 116.017 125.849 118.548 132.466" stroke="#263238" stroke-width="0.5" stroke-linecap="round" stroke-linejoin="round"/>
<path d="M118.988 133.42C119.535 135.034 120.207 136.604 120.999 138.114" stroke="#263238" stroke-width="0.5" stroke-linecap="round" stroke-linejoin="round"/>
<path d="M116.873 112.623C117.782 116.943 119.066 121.176 120.71 125.273" stroke="#263238" stroke-width="0.5" stroke-linecap="round" stroke-linejoin="round"/>
<path d="M158.195 114.73C158.195 114.73 155.896 124.127 153.877 128.349" stroke="#263238" stroke-width="0.5" stroke-linecap="round" stroke-linejoin="round"/>
<path d="M161.918 136.007L161.822 117.029" stroke="#263238" stroke-width="0.5" stroke-linecap="round" stroke-linejoin="round"/>
<path d="M160.87 117.414C160.87 117.414 159.139 129.43 154.926 135.719" stroke="#263238" stroke-width="0.5" stroke-linecap="round" stroke-linejoin="round"/>
<path d="M158.762 133.323C158.762 133.323 156.84 136.968 155.502 138.883" stroke="#263238" stroke-width="0.5" stroke-linecap="round" stroke-linejoin="round"/>
<path d="M127.992 108.025C127.992 108.025 129.338 116.268 131.253 120.482C133.167 124.696 136.524 125.561 139.4 124.319C142.276 123.078 144.382 116.933 144.206 109.099" stroke="#263238" stroke-width="0.5" stroke-linecap="round" stroke-linejoin="round"/>
<path d="M121.192 90.7698C121.192 90.7698 119.365 87.6135 117.931 89.2397C116.497 90.8659 119.085 94.607 120.519 95.8487C121.953 97.0904 123.01 96.3293 122.922 94.9915C122.834 93.6537 121.192 90.7698 121.192 90.7698Z" fill="#FFA400" stroke="#263238" stroke-linecap="round" stroke-linejoin="round"/>
<path opacity="0.5" d="M121.192 90.7698C121.192 90.7698 119.365 87.6135 117.931 89.2397C116.497 90.8659 119.085 94.607 120.519 95.8487C121.953 97.0904 123.01 96.3293 122.922 94.9915C122.834 93.6537 121.192 90.7698 121.192 90.7698Z" fill="white"/>
<path d="M121.192 90.7698C121.192 90.7698 119.365 87.6135 117.931 89.2397C116.497 90.8659 119.085 94.607 120.519 95.8487C121.953 97.0904 123.01 96.3293 122.922 94.9915C122.834 93.6537 121.192 90.7698 121.192 90.7698Z" stroke="#263238" stroke-linecap="round" stroke-linejoin="round"/>
<path d="M150.182 90.7698C150.182 90.7698 152 87.6135 153.442 89.2397C154.884 90.8659 152.289 94.607 150.855 95.8487C149.421 97.0904 148.355 96.3293 148.451 94.9915C148.547 93.6537 150.182 90.7698 150.182 90.7698Z" fill="#FFA400" stroke="#263238" stroke-linecap="round" stroke-linejoin="round"/>
<path opacity="0.5" d="M150.182 90.7698C150.182 90.7698 152 87.6135 153.442 89.2397C154.884 90.8659 152.289 94.607 150.855 95.8487C149.421 97.0904 148.355 96.3293 148.451 94.9915C148.547 93.6537 150.182 90.7698 150.182 90.7698Z" fill="white"/>
<path d="M150.182 90.7698C150.182 90.7698 152 87.6135 153.442 89.2397C154.884 90.8659 152.289 94.607 150.855 95.8487C149.421 97.0904 148.355 96.3293 148.451 94.9915C148.547 93.6537 150.182 90.7698 150.182 90.7698Z" stroke="#263238" stroke-linecap="round" stroke-linejoin="round"/>
<path d="M129.811 105.918C130.715 110.009 131.868 114.04 133.263 117.991C134.994 122.301 138.246 122.301 139.592 119.521C140.938 116.741 141.795 106.383 141.795 106.383C141.795 106.383 132.783 107.641 129.811 105.918Z" fill="white" stroke="#263238" stroke-linecap="round" stroke-linejoin="round"/>
<path d="M121.383 91.8273C121.383 91.8273 123.875 100.639 128.593 105.822C133.311 111.005 135.002 112.231 137.509 111.854C140.017 111.478 142.684 108.217 146.417 101.44C150.15 94.6631 150.423 89.464 150.735 88.9834C151.047 88.5027 149.934 78.9218 144.599 74.7962C139.263 70.6706 133.287 68.8601 128.112 73.3622C122.937 77.8643 119.653 85.2103 121.383 91.8273Z" fill="white"/>
<g style="mix-blend-mode:multiply" opacity="0.5">
<path d="M144.575 74.7641C139.208 70.6465 133.264 68.828 128.089 73.3301C122.913 77.8322 119.653 85.2102 121.383 91.8272C121.383 91.8272 121.856 93.5255 122.793 95.8326C122.791 95.5373 122.831 95.2431 122.914 94.9595C124.059 91.3305 127.44 84.305 138.815 87.5254C147.851 90.0728 146.746 98.0196 145.905 102.257L146.393 101.376C150.134 94.5749 150.399 89.3999 150.711 88.9193C151.024 88.4386 149.942 78.8897 144.575 74.7641Z" fill="#FFA400"/>
</g>
<path d="M121.383 91.8273C121.383 91.8273 123.875 100.639 128.593 105.822C133.311 111.005 135.002 112.231 137.509 111.854C140.017 111.478 142.684 108.217 146.417 101.44C150.15 94.6631 150.423 89.464 150.735 88.9834C151.047 88.5027 149.934 78.9218 144.599 74.7962C139.263 70.6706 133.287 68.8601 128.112 73.3622C122.937 77.8643 119.653 85.2103 121.383 91.8273Z" stroke="#263238" stroke-linecap="round" stroke-linejoin="round"/>
<path d="M137.486 96.4255C137.188 98.2966 137.028 100.187 137.005 102.081C137.101 103.996 137.678 104.573 136.813 104.765C135.947 104.957 134.994 103.611 134.994 103.611" stroke="#263238" stroke-linecap="round" stroke-linejoin="round"/>
<path d="M127.896 97.9636C128.452 98.3647 129.115 98.5885 129.8 98.6056C130.485 98.6228 131.159 98.4325 131.734 98.0597" stroke="#263238" stroke-linecap="round" stroke-linejoin="round"/>
<path d="M140.072 97.9636C140.626 98.364 141.289 98.5874 141.972 98.6046C142.655 98.6217 143.328 98.4318 143.901 98.0597" stroke="#263238" stroke-linecap="round" stroke-linejoin="round"/>
<path d="M134.017 94.7352C134.017 94.7352 132.19 90.2251 126.158 92.3319" stroke="#263238" stroke-linecap="round" stroke-linejoin="round"/>
<path d="M139.039 94.1824C139.039 94.1824 140.569 89.7684 146.033 92.3559" stroke="#263238" stroke-linecap="round" stroke-linejoin="round"/>
<path d="M135.178 98.292C135.178 100.759 132.351 102.754 128.858 102.754C125.365 102.754 122.529 100.759 122.529 98.292C122.529 95.8246 125.173 94.7993 128.666 94.7993C132.158 94.7993 135.178 95.8327 135.178 98.292Z" stroke="#263238" stroke-linecap="round" stroke-linejoin="round"/>
<path d="M149.749 98.292C149.749 100.759 146.913 102.754 143.42 102.754C139.927 102.754 137.1 100.759 137.1 98.292C137.1 95.8246 139.735 94.7993 143.228 94.7993C146.721 94.7993 149.749 95.8327 149.749 98.292Z" stroke="#263238" stroke-linecap="round" stroke-linejoin="round"/>
<path d="M68.9765 175.14L68.584 272.256C68.584 272.562 68.7055 272.855 68.9219 273.072C69.1382 273.288 69.4316 273.409 69.7376 273.409C70.0359 273.41 70.3225 273.293 70.5365 273.085C70.7504 272.877 70.8748 272.594 70.8831 272.296L73.6549 175.276L68.9765 175.14Z" fill="white" stroke="#263238" stroke-linecap="round" stroke-linejoin="round"/>
<path d="M62.439 197.843L62.0625 298.243C62.0615 298.395 62.0906 298.545 62.1482 298.686C62.2058 298.826 62.2907 298.954 62.398 299.061C62.5054 299.168 62.6329 299.253 62.7734 299.311C62.9138 299.369 63.0643 299.398 63.2161 299.397C63.5139 299.397 63.8002 299.282 64.0152 299.076C64.2303 298.87 64.3573 298.589 64.3697 298.291L67.1334 197.971L62.439 197.843Z" fill="white" stroke="#263238" stroke-linecap="round" stroke-linejoin="round"/>
<path d="M203.239 175.14L203.631 272.256C203.632 272.407 203.603 272.557 203.546 272.697C203.489 272.837 203.405 272.964 203.299 273.071C203.192 273.178 203.065 273.263 202.926 273.321C202.786 273.38 202.637 273.409 202.486 273.409C202.187 273.41 201.899 273.294 201.684 273.086C201.469 272.878 201.343 272.595 201.332 272.296L198.568 175.276L203.239 175.14Z" fill="white" stroke="#263238" stroke-linecap="round" stroke-linejoin="round"/>
<path d="M209.784 197.843L210.176 298.243C210.177 298.395 210.148 298.545 210.091 298.686C210.033 298.826 209.948 298.954 209.841 299.061C209.734 299.168 209.606 299.253 209.465 299.311C209.325 299.369 209.175 299.398 209.023 299.397C208.726 299.397 208.44 299.282 208.227 299.075C208.013 298.869 207.888 298.588 207.877 298.291L205.105 197.971L209.784 197.843Z" fill="white" stroke="#263238" stroke-linecap="round" stroke-linejoin="round"/>
<path d="M107.957 202.017L107.724 291.129C107.699 291.352 107.761 291.575 107.897 291.753C108.033 291.931 108.232 292.049 108.453 292.083C108.669 292.053 108.866 291.942 109.003 291.772C109.14 291.602 109.207 291.387 109.19 291.17L110.929 202.121L107.957 202.017Z" fill="white" stroke="#263238" stroke-linecap="round" stroke-linejoin="round"/>
<path d="M164.363 199.149L164.579 276.918C164.598 277.106 164.543 277.295 164.427 277.444C164.311 277.593 164.141 277.691 163.954 277.719C163.768 277.691 163.599 277.592 163.484 277.443C163.369 277.294 163.317 277.106 163.337 276.918L161.855 199.213L164.363 199.149Z" fill="white" stroke="#263238" stroke-linecap="round" stroke-linejoin="round"/>
<path d="M107.084 199.149L107.3 276.918C107.318 277.106 107.264 277.295 107.148 277.444C107.031 277.593 106.862 277.691 106.675 277.719C106.489 277.691 106.32 277.592 106.205 277.443C106.09 277.294 106.037 277.106 106.058 276.918L104.576 199.213L107.084 199.149Z" fill="white" stroke="#263238" stroke-linecap="round" stroke-linejoin="round"/>
<path d="M162.753 202.017L163.001 291.129C163.027 291.352 162.965 291.575 162.829 291.753C162.693 291.931 162.493 292.049 162.272 292.083C162.057 292.051 161.862 291.939 161.725 291.77C161.589 291.601 161.521 291.387 161.535 291.17L159.797 202.121L162.753 202.017Z" fill="white" stroke="#263238" stroke-linecap="round" stroke-linejoin="round"/>
<path d="M134.963 208.257C154.651 208.257 170.611 204.61 170.611 200.11C170.611 195.611 154.651 191.963 134.963 191.963C115.275 191.963 99.3145 195.611 99.3145 200.11C99.3145 204.61 115.275 208.257 134.963 208.257Z" fill="white" stroke="#263238" stroke-linecap="round" stroke-linejoin="round"/>
<path d="M117.603 269.268C117.603 269.268 115.736 271.943 117.074 273.273C118.412 274.603 119.742 274.074 119.605 275.412C119.469 276.75 117.338 281.284 115.472 286.091C113.605 290.897 117.474 295.704 121.079 294.374C124.684 293.044 124.284 279.682 124.812 277.279C125.341 274.875 125.75 274.475 125.613 272.208C125.477 269.941 125.349 267.537 123.611 267.265C121.872 266.993 118.404 268.339 117.603 269.268Z" fill="white" stroke="#263238" stroke-linecap="round" stroke-linejoin="round"/>
<path d="M123.331 290.689C120.928 289.776 117.243 289.96 115.168 290.168C115.865 293.188 118.533 295.311 121.08 294.374C122.145 293.981 122.842 292.555 123.331 290.689Z" fill="#FFA400" stroke="#263238" stroke-linecap="round" stroke-linejoin="round"/>
<path d="M113.469 263.396C113.469 263.396 117.338 269.941 118.403 271.671C119.469 273.401 123.082 272.873 123.482 270.469C123.883 268.066 122.008 261.393 122.008 261.393L113.997 263.396H113.469Z" fill="white" stroke="#263238" stroke-linecap="round" stroke-linejoin="round"/>
<path d="M104.257 252.982C104.257 252.982 103.184 254.72 103.721 255.922C104.257 257.123 105.723 260.592 106.661 262.33C107.598 264.069 111.868 265.134 116.802 264.333C121.737 263.532 124.549 261.257 124.685 259.254C124.821 257.252 123.884 254.584 123.211 251.38C122.538 248.175 120.808 248.311 118.405 248.311C116.001 248.311 106.26 251.115 104.257 252.982Z" fill="#FFA400" stroke="#263238" stroke-linecap="round" stroke-linejoin="round"/>
<path d="M118.677 213.729C118.749 210.444 120.648 208.826 120.792 206.575C121.018 203.599 120.772 200.606 120.063 197.707L116.41 192.716C105.9 192.852 98.3694 193.028 98.2492 193.068C97.8486 193.197 97.5763 195.472 97.3119 197.338C97.3119 197.338 92.8499 197.907 93.651 210.324C93.7631 212.054 98.2652 232.073 98.5937 234.356C100.596 248.303 105.058 255.289 105.058 255.289C105.058 255.289 105.459 257.027 110.666 256.627C115.873 256.226 121.08 252.757 121.08 252.757C121.08 252.757 118.405 225.609 118.677 213.729Z" fill="#263238" stroke="#263238" stroke-linecap="round" stroke-linejoin="round"/>
<path d="M96.5906 195.304C96.5906 195.304 91.0711 196.105 87.6905 199.966C84.31 203.827 87.1778 206.375 93.7467 205.686C100.316 204.997 107.894 198.276 108.214 197.915C108.535 197.555 101.365 192.988 96.5906 195.304Z" fill="white" stroke="#263238" stroke-linecap="round" stroke-linejoin="round"/>
<path d="M106.387 197.707C109.904 197.888 113.393 198.425 116.801 199.309C121.343 200.647 129.354 203.314 131.221 203.314C133.087 203.314 132.559 196.369 132.559 195.039C132.559 193.709 108.526 192.9 105.586 192.9C102.646 192.9 106.387 197.707 106.387 197.707Z" fill="white" stroke="#263238" stroke-linecap="round" stroke-linejoin="round"/>
<path d="M132.558 195.039C132.558 195.039 130.419 196.105 129.618 200.11C128.817 204.115 127.751 206.254 129.353 207.32C130.955 208.385 137.901 209.186 138.966 208.121C140.032 207.055 142.972 201.712 143.508 198.244C144.045 194.775 132.558 195.039 132.558 195.039Z" fill="#FFA400" stroke="#263238" stroke-linecap="round" stroke-linejoin="round"/>
<path d="M141.635 196.369C140.393 197.794 139.402 199.419 138.703 201.175C138.137 203.014 137.69 204.887 137.365 206.783C139.921 207.484 142.42 208.378 144.839 209.459C149.117 211.325 156.327 212.663 163.264 214.265C170.202 215.867 172.076 217.47 174.48 217.47C176.883 217.47 179.823 215.595 183.564 211.061C187.305 206.527 184.093 196.906 180.36 193.966C176.626 191.026 156.591 188.63 153.924 189.432C151.256 190.233 141.635 196.369 141.635 196.369Z" fill="#263238" stroke="#263238" stroke-linecap="round" stroke-linejoin="round"/>
<path d="M91.5354 205.758C91.0078 203.361 89.9391 201.117 88.4111 199.197C88.1628 199.429 87.9225 199.669 87.6902 199.934C84.7181 203.314 86.5766 205.718 91.5354 205.758Z" fill="#FFA400" stroke="#263238" stroke-linecap="round" stroke-linejoin="round"/>
<path d="M118.268 207.873C118.268 207.873 115.512 237.361 109.889 241.951" stroke="white" stroke-width="0.5" stroke-linecap="round" stroke-linejoin="round"/>
<path d="M116.321 235.863C116.321 235.863 114.134 245.476 108.398 249.297" stroke="white" stroke-width="0.5" stroke-linecap="round" stroke-linejoin="round"/>
<path d="M151.784 202.513C151.784 202.513 143.236 203.05 148.844 206.783C154.452 210.516 164.601 212.927 164.601 212.927" stroke="white" stroke-width="0.5" stroke-linecap="round" stroke-linejoin="round"/>
<path d="M213.837 192.412L210.953 189.816L204.288 175.397C203.972 174.741 203.476 174.188 202.857 173.804C202.239 173.419 201.524 173.219 200.796 173.226H71.34C70.6104 173.217 69.8936 173.417 69.2736 173.801C68.6536 174.186 68.156 174.739 67.8392 175.397L59.532 193.357L58.1621 192.852V196.962L58.2262 196.914C58.3078 197.462 58.5861 197.962 59.0091 198.32C59.4322 198.678 59.9711 198.87 60.5253 198.86H211.602C212.186 198.874 212.752 198.66 213.181 198.264C213.61 197.868 213.868 197.32 213.901 196.737L213.837 192.412Z" fill="#263238" stroke="#263238" stroke-linecap="round" stroke-linejoin="round"/>
<path d="M211.602 195.103H60.5254C60.1513 195.118 59.7795 195.038 59.4449 194.87C59.1103 194.702 58.824 194.451 58.6126 194.142C58.4012 193.833 58.2718 193.475 58.2364 193.103C58.2011 192.73 58.261 192.354 58.4105 192.011L67.8393 171.639C68.1545 170.981 68.6517 170.427 69.2721 170.042C69.8925 169.657 70.6101 169.458 71.34 169.468H200.796C201.524 169.46 202.24 169.659 202.859 170.044C203.478 170.429 203.974 170.982 204.288 171.639L213.717 192.011C213.867 192.354 213.927 192.73 213.891 193.103C213.856 193.475 213.726 193.833 213.515 194.142C213.304 194.451 213.017 194.702 212.683 194.87C212.348 195.038 211.976 195.118 211.602 195.103Z" fill="white" stroke="#263238" stroke-linecap="round" stroke-linejoin="round"/>
<g style="mix-blend-mode:multiply" opacity="0.5">
<path d="M68.1766 181.421C68.1766 181.421 64.756 183.768 66.8949 184.625C69.0338 185.482 93.6191 184.841 96.6152 183.984C99.6113 183.127 103.024 175.22 103.024 173.939C103.024 172.657 98.714 171.736 97.1279 171.663C95.5417 171.591 74.5853 172.865 74.5853 172.865L68.1766 181.421Z" fill="#FFA400"/>
</g>
<g style="mix-blend-mode:multiply" opacity="0.5">
<path d="M190.469 185.482C195.309 185.482 199.233 183.854 199.233 181.845C199.233 179.837 195.309 178.208 190.469 178.208C185.629 178.208 181.705 179.837 181.705 181.845C181.705 183.854 185.629 185.482 190.469 185.482Z" fill="#FFA400"/>
</g>
<g style="mix-blend-mode:multiply" opacity="0.5">
<path d="M134.673 189.976C152.029 189.976 166.099 187.344 166.099 184.096C166.099 180.849 152.029 178.216 134.673 178.216C117.316 178.216 103.246 180.849 103.246 184.096C103.246 187.344 117.316 189.976 134.673 189.976Z" fill="#FFA400"/>
</g>
<path d="M184.061 167.538C184.061 167.538 183.484 165.239 181.57 166.008C179.655 166.777 179.847 171.856 180.224 174.732C180.6 177.608 183.196 176.262 183.196 176.262V174.539C183.196 174.539 182.243 175.3 181.762 174.251C181.281 173.202 181.377 167.922 181.858 168.019C182.339 168.115 183.292 169.741 183.292 169.741C183.292 169.741 183.58 169.557 184.061 167.538Z" fill="#FFA400" stroke="#263238" stroke-linecap="round" stroke-linejoin="round"/>
<path d="M182.684 167.922V180.516C182.684 181.998 186.088 183.199 190.294 183.199C194.5 183.199 197.896 181.998 197.896 180.516V167.922H182.684Z" fill="#FFA400" stroke="#263238" stroke-linecap="round" stroke-linejoin="round"/>
<path d="M197.896 167.922C197.896 169.204 194.492 170.238 190.294 170.238C186.096 170.238 182.684 169.204 182.684 167.922C182.684 166.641 186.088 165.607 190.294 165.607C194.5 165.607 197.896 166.649 197.896 167.922Z" fill="white" stroke="#263238" stroke-linecap="round" stroke-linejoin="round"/>
<path d="M196.902 167.922C196.902 169.036 193.938 169.933 190.293 169.933C186.648 169.933 183.676 169.036 183.676 167.922C183.676 166.809 186.64 165.912 190.293 165.912C193.946 165.912 196.902 166.809 196.902 167.922Z" fill="white" stroke="#263238" stroke-linecap="round" stroke-linejoin="round"/>
<path d="M185.189 169.204C188.519 170.176 192.057 170.176 195.387 169.204C192.057 168.232 188.519 168.232 185.189 169.204Z" fill="#263238" stroke="#263238" stroke-linecap="round" stroke-linejoin="round"/>
<path d="M67.2305 173.674L67.3266 177.984L96.366 178.272V173.29L67.2305 173.674Z" fill="white" stroke="#263238" stroke-linecap="round" stroke-linejoin="round"/>
<path d="M96.3661 178.272L100.588 169.172V166.488L96.1738 174.155L96.3661 178.272Z" fill="white" stroke="#263238" stroke-linecap="round" stroke-linejoin="round"/>
<path d="M67.2305 177.6L67.3266 181.917L96.366 182.206V177.223L67.2305 177.6Z" fill="white" stroke="#263238" stroke-linecap="round" stroke-linejoin="round"/>
<path d="M96.3661 182.206L100.588 173.097V170.414L96.1738 178.08L96.3661 182.206Z" fill="white" stroke="#263238" stroke-linecap="round" stroke-linejoin="round"/>
<path d="M78.445 162.747C78.445 162.747 79.1179 161.41 78.1566 160.833C77.1953 160.256 76.1459 161.634 75.5691 162.074C74.9923 162.515 62.9199 170.51 62.5354 171.76C62.1509 173.009 62.5354 175.765 65.1229 176.069C67.7105 176.374 70.0096 174.635 71.1631 174.347C72.3167 174.059 72.7653 173.963 72.7653 173.963L80.7201 163.228L78.445 162.747Z" fill="white" stroke="#263238" stroke-linecap="round" stroke-linejoin="round"/>
<path d="M65.1233 176.077C67.7108 176.366 70.0099 174.644 71.1635 174.355C72.317 174.067 72.7656 173.971 72.7656 173.971L73.054 173.578L65.5799 172.056C65.1735 171.673 64.6511 171.437 64.0953 171.385C63.5396 171.333 62.9823 171.467 62.5117 171.768C62.1512 173.001 62.5358 175.781 65.1233 176.077Z" fill="white" stroke="#263238" stroke-linecap="round" stroke-linejoin="round"/>
<path d="M65.6035 172.072H88.0339C95.0354 172.072 97.1423 171.687 97.1423 171.687L101.452 162.771C101.452 162.771 87.8337 163.637 83.628 163.348C81.8901 163.298 80.1592 163.105 78.4529 162.771L65.6035 172.072Z" fill="white" stroke="#263238" stroke-linecap="round" stroke-linejoin="round"/>
<path d="M65.6035 172.072L65.988 173.794C65.988 173.794 84.1967 173.89 88.9872 173.89C93.7777 173.89 97.4227 174.083 97.4227 174.083L97.1343 171.68L65.6035 172.072Z" fill="white" stroke="#263238" stroke-linecap="round" stroke-linejoin="round"/>
<path d="M97.4232 174.059L101.445 164.854V162.747L97.1348 171.663L97.4232 174.059Z" fill="white" stroke="#263238" stroke-linecap="round" stroke-linejoin="round"/>
<path d="M162.119 184.825H107.205C107.083 184.826 106.962 184.803 106.85 184.758C106.737 184.712 106.634 184.644 106.548 184.558C106.462 184.473 106.393 184.371 106.346 184.258C106.299 184.146 106.275 184.026 106.275 183.904C106.275 183.782 106.299 183.662 106.346 183.55C106.393 183.437 106.462 183.335 106.548 183.25C106.634 183.164 106.737 183.096 106.85 183.051C106.962 183.005 107.083 182.982 107.205 182.983H162.119C162.24 182.982 162.361 183.005 162.473 183.051C162.585 183.097 162.687 183.165 162.773 183.25C162.859 183.336 162.926 183.438 162.972 183.55C163.018 183.663 163.041 183.783 163.04 183.904C163.041 184.025 163.018 184.146 162.972 184.258C162.926 184.37 162.859 184.472 162.773 184.558C162.687 184.644 162.585 184.711 162.473 184.757C162.361 184.803 162.24 184.826 162.119 184.825Z" fill="white" stroke="#263238" stroke-linecap="round" stroke-linejoin="round"/>
<path d="M162.583 182.967H106.732C106.527 182.967 106.33 182.889 106.182 182.749C106.033 182.609 105.943 182.418 105.931 182.214L102.894 145.724C102.881 145.611 102.891 145.497 102.925 145.388C102.96 145.28 103.016 145.179 103.092 145.095C103.168 145.01 103.261 144.942 103.365 144.896C103.469 144.85 103.582 144.826 103.696 144.827H165.628C165.741 144.826 165.854 144.85 165.958 144.896C166.062 144.942 166.155 145.01 166.231 145.095C166.307 145.179 166.364 145.28 166.398 145.388C166.432 145.497 166.442 145.611 166.429 145.724L163.392 182.214C163.38 182.419 163.289 182.612 163.139 182.752C162.988 182.892 162.789 182.969 162.583 182.967Z" fill="white" stroke="#263238" stroke-linecap="round" stroke-linejoin="round"/>
<path d="M139.929 164.526C139.929 166.705 137.566 168.467 134.658 168.467C131.75 168.467 129.379 166.705 129.379 164.526C129.379 162.347 131.742 160.592 134.658 160.592C137.574 160.592 139.929 162.355 139.929 164.526Z" fill="white" stroke="#263238" stroke-linecap="round" stroke-linejoin="round"/>
<path d="M194.508 136.023C195.364 135.355 195.967 134.413 196.214 133.356C196.394 132.562 196.375 131.736 196.158 130.952" stroke="#263238" stroke-linecap="round" stroke-linejoin="round"/>
<path d="M188.113 164.59C188.113 164.59 193.441 161.386 191.702 157.725C189.964 154.064 184.084 151.636 184.084 145.933C184.084 141.014 189.315 139.195 192.728 137.225" stroke="#263238" stroke-linecap="round" stroke-linejoin="round"/>
<path d="M193.032 164.486C193.032 164.486 196.004 162.507 196.004 159.367C196.004 157.26 193.753 155.882 190.781 152.493" stroke="#263238" stroke-linecap="round" stroke-linejoin="round"/>
<path d="M189.139 150.443C189.139 150.443 187.193 148.913 188.627 146.037" stroke="#263238" stroke-linecap="round" stroke-linejoin="round"/>
<path d="M144.038 66.5289C144.991 66.3287 147.034 65.5436 148.412 62.3473C148.433 62.2989 148.445 62.2468 148.446 62.194C148.447 62.1412 148.437 62.0887 148.418 62.0396C148.399 61.9904 148.37 61.9456 148.333 61.9077C148.296 61.8697 148.252 61.8394 148.204 61.8185C148.106 61.7778 147.996 61.7768 147.897 61.8157C147.799 61.8546 147.719 61.9303 147.675 62.0268C146.409 64.9588 144.599 65.6077 143.846 65.7519C145.193 64.121 145.937 62.0755 145.953 59.96C145.953 54.4005 140.802 49.8984 134.449 49.8984C128.096 49.8984 122.945 54.4005 122.945 59.96C122.95 61.9902 123.626 63.9619 124.868 65.5676C123.658 65.5035 121.616 66.0162 119.028 69.0363C118.954 69.1126 118.913 69.2145 118.913 69.3207C118.913 69.4269 118.954 69.5289 119.028 69.6051C119.102 69.6668 119.196 69.7008 119.293 69.7012C119.351 69.7013 119.408 69.6884 119.461 69.6634C119.514 69.6385 119.56 69.6022 119.597 69.557C122.905 65.7038 125.092 66.3527 125.533 66.5289C124.785 66.9404 124.084 67.4319 123.442 67.9949C119.749 71.3194 117.498 77.6079 117.786 82.847C118.111 86.3218 119.37 89.6439 121.431 92.4601C124.114 90.5405 126.338 88.051 127.944 85.1702C129.141 83.0542 130.211 80.8687 131.149 78.6253C131.149 80.9725 131.453 83.8084 132.687 85.8351C133.577 87.436 134.88 88.7683 136.462 89.6928C138.043 90.6173 139.843 91.0999 141.675 91.0902C142.307 91.0993 142.939 91.0375 143.557 90.906C143.612 90.8924 143.663 90.8675 143.707 90.833C143.751 90.7985 143.787 90.7552 143.814 90.7057C146.906 91.3626 149.982 91.3065 150.455 90.6496C151.216 89.6002 152.297 86.3238 152.658 82.3183C153.315 75.5251 149.037 69.6291 144.038 66.5289ZM133.432 85.3464C131.878 82.807 131.926 78.6654 132.11 76.2862L132.214 76.0138C132.288 78.4608 132.912 80.8598 134.039 83.0329C135.167 85.206 136.769 87.0974 138.727 88.5668C139.809 89.3145 141.008 89.875 142.276 90.2251C140.313 90.3612 136.276 89.9847 133.432 85.3464Z" fill="#263238"/>
<path d="M133.569 72.7373C133.569 72.7373 132.912 77.5919 139.081 82.3504C145.249 87.1088 151.097 85.2343 151.097 85.2343" stroke="white" stroke-width="0.5" stroke-linecap="round" stroke-linejoin="round"/>
<path d="M134.475 71.1352C134.475 71.1352 140.971 80.596 149.944 78.1286" stroke="white" stroke-width="0.5" stroke-linecap="round" stroke-linejoin="round"/>
<path d="M131.262 67.9869C130.237 67.4667 129.09 67.2379 127.944 67.3255C126.798 67.4131 125.699 67.8137 124.765 68.4836C121.312 70.7827 119.582 76.2141 119.582 76.2141" stroke="white" stroke-width="0.5" stroke-linecap="round" stroke-linejoin="round"/>
<path d="M131.429 70.6225C131.429 70.6225 128.633 69.8775 126.903 71.6078C126.059 72.372 125.338 73.2609 124.764 74.2434" stroke="white" stroke-width="0.5" stroke-linecap="round" stroke-linejoin="round"/>
</svg>
