<svg width="401" height="307" viewBox="0 0 401 307" fill="none" xmlns="http://www.w3.org/2000/svg">
<path d="M366.049 301.845C366.049 303.552 312.045 304.931 245.504 304.931C178.963 304.931 124.958 303.552 124.958 301.845C124.958 300.138 178.963 298.769 245.504 298.769C312.045 298.769 366.049 300.148 366.049 301.845Z" fill="#2E353A"/>
<path d="M270.673 15.8438H157.409C153.883 15.8438 151.025 18.702 151.025 22.2278V66.5017C151.025 70.0276 153.883 72.8858 157.409 72.8858H270.673C274.199 72.8858 277.057 70.0276 277.057 66.5017V22.2278C277.057 18.702 274.199 15.8438 270.673 15.8438Z" fill="#FFA401"/>
<path d="M151.025 62.8566V83.4457L162.511 70.2243" fill="#FFA401"/>
<path d="M270.683 15.8439H157.38C156.542 15.8439 155.713 16.0091 154.939 16.33C154.165 16.651 153.462 17.1214 152.869 17.7143C152.277 18.3073 151.808 19.0111 151.488 19.7856C151.169 20.5601 151.005 21.39 151.006 22.228V83.4457L160.187 72.8859H270.683C271.521 72.8859 272.351 72.7207 273.125 72.3998C273.899 72.0788 274.602 71.6085 275.194 71.0155C275.786 70.4226 276.256 69.7187 276.575 68.9442C276.895 68.1697 277.059 67.3398 277.058 66.5019V22.228C277.059 21.39 276.895 20.5601 276.575 19.7856C276.256 19.0111 275.786 18.3073 275.194 17.7143C274.602 17.1214 273.899 16.651 273.125 16.33C272.351 16.0091 271.521 15.8439 270.683 15.8439Z" fill="#FFA401"/>
<path opacity="0.1" d="M270.683 15.8439H157.38C156.542 15.8439 155.713 16.0091 154.939 16.33C154.165 16.651 153.462 17.1214 152.869 17.7143C152.277 18.3073 151.808 19.0111 151.488 19.7856C151.169 20.5601 151.005 21.39 151.006 22.228V83.4457L160.187 72.8859H270.683C271.521 72.8859 272.351 72.7207 273.125 72.3998C273.899 72.0788 274.602 71.6085 275.194 71.0155C275.786 70.4226 276.256 69.7187 276.575 68.9442C276.895 68.1697 277.059 67.3398 277.058 66.5019V22.228C277.059 21.39 276.895 20.5601 276.575 19.7856C276.256 19.0111 275.786 18.3073 275.194 17.7143C274.602 17.1214 273.899 16.651 273.125 16.33C272.351 16.0091 271.521 15.8439 270.683 15.8439Z" fill="#FFA401"/>
<path d="M248.031 47.1374H166.648C166.044 47.1374 165.465 46.8976 165.039 46.4708C164.612 46.044 164.372 45.4651 164.372 44.8615C164.375 44.2595 164.616 43.6831 165.042 43.2584C165.469 42.8337 166.046 42.5952 166.648 42.5952H248.031C248.632 42.5952 249.21 42.8337 249.636 43.2584C250.063 43.6831 250.304 44.2595 250.306 44.8615C250.306 45.1603 250.248 45.4563 250.133 45.7324C250.019 46.0085 249.851 46.2594 249.64 46.4708C249.428 46.6821 249.178 46.8497 248.901 46.9641C248.625 47.0785 248.329 47.1374 248.031 47.1374Z" fill="white"/>
<path d="M248.031 57.5911H166.648C166.349 57.5911 166.053 57.5322 165.777 57.4179C165.501 57.3035 165.25 57.1358 165.039 56.9245C164.827 56.7132 164.66 56.4623 164.545 56.1861C164.431 55.91 164.372 55.6141 164.372 55.3152C164.375 54.7133 164.616 54.1369 165.042 53.7121C165.469 53.2874 166.046 53.0489 166.648 53.049H248.031C248.632 53.0489 249.21 53.2874 249.636 53.7121C250.063 54.1369 250.304 54.7133 250.306 55.3152C250.306 55.6141 250.248 55.91 250.133 56.1861C250.019 56.4623 249.851 56.7132 249.64 56.9245C249.428 57.1358 249.178 57.3035 248.901 57.4179C248.625 57.5322 248.329 57.5911 248.031 57.5911Z" fill="white"/>
<path d="M171.19 36.6836C175.706 36.6836 179.368 33.0223 179.368 28.5058C179.368 23.9893 175.706 20.328 171.19 20.328C166.674 20.328 163.012 23.9893 163.012 28.5058C163.012 33.0223 166.674 36.6836 171.19 36.6836Z" fill="white"/>
<path d="M270.674 93.0411H157.409C153.884 93.0411 151.025 95.8994 151.025 99.4252V143.699C151.025 147.225 153.884 150.083 157.409 150.083H270.674C274.2 150.083 277.058 147.225 277.058 143.699V99.4252C277.058 95.8994 274.2 93.0411 270.674 93.0411Z" fill="#FFA401"/>
<path d="M151.025 140.044V160.643L162.511 147.412" fill="#FFA401"/>
<path d="M270.683 93.0411H157.38C155.69 93.0411 154.068 93.7127 152.873 94.9082C151.677 96.1036 151.006 97.725 151.006 99.4156V160.643L160.187 150.035H270.683C272.374 150.035 273.995 149.363 275.191 148.168C276.386 146.973 277.058 145.351 277.058 143.661V99.4156C277.058 97.725 276.386 96.1036 275.191 94.9082C273.995 93.7127 272.374 93.0411 270.683 93.0411Z" fill="#FFA401"/>
<path opacity="0.1" d="M270.683 93.0411H157.38C155.69 93.0411 154.068 93.7127 152.873 94.9082C151.677 96.1036 151.006 97.725 151.006 99.4156V160.643L160.187 150.035H270.683C272.374 150.035 273.995 149.363 275.191 148.168C276.386 146.973 277.058 145.351 277.058 143.661V99.4156C277.058 97.725 276.386 96.1036 275.191 94.9082C273.995 93.7127 272.374 93.0411 270.683 93.0411Z" fill="#FFA401"/>
<path d="M248.031 124.325H166.648C166.046 124.325 165.469 124.087 165.042 123.662C164.616 123.237 164.375 122.661 164.372 122.059C164.372 121.455 164.612 120.876 165.039 120.449C165.465 120.023 166.044 119.783 166.648 119.783H248.031C248.329 119.783 248.625 119.842 248.901 119.956C249.178 120.07 249.428 120.238 249.64 120.449C249.851 120.661 250.019 120.912 250.133 121.188C250.248 121.464 250.306 121.76 250.306 122.059C250.304 122.661 250.063 123.237 249.636 123.662C249.21 124.087 248.632 124.325 248.031 124.325Z" fill="white"/>
<path d="M248.031 134.779H166.648C166.046 134.779 165.469 134.54 165.042 134.116C164.616 133.691 164.375 133.114 164.372 132.512C164.372 131.909 164.612 131.33 165.039 130.903C165.465 130.476 166.044 130.237 166.648 130.237H248.031C248.329 130.237 248.625 130.295 248.901 130.41C249.178 130.524 249.428 130.692 249.64 130.903C249.851 131.115 250.019 131.365 250.133 131.642C250.248 131.918 250.306 132.214 250.306 132.512C250.304 133.114 250.063 133.691 249.636 134.116C249.21 134.54 248.632 134.779 248.031 134.779Z" fill="white"/>
<path d="M171.19 113.871C175.706 113.871 179.368 110.21 179.368 105.693C179.368 101.177 175.706 97.5156 171.19 97.5156C166.674 97.5156 163.012 101.177 163.012 105.693C163.012 110.21 166.674 113.871 171.19 113.871Z" fill="white"/>
<path d="M63.4994 206.064C63.4126 206.064 63.0268 200.018 63.0461 199.632C63.2679 195.167 66.3346 186.661 71.1853 185.369C71.9951 185.175 72.8365 185.155 73.6548 185.309C74.473 185.462 75.2496 185.787 75.934 186.261C76.6183 186.735 77.195 187.348 77.6264 188.06C78.0577 188.772 78.334 189.567 78.4373 190.393C78.9967 193.884 76.7208 197.607 74.4159 200.037C71.6964 202.853 63.4994 206.064 63.4994 206.064Z" fill="#2E353A"/>
<path d="M57.1731 182.765C57.0863 182.765 57.6167 176.728 57.6939 176.343C58.6004 171.964 62.9207 164.018 67.8969 163.478C68.7268 163.41 69.5617 163.518 70.3473 163.794C71.1329 164.07 71.8516 164.508 72.4565 165.08C73.0615 165.653 73.5392 166.346 73.8585 167.115C74.1778 167.884 74.3316 168.711 74.3099 169.544C74.3099 173.083 71.5229 176.42 68.8805 178.455C65.7656 180.846 57.1731 182.765 57.1731 182.765Z" fill="#2E353A"/>
<path d="M55.5724 155.271C55.4856 155.271 56.0257 149.234 56.1028 148.849C56.9997 144.47 61.32 136.524 66.3058 135.984C67.1352 135.916 67.9698 136.024 68.7549 136.3C69.54 136.576 70.2581 137.014 70.8623 137.587C71.4665 138.159 71.9433 138.852 72.2615 139.621C72.5797 140.39 72.7322 141.218 72.7091 142.05C72.7091 145.589 69.9318 148.916 67.2798 150.961C64.1649 153.352 55.582 155.271 55.5724 155.271Z" fill="#2E353A"/>
<path d="M52.8048 129.397C52.718 129.397 53.2581 123.351 53.3352 122.975C54.2321 118.587 58.5524 110.65 63.5382 110.101C64.3682 110.034 65.2029 110.143 65.988 110.42C66.7731 110.697 67.4911 111.137 68.0951 111.71C68.6992 112.283 69.1757 112.977 69.4939 113.746C69.812 114.516 69.9645 115.344 69.9416 116.176C69.9416 119.706 67.1642 123.042 64.5122 125.077C61.3973 127.469 52.8145 129.397 52.8048 129.397Z" fill="#2E353A"/>
<path d="M44.5496 108.635C44.4725 108.635 43.3924 102.685 43.3634 102.299C43.0741 97.834 45.1475 89.0293 49.8054 87.1971C50.5875 86.9115 51.421 86.7942 52.2515 86.8526C53.0821 86.9111 53.8909 87.144 54.6254 87.5362C55.3598 87.9285 56.0032 88.4712 56.5137 89.1289C57.0241 89.7867 57.3901 90.5447 57.5878 91.3535C58.5521 94.7577 56.7199 98.7115 54.6947 101.373C52.3417 104.507 44.5496 108.635 44.5496 108.635Z" fill="#2E353A"/>
<path d="M60.9439 206.132C61.0404 206.132 58.4077 200.625 58.1955 200.297C55.8135 196.517 48.9762 190.596 44.1255 191.84C43.3257 192.068 42.5831 192.463 41.946 192.997C41.3088 193.532 40.7914 194.195 40.4275 194.942C40.0636 195.69 39.8613 196.506 39.8338 197.338C39.8063 198.169 39.9543 198.997 40.268 199.767C41.4831 203.094 45.2827 205.225 48.4844 206.199C52.2647 207.347 60.9439 206.132 60.9439 206.132Z" fill="#2E353A"/>
<path d="M55.881 179.65C55.9774 179.65 52.5346 174.597 52.2839 174.308C49.3908 170.923 41.6759 166.111 37.0952 168.068C36.3372 168.414 35.6606 168.916 35.1099 169.541C34.5591 170.166 34.1464 170.9 33.8988 171.696C33.6512 172.491 33.5743 173.33 33.6731 174.158C33.7719 174.985 34.0442 175.782 34.4721 176.497C36.1694 179.592 40.2583 181.126 43.5661 181.608C47.4428 182.167 55.881 179.65 55.881 179.65Z" fill="#2E353A"/>
<path d="M54.4246 153.709C54.5114 153.709 51.0783 148.656 50.8275 148.366C47.9345 144.981 40.2196 140.169 35.6292 142.136C34.863 142.48 34.1785 142.982 33.6209 143.61C33.0632 144.237 32.6453 144.976 32.3946 145.778C32.1439 146.579 32.0662 147.424 32.1666 148.258C32.267 149.092 32.5433 149.894 32.9772 150.613C34.6841 153.709 38.7634 155.242 42.0808 155.715C45.9864 156.235 54.4246 153.718 54.4246 153.709Z" fill="#2E353A"/>
<path d="M51.9269 129.909C52.0233 129.909 48.5805 124.855 48.3298 124.566C45.4367 121.181 37.7218 116.369 33.1411 118.327C32.3831 118.672 31.7065 119.174 31.1558 119.799C30.605 120.424 30.1923 121.159 29.9447 121.954C29.6971 122.75 29.6202 123.589 29.719 124.416C29.8178 125.243 30.0901 126.04 30.518 126.755C32.2153 129.86 36.3042 131.384 39.6119 131.866C43.4887 132.426 51.9269 129.909 51.9269 129.909Z" fill="#2E353A"/>
<path d="M44.6076 109.416C44.6944 109.416 40.7501 104.767 40.4416 104.497C37.1627 101.46 29.0235 97.5155 24.6549 99.9746C23.9377 100.402 23.3189 100.976 22.8391 101.659C22.3592 102.342 22.0293 103.119 21.8708 103.938C21.7124 104.758 21.729 105.602 21.9196 106.414C22.1103 107.227 22.4706 107.99 22.9769 108.654C25.0117 111.547 29.2357 112.627 32.6206 112.733C36.4973 112.849 44.6076 109.425 44.6076 109.416Z" fill="#2E353A"/>
<path d="M34.0863 92.4816C34.1731 92.4816 32.7844 86.5604 32.6591 86.194C31.145 81.9797 25.7446 74.7374 20.7299 74.9013C19.8987 74.9518 19.0875 75.1767 18.3491 75.5615C17.6106 75.9462 16.9614 76.4822 16.4438 77.1344C15.9262 77.7867 15.5517 78.5407 15.3448 79.3472C15.1378 80.1538 15.103 80.9949 15.2427 81.8158C15.7249 85.3261 18.9748 88.2191 21.8871 89.8586C25.3106 91.7873 34.0767 92.4816 34.0863 92.4816Z" fill="#2E353A"/>
<path d="M71.9281 237.31C71.9281 237.31 70.8962 234.947 69.2761 230.81C67.6559 226.673 65.4186 220.703 63.0463 213.451C61.8601 209.825 60.6547 205.871 59.4782 201.657C58.8803 199.535 58.3402 197.404 57.7519 195.119C57.5012 194 57.2601 192.872 57.0094 191.734C56.7586 190.596 56.5851 189.39 56.3729 188.204C55.6117 183.339 55.1191 178.436 54.8974 173.517C54.6563 168.512 54.5599 163.449 54.4345 158.386C54.3092 153.323 54.1838 148.28 53.7788 143.342C53.4255 138.506 52.7327 133.702 51.7054 128.963C50.6706 124.55 49.2442 120.239 47.4429 116.079C45.8343 112.337 44.0085 108.692 41.975 105.163C40.1137 101.855 38.2043 98.9524 36.4974 96.3872C34.7905 93.822 33.1896 91.6618 31.8492 89.897C29.1682 86.3674 27.4902 84.4773 27.4902 84.4773C27.4902 84.4773 29.2068 86.3385 31.9745 89.8006C33.3439 91.5461 34.9833 93.658 36.7963 96.204C38.6093 98.7499 40.5381 101.604 42.4764 104.883C44.6138 108.391 46.5458 112.02 48.2626 115.752C50.1862 119.921 51.7384 124.251 52.9012 128.693C54.0458 133.453 54.8546 138.286 55.3217 143.159C55.8329 148.145 56.0932 153.217 56.2861 158.28C56.479 163.343 56.7201 168.387 57.0672 173.334C57.3922 178.158 57.9781 182.961 58.8224 187.722C59.0635 188.87 59.2081 189.988 59.5071 191.126C59.806 192.264 60.0568 193.383 60.3268 194.492C60.9247 196.604 61.5322 198.803 62.1687 200.857C63.4128 204.994 64.6954 208.88 65.949 212.429C68.4371 219.565 70.7708 225.409 72.4778 229.479C74.1847 233.549 75.2358 235.805 75.2358 235.805C75.3948 236.222 75.3899 236.684 75.222 237.097C75.0542 237.511 74.7359 237.846 74.3313 238.034C73.9266 238.222 73.4657 238.25 73.0412 238.112C72.6168 237.974 72.2604 237.68 72.0438 237.29L71.9281 237.31Z" fill="#2E353A"/>
<path d="M94.6387 199.931C94.552 199.931 95.9117 194 96.0371 193.634C97.5222 189.419 102.884 182.138 107.889 182.273C108.72 182.318 109.533 182.537 110.273 182.917C111.014 183.297 111.667 183.828 112.188 184.477C112.709 185.126 113.088 185.877 113.3 186.682C113.511 187.487 113.55 188.328 113.415 189.149C112.962 192.66 109.731 195.582 106.828 197.24C103.376 199.188 94.6966 199.931 94.6387 199.931Z" fill="#2E353A"/>
<path d="M95.1983 175.803C95.1115 175.803 97.3488 170.132 97.532 169.795C99.644 165.841 106.038 159.457 110.966 160.353C111.781 160.524 112.551 160.864 113.226 161.352C113.901 161.84 114.465 162.464 114.883 163.185C115.3 163.905 115.561 164.706 115.649 165.534C115.737 166.362 115.649 167.199 115.392 167.991C114.428 171.395 110.773 173.777 107.677 174.983C103.984 176.391 95.2079 175.803 95.1983 175.803Z" fill="#2E353A"/>
<path d="M101.447 148.984C101.351 148.984 103.588 143.313 103.771 142.976C105.883 139.032 112.287 132.648 117.215 133.535C118.03 133.706 118.8 134.047 119.475 134.536C120.149 135.025 120.714 135.651 121.13 136.372C121.547 137.094 121.807 137.895 121.893 138.724C121.98 139.553 121.89 140.39 121.631 141.182C120.667 144.577 117.012 146.968 113.917 148.174C110.271 149.582 101.447 148.984 101.447 148.984Z" fill="#2E353A"/>
<path d="M106.182 123.399C106.086 123.399 108.323 117.738 108.506 117.391C110.618 113.447 117.022 107.063 121.95 107.96C122.765 108.13 123.535 108.47 124.209 108.958C124.884 109.446 125.448 110.071 125.865 110.791C126.281 111.512 126.542 112.313 126.628 113.141C126.714 113.969 126.625 114.806 126.366 115.597C125.402 119.002 121.747 121.383 118.651 122.589C114.948 123.997 106.182 123.399 106.182 123.399Z" fill="#2E353A"/>
<path d="M104.186 101.132C104.089 101.132 104.755 95.1047 104.842 94.7286C105.806 90.36 110.319 82.5101 115.315 82.0761C116.145 82.0265 116.977 82.1522 117.756 82.4452C118.535 82.7383 119.244 83.1919 119.836 83.7768C120.428 84.3617 120.891 85.0646 121.193 85.84C121.496 86.6153 121.632 87.4456 121.593 88.277C121.593 91.8162 118.699 95.0854 115.98 97.0623C112.817 99.3864 104.186 101.132 104.186 101.132Z" fill="#2E353A"/>
<path d="M92.2086 199.275C92.2954 199.275 91.3311 193.277 91.2443 192.91C90.0388 188.6 85.1688 180.981 80.1638 180.788C79.3305 180.779 78.5046 180.945 77.7399 181.277C76.9752 181.608 76.2889 182.096 75.7257 182.71C75.1625 183.325 74.735 184.051 74.4712 184.841C74.2073 185.631 74.113 186.469 74.1943 187.298C74.4161 190.827 77.4539 193.952 80.2409 195.794C83.5005 197.964 92.199 199.275 92.2086 199.275Z" fill="#2E353A"/>
<path d="M94.8506 172.446C94.947 172.446 93.0762 166.66 92.9219 166.294C91.0703 162.215 85.1009 155.425 80.1248 155.994C79.3002 156.112 78.5096 156.402 77.8046 156.846C77.0996 157.289 76.4959 157.876 76.0328 158.568C75.5697 159.261 75.2577 160.043 75.117 160.864C74.9763 161.685 75.0101 162.526 75.2161 163.333C75.9684 166.786 79.4497 169.418 82.4778 170.817C86.017 172.466 94.8409 172.446 94.8506 172.446Z" fill="#2E353A"/>
<path d="M100.83 147.161C100.917 147.161 99.0557 141.375 98.9014 141.008C97.0595 136.939 91.0901 130.15 86.1139 130.719C85.2864 130.835 84.4928 131.124 83.785 131.568C83.0772 132.013 82.4713 132.601 82.0069 133.296C81.5425 133.991 81.2302 134.776 81.0904 135.6C80.9506 136.424 80.9865 137.268 81.1957 138.077C81.9575 141.539 85.4292 144.162 88.467 145.56C92.0255 147.18 100.82 147.161 100.83 147.161Z" fill="#2E353A"/>
<path d="M105.199 123.611C105.295 123.611 103.424 117.825 103.27 117.458C101.418 113.389 95.4586 106.59 90.4729 107.169C89.6487 107.285 88.8583 107.574 88.1533 108.017C87.4483 108.459 86.8445 109.045 86.3813 109.737C85.9181 110.428 85.606 111.21 85.4652 112.03C85.3244 112.851 85.3582 113.691 85.5643 114.498C86.3165 117.96 89.7978 120.583 92.8356 121.981C96.3941 123.611 105.199 123.611 105.199 123.611Z" fill="#2E353A"/>
<path d="M104.003 101.903C104.099 101.903 101.611 96.339 101.409 96.0015C99.1231 92.144 92.4497 86.0589 87.5603 87.1776C86.7535 87.3842 85.9993 87.7586 85.3471 88.2765C84.6948 88.7944 84.1592 89.4441 83.7751 90.1832C83.391 90.9222 83.1672 91.7339 83.1182 92.5653C83.0692 93.3967 83.1961 94.2292 83.4907 95.0082C84.619 98.3545 88.3608 100.582 91.5335 101.643C95.256 102.887 104.003 101.903 104.003 101.903Z" fill="#2E353A"/>
<path d="M98.7372 82.6741C98.8144 82.6741 99.1712 76.6275 99.1423 76.2418C98.8915 71.7671 95.7766 63.2808 90.9259 62.0174C90.1147 61.8301 89.2731 61.8157 88.4559 61.9751C87.6387 62.1345 86.8643 62.4642 86.1829 62.9426C85.5016 63.4211 84.9286 64.0377 84.5013 64.7523C84.074 65.4668 83.8019 66.2633 83.7028 67.09C83.1628 70.5906 85.4579 74.2938 87.7821 76.7336C90.5112 79.511 98.7276 82.6644 98.7372 82.6741Z" fill="#2E353A"/>
<path d="M93.8478 232.285C93.8478 232.285 93.52 229.73 93.1439 225.294C92.7678 220.857 92.3145 214.512 92.112 206.884C92.0059 203.026 91.9673 198.938 92.0445 194.559C92.0445 192.361 92.1602 190.162 92.247 187.809C92.3242 186.671 92.4109 185.514 92.4881 184.356C92.5652 183.199 92.7581 181.984 92.8835 180.788C93.5445 175.92 94.4685 171.091 95.6512 166.323C96.8374 161.453 98.1875 156.563 99.5087 151.684C100.83 146.804 102.132 141.924 103.154 137.064C104.189 132.33 104.888 127.528 105.247 122.695C105.495 118.167 105.34 113.627 104.784 109.126C104.307 105.079 103.592 101.064 102.643 97.1008C101.794 93.3976 100.801 90.0706 99.8944 87.1293C98.9879 84.188 98.0525 81.6517 97.281 79.5879C95.7091 75.4412 94.6386 73.146 94.6386 73.146C94.6386 73.146 95.7573 75.4219 97.416 79.5301C98.2453 81.5842 99.2001 84.1012 100.203 87.0232C101.206 89.9452 102.247 93.2722 103.173 96.9658C104.214 100.933 105.023 104.958 105.594 109.02C106.257 113.566 106.516 118.161 106.365 122.753C106.108 127.656 105.505 132.535 104.562 137.353C103.598 142.272 102.44 147.209 101.216 152.127C99.9908 157.046 98.7565 161.945 97.686 166.786C96.6229 171.502 95.8181 176.273 95.2751 181.077C95.1787 182.244 95.0051 183.353 94.9665 184.53C94.9279 185.706 94.8508 186.854 94.7929 187.992C94.7929 190.191 94.7254 192.467 94.7929 194.617C94.7929 198.947 94.9376 203.036 95.1304 206.807C95.4873 214.358 96.0948 220.636 96.5481 225.004C97.0013 229.373 97.387 231.861 97.387 231.861C97.4206 232.089 97.4088 232.322 97.3523 232.546C97.2959 232.77 97.1958 232.981 97.0579 233.167C96.92 233.352 96.747 233.508 96.5486 233.627C96.3503 233.745 96.1305 233.824 95.9019 233.857C95.6733 233.891 95.4404 233.879 95.2163 233.822C94.9923 233.766 94.7816 233.666 94.5962 233.528C94.4109 233.39 94.2545 233.217 94.136 233.019C94.0175 232.82 93.9393 232.601 93.9057 232.372V232.324L93.8478 232.285Z" fill="#2E353A"/>
<path d="M105.034 296.049H64.2033L52.7178 229.18H116.52L105.034 296.049Z" fill="#2E353A"/>
<path d="M176.957 302.375C225.994 302.375 265.746 262.623 265.746 213.586C265.746 164.55 225.994 124.798 176.957 124.798C127.92 124.798 88.168 164.55 88.168 213.586C88.168 262.623 127.92 302.375 176.957 302.375Z" fill="#FFA401"/>
<path d="M176.957 302.819C159.308 302.819 142.056 297.586 127.382 287.781C112.708 277.976 101.27 264.039 94.5166 247.734C87.7628 231.429 85.9957 213.488 89.4387 196.178C92.8818 178.869 101.38 162.969 113.86 150.49C126.339 138.01 142.239 129.512 159.548 126.069C176.858 122.626 194.799 124.393 211.104 131.146C227.41 137.9 241.346 149.337 251.151 164.012C260.956 178.686 266.189 195.938 266.189 213.587C266.161 237.244 256.751 259.924 240.023 276.652C223.294 293.381 200.614 302.791 176.957 302.819ZM176.957 125.232C159.482 125.232 142.399 130.414 127.869 140.122C113.339 149.831 102.015 163.63 95.3273 179.775C88.64 195.919 86.8903 213.685 90.2994 230.824C93.7086 247.963 102.124 263.706 114.48 276.063C126.837 288.42 142.58 296.835 159.719 300.244C176.859 303.653 194.624 301.903 210.769 295.216C226.913 288.528 240.713 277.204 250.421 262.674C260.13 248.144 265.312 231.061 265.312 213.587C265.289 190.16 255.972 167.7 239.408 151.136C222.843 134.571 200.383 125.255 176.957 125.232Z" fill="#2E353A"/>
<path d="M153.436 271.978C145.925 269.207 139.04 264.968 133.184 259.509C127.276 253.831 122.699 246.915 119.779 239.258C116.469 230.672 114.829 221.533 114.948 212.333C114.885 204.477 116.271 196.676 119.037 189.323C121.538 182.578 125.283 176.362 130.079 171C139.556 160.609 151.811 153.149 165.394 149.504C172.058 147.717 178.928 146.809 185.829 146.804C191.554 146.783 197.26 147.463 202.821 148.829C208.194 150.159 213.336 152.288 218.077 155.146C222.762 157.966 226.96 161.526 230.507 165.686C234.22 170.157 237.051 175.291 238.849 180.817C240.932 187.108 241.958 193.7 241.887 200.326C241.815 213.074 237.249 225.388 228.993 235.101C225.425 239.177 221.185 242.611 216.457 245.256C212.388 247.616 207.784 248.897 203.081 248.978C199.853 249.017 196.701 248.002 194.103 246.085C192.791 245.122 191.723 243.865 190.985 242.414C190.246 240.964 189.858 239.361 189.85 237.734C184.347 245.487 176.902 249.364 167.515 249.364C159.871 249.364 153.764 246.751 149.192 241.524C144.621 236.297 142.345 229.868 142.365 222.237C142.385 216.431 143.396 210.672 145.354 205.206C147.27 199.68 150.014 194.477 153.493 189.776C156.947 185.14 161.357 181.302 166.426 178.522C171.48 175.667 177.188 174.172 182.993 174.182C187.026 174.141 191.005 175.113 194.566 177.008C198.035 178.848 200.848 181.719 202.618 185.224L203.37 182.775C203.714 181.746 204.296 180.813 205.069 180.052C205.842 179.29 206.784 178.723 207.818 178.394C208.853 178.066 209.95 177.987 211.02 178.164C212.09 178.34 213.104 178.767 213.978 179.409C214.536 179.865 214.979 180.445 215.27 181.104C215.562 181.762 215.694 182.48 215.656 183.199C215.657 183.888 215.543 184.573 215.319 185.224L203.351 225.004C202.001 229.556 201.326 232.677 201.326 234.368C201.326 237.236 202.788 238.666 205.714 238.66C209.533 238.66 213.284 236.905 216.968 233.394C220.937 229.434 224 224.66 225.946 219.401C228.237 213.649 229.409 207.512 229.398 201.32C229.455 195.864 228.657 190.434 227.036 185.224C225.691 180.733 223.544 176.521 220.7 172.794C217.999 169.398 214.738 166.488 211.056 164.192C207.381 161.877 203.37 160.143 199.166 159.052C194.858 157.929 190.425 157.362 185.973 157.364C180.313 157.371 174.682 158.166 169.242 159.727C163.656 161.325 158.332 163.726 153.436 166.853C148.498 169.971 144.027 173.773 140.156 178.146C136.164 182.75 133.052 188.049 130.976 193.778C128.666 200.024 127.51 206.638 127.562 213.297C127.437 221.185 128.869 229.021 131.776 236.355C134.258 242.715 138.198 248.403 143.281 252.961C148.181 257.225 153.841 260.526 159.964 262.692C166.42 264.977 173.224 266.119 180.071 266.067C187.391 266.08 194.67 264.971 201.654 262.778C202.359 262.54 203.099 262.426 203.843 262.441C204.55 262.412 205.255 262.537 205.909 262.807C206.563 263.076 207.151 263.485 207.633 264.003C208.558 264.964 209.073 266.247 209.07 267.581C209.161 268.654 208.861 269.724 208.224 270.593C207.588 271.461 206.658 272.07 205.608 272.306C196.892 274.973 187.836 276.363 178.721 276.434C170.092 276.498 161.523 274.989 153.436 271.978ZM183.909 233.713C187.546 231.089 190.249 227.372 191.624 223.105L199.339 195.967L198.828 194.868C198.338 193.974 197.745 193.139 197.063 192.38C196.141 191.321 195.138 190.334 194.064 189.429C192.684 188.318 191.116 187.462 189.435 186.902C185.069 185.357 180.28 185.522 176.031 187.365C173.72 188.361 171.597 189.744 169.753 191.454C167.827 193.248 166.116 195.257 164.651 197.443C163.122 199.706 161.83 202.12 160.794 204.647C159.756 207.165 158.952 209.773 158.392 212.439C157.84 214.974 157.556 217.559 157.544 220.154C157.534 221.817 157.633 223.479 157.843 225.13C158.022 226.592 158.345 228.032 158.807 229.431C159.215 230.697 159.796 231.901 160.533 233.009C161.214 234.034 162.069 234.931 163.06 235.661C164.115 236.431 165.301 237.003 166.561 237.348C168.042 237.76 169.575 237.958 171.112 237.936C175.728 237.986 180.23 236.5 183.909 233.713Z" fill="#2E353A"/>
<path d="M297.704 138.916C297.704 138.916 294.811 144.297 294.387 145.049C293.963 145.802 292.41 149.871 292.873 150.836C293.336 151.8 293.779 152.35 294.696 152.504C295.612 152.658 296.364 154.327 297.878 154.625C298.831 154.814 299.799 154.918 300.771 154.934C301.009 155.109 301.284 155.227 301.575 155.279C301.866 155.331 302.165 155.315 302.449 155.233C303.355 154.934 304.117 154.481 304.725 151.896C305.096 150.616 305.198 149.273 305.024 147.952L304.754 142.735L297.704 138.916Z" fill="white"/>
<path d="M301.909 155.792C301.451 155.786 301.003 155.652 300.617 155.406C299.664 155.381 298.716 155.274 297.782 155.088C296.915 154.852 296.139 154.362 295.554 153.68C295.294 153.369 294.963 153.125 294.59 152.967C294.094 152.856 293.634 152.621 293.255 152.283C292.875 151.946 292.588 151.517 292.42 151.038C291.793 149.794 293.616 145.367 293.953 144.808C294.397 144.065 297.232 138.742 297.261 138.684C297.324 138.573 297.428 138.49 297.55 138.453C297.668 138.406 297.799 138.406 297.917 138.453L304.956 142.262C305.029 142.304 305.089 142.362 305.133 142.433C305.177 142.504 305.202 142.584 305.207 142.667L305.477 147.875C305.654 149.242 305.545 150.631 305.159 151.954C304.561 154.529 303.78 155.242 302.565 155.647C302.355 155.73 302.134 155.779 301.909 155.792ZM297.907 139.572C297.213 140.864 295.187 144.654 294.802 145.3C294.271 146.177 292.998 150.006 293.297 150.604C293.779 151.568 294.146 151.915 294.773 152.021C295.344 152.19 295.851 152.526 296.229 152.986C296.684 153.535 297.291 153.937 297.974 154.143C298.893 154.321 299.826 154.421 300.761 154.442C300.873 154.442 300.982 154.479 301.07 154.548C301.243 154.674 301.442 154.759 301.652 154.797C301.863 154.836 302.079 154.826 302.285 154.77C302.951 154.548 303.645 154.317 304.214 151.78C304.564 150.566 304.666 149.293 304.513 148.039L304.252 143.024L297.907 139.572Z" fill="#2E353A"/>
<path d="M314.426 283.811C314.426 283.811 310.309 290.514 310.309 292.134C310.309 293.754 315.979 296.734 318.409 297.814C320.839 298.894 325.16 299.743 328.67 300.244C332.18 300.745 339.471 302.173 337.349 299.434C335.228 296.695 322.19 289.482 321.65 288.623C320.981 287.822 320.231 287.092 319.412 286.444L314.426 283.811Z" fill="white"/>
<path d="M335.594 301.536C333.536 301.453 331.487 301.224 329.461 300.852L328.593 300.717C323.694 299.964 320.203 299.135 318.217 298.248C317.869 298.094 309.827 294.497 309.827 292.134C309.827 290.427 313.588 284.255 314.012 283.551C314.078 283.448 314.179 283.374 314.297 283.342C314.414 283.31 314.54 283.322 314.648 283.377L319.634 286.02C320.529 286.704 321.342 287.491 322.055 288.363C322.286 288.633 324.408 289.964 326.462 291.256C330.84 293.985 336.279 297.39 337.687 299.145C338.198 299.781 338.324 300.331 338.054 300.784C337.784 301.237 336.935 301.536 335.594 301.536ZM314.571 284.448C313.009 287.032 310.762 291.112 310.762 292.163C310.762 293.214 314.89 295.76 318.573 297.399C320.502 298.248 323.897 299.048 328.719 299.791L329.577 299.926C331.351 300.206 336.752 301.064 337.195 300.312C337.195 300.312 337.195 300.119 336.906 299.762C335.604 298.132 330.011 294.632 325.922 292.047C322.633 289.993 321.457 289.241 321.216 288.884C320.576 288.12 319.859 287.426 319.075 286.811L314.571 284.448Z" fill="#2E353A"/>
<path d="M320.878 294.371L322.324 296.531C323.88 298.892 325.993 300.833 328.477 302.183C332.335 304.266 338.275 306.648 343.463 305.22C351.969 302.877 330.56 289.964 330.56 289.964C330.56 289.964 322.932 295.268 320.878 294.371Z" fill="white"/>
<path d="M340.088 306.136C335.807 306.136 331.409 304.343 328.246 302.607C325.697 301.223 323.525 299.237 321.92 296.821L320.473 294.651C320.413 294.568 320.38 294.469 320.38 294.366C320.38 294.264 320.413 294.164 320.473 294.082C320.541 294.001 320.633 293.945 320.735 293.921C320.838 293.896 320.945 293.906 321.042 293.947C322.286 294.487 327.176 291.719 330.252 289.588C330.329 289.536 330.419 289.508 330.512 289.508C330.605 289.508 330.696 289.536 330.773 289.588C332.383 290.552 346.501 299.232 345.894 303.629C345.759 304.593 344.929 305.326 343.56 305.712C342.427 306.009 341.259 306.151 340.088 306.136ZM321.823 294.911L322.72 296.271C324.237 298.56 326.289 300.443 328.699 301.758C332.634 303.88 338.343 306.127 343.338 304.757C344.843 304.333 344.939 303.677 344.968 303.465C345.402 300.312 334.968 293.224 330.57 290.543C329.037 291.565 324.427 294.603 321.823 294.911Z" fill="#2E353A"/>
<path d="M323.328 295.393C325.671 298.938 329.221 301.511 333.318 302.636C340.31 304.632 342.316 304.13 343.811 302.134" fill="white"/>
<path d="M339.992 304.391C337.679 304.26 335.393 303.826 333.193 303.099C328.966 301.957 325.307 299.3 322.913 295.634C322.88 295.58 322.859 295.52 322.85 295.457C322.841 295.395 322.845 295.331 322.861 295.27C322.877 295.209 322.905 295.151 322.944 295.101C322.983 295.051 323.031 295.01 323.086 294.979C323.198 294.915 323.33 294.897 323.455 294.93C323.579 294.962 323.686 295.042 323.752 295.152C326.044 298.575 329.485 301.065 333.453 302.173C340.271 304.102 342.133 303.619 343.425 301.845C343.503 301.745 343.617 301.679 343.743 301.661C343.869 301.643 343.997 301.674 344.1 301.749C344.202 301.825 344.27 301.939 344.288 302.066C344.306 302.193 344.273 302.321 344.196 302.424C343.724 303.086 343.089 303.614 342.352 303.959C341.616 304.304 340.803 304.452 339.992 304.391Z" fill="#2E353A"/>
<path d="M310.839 290.899C310.839 290.899 318.554 296.425 322.324 296.531L310.839 290.899Z" fill="white"/>
<path d="M322.286 297.014C318.429 296.907 310.858 291.517 310.54 291.295C310.438 291.218 310.37 291.105 310.351 290.979C310.331 290.853 310.361 290.724 310.434 290.62C310.47 290.568 310.515 290.524 310.568 290.49C310.621 290.456 310.68 290.433 310.742 290.422C310.804 290.411 310.868 290.413 310.929 290.427C310.991 290.441 311.048 290.467 311.099 290.504C311.177 290.562 318.747 295.953 322.315 296.049C322.444 296.054 322.565 296.11 322.654 296.203C322.742 296.297 322.79 296.422 322.788 296.551C322.785 296.614 322.77 296.676 322.744 296.734C322.717 296.791 322.679 296.843 322.633 296.886C322.586 296.929 322.532 296.962 322.472 296.984C322.413 297.006 322.349 297.016 322.286 297.014Z" fill="#2E353A"/>
<path d="M294.088 140.767C294.088 140.767 300.935 152.118 302.401 154.751C303.867 157.383 322.344 178.513 329.673 196.7C337.002 214.888 344.052 231.302 343.753 236.586C343.454 241.871 319.393 286.444 319.393 286.444L314.407 283.811C314.407 283.811 322.026 241.861 321.158 237.464C320.29 233.067 293.355 189.362 293.355 189.362C293.355 189.362 280.741 180.567 275.466 170.296" fill="#2E353A"/>
<path d="M295.062 169.129C295.062 169.129 291.253 177.336 291.253 178.513C291.253 179.689 312.662 242.749 318.824 257.118C322.725 266.322 326.15 275.721 329.085 285.277C329.085 285.277 331.438 288.17 329.673 291.141C327.909 294.111 320.878 296.126 319.413 293.484C317.947 290.842 303.568 277.09 297.415 263.28C291.263 249.47 282.458 226.027 277.463 217.232C270.882 205.971 265.008 194.311 259.873 182.322C253.412 167.075 246.767 150.546 246.767 150.546C255.476 151.274 264.242 150.291 272.573 147.653C286.075 143.256 291.861 134.837 291.861 134.837C291.861 134.837 295.294 143.612 296.171 145.31" fill="#2E353A"/>
<path d="M297.078 193.894C297.011 193.893 296.946 193.873 296.891 193.835C296.836 193.797 296.794 193.744 296.769 193.682L290.019 176.131C289.995 176.066 289.992 175.995 290.009 175.928C290.027 175.861 290.063 175.801 290.115 175.755L297.676 169.274C297.74 169.214 297.824 169.181 297.912 169.181C298 169.181 298.084 169.214 298.148 169.274C298.207 169.337 298.24 169.419 298.24 169.506C298.24 169.592 298.207 169.674 298.148 169.737L290.761 176.073L297.425 193.431C297.457 193.513 297.456 193.605 297.422 193.686C297.387 193.767 297.323 193.831 297.242 193.865L297.078 193.894Z" fill="white"/>
<path d="M290.318 176.333C290.235 176.334 290.156 176.303 290.096 176.246C290.063 176.215 290.036 176.178 290.018 176.137C289.999 176.095 289.99 176.05 289.99 176.005C289.99 175.957 289.99 170.663 287.617 167.326C287.029 166.468 286.557 165.792 286.161 165.243C284.927 163.488 284.551 162.957 284.329 162.08C284.176 161.053 284.176 160.01 284.329 158.984C284.345 158.899 284.393 158.823 284.463 158.771C284.532 158.719 284.619 158.696 284.705 158.704C284.748 158.71 284.79 158.725 284.828 158.747C284.865 158.769 284.898 158.799 284.924 158.834C284.95 158.869 284.969 158.909 284.979 158.951C284.99 158.993 284.992 159.037 284.985 159.081C284.849 160.024 284.849 160.982 284.985 161.925C285.178 162.678 285.506 163.14 286.721 164.867C287.106 165.416 287.589 166.091 288.177 166.95C290.318 170.026 290.617 174.443 290.665 175.706L304.369 175.176C304.456 175.175 304.54 175.208 304.604 175.267C304.669 175.326 304.708 175.407 304.716 175.494C304.718 175.537 304.712 175.581 304.697 175.622C304.682 175.663 304.659 175.7 304.63 175.732C304.6 175.763 304.564 175.788 304.524 175.806C304.484 175.823 304.441 175.832 304.397 175.831L290.356 176.372L290.318 176.333Z" fill="white"/>
<path d="M336.24 238.766C330.136 238.766 322.383 234.812 322.035 234.638C321.959 234.598 321.901 234.528 321.876 234.445C321.851 234.361 321.859 234.272 321.9 234.195C321.92 234.156 321.947 234.121 321.98 234.093C322.013 234.065 322.051 234.043 322.092 234.03C322.133 234.016 322.177 234.011 322.22 234.015C322.263 234.018 322.305 234.03 322.344 234.05C322.431 234.098 331.245 238.592 337.282 238.062C337.326 238.058 337.37 238.063 337.412 238.076C337.454 238.09 337.493 238.112 337.526 238.141C337.559 238.169 337.586 238.205 337.606 238.244C337.625 238.284 337.636 238.327 337.639 238.371C337.643 238.414 337.638 238.457 337.625 238.498C337.612 238.54 337.591 238.578 337.564 238.611C337.536 238.644 337.502 238.672 337.463 238.692C337.425 238.712 337.383 238.724 337.34 238.727C336.983 238.756 336.617 238.766 336.24 238.766Z" fill="white"/>
<path d="M335.421 243.858H335.344C329.934 242.498 323.858 237.522 323.598 237.31C323.539 237.247 323.506 237.165 323.506 237.079C323.506 236.993 323.539 236.91 323.598 236.847C323.625 236.813 323.658 236.785 323.696 236.765C323.734 236.744 323.776 236.731 323.819 236.727C323.862 236.722 323.906 236.726 323.947 236.739C323.989 236.751 324.027 236.771 324.061 236.799C324.118 236.847 330.281 241.9 335.546 243.212C335.588 243.223 335.627 243.242 335.662 243.269C335.696 243.295 335.725 243.328 335.747 243.366C335.768 243.404 335.782 243.445 335.787 243.488C335.793 243.531 335.789 243.575 335.778 243.617C335.759 243.695 335.712 243.762 335.646 243.807C335.58 243.852 335.5 243.87 335.421 243.858Z" fill="white"/>
<path d="M290.047 171.203C289.995 171.203 289.943 171.191 289.896 171.167C289.849 171.144 289.809 171.11 289.777 171.068C289.752 171.032 289.734 170.991 289.725 170.948C289.715 170.905 289.715 170.861 289.723 170.818C289.731 170.775 289.747 170.734 289.772 170.697C289.796 170.66 289.827 170.629 289.864 170.605C291.166 169.698 293.23 167.953 293.23 167.095C293.23 166.526 292.526 165.851 291.773 165.166C290.941 164.471 290.253 163.619 289.748 162.658C289.257 161.511 287.492 157.007 287.82 155.908C287.833 155.867 287.854 155.828 287.882 155.795C287.91 155.762 287.944 155.735 287.983 155.715C288.021 155.696 288.063 155.684 288.107 155.68C288.15 155.677 288.193 155.682 288.234 155.696C288.318 155.724 288.388 155.785 288.427 155.864C288.467 155.944 288.474 156.036 288.446 156.12C288.244 156.708 289.295 159.978 290.327 162.369C290.799 163.241 291.434 164.014 292.198 164.645C293.095 165.503 293.866 166.236 293.866 167.085C293.866 168.57 290.587 170.875 290.211 171.135C290.163 171.172 290.107 171.195 290.047 171.203Z" fill="white"/>
<path d="M257.915 173.093C257.845 173.096 257.776 173.076 257.719 173.037C257.661 172.998 257.617 172.942 257.593 172.877C257.57 172.811 257.567 172.74 257.587 172.673C257.607 172.606 257.647 172.547 257.703 172.505L260.403 170.344C262.997 168.281 264.598 163.006 264.617 162.948C264.644 162.864 264.702 162.794 264.78 162.753C264.857 162.711 264.947 162.702 265.032 162.726C265.115 162.753 265.185 162.811 265.227 162.888C265.268 162.966 265.278 163.056 265.254 163.141C265.186 163.362 263.566 168.666 260.818 170.856L258.117 173.016C258.061 173.064 257.989 173.092 257.915 173.093Z" fill="white"/>
<path d="M322.026 294.795C321.977 294.794 321.93 294.782 321.887 294.76C321.843 294.738 321.805 294.708 321.775 294.67C318.323 290.437 315.205 285.943 312.45 281.227C308.717 274.553 297.984 256.298 297.868 256.153C296.874 253.957 296.137 251.653 295.67 249.287C295.602 248.921 295.554 248.583 295.506 248.323C295.149 245.892 294.995 244.89 291.764 242.807C288.533 240.723 288.331 237.097 288.061 233.211C288.003 232.295 287.935 231.35 287.829 230.414C287.395 226.557 277.154 209.198 269.68 196.585C267.983 193.692 266.44 191.107 265.186 188.956C258.493 177.442 253.865 162.301 253.816 162.147C253.792 162.063 253.802 161.972 253.843 161.895C253.885 161.817 253.954 161.759 254.038 161.733C254.079 161.719 254.123 161.715 254.166 161.719C254.209 161.723 254.25 161.736 254.288 161.756C254.326 161.777 254.359 161.805 254.386 161.839C254.413 161.873 254.432 161.913 254.443 161.954C254.491 162.109 259.101 177.182 265.755 188.619C267.009 190.769 268.552 193.383 270.249 196.247C277.761 208.928 288.042 226.306 288.485 230.337C288.591 231.302 288.659 232.266 288.726 233.173C288.987 237.03 289.208 240.386 292.121 242.257C295.602 244.494 295.776 245.661 296.161 248.217C296.161 248.535 296.258 248.863 296.316 249.229C296.774 251.525 297.492 253.76 298.457 255.893C298.543 256.057 309.286 274.312 313.028 280.966C315.766 285.644 318.861 290.103 322.286 294.303C322.313 294.337 322.334 294.376 322.346 294.417C322.359 294.458 322.363 294.502 322.358 294.545C322.354 294.588 322.341 294.63 322.32 294.668C322.3 294.706 322.272 294.739 322.238 294.766C322.172 294.799 322.098 294.809 322.026 294.795Z" fill="white"/>
<path d="M246.767 150.546C246.767 150.546 247.384 157.374 250.085 159.534C252.785 161.694 260.885 163.584 271.956 161.463C283.027 159.341 295.178 149.89 296.258 146.611C297.338 143.333 291.841 134.846 291.841 134.846C291.841 134.846 285.457 143.911 267.636 146.881C249.814 149.852 246.767 150.546 246.767 150.546Z" fill="white"/>
<path d="M262.573 162.861C256.044 162.861 251.569 161.347 249.776 159.91C246.95 157.644 246.314 150.884 246.285 150.594C246.274 150.479 246.306 150.365 246.373 150.271C246.44 150.177 246.539 150.11 246.651 150.083C246.776 150.083 249.92 149.302 267.558 146.361C284.917 143.468 291.378 134.615 291.446 134.528C291.491 134.466 291.551 134.415 291.619 134.38C291.688 134.344 291.764 134.326 291.841 134.326C291.92 134.327 291.998 134.348 292.066 134.387C292.135 134.426 292.194 134.481 292.236 134.547C292.815 135.435 297.83 143.362 296.711 146.727C295.525 150.276 283.094 159.737 272.043 161.897C268.924 162.521 265.753 162.844 262.573 162.861ZM247.297 150.932C247.48 152.417 248.262 157.451 250.383 159.158C252.794 161.087 260.519 163.17 271.859 160.952C283.008 158.772 294.84 149.312 295.805 146.419C296.566 144.123 293.452 138.328 291.793 135.647C290.076 137.701 283.191 144.741 267.684 147.316C253.392 149.707 248.589 150.614 247.297 150.932Z" fill="#2E353A"/>
<path d="M317.946 84.3619C313.539 81.4688 279.227 54.7367 275.996 53.5601C272.766 52.3836 266.353 53.5601 266.353 53.5601C266.353 53.5601 246.468 55.9903 242.302 57.6683C241.906 57.8226 232.947 62.9723 232.658 63.2423C229.427 65.8847 215.299 72.3845 211.5 80.6009C207.189 89.8973 245.069 145.869 246.834 150.556C248.599 155.243 257.847 156.4 266.353 155.223C274.858 154.047 282.323 152.33 288.485 145.281C289.602 143.877 290.538 142.338 291.272 140.7C292.152 138.87 292.377 136.793 291.908 134.817C289.71 125.656 284.097 99.242 280.394 81.7774C286.566 85.7602 299.401 93.8512 306.866 96.7057C316.837 100.563 324.465 97.8822 324.465 94.6516C324.465 91.421 322.344 87.2935 317.946 84.3619Z" fill="white"/>
<path d="M306.036 90.061C300.157 89.4808 294.463 87.6845 289.314 84.786C289.314 84.786 296.943 81.266 297.232 79.5013C297.521 77.7365 286.672 79.212 288.138 78.6237C289.604 78.0354 291.658 76.5696 288.138 76.5696C285.332 76.385 282.567 75.7938 279.931 74.8145L280.327 81.7482C283.683 83.918 289.006 87.2837 294.348 90.3696C299.373 93.0115 304.548 95.3589 309.846 97.3998C309.846 97.3998 316.297 91.2376 306.036 90.061Z" fill="#FFA401"/>
<g style="mix-blend-mode:multiply">
<path d="M266.286 155.213L267.375 155.059C269.728 153.921 273.711 153.208 277.588 152.243C283.451 150.777 277 150.777 267.317 145.792C257.635 140.806 253.816 133.477 245.021 122.917C236.226 112.357 232.707 107.072 234.471 105.906C236.236 104.739 230.951 104.729 228.897 103.553C226.843 102.376 231.79 102.386 235.937 98.2775C240.084 94.1693 228.01 99.1551 226.843 98.8657C225.676 98.5764 228.01 94.7576 228.01 94.7576L219.504 103.553L240.036 138.752L241.212 139.629L242.562 141.558L246.42 149.852C246.574 150.141 246.68 150.382 246.748 150.546C248.522 155.242 257.78 156.4 266.286 155.213Z" fill="#FFA401"/>
</g>
<path d="M227.402 73.2044C233.893 72.24 251.984 82.5587 251.984 82.5587C242.041 75.8082 233.343 69.482 227.393 66.6274L216.428 74.3423L215.676 75.0463C216.949 74.7956 221.828 73.9952 227.402 73.2044Z" fill="#FFA401"/>
<path opacity="0.5" d="M306.036 90.061C300.157 89.4808 294.463 87.6845 289.314 84.786C289.314 84.786 296.943 81.266 297.232 79.5013C297.521 77.7365 286.672 79.212 288.138 78.6237C289.604 78.0354 291.658 76.5696 288.138 76.5696C285.332 76.385 282.567 75.7938 279.931 74.8145L280.327 81.7482C283.683 83.918 289.006 87.2837 294.348 90.3696C299.373 93.0115 304.548 95.3589 309.846 97.3998C309.846 97.3998 316.297 91.2376 306.036 90.061Z" fill="white"/>
<path opacity="0.5" d="M266.286 155.213L267.375 155.059C269.728 153.921 273.711 153.208 277.588 152.243C283.451 150.777 277 150.777 267.317 145.792C257.635 140.806 253.816 133.477 245.021 122.917C236.226 112.357 232.707 107.072 234.471 105.906C236.236 104.739 230.951 104.729 228.897 103.553C226.843 102.376 231.79 102.386 235.937 98.2775C240.084 94.1693 228.01 99.1551 226.843 98.8657C225.676 98.5764 228.01 94.7576 228.01 94.7576L219.504 103.553L240.036 138.752L241.212 139.629L242.562 141.558L246.42 149.852C246.574 150.141 246.68 150.382 246.748 150.546C248.522 155.242 257.78 156.4 266.286 155.213Z" fill="white"/>
<path opacity="0.5" d="M227.402 73.2044C233.893 72.24 251.984 82.5587 251.984 82.5587C242.041 75.8082 233.343 69.482 227.393 66.6274L216.428 74.3423L215.676 75.0463C216.949 74.7956 221.828 73.9952 227.402 73.2044Z" fill="white"/>
<path d="M260.114 156.13C253.614 156.13 247.76 154.577 246.314 150.72C245.889 149.582 243.035 144.934 239.418 139.09C224.056 114.17 207.922 87.0139 210.999 80.3887C213.892 74.1397 222.446 68.9803 228.106 65.5665C229.549 64.747 230.943 63.8454 232.282 62.8663C232.629 62.5866 241.607 57.4176 242.09 57.2248C246.275 55.5371 265.447 53.1841 266.266 53.0876C266.507 53.0394 272.853 51.9015 276.161 53.0876C278.301 53.8688 292.969 64.9686 304.754 73.8889C311.138 78.7108 316.645 82.8961 318.207 83.9376C323.125 87.2164 324.88 91.5946 324.88 94.6035C324.845 95.1619 324.671 95.7028 324.375 96.1776C324.079 96.6523 323.669 97.0459 323.183 97.323C320.338 99.2517 314.118 99.975 306.625 97.1108C301.388 95.1049 292.555 90.1577 281.04 82.7611C284.898 101.132 290.192 125.878 292.304 134.673C292.801 136.758 292.566 138.951 291.639 140.883C290.885 142.566 289.912 144.142 288.746 145.57C282.304 152.928 274.463 154.548 266.324 155.667C264.267 155.963 262.192 156.118 260.114 156.13ZM272.072 53.5216C270.175 53.5502 268.282 53.7211 266.411 54.0327C266.179 54.0327 246.516 56.4725 242.446 58.112C241.916 58.3531 233.324 63.3002 232.89 63.6185C231.517 64.6275 230.084 65.5518 228.598 66.3862C223.043 69.7422 214.654 74.8147 211.876 80.8516C208.752 87.6022 229.235 120.786 240.238 138.636C244.163 145.001 246.757 149.244 247.22 150.43C248.927 154.982 258.262 155.879 266.218 154.78C274.174 153.68 281.831 152.108 288.051 145.001C289.145 143.631 290.058 142.128 290.771 140.526C291.599 138.798 291.811 136.837 291.369 134.972C289.208 125.984 283.769 100.38 279.854 81.9317C279.835 81.8375 279.844 81.7398 279.88 81.6507C279.916 81.5615 279.978 81.4849 280.057 81.4303C280.135 81.3784 280.228 81.3508 280.322 81.3508C280.416 81.3508 280.508 81.3784 280.587 81.4303C292.526 89.1452 301.649 94.2852 306.972 96.3104C314.089 99.0395 320.087 98.3934 322.633 96.6383C322.984 96.4405 323.283 96.1627 323.506 95.8275C323.728 95.4924 323.869 95.1093 323.916 94.7095C323.916 91.9515 322.276 87.9108 317.676 84.8441C316.085 83.7833 310.569 79.6076 304.175 74.7665C293.056 66.3573 277.839 54.8331 275.833 54.1002C274.619 53.7035 273.349 53.5081 272.072 53.5216Z" fill="#2E353A"/>
<path d="M216.148 74.5929C216.148 74.5929 212.628 78.4504 211.259 80.2344C203.91 89.6755 180.525 119.928 180.264 122.367C180.004 124.807 181.113 126.447 186.832 128.645C192.55 130.844 230.806 92.5108 230.806 92.5108" fill="white"/>
<g style="mix-blend-mode:multiply" opacity="0.8">
<path d="M216.206 74.7086L215.714 75.0269C215.001 75.8176 213.458 77.5438 212.262 78.9615L194.498 102.26C194.498 102.26 193.949 102.878 193.081 103.9C186.417 112.782 180.611 120.796 180.255 122.223C180.255 122.271 180.255 122.319 180.255 122.358C180.023 124.663 181.142 126.418 186.831 128.607C187.844 128.993 189.85 128.125 192.483 126.437C191.145 126.168 189.867 125.658 188.712 124.933C185.481 122.879 188.124 120.824 188.124 120.824C188.124 120.824 192.319 122.502 196.456 123.631C197.314 122.985 198.211 122.29 199.127 121.557C198.246 120.98 197.411 120.335 196.629 119.629C193.11 116.408 190.178 113.177 190.178 113.177L217.064 75.6537L216.206 74.7086Z" fill="#FFA401"/>
</g>
<path opacity="0.5" d="M216.206 74.7086L215.714 75.0269C215.001 75.8176 213.458 77.5438 212.262 78.9615L194.498 102.26C194.498 102.26 193.949 102.878 193.081 103.9C186.417 112.782 180.611 120.796 180.255 122.223C180.255 122.271 180.255 122.319 180.255 122.358C180.023 124.663 181.142 126.418 186.831 128.607C187.844 128.993 189.85 128.125 192.483 126.437C191.145 126.168 189.867 125.658 188.712 124.933C185.481 122.879 188.124 120.824 188.124 120.824C188.124 120.824 192.319 122.502 196.456 123.631C197.314 122.985 198.211 122.29 199.127 121.557C198.246 120.98 197.411 120.335 196.629 119.629C193.11 116.408 190.178 113.177 190.178 113.177L217.064 75.6537L216.206 74.7086Z" fill="white"/>
<path d="M187.275 129.205C187.058 129.207 186.843 129.172 186.639 129.099C181.315 127.045 179.445 125.241 179.763 122.348C180.023 119.947 199.359 94.7675 210.854 79.9741C212.223 78.219 215.627 74.4676 215.772 74.3133C215.813 74.2621 215.864 74.2198 215.922 74.189C215.981 74.1583 216.044 74.1398 216.11 74.1346C216.175 74.1294 216.241 74.1376 216.303 74.1588C216.366 74.18 216.423 74.2137 216.472 74.2578C216.52 74.3019 216.56 74.3555 216.587 74.4153C216.614 74.4751 216.629 74.5399 216.63 74.6056C216.631 74.6713 216.619 74.7366 216.594 74.7974C216.57 74.8583 216.533 74.9134 216.486 74.9594C216.486 74.9594 212.956 78.8169 211.616 80.572C193.042 104.469 180.91 120.911 180.756 122.454C180.534 124.508 181.489 126.109 187.024 128.24C191.007 129.774 215.193 107.526 230.479 92.2022C230.569 92.1115 230.693 92.0605 230.821 92.0605C230.949 92.0605 231.072 92.1115 231.163 92.2022C231.254 92.293 231.305 92.4162 231.305 92.5446C231.305 92.673 231.254 92.7962 231.163 92.8869C227.335 96.6673 194.662 129.205 187.275 129.205Z" fill="#2E353A"/>
<path d="M293.558 72.8378L280.327 81.7485C282.255 81.4785 291.398 78.2382 291.398 78.2382" fill="white"/>
<path d="M280.327 82.2306C280.23 82.2321 280.135 82.2031 280.055 82.1478C279.976 82.0924 279.915 82.0135 279.883 81.922C279.843 81.8217 279.838 81.7104 279.869 81.6068C279.901 81.5032 279.967 81.4136 280.057 81.3531L293.297 72.4424C293.349 72.4061 293.408 72.3805 293.469 72.3671C293.531 72.3538 293.595 72.3529 293.657 72.3646C293.719 72.3763 293.778 72.4003 293.83 72.4352C293.883 72.4701 293.928 72.5151 293.963 72.5677C294.033 72.6755 294.058 72.8066 294.033 72.9328C294.008 73.059 293.934 73.1703 293.828 73.2428L282.979 80.5526C286.306 79.5304 291.176 77.8138 291.243 77.7849C291.371 77.7427 291.511 77.7531 291.631 77.8136C291.751 77.8742 291.842 77.9801 291.885 78.108C291.927 78.2359 291.917 78.3753 291.856 78.4955C291.795 78.6158 291.69 78.7071 291.562 78.7493C291.186 78.8746 282.313 82.0088 280.394 82.2788L280.327 82.2306Z" fill="#2E353A"/>
<path d="M293.018 78.4504C292.906 78.4482 292.798 78.4078 292.712 78.3359C292.626 78.264 292.567 78.1649 292.545 78.055C292.523 77.9298 292.551 77.8006 292.623 77.6959C292.695 77.5911 292.806 77.5191 292.931 77.4957L295.901 76.9556C296.028 76.9329 296.158 76.9605 296.264 77.0326C296.371 77.1047 296.445 77.2155 296.47 77.3414C296.483 77.4048 296.482 77.4701 296.469 77.5334C296.456 77.5966 296.43 77.6566 296.393 77.7097C296.356 77.7627 296.309 77.8078 296.254 77.8423C296.2 77.8768 296.139 77.9 296.075 77.9104L293.105 78.4504H293.018Z" fill="#2E353A"/>
<path d="M194.99 113.004C192.948 112.943 190.918 113.328 189.04 114.132L194.99 113.004Z" fill="white"/>
<path d="M189.04 114.643C188.912 114.667 188.78 114.64 188.672 114.566C188.565 114.493 188.49 114.38 188.466 114.252C188.442 114.124 188.469 113.992 188.543 113.885C188.616 113.777 188.729 113.703 188.857 113.679C190.804 112.842 192.911 112.444 195.029 112.512C195.092 112.517 195.154 112.534 195.21 112.563C195.267 112.592 195.318 112.631 195.359 112.68C195.4 112.728 195.431 112.784 195.451 112.845C195.47 112.905 195.478 112.969 195.472 113.032C195.46 113.159 195.399 113.277 195.302 113.36C195.204 113.442 195.079 113.484 194.951 113.476C192.989 113.419 191.037 113.791 189.233 114.566C189.175 114.606 189.109 114.632 189.04 114.643Z" fill="#2E353A"/>
<path d="M223.825 99.782C223.825 99.782 231.26 97.5061 233.227 95.9921L223.825 99.782Z" fill="white"/>
<path d="M223.824 100.264C223.697 100.282 223.567 100.249 223.464 100.171C223.361 100.093 223.293 99.9775 223.275 99.8496C223.257 99.7218 223.29 99.592 223.368 99.4889C223.446 99.3858 223.562 99.3178 223.689 99.2999C223.757 99.2999 231.057 97.0433 232.938 95.5968C233.039 95.519 233.167 95.4845 233.293 95.5008C233.42 95.517 233.535 95.5828 233.613 95.6836C233.688 95.7856 233.721 95.9128 233.705 96.0386C233.689 96.1643 233.625 96.279 233.526 96.3587C231.501 97.9113 224.278 100.129 223.969 100.216C223.925 100.242 223.875 100.258 223.824 100.264Z" fill="#2E353A"/>
<path d="M235.05 95.2398C235.05 95.2398 236.265 94.179 236.718 94.179L235.05 95.2398Z" fill="white"/>
<path d="M235.05 95.7219C234.981 95.7213 234.913 95.7065 234.85 95.6782C234.787 95.65 234.73 95.6091 234.684 95.558C234.595 95.4662 234.545 95.3435 234.545 95.2156C234.545 95.0878 234.595 94.9651 234.684 94.8733C235.229 94.3108 235.915 93.9046 236.67 93.6968C236.798 93.6968 236.921 93.7476 237.011 93.838C237.102 93.9284 237.152 94.0511 237.152 94.179C237.15 94.3061 237.098 94.4273 237.008 94.5172C236.919 94.6071 236.797 94.6587 236.67 94.6611C236.173 94.9115 235.718 95.2368 235.32 95.6255C235.243 95.6854 235.148 95.7192 235.05 95.7219Z" fill="#2E353A"/>
<path d="M280.327 82.2305C280.207 82.229 280.093 82.1842 280.004 82.1043C279.915 82.0245 279.859 81.9151 279.845 81.7966L278.639 69.4045C278.633 69.3412 278.639 69.2772 278.657 69.2163C278.676 69.1554 278.706 69.0987 278.746 69.0494C278.787 69.0002 278.836 68.9593 278.892 68.9293C278.948 68.8992 279.01 68.8804 279.073 68.8741C279.136 68.8678 279.2 68.874 279.261 68.8924C279.322 68.9107 279.379 68.9409 279.428 68.9812C279.477 69.0215 279.518 69.0711 279.548 69.1272C279.578 69.1833 279.597 69.2447 279.603 69.3081L280.819 81.7098C280.825 81.7726 280.819 81.8362 280.801 81.8967C280.782 81.9571 280.752 82.0133 280.712 82.0619C280.671 82.1104 280.621 82.1504 280.565 82.1793C280.509 82.2083 280.448 82.2257 280.385 82.2305H280.327Z" fill="#2E353A"/>
<path d="M180.235 122.493C180.235 122.493 178.528 129.022 189.474 131.731C194.672 133.014 229.07 141.375 229.07 141.375C229.07 141.375 232.147 134.779 230.392 134.779C228.637 134.779 196.919 113.688 196.919 113.688" fill="white"/>
<path d="M185.347 130.295L225.233 140.478L226.293 137.952C226.293 137.952 211.269 134.943 201.885 130.237C192.502 125.531 191.904 127.006 188.683 124.962C185.462 122.917 188.095 120.853 188.095 120.853C188.095 120.853 196.9 124.373 201.596 124.663C206.293 124.952 200.13 122.908 196.61 119.677C195.154 118.346 193.804 117.006 192.753 115.906L180.216 122.483C180.216 122.483 179.001 127.218 185.347 130.295Z" fill="#FFA401"/>
<path opacity="0.5" d="M185.347 130.295L225.233 140.478L226.293 137.952C226.293 137.952 211.269 134.943 201.885 130.237C192.502 125.531 191.904 127.006 188.683 124.962C185.462 122.917 188.095 120.853 188.095 120.853C188.095 120.853 196.9 124.373 201.596 124.663C206.293 124.952 200.13 122.908 196.61 119.677C195.154 118.346 193.804 117.006 192.753 115.906L180.216 122.483C180.216 122.483 179.001 127.218 185.347 130.295Z" fill="white"/>
<path d="M229.071 141.934H228.955C228.955 141.934 194.556 133.535 189.358 132.291C185.018 131.22 182.077 129.398 180.621 126.977C179.773 125.636 179.469 124.021 179.772 122.464C179.806 122.341 179.887 122.236 179.996 122.172C180.106 122.107 180.237 122.087 180.361 122.117C180.483 122.151 180.587 122.231 180.65 122.341C180.713 122.452 180.731 122.582 180.698 122.705C180.48 124.023 180.754 125.376 181.47 126.505C182.791 128.723 185.53 130.362 189.59 131.326C194.411 132.532 225.001 140.006 228.801 140.912C229.987 138.289 230.729 135.743 230.392 135.348C228.559 135.348 201.991 117.7 196.687 114.132C196.581 114.059 196.507 113.948 196.482 113.822C196.457 113.696 196.482 113.565 196.552 113.457C196.587 113.404 196.632 113.359 196.685 113.324C196.737 113.289 196.796 113.265 196.858 113.254C196.92 113.242 196.984 113.243 197.046 113.256C197.108 113.27 197.166 113.295 197.218 113.331C209.706 121.654 228.858 134.123 230.411 134.364C230.568 134.367 230.722 134.407 230.86 134.483C230.998 134.559 231.115 134.667 231.202 134.798C232.002 136.061 230.102 140.362 229.495 141.655C229.457 141.736 229.398 141.806 229.323 141.855C229.248 141.904 229.16 141.932 229.071 141.934Z" fill="#2E353A"/>
<path d="M230.392 134.808C230.392 134.808 241.685 140.092 242.562 141.558C243.44 143.024 245.455 150.643 245.455 152.996C245.455 155.349 245.166 155.339 243.7 155.339C242.234 155.339 238.415 149.765 237.538 148.588C236.66 147.412 234.645 147.412 231.964 145.695C231.217 145.221 230.575 144.6 230.077 143.868C229.58 143.137 229.237 142.311 229.071 141.443L230.392 134.808Z" fill="white"/>
<path d="M243.739 155.821C242.475 155.821 240.392 153.304 237.654 149.524C237.461 149.254 237.306 149.032 237.191 148.887C236.64 148.339 235.949 147.953 235.194 147.769C233.978 147.336 232.816 146.763 231.732 146.062C230.921 145.551 230.223 144.88 229.682 144.088C229.142 143.297 228.769 142.403 228.589 141.462C228.584 141.414 228.584 141.365 228.589 141.317L229.91 134.711C229.925 134.64 229.955 134.573 229.998 134.515C230.041 134.456 230.097 134.408 230.16 134.374C230.226 134.34 230.299 134.323 230.373 134.323C230.446 134.323 230.519 134.34 230.585 134.374C232.514 135.261 242.061 139.793 242.967 141.307C243.874 142.821 245.966 150.575 245.966 152.995C245.966 155.416 245.523 155.821 243.739 155.821ZM229.563 141.423C229.734 142.214 230.063 142.963 230.528 143.625C230.993 144.288 231.587 144.85 232.272 145.28C233.296 145.939 234.393 146.477 235.542 146.881C236.47 147.123 237.31 147.625 237.962 148.328C238.078 148.473 238.242 148.694 238.435 148.974C241.964 153.854 243.256 154.876 243.739 154.876C245.012 154.876 245.012 154.876 245.012 153.015C245.012 150.739 243.006 143.246 242.119 141.818C241.559 140.854 235.05 137.575 230.71 135.521L229.563 141.423Z" fill="#2E353A"/>
<path d="M225.57 140.758C225.523 140.767 225.474 140.767 225.426 140.758C225.365 140.739 225.308 140.709 225.26 140.668C225.211 140.627 225.171 140.576 225.142 140.52C225.113 140.463 225.096 140.401 225.092 140.337C225.088 140.274 225.096 140.21 225.117 140.15L226.872 134.702C226.89 134.639 226.92 134.581 226.961 134.531C227.002 134.48 227.052 134.439 227.11 134.408C227.167 134.378 227.23 134.359 227.294 134.353C227.359 134.348 227.424 134.355 227.486 134.375C227.547 134.396 227.604 134.428 227.653 134.471C227.702 134.513 227.742 134.565 227.77 134.624C227.798 134.682 227.814 134.745 227.818 134.81C227.821 134.875 227.811 134.94 227.788 135L226.033 140.449C225.996 140.541 225.932 140.62 225.85 140.675C225.767 140.73 225.67 140.759 225.57 140.758Z" fill="#2E353A"/>
<path d="M311.196 93.7161C311.196 93.7161 308.303 103.688 307.088 109.551C305.873 115.414 297.705 138.887 297.705 138.887L304.744 143.284C304.744 143.284 320.29 111.075 323.251 104.015C326.211 96.9564 325.305 91.6909 322.373 88.7593" fill="white"/>
<path d="M304.744 143.795C304.655 143.793 304.569 143.767 304.494 143.718L297.454 139.321C297.36 139.263 297.289 139.175 297.253 139.072C297.216 138.968 297.215 138.855 297.251 138.752C297.329 138.52 305.468 115.25 306.615 109.493C307.763 103.736 310.714 93.716 310.714 93.6099C310.75 93.4821 310.835 93.3736 310.951 93.3085C311.066 93.2434 311.203 93.227 311.331 93.2628C311.459 93.2986 311.567 93.3837 311.632 93.4995C311.698 93.6152 311.714 93.7521 311.678 93.88C311.678 93.9764 308.737 103.9 307.58 109.676C306.48 115.183 299.392 135.608 298.303 138.713L304.561 142.619C306.49 138.559 320.097 110.303 322.797 103.823C325.401 97.5638 325.121 92.2502 322.026 89.0967C321.936 89.0072 321.886 88.8858 321.886 88.7592C321.886 88.6326 321.936 88.5112 322.026 88.4217C322.115 88.3321 322.237 88.2819 322.363 88.2819C322.49 88.2819 322.611 88.3321 322.701 88.4217C326.095 91.8066 326.452 97.5638 323.665 104.199C320.772 111.171 305.342 143.197 305.178 143.525C305.15 143.586 305.108 143.64 305.057 143.684C305.005 143.727 304.945 143.759 304.879 143.776L304.744 143.795Z" fill="#2E353A"/>
<path d="M299.035 135.531C299.566 135.531 306.249 139.215 306.249 139.215L299.035 135.531Z" fill="#2E353A"/>
<path d="M252.785 82.5585C251.165 82.2884 242.514 76.618 236.574 72.0276C230.633 67.4373 227.393 66.6272 227.393 66.6272L223.343 69.3274C222.73 67.3538 222.924 65.2177 223.883 63.3869C225.503 60.4167 231.173 57.4465 236.844 55.2863C242.514 53.1261 248.995 51.2842 253.055 51.2842C257.115 51.2842 258.185 52.9043 258.185 55.0645C258.185 57.2247 258.185 63.9752 256.835 69.1056C255.485 74.236 252.785 82.5585 252.785 82.5585Z" fill="white"/>
<g style="mix-blend-mode:multiply">
<path d="M250.239 54.3989C250.239 54.3989 247.741 61.8824 245.243 64.1294C243.315 65.7467 241.227 67.1651 239.014 68.3629C239.014 68.3629 237.519 63.1264 233.777 63.1264C230.035 63.1264 224.297 65.6241 224.297 65.6241C224.297 65.6241 224.297 63.6279 229.032 61.1302L233.777 58.6421L244.751 54.3989H250.239Z" fill="#FFA401"/>
</g>
<path opacity="0.5" d="M250.239 54.3989C250.239 54.3989 247.741 61.8824 245.243 64.1294C243.315 65.7467 241.227 67.1651 239.014 68.3629C239.014 68.3629 237.519 63.1264 233.777 63.1264C230.035 63.1264 224.297 65.6241 224.297 65.6241C224.297 65.6241 224.297 63.6279 229.032 61.1302L233.777 58.6421L244.751 54.3989H250.239Z" fill="white"/>
<path d="M252.785 83.0406H252.698C250.904 82.7417 242.022 76.8494 236.304 72.4327C231.337 68.5752 228.271 67.4276 227.489 67.1769L223.632 69.7517C223.569 69.7898 223.499 69.8146 223.426 69.8245C223.353 69.8345 223.279 69.8294 223.208 69.8096C223.138 69.7858 223.075 69.7464 223.024 69.6946C222.972 69.6428 222.933 69.5799 222.909 69.5106C222.578 68.4697 222.458 67.3733 222.556 66.2855C222.654 65.1977 222.967 64.1402 223.478 63.1748C225.406 59.5681 232.601 56.4242 236.699 54.8523C239.92 53.6276 247.963 50.7731 253.093 50.7731C256.864 50.7731 258.706 52.1618 258.706 55.0356C258.706 57.2536 258.706 64.0138 257.336 69.202C255.967 74.3903 253.305 82.6453 253.276 82.7031C253.246 82.8074 253.18 82.8978 253.091 82.9593C253.001 83.0208 252.893 83.0495 252.785 83.0406ZM227.393 66.145H227.509C227.644 66.145 230.923 67.0322 236.873 71.6322C242.456 75.9429 250.239 81.0734 252.466 81.9509C253.045 80.1379 255.215 73.2717 256.324 68.9127C257.664 63.8498 257.664 57.1861 257.664 54.997C257.664 53.3672 257.115 51.6989 253.016 51.6989C249.525 51.6989 243.681 53.1647 236.979 55.7203C230.276 58.2758 225.599 61.1593 224.268 63.5991C223.47 65.1146 223.231 66.8626 223.593 68.5366L227.084 66.2125C227.176 66.1553 227.285 66.1315 227.393 66.145Z" fill="#2E353A"/>
<path d="M228.743 48.285C231.906 51.774 234.127 56.0128 235.194 60.5999C236.949 68.228 247.982 77.1966 250.624 77.1966C253.266 77.1966 253.083 64.1199 252.206 60.3106C251.328 56.5014 247.808 46.2309 247.808 46.2309C247.808 46.2309 233.767 39.4804 228.743 48.285Z" fill="white"/>
<path d="M250.663 77.6788C247.828 77.6788 236.545 68.4596 234.76 60.7061C233.703 56.2098 231.527 52.0535 228.434 48.6226C228.36 48.5479 228.312 48.4508 228.298 48.3463C228.284 48.2418 228.305 48.1356 228.357 48.044C233.507 38.9597 247.905 45.7199 248.049 45.797C248.108 45.8245 248.16 45.8634 248.203 45.9114C248.246 45.9595 248.279 46.0157 248.3 46.0767C248.445 46.4914 251.839 56.405 252.717 60.2046C253.479 63.5413 253.836 74.5061 251.81 77.0617C251.68 77.2466 251.509 77.3987 251.31 77.5058C251.11 77.6129 250.889 77.6722 250.663 77.6788ZM229.379 48.2176C232.473 51.7208 234.644 55.9402 235.696 60.4939C237.451 68.0642 248.416 76.7145 250.663 76.7145C250.663 76.7145 250.846 76.7145 251.049 76.4541C252.688 74.4 252.582 63.9174 251.772 60.4168C250.962 56.9161 247.914 48.0247 247.451 46.5781C245.841 45.8645 233.931 40.8788 229.379 48.2176Z" fill="#2E353A"/>
<g style="mix-blend-mode:multiply">
<path d="M250.239 54.399C250.239 54.399 247.741 61.8825 245.243 64.1295C243.315 65.7468 241.227 67.1652 239.014 68.363C239.014 68.363 237.519 63.1265 233.777 63.1265C230.035 63.1265 224.297 65.6242 224.297 65.6242C224.297 65.6242 224.297 63.628 229.032 61.1303L233.777 58.6423L244.751 54.399H250.239Z" fill="#FFA401"/>
</g>
<path opacity="0.5" d="M250.239 54.399C250.239 54.399 247.741 61.8825 245.243 64.1295C243.315 65.7468 241.227 67.1652 239.014 68.363C239.014 68.363 237.519 63.1265 233.777 63.1265C230.035 63.1265 224.297 65.6242 224.297 65.6242C224.297 65.6242 224.297 63.628 229.032 61.1303L233.777 58.6423L244.751 54.399H250.239Z" fill="white"/>
<path d="M228.743 48.2851C231.907 51.7741 234.127 56.0129 235.195 60.6001C236.95 68.2282 247.982 77.1967 250.625 77.1967C253.267 77.1967 253.084 64.12 252.206 60.3107C251.329 56.5015 247.809 46.231 247.809 46.231C247.809 46.231 233.767 39.4805 228.743 48.2851Z" fill="white"/>
<path d="M250.663 77.679C247.828 77.679 236.545 68.4597 234.76 60.7062C233.703 56.2099 231.527 52.0536 228.434 48.6227C228.36 48.548 228.312 48.4509 228.298 48.3464C228.284 48.2419 228.305 48.1357 228.357 48.0441C233.507 38.9598 247.905 45.72 248.049 45.7971C248.108 45.8246 248.16 45.8635 248.203 45.9116C248.246 45.9596 248.279 46.0158 248.3 46.0768C248.445 46.4915 251.839 56.4051 252.717 60.2047C253.479 63.5414 253.836 74.5062 251.81 77.0618C251.68 77.2467 251.509 77.3988 251.31 77.5059C251.11 77.613 250.889 77.6723 250.663 77.679ZM229.379 48.2177C232.473 51.7209 234.644 55.9403 235.696 60.494C237.451 68.0643 248.416 76.7146 250.663 76.7146C250.663 76.7146 250.846 76.7146 251.049 76.4542C252.688 74.4001 252.582 63.9175 251.772 60.4169C250.962 56.9162 247.914 48.0248 247.451 46.5783C245.841 45.8646 233.931 40.8789 229.379 48.2177Z" fill="#2E353A"/>
<path d="M219.475 34.1477C221.544 39.7743 224.103 45.2084 227.123 50.3875C231.578 57.7071 240.18 61.8538 244.954 59.9444C249.727 58.0349 252.977 51.8727 251.704 42.3255C251.424 40.2232 249.592 39.3649 249.004 37.5037C246.892 30.7531 244.741 24.2437 243.999 21.7652C243.034 18.5732 235.397 15.3908 227.441 17.6185C219.485 19.8462 218.202 26.5003 219.475 34.1477Z" fill="white"/>
<path d="M245.908 28.3033C245.908 28.3033 243.015 30.4539 236.515 29.2098C230.016 27.9658 225.541 28.2455 225.792 29.9621C226.042 31.6786 226.544 33.9449 226.544 33.9449C226.544 33.9449 218.742 27.1943 225.811 25.4006C230.903 24.0794 233.844 26.0853 235.088 26.365C236.332 26.6446 245.908 28.3033 245.908 28.3033Z" fill="#FFA401"/>
<path opacity="0.5" d="M245.908 28.3033C245.908 28.3033 243.015 30.4539 236.515 29.2098C230.016 27.9658 225.541 28.2455 225.792 29.9621C226.042 31.6786 226.544 33.9449 226.544 33.9449C226.544 33.9449 218.742 27.1943 225.811 25.4006C230.903 24.0794 233.844 26.0853 235.088 26.365C236.332 26.6446 245.908 28.3033 245.908 28.3033Z" fill="white"/>
<path d="M242.292 60.9278C237.113 60.9278 230.372 56.6943 226.708 50.667C223.663 45.4581 221.081 39.9916 218.993 34.3307C218.987 34.3053 218.987 34.279 218.993 34.2535C217.402 24.7546 220.121 19.1516 227.296 17.1457C235.618 14.812 243.439 18.2451 244.452 21.6107C244.799 22.7776 245.416 24.8221 246.275 27.3969C247.239 30.29 248.329 33.7906 249.447 37.3781C249.727 38.0918 250.14 38.7462 250.663 39.3068C251.442 40.1255 251.965 41.1547 252.167 42.2674C253.594 52.9814 249.467 58.6616 245.127 60.3974C244.224 60.7534 243.262 60.9334 242.292 60.9278ZM219.948 34.0221C222.002 39.6031 224.538 44.9949 227.527 50.1366C232.012 57.4947 240.488 61.2075 244.78 59.4909C248.782 57.8901 252.582 52.5571 251.222 42.3831C251.045 41.4537 250.607 40.5939 249.959 39.9047C249.349 39.2365 248.88 38.4528 248.579 37.5999C247.461 34.0221 246.333 30.5118 245.407 27.6284C244.587 25.0824 243.931 23.0283 243.574 21.8422C242.764 19.1613 235.638 15.7763 227.605 17.9847C220.97 19.8942 218.472 25.121 219.948 34.0221Z" fill="#2E353A"/>
<path d="M225.213 44.6494C225.213 44.6494 220.112 42.4217 219.793 44.6494C219.475 46.8771 221.722 48.5068 223.931 49.4712C224.481 49.7724 225.109 49.903 225.734 49.8463C226.359 49.7897 226.953 49.5483 227.441 49.153" fill="white"/>
<path d="M225.541 50.32C224.923 50.3123 224.312 50.1777 223.748 49.9246C220.594 48.5745 219.022 46.694 219.321 44.6303C219.347 44.3944 219.429 44.1683 219.562 43.9716C219.695 43.775 219.874 43.6138 220.083 43.502C221.616 42.6437 225.021 44.0903 225.406 44.2638C225.515 44.3211 225.598 44.4175 225.637 44.5336C225.677 44.6497 225.671 44.7766 225.621 44.8885C225.571 45.0004 225.479 45.0889 225.366 45.1358C225.253 45.1828 225.126 45.1848 225.011 45.1414C223.738 44.5821 221.395 43.8781 220.546 44.341C220.469 44.3832 220.403 44.4442 220.356 44.5184C220.309 44.5926 220.281 44.6775 220.276 44.7653C219.967 46.9158 222.552 48.3624 224.133 49.0374C224.597 49.2954 225.127 49.4119 225.656 49.3725C226.186 49.3331 226.692 49.1395 227.113 48.8156C227.206 48.7372 227.325 48.6968 227.446 48.7023C227.568 48.7078 227.682 48.759 227.768 48.8455C227.853 48.932 227.902 49.0475 227.906 49.1689C227.91 49.2903 227.868 49.4086 227.788 49.5003C227.17 50.0476 226.367 50.3404 225.541 50.32Z" fill="#2E353A"/>
<path d="M246.034 32.0549C246.034 32.0549 240.354 30.7048 242.784 38.275C243.266 39.7698 246.574 41.5153 246.574 41.5153C246.574 41.5153 246.304 43.9455 244.954 44.2155" fill="white"/>
<path d="M244.944 44.6976C244.833 44.6958 244.727 44.6568 244.641 44.5868C244.555 44.5168 244.495 44.4199 244.472 44.3118C244.459 44.2491 244.459 44.1845 244.472 44.1218C244.484 44.0591 244.509 43.9995 244.545 43.9465C244.581 43.8936 244.627 43.8483 244.681 43.8133C244.734 43.7784 244.794 43.7544 244.857 43.7429C245.552 43.5982 245.908 42.4506 246.043 41.8141C245.156 41.3127 242.784 39.8854 242.331 38.4582C241.424 35.6422 241.501 33.6363 242.552 32.4984C243.845 31.1001 246.043 31.6112 246.14 31.6305C246.264 31.6602 246.371 31.7378 246.438 31.8462C246.504 31.9546 246.526 32.0851 246.497 32.2091C246.483 32.2711 246.457 32.3297 246.421 32.3814C246.384 32.4332 246.337 32.477 246.283 32.5103C246.229 32.5436 246.169 32.5657 246.106 32.5752C246.044 32.5848 245.98 32.5816 245.918 32.5659C245.918 32.5659 244.163 32.1705 243.256 33.1542C242.35 34.1378 242.466 35.7387 243.256 38.1592C243.565 39.1236 245.6 40.4833 246.805 41.1198C246.889 41.1676 246.957 41.2385 247.002 41.324C247.046 41.4095 247.065 41.506 247.056 41.602C247.056 41.8913 246.699 44.3986 245.05 44.7265L244.944 44.6976Z" fill="#2E353A"/>
<path d="M241.974 49.616C241.974 49.616 237.923 50.426 236.303 48.5359L241.974 49.616Z" fill="white"/>
<path d="M240.036 50.3198C239.291 50.3789 238.542 50.2825 237.836 50.0368C237.131 49.7911 236.484 49.4015 235.937 48.8926C235.896 48.8444 235.865 48.7887 235.845 48.7285C235.825 48.6682 235.818 48.6048 235.823 48.5416C235.828 48.4785 235.845 48.4169 235.874 48.3605C235.902 48.3041 235.942 48.2538 235.99 48.2127C236.038 48.1715 236.094 48.1402 236.154 48.1206C236.214 48.101 236.278 48.0935 236.341 48.0984C236.404 48.1033 236.466 48.1206 236.522 48.1493C236.579 48.178 236.629 48.2176 236.67 48.2657C238.088 49.9244 241.849 49.2301 241.887 49.2301C241.949 49.2161 242.012 49.2148 242.075 49.2264C242.137 49.238 242.196 49.2621 242.248 49.2973C242.3 49.3326 242.345 49.3781 242.379 49.4312C242.413 49.4844 242.436 49.5439 242.446 49.6062C242.459 49.6682 242.459 49.7322 242.447 49.7944C242.435 49.8565 242.411 49.9157 242.376 49.9686C242.341 50.0214 242.296 50.0669 242.244 50.1023C242.191 50.1377 242.132 50.1625 242.07 50.1752C241.398 50.2818 240.717 50.3302 240.036 50.3198Z" fill="#2E353A"/>
<path d="M236.033 36.9248C236.033 36.9248 233.063 35.8447 231.443 37.1948C230.576 37.7984 229.905 38.6434 229.514 39.625" fill="white"/>
<path d="M229.553 40.0975H229.437C229.376 40.0818 229.318 40.0541 229.267 40.016C229.217 39.9779 229.174 39.9301 229.142 39.8755C229.109 39.8208 229.088 39.7604 229.079 39.6975C229.071 39.6347 229.074 39.5707 229.09 39.5093C229.493 38.4342 230.205 37.5017 231.135 36.8284C232.948 35.3239 236.072 36.433 236.198 36.4812C236.258 36.5016 236.313 36.534 236.361 36.5765C236.408 36.6189 236.447 36.6705 236.474 36.7281C236.501 36.7858 236.516 36.8483 236.518 36.9119C236.52 36.9755 236.51 37.039 236.487 37.0984C236.443 37.2186 236.354 37.3165 236.238 37.3708C236.122 37.425 235.99 37.4311 235.87 37.3877C235.87 37.3877 233.141 36.4233 231.752 37.5709C230.987 38.1254 230.39 38.8794 230.026 39.7504C229.995 39.8513 229.932 39.9396 229.847 40.0021C229.762 40.0646 229.659 40.0981 229.553 40.0975Z" fill="#2E353A"/>
<path d="M235.956 41.5442C236.342 42.4411 236.265 43.3283 235.782 43.5308C235.3 43.7333 234.606 43.1836 234.22 42.2868C233.834 41.3899 233.921 40.5123 234.403 40.3002C234.886 40.088 235.58 40.6763 235.956 41.5442Z" fill="#2E353A"/>
<path d="M245.668 36.8188C246.053 37.706 245.967 38.5932 245.494 38.8054C245.022 39.0175 244.308 38.4486 243.932 37.5614C243.556 36.6742 243.623 35.7773 244.105 35.5748C244.588 35.3723 245.282 35.9316 245.668 36.8188Z" fill="#2E353A"/>
<path d="M223.796 45.9319C223.796 45.9319 227.017 43.5885 226.429 41.5344C225.84 39.4803 224.673 39.4803 225.85 38.3135C227.026 37.1466 227.894 36.5487 227.605 34.7935C227.316 33.0384 222.619 30.0971 224.085 28.342C225.551 26.5868 224.963 24.4845 236.988 27.4547C249.014 30.425 256.642 25.6996 253.122 21.3021C249.602 16.9046 246.67 16.3163 246.67 16.3163C246.67 16.3163 253.421 13.4233 247.847 10.4434C242.273 7.4635 229.659 7.55029 222.619 13.0857C215.579 18.6212 217.045 23.3176 217.045 23.3176C217.045 23.3176 213.236 23.9059 212.937 29.7788C212.638 35.6518 223.796 45.9319 223.796 45.9319Z" fill="#2E353A"/>
<path d="M242.986 26.2879C240.423 26.1803 237.899 25.6187 235.532 24.6292C233.677 23.8381 231.7 23.3685 229.688 23.2405C225.03 23.2405 224.066 25.8829 224.027 25.9986C224.014 26.0398 223.993 26.0779 223.965 26.1106C223.936 26.1433 223.902 26.1699 223.863 26.1889C223.824 26.2078 223.782 26.2187 223.739 26.2208C223.696 26.2229 223.653 26.2162 223.612 26.2011C223.571 26.188 223.533 26.1668 223.5 26.1388C223.467 26.1108 223.44 26.0766 223.42 26.038C223.4 25.9995 223.388 25.9574 223.385 25.9142C223.381 25.871 223.387 25.8276 223.4 25.7864C223.448 25.6611 224.528 22.5751 229.688 22.5751C231.778 22.6987 233.83 23.1849 235.754 24.012C238.753 25.0825 241.868 26.1915 245.783 25.3236C247.905 24.851 249.149 24.0892 249.457 23.0766C249.862 21.7747 248.609 20.415 248.599 20.3957C248.538 20.3342 248.503 20.251 248.503 20.1642C248.503 20.0775 248.538 19.9942 248.599 19.9328C248.663 19.8731 248.748 19.84 248.835 19.84C248.923 19.84 249.007 19.8731 249.071 19.9328C249.129 20.0003 250.595 21.5915 250.084 23.2598C249.689 24.5231 248.29 25.4296 245.918 25.96C244.955 26.173 243.972 26.2829 242.986 26.2879Z" fill="white"/>
<path d="M221.472 25.4778C221.384 25.4705 221.302 25.429 221.245 25.3623C221.187 25.2956 221.158 25.209 221.163 25.121C221.163 25.0535 221.732 18.6887 227.374 17.2615C230.701 16.4225 234.549 17.0493 237.644 17.5508C239.573 17.869 241.299 18.1487 242.022 17.869C242.102 17.852 242.185 17.8642 242.256 17.9033C242.327 17.9425 242.382 18.006 242.41 18.0821C242.438 18.1583 242.438 18.2421 242.409 18.3181C242.38 18.3941 242.325 18.4572 242.254 18.4959C241.367 18.8237 239.679 18.5537 237.538 18.2066C234.5 17.7051 230.72 17.0975 227.538 17.898C222.349 19.2191 221.829 25.1114 221.819 25.1693C221.817 25.2123 221.806 25.2545 221.787 25.2934C221.768 25.3322 221.742 25.367 221.709 25.3956C221.677 25.4243 221.64 25.4463 221.599 25.4604C221.558 25.4745 221.515 25.4805 221.472 25.4778Z" fill="white"/>
<path d="M217.739 35.4301C217.674 35.429 217.61 35.4089 217.556 35.3723C216.69 34.6462 216.019 33.7157 215.603 32.6651C215.187 31.6144 215.04 30.4766 215.174 29.3546C215.444 25.1114 218.704 25.0632 218.742 25.0632C218.821 25.0766 218.892 25.1174 218.943 25.1783C218.995 25.2392 219.023 25.3163 219.023 25.3959C219.023 25.4756 218.995 25.5527 218.943 25.6136C218.892 25.6745 218.821 25.7152 218.742 25.7286C218.627 25.7286 216.061 25.7865 215.849 29.3932C215.719 30.4023 215.842 31.428 216.207 32.3776C216.572 33.3272 217.169 34.1709 217.942 34.8322C217.977 34.8563 218.008 34.8873 218.031 34.9235C218.054 34.9596 218.07 35 218.077 35.0424C218.084 35.0847 218.083 35.1281 218.073 35.1699C218.063 35.2117 218.045 35.251 218.019 35.2855C217.99 35.3325 217.948 35.3707 217.899 35.3962C217.85 35.4216 217.795 35.4333 217.739 35.4301Z" fill="white"/>
<path d="M219.736 32.6913C219.673 32.6914 219.611 32.6732 219.558 32.639C219.505 32.6047 219.463 32.556 219.437 32.4985C219.199 32.0585 219.058 31.5728 219.023 31.0738C218.988 30.5748 219.06 30.0742 219.234 29.6054C219.66 28.6862 220.418 27.9625 221.356 27.5802C221.396 27.5632 221.438 27.5544 221.482 27.5544C221.525 27.5545 221.568 27.5634 221.607 27.5805C221.647 27.5977 221.683 27.6227 221.713 27.6542C221.742 27.6856 221.765 27.7228 221.78 27.7634C221.812 27.844 221.81 27.9339 221.776 28.0134C221.742 28.0929 221.677 28.1556 221.597 28.1878C220.829 28.513 220.205 29.1058 219.842 29.8561C219.705 30.2412 219.652 30.6509 219.685 31.0581C219.718 31.4653 219.837 31.8609 220.035 32.2188C220.071 32.2995 220.074 32.3911 220.043 32.4741C220.013 32.5571 219.951 32.6247 219.871 32.6624C219.828 32.6812 219.782 32.6911 219.736 32.6913Z" fill="white"/>
<path d="M220.478 37.9181C220.425 37.917 220.373 37.9034 220.326 37.8782C220.279 37.8531 220.239 37.8172 220.208 37.7735L218.964 36.0376C218.913 35.966 218.892 35.877 218.907 35.7902C218.921 35.7034 218.97 35.6259 219.041 35.5748C219.113 35.5236 219.202 35.503 219.289 35.5175C219.376 35.5319 219.453 35.5803 219.504 35.6519L220.748 37.3974C220.797 37.468 220.817 37.555 220.802 37.6398C220.788 37.7246 220.741 37.8003 220.671 37.8507C220.617 37.8951 220.548 37.919 220.478 37.9181Z" fill="white"/>
</svg>
