<svg width="320" height="314" viewBox="0 0 320 314" fill="none" xmlns="http://www.w3.org/2000/svg">
<path d="M139.154 314C209.077 314 265.76 309.902 265.76 304.846C265.76 299.79 209.077 295.692 139.154 295.692C69.232 295.692 12.5488 299.79 12.5488 304.846C12.5488 309.902 69.232 314 139.154 314Z" fill="#FFA401"/>
<path opacity="0.5" d="M139.154 314C209.077 314 265.76 309.902 265.76 304.846C265.76 299.79 209.077 295.692 139.154 295.692C69.232 295.692 12.5488 299.79 12.5488 304.846C12.5488 309.902 69.232 314 139.154 314Z" fill="white"/>
<path d="M299.469 11.7231H108.819C104.313 11.7231 100.66 15.3758 100.66 19.8817V271.453C100.66 275.959 104.313 279.611 108.819 279.611H299.469C303.975 279.611 307.628 275.959 307.628 271.453V19.8817C307.628 15.3758 303.975 11.7231 299.469 11.7231Z" stroke="#263238" stroke-width="1.0229" stroke-linecap="round" stroke-linejoin="round"/>
<path d="M187.558 85.3383V86.1705H186.726" stroke="#263238" stroke-width="1.0229" stroke-linecap="round" stroke-linejoin="round"/>
<path d="M185.078 86.1705H136.542" stroke="#263238" stroke-width="1.0229" stroke-linecap="round" stroke-linejoin="round" stroke-dasharray="2.02 2.02"/>
<path d="M135.717 86.1705H134.877V85.3383" stroke="#263238" stroke-width="1.0229" stroke-linecap="round" stroke-linejoin="round"/>
<path d="M134.877 83.7311V45.9811" stroke="#263238" stroke-width="1.0229" stroke-linecap="round" stroke-linejoin="round" stroke-dasharray="1.97 1.97"/>
<path d="M134.877 45.1734V44.3412H135.717" stroke="#263238" stroke-width="1.0229" stroke-linecap="round" stroke-linejoin="round"/>
<path d="M137.357 44.3412H185.901" stroke="#263238" stroke-width="1.0229" stroke-linecap="round" stroke-linejoin="round" stroke-dasharray="2.02 2.02"/>
<path d="M186.726 44.3412H187.558V45.1734" stroke="#263238" stroke-width="1.0229" stroke-linecap="round" stroke-linejoin="round"/>
<path d="M187.557 46.7807V84.5388" stroke="#263238" stroke-width="1.0229" stroke-linecap="round" stroke-linejoin="round" stroke-dasharray="1.97 1.97"/>
<path d="M179.146 51.0231H143.289V79.4967H179.146V51.0231Z" fill="white" stroke="#263238" stroke-width="1.0229" stroke-linecap="round" stroke-linejoin="round"/>
<path d="M141.184 48.9101L128.881 39.4216" stroke="#263238" stroke-width="1.0229" stroke-linecap="round" stroke-linejoin="round"/>
<path d="M181.609 80.9L192.158 90.0377" stroke="#263238" stroke-width="1.0229" stroke-linecap="round" stroke-linejoin="round"/>
<path d="M128.391 42.5463L128.032 38.5078H132.25" stroke="#263238" stroke-width="1.0229" stroke-linecap="round" stroke-linejoin="round"/>
<path d="M192.444 86.2194L193.17 90.6251L188.038 90.8127" stroke="#263238" stroke-width="1.0229" stroke-linecap="round" stroke-linejoin="round"/>
<path d="M223.553 193.546H206.143V199.828H223.553V193.546Z" fill="#263238"/>
<path d="M230.627 196.679L219.466 190.242V203.124L230.627 196.679Z" fill="#263238"/>
<path d="M193.587 150.216H153.545C150.422 150.216 147.891 152.747 147.891 155.87V244.782C147.891 247.905 150.422 250.436 153.545 250.436H193.587C196.71 250.436 199.241 247.905 199.241 244.782V155.87C199.241 152.747 196.71 150.216 193.587 150.216Z" fill="#263238" stroke="#263238" stroke-width="0.829236" stroke-linecap="round" stroke-linejoin="round"/>
<path d="M196.964 157.02H150.174V244.48H196.964V157.02Z" fill="white" stroke="#263238" stroke-width="0.829236" stroke-linecap="round" stroke-linejoin="round"/>
<path d="M188.292 264.232L191.865 250.363C192.256 248.868 192.454 247.33 192.453 245.786V229.15C192.517 228.936 192.553 228.713 192.559 228.489C192.511 227.748 192.171 227.056 191.615 226.564C191.059 226.072 190.331 225.82 189.589 225.862C188.788 225.847 188.011 226.139 187.419 226.678C187.311 225.985 186.951 225.355 186.407 224.911C185.864 224.467 185.175 224.239 184.474 224.271C183.989 224.262 183.509 224.368 183.073 224.581C182.638 224.793 182.259 225.107 181.969 225.495C181.851 224.811 181.487 224.194 180.947 223.758C180.406 223.323 179.725 223.099 179.032 223.129C178.546 223.122 178.064 223.23 177.628 223.444C177.191 223.658 176.811 223.972 176.519 224.361C176.519 222.158 176.519 211.593 176.152 210.728C175.075 207.946 169.625 209.219 170.596 212.172V236.607C170.596 234.894 169.323 232.634 168.793 230.97C168.263 229.305 167.977 227.706 166.965 226.319C165.285 223.921 162.323 225.242 162.494 227.739C162.633 229.934 164.224 231.663 165.081 233.654C166.663 237.325 165.717 241.168 167.21 244.856C168.45 247.193 169.828 249.455 171.338 251.627C172.152 253.054 172.796 254.571 173.256 256.147L171.869 264.232" fill="white"/>
<path d="M188.292 264.232L191.865 250.363C192.256 248.868 192.454 247.33 192.453 245.786V229.15C192.517 228.936 192.553 228.713 192.559 228.489C192.511 227.748 192.171 227.056 191.615 226.564C191.059 226.072 190.331 225.82 189.589 225.862C188.788 225.847 188.011 226.139 187.419 226.678C187.311 225.985 186.951 225.355 186.407 224.911C185.864 224.467 185.175 224.239 184.474 224.271C183.989 224.262 183.509 224.368 183.073 224.581C182.638 224.793 182.259 225.107 181.969 225.495C181.851 224.811 181.487 224.194 180.947 223.758C180.406 223.323 179.725 223.099 179.032 223.129C178.546 223.122 178.064 223.23 177.628 223.444C177.191 223.658 176.811 223.972 176.519 224.361C176.519 222.158 176.519 211.593 176.152 210.728C175.075 207.946 169.625 209.219 170.596 212.172V236.607C170.596 234.894 169.323 232.634 168.793 230.97C168.263 229.305 167.977 227.706 166.965 226.319C165.285 223.921 162.323 225.242 162.494 227.739C162.633 229.934 164.224 231.663 165.081 233.654C166.663 237.325 165.717 241.168 167.21 244.856C168.45 247.193 169.828 249.455 171.338 251.627C172.152 253.054 172.796 254.571 173.256 256.147L171.869 264.232" stroke="#263238" stroke-width="1.0229" stroke-linecap="round" stroke-linejoin="round"/>
<path d="M173.606 202.308V206.877" stroke="#263238" stroke-width="1.0229" stroke-linecap="round" stroke-linejoin="round"/>
<path d="M178.746 211.152H182.458" stroke="#263238" stroke-width="1.0229" stroke-linecap="round" stroke-linejoin="round"/>
<path d="M163.335 211.152H167.047" stroke="#263238" stroke-width="1.0229" stroke-linecap="round" stroke-linejoin="round"/>
<path d="M168.476 206.306L169.903 208.582" stroke="#263238" stroke-width="1.0229" stroke-linecap="round" stroke-linejoin="round"/>
<path d="M177.032 208.868L179.031 206.306" stroke="#263238" stroke-width="1.0229" stroke-linecap="round" stroke-linejoin="round"/>
<path d="M195.3 190.895H151.921V196.32H195.3V190.895Z" stroke="#263238" stroke-width="1.0229" stroke-linecap="round" stroke-linejoin="round"/>
<path d="M174.186 161.785H153.349V186.611H174.186V161.785Z" stroke="#263238" stroke-width="1.0229" stroke-linecap="round" stroke-linejoin="round"/>
<path d="M153.349 161.785L174.178 186.611" stroke="#263238" stroke-width="1.0229" stroke-linecap="round" stroke-linejoin="round"/>
<path d="M152.776 234.56V199.167H195.014V234.274" stroke="#263238" stroke-width="1.0229" stroke-linecap="round" stroke-linejoin="round"/>
<path d="M279.945 150.216H239.903C236.78 150.216 234.249 152.747 234.249 155.87V244.782C234.249 247.905 236.78 250.436 239.903 250.436H279.945C283.068 250.436 285.599 247.905 285.599 244.782V155.87C285.599 152.747 283.068 150.216 279.945 150.216Z" fill="#263238" stroke="#263238" stroke-width="0.829236" stroke-linecap="round" stroke-linejoin="round"/>
<path d="M283.323 157.02H236.533V244.48H283.323V157.02Z" fill="white" stroke="#263238" stroke-width="0.829236" stroke-linecap="round" stroke-linejoin="round"/>
<path d="M281.201 161.213H238.964V207.448H281.201V161.213Z" stroke="#263238" stroke-width="1.0229" stroke-linecap="round" stroke-linejoin="round"/>
<path d="M238.964 211.724H281.201" stroke="#263238" stroke-width="1.0229" stroke-linecap="round" stroke-linejoin="round"/>
<path d="M238.964 215.15H281.201" stroke="#263238" stroke-width="1.0229" stroke-linecap="round" stroke-linejoin="round"/>
<path d="M238.964 218.577H281.201" stroke="#263238" stroke-width="1.0229" stroke-linecap="round" stroke-linejoin="round"/>
<path d="M238.964 222.003H281.201" stroke="#263238" stroke-width="1.0229" stroke-linecap="round" stroke-linejoin="round"/>
<path d="M238.964 225.422H281.201" stroke="#263238" stroke-width="1.0229" stroke-linecap="round" stroke-linejoin="round"/>
<path d="M238.964 228.848H281.201" stroke="#263238" stroke-width="1.0229" stroke-linecap="round" stroke-linejoin="round"/>
<path d="M238.964 232.275H281.201" stroke="#263238" stroke-width="1.0229" stroke-linecap="round" stroke-linejoin="round"/>
<path d="M238.964 207.448L281.201 161.213" stroke="#263238" stroke-width="1.0229" stroke-linecap="round" stroke-linejoin="round"/>
<path d="M279.945 35.1709H239.903C236.78 35.1709 234.249 37.7022 234.249 40.8248V129.737C234.249 132.86 236.78 135.391 239.903 135.391H279.945C283.068 135.391 285.599 132.86 285.599 129.737V40.8248C285.599 37.7022 283.068 35.1709 279.945 35.1709Z" fill="#263238" stroke="#263238" stroke-width="0.829236" stroke-linecap="round" stroke-linejoin="round"/>
<path d="M283.323 41.9753H236.533V129.436H283.323V41.9753Z" fill="white" stroke="#263238" stroke-width="0.829236" stroke-linecap="round" stroke-linejoin="round"/>
<path d="M182.517 147.23V120.575H220.022" stroke="#263238" stroke-width="1.0229" stroke-linecap="round" stroke-linejoin="round"/>
<path d="M218.797 124.736L226.001 120.575L218.797 116.415V124.736Z" fill="#263238"/>
<path d="M258.978 146.528V126.066" stroke="#263238" stroke-width="1.0229" stroke-linecap="round" stroke-linejoin="round"/>
<path d="M263.139 127.29L258.978 120.078L254.817 127.29H263.139Z" fill="#263238"/>
<path d="M239.642 259.557H258.561" stroke="#263238" stroke-width="1.0229" stroke-linecap="round" stroke-linejoin="round"/>
<path d="M239.642 263.816H258.561" stroke="#263238" stroke-width="1.0229" stroke-linecap="round" stroke-linejoin="round"/>
<path d="M239.642 268.067H258.561" stroke="#263238" stroke-width="1.0229" stroke-linecap="round" stroke-linejoin="round"/>
<path d="M193.767 259.557H212.686" stroke="#263238" stroke-width="1.0229" stroke-linecap="round" stroke-linejoin="round"/>
<path d="M193.767 263.816H212.686" stroke="#263238" stroke-width="1.0229" stroke-linecap="round" stroke-linejoin="round"/>
<path d="M193.767 268.067H212.686" stroke="#263238" stroke-width="1.0229" stroke-linecap="round" stroke-linejoin="round"/>
<path d="M188.561 129.02H207.48" stroke="#263238" stroke-width="1.0229" stroke-linecap="round" stroke-linejoin="round"/>
<path d="M188.561 133.27H207.48" stroke="#263238" stroke-width="1.0229" stroke-linecap="round" stroke-linejoin="round"/>
<path d="M188.561 137.529H207.48" stroke="#263238" stroke-width="1.0229" stroke-linecap="round" stroke-linejoin="round"/>
<path d="M202.748 77.4653H221.668" stroke="#263238" stroke-width="1.0229" stroke-linecap="round" stroke-linejoin="round"/>
<path d="M202.748 81.7241H221.668" stroke="#263238" stroke-width="1.0229" stroke-linecap="round" stroke-linejoin="round"/>
<path d="M202.748 85.9747H221.668" stroke="#263238" stroke-width="1.0229" stroke-linecap="round" stroke-linejoin="round"/>
<path d="M134.641 92.1263H153.56" stroke="#263238" stroke-width="1.0229" stroke-linecap="round" stroke-linejoin="round"/>
<path d="M134.641 96.3851H153.56" stroke="#263238" stroke-width="1.0229" stroke-linecap="round" stroke-linejoin="round"/>
<path d="M134.641 100.636H153.56" stroke="#263238" stroke-width="1.0229" stroke-linecap="round" stroke-linejoin="round"/>
<path d="M42.3437 154.907C42.3437 154.907 42.3437 151.382 37.3995 146.438C32.4554 141.494 29.2409 138.671 29.2409 138.671C29.2409 138.671 26.7933 146.83 31.354 151.725C34.7309 155.202 38.3934 158.389 42.3029 161.254L42.3437 154.907Z" fill="#FFA401"/>
<path d="M35.1724 176.984C35.1724 176.984 35.1724 173.451 30.2283 168.507C25.2842 163.563 22.0778 160.74 22.0778 160.74C22.0778 160.74 19.6302 168.899 24.1909 173.794C27.5703 177.268 31.2325 180.456 35.1398 183.323L35.1724 176.984Z" fill="#FFA401"/>
<path d="M42.0333 160.944C42.0333 160.944 42.4086 157.436 47.8422 153.047C53.2758 148.657 56.7351 146.177 56.7351 146.177C56.7351 146.177 58.3668 154.515 53.2514 158.945C49.5287 162.047 45.5523 164.831 41.3643 167.267L42.0333 160.944Z" fill="#FFA401"/>
<path d="M33.3683 186.987C33.3683 186.987 34.1026 183.536 39.9768 179.742C45.851 175.948 49.5387 173.843 49.5387 173.843C49.5387 173.843 50.2566 182.304 44.7332 186.171C40.7032 188.866 36.4539 191.219 32.0303 193.203L33.3683 186.987Z" fill="#FFA401"/>
<path d="M34.9922 215.379C34.9922 215.379 34.9922 211.846 39.9363 206.902C44.8804 201.958 48.0949 199.135 48.0949 199.135C48.0949 199.135 50.5425 207.293 45.9819 212.189C42.6039 215.667 38.9416 218.857 35.033 221.726L34.9922 215.379Z" fill="#FFA401"/>
<path d="M34.9113 222.305C34.9113 222.305 35.4171 218.813 31.2236 213.217C27.03 207.62 24.2887 204.373 24.2887 204.373C24.2887 204.373 20.6908 212.066 24.5335 217.606C27.3781 221.53 30.5495 225.206 34.0138 228.596L34.9113 222.305Z" fill="#FFA401"/>
<path d="M30.04 242.849C30.04 242.849 30.04 239.316 34.9842 234.372C39.9283 229.428 43.1428 226.605 43.1428 226.605C43.1428 226.605 45.5904 234.723 41.0215 239.659C37.6486 243.137 33.9887 246.324 30.0808 249.188L30.04 242.849Z" fill="#FFA401"/>
<path d="M33.3373 261.467C33.3373 261.467 32.448 258.048 35.948 251.994C39.4481 245.941 41.8386 242.424 41.8386 242.424C41.8386 242.424 46.285 249.653 43.1032 255.592C40.7234 259.811 37.9943 263.823 34.9445 267.586L33.3373 261.467Z" fill="#FFA401"/>
<path d="M42.7926 154.034C42.5402 157.708 42.0881 161.366 41.4382 164.991C39.4802 175.083 34.6013 181.602 32.6432 190.715C30.6852 199.828 36.2983 211.585 34.7971 223.292C33.2959 235 28.7353 241.519 30.0406 249.335C31.346 257.151 38.1993 278.314 38.1993 278.314" stroke="#263238" stroke-width="1.03476" stroke-linecap="round" stroke-linejoin="round"/>
<path d="M41.9844 163.294L47.312 159.206" stroke="#263238" stroke-width="1.03476" stroke-linecap="round" stroke-linejoin="round"/>
<path d="M42.2293 158.586L40.002 154.621" stroke="#263238" stroke-width="1.03476" stroke-linecap="round" stroke-linejoin="round"/>
<path d="M32.9365 190.299C32.9365 190.299 37.3993 186.954 41.9844 183.609" stroke="#263238" stroke-width="1.03476" stroke-linecap="round" stroke-linejoin="round"/>
<path d="M35.1714 183.34C35.1714 183.34 31.4511 176.054 27.2412 171.224" stroke="#263238" stroke-width="1.03476" stroke-linecap="round" stroke-linejoin="round"/>
<path d="M35.1719 220.404C37.7149 215.711 40.9277 211.412 44.7093 207.644" stroke="#263238" stroke-width="1.03476" stroke-linecap="round" stroke-linejoin="round"/>
<path d="M34.3146 225.357C32.9579 222.172 31.3396 219.104 29.4766 216.186C26.8821 212.352 26.5068 211.854 26.5068 211.854" stroke="#263238" stroke-width="1.03476" stroke-linecap="round" stroke-linejoin="round"/>
<path d="M30.04 249.335C31.1688 246.517 32.5107 243.79 34.0541 241.176C35.598 238.765 37.339 236.487 39.2593 234.364" stroke="#263238" stroke-width="1.03476" stroke-linecap="round" stroke-linejoin="round"/>
<path d="M34.9519 267.61C34.6936 264.933 35.1526 262.235 36.2818 259.794C38.1419 256.196 40.2468 251.497 41.1198 249.637" stroke="#263238" stroke-width="1.03476" stroke-linecap="round" stroke-linejoin="round"/>
<path d="M9.97836 202.096C9.97836 202.096 9.59491 199.885 12.1567 196.247C14.7185 192.608 16.4074 190.495 16.4074 190.495C16.4074 190.495 18.8549 195.325 16.4971 198.923C14.7545 201.47 12.8004 203.866 10.6555 206.086L9.97836 202.096Z" fill="#FFA401"/>
<path d="M16.864 215.15C16.864 215.15 16.4887 212.931 19.0505 209.3C21.6123 205.67 23.293 203.549 23.293 203.549C23.293 203.549 25.7406 208.37 23.3827 211.968C21.6442 214.514 19.6957 216.911 17.5575 219.132L16.864 215.15Z" fill="#FFA401"/>
<path d="M10.8267 205.841C10.8267 205.841 10.2067 203.679 6.32319 201.509C2.43968 199.339 0.000250988 198.148 0.000250988 198.148C0.000250988 198.148 -0.0976517 203.549 3.57373 205.776C6.24367 207.316 9.03832 208.628 11.9282 209.7L10.8267 205.841Z" fill="#FFA401"/>
<path d="M19.0822 221.228C19.0822 221.228 18.2663 219.14 14.187 217.394C10.1077 215.648 7.5459 214.742 7.5459 214.742C7.5459 214.742 8.0191 220.119 11.9026 221.946C14.7208 223.198 17.638 224.213 20.6242 224.981L19.0822 221.228Z" fill="#FFA401"/>
<path d="M21.1473 239.202C21.1473 239.202 20.7638 236.991 17.1251 234.429C13.4863 231.867 11.1937 230.439 11.1937 230.439C11.1937 230.439 10.5247 235.8 13.935 238.402C16.4295 240.216 19.0712 241.818 21.8326 243.191L21.1473 239.202Z" fill="#FFA401"/>
<path d="M21.9473 243.542C21.9473 243.542 21.2619 241.388 23.2771 237.44C25.2923 233.491 26.663 231.141 26.663 231.141C26.663 231.141 29.7551 235.571 27.952 239.471C26.5896 242.237 24.9986 244.884 23.1955 247.385L21.9473 243.542Z" fill="#FFA401"/>
<path d="M28.1558 261.401C28.1558 261.401 28.4087 259.166 31.8924 256.4C35.3761 253.634 37.6034 252.084 37.6034 252.084C37.6034 252.084 38.5825 257.396 35.319 260.186C32.9315 262.138 30.3853 263.887 27.707 265.415L28.1558 261.401Z" fill="#FFA401"/>
<path d="M27.233 255.894C27.233 255.894 26.8496 253.675 23.219 251.113C19.5884 248.552 17.2795 247.099 17.2795 247.099C17.2795 247.099 16.6105 252.46 20.029 255.062C22.5222 256.878 25.164 258.48 27.9265 259.851L27.233 255.894Z" fill="#FFA401"/>
<path d="M27.1847 267.928C27.1847 267.928 27.3805 265.685 24.5087 262.291C21.6368 258.897 19.7767 256.922 19.7767 256.922C19.7767 256.922 17.7697 261.94 20.4212 265.326C22.3741 267.711 24.5218 269.929 26.842 271.959L27.1847 267.928Z" fill="#FFA401"/>
<path d="M9.59473 201.582C10.1555 203.858 10.8363 206.102 11.6344 208.305C13.9596 214.424 17.7289 217.981 19.9399 223.488C22.1508 228.995 19.9399 236.966 22.1264 244.146C24.3129 251.326 27.9108 254.915 27.9353 259.957C27.9598 264.999 25.9772 279.016 25.9772 279.016" stroke="#263238" stroke-width="1.03476" stroke-linecap="round" stroke-linejoin="round"/>
<path d="M11.1127 207.302L7.32715 205.319" stroke="#263238" stroke-width="1.03476" stroke-linecap="round" stroke-linejoin="round"/>
<path d="M10.4443 204.381L11.4152 201.648" stroke="#263238" stroke-width="1.03476" stroke-linecap="round" stroke-linejoin="round"/>
<path d="M19.7128 223.26C19.7128 223.26 16.5554 221.628 13.3164 220.045" stroke="#263238" stroke-width="1.03476" stroke-linecap="round" stroke-linejoin="round"/>
<path d="M17.5576 219.132C18.4873 216.195 19.7119 213.361 21.2127 210.671" stroke="#263238" stroke-width="1.03476" stroke-linecap="round" stroke-linejoin="round"/>
<path d="M21.5801 242.375C19.4834 239.709 17.0099 237.362 14.2373 235.408" stroke="#263238" stroke-width="1.03476" stroke-linecap="round" stroke-linejoin="round"/>
<path d="M22.665 245.386C23.1659 243.242 23.8454 241.143 24.6965 239.112C25.9122 236.428 26.0917 236.069 26.0917 236.069" stroke="#263238" stroke-width="1.03476" stroke-linecap="round" stroke-linejoin="round"/>
<path d="M27.7881 263.784C29.021 262.258 30.386 260.844 31.8674 259.558C32.8093 258.866 33.6934 258.1 34.5108 257.265" stroke="#263238" stroke-width="1.03476" stroke-linecap="round" stroke-linejoin="round"/>
<path d="M27.935 259.957C26.9249 258.322 25.7902 256.767 24.541 255.307C23.3118 253.96 21.9718 252.718 20.5352 251.595" stroke="#263238" stroke-width="1.03476" stroke-linecap="round" stroke-linejoin="round"/>
<path d="M26.8415 271.959C26.7131 270.25 26.1331 268.605 25.1608 267.194C23.6025 265.146 21.7668 262.421 21.0244 261.352" stroke="#263238" stroke-width="1.03476" stroke-linecap="round" stroke-linejoin="round"/>
<path d="M15.8848 276.576H48.1847V300.897C48.1847 301.546 47.9269 302.169 47.4679 302.628C47.0089 303.087 46.3863 303.345 45.7372 303.345H18.365C17.7158 303.345 17.0933 303.087 16.6343 302.628C16.1753 302.169 15.9174 301.546 15.9174 300.897V276.576H15.8848Z" fill="#263238"/>
<path d="M47.9317 280.794H15.8847C15.5518 280.794 15.2223 280.729 14.9149 280.601C14.6075 280.474 14.3283 280.286 14.0934 280.051C13.8584 279.815 13.6723 279.535 13.5457 279.227C13.419 278.92 13.3544 278.59 13.3555 278.257C13.3555 277.586 13.622 276.943 14.0963 276.469C14.5706 275.994 15.2139 275.728 15.8847 275.728H47.9317C48.6025 275.728 49.2458 275.994 49.7201 276.469C50.1944 276.943 50.4609 277.586 50.4609 278.257C50.462 278.59 50.3973 278.92 50.2707 279.227C50.1441 279.535 49.958 279.815 49.723 280.051C49.488 280.286 49.2089 280.474 48.9015 280.601C48.5941 280.729 48.2645 280.794 47.9317 280.794Z" fill="#263238"/>
<path d="M57.975 295.235C57.975 295.235 56.2209 301.991 56.2209 303.696C56.2209 305.401 55.7966 306.543 59.4843 307.253C63.172 307.963 65.6033 307.538 66.1744 305.833C66.7455 304.128 67.1698 295.578 67.1698 295.578L58.1953 293.865L57.975 295.235Z" fill="white" stroke="#263238" stroke-width="1.03476" stroke-linecap="round" stroke-linejoin="round"/>
<path d="M66.1333 305.841C66.2492 305.452 66.331 305.054 66.3781 304.65C62.9563 304.668 59.5391 304.395 56.1635 303.834C56.1635 305.466 55.8453 306.568 59.4269 307.253C63.0086 307.938 65.5867 307.547 66.1333 305.841Z" fill="white" stroke="#263238" stroke-width="1.03476" stroke-linecap="round" stroke-linejoin="round"/>
<path d="M144.498 295.872C144.498 295.872 147.345 296.867 151.481 298.148C155.618 299.429 164.037 300.856 164.853 300.995C165.669 301.134 165.669 302.847 164.992 303.565C164.315 304.283 160.578 306.412 156.164 307.547C151.751 308.681 136.788 309.684 135.507 308.836C134.438 308.118 134.797 301.142 135.221 299.576C135.645 298.009 144.498 295.872 144.498 295.872Z" fill="white" stroke="#263238" stroke-width="1.03476" stroke-linecap="round" stroke-linejoin="round"/>
<path d="M165.008 303.565C165.241 303.294 165.401 302.969 165.475 302.62C165.55 302.271 165.535 301.908 165.432 301.566C162.544 303.867 156.776 306.396 150.91 306.984C145.585 307.363 140.239 307.336 134.919 306.902C135.025 307.881 135.213 308.623 135.523 308.836C136.804 309.651 151.758 308.689 156.18 307.547C160.602 306.404 164.298 304.275 165.008 303.565Z" fill="white" stroke="#263238" stroke-width="1.03476" stroke-linecap="round" stroke-linejoin="round"/>
<path d="M75.5972 171.689C75.5972 171.689 73.1496 186.587 75.0424 194.86C75.0424 194.86 71.4608 227.674 70.906 242.294C70.906 242.294 63.188 267.945 62.0784 275.94C61.0336 282.436 59.664 288.876 57.9746 295.235C59.6914 296.185 61.5559 296.839 63.4898 297.169C67.357 297.985 67.9037 294.958 67.9037 294.958C67.9037 294.958 89.1161 246.145 90.7967 238.973C92.4774 231.802 97.9519 206.168 97.9519 206.168L120.796 248.087C120.796 248.087 121.906 262.429 125.21 270.702C128.514 278.975 134.861 301.86 134.861 301.86C137.372 302 139.889 301.724 142.31 301.044C145.623 299.943 145.623 298.287 145.623 298.287C145.623 298.287 140.654 279.807 140.654 273.745C140.654 267.684 138.729 246.993 137.35 241.201C135.971 235.408 126.589 205.074 125.21 201.762C123.831 198.449 120.796 187.974 120.796 187.974L118.871 171.697C118.871 171.697 95.1779 178.314 75.5972 171.689Z" fill="#263238" stroke="#263238" stroke-width="1.03476" stroke-linecap="round" stroke-linejoin="round"/>
<path d="M93.0979 101.403C93.0979 101.403 91.8251 98.6532 91.8251 96.9644C91.8251 95.2756 91.0093 87.2475 91.0093 87.2475C91.0093 87.2475 103.247 65.0805 106.633 60.8543C108.842 58.1476 111.318 55.6711 114.025 53.4626C114.025 53.4626 122.265 51.7738 123.954 51.7738C125.643 51.7738 127.544 50.9579 127.544 49.8728C127.544 48.7877 124.794 49.057 123.105 49.057C121.416 49.057 119.303 47.5803 119.303 47.5803C119.303 47.5803 122.053 39.7072 122.893 36.5988C123.342 34.967 124.794 31.5322 123.709 31.5322C122.624 31.5322 122.444 32.3481 121.808 33.6453C121.172 34.9426 118.43 39.1361 118.43 39.1361L119.059 29.8434C119.059 29.8434 118.243 28.5788 117.582 30.0555C116.745 32.3357 116.039 34.6621 115.469 37.023C115.273 37.7625 114.913 38.4484 114.416 39.03L113.6 32.1034C113.6 32.1034 112.165 30.5777 111.912 33.2211C111.773 34.6896 111.912 39.5603 111.912 40.4007C111.912 41.241 111.096 39.2014 111.096 39.2014C111.096 39.2014 110.598 36.9088 110.043 36.5988C109.489 36.2887 108.991 37.023 109.227 38.7118C109.464 40.4007 109.015 47.3681 109.015 47.3681C109.015 47.3681 107.751 49.057 105.85 51.3822C103.949 53.7074 88.7167 67.4302 83.0057 71.8685C77.2946 76.3068 76.6746 79.8966 75.8261 84.3267C74.9776 88.7568 74.1372 114.514 74.1372 123.823C74.1372 133.132 74.9531 147.891 75.614 152.753C76.2748 157.616 75.1081 163.881 74.2923 167.292C73.4764 170.702 74.2923 173.623 76.6175 175.312C78.9427 177 88.8554 178.061 97.0956 178.061C105.336 178.061 113.78 177.245 116.317 176.372C118.855 175.499 120.796 175.303 120.796 171.934C120.796 168.564 119.108 161.801 119.108 159.9C119.108 157.999 122.493 138.361 122.493 138.361C122.493 138.361 144.032 144.888 148.046 143.428C152.06 141.967 185.633 110.271 185.633 110.271C185.633 110.271 190.912 108.158 193.661 107.734C196.411 107.31 200.629 105.417 200.841 104.78C201.053 104.144 200.416 104.356 198.728 104.356C197.222 104.459 195.733 104.733 194.289 105.172C194.289 105.172 200.057 101.517 201.053 101.158C201.738 100.905 202.921 99.3467 201.265 99.6812C199.184 100.097 194.085 101.582 194.085 101.582L200.841 97.356C200.841 97.356 201.893 95.6672 200.629 95.6672C199.364 95.6672 193.025 99.4691 193.025 99.4691L197.92 94.8839C198.874 94.0028 198.075 92.7545 196.949 93.4072L191.238 96.6707C189.846 97.4848 188.368 98.1442 186.832 98.6369L185.78 99.2733C185.99 98.1571 186.132 97.0291 186.204 95.8956C186.204 94.835 185.568 92.0937 184.091 91.8816C182.614 91.6694 183.879 93.7825 183.879 94.835C183.879 95.8875 181.766 101.362 181.766 102.227V104.764C181.766 104.764 174.586 111.095 168.043 114.481C161.5 117.867 146.708 129.052 146.708 129.052C146.708 129.052 129.82 120.388 126.018 117.222C122.216 114.057 117.99 110.255 113.78 106.877C111.594 105.059 109.264 103.422 106.813 101.982L93.0979 101.403Z" fill="white" stroke="#263238" stroke-width="1.03476" stroke-linecap="round" stroke-linejoin="round"/>
<path d="M163.67 117.092C156.499 121.677 146.733 129.069 146.733 129.069C146.733 129.069 129.844 120.404 126.042 117.239C122.24 114.073 118.014 110.271 113.804 106.893C111.619 105.075 109.288 103.438 106.837 101.998L93.1142 101.37C93.1142 101.37 91.8415 98.6206 91.8415 96.9318C91.8415 95.2429 91.0256 87.2148 91.0256 87.2148C91.0256 87.2148 97.3485 75.7928 102.162 67.7565L101.779 67.3649C99.4127 65.0071 96.1411 63.7343 93.2855 63.0408C89.3041 66.5735 85.3472 69.9757 82.9975 71.8032C77.2865 76.2333 76.6664 79.8313 75.8179 84.2614C74.9694 88.6915 74.1291 114.448 74.1291 123.757C74.1291 133.066 74.945 147.825 75.6058 152.688C76.2666 157.55 75.1081 163.881 74.2923 167.292C73.4764 170.702 74.2923 173.623 76.6175 175.312C78.9427 177 88.8554 178.061 97.0956 178.061C105.336 178.061 113.78 177.245 116.317 176.372C118.855 175.499 120.796 175.303 120.796 171.934C120.796 168.564 119.108 161.801 119.108 159.9C119.108 157.999 122.493 138.361 122.493 138.361C122.493 138.361 144.032 144.888 148.046 143.428C150.184 142.612 160.774 133.229 170.164 124.663C168.455 121.781 166.258 119.219 163.67 117.092Z" fill="#FFA401" stroke="#263238" stroke-width="1.03476" stroke-linecap="round" stroke-linejoin="round"/>
<path d="M115.901 110.655C115.901 110.655 107.4 112.972 106.927 119.409" stroke="#263238" stroke-width="1.03476" stroke-linecap="round" stroke-linejoin="round"/>
<path d="M122.429 138.361C122.429 138.361 112.524 135.636 107.376 130.48" stroke="#263238" stroke-width="1.03476" stroke-linecap="round" stroke-linejoin="round"/>
<path d="M116.93 136.958C116.93 136.958 108.428 139.275 100.702 136.191" stroke="#263238" stroke-width="1.03476" stroke-linecap="round" stroke-linejoin="round"/>
<path d="M81.0635 123.276C81.0635 123.276 83.7477 142.041 96.6872 151.391" stroke="#263238" stroke-width="1.03476" stroke-linecap="round" stroke-linejoin="round"/>
<path d="M100.767 156.539C101.754 156.808 102.774 157.044 103.826 157.232" stroke="#263238" stroke-width="1.03476" stroke-linecap="round" stroke-linejoin="round"/>
<path d="M81.0635 142.016C84.6821 147.414 89.6833 151.742 95.545 154.548" stroke="#263238" stroke-width="1.03476" stroke-linecap="round" stroke-linejoin="round"/>
<path d="M78.5586 100.358C78.5586 100.358 86.7988 96.2791 91.694 100.097" stroke="#263238" stroke-width="1.03476" stroke-linecap="round" stroke-linejoin="round"/>
<path d="M80.876 81.5609C80.876 81.5609 88.3493 84.1391 90.4052 89.2872" stroke="#263238" stroke-width="1.03476" stroke-linecap="round" stroke-linejoin="round"/>
<path d="M85.7725 79.7579C87.5603 81.201 88.8268 83.1896 89.3786 85.42" stroke="#263238" stroke-width="1.03476" stroke-linecap="round" stroke-linejoin="round"/>
<path d="M120.967 67.6097C120.967 67.6097 122.24 74.7893 122.24 76.6902C122.24 78.5912 120.126 79.2275 120.967 81.7567C121.807 84.2859 123.716 84.5062 123.292 86.6519C122.868 88.7976 120.126 90.0296 120.126 90.0296C120.126 90.0296 118.65 95.9446 117.165 98.4737C115.68 101.003 110.197 99.1101 110.197 99.1101L109.773 105.865C109.773 105.865 107.872 108.615 100.905 107.766C96.8933 107.324 92.976 106.255 89.295 104.601L88.2344 103.124C88.2344 103.124 93.7251 100.375 93.9454 98.4737C94.1657 96.5728 93.9454 92.1426 93.9454 85.8034C93.9454 79.4642 92.0445 67.2181 102.39 64.0525C112.735 60.887 120.967 67.6097 120.967 67.6097Z" fill="white" stroke="#263238" stroke-width="1.03476" stroke-linecap="round" stroke-linejoin="round"/>
<path d="M108.07 84.9467C108.07 84.9467 105.687 79.4804 103.019 82.6052C101.29 84.6367 103.444 90.6333 104.496 91.4736C105.549 92.3139 107.874 91.8979 107.874 91.8979C107.874 91.8979 104.496 95.2755 100.906 95.2755C97.3165 95.2755 94.151 91.8979 91.8258 85.9828C89.5006 80.0679 87.8117 69.9348 90.3491 63.8077C92.8864 57.6806 105.981 57.4766 108.934 57.4766C111.888 57.4766 116.326 59.1655 116.326 59.1655C116.326 59.1655 125.831 58.3496 126.043 61.4907C126.255 64.6317 124.77 64.8683 124.77 64.8683C124.77 64.8683 131.534 68.4581 128.36 69.9348C125.186 71.4116 120.34 70.5712 117.166 70.5712C116.317 70.5219 115.47 70.7131 114.724 71.123C113.978 71.5328 113.363 72.1446 112.948 72.8883C112.948 72.8883 115.902 74.7892 114.849 75.6377C113.797 76.4862 109.954 78.1669 109.571 79.6518C109.187 81.1366 111.047 83.4537 109.775 84.5469C108.502 85.6402 108.07 84.9467 108.07 84.9467Z" fill="#263238" stroke="#263238" stroke-width="1.03476" stroke-linecap="round" stroke-linejoin="round"/>
<path d="M119.817 82.3931C119.817 83.4701 119.368 84.343 118.821 84.343C118.275 84.343 117.834 83.4701 117.834 82.3931C117.834 81.3162 118.283 80.4432 118.821 80.4432C119.36 80.4432 119.817 81.3162 119.817 82.3931Z" fill="#263238"/>
<path d="M116.357 79.9047C116.357 79.9047 117.72 76.7229 119.882 78.428" stroke="#263238" stroke-width="1.03476" stroke-linecap="round" stroke-linejoin="round"/>
<path d="M97.9358 206.167L96.0022 202.578L86.3506 200.098" stroke="white" stroke-width="1.03476" stroke-linecap="round" stroke-linejoin="round"/>
</svg>
