<svg width="312" height="312" viewBox="0 0 312 312" fill="none" xmlns="http://www.w3.org/2000/svg">
<path d="M295.478 264.409C292.715 264.015 287.459 260.589 287.452 260.589C287.445 260.589 290.761 257.826 290.988 257.661C293.675 255.941 299.871 254.207 302.627 256.466C303.074 256.856 303.434 257.336 303.684 257.874C303.934 258.413 304.067 258.998 304.076 259.592C304.084 260.185 303.967 260.774 303.733 261.32C303.499 261.865 303.152 262.355 302.716 262.758C300.927 264.526 297.833 264.747 295.478 264.409Z" fill="#FFA401"/>
<path d="M243.959 237.893C243.89 237.893 245.181 233.749 245.292 233.501C246.583 230.586 250.817 225.717 254.34 226.089C254.927 226.168 255.492 226.368 255.996 226.679C256.501 226.99 256.934 227.403 257.269 227.892C257.603 228.382 257.83 228.936 257.936 229.519C258.042 230.102 258.024 230.701 257.883 231.277C257.372 233.749 254.913 235.642 252.758 236.657C250.23 237.852 243.959 237.893 243.959 237.893Z" fill="#FFA401"/>
<path d="M238.8 307.003C237.577 308.523 236.465 309.952 235.471 311.265H232.956C234.22 309.642 235.719 307.811 237.363 305.822C238.33 304.662 239.387 303.446 240.485 302.203C239.491 300.979 238.569 299.699 237.722 298.37C235.477 299.122 230.891 298.922 230.297 298.895C230.125 300.366 229.973 301.809 229.848 303.163C229.558 306.237 229.386 308.965 229.268 311.265H227.196C227.362 308.916 227.604 306.126 227.963 302.977C228.135 301.471 228.343 299.875 228.577 298.232C227.997 298.059 223.294 296.588 221.567 295.061C219.999 293.68 218.39 291.47 218.563 289.26C218.586 288.739 218.718 288.229 218.951 287.763C219.184 287.297 219.513 286.885 219.915 286.554C220.318 286.223 220.785 285.981 221.288 285.842C221.79 285.704 222.316 285.673 222.831 285.751C225.918 286.31 228.267 291.456 228.64 294.232C228.64 294.398 228.702 296.201 228.709 297.341C228.805 296.65 228.895 296.021 228.999 295.331C229.206 293.949 229.455 292.616 229.689 291.187C229.841 290.496 229.993 289.805 230.145 289.066C230.297 288.327 230.518 287.623 230.705 286.89C231.168 285.212 231.72 283.527 232.314 281.842C231.119 281.662 226.892 280.944 225.124 279.804C223.356 278.664 221.443 276.737 221.277 274.527C221.218 274.007 221.269 273.48 221.427 272.981C221.585 272.482 221.847 272.022 222.195 271.631C222.543 271.24 222.97 270.927 223.447 270.712C223.924 270.496 224.442 270.385 224.965 270.383C228.101 270.466 231.181 275.218 231.996 277.891C232.045 278.057 232.39 280.046 232.563 281.144C232.929 280.136 233.288 279.127 233.689 278.119C234.849 275.211 236.113 272.296 237.363 269.389C237.743 268.498 238.116 267.6 238.489 266.709C238.068 266.646 233.026 265.907 231.043 264.637C229.289 263.504 227.362 261.57 227.196 259.36C227.137 258.84 227.188 258.313 227.346 257.814C227.504 257.315 227.766 256.855 228.114 256.463C228.462 256.072 228.889 255.759 229.366 255.544C229.844 255.329 230.361 255.217 230.884 255.216C234.02 255.299 237.101 260.05 237.909 262.723C237.971 262.924 238.468 265.79 238.558 266.529C239.387 264.561 240.188 262.592 240.899 260.624C241.877 257.969 242.682 255.253 243.31 252.494C243.109 252.494 237.846 251.714 235.816 250.422C234.062 249.29 232.135 247.356 231.969 245.145C231.908 244.625 231.959 244.098 232.116 243.598C232.274 243.099 232.536 242.638 232.884 242.247C233.232 241.856 233.66 241.542 234.137 241.328C234.615 241.113 235.133 241.002 235.657 241.001C238.793 241.084 241.873 245.836 242.681 248.502C242.737 248.682 243.116 250.864 243.275 251.907H243.455C244.009 249.113 244.312 246.274 244.36 243.426C244.408 241.858 244.36 240.359 244.291 238.902C243.296 238.86 238.765 238.632 236.797 237.652C234.828 236.671 232.798 235.013 232.39 232.817C232.278 232.308 232.275 231.781 232.38 231.27C232.485 230.759 232.696 230.277 232.999 229.853C233.303 229.429 233.692 229.073 234.141 228.81C234.591 228.546 235.091 228.379 235.609 228.32C238.731 228.058 242.336 232.423 243.413 235.006C243.476 235.151 243.911 236.643 244.215 237.769C244.173 237.078 244.139 236.429 244.083 235.801C243.883 233.431 243.558 231.283 243.255 229.377C243.075 228.293 242.888 227.305 242.702 226.414C241.749 225.862 237.922 223.61 236.659 221.876C235.395 220.143 234.331 217.684 234.973 215.563C235.108 215.06 235.347 214.591 235.675 214.186C236.003 213.781 236.412 213.449 236.877 213.213C237.341 212.976 237.85 212.84 238.371 212.813C238.891 212.786 239.411 212.869 239.898 213.056C242.792 214.265 243.98 219.797 243.745 222.588C243.745 222.829 242.971 226.566 242.923 226.538L242.868 226.504C243.061 227.374 243.261 228.314 243.455 229.343C243.8 231.242 244.146 233.397 244.429 235.766C244.724 238.315 244.872 240.88 244.871 243.446C244.893 246.321 244.662 249.191 244.18 252.025C244.18 252.059 244.18 252.094 244.18 252.121C244.608 251.313 245.886 249.075 246.003 248.917C247.654 246.658 252.185 243.26 255.162 244.248C255.652 244.425 256.099 244.703 256.474 245.064C256.85 245.425 257.145 245.861 257.34 246.344C257.536 246.827 257.627 247.346 257.609 247.866C257.591 248.387 257.463 248.898 257.234 249.366C256.329 251.389 253.857 252.557 251.819 253.026C249.519 253.558 244.505 252.536 244.104 252.453C243.528 255.321 242.762 258.147 241.811 260.914C241.265 262.53 240.664 264.139 240.043 265.749C240.437 265.058 240.789 264.443 240.851 264.367C242.502 262.109 247.026 258.711 250.009 259.698C250.499 259.875 250.947 260.153 251.322 260.515C251.697 260.876 251.992 261.312 252.188 261.795C252.383 262.278 252.475 262.796 252.456 263.317C252.438 263.837 252.31 264.348 252.082 264.816C251.177 266.84 248.711 268.007 246.673 268.477C244.636 268.946 240.312 268.166 239.18 267.945C238.931 268.56 238.696 269.174 238.447 269.789C237.259 272.731 236.065 275.66 234.994 278.568C234.614 279.59 234.303 280.64 233.93 281.641C234.283 281.027 234.58 280.509 234.621 280.439C236.272 278.174 240.796 274.783 243.779 275.764C244.27 275.941 244.717 276.22 245.092 276.582C245.468 276.944 245.763 277.381 245.958 277.864C246.153 278.347 246.245 278.867 246.227 279.388C246.208 279.909 246.08 280.42 245.852 280.888C244.947 282.912 242.481 284.079 240.443 284.542C238.406 285.005 234.497 284.314 233.15 284.052C232.832 285.115 232.507 286.172 232.245 287.215C232.086 287.906 231.879 288.596 231.755 289.329C231.63 290.061 231.478 290.751 231.34 291.456C231.133 292.837 230.905 294.219 230.732 295.559C230.601 296.484 230.498 297.368 230.394 298.259C230.76 297.237 231.527 295.248 231.61 295.089C232.828 292.945 234.576 291.15 236.686 289.874C236.81 289.63 236.958 289.398 237.128 289.184C237.434 288.762 237.825 288.409 238.276 288.149C238.727 287.888 239.228 287.726 239.746 287.672C240.264 287.618 240.787 287.673 241.282 287.835C241.777 287.997 242.233 288.261 242.619 288.61C244.891 290.779 244 296.367 242.785 298.888C242.716 299.04 241.756 300.566 241.127 301.519C241.583 301.015 242.011 300.518 242.509 300.007C243.434 298.984 244.38 297.99 245.403 296.919L246.957 295.407C247.461 294.889 248.062 294.405 248.614 293.901C249.933 292.747 251.322 291.649 252.758 290.572C251.867 289.764 248.739 286.835 247.924 284.908C247.109 282.981 246.542 280.322 247.627 278.388C247.867 277.927 248.202 277.521 248.61 277.197C249.017 276.873 249.488 276.638 249.992 276.508C250.496 276.378 251.022 276.355 251.535 276.441C252.049 276.527 252.538 276.719 252.972 277.007C255.542 278.809 255.521 284.466 254.692 287.146C254.644 287.312 253.836 289.163 253.373 290.171C254.23 289.536 255.086 288.893 255.977 288.272C258.553 286.483 261.212 284.749 263.865 283.016L266.282 281.406C265.957 281.116 262.138 277.718 261.219 275.563C260.377 273.65 259.838 270.97 260.922 269.036C261.162 268.574 261.497 268.167 261.904 267.843C262.311 267.518 262.783 267.283 263.287 267.153C263.791 267.022 264.317 267 264.831 267.086C265.345 267.173 265.834 267.367 266.268 267.655C268.838 269.451 268.817 275.114 267.988 277.787C267.926 277.988 266.759 280.66 266.427 281.324C268.202 280.136 269.956 278.941 271.635 277.691C273.918 276.016 276.089 274.193 278.134 272.234C277.982 272.103 273.99 268.574 273.037 266.363C272.194 264.45 271.656 261.77 272.733 259.843C272.973 259.381 273.307 258.974 273.715 258.65C274.122 258.325 274.593 258.09 275.098 257.96C275.602 257.829 276.128 257.807 276.642 257.893C277.155 257.98 277.645 258.174 278.079 258.462C280.655 260.265 280.628 265.921 279.806 268.594C279.75 268.774 278.859 270.804 278.424 271.764C278.475 271.795 278.524 271.83 278.569 271.868C280.576 269.845 282.395 267.644 284.005 265.293C284.91 264.008 285.704 262.737 286.443 261.48C285.635 260.893 281.974 258.199 280.883 256.307C279.792 254.414 279.004 251.893 279.868 249.856C280.053 249.368 280.339 248.925 280.707 248.556C281.076 248.186 281.518 247.899 282.004 247.712C282.491 247.525 283.012 247.442 283.533 247.47C284.054 247.498 284.563 247.636 285.027 247.874C287.79 249.379 288.377 255.008 287.852 257.757C287.852 257.909 287.362 259.401 287.016 260.479C287.341 259.905 287.707 259.318 287.99 258.766C289.13 256.694 290.062 254.711 290.843 252.95C291.285 251.949 291.672 251.037 292.017 250.187C291.52 249.207 289.579 245.208 289.482 243.067C289.385 240.925 289.848 238.287 291.554 236.85C291.943 236.504 292.402 236.243 292.899 236.085C293.396 235.927 293.92 235.876 294.438 235.934C294.957 235.993 295.457 236.16 295.906 236.425C296.355 236.69 296.743 237.047 297.045 237.472C298.793 240.076 296.734 245.346 294.973 247.542C294.828 247.736 292.141 250.436 292.114 250.388L292.079 250.326C291.761 251.161 291.388 252.052 291.009 253.019C290.249 254.794 289.372 256.797 288.246 258.911C287.09 261.203 285.798 263.424 284.378 265.562C282.804 267.969 281.018 270.23 279.039 272.317C279.018 272.342 278.995 272.365 278.97 272.386C279.771 271.944 282.071 270.791 282.258 270.722C284.882 269.748 290.546 269.409 292.473 271.875C292.784 272.294 293.003 272.773 293.117 273.282C293.23 273.791 293.235 274.318 293.13 274.829C293.026 275.34 292.815 275.824 292.511 276.248C292.208 276.672 291.818 277.027 291.368 277.29C289.503 278.478 286.802 278.084 284.841 277.352C282.63 276.523 279.011 272.911 278.721 272.621C276.66 274.696 274.46 276.629 272.139 278.409C270.758 279.459 269.376 280.481 267.995 281.469C268.686 281.109 269.342 280.778 269.438 280.778C272.063 279.804 277.727 279.466 279.654 281.931C279.965 282.35 280.184 282.829 280.297 283.338C280.411 283.848 280.415 284.375 280.311 284.886C280.207 285.397 279.996 285.88 279.692 286.304C279.389 286.728 278.999 287.083 278.549 287.346C276.684 288.534 273.983 288.148 272.022 287.415C270.06 286.683 266.883 283.644 266.061 282.836C265.522 283.209 264.984 283.596 264.438 283.969C261.827 285.765 259.209 287.547 256.695 289.377C255.811 290.019 254.969 290.689 254.112 291.352C254.748 291.028 255.279 290.765 255.362 290.738C257.987 289.764 263.65 289.425 265.577 291.891C265.889 292.309 266.109 292.788 266.223 293.297C266.336 293.806 266.342 294.333 266.238 294.844C266.134 295.355 265.924 295.838 265.621 296.262C265.318 296.687 264.929 297.042 264.479 297.306C262.608 298.494 259.907 298.107 257.945 297.368C255.984 296.629 253.111 293.915 252.137 292.941C251.287 293.632 250.431 294.322 249.643 295.075C249.112 295.579 248.566 296.028 248.062 296.567L246.542 298.114C245.617 299.136 244.657 300.186 243.779 301.195C243.165 301.885 242.585 302.576 242.004 303.267C242.882 302.617 244.615 301.381 244.767 301.291C247.219 299.91 252.745 298.743 255.038 300.884C255.409 301.25 255.699 301.691 255.889 302.177C256.079 302.663 256.164 303.184 256.139 303.705C256.115 304.226 255.98 304.737 255.745 305.202C255.51 305.668 255.18 306.08 254.775 306.409C253.035 307.811 250.334 307.811 248.262 307.411C246.01 306.941 242.046 304.047 241.535 303.688C240.575 304.821 239.649 305.933 238.8 307.003Z" fill="#FFA401"/>
<path d="M208.452 264.409C205.689 264.015 200.433 260.589 200.426 260.589C200.419 260.589 203.734 257.826 203.962 257.661C206.649 255.941 212.844 254.207 215.6 256.466C216.048 256.856 216.408 257.336 216.658 257.874C216.907 258.413 217.041 258.998 217.049 259.592C217.058 260.185 216.941 260.774 216.707 261.32C216.473 261.865 216.126 262.355 215.69 262.758C213.901 264.526 210.807 264.747 208.452 264.409Z" fill="#FFA401"/>
<path d="M156.932 237.893C156.863 237.893 158.155 233.749 158.265 233.501C159.557 230.586 163.791 225.717 167.313 226.089C167.901 226.168 168.465 226.368 168.97 226.679C169.474 226.99 169.908 227.403 170.242 227.892C170.577 228.382 170.804 228.936 170.91 229.519C171.016 230.102 170.998 230.701 170.857 231.277C170.345 233.749 167.887 235.642 165.732 236.657C163.204 237.852 156.932 237.893 156.932 237.893Z" fill="#FFA401"/>
<path d="M151.774 307.003C150.551 308.523 149.439 309.952 148.445 311.265H145.931C147.195 309.642 148.693 307.811 150.337 305.822C151.304 304.662 152.361 303.446 153.459 302.203C152.466 300.979 151.543 299.699 150.696 298.37C148.452 299.122 143.866 298.922 143.272 298.895C143.099 300.366 142.947 301.809 142.823 303.163C142.533 306.237 142.36 308.965 142.242 311.265H140.205C140.371 308.916 140.612 306.126 140.972 302.977C141.144 301.471 141.351 299.875 141.586 298.232C141.006 298.059 136.303 296.588 134.576 295.061C133.008 293.68 131.399 291.47 131.571 289.26C131.595 288.739 131.727 288.229 131.96 287.763C132.193 287.297 132.521 286.885 132.924 286.554C133.326 286.223 133.794 285.981 134.296 285.842C134.799 285.704 135.325 285.673 135.84 285.751C138.927 286.31 141.275 291.456 141.648 294.232C141.648 294.398 141.711 296.201 141.718 297.341C141.814 296.65 141.904 296.021 142.008 295.331C142.215 293.949 142.463 292.616 142.698 291.187C142.85 290.496 143.002 289.805 143.154 289.066C143.306 288.327 143.527 287.623 143.714 286.89C144.176 285.212 144.729 283.527 145.323 281.842C144.128 281.662 139.901 280.944 138.133 279.804C136.365 278.664 134.452 276.737 134.286 274.527C134.226 274.007 134.278 273.48 134.436 272.981C134.594 272.482 134.856 272.022 135.204 271.631C135.552 271.24 135.978 270.927 136.456 270.712C136.933 270.496 137.45 270.385 137.974 270.383C141.11 270.466 144.19 275.218 145.005 277.891C145.054 278.057 145.399 280.046 145.572 281.144C145.938 280.136 146.262 279.127 146.697 278.119C147.858 275.211 149.122 272.296 150.372 269.389C150.752 268.498 151.125 267.6 151.498 266.709C151.076 266.646 146.034 265.907 144.052 264.637C142.298 263.504 140.371 261.57 140.205 259.36C140.146 258.84 140.197 258.313 140.355 257.814C140.513 257.315 140.775 256.855 141.123 256.463C141.471 256.072 141.898 255.759 142.375 255.544C142.852 255.329 143.37 255.217 143.893 255.216C147.029 255.299 150.109 260.05 150.917 262.723C150.98 262.924 151.477 265.79 151.567 266.529C152.396 264.561 153.197 262.592 153.908 260.624C154.886 257.969 155.691 255.253 156.319 252.494C156.118 252.494 150.855 251.714 148.825 250.422C147.07 249.29 145.143 247.356 144.978 245.145C144.917 244.625 144.968 244.098 145.125 243.598C145.283 243.099 145.545 242.638 145.893 242.247C146.241 241.856 146.668 241.542 147.146 241.328C147.624 241.113 148.142 241.002 148.666 241.001C151.802 241.084 154.882 245.836 155.69 248.502C155.745 248.682 156.125 250.864 156.284 251.907H156.464C157.018 249.113 157.321 246.274 157.368 243.426C157.417 241.858 157.368 240.359 157.299 238.902C156.305 238.86 151.774 238.632 149.805 237.652C147.837 236.671 145.806 235.013 145.399 232.817C145.287 232.308 145.284 231.782 145.388 231.272C145.493 230.761 145.703 230.279 146.006 229.855C146.308 229.431 146.697 229.076 147.145 228.811C147.594 228.547 148.093 228.38 148.611 228.32C151.739 228.058 155.345 232.423 156.422 235.006C156.484 235.151 156.919 236.643 157.223 237.769C157.182 237.078 157.147 236.429 157.092 235.801C156.892 233.431 156.567 231.283 156.263 229.377C156.084 228.293 155.897 227.305 155.711 226.414C154.758 225.862 150.931 223.61 149.667 221.876C148.403 220.143 147.34 217.684 147.982 215.563C148.117 215.06 148.356 214.591 148.684 214.186C149.012 213.781 149.421 213.449 149.886 213.213C150.35 212.976 150.859 212.84 151.38 212.813C151.9 212.786 152.42 212.869 152.907 213.056C155.801 214.265 156.989 219.797 156.754 222.588C156.754 222.829 155.98 226.566 155.932 226.538L155.877 226.504C156.07 227.374 156.27 228.314 156.464 229.343C156.809 231.242 157.189 233.397 157.438 235.766C157.733 238.315 157.881 240.88 157.88 243.446C157.89 246.322 157.648 249.192 157.154 252.025C157.154 252.059 157.154 252.094 157.154 252.121C157.583 251.313 158.86 249.075 158.978 248.917C160.628 246.658 165.159 243.26 168.136 244.248C168.626 244.425 169.073 244.703 169.449 245.064C169.824 245.425 170.119 245.861 170.314 246.344C170.51 246.827 170.601 247.346 170.583 247.866C170.565 248.387 170.437 248.898 170.208 249.366C169.303 251.389 166.831 252.557 164.793 253.026C162.493 253.558 157.479 252.536 157.078 252.453C156.502 255.321 155.736 258.147 154.785 260.914C154.24 262.53 153.639 264.139 153.017 265.749C153.411 265.058 153.763 264.443 153.825 264.367C155.476 262.109 160 258.711 162.984 259.698C163.474 259.875 163.921 260.153 164.296 260.515C164.671 260.876 164.966 261.312 165.162 261.795C165.357 262.278 165.449 262.796 165.431 263.317C165.412 263.837 165.285 264.348 165.056 264.816C164.151 266.84 161.685 268.007 159.648 268.477C157.61 268.946 153.286 268.166 152.154 267.945C151.905 268.56 151.67 269.174 151.422 269.789C150.234 272.731 149.039 275.66 147.968 278.568C147.588 279.59 147.278 280.64 146.905 281.641C147.257 281.027 147.554 280.509 147.595 280.439C149.246 278.174 153.77 274.783 156.754 275.764C157.244 275.941 157.691 276.22 158.066 276.582C158.442 276.944 158.737 277.381 158.932 277.864C159.128 278.347 159.219 278.867 159.201 279.388C159.182 279.909 159.055 280.42 158.826 280.888C157.921 282.912 155.455 284.079 153.418 284.542C151.38 285.005 147.471 284.314 146.124 284.052C145.806 285.115 145.482 286.172 145.219 287.215C145.06 287.906 144.853 288.596 144.729 289.329C144.605 290.061 144.453 290.751 144.314 291.456C144.107 292.837 143.879 294.219 143.707 295.559C143.575 296.484 143.472 297.368 143.368 298.259C143.734 297.237 144.501 295.248 144.584 295.089C145.802 292.945 147.55 291.15 149.66 289.874C149.784 289.63 149.932 289.398 150.102 289.184C150.408 288.756 150.801 288.399 151.255 288.135C151.709 287.871 152.214 287.707 152.736 287.653C153.258 287.598 153.786 287.656 154.285 287.821C154.783 287.986 155.241 288.255 155.628 288.61C157.9 290.779 157.009 296.367 155.794 298.888C155.725 299.04 154.765 300.566 154.136 301.519C154.592 301.015 155.02 300.518 155.517 300.007C156.443 298.984 157.389 297.99 158.411 296.919L159.965 295.407C160.47 294.889 161.071 294.405 161.623 293.901C162.942 292.747 164.331 291.649 165.767 290.572C164.876 289.764 161.747 286.835 160.932 284.908C160.117 282.981 159.551 280.322 160.635 278.388C160.876 277.927 161.211 277.521 161.618 277.197C162.026 276.873 162.497 276.638 163.001 276.508C163.505 276.378 164.031 276.355 164.544 276.441C165.058 276.527 165.547 276.719 165.981 277.007C168.551 278.809 168.53 284.466 167.701 287.146C167.653 287.312 166.845 289.163 166.382 290.171C167.238 289.536 168.095 288.893 168.986 288.272C171.562 286.483 174.221 284.749 176.873 283.016L179.291 281.406C178.966 281.116 175.147 277.718 174.228 275.563C173.385 273.65 172.847 270.97 173.931 269.036C174.171 268.574 174.505 268.167 174.913 267.843C175.32 267.518 175.791 267.283 176.296 267.153C176.8 267.022 177.326 267 177.84 267.086C178.354 267.173 178.843 267.367 179.277 267.655C181.846 269.451 181.826 275.114 180.997 277.787C180.935 277.988 179.767 280.66 179.436 281.324C181.211 280.136 182.965 278.941 184.644 277.691C186.927 276.016 189.098 274.193 191.143 272.234C190.991 272.103 186.999 268.574 186.046 266.363C185.203 264.45 184.664 261.77 185.742 259.843C185.982 259.381 186.316 258.974 186.723 258.65C187.131 258.325 187.602 258.09 188.106 257.96C188.611 257.829 189.137 257.807 189.651 257.893C190.164 257.98 190.654 258.174 191.088 258.462C193.664 260.265 193.636 265.921 192.814 268.594C192.759 268.774 191.868 270.804 191.433 271.764C191.484 271.795 191.533 271.83 191.578 271.868C193.584 269.845 195.404 267.644 197.014 265.293C197.919 264.008 198.713 262.737 199.452 261.48C198.644 260.893 194.983 258.199 193.892 256.307C192.801 254.414 192.013 251.893 192.877 249.856C193.062 249.368 193.348 248.925 193.716 248.556C194.084 248.186 194.526 247.899 195.013 247.712C195.5 247.525 196.021 247.442 196.542 247.47C197.063 247.498 197.572 247.636 198.036 247.874C200.799 249.379 201.386 255.008 200.861 257.757C200.861 257.909 200.37 259.401 200.025 260.479C200.35 259.905 200.716 259.318 200.999 258.766C202.139 256.694 203.071 254.711 203.852 252.95C204.294 251.949 204.68 251.037 205.026 250.187C204.528 249.207 202.588 245.208 202.491 243.067C202.394 240.925 202.857 238.287 204.563 236.85C204.952 236.504 205.41 236.243 205.907 236.085C206.404 235.927 206.929 235.876 207.447 235.934C207.965 235.993 208.465 236.16 208.915 236.425C209.364 236.69 209.752 237.047 210.054 237.472C211.801 240.076 209.743 245.346 207.982 247.542C207.837 247.736 205.15 250.436 205.122 250.388L205.088 250.326C204.77 251.161 204.397 252.052 204.017 253.019C203.258 254.794 202.38 256.797 201.255 258.911C200.099 261.203 198.807 263.424 197.387 265.562C195.813 267.969 194.026 270.23 192.048 272.317C192.026 272.342 192.003 272.365 191.979 272.386C192.78 271.944 195.08 270.791 195.266 270.722C197.891 269.748 203.555 269.409 205.482 271.875C205.793 272.294 206.012 272.773 206.125 273.282C206.239 273.791 206.243 274.318 206.139 274.829C206.035 275.34 205.824 275.824 205.52 276.248C205.216 276.672 204.827 277.027 204.376 277.29C202.512 278.478 199.811 278.084 197.849 277.352C195.639 276.523 192.02 272.911 191.73 272.621C189.668 274.696 187.469 276.629 185.148 278.409C183.766 279.459 182.385 280.481 181.004 281.469C181.694 281.109 182.35 280.778 182.447 280.778C185.072 279.804 190.735 279.466 192.662 281.931C192.974 282.35 193.193 282.829 193.306 283.338C193.42 283.848 193.424 284.375 193.32 284.886C193.216 285.397 193.005 285.88 192.701 286.304C192.397 286.728 192.008 287.083 191.557 287.346C189.692 288.534 186.992 288.148 185.03 287.415C183.069 286.683 179.892 283.644 179.07 282.836C178.531 283.209 177.992 283.596 177.447 283.969C174.836 285.765 172.218 287.547 169.704 289.377C168.82 290.019 167.977 290.689 167.121 291.352C167.756 291.028 168.288 290.765 168.371 290.738C170.996 289.764 176.659 289.425 178.586 291.891C178.898 292.309 179.118 292.788 179.231 293.297C179.345 293.806 179.35 294.333 179.247 294.844C179.143 295.355 178.933 295.838 178.63 296.262C178.327 296.687 177.938 297.042 177.488 297.306C175.616 298.494 172.916 298.107 170.954 297.368C168.993 296.629 166.119 293.915 165.146 292.941C164.296 293.632 163.44 294.322 162.652 295.075C162.12 295.579 161.575 296.028 161.071 296.567L159.551 298.114C158.625 299.136 157.665 300.186 156.788 301.195C156.174 301.885 155.593 302.576 155.013 303.267C155.89 302.617 157.624 301.381 157.776 301.291C160.228 299.91 165.753 298.743 168.046 300.884C168.418 301.25 168.708 301.691 168.898 302.177C169.088 302.663 169.173 303.184 169.148 303.705C169.123 304.226 168.989 304.737 168.754 305.202C168.519 305.668 168.188 306.08 167.784 306.409C166.009 307.811 163.308 307.811 161.236 307.411C158.985 306.941 155.02 304.047 154.509 303.688C153.549 304.821 152.623 305.933 151.774 307.003Z" fill="#FFA401"/>
<path d="M15.0387 269.637C17.4976 269.285 22.1666 266.239 22.1666 266.239C22.1666 266.239 19.2312 263.773 19.024 263.642C16.6411 262.116 11.1363 260.562 8.66369 262.578C8.26748 262.926 7.94879 263.353 7.72834 263.831C7.50788 264.31 7.39059 264.83 7.38408 265.357C7.37756 265.884 7.48197 266.406 7.69053 266.89C7.89909 267.374 8.20712 267.809 8.59463 268.166C10.197 269.741 12.9459 269.941 15.0387 269.637Z" fill="#FFA401"/>
<path d="M60.8167 246.078C60.8719 246.078 59.7254 242.397 59.6287 242.176C58.4822 239.585 54.7456 235.269 51.5891 235.586C51.0666 235.656 50.5645 235.834 50.1156 236.11C49.6667 236.387 49.2811 236.755 48.984 237.19C48.6868 237.625 48.4847 238.118 48.3909 238.637C48.2971 239.156 48.3137 239.688 48.4396 240.2C48.8955 242.39 51.0849 244.075 52.9981 244.98C55.2429 246.036 60.8098 246.078 60.8167 246.078Z" fill="#FFA401"/>
<path d="M65.3962 307.48C66.4805 308.861 67.4682 310.097 68.3523 311.265H70.5901C69.4643 309.821 68.152 308.191 66.6739 306.43C65.8106 305.401 64.8712 304.316 63.9112 303.218C64.8024 302.129 65.6303 300.99 66.3907 299.806C68.3799 300.497 72.455 300.297 72.9868 300.269C73.1387 301.581 73.27 302.859 73.3805 304.068C73.636 306.796 73.7949 309.22 73.8985 311.265H75.7081C75.563 309.193 75.3489 306.699 75.0174 303.902C74.8654 302.569 74.679 301.139 74.4787 299.689C74.9898 299.53 79.1684 298.225 80.6948 296.871C82.0762 295.635 83.5197 293.68 83.3678 291.718C83.3467 291.256 83.2289 290.803 83.0218 290.389C82.8147 289.975 82.523 289.609 82.1656 289.315C81.8083 289.02 81.3931 288.805 80.947 288.681C80.5009 288.557 80.0338 288.528 79.5759 288.596C76.8132 289.094 74.7411 293.666 74.4096 296.132C74.4096 296.277 74.3543 297.879 74.3543 298.895C74.2646 298.301 74.1886 297.72 74.0919 297.106C73.9054 295.897 73.6844 294.695 73.4565 293.404C73.3183 292.782 73.1871 292.154 73.049 291.518C72.9108 290.883 72.7174 290.233 72.5517 289.584C72.1442 288.092 71.6538 286.593 71.1219 285.102C72.1856 284.936 75.9567 284.3 77.5039 283.285C79.051 282.27 80.7777 280.564 80.9573 278.602C81.0066 278.141 80.9586 277.675 80.8163 277.234C80.6741 276.793 80.4407 276.387 80.1314 276.042C79.8221 275.697 79.4438 275.421 79.0209 275.231C78.598 275.041 78.14 274.943 77.6765 274.942C74.9138 275.018 72.1511 279.224 71.4604 281.607C71.4189 281.759 71.1081 283.527 70.9562 284.508C70.6315 283.61 70.3138 282.712 69.9547 281.814C68.9256 279.231 67.7997 276.641 66.6946 274.058C66.3493 273.263 66.004 272.469 65.6862 271.682C66.0661 271.626 70.521 270.991 72.303 269.831C73.864 268.822 75.5769 267.109 75.7564 265.141C75.8069 264.681 75.7598 264.215 75.6183 263.774C75.4768 263.334 75.244 262.928 74.9352 262.583C74.6263 262.238 74.2482 261.963 73.8257 261.774C73.4031 261.585 72.9454 261.487 72.4826 261.487C69.7198 261.563 66.9571 265.762 66.2664 268.152C66.2112 268.332 65.7691 270.88 65.6932 271.537C64.9541 269.789 64.2427 268.042 63.6211 266.294C62.7553 263.934 62.0425 261.521 61.4869 259.07C61.6596 259.07 66.3217 258.379 68.1382 257.212C69.6991 256.203 71.412 254.49 71.5916 252.522C71.6421 252.062 71.595 251.596 71.4535 251.156C71.312 250.715 71.0792 250.309 70.7703 249.964C70.4615 249.62 70.0834 249.344 69.6608 249.155C69.2382 248.966 68.7806 248.868 68.3178 248.868C65.555 248.944 62.7923 253.144 62.1016 255.533C62.0532 255.692 61.7148 257.605 61.5767 258.559H61.4178C60.8543 256.084 60.5122 253.565 60.3956 251.03C60.3542 249.649 60.3956 248.267 60.4578 247.003C61.3418 247.003 65.3823 246.769 67.116 245.898C68.8496 245.028 70.673 243.55 71.0321 241.616C71.1319 241.164 71.1355 240.697 71.0429 240.243C70.9503 239.79 70.7634 239.361 70.4945 238.985C70.2255 238.609 69.8805 238.293 69.4817 238.059C69.0829 237.824 68.6393 237.676 68.1796 237.624C65.4169 237.389 62.1983 241.264 61.2728 243.564C61.2244 243.688 60.8307 245.014 60.5821 245.988C60.6235 245.401 60.6512 244.8 60.6995 244.241C60.8722 242.169 61.1623 240.228 61.4385 238.536C61.5974 237.576 61.7632 236.705 61.9289 235.897C62.7785 235.414 66.1766 233.411 67.2955 231.871C68.4145 230.33 69.3676 228.148 68.7943 226.262C68.6749 225.815 68.4629 225.398 68.1719 225.038C67.8808 224.678 67.5174 224.383 67.1052 224.173C66.6929 223.963 66.241 223.841 65.7788 223.817C65.3166 223.792 64.8544 223.866 64.4223 224.031C61.846 225.109 60.7893 230.019 60.9689 232.499C60.9689 232.713 61.6596 236.035 61.6596 236.015L61.777 235.98C61.6043 236.754 61.4247 237.589 61.252 238.501C60.9412 240.193 60.6097 242.106 60.3887 244.206C60.1242 246.473 59.9927 248.754 59.995 251.037C59.9847 253.584 60.1997 256.126 60.6373 258.635V258.724C60.2575 258.034 59.1247 256.017 59.0211 255.872C57.55 253.869 53.4957 250.851 50.8849 251.728C50.4499 251.886 50.0531 252.134 49.7203 252.456C49.3874 252.777 49.1258 253.165 48.9526 253.594C48.7793 254.024 48.6982 254.484 48.7146 254.947C48.731 255.41 48.8445 255.863 49.0477 256.279C49.8488 258.082 52.0383 259.111 53.8824 259.532C55.9545 260.002 60.3818 259.097 60.734 259.021C61.2552 261.572 61.9474 264.085 62.8061 266.543C63.2896 267.98 63.8214 269.409 64.3739 270.832C64.0217 270.224 63.6833 269.672 63.6833 269.603C62.2121 267.593 58.1923 264.574 55.547 265.459C55.1121 265.617 54.7153 265.865 54.3824 266.186C54.0495 266.508 53.7879 266.896 53.6147 267.325C53.4414 267.754 53.3604 268.215 53.3768 268.678C53.3931 269.14 53.5066 269.594 53.7098 270.01C54.511 271.806 56.7004 272.842 58.5446 273.256C60.3887 273.671 64.1944 272.987 65.2028 272.787C65.4169 273.332 65.631 273.885 65.852 274.424C66.9088 277.041 67.9724 279.638 68.9325 282.228C69.2778 283.133 69.5748 284.045 69.8856 284.957C69.5748 284.411 69.3054 283.955 69.2571 283.886C67.7859 281.876 63.7316 278.858 61.1208 279.742C60.6859 279.9 60.2891 280.148 59.9562 280.47C59.6233 280.791 59.3617 281.179 59.1885 281.609C59.0153 282.038 58.9342 282.499 58.9506 282.961C58.967 283.424 59.0804 283.878 59.2836 284.294C60.0848 286.089 62.2812 287.125 64.1184 287.547C65.9556 287.968 69.3952 287.339 70.597 287.111C70.8802 288.051 71.1703 288.99 71.3982 289.916C71.5432 290.544 71.7297 291.145 71.8403 291.794C71.9508 292.444 72.082 293.058 72.2063 293.687C72.3928 294.896 72.5931 296.139 72.745 297.327C72.8625 298.149 72.9523 298.936 73.049 299.73C72.7174 298.819 72.0405 297.05 71.9646 296.912C70.8862 295.004 69.3325 293.408 67.4544 292.278C67.3469 292.058 67.2173 291.85 67.0676 291.656C66.795 291.282 66.4468 290.969 66.0455 290.739C65.6442 290.508 65.1988 290.364 64.7384 290.316C64.2779 290.269 63.8125 290.319 63.3726 290.463C62.9326 290.607 62.5278 290.841 62.1845 291.152C60.1677 293.079 60.9482 298.059 62.0325 300.283C62.1016 300.414 62.9511 301.768 63.5106 302.617L62.3019 301.236C61.48 300.331 60.6373 299.447 59.7256 298.473L58.3443 297.133C57.8953 296.671 57.3635 296.242 56.8662 295.793C55.6989 294.771 54.4626 293.797 53.1987 292.837C53.993 292.147 56.7695 289.515 57.5224 287.809C58.2752 286.103 58.7518 283.727 57.7917 282.007C57.5786 281.596 57.2816 281.235 56.9199 280.946C56.5583 280.657 56.14 280.447 55.6921 280.33C55.2442 280.212 54.7767 280.191 54.3198 280.265C53.863 280.34 53.4269 280.51 53.0398 280.764C50.7536 282.366 50.7744 287.395 51.5065 289.743C51.5548 289.895 52.2731 291.539 52.6876 292.437C51.9209 291.87 51.1612 291.297 50.3669 290.745C48.0807 289.156 45.7186 287.623 43.3633 286.075C42.6726 285.606 41.9336 285.122 41.2153 284.646C41.4985 284.39 44.8759 281.372 45.7116 279.459C46.4576 277.753 46.9411 275.377 45.981 273.657C45.7679 273.246 45.4709 272.884 45.1092 272.595C44.7476 272.306 44.3293 272.096 43.8814 271.979C43.4335 271.862 42.966 271.84 42.5091 271.915C42.0523 271.99 41.6162 272.16 41.2291 272.414C38.9498 274.016 38.9637 279.044 39.7027 281.393C39.7579 281.572 40.794 283.941 41.0841 284.528C39.5093 283.479 37.9553 282.415 36.4565 281.303C34.431 279.818 32.5045 278.203 30.6893 276.468C30.8205 276.351 34.3568 273.215 35.2132 271.246C35.9661 269.547 36.4427 267.171 35.4826 265.452C35.2703 265.04 34.9737 264.677 34.6121 264.388C34.2505 264.098 33.832 263.888 33.3838 263.771C32.9356 263.653 32.4678 263.632 32.0107 263.707C31.5536 263.783 31.1175 263.953 30.7307 264.208C28.4514 265.811 28.4652 270.839 29.2043 273.187C29.2526 273.346 30.04 275.149 30.4337 275.998C30.3916 276.031 30.3478 276.061 30.3025 276.088C28.5199 274.291 26.9018 272.338 25.4677 270.252C24.6665 269.112 23.962 267.98 23.2989 266.861C23.9896 266.343 27.2704 263.946 28.2442 262.268C29.2181 260.589 29.9088 258.344 29.1421 256.535C28.9776 256.102 28.7237 255.709 28.3967 255.381C28.0698 255.054 27.6774 254.798 27.2451 254.633C26.8128 254.467 26.3505 254.395 25.8882 254.42C25.426 254.446 24.9744 254.568 24.5629 254.781C22.1179 256.114 21.5791 261.114 22.0488 263.559C22.0488 263.69 22.4839 265.016 22.7947 265.977C22.5046 265.465 22.1938 264.947 21.9245 264.45C20.9161 262.606 20.1011 260.852 19.3966 259.291C18.996 258.4 18.6575 257.585 18.3467 256.818C18.7888 255.948 20.5155 252.398 20.6053 250.491C20.695 248.585 20.2737 246.251 18.7611 244.966C18.4153 244.658 18.0084 244.427 17.567 244.286C17.1256 244.146 16.6597 244.101 16.1996 244.153C15.7395 244.205 15.2955 244.354 14.8967 244.589C14.4979 244.824 14.1531 245.141 13.8849 245.518C12.3309 247.832 14.1612 252.515 15.7014 254.497C15.8395 254.663 18.2224 257.067 18.25 257.018V256.97C18.5332 257.709 18.8509 258.503 19.2101 259.36C19.9008 260.941 20.6605 262.717 21.6344 264.595C22.6698 266.631 23.8229 268.605 25.0878 270.507C26.4839 272.644 28.0697 274.651 29.8259 276.503L29.895 276.572C29.2043 276.178 27.1322 275.149 26.9734 275.087C24.6389 274.216 19.6245 273.919 17.8978 276.109C17.6179 276.481 17.4199 276.909 17.3169 277.363C17.2139 277.817 17.2082 278.288 17.3002 278.745C17.3922 279.201 17.5797 279.633 17.8506 280.012C18.1214 280.391 18.4694 280.709 18.8716 280.944C20.5362 282 22.9329 281.634 24.6734 280.999C26.6418 280.267 29.8535 277.055 30.1091 276.793C31.942 278.639 33.8989 280.358 35.9661 281.938C37.161 282.871 38.3904 283.769 39.6405 284.653C39.012 284.335 38.4456 284.052 38.3628 284.024C36.0282 283.161 31.007 282.857 29.2872 285.053C29.0062 285.425 28.8073 285.853 28.7037 286.307C28.6001 286.762 28.5941 287.233 28.6862 287.69C28.7782 288.147 28.9662 288.579 29.2377 288.958C29.5091 289.337 29.858 289.654 30.261 289.888C31.9256 290.945 34.3223 290.579 36.0628 289.943C37.8033 289.308 40.6282 286.6 41.3603 285.882L42.8039 286.89C45.1246 288.486 47.4453 290.068 49.7107 291.691C50.4981 292.264 51.2509 292.858 52.0107 293.445C51.4512 293.162 50.9747 292.927 50.8987 292.899C48.5642 292.036 43.5498 291.732 41.8231 293.929C41.5424 294.301 41.3439 294.729 41.2408 295.183C41.1377 295.638 41.1324 296.11 41.2251 296.567C41.3178 297.024 41.5065 297.456 41.7786 297.835C42.0508 298.213 42.4002 298.53 42.8039 298.763C44.4615 299.82 46.8651 299.454 48.6056 298.819C50.3461 298.183 52.8948 295.738 53.765 294.882C54.5248 295.51 55.2776 296.139 55.9821 296.781C56.4587 297.23 56.9422 297.631 57.3635 298.107L58.7449 299.489C59.5668 300.393 60.4232 301.326 61.2037 302.251C61.7562 302.873 62.2674 303.481 62.7785 304.089C62.0049 303.508 60.4578 302.41 60.3196 302.334C58.144 301.125 53.2332 300.069 51.1957 301.975C50.8666 302.301 50.6098 302.692 50.4418 303.123C50.2738 303.555 50.1984 304.017 50.2206 304.479C50.2427 304.942 50.3619 305.394 50.5703 305.808C50.7788 306.221 51.0719 306.586 51.4305 306.879C52.9155 308.17 55.3398 308.191 57.1563 307.811C59.1593 307.39 62.6818 304.828 63.1376 304.503C63.849 305.539 64.6433 306.527 65.3962 307.48Z" fill="#FFA401"/>
<path d="M223.026 23.9675H95.3044C92.3786 23.9675 90.0068 26.3393 90.0068 29.265V279.935C90.0068 282.861 92.3786 285.233 95.3044 285.233H223.026C225.952 285.233 228.323 282.861 228.323 279.935V29.265C228.323 26.3393 225.952 23.9675 223.026 23.9675Z" fill="#263238" stroke="#263238" stroke-linecap="round" stroke-linejoin="round"/>
<path d="M222.183 52.6516H96.1611V256.542H222.183V52.6516Z" fill="white" stroke="#263238" stroke-linecap="round" stroke-linejoin="round"/>
<path d="M172.87 38.3821H145.47C144.976 38.3821 144.501 38.1856 144.152 37.8358C143.802 37.4861 143.605 37.0118 143.605 36.5172C143.605 36.2717 143.652 36.0285 143.745 35.8014C143.839 35.5744 143.976 35.368 144.149 35.1941C144.322 35.0202 144.528 34.8822 144.755 34.7881C144.982 34.6939 145.225 34.6454 145.47 34.6454H172.87C173.115 34.6454 173.358 34.6939 173.585 34.7881C173.812 34.8822 174.018 35.0202 174.191 35.1941C174.364 35.368 174.501 35.5744 174.595 35.8014C174.688 36.0285 174.736 36.2717 174.735 36.5172C174.735 37.0118 174.538 37.4861 174.188 37.8358C173.839 38.1856 173.364 38.3821 172.87 38.3821Z" fill="white"/>
<path d="M166.638 268.055C166.638 266.577 166.2 265.133 165.378 263.904C164.557 262.675 163.39 261.717 162.024 261.151C160.659 260.585 159.156 260.437 157.707 260.726C156.257 261.014 154.925 261.726 153.88 262.771C152.835 263.816 152.123 265.148 151.835 266.597C151.547 268.047 151.695 269.55 152.26 270.915C152.826 272.281 153.784 273.448 155.013 274.269C156.242 275.09 157.687 275.529 159.165 275.529C160.146 275.53 161.118 275.337 162.026 274.962C162.933 274.586 163.757 274.036 164.451 273.342C165.145 272.648 165.696 271.823 166.071 270.916C166.446 270.009 166.639 269.037 166.638 268.055Z" fill="white" stroke="#263238" stroke-width="0.704333" stroke-linecap="round" stroke-linejoin="round"/>
<path d="M162.957 264.264H155.38V271.84H162.957V264.264Z" fill="#263238"/>
<path d="M231.535 179.227L230.72 185.443C230.72 185.443 227.349 208.532 229.684 220.467C232.018 232.402 236.425 244.593 236.687 247.445C236.95 250.298 235.389 261.453 237.205 270.535C239.022 279.618 242.392 297.513 242.392 297.513L239.54 304.261C239.54 304.261 233.572 308.15 232.799 309.448C232.685 309.593 232.607 309.763 232.572 309.944C232.537 310.125 232.544 310.311 232.595 310.488C232.646 310.666 232.737 310.828 232.863 310.963C232.988 311.098 233.144 311.201 233.317 311.265H251.965C252.537 309.866 252.803 308.361 252.746 306.851V288.693C252.746 286.877 253.782 256.01 254.818 250.56C255.854 245.111 256.89 203.863 256.89 203.863H257.933C257.933 203.863 262.864 244.848 264.149 249.262C265.434 253.675 270.897 272.607 272.437 276.503C273.977 280.398 275.815 293.88 276.851 297.258C277.843 300.313 278.623 303.433 279.185 306.596C279.451 308.194 279.886 309.759 280.484 311.265H294.539C294.539 311.265 294.802 308.93 293.759 307.376C292.716 305.822 285.982 299.088 284.939 294.143C283.896 289.197 286.5 266.37 286.251 258.344C286.002 250.319 283.654 249.262 283.654 242.258C283.654 235.255 286.251 213.982 286.251 203.863C286.251 193.745 284.87 184.42 282.335 179.095L278.729 175.587H234.09L231.535 179.227Z" fill="#D9D9D9" stroke="#263238" stroke-linecap="round" stroke-linejoin="round"/>
<path d="M287.044 298.777V298.812C287.044 298.812 283.411 296.477 282.113 298.294C280.815 300.11 280.814 301.146 280.814 301.146H278.052C278.564 302.937 278.967 304.757 279.26 306.596C279.526 308.194 279.961 309.759 280.559 311.265H294.538C294.538 311.265 294.801 308.93 293.758 307.376C293.026 306.271 289.455 302.583 287.044 298.777Z" fill="#FFA401" stroke="#263238" stroke-linecap="round" stroke-linejoin="round"/>
<path d="M280.532 311.265H294.539C294.59 310.664 294.574 310.059 294.491 309.462H279.903C280.221 310.498 280.532 311.265 280.532 311.265Z" fill="white" stroke="#263238" stroke-linecap="round" stroke-linejoin="round"/>
<path d="M252.772 306.851V302.445H247.841C247.841 302.445 248.103 300.373 245.769 298.812C243.434 297.251 241.093 300.884 241.093 300.884H240.968L239.539 304.254C239.539 304.254 233.571 308.143 232.797 309.441C232.684 309.586 232.606 309.756 232.571 309.937C232.535 310.118 232.543 310.304 232.594 310.482C232.644 310.659 232.736 310.821 232.861 310.956C232.987 311.091 233.142 311.195 233.315 311.258H251.964C252.544 309.863 252.819 308.361 252.772 306.851Z" fill="#FFA401" stroke="#263238" stroke-linecap="round" stroke-linejoin="round"/>
<path d="M232.786 309.462C232.676 309.608 232.601 309.777 232.568 309.957C232.535 310.137 232.545 310.322 232.597 310.498C232.648 310.673 232.741 310.834 232.866 310.967C232.991 311.1 233.146 311.202 233.318 311.265H251.966C252.22 310.688 252.4 310.083 252.505 309.462H232.786Z" fill="white" stroke="#263238" stroke-linecap="round" stroke-linejoin="round"/>
<path d="M284.87 284.577C285.305 275.743 286.41 263.732 286.251 258.331C285.995 250.284 283.654 249.248 283.654 242.245C283.654 235.241 286.251 213.982 286.251 203.863C286.251 193.745 284.87 184.42 282.335 179.095L278.729 175.587H234.09L231.535 179.227L230.72 185.443C230.72 185.443 227.349 208.532 229.684 220.467C232.018 232.402 236.425 244.593 236.687 247.445C236.95 250.298 235.389 261.453 237.205 270.535C238.007 274.52 239.098 280.205 240.079 285.33C244.259 286.277 248.546 286.665 252.829 286.483C253.05 278.975 253.948 255.271 254.846 250.567C255.882 245.118 256.918 203.87 256.918 203.87H257.933C257.933 203.87 262.864 244.855 264.149 249.269C265.434 253.682 270.897 272.614 272.437 276.509C273.128 278.167 273.819 281.565 274.509 285.184C277.963 285.795 281.511 285.587 284.87 284.577Z" fill="white" stroke="#263238" stroke-linecap="round" stroke-linejoin="round"/>
<path d="M261.076 201.529L275.083 190.374" stroke="#263238" stroke-linecap="round" stroke-linejoin="round"/>
<path d="M240.576 191.41L247.842 197.378" stroke="#263238" stroke-linecap="round" stroke-linejoin="round"/>
<path d="M271.055 65.6987C271.055 65.6987 265.095 62.1762 265.233 64.0756C265.371 65.9749 267.94 67.3218 267.94 67.3218C267.94 67.3218 259.403 66.1062 258.05 66.6311C256.696 67.156 259.003 67.8536 259.003 67.8536C259.003 67.8536 248.435 75.9761 244.782 81.5292C241.128 87.0823 237.875 95.2116 241.667 101.442C245.458 107.672 251.012 112.548 260.356 115.255C269.701 117.963 278.908 115.117 285.138 112.548C291.368 109.978 297.571 102.657 296.514 93.4504C295.457 84.2436 287.279 74.6361 281.181 68.1437C275.082 61.6513 271.297 62.6182 271.297 63.5368C271.281 64.2632 271.2 64.9866 271.055 65.6987Z" fill="#263238" stroke="#263238" stroke-linecap="round" stroke-linejoin="round"/>
<path d="M256.441 104.17L255.06 114.592C255.06 114.592 245.169 117.838 241.516 119.33C237.862 120.822 236.232 122.715 235.555 124.338C234.878 125.961 225.195 148.512 224.78 150.653C224.366 152.794 225.05 153.768 228.026 155.122C231.003 156.475 239.285 151.468 239.285 151.468L240.369 155.26C240.369 155.26 234.947 164.467 234.001 167.443C233.055 170.42 231.563 179.227 231.563 179.227C231.563 179.227 241.854 184.372 258.106 183.972C274.358 183.571 282.349 179.095 282.349 179.095C282.349 179.095 280.588 170.289 278.695 165.143C276.803 159.998 275.173 157.967 275.173 155.937C275.173 153.906 281.133 143.339 281.133 143.339L293.717 149.272C293.717 149.272 290.748 139.008 289.933 132.101C289.117 125.194 287.715 124.068 285.001 121.63C282.287 119.192 270.379 115.677 269.972 115.414C269.564 115.152 270.51 103.769 270.51 103.769C270.51 103.769 260.233 106.477 256.441 104.17Z" fill="#D9D9D9" stroke="#263238" stroke-linecap="round" stroke-linejoin="round"/>
<path d="M264.3 111.305C266.193 110.614 268.444 108.825 270.212 107.223C270.358 105.282 270.482 103.769 270.482 103.769C270.482 103.769 260.232 106.491 256.44 104.184L255.508 111.09C257.607 112.969 261.033 112.534 264.3 111.305Z" fill="#263238" stroke="#263238" stroke-linecap="round" stroke-linejoin="round"/>
<path d="M278.653 165.143C276.754 159.998 275.13 157.967 275.13 155.937C275.13 153.906 281.091 143.339 281.091 143.339L293.675 149.272C293.675 149.272 290.705 139.008 289.89 132.101C289.455 128.364 288.834 126.327 287.936 124.849C268.638 127.301 247.185 122.901 238.628 120.822C237.269 121.662 236.19 122.885 235.527 124.338C234.836 125.968 225.166 148.512 224.752 150.653C224.337 152.794 225.021 153.768 227.998 155.122C230.975 156.475 239.284 151.468 239.284 151.468L240.368 155.26C240.368 155.26 234.946 164.467 234 167.443C233.054 170.42 231.562 179.226 231.562 179.226C231.562 179.226 241.853 184.372 258.105 183.972C274.357 183.571 282.348 179.095 282.348 179.095C282.348 179.095 280.559 170.289 278.653 165.143Z" fill="#FFA401" stroke="#263238" stroke-linecap="round" stroke-linejoin="round"/>
<path d="M240.997 147.738C240.997 147.738 238.303 142.095 239.035 139.153C239.767 136.211 240.265 135.472 240.265 135.472" stroke="#263238" stroke-linecap="round" stroke-linejoin="round"/>
<path d="M289.904 132.101C289.469 128.364 288.847 126.327 287.95 124.849C268.652 127.301 247.199 122.901 238.642 120.822C237.283 121.662 236.204 122.885 235.54 124.338C235.306 124.911 233.945 128.081 232.273 132.032C239.871 134.104 268.97 141.308 290.892 137.93C290.477 135.921 290.118 133.897 289.904 132.101Z" fill="#FFA401" stroke="#263238" stroke-linecap="round" stroke-linejoin="round"/>
<path d="M259.087 78.9874L276.354 90.1144L275.878 94.6107C275.878 94.6107 278.958 91.5372 279.435 94.8525C279.911 98.1677 278.744 99.8254 276.589 100.772C274.434 101.718 273.274 101.462 273.274 101.462C273.274 101.462 268.066 107.14 264.295 108.563C260.524 109.985 256.49 110.358 254.625 107.278C252.76 104.197 250.108 98.6167 250.819 95.3014C251.531 91.9861 257.934 78.9874 257.934 78.9874H259.087Z" fill="#D9D9D9" stroke="#263238" stroke-linecap="round" stroke-linejoin="round"/>
<path d="M260.787 89.5066C260.784 90.3434 260.496 91.1543 259.972 91.8065C259.164 92.6216 257.265 93.7059 257.265 94.514C257.265 95.3221 259.026 96.9522 260.649 96.8209" stroke="#263238" stroke-linecap="round" stroke-linejoin="round"/>
<path d="M257.801 98.5822C258.605 99.1305 259.561 99.4122 260.534 99.3874C261.507 99.3627 262.448 99.0326 263.223 98.444" stroke="#263238" stroke-linecap="round" stroke-linejoin="round"/>
<path d="M264.309 91.5372C264.309 91.5372 267.285 90.4528 268.909 92.7528" stroke="#263238" stroke-linecap="round" stroke-linejoin="round"/>
<path d="M255.093 90.1835C255.093 90.1835 257.531 89.0991 258.753 90.4528" stroke="#263238" stroke-linecap="round" stroke-linejoin="round"/>
<path d="M256.585 85.5766C257.031 85.0304 257.633 84.6337 258.311 84.4399C258.989 84.246 259.71 84.2643 260.377 84.4922" stroke="#263238" stroke-linecap="round" stroke-linejoin="round"/>
<path d="M265.66 85.8459C265.66 85.8459 269.452 85.9841 270.26 89.5066" stroke="#263238" stroke-linecap="round" stroke-linejoin="round"/>
<path d="M230.995 146.191C230.995 146.191 226.795 147.814 225.469 150.39C224.143 152.967 224.385 158.92 229.662 160.412C234.938 161.904 273.948 154.044 273.948 154.044C274.904 155.503 275.944 156.906 277.063 158.244C278.016 159.19 280.455 161.089 280.586 161.897C280.717 162.705 280.993 167.858 282.078 168.113C283.162 168.369 282.768 165.675 282.768 165.675C282.768 165.675 284.53 163.106 284.53 161.883C284.53 160.661 284.799 156.738 284.53 155.792C284.26 154.845 277.892 149.292 276.538 148.885C275.185 148.477 240.512 147.503 237.266 146.985C234.02 146.467 232.072 146.046 230.995 146.191Z" fill="#D9D9D9" stroke="#263238" stroke-linecap="round" stroke-linejoin="round"/>
<path d="M265.503 108.919L269.651 111.676C270.385 112.164 271.375 111.964 271.863 111.23L280.224 98.6503C280.712 97.9164 280.512 96.9261 279.778 96.4384L275.631 93.6819C274.897 93.1941 273.907 93.3936 273.419 94.1274L265.058 106.707C264.57 107.441 264.77 108.432 265.503 108.919Z" fill="#FFA401" stroke="#263238" stroke-miterlimit="10"/>
<path d="M277.962 109.136C277.962 109.136 278.818 106.939 279.668 105.358C280.517 103.776 280.524 103.037 279.917 103.037C279.267 103.154 278.666 103.459 278.189 103.915C277.711 104.371 277.378 104.956 277.23 105.6C276.935 106.92 276.853 108.28 276.988 109.626L277.962 109.136Z" fill="#D9D9D9" stroke="#263238" stroke-miterlimit="10"/>
<path d="M270.635 117.555C270.635 117.555 277.59 110.6 277.832 109.992C278.073 109.384 277.832 101.462 277.728 99.2245C277.73 99.0579 277.671 98.8963 277.564 98.7694C277.456 98.6425 277.306 98.5588 277.141 98.5338C277.043 98.5126 276.941 98.5131 276.843 98.5351C276.746 98.5571 276.654 98.6002 276.574 98.6613C276.495 98.7224 276.429 98.8002 276.383 98.8891C276.336 98.978 276.31 99.0759 276.305 99.1761L275.759 105.593L274.164 97.5116C274.138 97.3482 274.053 97.1997 273.926 97.0932C273.8 96.9867 273.639 96.9293 273.473 96.9314C273.377 96.931 273.282 96.9507 273.194 96.9893C273.106 97.0278 273.027 97.0843 272.962 97.1552C272.897 97.2261 272.847 97.3097 272.816 97.4008C272.785 97.4919 272.774 97.5885 272.783 97.6843L273.232 106.663L271.229 98.9759C271.204 98.8803 271.16 98.7906 271.1 98.712C271.041 98.6334 270.966 98.5675 270.88 98.518C270.795 98.4685 270.701 98.4365 270.603 98.4238C270.505 98.4111 270.405 98.418 270.31 98.444C270.139 98.4907 269.989 98.597 269.889 98.7439C269.789 98.8908 269.745 99.0686 269.764 99.2452L270.669 107.533L268.963 108.998V106.069L266.891 102.616C266.816 102.491 266.697 102.4 266.558 102.359C266.418 102.318 266.269 102.331 266.138 102.395C266.004 102.46 265.901 102.576 265.851 102.716C265.8 102.857 265.807 103.012 265.869 103.148L267.25 106.18C267.25 106.18 264.564 117.162 264.439 117.528C264.315 117.894 264.93 119.848 265.296 120.58C265.662 121.313 282.01 155.957 282.984 157.297C283.958 158.637 290.547 160.716 293.476 157.539C296.404 154.362 295.43 151.199 293.842 147.538C292.253 143.877 270.635 117.555 270.635 117.555Z" fill="#D9D9D9" stroke="#263238" stroke-miterlimit="10"/>
<path d="M157.093 121.326C173.114 121.326 186.102 108.339 186.102 92.3177C186.102 76.2966 173.114 63.3089 157.093 63.3089C141.072 63.3089 128.084 76.2966 128.084 92.3177C128.084 108.339 141.072 121.326 157.093 121.326Z" fill="#FFA401"/>
<path d="M174.802 79.1877H140.42L157.369 95.5293L174.802 79.1877Z" fill="#263238"/>
<path d="M164.255 91.9101L176.224 102.491V80.6934L164.255 91.9101Z" fill="#263238"/>
<path d="M150.614 91.8894L138.485 80.203V101.994L150.614 91.8894Z" fill="#263238"/>
<path d="M162.736 93.3329L157.348 98.3819L152.113 93.3398L139.494 103.852H174.636L162.736 93.3329Z" fill="#263238"/>
<path d="M157.093 184.869C173.114 184.869 186.102 171.882 186.102 155.861C186.102 139.84 173.114 126.852 157.093 126.852C141.072 126.852 128.084 139.84 128.084 155.861C128.084 171.882 141.072 184.869 157.093 184.869Z" fill="#FFA401"/>
<path d="M153.217 146.709C153.299 146.869 153.414 147.01 153.554 147.123C153.694 147.236 153.856 147.318 154.03 147.364C154.204 147.411 154.385 147.42 154.563 147.391C154.741 147.363 154.91 147.298 155.061 147.199C156.007 146.681 156.954 146.163 157.824 145.563C158.135 145.266 158.392 144.918 158.584 144.533C158.411 144.126 158.321 143.843 158.183 143.594C157.81 142.903 157.409 142.213 157.016 141.522L153.017 134.615C152.938 134.414 152.812 134.234 152.651 134.09C152.489 133.946 152.296 133.842 152.087 133.786C151.878 133.73 151.659 133.725 151.448 133.769C151.236 133.813 151.038 133.907 150.869 134.042C150.012 134.525 149.163 135.009 148.327 135.52C148.165 135.597 148.022 135.708 147.906 135.845C147.791 135.982 147.706 136.142 147.657 136.315C147.608 136.487 147.596 136.668 147.622 136.845C147.648 137.023 147.712 137.193 147.809 137.343C149.605 140.479 151.407 143.601 153.217 146.709Z" fill="#263238"/>
<path d="M173.131 169.44C171.381 166.4 169.627 163.366 167.868 160.336C167.793 160.152 167.677 159.988 167.529 159.855C167.381 159.723 167.205 159.626 167.013 159.572C166.822 159.518 166.621 159.509 166.426 159.544C166.23 159.58 166.046 159.659 165.886 159.777C165.006 160.27 164.136 160.774 163.275 161.289C163.112 161.366 162.967 161.475 162.849 161.61C162.731 161.746 162.642 161.904 162.588 162.075C162.534 162.247 162.516 162.427 162.536 162.606C162.556 162.785 162.612 162.957 162.702 163.113L168.42 172.872C168.627 173.051 168.885 173.159 169.157 173.18C169.43 173.201 169.701 173.134 169.933 172.99C170.859 172.485 171.791 171.981 172.696 171.394C173.016 171.103 173.291 170.766 173.511 170.393C173.409 170.066 173.282 169.747 173.131 169.44Z" fill="#263238"/>
<path d="M161.293 163.741C160.73 163.943 160.129 164.02 159.533 163.968C158.937 163.915 158.359 163.735 157.84 163.438C157.252 163.137 156.701 162.771 156.196 162.346C153.642 160.097 151.857 157.105 151.092 153.789C150.587 151.717 150.449 149.645 152.038 147.987L146.153 137.903C145.69 138.2 145.241 138.483 144.82 138.78C143.968 139.309 143.278 140.061 142.824 140.955C142.369 141.849 142.169 142.85 142.244 143.85C142.349 145.901 142.648 147.939 143.135 149.935C145.085 156.849 148.556 163.239 153.295 168.638C155.054 170.787 157.154 172.633 159.511 174.102C160.672 174.826 162.025 175.18 163.392 175.117C164.759 175.054 166.074 174.577 167.164 173.749L161.293 163.741Z" fill="#263238"/>
<path d="M157.093 248.412C173.114 248.412 186.102 235.425 186.102 219.404C186.102 203.383 173.114 190.395 157.093 190.395C141.072 190.395 128.084 203.383 128.084 219.404C128.084 235.425 141.072 248.412 157.093 248.412Z" fill="#FFA401"/>
<path d="M152.817 224.839H146.373V228.106C146.372 229.124 146.757 230.104 147.451 230.849C148.144 231.593 149.095 232.047 150.11 232.119L152.817 224.839Z" fill="#263238"/>
<path d="M170.782 213.65H168.019V219.335C168.019 220.8 167.437 222.205 166.401 223.242C165.365 224.278 163.959 224.86 162.494 224.86H162.397L152.534 232.133H163.24L160.594 239.247L170.216 232.133H170.796C171.864 232.133 172.889 231.709 173.646 230.954C174.402 230.199 174.828 229.175 174.829 228.106V217.677C174.829 217.147 174.723 216.622 174.519 216.132C174.315 215.643 174.017 215.198 173.641 214.824C173.265 214.45 172.819 214.154 172.328 213.953C171.838 213.751 171.312 213.648 170.782 213.65Z" fill="#263238"/>
<path d="M162.488 204.899H142.106C141.038 204.899 140.014 205.324 139.258 206.079C138.503 206.834 138.079 207.858 138.079 208.926V219.355C138.079 220.424 138.503 221.449 139.258 222.205C140.013 222.961 141.037 223.387 142.106 223.389H154.946L152.3 230.455L161.928 223.368H162.509C163.578 223.366 164.603 222.941 165.359 222.185C166.115 221.429 166.54 220.404 166.542 219.335V208.905C166.535 207.837 166.104 206.815 165.344 206.064C164.584 205.313 163.556 204.894 162.488 204.899Z" fill="#263238"/>
<path d="M146.711 215.301C147.508 215.301 148.155 214.655 148.155 213.857C148.155 213.06 147.508 212.414 146.711 212.414C145.914 212.414 145.268 213.06 145.268 213.857C145.268 214.655 145.914 215.301 146.711 215.301Z" fill="#FFA401"/>
<path d="M154.033 213.878C154.033 214.164 153.948 214.443 153.789 214.68C153.631 214.918 153.405 215.103 153.141 215.212C152.878 215.321 152.587 215.35 152.307 215.294C152.027 215.238 151.77 215.101 151.568 214.899C151.366 214.697 151.229 214.44 151.173 214.16C151.118 213.88 151.146 213.59 151.255 213.326C151.365 213.062 151.55 212.837 151.787 212.678C152.024 212.519 152.304 212.435 152.589 212.435C152.971 212.436 153.337 212.589 153.608 212.859C153.878 213.13 154.031 213.496 154.033 213.878Z" fill="#FFA401"/>
<path d="M159.904 213.878C159.904 214.164 159.819 214.443 159.66 214.681C159.501 214.918 159.275 215.103 159.011 215.212C158.747 215.322 158.456 215.35 158.176 215.293C157.896 215.237 157.639 215.099 157.437 214.896C157.235 214.694 157.098 214.436 157.044 214.156C156.989 213.875 157.018 213.585 157.128 213.321C157.239 213.057 157.425 212.832 157.663 212.675C157.901 212.517 158.181 212.433 158.467 212.435C158.849 212.436 159.214 212.589 159.483 212.86C159.753 213.13 159.904 213.497 159.904 213.878Z" fill="#FFA401"/>
<path d="M87.4501 134.871L87.9751 134.18L96.5326 122.521C96.5326 122.521 97.693 115.566 98.2732 113.826C98.8533 112.085 100.014 108.418 100.4 107.064C100.787 105.71 101.174 104.163 101.948 104.743C102.721 105.323 102.721 107.644 102.334 108.804C101.994 109.864 101.927 110.993 102.141 112.085C102.334 112.665 112.577 103.97 113.537 104.743C114.497 105.517 113.157 109.191 111.224 111.698C109.29 114.205 101.367 123.295 101.367 123.295C101.367 123.295 92.2849 147.641 89.5774 151.509C86.87 155.377 86.2967 153.637 83.5892 151.509C80.8817 149.382 77.373 144.554 77.373 144.554L87.4501 134.871Z" fill="white" stroke="#263238" stroke-linecap="round" stroke-linejoin="round"/>
<path d="M101.559 118.64C101.559 118.64 102.526 115.186 103.493 114.385C104.459 113.584 108.127 111.298 108.127 111.298L110.641 103.562C110.641 103.562 111.415 102.982 111.221 104.722C111.028 106.463 110.641 110.331 110.061 112.064C109.481 113.798 106.967 116.899 106.967 116.899" fill="white"/>
<path d="M101.559 118.64C101.559 118.64 102.526 115.186 103.493 114.385C104.459 113.584 108.127 111.298 108.127 111.298L110.641 103.562C110.641 103.562 111.415 102.982 111.221 104.722C111.028 106.463 110.641 110.331 110.061 112.064C109.481 113.798 106.967 116.899 106.967 116.899" stroke="#263238" stroke-linecap="round" stroke-linejoin="round"/>
<path d="M73.5391 105.303L88.4164 134.484L77.0201 146.081L73.7325 135.064L73.5391 105.303Z" fill="#FFA401" stroke="#263238" stroke-linecap="round" stroke-linejoin="round"/>
<path d="M75.6514 141.508L77.0189 146.081L88.4152 134.484L86.3639 130.464L75.6514 141.508Z" fill="#263238" stroke="#263238" stroke-miterlimit="10"/>
<path d="M37.8639 297.451L36.4825 302.928C36.4825 302.928 28.3808 307.418 27.7592 308.039C27.1375 308.661 27.3793 311.279 27.3793 311.279H50.5725C50.6903 309.271 50.5229 307.257 50.0752 305.297C49.7245 302.868 49.51 300.422 49.4328 297.969L37.8639 297.451Z" fill="#263238" stroke="#263238" stroke-linecap="round" stroke-linejoin="round"/>
<path d="M27.3855 311.265H50.5718C50.5987 310.766 50.5987 310.265 50.5718 309.766H27.3441C27.3234 310.574 27.3855 311.265 27.3855 311.265Z" fill="white" stroke="#263238" stroke-linecap="round" stroke-linejoin="round"/>
<path d="M28.2628 307.811C29.8515 306.455 31.7998 305.589 33.8712 305.318C37.6078 304.689 40.9783 306.064 41.7243 306.81C42.4702 307.556 42.9675 309.676 42.9675 309.676L27.3442 309.801C27.2279 309.616 27.1596 309.406 27.1454 309.189C27.1311 308.971 27.1715 308.754 27.2628 308.556C27.3542 308.359 27.4935 308.187 27.6681 308.057C27.8428 307.927 28.0472 307.842 28.2628 307.811Z" fill="white" stroke="#263238" stroke-linecap="round" stroke-linejoin="round"/>
<path d="M48.2054 301.851C48.2054 303.198 47.7357 304.282 47.1486 304.282C46.5615 304.282 46.085 303.198 46.085 301.851C46.085 300.504 46.5615 299.42 47.1486 299.42C47.7357 299.42 48.2054 300.511 48.2054 301.851Z" fill="white" stroke="#263238" stroke-linecap="round" stroke-linejoin="round"/>
<path d="M95.7424 297.451L97.1237 302.928C97.1237 302.928 105.225 307.418 105.847 308.039C106.469 308.661 106.22 311.279 106.22 311.279H83.0338C82.9117 309.271 83.0792 307.257 83.5311 305.297C83.8769 302.868 84.089 300.422 84.1665 297.969L95.7424 297.451Z" fill="#263238" stroke="#263238" stroke-linecap="round" stroke-linejoin="round"/>
<path d="M106.214 311.265H83.0346C82.9955 310.766 82.9817 310.266 82.9932 309.766H106.262C106.273 310.266 106.257 310.766 106.214 311.265Z" fill="white" stroke="#263238" stroke-linecap="round" stroke-linejoin="round"/>
<path d="M105.345 307.811C103.755 306.457 101.808 305.591 99.737 305.318C96.0004 304.689 92.6299 306.064 91.8839 306.81C91.138 307.556 90.6338 309.676 90.6338 309.676L106.264 309.801C106.38 309.616 106.449 309.406 106.463 309.189C106.477 308.971 106.437 308.754 106.345 308.556C106.254 308.359 106.115 308.187 105.94 308.057C105.765 307.927 105.561 307.842 105.345 307.811Z" fill="white" stroke="#263238" stroke-linecap="round" stroke-linejoin="round"/>
<path d="M85.3965 301.851C85.3965 303.198 85.8731 304.282 86.4601 304.282C87.0472 304.282 87.5169 303.198 87.5169 301.851C87.5169 300.504 87.0472 299.42 86.4601 299.42C85.8731 299.42 85.3965 300.511 85.3965 301.851Z" fill="white" stroke="#263238" stroke-linecap="round" stroke-linejoin="round"/>
<path d="M37.6006 181.181L36.834 193.268L37.8631 297.437L49.4321 297.955L61.008 201.757L62.5551 201.239L84.1666 297.955L95.7425 297.437L90.59 232.623L82.8129 176.996L37.6006 181.181Z" fill="white" stroke="#263238" stroke-linecap="round" stroke-linejoin="round"/>
<path d="M62.0244 184.462V193.282L64.428 189.276L64.8355 183.26" stroke="#808080" stroke-linecap="round" stroke-linejoin="round"/>
<path d="M45.5154 103.949C45.5154 103.949 19.4282 115.352 19.0414 116.492C18.6547 117.631 11.6995 146.447 12.8253 149.147C13.5169 150.662 14.7551 151.859 16.292 152.5C17.829 153.14 19.5511 153.176 21.1135 152.601C24.781 151.219 28.2621 137.143 28.2621 137.143C28.2621 137.143 36.3776 161.877 36.3776 164.391C36.3776 166.905 37.1512 182.348 37.1512 182.348C37.1512 182.348 52.0285 184.469 64.3987 181.575C76.7689 178.681 82.7571 176.933 82.7571 176.933L76.9623 141.57C76.9623 141.57 73.868 106.594 73.5088 105.24C73.1497 103.887 51.0892 103.5 49.3349 103.693C47.5805 103.887 45.5154 103.949 45.5154 103.949Z" fill="#FFA401" stroke="#263238" stroke-linecap="round" stroke-linejoin="round"/>
<path d="M25.7272 145.5C24.8408 142.649 23.2574 140.064 21.1204 137.979C18.9654 136.066 16.0991 137.15 14.1376 138.338C13.1015 143.705 12.4316 148.215 12.8598 149.202C13.5514 150.717 14.7896 151.914 16.3266 152.555C17.8635 153.195 19.5856 153.231 21.148 152.656C22.8264 152.034 24.4771 148.816 25.7272 145.5Z" fill="#263238" stroke="#263238" stroke-miterlimit="10"/>
<path d="M33.3652 153.098L77.3688 143.85L77.0165 141.667C77.0165 141.667 76.9474 140.976 76.8438 139.726L32.1289 149.12C32.5433 150.404 32.9577 151.717 33.3652 153.098Z" fill="#263238"/>
<path d="M82.8153 176.996L78.4709 150.515L35.2686 159.494C35.792 161.117 36.1824 162.78 36.4358 164.467C36.4358 166.974 37.2094 182.424 37.2094 182.424C37.2094 182.424 52.0867 184.545 64.4569 181.651C76.8271 178.757 82.8153 176.996 82.8153 176.996Z" fill="#263238" stroke="#263238" stroke-miterlimit="10"/>
<path d="M49.3835 103.755C47.643 103.949 45.5157 103.949 45.5157 103.949C45.5157 103.949 40.6257 106.09 35.0449 108.611L57.6303 131.928C57.6303 131.928 62.4651 108.673 62.0369 106.67C61.8335 105.732 61.5658 104.809 61.2357 103.907C55.6895 103.707 50.2124 103.666 49.3835 103.755Z" fill="#263238" stroke="#263238" stroke-miterlimit="10"/>
<path d="M56.7256 97.187C56.7256 97.187 57.886 107.236 58.4661 109.17C59.0463 111.104 55.1785 124.628 55.1785 124.628C55.1785 124.628 43.9687 113.225 42.6149 109.944C41.2612 106.663 38.1738 95.2531 38.1738 95.2531C38.1738 95.2531 48.0299 100.281 56.7256 97.187Z" fill="white" stroke="#263238" stroke-linecap="round" stroke-linejoin="round"/>
<path d="M38.1738 95.2531C38.1738 95.2531 38.8645 97.8569 39.7624 100.93C40.2321 101.193 40.7984 101.49 41.4891 101.835C45.089 103.742 49.1891 104.492 53.2308 103.983C54.0746 103.845 54.8743 103.51 55.5652 103.006C56.2562 102.503 56.8193 101.844 57.2091 101.082C56.9328 98.9206 56.7325 97.187 56.7325 97.187C48.0299 100.281 38.1738 95.2531 38.1738 95.2531Z" fill="#263238" stroke="#263238" stroke-linecap="round" stroke-linejoin="round"/>
<path d="M51.7608 71.825C51.7608 71.825 54.6893 77.6889 56.6509 80.2307C58.6124 82.7724 61.7343 88.4498 60.3668 91.772C58.9992 95.0942 58.1013 100.751 53.7155 101.359C49.6732 101.861 45.5742 101.109 41.9738 99.2038C38.4513 97.4425 38.0646 96.8554 38.0646 96.8554C38.0646 96.8554 35.1292 96.8554 33.3679 95.4741C31.6067 94.0927 28.0911 89.8035 29.0649 86.0877C30.0388 82.3718 32.394 81.9781 32.394 81.9781C32.394 81.9781 27.504 80.0235 30.6328 75.1334C33.7616 70.2434 40.406 68.489 43.5417 68.489C46.6774 68.489 51.7608 71.825 51.7608 71.825Z" fill="white" stroke="#263238" stroke-linecap="round" stroke-linejoin="round"/>
<path d="M50.7793 78.276C51.2286 78.9864 51.8302 79.588 52.5405 80.0372C53.9219 81.018 55.8627 80.4309 55.3033 82.1922C54.7438 83.9534 53.3486 84.5336 52.1745 84.3402" stroke="#263238" stroke-linecap="round" stroke-linejoin="round"/>
<path d="M55.4764 86.4952C55.4764 86.4952 51.7605 88.6432 49.2188 88.4498C47.8937 88.4201 46.6045 88.0128 45.5029 87.2756" stroke="#263238" stroke-linecap="round" stroke-linejoin="round"/>
<path d="M47.2725 88.4498C47.2725 88.4498 48.6538 93.3398 50.5947 91.772C51.8238 90.6961 52.6517 89.2352 52.943 87.6279C51.139 88.3259 49.2004 88.6069 47.2725 88.4498Z" fill="#263238" stroke="#263238" stroke-linecap="round" stroke-linejoin="round"/>
<path d="M47.0713 79.9751C47.4995 80.6658 47.5134 81.4186 47.0713 81.6811C46.6293 81.9436 45.9662 81.612 45.5311 80.9352C45.096 80.2583 45.0891 79.4916 45.5311 79.2223C45.9731 78.9529 46.6362 79.2913 47.0713 79.9751Z" fill="#263238"/>
<path d="M53.3145 77.019C53.7427 77.7097 53.7565 78.4694 53.3145 78.7319C52.8724 78.9943 52.2094 78.6628 51.7743 77.979C51.3391 77.2953 51.3322 76.5355 51.7743 76.273C52.2163 76.0106 52.8794 76.3421 53.3145 77.019Z" fill="#263238"/>
<path d="M42.9678 79.388C42.9678 79.388 43.5341 76.7772 45.5786 76.4319" stroke="#263238" stroke-linecap="round" stroke-linejoin="round"/>
<path d="M49.6689 75.2992C49.6689 75.2992 50.8086 73.1442 52.6251 74.049" stroke="#263238" stroke-linecap="round" stroke-linejoin="round"/>
<path d="M32.9794 77.8892C32.9794 77.8892 45.6949 77.8892 46.6756 75.7343C47.6564 73.5794 44.7141 72.0184 44.7141 72.0184C44.7141 72.0184 55.6684 72.4121 56.8425 69.083C58.0167 65.7539 52.9332 64.3933 51.3654 64.3933H49.0171C49.0171 64.3933 48.43 59.5032 42.7595 60.6774C37.0889 61.8515 26.1347 69.2833 24.8016 73.5863C23.4686 77.8892 20.3053 79.2568 22.6536 84.3402C25.0019 89.4237 31.4529 93.5332 31.4529 93.5332C31.4529 93.5332 30.4722 89.8174 32.4337 89.624C34.3953 89.4306 37.7105 90.7912 38.2976 90.7912C38.8847 90.7912 40.646 89.2303 39.679 88.2495C38.712 87.2687 37.7244 86.6886 37.531 86.1015C37.3376 85.5144 38.5048 83.5598 37.7244 81.7985C36.9439 80.0373 32.9794 77.8892 32.9794 77.8892Z" fill="#263238" stroke="#263238" stroke-linecap="round" stroke-linejoin="round"/>
<path d="M33.1603 84.9983L28.6276 88.0109C27.8937 88.4987 27.6942 89.489 28.182 90.2229L37.113 103.66C37.6007 104.394 38.591 104.593 39.3249 104.106L43.8576 101.093C44.5915 100.605 44.791 99.6148 44.3032 98.881L35.3722 85.4439C34.8845 84.71 33.8942 84.5105 33.1603 84.9983Z" fill="#FFA401" stroke="#263238" stroke-miterlimit="10"/>
<path d="M30.639 101.373C30.639 101.373 29.7342 99.0587 28.8363 97.3804C27.9384 95.702 27.9315 94.9353 28.5738 94.9353C29.2544 95.063 29.8829 95.3866 30.3823 95.8663C30.8816 96.346 31.2301 96.961 31.3849 97.6359C31.6927 99.0319 31.779 100.468 31.6405 101.891L30.639 101.373Z" fill="white" stroke="#263238" stroke-miterlimit="10"/>
<path d="M38.3679 110.275C38.3679 110.275 31.0259 102.933 30.7704 102.291C30.5148 101.649 30.8049 93.3122 30.8809 90.9155C30.8946 90.7482 30.9628 90.5901 31.0751 90.4653C31.1874 90.3405 31.3376 90.2561 31.5025 90.2249C31.6066 90.2073 31.7132 90.2116 31.8155 90.2375C31.9178 90.2634 32.0136 90.3103 32.0968 90.3753C32.18 90.4403 32.2487 90.5219 32.2986 90.6149C32.3485 90.7079 32.3785 90.8103 32.3866 90.9155L32.9668 97.6843L34.6451 89.1474C34.679 88.9749 34.7721 88.8198 34.9083 88.7088C35.0446 88.5978 35.2153 88.5379 35.3911 88.5396C35.4932 88.5404 35.5942 88.5618 35.6879 88.6026C35.7816 88.6433 35.8661 88.7025 35.9364 88.7767C36.0066 88.8508 36.0612 88.9384 36.0969 89.0341C36.1326 89.1299 36.1486 89.2318 36.1439 89.3339L35.6673 98.8446L37.7877 90.7291C37.8134 90.6282 37.8589 90.5334 37.9217 90.4504C37.9845 90.3674 38.0632 90.2977 38.1533 90.2456C38.2434 90.1935 38.3431 90.1599 38.4463 90.1468C38.5496 90.1338 38.6545 90.1415 38.7547 90.1696C38.9212 90.2166 39.0676 90.3172 39.1712 90.4558C39.2748 90.5944 39.3299 90.7632 39.328 90.9363L38.3679 99.6734L40.1706 101.221V98.1263L42.3324 94.4933C42.4094 94.3597 42.5348 94.2609 42.6827 94.2172C42.8305 94.1735 42.9895 94.1882 43.1267 94.2585C43.2663 94.3298 43.3733 94.4518 43.426 94.5994C43.4786 94.747 43.4729 94.9092 43.4099 95.0527L41.9733 98.2575C41.9733 98.2575 44.812 109.847 44.9363 110.234C45.0606 110.621 44.4252 112.686 44.0384 113.459C43.6516 114.233 26.3845 150.819 25.3899 152.235C24.3954 153.65 17.4056 155.84 14.339 152.49C11.2723 149.14 12.2669 145.79 13.9522 141.93C15.6375 138.069 38.3679 110.275 38.3679 110.275Z" fill="white" stroke="#263238" stroke-miterlimit="10"/>
<path d="M40.9424 188.641L50.7225 194.297" stroke="#808080" stroke-linecap="round" stroke-linejoin="round"/>
<path d="M80.5548 184.78L74.6426 192.495" stroke="#808080" stroke-linecap="round" stroke-linejoin="round"/>
<path d="M2.37793 311.265H311.114" stroke="#263238" stroke-linecap="round" stroke-linejoin="round"/>
</svg>
