<svg width="343" height="319" viewBox="0 0 343 319" fill="none" xmlns="http://www.w3.org/2000/svg">
<path d="M6.31492 254.032C8.46683 253.874 12.6415 251.543 12.6487 251.543C12.6559 251.543 10.2744 249.248 10.1023 249.119C8.14405 247.684 3.51026 245.998 1.28661 247.584C0.924055 247.857 0.623118 248.203 0.403437 248.6C0.183756 248.997 0.0502696 249.436 0.0116878 249.888C-0.0268941 250.34 0.0302957 250.795 0.179526 251.224C0.328755 251.653 0.566672 252.045 0.877749 252.375C2.14738 253.831 4.50014 254.161 6.31492 254.032Z" fill="#263238"/>
<path d="M14.2557 265.545C16.1924 264.863 19.3988 261.772 19.6498 261.521C21.4147 263.361 23.3007 265.082 25.295 266.671C26.4499 267.596 27.6406 268.5 28.8815 269.39C28.2646 269.067 27.7195 268.78 27.6406 268.751C25.3667 267.862 20.4675 267.482 18.7245 269.598C18.44 269.956 18.2349 270.37 18.1228 270.814C18.0107 271.257 17.9941 271.72 18.0741 272.17C18.1541 272.62 18.329 273.049 18.587 273.426C18.8451 273.804 19.1804 274.122 19.5709 274.361C21.1777 275.429 23.5376 275.128 25.252 274.518C26.9663 273.909 29.7853 271.326 30.517 270.631C30.9832 270.968 31.4423 271.312 31.9085 271.642C34.1537 273.249 36.406 274.841 38.5651 276.469C39.3255 277.043 40.05 277.639 40.7816 278.227C40.2365 277.94 39.7774 277.703 39.7056 277.675C37.4318 276.785 32.5326 276.405 30.7895 278.521C30.5124 278.881 30.3141 279.295 30.2076 279.736C30.101 280.178 30.0886 280.637 30.1712 281.083C30.2537 281.53 30.4294 281.954 30.6867 282.328C30.944 282.702 31.2772 283.018 31.6647 283.255C33.2714 284.317 35.6314 284.016 37.3457 283.413C39.0601 282.81 41.6065 280.465 42.4744 279.647C43.1917 280.271 43.909 280.895 44.6264 281.541C45.0783 281.986 45.5445 282.387 45.9749 282.861L47.2732 284.238C48.0622 285.135 48.8871 286.06 49.6331 286.964C50.164 287.588 50.6517 288.183 51.1467 288.793C50.4293 288.212 48.9015 287.107 48.7724 287.028C46.6205 285.809 41.8647 284.683 39.8348 286.519C39.5061 286.832 39.247 287.21 39.0744 287.63C38.9018 288.049 38.8196 288.5 38.8331 288.954C38.8466 289.407 38.9556 289.853 39.1529 290.261C39.3502 290.67 39.6314 291.032 39.9782 291.325C41.4128 292.616 43.7871 292.681 45.5732 292.343C47.5458 291.963 51.0534 289.51 51.491 289.202C52.3015 290.206 53.0905 291.196 53.815 292.135C55.7733 294.66 57.4016 296.905 58.6568 298.72L60.2636 297.874C58.9294 296.038 57.1935 293.728 55.0847 291.131C54.2598 290.105 53.356 289.03 52.4235 287.932C53.3165 286.886 54.1453 285.786 54.9053 284.64C56.8492 285.357 60.8446 285.221 61.3611 285.206C61.4902 286.497 61.5978 287.746 61.6839 288.936C61.9134 292.028 62.0282 294.739 62.0927 296.913L63.8358 295.987C63.7282 293.95 63.5632 291.526 63.2978 288.814C63.1759 287.502 63.018 286.11 62.8387 284.675C63.3408 284.532 67.4653 283.327 68.986 282.021C70.3776 280.838 71.8122 278.944 71.6974 277C71.6854 276.546 71.5779 276.1 71.382 275.691C71.1862 275.281 70.9063 274.917 70.5605 274.623C70.2148 274.328 69.811 274.11 69.3753 273.982C68.9397 273.854 68.482 273.819 68.032 273.88C65.3421 274.318 63.2117 278.758 62.8459 281.168C62.8459 281.311 62.7598 282.882 62.7383 283.872C62.6666 283.291 62.5948 282.724 62.5159 282.122C62.351 280.931 62.1573 279.748 61.9564 278.478C61.8369 277.871 61.7149 277.254 61.5906 276.627C61.483 276.003 61.2893 275.365 61.1387 274.726C60.7657 273.249 60.3066 271.778 59.8189 270.301C60.859 270.164 64.5459 269.583 66.1025 268.644C67.659 267.704 69.359 266.026 69.5383 264.11C69.5947 263.66 69.5558 263.203 69.4242 262.768C69.2926 262.334 69.0712 261.931 68.7743 261.588C68.4775 261.244 68.1118 260.967 67.701 260.774C67.2901 260.581 66.8433 260.476 66.3894 260.466C63.6636 260.466 60.8877 264.562 60.156 266.922C60.113 267.073 59.7758 268.801 59.6109 269.756C59.3096 268.866 59.0155 267.984 58.6784 267.101C57.7172 264.548 56.6556 261.994 55.6155 259.441L54.6758 257.095C55.0488 257.045 59.4459 256.478 61.1889 255.402C62.7383 254.441 64.4455 252.784 64.6176 250.869C64.685 250.414 64.6547 249.951 64.5289 249.509C64.4032 249.067 64.1847 248.657 63.8882 248.306C63.5916 247.956 63.2238 247.672 62.8091 247.474C62.3943 247.277 61.9423 247.17 61.483 247.16C58.7501 247.16 55.9741 251.256 55.2496 253.58C55.1923 253.76 54.7188 256.249 54.6256 256.887C53.9083 255.166 53.2699 253.437 52.6817 251.715C51.8769 249.388 51.2228 247.011 50.7234 244.6C50.8956 244.6 55.4935 244.004 57.2796 242.9C58.8218 241.938 60.529 240.281 60.7083 238.366C60.7658 237.916 60.7279 237.459 60.5971 237.025C60.4664 236.59 60.2457 236.188 59.9494 235.844C59.6531 235.501 59.2878 235.223 58.8773 235.03C58.4668 234.837 58.0202 234.732 57.5665 234.722C54.8336 234.722 52.0576 238.818 51.3332 241.142C51.2758 241.329 50.7593 244.011 50.7019 244.499C50.7019 244.356 50.6302 244.219 50.6015 244.076C50.1673 241.642 49.9489 239.175 49.9488 236.702C49.9488 235.339 49.9918 234.034 50.0779 232.764C50.9458 232.764 54.9053 232.621 56.6269 231.803C58.3484 230.985 60.1417 229.558 60.5362 227.671C60.6415 227.23 60.6531 226.772 60.5701 226.326C60.4872 225.88 60.3116 225.456 60.0547 225.082C59.7978 224.708 59.4653 224.393 59.0787 224.155C58.6922 223.918 58.2601 223.764 57.8104 223.705C55.0918 223.432 51.8855 227.169 50.9028 229.407C50.8526 229.529 50.4437 230.842 50.1855 231.767C50.2357 231.2 50.2715 230.605 50.3289 230.06C50.5369 228.001 50.8597 226.136 51.1538 224.479C51.326 223.54 51.5053 222.7 51.6775 221.911C52.5239 221.445 55.888 219.544 57.0142 218.052C58.1404 216.56 59.1087 214.466 58.5779 212.586C58.469 212.144 58.2676 211.729 57.9871 211.369C57.7066 211.01 57.3532 210.714 56.9502 210.5C56.5472 210.287 56.1037 210.161 55.6486 210.131C55.1936 210.101 54.7374 210.168 54.31 210.327C51.7707 211.331 50.6517 216.13 50.8095 218.561C50.8095 218.777 51.4192 222.04 51.4623 222.012H51.5125C51.3332 222.765 51.1467 223.575 50.9602 224.472C50.6302 226.122 50.2429 227.987 50.0133 230.046C49.7134 232.26 49.5433 234.49 49.504 236.724C49.4489 239.227 49.6169 241.731 50.0061 244.205C50.0061 244.205 50.0061 244.263 50.0061 244.291C49.6475 243.574 48.5715 241.608 48.4711 241.472C47.0365 239.478 43.1846 236.451 40.5808 237.262C40.1521 237.409 39.7592 237.645 39.4276 237.954C39.096 238.263 38.833 238.639 38.6558 239.056C38.4786 239.473 38.3911 239.923 38.399 240.377C38.4068 240.83 38.5099 241.276 38.7014 241.687C39.4546 243.459 41.5706 244.514 43.3567 244.958C45.3508 245.453 49.7264 244.643 50.0779 244.578C50.5327 247.085 51.1558 249.558 51.9429 251.981C52.3948 253.415 52.8897 254.807 53.3775 256.213C53.0475 255.603 52.7462 255.065 52.696 254.993C51.2614 252.999 47.4095 249.972 44.8057 250.783C44.377 250.93 43.9841 251.166 43.6525 251.475C43.3209 251.785 43.058 252.16 42.8808 252.577C42.7036 252.995 42.6161 253.445 42.6239 253.898C42.6318 254.351 42.7348 254.798 42.9263 255.209C43.6795 256.987 45.7956 258.035 47.5745 258.479C49.3534 258.924 53.1192 258.315 54.1091 258.135C54.3171 258.673 54.5108 259.211 54.7188 259.749C55.7015 262.331 56.6986 264.899 57.5881 267.446C57.9037 268.342 58.1834 269.239 58.4703 270.136C58.1762 269.598 57.918 269.146 57.875 269.081C56.4404 267.087 52.5813 264.06 49.9846 264.871C49.5553 265.017 49.1617 265.253 48.8293 265.562C48.4969 265.871 48.2332 266.246 48.0553 266.663C47.8773 267.081 47.7892 267.531 47.7966 267.984C47.804 268.438 47.9067 268.885 48.0981 269.296C48.8585 271.068 50.9673 272.123 52.7534 272.567C54.5395 273.012 57.9324 272.453 59.1087 272.252C59.3741 273.177 59.6395 274.102 59.826 275.013C59.9552 275.637 60.1273 276.233 60.2277 276.864C60.3282 277.495 60.4429 278.112 60.5505 278.722C60.7083 279.913 60.8876 281.139 61.0168 282.308C61.11 283.119 61.1889 283.894 61.2678 284.668C60.9594 283.772 60.3282 282.029 60.2564 281.885C59.2365 280.005 57.7555 278.416 55.9526 277.266C55.8463 277.052 55.7215 276.848 55.5796 276.656C55.3192 276.284 54.9835 275.971 54.5943 275.738C54.2051 275.504 53.7711 275.355 53.3205 275.301C52.8699 275.246 52.4129 275.286 51.979 275.42C51.5452 275.553 51.1443 275.776 50.8023 276.075C48.7939 277.926 49.4753 282.803 50.4939 285.02C50.5585 285.149 51.369 286.49 51.9285 287.329C51.5412 286.885 51.2112 286.447 50.7737 285.995C49.9846 285.091 49.1669 284.209 48.299 283.262L46.9719 281.914C46.5416 281.462 46.0251 281.032 45.5373 280.58C44.4112 279.561 43.2204 278.578 42.001 277.624C42.7901 276.907 45.5875 274.432 46.3048 272.768C47.0222 271.104 47.5745 268.794 46.6635 267.094C46.4672 266.684 46.1864 266.32 45.8395 266.026C45.4926 265.732 45.0875 265.514 44.6506 265.387C44.2138 265.261 43.7551 265.228 43.3047 265.291C42.8542 265.354 42.4222 265.511 42.0369 265.753C39.7702 267.281 39.6985 272.209 40.3727 274.554C40.4158 274.698 41.09 276.326 41.4774 277.208C40.7601 276.642 40.0428 276.068 39.2394 275.515C37.0301 273.916 34.7347 272.367 32.4609 270.817L30.3807 269.383C30.6676 269.139 34.0174 266.241 34.8782 264.361C35.6385 262.704 36.1478 260.388 35.2368 258.688C35.0357 258.285 34.7525 257.93 34.4056 257.644C34.0587 257.357 33.6557 257.147 33.2225 257.026C32.7894 256.905 32.3358 256.876 31.8908 256.941C31.4458 257.006 31.0194 257.164 30.6389 257.404C28.3722 258.924 28.3005 263.859 28.9819 266.198C29.0322 266.37 30.0077 268.715 30.2803 269.296C28.7596 268.235 27.2532 267.145 25.8043 266.054C23.8465 264.559 21.9872 262.94 20.238 261.205C20.3671 261.09 23.8891 258.078 24.7642 256.184C25.5245 254.534 26.041 252.21 25.13 250.51C24.929 250.103 24.6445 249.743 24.2952 249.453C23.9459 249.164 23.5395 248.951 23.1025 248.828C22.6655 248.706 22.2076 248.677 21.7585 248.743C21.3095 248.809 20.8794 248.969 20.4962 249.212C18.2295 250.74 18.1578 255.668 18.8393 258.006C18.8895 258.193 19.9439 260.71 20.1663 261.148L19.8507 260.854C18.143 259.066 16.5994 257.129 15.2384 255.065C14.4709 253.932 13.8038 252.813 13.1725 251.708C13.8899 251.213 17.1177 248.918 18.1004 247.29C19.0831 245.661 19.8004 243.481 19.0831 241.695C18.9288 241.268 18.6863 240.878 18.3714 240.551C18.0565 240.223 17.6763 239.966 17.2554 239.796C16.8346 239.625 16.3826 239.545 15.9288 239.561C15.475 239.577 15.0295 239.688 14.6215 239.887C12.2042 241.157 11.5945 246.049 12.0105 248.452C12.0105 248.581 12.405 249.886 12.7278 250.826C12.4552 250.324 12.1611 249.807 11.9101 249.32C10.9489 247.49 10.1814 245.733 9.51429 244.219C9.14847 243.337 8.79699 242.534 8.53876 241.781C8.98349 240.934 10.7409 237.477 10.8557 235.626C10.9704 233.776 10.5544 231.444 9.11978 230.189C8.78603 229.881 8.39126 229.647 7.96114 229.502C7.53101 229.357 7.07517 229.304 6.62323 229.347C6.1713 229.389 5.73339 229.527 5.33798 229.75C4.94258 229.973 4.59852 230.276 4.32818 230.641C2.76446 232.879 4.47881 237.498 5.95646 239.442C6.08558 239.614 8.38095 242.003 8.40247 241.96V241.91C8.66787 242.627 8.96197 243.423 9.29193 244.27C9.93033 245.826 10.662 247.584 11.5801 249.441C12.5571 251.455 13.6517 253.41 14.8582 255.295C16.1925 257.412 17.712 259.407 19.3988 261.255L19.4633 261.32C18.746 260.918 16.7878 259.885 16.5941 259.814C14.3202 258.924 9.42104 258.544 7.68517 260.66C7.40783 261.019 7.20918 261.432 7.10216 261.873C6.99514 262.313 6.98215 262.771 7.06404 263.217C7.14592 263.663 7.32084 264.087 7.57741 264.461C7.83397 264.835 8.16643 265.15 8.5531 265.387C10.1814 266.47 12.5341 266.155 14.2557 265.545Z" fill="#263238"/>
<path d="M49.7189 232.37C49.7691 232.37 49.0016 229.142 48.9299 228.941C48.105 226.646 45.1569 222.7 42.4239 222.794C41.9716 222.823 41.5306 222.948 41.1293 223.159C40.728 223.369 40.3754 223.662 40.0942 224.018C39.813 224.373 39.6095 224.784 39.4968 225.223C39.3841 225.662 39.3647 226.12 39.4399 226.567C39.7053 228.482 41.4771 230.06 43.0695 230.949C44.9345 231.997 49.7117 232.37 49.7189 232.37Z" fill="#263238"/>
<path d="M336.375 254.032C334.224 253.874 330.049 251.543 330.049 251.543C330.049 251.543 332.423 249.248 332.588 249.119C334.546 247.684 339.187 245.998 341.411 247.584C341.773 247.857 342.073 248.204 342.292 248.601C342.511 248.999 342.644 249.438 342.682 249.89C342.72 250.342 342.662 250.797 342.512 251.225C342.363 251.653 342.124 252.045 341.813 252.375C340.514 253.831 338.19 254.161 336.375 254.032Z" fill="#263238"/>
<path d="M328.442 265.545C326.505 264.864 323.299 261.772 323.041 261.521C321.278 263.363 319.391 265.084 317.396 266.671C316.241 267.596 315.05 268.5 313.845 269.39C314.455 269.067 315.007 268.78 315.086 268.751C317.36 267.862 322.259 267.482 323.995 269.598C324.272 269.957 324.47 270.37 324.576 270.811C324.683 271.252 324.695 271.711 324.613 272.157C324.53 272.603 324.355 273.026 324.097 273.4C323.84 273.773 323.507 274.089 323.12 274.325C321.513 275.394 319.16 275.092 317.439 274.483C315.717 273.873 312.905 271.291 312.181 270.595L310.782 271.606C308.537 273.213 306.292 274.805 304.133 276.434C303.372 277.007 302.641 277.603 301.909 278.191C302.454 277.904 302.913 277.667 302.992 277.639C305.259 276.749 310.165 276.369 311.901 278.485C312.178 278.845 312.376 279.259 312.483 279.7C312.59 280.142 312.602 280.601 312.519 281.047C312.437 281.494 312.261 281.918 312.004 282.292C311.747 282.667 311.413 282.982 311.026 283.219C309.419 284.281 307.059 283.98 305.345 283.377C303.63 282.775 301.084 280.429 300.216 279.611C299.499 280.235 298.782 280.859 298.064 281.505C297.605 281.95 297.139 282.351 296.708 282.825C296.278 283.298 295.841 283.743 295.417 284.202C294.621 285.099 293.803 286.024 293.05 286.928C292.527 287.552 292.032 288.147 291.537 288.757C292.29 288.176 293.782 287.071 293.918 286.992C296.027 285.773 300.826 284.647 302.849 286.483C303.177 286.796 303.436 287.174 303.609 287.594C303.782 288.013 303.864 288.465 303.85 288.918C303.837 289.372 303.728 289.817 303.53 290.226C303.333 290.634 303.052 290.996 302.705 291.289C301.271 292.58 298.903 292.645 297.11 292.308C295.145 291.927 291.637 289.474 291.2 289.166C290.382 290.17 289.6 291.16 288.868 292.1C286.917 294.624 285.282 296.87 284.027 298.684L282.413 297.838C283.747 296.002 285.49 293.692 287.592 291.095C288.416 290.07 289.32 288.994 290.26 287.896C289.366 286.849 288.535 285.749 287.771 284.604C285.827 285.321 281.832 285.185 281.315 285.17C281.193 286.462 281.078 287.71 280.992 288.9C280.763 291.992 280.648 294.703 280.591 296.877L278.84 295.951C278.948 293.914 279.12 291.49 279.378 288.778C279.508 287.466 279.665 286.074 279.837 284.64C279.335 284.496 275.218 283.291 273.69 281.986C272.306 280.802 270.871 278.908 270.986 276.964C270.997 276.511 271.104 276.065 271.299 275.655C271.494 275.246 271.773 274.882 272.118 274.587C272.463 274.293 272.867 274.074 273.302 273.946C273.737 273.818 274.195 273.784 274.644 273.844C277.341 274.282 279.464 278.722 279.83 281.132C279.83 281.275 279.916 282.846 279.938 283.836C280.017 283.255 280.081 282.689 280.167 282.086C280.325 280.895 280.519 279.712 280.727 278.442C280.842 277.832 280.964 277.215 281.086 276.591C281.208 275.967 281.387 275.329 281.537 274.691C281.918 273.213 282.37 271.742 282.857 270.265C281.817 270.129 278.13 269.548 276.574 268.608C275.017 267.668 273.317 265.99 273.145 264.074C273.088 263.624 273.125 263.167 273.256 262.733C273.387 262.298 273.608 261.896 273.904 261.552C274.2 261.209 274.566 260.931 274.976 260.738C275.387 260.545 275.833 260.44 276.287 260.431C279.02 260.431 281.796 264.526 282.52 266.886C282.57 267.037 282.9 268.766 283.065 269.72C283.367 268.83 283.668 267.948 283.998 267.066C284.966 264.512 286.021 261.958 287.061 259.405C287.384 258.623 287.692 257.841 288 257.059C287.635 257.009 283.23 256.442 281.487 255.366C279.945 254.405 278.238 252.748 278.059 250.833C278.001 250.383 278.039 249.926 278.17 249.491C278.3 249.057 278.521 248.655 278.817 248.311C279.114 247.967 279.479 247.69 279.89 247.497C280.3 247.303 280.747 247.199 281.2 247.189C283.933 247.189 286.709 251.285 287.441 253.609C287.491 253.788 287.972 256.277 288.058 256.916C288.775 255.194 289.414 253.466 290.009 251.744C290.816 249.417 291.473 247.04 291.974 244.628C291.802 244.628 287.211 244.033 285.425 242.928C283.876 241.967 282.169 240.31 281.989 238.395C281.933 237.944 281.972 237.487 282.104 237.053C282.235 236.618 282.457 236.216 282.753 235.873C283.05 235.529 283.416 235.252 283.827 235.059C284.238 234.865 284.684 234.761 285.138 234.751C287.871 234.751 290.64 238.847 291.372 241.171C291.429 241.357 291.938 244.04 291.996 244.528C291.996 244.384 292.075 244.248 292.096 244.105C292.534 241.671 292.752 239.203 292.749 236.731C292.749 235.368 292.706 234.062 292.62 232.793C291.752 232.793 287.792 232.649 286.078 231.832C284.364 231.014 282.556 229.586 282.169 227.7C282.062 227.259 282.05 226.8 282.132 226.354C282.215 225.907 282.39 225.483 282.647 225.109C282.904 224.735 283.237 224.419 283.624 224.182C284.012 223.945 284.444 223.792 284.894 223.733C287.613 223.461 290.819 227.198 291.795 229.436C291.852 229.558 292.254 230.87 292.512 231.796C292.462 231.229 292.426 230.634 292.369 230.089C292.161 228.03 291.845 226.165 291.544 224.508C291.372 223.568 291.192 222.729 291.02 221.94C290.181 221.474 286.817 219.573 285.691 218.081C284.565 216.589 283.596 214.494 284.12 212.615C284.229 212.175 284.43 211.763 284.709 211.405C284.988 211.047 285.339 210.752 285.74 210.539C286.14 210.326 286.581 210.2 287.033 210.168C287.486 210.136 287.94 210.2 288.366 210.356C290.905 211.36 292.024 216.159 291.867 218.59C291.867 218.805 291.257 222.069 291.214 222.04H291.164C291.343 222.794 291.537 223.604 291.723 224.501C292.053 226.151 292.441 228.016 292.67 230.074C292.967 232.289 293.135 234.518 293.172 236.752C293.23 239.256 293.064 241.76 292.677 244.234V244.32C293.036 243.603 294.112 241.637 294.212 241.501C295.647 239.507 299.499 236.48 302.103 237.29C302.532 237.437 302.926 237.672 303.258 237.981C303.59 238.29 303.853 238.666 304.031 239.083C304.208 239.501 304.295 239.951 304.287 240.405C304.279 240.859 304.175 241.305 303.982 241.716C303.229 243.488 301.113 244.542 299.334 244.987C297.34 245.482 292.957 244.671 292.606 244.607C292.151 247.113 291.528 249.587 290.741 252.009C290.289 253.444 289.794 254.836 289.306 256.242C289.636 255.632 289.937 255.094 289.987 255.022C291.422 253.028 295.281 250.001 297.878 250.812C298.307 250.958 298.701 251.194 299.033 251.503C299.365 251.811 299.629 252.187 299.807 252.604C299.985 253.021 300.073 253.472 300.066 253.925C300.058 254.379 299.956 254.826 299.764 255.237C299.004 257.016 296.895 258.063 295.109 258.508C293.323 258.953 289.564 258.343 288.574 258.164L287.972 259.778C286.982 262.36 285.985 264.928 285.103 267.474C284.787 268.371 284.507 269.268 284.227 270.164C284.521 269.626 284.773 269.175 284.816 269.11C286.25 267.116 290.109 264.089 292.706 264.899C293.135 265.047 293.528 265.283 293.859 265.592C294.191 265.901 294.454 266.277 294.631 266.694C294.808 267.111 294.896 267.561 294.888 268.014C294.88 268.468 294.777 268.914 294.585 269.325C293.825 271.097 291.716 272.151 289.93 272.596C288.144 273.041 284.751 272.481 283.575 272.28C283.316 273.206 283.051 274.131 282.857 275.042C282.728 275.666 282.556 276.261 282.463 276.893C282.37 277.524 282.248 278.141 282.14 278.751C281.975 279.941 281.803 281.168 281.674 282.337C281.573 283.148 281.494 283.922 281.416 284.697C281.724 283.8 282.362 282.057 282.427 281.914C283.433 280.011 284.91 278.399 286.716 277.23C286.817 277.013 286.942 276.809 287.089 276.62C287.349 276.249 287.684 275.936 288.073 275.702C288.461 275.469 288.895 275.32 289.345 275.265C289.795 275.21 290.251 275.251 290.685 275.384C291.118 275.518 291.518 275.741 291.86 276.039C293.868 277.89 293.194 282.767 292.168 284.984C292.103 285.113 291.293 286.454 290.733 287.294C291.121 286.849 291.494 286.411 291.895 285.959C292.684 285.056 293.495 284.173 294.37 283.226L295.69 281.878C296.127 281.426 296.644 280.996 297.125 280.544C298.251 279.525 299.441 278.543 300.668 277.588C299.879 276.871 297.081 274.396 296.364 272.732C295.647 271.068 295.087 268.758 295.998 267.058C296.199 266.651 296.483 266.29 296.832 266C297.181 265.709 297.587 265.495 298.024 265.372C298.461 265.249 298.919 265.219 299.369 265.285C299.818 265.351 300.248 265.51 300.632 265.753C302.899 267.281 302.963 272.209 302.289 274.554C302.246 274.698 301.572 276.326 301.184 277.208C301.902 276.642 302.655 276.068 303.422 275.515C305.639 273.916 307.927 272.367 310.208 270.817L312.281 269.383C312.001 269.139 308.644 266.241 307.784 264.361C307.023 262.704 306.514 260.388 307.425 258.688C307.625 258.28 307.909 257.919 308.258 257.629C308.608 257.338 309.014 257.125 309.452 257.002C309.889 256.88 310.347 256.851 310.797 256.917C311.246 256.984 311.676 257.145 312.059 257.389C314.318 258.91 314.39 263.845 313.716 266.183C313.666 266.356 312.69 268.701 312.41 269.282C313.938 268.221 315.444 267.13 316.886 266.04C318.846 264.547 320.705 262.927 322.453 261.191C322.323 261.076 318.809 258.063 317.926 256.17C317.166 254.52 316.657 252.196 317.568 250.496C317.768 250.089 318.052 249.729 318.4 249.44C318.749 249.15 319.155 248.937 319.591 248.814C320.028 248.692 320.485 248.663 320.934 248.729C321.382 248.795 321.812 248.954 322.194 249.198C324.461 250.725 324.533 255.653 323.851 257.992C323.801 258.178 322.754 260.696 322.531 261.134L322.847 260.839C324.55 259.05 326.091 257.113 327.452 255.051C328.22 253.917 328.887 252.798 329.518 251.694C328.801 251.199 325.573 248.903 324.597 247.275C323.622 245.647 322.897 243.466 323.615 241.68C323.769 241.253 324.011 240.863 324.326 240.536C324.641 240.209 325.021 239.952 325.442 239.781C325.863 239.611 326.315 239.531 326.769 239.547C327.223 239.562 327.668 239.673 328.076 239.873C330.494 241.142 331.103 246.034 330.687 248.437C330.687 248.566 330.286 249.872 329.97 250.812C330.242 250.309 330.537 249.793 330.795 249.305C331.756 247.476 332.516 245.719 333.183 244.205C333.556 243.323 333.901 242.519 334.166 241.766C333.714 240.92 331.964 237.462 331.842 235.612C331.72 233.761 332.093 231.444 333.549 230.189C333.883 229.881 334.278 229.647 334.708 229.502C335.138 229.357 335.594 229.304 336.046 229.347C336.498 229.389 336.936 229.527 337.331 229.75C337.726 229.973 338.071 230.276 338.341 230.641C339.905 232.879 338.19 237.498 336.72 239.442C336.591 239.614 334.288 242.003 334.267 241.96V241.91C334.008 242.627 333.714 243.423 333.377 244.27C332.746 245.826 332.014 247.584 331.089 249.441C330.117 251.455 329.027 253.409 327.825 255.295C326.496 257.415 324.976 259.41 323.285 261.255L323.22 261.32C323.937 260.918 325.896 259.885 326.089 259.814C328.356 258.924 333.262 258.544 334.998 260.66C335.275 261.019 335.473 261.433 335.58 261.874C335.686 262.315 335.699 262.773 335.616 263.219C335.534 263.665 335.358 264.089 335.101 264.462C334.843 264.836 334.51 265.151 334.123 265.387C332.516 266.47 330.156 266.155 328.442 265.545Z" fill="#263238"/>
<path d="M292.979 232.37C292.929 232.37 293.696 229.142 293.761 228.941C294.586 226.646 297.541 222.7 300.267 222.794C300.719 222.822 301.161 222.946 301.563 223.156C301.965 223.367 302.318 223.66 302.599 224.015C302.881 224.371 303.084 224.782 303.196 225.222C303.309 225.661 303.327 226.119 303.251 226.567C302.992 228.482 301.214 230.06 299.628 230.949C297.763 231.997 292.979 232.37 292.979 232.37Z" fill="#263238"/>
<path d="M58.7788 129.178L59.3742 129.573" stroke="#263238" stroke-miterlimit="10"/>
<path d="M60.5791 130.355L170.492 201.82" stroke="#263238" stroke-miterlimit="10" stroke-dasharray="2 2"/>
<path d="M171.094 202.214L171.69 202.601L171.302 202.006" stroke="#263238" stroke-miterlimit="10"/>
<path d="M170.528 200.808L76.2451 55.841" stroke="#263238" stroke-miterlimit="10" stroke-dasharray="1.98 1.98"/>
<path d="M75.8507 55.2456L75.4634 54.643" stroke="#263238" stroke-miterlimit="10"/>
<path d="M284.608 129.178L284.012 129.573" stroke="#263238" stroke-miterlimit="10"/>
<path d="M282.807 130.355L172.895 201.82" stroke="#263238" stroke-miterlimit="10" stroke-dasharray="2 2"/>
<path d="M172.292 202.214L171.69 202.601L172.084 202.006" stroke="#263238" stroke-miterlimit="10"/>
<path d="M172.859 200.808L267.141 55.841" stroke="#263238" stroke-miterlimit="10" stroke-dasharray="1.98 1.98"/>
<path d="M267.528 55.2456L267.923 54.643" stroke="#263238" stroke-miterlimit="10"/>
<path d="M171.69 32.3923V33.1096" stroke="#263238" stroke-miterlimit="10"/>
<path d="M171.69 34.5514V201.167" stroke="#263238" stroke-miterlimit="10" stroke-dasharray="2.01 2.01"/>
<path d="M171.69 201.884V202.601" stroke="#263238" stroke-miterlimit="10"/>
<path d="M173.031 51.2072C185.213 51.2072 195.088 41.3319 195.088 29.15C195.088 16.9682 185.213 7.09293 173.031 7.09293C160.849 7.09293 150.974 16.9682 150.974 29.15C150.974 41.3319 160.849 51.2072 173.031 51.2072Z" fill="#263238" stroke="#263238" stroke-width="2" stroke-miterlimit="10"/>
<path d="M173.031 29.1501L191.595 17.2428C188.852 12.9728 184.724 9.7764 179.903 8.19043L173.031 29.1501Z" fill="#FFA401" stroke="#263238" stroke-miterlimit="10"/>
<path d="M173.031 29.1501L183.425 48.5962C186.106 47.1588 188.461 45.1822 190.342 42.7907C192.222 40.3993 193.588 37.6446 194.353 34.7C195.117 31.7553 195.264 28.6843 194.785 25.6801C194.305 22.6758 193.21 19.8032 191.566 17.2428L173.031 29.1501Z" fill="white" stroke="#263238" stroke-miterlimit="10"/>
<path d="M279.839 70.0953C288.45 61.4843 288.45 47.5231 279.839 38.912C271.228 30.301 257.267 30.301 248.656 38.912C240.045 47.5231 240.045 61.4843 248.656 70.0954C257.267 78.7064 271.228 78.7064 279.839 70.0953Z" stroke="#263238" stroke-miterlimit="10"/>
<path d="M264.243 73.6229C274.801 73.6229 283.359 65.0643 283.359 54.5068C283.359 43.9492 274.801 35.3906 264.243 35.3906C253.686 35.3906 245.127 43.9492 245.127 54.5068C245.127 65.0643 253.686 73.6229 264.243 73.6229Z" fill="#263238"/>
<path d="M275.24 54.5068L256.726 43.8118V65.1946L275.24 54.5068Z" fill="white"/>
<path d="M318.221 131.797C321.182 119.437 313.562 107.019 301.203 104.058C288.844 101.098 276.425 108.717 273.465 121.076C270.505 133.435 278.124 145.854 290.483 148.815C302.842 151.775 315.261 144.156 318.221 131.797Z" fill="#263238"/>
<path d="M311.843 130.27C313.949 121.442 308.5 112.578 299.672 110.471C290.844 108.365 281.98 113.814 279.874 122.642C277.767 131.47 283.216 140.334 292.044 142.441C300.872 144.547 309.737 139.098 311.843 130.27Z" fill="white"/>
<path d="M305.424 128.711C306.682 123.412 303.406 118.095 298.107 116.836C292.807 115.578 287.49 118.854 286.232 124.153C284.973 129.453 288.249 134.77 293.549 136.028C298.848 137.287 304.165 134.011 305.424 128.711Z" fill="#263238"/>
<path d="M301.027 127.684C301.703 124.831 299.938 121.971 297.086 121.295C294.233 120.619 291.373 122.384 290.697 125.236C290.021 128.089 291.786 130.949 294.638 131.625C297.491 132.301 300.351 130.536 301.027 127.684Z" fill="white"/>
<path d="M325.164 115.406L322.238 114.265L323.515 113.641C323.588 113.608 323.655 113.56 323.71 113.5C323.765 113.44 323.808 113.37 323.835 113.294C323.863 113.217 323.875 113.136 323.871 113.055C323.866 112.974 323.846 112.894 323.811 112.821C323.775 112.748 323.726 112.683 323.665 112.629C323.604 112.575 323.532 112.534 323.455 112.509C323.378 112.483 323.297 112.473 323.216 112.479C323.135 112.485 323.056 112.507 322.984 112.544L322.058 112.996L323.529 109.811L318.07 112.25L317.274 115.313L295.576 125.879C295.503 125.914 295.439 125.963 295.386 126.023C295.332 126.083 295.292 126.153 295.266 126.229C295.24 126.305 295.229 126.386 295.234 126.466C295.239 126.546 295.26 126.624 295.296 126.696C295.329 126.769 295.377 126.834 295.437 126.888C295.496 126.941 295.566 126.982 295.642 127.008C295.717 127.035 295.797 127.045 295.877 127.04C295.957 127.034 296.035 127.012 296.106 126.976L317.877 116.374L320.251 117.716L325.164 115.406Z" fill="#263238"/>
<path d="M77.3853 76.5495C90.09 76.5495 100.389 66.2503 100.389 53.5456C100.389 40.8409 90.09 30.5416 77.3853 30.5416C64.6806 30.5416 54.3813 40.8409 54.3813 53.5456C54.3813 66.2503 64.6806 76.5495 77.3853 76.5495Z" fill="white" stroke="#263238" stroke-width="2" stroke-miterlimit="10"/>
<path d="M77.3857 76.5495C86.6003 76.5495 94.0702 66.2503 94.0702 53.5456C94.0702 40.8409 86.6003 30.5416 77.3857 30.5416C68.1711 30.5416 60.7012 40.8409 60.7012 53.5456C60.7012 66.2503 68.1711 76.5495 77.3857 76.5495Z" fill="white" stroke="#263238" stroke-miterlimit="10"/>
<path d="M77.3855 76.5495C81.3074 76.5495 84.4868 66.2503 84.4868 53.5456C84.4868 40.8409 81.3074 30.5416 77.3855 30.5416C73.4635 30.5416 70.2842 40.8409 70.2842 53.5456C70.2842 66.2503 73.4635 76.5495 77.3855 76.5495Z" fill="white" stroke="#263238" stroke-miterlimit="10"/>
<path d="M65.1982 34.1138H89.9811" stroke="#263238" stroke-miterlimit="10"/>
<path d="M56.8633 43.1303H97.8716" stroke="#263238" stroke-miterlimit="10"/>
<path d="M54.4966 52.1396H100.347" stroke="#263238" stroke-miterlimit="10"/>
<path d="M55.5078 61.1562H98.998" stroke="#263238" stroke-miterlimit="10"/>
<path d="M61.7051 70.1655H93.4745" stroke="#263238" stroke-miterlimit="10"/>
<path d="M47.273 149.449C59.9777 149.449 70.277 139.15 70.277 126.445C70.277 113.741 59.9777 103.441 47.273 103.441C34.5683 103.441 24.269 113.741 24.269 126.445C24.269 139.15 34.5683 149.449 47.273 149.449Z" fill="#263238" stroke="#263238" stroke-width="2" stroke-miterlimit="10"/>
<path d="M61.8488 115.571H31.3418V139.981H61.8488V115.571Z" fill="white" stroke="#263238" stroke-width="2" stroke-miterlimit="10"/>
<path d="M63.7566 115.571H29.4336V125.484H63.7566V115.571Z" fill="white" stroke="#263238" stroke-width="2" stroke-miterlimit="10"/>
<path d="M46.5629 115.327C46.5629 115.327 39.3898 106.927 38.1632 107.329C36.9367 107.731 33.7662 113.326 35.5666 113.928C37.367 114.531 46.5629 115.327 46.5629 115.327Z" fill="#FFA401"/>
<path d="M46.6274 115.327C46.6274 115.327 53.8005 106.927 55.0271 107.329C56.2537 107.731 59.4313 113.326 57.6309 113.928C55.8305 114.531 46.6274 115.327 46.6274 115.327Z" fill="#FFA401"/>
<path d="M48.7648 132.729L46.6057 128.977L44.3677 132.729V115.93H48.7648V132.729Z" fill="#FFA401"/>
<path d="M57.4585 189.819L171.61 125.57L288.56 189.819V282.961H58.8644L57.4585 189.819Z" fill="#263238" stroke="#263238" stroke-linecap="round" stroke-linejoin="round"/>
<path d="M258.454 142.9H87.5781V294.868H258.454V142.9Z" fill="white" stroke="#263238" stroke-miterlimit="10"/>
<path d="M107.182 169.512H236.742" stroke="#263238" stroke-miterlimit="10"/>
<path d="M107.182 182.818H236.742" stroke="#263238" stroke-miterlimit="10"/>
<path d="M107.182 196.124H236.742" stroke="#263238" stroke-miterlimit="10"/>
<path d="M107.182 209.43H236.742" stroke="#263238" stroke-miterlimit="10"/>
<path d="M107.182 222.736H236.742" stroke="#263238" stroke-miterlimit="10"/>
<path d="M107.182 236.042H236.742" stroke="#263238" stroke-miterlimit="10"/>
<path d="M288.56 317.98H57.4585V189.819L173.016 268.256L288.56 189.819V317.98Z" fill="#FFA401" stroke="#263238" stroke-miterlimit="10"/>
<path d="M57.4585 317.98L141.484 246.816" stroke="#263238" stroke-miterlimit="10"/>
<path d="M288.194 317.98L204.793 246.701" stroke="#263238" stroke-miterlimit="10"/>
<path d="M198.008 100.536C198.008 100.536 197.14 104.596 198.302 105.902C199.464 107.207 203.811 111.848 203.811 112.573C203.811 113.297 202.376 134.185 202.376 134.185L195.705 129.401L191.645 141.874C191.645 141.874 201.795 146.229 206.586 147.096C211.378 147.964 212.239 146.659 212.239 142.893C212.239 139.127 208.466 110.256 208.466 110.256C208.466 110.256 209.628 103.585 209.628 102.423C209.628 101.261 210.065 100.68 209.047 100.099C208.028 99.5176 199.765 98.664 199.765 98.664C199.765 98.664 198.008 99.3742 198.008 100.536Z" fill="white" stroke="#263238" stroke-linecap="round" stroke-linejoin="round"/>
<path d="M195.856 131.158L193.654 142.334L191.631 141.874L195.856 131.158Z" fill="#263238" stroke="#263238" stroke-linecap="round" stroke-linejoin="round"/>
<path d="M212.117 103.793L195.684 101.583V97.4877C195.684 97.2974 195.759 97.115 195.894 96.9804C196.028 96.8459 196.211 96.7704 196.401 96.7704C196.591 96.7704 196.774 96.8459 196.908 96.9804C197.043 97.115 197.118 97.2974 197.118 97.4877V100.357L210.855 102.208L211.091 98.8936C211.076 98.7876 211.085 98.6796 211.117 98.5775C211.149 98.4754 211.204 98.3818 211.277 98.3035C211.35 98.2253 211.44 98.1643 211.539 98.1252C211.639 98.0861 211.746 98.0698 211.853 98.0774C211.96 98.0851 212.063 98.1166 212.156 98.1695C212.249 98.2225 212.329 98.2956 212.39 98.3835C212.452 98.4714 212.492 98.5718 212.509 98.6774C212.527 98.7831 212.52 98.8913 212.49 98.994L212.117 103.793Z" fill="#263238"/>
<path d="M199.464 102.423L208.452 103.291L209.033 100.099L199.751 98.6497L199.464 102.423Z" fill="white" stroke="#263238" stroke-linecap="round" stroke-linejoin="round"/>
<path d="M197.864 102.86C197.864 102.86 197.864 99.2307 198.302 98.9438C198.739 98.6569 204.973 99.0873 204.973 99.9552C204.973 100.823 204.973 101.261 204.255 101.261C203.538 101.261 202.104 101.404 202.104 101.404C202.104 101.404 205.439 104.453 204.42 107.207" fill="white"/>
<path d="M197.864 102.86C197.864 102.86 197.864 99.2307 198.302 98.9438C198.739 98.6569 204.973 99.0873 204.973 99.9552C204.973 100.823 204.973 101.261 204.255 101.261C203.538 101.261 202.104 101.404 202.104 101.404C202.104 101.404 205.439 104.453 204.42 107.207" stroke="#263238" stroke-linecap="round" stroke-linejoin="round"/>
<path d="M202.362 134.185L201.781 140.569" stroke="#263238" stroke-linecap="round" stroke-linejoin="round"/>
<path d="M128.702 131.402C128.702 131.402 108.201 147.398 108.732 149.126C109.263 150.855 124.469 165.395 129.498 168.96C134.526 172.525 137.302 174.125 137.302 174.125L140.473 176.104C140.473 176.104 139.153 178.256 139.949 178.622C140.745 178.988 143.65 180.473 144.045 179.676C144.439 178.88 146.562 172.934 146.297 171.478C146.032 170.022 138.356 168.831 137.833 168.3C137.309 167.769 124.735 148.215 124.735 148.215L134.526 140.547L128.702 131.402Z" fill="white" stroke="#263238" stroke-linecap="round" stroke-linejoin="round"/>
<path d="M128.35 131.933L132.073 142.025L134.526 140.526L128.35 131.933Z" fill="#263238" stroke="#263238" stroke-linecap="round" stroke-linejoin="round"/>
<path d="M140.473 176.09C140.473 176.09 141.405 178.077 142.99 178.242" stroke="#263238" stroke-linecap="round" stroke-linejoin="round"/>
<path d="M124.735 148.194L122.088 143.567" stroke="#263238" stroke-linecap="round" stroke-linejoin="round"/>
<path d="M142.33 293.025L142.115 304.782L151.749 304.99L152.602 292.178L142.33 293.025Z" fill="white" stroke="#263238" stroke-linecap="round" stroke-linejoin="round"/>
<path d="M142.366 292.386V295.292L152.358 295.758L152.588 292.738L142.366 292.386Z" fill="#263238" stroke="#263238" stroke-linecap="round" stroke-linejoin="round"/>
<path d="M146.878 301.711C146.878 301.711 145.608 296.733 143.7 296.626C141.792 296.518 140.831 298.003 140.114 299.38C139.396 300.757 134.712 305.413 133.12 306.553C131.527 307.694 128.041 309.2 127.511 312.586C126.98 315.971 128.988 317.356 130.38 317.671C131.771 317.987 138.005 318.095 141.713 317.671C145.422 317.248 155.528 318.252 156.117 317.671C156.705 317.09 157.494 315.233 156.963 313.963C156.547 313.039 156.05 312.153 155.478 311.316C155.478 311.316 156.54 308.246 155.901 306.553C155.263 304.86 153.993 302.737 154.209 301.783C154.424 300.829 156.748 298.821 155.163 298.713C153.577 298.606 151.031 300.514 149.424 301.044C148.598 301.347 147.746 301.57 146.878 301.711Z" fill="#263238" stroke="#263238" stroke-linecap="round" stroke-linejoin="round"/>
<path d="M153.657 311.768C152.172 311.983 146.484 314.731 142.854 315.584C139.225 316.438 136.083 316.531 134.383 315.685C132.683 314.838 131.205 312.299 129.936 310.706C128.666 309.114 127.612 313.145 127.612 313.145L127.432 313.224C127.217 316.172 129.068 317.399 130.359 317.7C131.65 318.001 137.984 318.123 141.692 317.7C145.401 317.277 155.508 318.281 156.096 317.7C156.684 317.119 157.473 315.261 156.942 313.992C156.526 313.067 156.029 312.182 155.457 311.345C154.826 311.237 155.142 311.56 153.657 311.768Z" fill="white" stroke="#263238" stroke-linecap="round" stroke-linejoin="round"/>
<path d="M138.234 302.336C138.234 302.336 141.104 301.704 144.69 305.205L142.789 306.79C142.789 306.79 139.081 303.921 136.75 303.921L138.234 302.336Z" fill="white" stroke="#263238" stroke-linecap="round" stroke-linejoin="round"/>
<path d="M135.552 304.487C135.552 304.487 138.421 303.849 142.008 307.357L140.107 308.949C140.107 308.949 136.399 306.08 134.067 306.08L135.552 304.487Z" fill="white" stroke="#263238" stroke-linecap="round" stroke-linejoin="round"/>
<path d="M143.916 304.143L146.878 301.711" stroke="#263238" stroke-linecap="round" stroke-linejoin="round"/>
<path d="M140.107 308.913C140.107 308.913 140.824 310.498 139.576 311.452C138.328 312.406 129.935 310.814 130.043 309.652C130.151 308.49 134.067 306.066 134.067 306.066C136.256 306.585 138.313 307.555 140.107 308.913Z" fill="white" stroke="#263238" stroke-linecap="round" stroke-linejoin="round"/>
<path d="M203.093 293.025L203.301 304.782L193.668 304.99L192.821 292.178L203.093 293.025Z" fill="white" stroke="#263238" stroke-linecap="round" stroke-linejoin="round"/>
<path d="M193.008 294.359V296.102L203.229 295.987L203.115 293.434L192.778 293.319L193.008 294.359Z" fill="#263238" stroke="#263238" stroke-linecap="round" stroke-linejoin="round"/>
<path d="M198.538 301.711C198.538 301.711 199.808 296.733 201.716 296.626C203.624 296.518 204.585 298.003 205.303 299.38C206.02 300.757 210.704 305.413 212.289 306.553C213.874 307.694 217.375 309.2 217.898 312.586C218.422 315.971 216.421 317.356 215.029 317.671C213.638 317.987 207.404 318.095 203.696 317.671C199.987 317.248 189.881 318.252 189.3 317.671C188.718 317.09 187.922 315.233 188.446 313.963C188.862 313.039 189.359 312.153 189.931 311.316C189.931 311.316 188.869 308.246 189.508 306.553C190.146 304.86 191.416 302.737 191.2 301.783C190.985 300.829 188.661 298.821 190.246 298.713C191.832 298.606 194.378 300.514 195.985 301.044C196.813 301.348 197.668 301.571 198.538 301.711Z" fill="#263238" stroke="#263238" stroke-linecap="round" stroke-linejoin="round"/>
<path d="M191.76 311.768C193.245 311.983 198.933 314.731 202.563 315.584C206.192 316.438 209.341 316.531 211.034 315.685C212.727 314.838 214.212 312.299 215.481 310.706C216.751 309.114 217.812 313.145 217.812 313.145L217.985 313.224C218.2 316.172 216.349 317.399 215.058 317.7C213.767 318.001 207.433 318.123 203.725 317.7C200.016 317.277 189.909 318.281 189.328 317.7C188.747 317.119 187.951 315.261 188.475 313.992C188.891 313.067 189.388 312.182 189.96 311.345C190.598 311.237 190.275 311.56 191.76 311.768Z" fill="white" stroke="#263238" stroke-linecap="round" stroke-linejoin="round"/>
<path d="M207.218 302.336C207.218 302.336 204.349 301.704 200.762 305.205L202.67 306.79C202.67 306.79 206.372 303.921 208.703 303.921L207.218 302.336Z" fill="white" stroke="#263238" stroke-linecap="round" stroke-linejoin="round"/>
<path d="M209.865 304.487C209.865 304.487 206.996 303.849 203.409 307.357L205.317 308.949C205.317 308.949 209.019 306.08 211.35 306.08L209.865 304.487Z" fill="white" stroke="#263238" stroke-linecap="round" stroke-linejoin="round"/>
<path d="M201.501 304.143L198.538 301.711" stroke="#263238" stroke-linecap="round" stroke-linejoin="round"/>
<path d="M205.317 308.913C205.317 308.913 204.6 310.498 205.841 311.452C207.082 312.406 215.481 310.814 215.374 309.652C215.266 308.49 211.35 306.066 211.35 306.066C209.162 306.584 207.108 307.554 205.317 308.913Z" fill="white" stroke="#263238" stroke-linecap="round" stroke-linejoin="round"/>
<path d="M146.756 168.917C146.756 168.917 141.154 191.792 139.052 211.173C136.951 230.555 133.68 294.043 133.68 294.043H159.359C159.359 294.043 167.063 229.608 168.232 218.174C169.401 206.74 169.394 199.524 169.394 199.524L183.869 294.072H214.448C214.448 294.072 202.778 234.077 198.108 206.561C193.438 179.045 186.904 168.278 186.904 168.278L146.756 168.917Z" fill="#B0B0B0" stroke="#263238" stroke-linecap="round" stroke-linejoin="round"/>
<path d="M168.699 170.574C168.476 171.241 162.394 180.379 164.259 181.075C166.124 181.771 169.631 181.792 169.631 179.913V172.439C169.631 172.439 170.098 182.947 172.199 182.481C174.301 182.015 177.098 182.481 176.403 180.143C175.707 177.804 170.334 170.351 170.334 170.351C170.334 170.351 169.395 168.472 168.699 170.574Z" fill="#B0B0B0" stroke="#263238" stroke-linecap="round" stroke-linejoin="round"/>
<path d="M169.66 171.341C169.66 171.341 174.953 178.859 174.444 179.54C173.935 180.222 173.246 180.903 172.737 179.884C172.228 178.866 169.66 171.341 169.66 171.341Z" stroke="#263238" stroke-miterlimit="10"/>
<path d="M169.488 170.488C169.488 170.488 165.557 178.859 166.073 179.196C166.257 179.31 166.466 179.378 166.682 179.395C166.898 179.412 167.115 179.377 167.314 179.294C167.514 179.211 167.691 179.081 167.831 178.915C167.971 178.75 168.069 178.553 168.117 178.342C168.462 177.152 169.488 170.488 169.488 170.488Z" stroke="#263238" stroke-miterlimit="10"/>
<path d="M185.44 194.345C185.656 195.529 185.842 196.648 185.971 197.652" stroke="#263238" stroke-linecap="round" stroke-linejoin="round"/>
<path d="M179.903 171.277C179.903 171.277 182.815 181.678 184.687 190.508" stroke="#263238" stroke-linecap="round" stroke-linejoin="round"/>
<path d="M177.801 171.277C177.801 171.277 179.666 184.346 180.599 187.847" stroke="#263238" stroke-linecap="round" stroke-linejoin="round"/>
<path d="M152.394 189.374C152.294 190.278 152.208 191.103 152.122 191.813" stroke="#263238" stroke-linecap="round" stroke-linejoin="round"/>
<path d="M154.223 171.277C154.223 171.277 153.448 179.26 152.789 185.86" stroke="#263238" stroke-linecap="round" stroke-linejoin="round"/>
<path d="M152.359 171.743L151.419 182.947" stroke="#263238" stroke-linecap="round" stroke-linejoin="round"/>
<path d="M168.713 76.0259C168.713 76.0259 177.414 76.8939 175.384 81.3914C173.354 85.8889 171.324 86.7568 170.887 86.7568C170.449 86.7568 166.97 81.3914 166.97 81.3914L168.713 76.0259Z" fill="#263238" stroke="#263238" stroke-linecap="round" stroke-linejoin="round"/>
<path d="M167.694 80.2293C167.694 80.2293 171.03 82.1158 172.048 85.5948C173.067 89.0737 175.671 90.0923 176.402 89.9488C177.134 89.8053 178.138 91.9788 177.27 93.4277L176.402 94.8623C176.402 94.8623 177.12 104.725 176.252 106.031C175.384 107.336 170.018 106.612 170.018 106.612C170.018 106.612 168.856 111.253 169.875 114.158C170.893 117.063 173.935 118.505 175.097 118.505C176.259 118.505 178.719 117.07 182.055 118.799C185.39 120.528 196.559 128.949 196.559 128.949L190.598 145.246L184.214 141.91L188.711 169.613L145.2 170.631C145.2 170.631 145.637 150.905 144.482 147.276C143.675 144.87 142.655 142.542 141.434 140.318L135.925 144.665L128.235 131.323C128.235 131.323 139.547 120.011 144.016 118.992C148.485 117.974 153.879 119.287 155.622 117.106C157.365 114.925 155.909 104.632 155.909 104.632C155.909 104.632 151.706 103.197 149.238 95.7877C146.771 88.3779 155.184 80.7243 155.184 80.7243C155.184 80.7243 158.993 76.7504 167.694 80.2293Z" fill="white" stroke="#263238" stroke-linecap="round" stroke-linejoin="round"/>
<path d="M170.018 106.626L166.095 105.966L169.244 109.589L170.018 106.626Z" fill="#263238" stroke="#263238" stroke-linecap="round" stroke-linejoin="round"/>
<path d="M168.175 88.0838C168.175 88.0838 168.175 85.3293 170.642 85.3293" stroke="#263238" stroke-width="2" stroke-linecap="round" stroke-linejoin="round"/>
<path d="M174.659 98.0687L169.581 95.6012C169.581 95.6012 169.15 100.823 171.015 100.68C172.88 100.536 174.659 98.0687 174.659 98.0687Z" fill="#263238" stroke="#263238" stroke-linecap="round" stroke-linejoin="round"/>
<path d="M169.688 90.7737C169.688 90.7737 171.324 89.002 172.687 90.5011" stroke="#263238" stroke-linecap="round" stroke-linejoin="round"/>
<path d="M169.545 97.2581L174.107 98.743C174.303 98.5284 174.487 98.3033 174.659 98.0687L169.581 95.6083C169.581 95.6083 169.523 96.3472 169.545 97.2581Z" fill="white" stroke="#263238" stroke-linecap="round" stroke-linejoin="round"/>
<path d="M141.154 86.4699C141.154 86.4699 137.962 79.9424 133.464 80.6669C128.967 81.3914 125.488 86.3192 126.937 93.2843C126.937 93.2843 127.654 95.1708 128.242 96.7632C128.242 96.7632 122.59 95.0273 119.542 98.7932C116.493 102.559 118.824 106.483 122.296 108.369C125.768 110.256 127.812 110.112 127.812 110.112C127.812 110.112 120.123 112.429 122.877 115.334C125.631 118.239 134.045 116.346 132.302 113.9C130.559 111.454 129.261 111.748 129.261 111.748C129.261 111.748 136.219 109.137 135.494 107.25C134.77 105.364 131.291 103.915 131.291 103.915C131.291 103.915 137.962 106.239 141.591 104.058C145.221 101.878 142.022 92.5813 142.022 92.5813L141.154 86.4699Z" fill="#263238" stroke="#263238" stroke-linecap="round" stroke-linejoin="round"/>
<path d="M170.305 72.8339C170.305 72.8339 171.468 76.8939 169.438 80.3728C167.408 83.8517 163.054 89.8053 162.473 96.4763C161.891 103.147 163.778 111.418 164.94 114.172C166.102 116.927 163.505 117.508 161.605 117.364C159.704 117.221 158.994 116.059 158.994 113.448C158.994 110.837 158.413 106.196 158.413 106.196C158.413 106.196 151.017 105.478 147.538 103.434C144.059 101.39 138.981 94.4463 141.154 86.4699C143.328 78.4935 149.131 76.1694 152.631 74.7204C156.132 73.2715 160.902 73.4149 164.237 72.6905C167.573 71.966 170.162 71.0909 170.305 72.8339Z" fill="#263238" stroke="#263238" stroke-linecap="round" stroke-linejoin="round"/>
<path d="M159.754 93.1408L158.449 98.3628C158.449 98.3628 155.694 97.0573 155.257 94.7332C154.819 92.4091 158.126 91.2543 160.479 93.2986" fill="white"/>
<path d="M159.754 93.1408L158.449 98.3628C158.449 98.3628 155.694 97.0573 155.257 94.7332C154.819 92.4091 158.126 91.2543 160.479 93.2986" stroke="#263238" stroke-linecap="round" stroke-linejoin="round"/>
<path d="M202.075 101.404L200.188 101.555" stroke="#263238" stroke-linecap="round" stroke-linejoin="round"/>
<path d="M188.503 97.2151L236.85 103.979L230.279 68.2145L187.011 89.0522L188.503 97.2151Z" fill="#FFA401" stroke="#263238" stroke-linecap="round" stroke-linejoin="round"/>
<path d="M187.008 89.0538L179.825 90.367L181.311 98.4956L188.494 97.1824L187.008 89.0538Z" fill="#FFA401" stroke="#263238" stroke-linecap="round" stroke-linejoin="round"/>
<path d="M196.559 128.963C196.559 128.963 185.39 120.549 182.055 118.813C178.719 117.077 176.317 118.483 175.147 118.519C173.592 120.758 171.498 122.57 169.059 123.787C166.62 125.005 163.913 125.588 161.189 125.484C151.648 125.362 148.994 120.054 148.421 118.505C146.961 118.519 145.505 118.67 144.074 118.957C139.576 119.975 128.293 131.287 128.293 131.287L135.982 144.629L141.491 140.282C142.713 142.506 143.733 144.834 144.54 147.24C145.702 150.869 145.257 170.595 145.257 170.595L188.769 169.577L184.271 141.874L190.598 145.246L196.559 128.963Z" fill="#263238" stroke="#263238" stroke-linecap="round" stroke-linejoin="round"/>
<path d="M169.029 156.589C176.221 154.877 180.663 147.659 178.951 140.468C177.239 133.277 170.021 128.835 162.83 130.547C155.639 132.258 151.197 139.476 152.909 146.667C154.621 153.859 161.838 158.301 169.029 156.589Z" stroke="white" stroke-miterlimit="10"/>
<path d="M174.107 137.499H158.233L166.059 145.038L174.107 137.499Z" fill="#FFA401"/>
<path d="M169.237 143.374L174.76 148.251V138.195L169.237 143.374Z" fill="#FFA401"/>
<path d="M162.939 143.359L157.344 137.965V148.022L162.939 143.359Z" fill="#FFA401"/>
<path d="M168.534 144.026L166.052 146.358L163.635 144.026L157.81 148.883H174.028L168.534 144.026Z" fill="#FFA401"/>
<path d="M14.3628 317.98H330.206" stroke="#263238" stroke-miterlimit="10"/>
</svg>
