<svg width="291" height="291" viewBox="0 0 291 291" fill="none" xmlns="http://www.w3.org/2000/svg">
<path d="M62.5416 223.894C64.4975 223.242 67.9661 220.054 67.9661 220.047C67.9661 220.04 65.1756 218.424 64.9865 218.345C62.7893 217.419 57.9972 216.924 56.2564 218.952C55.9811 219.297 55.7808 219.695 55.6686 220.122C55.5563 220.549 55.5344 220.995 55.6044 221.431C55.6744 221.866 55.8346 222.283 56.0749 222.653C56.3152 223.023 56.6302 223.339 56.9997 223.581C58.5383 224.676 60.8464 224.441 62.5416 223.894Z" fill="#9C9C9C"/>
<path d="M98.6678 193.159C98.7135 193.159 97.2334 190.271 97.1161 190.095C95.8121 188.139 92.0697 185.055 89.5009 185.785C89.0774 185.918 88.6866 186.139 88.3539 186.433C88.0211 186.727 87.7539 187.088 87.5695 187.491C87.3851 187.895 87.2876 188.333 87.2833 188.777C87.2791 189.221 87.3682 189.661 87.5449 190.069C88.2425 191.816 90.2963 192.898 92.0176 193.374C94.0387 193.935 98.6613 193.165 98.6678 193.159Z" fill="#9C9C9C"/>
<path d="M72.7711 232.963C74.4532 231.861 76.7743 228.177 76.9569 227.884C79.0612 229.215 81.2525 230.405 83.5159 231.444C84.8198 232.056 86.176 232.637 87.5321 233.197C86.8801 233.028 86.2868 232.891 86.2281 232.878C83.8614 232.565 79.1084 233.354 77.9675 235.766C77.7886 236.174 77.6978 236.614 77.701 237.059C77.7041 237.505 77.8012 237.944 77.9858 238.349C78.1704 238.754 78.4385 239.115 78.7723 239.409C79.1062 239.704 79.4985 239.924 79.9234 240.056C81.6968 240.708 83.8353 239.854 85.3545 238.876C86.8736 237.898 88.9078 234.775 89.4359 233.947L91.0007 234.599C93.5108 235.597 96.0145 236.555 98.4464 237.624C99.3005 237.99 100.129 238.387 100.963 238.772C100.376 238.628 99.8873 238.511 99.809 238.505C97.4423 238.192 92.6959 238.981 91.5484 241.393C91.3696 241.8 91.2788 242.24 91.282 242.685C91.2852 243.129 91.3823 243.568 91.567 243.973C91.7517 244.377 92.0197 244.738 92.3536 245.032C92.6875 245.325 93.0796 245.545 93.5043 245.676C95.2843 246.328 97.4489 245.474 98.9354 244.496C100.422 243.518 102.287 240.702 102.926 239.724C103.76 240.148 104.601 240.571 105.397 241.028C105.931 241.347 106.472 241.615 106.994 241.967L108.546 242.964C109.504 243.616 110.502 244.32 111.427 244.998C112.079 245.468 112.679 245.924 113.292 246.381C112.445 246.009 110.769 245.305 110.619 245.266C108.331 244.614 103.512 244.659 102.019 246.87C101.78 247.244 101.622 247.664 101.557 248.103C101.491 248.542 101.519 248.99 101.638 249.418C101.758 249.846 101.966 250.243 102.25 250.585C102.533 250.927 102.886 251.205 103.284 251.401C104.94 252.294 107.196 251.799 108.833 251.055C110.612 250.24 113.396 247.091 113.709 246.694C114.72 247.456 115.698 248.206 116.604 248.93C119.251 251.023 121.455 252.907 123.124 254.38L124.428 253.194C122.681 251.72 120.347 249.804 117.537 247.678C116.513 246.902 115.405 246.087 114.277 245.266C114.878 244.061 115.41 242.822 115.867 241.556C117.869 241.758 121.638 240.721 122.127 240.584C122.55 241.778 122.948 242.945 123.307 244.047C124.337 247.196 125.126 249.914 125.706 252.072L127.166 250.768C126.56 248.754 125.778 246.296 124.806 243.525C124.382 242.312 123.907 241.028 123.398 239.711C123.848 239.456 127.473 237.344 128.614 235.753C129.651 234.306 130.57 232.174 130.009 230.368C129.891 229.941 129.684 229.543 129.403 229.201C129.121 228.858 128.771 228.579 128.374 228.381C127.978 228.182 127.544 228.069 127.102 228.049C126.659 228.028 126.217 228.101 125.804 228.262C123.346 229.312 122.368 234.025 122.583 236.399C122.583 236.542 122.909 238.048 123.118 239.007C122.909 238.465 122.713 237.944 122.466 237.396C122.035 236.301 121.572 235.225 121.083 234.065C120.823 233.51 120.568 232.956 120.301 232.395C120.034 231.835 119.721 231.268 119.427 230.694C118.73 229.39 117.954 228.086 117.139 226.782C118.097 226.404 121.468 225.008 122.72 223.731C123.972 222.453 125.197 220.471 124.911 218.625C124.86 218.185 124.717 217.76 124.492 217.378C124.266 216.996 123.963 216.667 123.601 216.41C123.239 216.153 122.827 215.976 122.393 215.889C121.958 215.803 121.509 215.809 121.077 215.907C118.469 216.559 116.806 221.083 116.663 223.463C116.663 223.607 116.741 225.328 116.806 226.273C116.311 225.504 115.822 224.735 115.3 223.972C113.788 221.775 112.184 219.597 110.599 217.419C110.11 216.767 109.634 216.083 109.159 215.411C109.498 215.281 113.54 213.71 114.942 212.282C116.187 210.978 117.419 209.022 117.139 207.17C117.088 206.729 116.944 206.304 116.718 205.922C116.491 205.541 116.187 205.211 115.825 204.954C115.463 204.698 115.051 204.521 114.615 204.434C114.18 204.347 113.732 204.353 113.299 204.451C110.691 205.103 109.028 209.628 108.885 212.008C108.885 212.19 109.002 214.661 109.067 215.268C108.011 213.788 106.974 212.308 106.009 210.808C104.694 208.791 103.513 206.689 102.476 204.516C102.632 204.458 106.857 202.834 108.291 201.367C109.537 200.063 110.769 198.107 110.489 196.262C110.438 195.822 110.296 195.397 110.07 195.015C109.844 194.633 109.541 194.303 109.179 194.047C108.817 193.79 108.405 193.613 107.971 193.526C107.536 193.439 107.087 193.445 106.655 193.544C104.047 194.196 102.384 198.72 102.241 201.1C102.241 201.257 102.326 203.141 102.391 204.034L102.247 204.073C101.256 201.86 100.466 199.563 99.8873 197.208C99.5548 195.904 99.307 194.658 99.0919 193.439C99.9068 193.218 103.656 192.168 105.077 190.988C106.498 189.808 107.894 188.034 107.822 186.15C107.818 185.706 107.722 185.268 107.538 184.865C107.354 184.461 107.088 184.1 106.756 183.806C106.424 183.511 106.034 183.29 105.611 183.156C105.188 183.021 104.742 182.978 104.301 183.027C101.661 183.399 99.4896 187.702 99.0853 190.055C99.0853 190.179 98.981 191.503 98.9354 192.468C98.8506 191.914 98.7463 191.346 98.6746 190.812C98.3942 188.81 98.2573 186.965 98.1465 185.328C98.0943 184.396 98.0682 183.549 98.0487 182.76C98.7333 182.108 101.485 179.5 102.202 177.85C102.919 176.201 103.343 173.938 102.41 172.295C102.204 171.902 101.917 171.557 101.568 171.282C101.219 171.007 100.817 170.809 100.386 170.7C99.9555 170.591 99.5068 170.574 99.0693 170.65C98.6317 170.726 98.2151 170.893 97.8466 171.141C95.6689 172.693 95.7276 177.511 96.4513 179.787C96.5165 179.982 97.84 182.942 97.8792 182.91L97.9183 182.87C97.9183 183.627 97.9183 184.442 97.9704 185.335C98.0422 186.978 98.1334 188.836 98.3747 190.851C98.6099 193.022 98.9712 195.177 99.457 197.306C99.9892 199.695 100.735 202.032 101.687 204.288L101.726 204.367C101.217 203.773 99.7373 202.163 99.6069 202.052C97.8074 200.487 93.4065 198.525 91.1311 199.907C90.7575 200.146 90.4386 200.462 90.1953 200.833C89.9519 201.204 89.7895 201.622 89.7188 202.06C89.648 202.499 89.6705 202.947 89.7846 203.375C89.8988 203.804 90.1021 204.204 90.3813 204.549C91.5158 206.055 93.7782 206.557 95.5646 206.564C97.5727 206.564 101.537 204.771 101.856 204.608C102.877 206.881 104.049 209.083 105.364 211.199C106.12 212.432 106.922 213.657 107.744 214.87C107.287 214.375 106.877 213.931 106.811 213.872C105.012 212.314 100.611 210.345 98.3355 211.727C97.962 211.967 97.6431 212.283 97.3997 212.654C97.1563 213.025 96.994 213.443 96.9232 213.881C96.8525 214.319 96.8749 214.767 96.9891 215.196C97.1032 215.625 97.3066 216.025 97.5858 216.37C98.7137 217.882 100.983 218.378 102.769 218.384C104.556 218.391 107.985 216.924 108.885 216.526C109.204 216.989 109.537 217.458 109.843 217.921C111.382 220.132 112.927 222.342 114.407 224.546C114.922 225.328 115.398 226.11 115.874 226.893C115.47 226.449 115.124 226.084 115.066 226.032C113.266 224.467 108.865 222.505 106.59 223.887C106.217 224.127 105.898 224.443 105.656 224.814C105.413 225.186 105.251 225.604 105.181 226.042C105.111 226.48 105.134 226.928 105.249 227.357C105.363 227.785 105.567 228.185 105.846 228.529C106.974 230.035 109.243 230.537 111.023 230.544C112.803 230.55 115.913 229.24 116.982 228.757C117.452 229.572 117.921 230.387 118.332 231.202C118.606 231.763 118.906 232.285 119.14 232.865C119.375 233.445 119.643 233.999 119.884 234.554C120.321 235.649 120.77 236.77 121.188 237.846C121.468 238.589 121.722 239.307 121.977 240.024C121.481 239.241 120.464 237.735 120.366 237.618C118.945 236.067 117.149 234.908 115.15 234.254C115.002 234.073 114.836 233.907 114.655 233.758C114.321 233.466 113.93 233.248 113.506 233.117C113.082 232.986 112.636 232.946 112.196 232.999C111.756 233.051 111.331 233.196 110.951 233.424C110.57 233.651 110.242 233.956 109.987 234.319C108.513 236.549 110.3 241.021 111.793 242.886C111.877 242.997 112.966 244.079 113.664 244.751L112.19 243.792C111.232 243.14 110.234 242.488 109.204 241.778L107.633 240.813C107.111 240.48 106.525 240.193 105.964 239.88C104.66 239.176 103.297 238.524 101.915 237.924C102.502 237.083 104.523 234.065 104.882 232.304C105.24 230.544 105.155 228.236 103.897 226.834C103.611 226.495 103.257 226.22 102.858 226.026C102.459 225.833 102.023 225.726 101.58 225.711C101.137 225.697 100.695 225.777 100.285 225.944C99.8739 226.112 99.5031 226.364 99.1962 226.684C97.4032 228.64 98.492 233.354 99.6786 235.421C99.7569 235.551 100.774 236.933 101.354 237.683C100.52 237.318 99.6852 236.946 98.8311 236.601C96.3535 235.603 93.8173 234.645 91.2941 233.726C90.5182 233.439 89.7489 233.139 88.9795 232.845C89.1947 232.552 91.6983 229.012 92.0765 227.043C92.4155 225.295 92.3568 222.974 91.092 221.572C90.8061 221.233 90.4521 220.958 90.0529 220.765C89.6537 220.571 89.2183 220.464 88.775 220.45C88.3316 220.436 87.8903 220.515 87.4796 220.683C87.0689 220.85 86.698 221.102 86.3911 221.423C84.5982 223.378 85.687 228.092 86.8801 230.159C86.9649 230.316 88.4384 232.304 88.8361 232.767C87.1409 232.115 85.4588 231.463 83.8223 230.739C81.6132 229.783 79.47 228.681 77.4067 227.44C77.5045 227.303 80.1386 223.62 80.5232 221.605C80.8558 219.858 80.7971 217.537 79.5387 216.135C79.2529 215.796 78.8988 215.521 78.4997 215.327C78.1005 215.134 77.6651 215.026 77.2217 215.012C76.7784 214.998 76.3371 215.077 75.9264 215.245C75.5157 215.413 75.1448 215.665 74.8379 215.985C73.0449 217.941 74.1338 222.655 75.3204 224.722C75.3986 224.858 76.52 226.378 77.0742 227.088L76.9699 227.199C74.9248 225.898 73.0002 224.416 71.2194 222.772C70.2218 221.879 69.3221 220.973 68.468 220.066C69.0287 219.414 71.5584 216.5 72.1126 214.72C72.6668 212.94 72.8298 210.704 71.7345 209.178C71.4859 208.811 71.1628 208.499 70.7863 208.265C70.4097 208.03 69.9881 207.877 69.5486 207.815C69.1092 207.754 68.6617 207.785 68.2352 207.908C67.8087 208.03 67.4126 208.241 67.0727 208.526C65.0777 210.3 65.6449 215.085 66.5968 217.269C66.6489 217.387 67.314 218.534 67.8095 219.362C67.4313 218.951 67.0336 218.534 66.675 218.13C65.371 216.617 64.204 215.15 63.213 213.84C62.6523 213.09 62.1633 212.406 61.7069 211.76C61.9351 210.847 62.7957 207.164 62.4697 205.371C62.1437 203.578 61.257 201.459 59.5749 200.624C59.1866 200.411 58.7577 200.281 58.3161 200.245C57.8745 200.208 57.4301 200.264 57.0119 200.411C56.5937 200.557 56.2109 200.79 55.8887 201.094C55.5664 201.398 55.3118 201.767 55.1414 202.176C54.1829 204.666 56.8887 208.65 58.7403 210.15C58.9033 210.28 61.6417 212.014 61.6547 211.969C61.6561 211.949 61.6561 211.93 61.6547 211.91C62.0785 212.562 62.5414 213.214 63.0565 213.944C64.0214 215.248 65.1298 216.774 66.4403 218.319C67.836 220.001 69.3272 221.601 70.9064 223.111C72.6702 224.797 74.5792 226.324 76.6113 227.675L76.6896 227.721C75.9398 227.506 73.8143 226.977 73.6448 226.958C71.2781 226.645 66.5316 227.434 65.3841 229.846C65.2052 230.254 65.1144 230.694 65.1176 231.139C65.1208 231.584 65.2178 232.024 65.4024 232.429C65.5871 232.834 65.8551 233.195 66.189 233.489C66.5229 233.784 66.9151 234.004 67.3401 234.136C69.12 234.775 71.2846 233.947 72.7711 232.963Z" fill="#9C9C9C"/>
<path d="M194.751 67.5666C196.147 69.9007 201.173 73.3236 201.18 73.3236C201.186 73.3236 202.432 69.327 202.484 69.0597C203.019 66.0149 202.262 59.8079 199.224 58.191C198.708 57.9363 198.143 57.7932 197.568 57.7709C196.993 57.7486 196.419 57.8477 195.885 58.0617C195.351 58.2758 194.867 58.5999 194.466 59.0131C194.065 59.4263 193.756 59.9193 193.558 60.4599C192.613 62.7289 193.565 65.5846 194.751 67.5666Z" fill="#9C9C9C"/>
<path d="M244.048 104.43C244.048 104.489 247.308 101.783 247.484 101.587C249.616 99.3379 252.407 93.7634 250.744 90.7056C250.454 90.2082 250.062 89.7775 249.594 89.4415C249.127 89.1055 248.594 88.8718 248.03 88.7556C247.466 88.6393 246.883 88.6432 246.321 88.7668C245.759 88.8905 245.228 89.1312 244.765 89.4734C242.751 90.8621 241.975 93.77 241.864 96.078C241.74 98.7903 244.048 104.423 244.048 104.43Z" fill="#9C9C9C"/>
<path d="M186.217 83.1294C188.101 84.9354 193.434 86.8132 193.858 86.9566C192.782 90.0051 191.911 93.122 191.25 96.2865C190.852 98.1251 190.507 99.9964 190.187 101.874C190.187 100.994 190.187 100.205 190.187 100.094C189.9 97.0168 187.534 91.2271 184.15 90.4773C183.584 90.3673 183.002 90.3776 182.441 90.5076C181.88 90.6376 181.352 90.8844 180.892 91.232C180.433 91.5795 180.052 92.02 179.774 92.5247C179.496 93.0294 179.328 93.5869 179.28 94.1611C178.993 96.593 180.675 99.0966 182.344 100.681C184.013 102.265 188.551 104 189.75 104.43C189.633 105.147 189.509 105.871 189.398 106.588C188.857 110.05 188.336 113.506 187.716 116.883C187.501 118.069 187.24 119.237 186.986 120.404C186.986 119.621 186.986 118.963 186.986 118.865C186.699 115.781 184.332 109.998 180.949 109.242C180.383 109.132 179.801 109.144 179.24 109.275C178.679 109.406 178.152 109.653 177.693 110.001C177.234 110.349 176.854 110.79 176.577 111.295C176.3 111.8 176.132 112.358 176.085 112.932C175.798 115.357 177.474 117.861 179.143 119.452C180.812 121.043 184.913 122.594 186.315 123.116C186.021 124.302 185.728 125.489 185.389 126.624C185.134 127.393 184.952 128.149 184.658 128.912L183.837 131.161C183.27 132.57 182.689 134.03 182.096 135.399C181.692 136.345 181.288 137.244 180.883 138.151C181.112 136.971 181.535 134.65 181.535 134.454C181.718 131.363 180.231 125.287 177.024 124.022C176.481 123.828 175.904 123.75 175.329 123.794C174.754 123.837 174.195 124.002 173.688 124.276C173.181 124.55 172.738 124.929 172.387 125.386C172.036 125.843 171.785 126.369 171.651 126.93C170.999 129.284 172.303 132.015 173.686 133.848C175.237 135.869 180.016 138.451 180.616 138.77C179.964 140.263 179.273 141.717 178.621 143.073C176.73 147.031 174.983 150.356 173.601 152.905L175.485 154.248C176.854 151.64 178.602 148.113 180.479 143.94C181.17 142.421 181.881 140.785 182.592 139.096C184.288 139.515 186.008 139.831 187.742 140.041C188.068 142.649 190.461 147.109 190.774 147.683C189.385 148.563 188.029 149.404 186.732 150.173C183.048 152.39 179.808 154.177 177.271 155.526L179.325 156.993C181.705 155.65 184.587 153.955 187.801 151.927C189.216 151.04 190.709 150.062 192.228 149.045C192.678 149.541 196.394 153.518 198.748 154.509C200.88 155.402 203.84 155.956 205.959 154.724C206.467 154.453 206.913 154.079 207.266 153.624C207.62 153.169 207.873 152.645 208.011 152.086C208.148 151.527 208.166 150.945 208.063 150.378C207.96 149.811 207.738 149.273 207.413 148.798C205.379 145.988 199.133 146.111 196.186 147.07C196.016 147.129 194.197 147.95 193.063 148.491C193.682 148.074 194.288 147.67 194.921 147.233C196.179 146.372 197.411 145.479 198.735 144.527L200.626 143.06C201.278 142.578 201.884 141.997 202.523 141.463C203.977 140.198 205.392 138.855 206.78 137.447C207.537 138.542 210.275 142.408 212.251 143.621C214.226 144.834 217.069 145.825 219.344 144.925C219.888 144.734 220.385 144.431 220.804 144.035C221.222 143.639 221.553 143.16 221.773 142.627C221.994 142.095 222.1 141.523 222.085 140.947C222.07 140.371 221.934 139.805 221.685 139.285C220.101 136.201 213.9 135.373 210.849 135.875C210.66 135.908 208.508 136.527 207.335 136.866C208.163 136.025 208.997 135.184 209.806 134.297C212.153 131.755 214.448 129.082 216.743 126.474C217.447 125.665 218.164 124.87 218.868 124.074C219.136 124.465 222.285 129.127 224.501 130.49C226.457 131.696 229.32 132.694 231.602 131.794C232.145 131.602 232.641 131.299 233.059 130.902C233.477 130.506 233.807 130.027 234.027 129.495C234.247 128.963 234.353 128.39 234.337 127.815C234.321 127.239 234.185 126.673 233.936 126.154C232.351 123.07 226.151 122.242 223.1 122.744C222.871 122.777 219.775 123.657 218.999 123.918C220.563 122.157 222.135 120.417 223.758 118.761C225.935 116.518 228.254 114.418 230.702 112.475C230.826 112.658 234.092 117.541 236.361 118.937C238.317 120.143 241.179 121.134 243.461 120.241C244.004 120.049 244.501 119.745 244.919 119.349C245.336 118.953 245.666 118.473 245.886 117.941C246.107 117.409 246.212 116.837 246.197 116.261C246.181 115.686 246.044 115.12 245.795 114.601C244.211 111.517 238.011 110.689 234.959 111.198C234.757 111.198 232.404 111.895 231.289 112.234L231.197 112.058C233.716 110.17 236.397 108.509 239.21 107.097C240.749 106.301 242.262 105.63 243.774 105.004C244.289 105.975 246.695 110.389 248.599 111.869C250.503 113.349 253.163 114.588 255.51 113.949C256.07 113.818 256.597 113.571 257.056 113.223C257.514 112.876 257.895 112.436 258.172 111.931C258.45 111.427 258.618 110.87 258.666 110.297C258.714 109.723 258.64 109.146 258.45 108.603C257.212 105.343 251.148 103.856 248.058 104.039C247.888 104.039 246.187 104.332 244.954 104.547C245.606 104.28 246.323 103.987 246.975 103.739C249.427 102.806 251.722 102.102 253.769 101.496C254.93 101.157 255.992 100.844 256.983 100.622C257.988 101.313 262.062 104.045 264.397 104.469C266.731 104.893 269.684 104.788 271.484 103.132C271.921 102.758 272.275 102.296 272.522 101.775C272.769 101.255 272.903 100.689 272.917 100.113C272.93 99.5374 272.823 98.9653 272.6 98.4341C272.378 97.9029 272.047 97.4244 271.627 97.0298C269.019 94.7283 262.962 96.1887 260.296 97.7535C260.061 97.8904 256.703 100.427 256.755 100.466L256.814 100.505C255.856 100.727 254.825 100.981 253.704 101.274C251.65 101.841 249.323 102.5 246.845 103.38C244.163 104.314 241.538 105.403 238.982 106.64C236.114 108.004 233.371 109.619 230.787 111.465L230.702 111.537C231.302 110.722 232.919 108.387 233.023 108.192C234.483 105.46 235.703 99.3313 233.297 96.8342C232.884 96.4323 232.392 96.1215 231.852 95.9217C231.312 95.722 230.736 95.6379 230.162 95.6747C229.587 95.7116 229.027 95.8687 228.517 96.1358C228.007 96.4029 227.558 96.7741 227.201 97.2254C225.623 99.0966 225.642 102.109 226.151 104.365C226.725 106.907 230.135 111.413 230.408 111.771C227.827 113.718 225.379 115.836 223.08 118.109C221.731 119.413 220.42 120.795 219.116 122.183C219.618 121.46 220.055 120.808 220.107 120.71C221.568 117.985 222.787 111.849 220.381 109.359C219.97 108.955 219.479 108.643 218.939 108.442C218.399 108.241 217.823 108.156 217.249 108.193C216.674 108.23 216.114 108.388 215.604 108.656C215.094 108.925 214.647 109.297 214.291 109.75C212.707 111.615 212.727 114.627 213.235 116.883C213.744 119.139 216.586 123.077 217.349 124.094L215.863 125.704C213.502 128.312 211.162 130.888 208.782 133.359C207.947 134.232 207.087 135.06 206.233 135.895C206.676 135.243 207.048 134.708 207.093 134.591C208.554 131.866 209.773 125.73 207.367 123.24C206.956 122.837 206.464 122.524 205.924 122.324C205.384 122.123 204.808 122.038 204.233 122.074C203.659 122.11 203.098 122.267 202.587 122.534C202.077 122.801 201.629 123.173 201.271 123.624C199.693 125.496 199.713 128.508 200.221 130.764C200.73 133.02 203.292 136.573 204.199 137.792C203.299 138.614 202.399 139.442 201.486 140.204C200.834 140.706 200.28 141.235 199.615 141.711L197.692 143.132C196.44 143.999 195.149 144.892 193.904 145.707C193.037 146.274 192.208 146.803 191.367 147.337C192.215 146.477 193.832 144.762 193.975 144.605C195.526 142.366 196.478 139.767 196.74 137.055C196.924 136.814 197.086 136.557 197.222 136.286C197.496 135.779 197.659 135.22 197.702 134.646C197.746 134.071 197.668 133.494 197.473 132.952C197.279 132.409 196.973 131.914 196.575 131.498C196.176 131.081 195.695 130.754 195.162 130.535C191.902 129.316 186.771 132.863 184.848 135.288C184.73 135.432 183.674 137.121 183.022 138.196C183.309 137.505 183.596 136.84 183.883 136.123C184.456 134.715 184.991 133.293 185.565 131.761C185.819 131.011 186.08 130.255 186.334 129.492C186.588 128.729 186.797 127.914 187.038 127.119C187.553 125.254 187.984 123.351 188.375 121.414C189.607 121.916 194.021 123.631 196.342 123.553C198.663 123.474 201.558 122.731 202.986 120.73C203.333 120.27 203.579 119.743 203.709 119.182C203.839 118.621 203.849 118.039 203.739 117.473C203.629 116.908 203.401 116.372 203.07 115.901C202.739 115.43 202.313 115.033 201.819 114.738C198.8 113.036 193.173 115.768 190.905 117.867C190.761 118.004 189.301 119.693 188.518 120.638C188.74 119.478 188.975 118.317 189.17 117.131C189.718 113.708 190.168 110.233 190.637 106.764C190.774 105.701 190.931 104.645 191.081 103.589C191.517 103.771 196.72 105.923 199.322 105.832C201.63 105.753 204.538 105.01 205.959 103.009C206.306 102.549 206.553 102.022 206.684 101.462C206.814 100.901 206.825 100.319 206.715 99.7538C206.606 99.1886 206.378 98.6528 206.048 98.1812C205.718 97.7097 205.292 97.3129 204.798 97.0168C201.773 95.3216 196.147 98.0469 193.878 100.153C193.708 100.309 191.609 102.761 191.107 103.413C191.439 101.085 191.759 98.7641 192.228 96.4887C192.813 93.4142 193.595 90.3806 194.569 87.4065C194.771 87.4912 200.189 89.7667 202.855 89.6754C205.163 89.5906 208.071 88.8539 209.493 86.8523C209.84 86.3927 210.087 85.8651 210.218 85.3039C210.348 84.7426 210.359 84.1602 210.249 83.5945C210.14 83.0288 209.913 82.4924 209.582 82.0203C209.252 81.5482 208.826 81.1508 208.332 80.854C205.307 79.1588 199.687 81.8841 197.411 83.9901C197.261 84.127 195.664 85.9851 194.921 86.8849L194.751 86.7871C195.797 83.8246 197.106 80.9618 198.663 78.233C199.511 76.7204 200.397 75.3186 201.271 73.9755C202.236 74.5036 206.676 76.8573 209.095 77.0464C211.403 77.2159 214.383 76.7986 216.006 74.9665C216.401 74.548 216.704 74.0509 216.895 73.5076C217.085 72.9642 217.159 72.3869 217.112 71.813C217.065 71.2392 216.897 70.6818 216.62 70.177C216.343 69.6723 215.963 69.2316 215.504 68.8835C212.687 66.8623 206.8 68.9552 204.309 70.8003C204.179 70.8981 202.914 72.0652 202.008 72.9324C202.419 72.3325 202.836 71.7066 203.247 71.1394C204.772 69.0139 206.304 67.1557 207.667 65.5193C208.456 64.5999 209.186 63.7784 209.871 63.0221C211.09 63.0221 216 63.0743 218.177 62.1419C220.355 61.2096 222.741 59.4884 223.354 57.1151C223.512 56.5605 223.552 55.9786 223.47 55.4076C223.389 54.8366 223.187 54.2892 222.88 53.8013C222.572 53.3133 222.165 52.8958 221.685 52.5759C221.205 52.256 220.663 52.041 220.094 51.9449C216.665 51.4494 212.401 56.0263 211.038 58.8038C210.921 59.045 209.519 63.0156 209.577 63.0156H209.656C209.004 63.7328 208.254 64.5087 207.485 65.3758C206.083 66.9797 204.505 68.8118 202.921 70.9112C201.193 73.1617 199.597 75.5106 198.142 77.9461C196.502 80.6663 195.108 83.5268 193.975 86.4937L193.936 86.6045C193.995 85.5874 194.047 82.7513 194.028 82.5296C193.741 79.4457 191.374 73.6626 187.99 72.9128C187.425 72.8037 186.843 72.8148 186.283 72.9453C185.722 73.0758 185.196 73.3228 184.737 73.6703C184.278 74.0177 183.898 74.4578 183.62 74.962C183.343 75.4661 183.174 76.0231 183.126 76.5965C182.872 79.0284 184.548 81.5321 186.217 83.1294Z" fill="#9C9C9C"/>
<path d="M225.65 197.899V195.715C225.65 184.468 239.89 183.979 239.89 175.973C239.89 172.498 237.06 170.229 232.848 170.229C228.239 170.229 225.324 172.739 225.324 176.299V177.192C225.324 178.079 224.842 178.496 223.948 178.496L215.297 178.17C214.488 178.17 213.921 177.766 213.921 177.205V176.312C213.921 166.532 221.686 159.81 233.096 159.81C244.258 159.81 251.456 166.121 251.456 175.581C251.456 189.012 236.975 189.097 236.975 196.445V197.899C236.997 198.085 236.977 198.273 236.915 198.45C236.854 198.627 236.753 198.788 236.621 198.92C236.489 199.053 236.328 199.153 236.151 199.215C235.974 199.276 235.785 199.297 235.599 199.275H227.026C226.84 199.297 226.651 199.276 226.474 199.215C226.298 199.153 226.137 199.053 226.004 198.92C225.872 198.788 225.771 198.627 225.71 198.45C225.649 198.273 225.628 198.085 225.65 197.899ZM224.92 210.939C224.92 207.379 228.076 204.464 231.877 204.464C235.521 204.464 238.755 207.379 238.755 210.939C238.755 214.499 235.495 217.413 231.798 217.413C228.102 217.413 224.92 214.485 224.92 210.926V210.939Z" fill="#263238"/>
<path d="M54.6978 105.251V103.354C54.6978 93.5744 67.0855 93.1636 67.0855 86.2069C67.0855 83.1817 64.6276 81.2192 60.9764 81.2192C56.9667 81.2192 54.4565 83.3969 54.4565 86.4873V87.2632C54.4565 88.0325 54.0393 88.3846 53.2634 88.3846L45.746 88.1042C45.0418 88.1042 44.5529 87.7521 44.5529 87.2632V86.4873C44.5529 78.0114 51.2944 72.1436 61.2046 72.1436C70.8997 72.1436 77.1588 77.6268 77.1588 85.8353C77.1588 97.4994 64.5754 97.5711 64.5754 103.967V105.232C64.5942 105.393 64.5763 105.557 64.523 105.71C64.4696 105.863 64.3823 106.002 64.2675 106.117C64.1528 106.232 64.0135 106.319 63.8602 106.373C63.7069 106.426 63.5435 106.444 63.3823 106.425H55.8909C55.7315 106.443 55.57 106.426 55.4183 106.373C55.2666 106.321 55.1285 106.236 55.0141 106.123C54.8997 106.011 54.8119 105.874 54.7572 105.723C54.7024 105.572 54.6822 105.411 54.6978 105.251ZM54.0458 116.563C54.0458 113.473 56.7841 110.943 60.0832 110.943C63.2453 110.943 66.0619 113.473 66.0619 116.563C66.0619 119.654 63.2453 122.184 60.018 122.184C58.4849 122.222 56.9986 121.653 55.8835 120.6C54.7683 119.547 54.1148 118.096 54.0654 116.563H54.0458Z" fill="#FFA401"/>
<path d="M212.062 30.4359V29.4775C212.062 24.5419 218.308 24.3268 218.308 20.8125C218.308 19.2869 217.062 18.2894 215.217 18.2894C213.196 18.2894 211.918 19.3912 211.918 20.956V21.3472C211.918 21.7384 211.703 21.9144 211.312 21.9144L207.517 21.771C207.159 21.771 206.911 21.5949 206.911 21.3472V20.956C206.911 16.6594 210.321 13.7124 215.328 13.7124C220.224 13.7124 223.387 16.4834 223.387 20.6365C223.387 26.5044 217.03 26.5631 217.03 29.7643V30.4163C217.039 30.498 217.03 30.5807 217.003 30.6583C216.976 30.7359 216.931 30.8063 216.873 30.8641C216.814 30.9219 216.744 30.9657 216.666 30.992C216.588 31.0184 216.505 31.0266 216.423 31.0162H212.661C212.582 31.0263 212.501 31.0184 212.425 30.9931C212.349 30.9678 212.28 30.9258 212.222 30.8701C212.165 30.8144 212.12 30.7464 212.092 30.6713C212.065 30.5961 212.054 30.5157 212.062 30.4359ZM211.742 36.1538C211.7 35.5442 211.843 34.9361 212.151 34.4085C212.46 33.881 212.92 33.4585 213.471 33.1959C214.023 32.9333 214.641 32.8428 215.245 32.9362C215.849 33.0295 216.411 33.3025 216.857 33.7194C217.304 34.1364 217.615 34.6782 217.75 35.2742C217.884 35.8702 217.837 36.493 217.612 37.0615C217.388 37.63 216.999 38.118 216.493 38.4619C215.988 38.8058 215.391 38.9898 214.78 38.99C214.395 39.0039 214.01 38.9415 213.648 38.8064C213.286 38.6713 212.955 38.4661 212.672 38.2027C212.39 37.9392 212.163 37.6226 212.003 37.271C211.843 36.9194 211.755 36.5397 211.742 36.1538Z" fill="#FFA401"/>
<path d="M28.9646 162.294V161.088C28.9646 154.868 36.8406 154.6 36.8406 150.167C36.8406 148.244 35.2758 146.992 32.9287 146.992C30.3794 146.992 28.769 148.381 28.769 150.35V150.838C28.769 151.334 28.5017 151.556 28.0062 151.556L23.2206 151.38C22.7707 151.38 22.4578 151.151 22.4578 150.838V150.35C22.4578 144.938 26.7544 141.222 33.0656 141.222C39.2399 141.222 43.2171 144.71 43.2171 149.945C43.2171 157.371 35.2106 157.417 35.2106 161.492V162.294C35.2233 162.397 35.2123 162.502 35.1784 162.6C35.1446 162.698 35.0887 162.788 35.0152 162.861C34.9417 162.935 34.8524 162.991 34.7541 163.025C34.6558 163.058 34.551 163.069 34.4478 163.057H29.7144C29.6122 163.067 29.5089 163.055 29.4123 163.02C29.3156 162.985 29.2281 162.929 29.156 162.856C29.084 162.782 29.0294 162.694 28.9963 162.597C28.9632 162.499 28.9523 162.396 28.9646 162.294V162.294ZM28.5604 169.498C28.5093 168.73 28.6907 167.965 29.0809 167.301C29.4711 166.637 30.052 166.107 30.7481 165.778C31.4442 165.449 32.2231 165.337 32.9835 165.457C33.7439 165.577 34.4506 165.924 35.0114 166.451C35.5723 166.978 35.9615 167.662 36.1283 168.414C36.295 169.165 36.2317 169.95 35.9465 170.665C35.6612 171.38 35.1673 171.992 34.5291 172.423C33.8908 172.853 33.1378 173.081 32.368 173.078C31.3868 173.109 30.4331 172.75 29.7167 172.079C29.0003 171.408 28.5797 170.48 28.5473 169.498H28.5604Z" stroke="#263238" stroke-miterlimit="10"/>
<path d="M88.9474 49.7478V48.9198C88.9474 44.6428 94.3654 44.4537 94.3654 41.4089C94.3654 40.1049 93.2896 39.2248 91.6857 39.2248C89.9319 39.2248 88.8235 40.1767 88.8235 41.5328V41.8718C88.8235 42.2109 88.6409 42.3608 88.3019 42.3608L85.042 42.2369C84.7355 42.2369 84.5204 42.087 84.5204 41.8718V41.5328C84.5204 37.8099 87.4739 35.2542 91.8096 35.2542C96.1453 35.2542 98.7272 37.6535 98.7272 41.2524C98.7272 46.364 93.2179 46.3966 93.2179 49.1936V49.7478C93.2263 49.8183 93.2186 49.8899 93.1953 49.957C93.1721 50.0241 93.1339 50.085 93.0837 50.1352C93.0335 50.1854 92.9725 50.2236 92.9054 50.2468C92.8383 50.2701 92.7668 50.2778 92.6963 50.2694H89.4364C89.3685 50.2727 89.3006 50.2612 89.2376 50.2356C89.1746 50.2101 89.1179 50.1712 89.0714 50.1216C89.0249 50.072 88.9897 50.0129 88.9683 49.9483C88.9469 49.8838 88.9397 49.8154 88.9474 49.7478ZM88.6735 54.7029C88.6448 54.182 88.7731 53.6644 89.0416 53.2171C89.3102 52.7698 89.7068 52.4133 90.1801 52.1937C90.6534 51.9742 91.1817 51.9016 91.6966 51.9854C92.2116 52.0693 92.6896 52.3057 93.0688 52.664C93.448 53.0224 93.711 53.4862 93.8238 53.9956C93.9366 54.505 93.894 55.0366 93.7016 55.5215C93.5091 56.0065 93.1756 56.4226 92.7442 56.716C92.3128 57.0094 91.8032 57.1667 91.2815 57.1675C90.6081 57.1903 89.9532 56.945 89.4605 56.4854C88.9679 56.0257 88.6778 55.3893 88.654 54.716L88.6735 54.7029Z" fill="#263238"/>
<path d="M185.442 228.49V227.662C185.442 223.385 190.86 223.203 190.86 220.151C190.86 218.847 189.784 217.967 188.18 217.967C186.426 217.967 185.318 218.919 185.318 220.275V220.614C185.318 220.953 185.135 221.11 184.796 221.11L181.536 220.986C181.23 220.986 181.015 220.829 181.015 220.614V220.275C181.015 216.552 183.968 213.997 188.304 213.997C192.64 213.997 195.293 216.396 195.293 220.001C195.293 225.106 189.784 225.139 189.784 227.936V228.49C189.792 228.561 189.785 228.633 189.761 228.7C189.738 228.767 189.7 228.829 189.65 228.879C189.6 228.93 189.539 228.969 189.472 228.993C189.405 229.017 189.333 229.026 189.263 229.018H186.003C185.929 229.032 185.853 229.029 185.781 229.008C185.708 228.987 185.642 228.949 185.588 228.897C185.533 228.846 185.491 228.782 185.466 228.711C185.441 228.641 185.432 228.565 185.442 228.49V228.49ZM185.168 233.445C185.139 232.924 185.268 232.407 185.536 231.96C185.805 231.512 186.201 231.156 186.675 230.936C187.148 230.717 187.676 230.644 188.191 230.728C188.706 230.812 189.184 231.048 189.563 231.406C189.943 231.765 190.206 232.229 190.318 232.738C190.431 233.247 190.389 233.779 190.196 234.264C190.004 234.749 189.67 235.165 189.239 235.458C188.807 235.752 188.298 235.909 187.776 235.91C187.105 235.926 186.455 235.675 185.967 235.214C185.48 234.752 185.195 234.116 185.175 233.445H185.168Z" stroke="#263238" stroke-miterlimit="10"/>
<path d="M159.917 243.329C159.871 243.192 159.826 243.055 159.773 242.919C159.721 242.782 159.682 242.638 159.63 242.501C159.578 242.364 159.539 242.227 159.486 242.091C159.434 241.954 159.395 241.81 159.343 241.673C159.291 241.536 159.252 241.399 159.2 241.263C159.147 241.126 159.108 240.982 159.056 240.845L158.913 240.434C158.867 240.291 158.815 240.154 158.769 240.017L158.626 239.606C158.58 239.463 158.528 239.326 158.482 239.189L158.339 238.778C158.293 238.635 158.241 238.498 158.196 238.361L158.059 237.924C158.013 237.781 157.961 237.644 157.915 237.507L157.765 237.096C157.72 236.953 157.674 236.816 157.622 236.679C157.57 236.542 157.53 236.405 157.478 236.268C157.426 236.131 157.387 235.988 157.335 235.851C157.283 235.714 157.244 235.577 157.191 235.44C155.066 228.973 148.494 224.226 141.263 224.226C134.255 224.226 128.158 228.308 125.616 234.058C125.551 234.188 125.492 234.325 125.433 234.456L125.257 234.86C125.192 234.99 125.133 235.121 125.075 235.258C125.016 235.395 124.951 235.525 124.892 235.655L124.716 236.053C124.651 236.19 124.592 236.32 124.533 236.457C124.475 236.594 124.41 236.718 124.351 236.855C124.292 236.992 124.227 237.116 124.168 237.253L123.992 237.65C123.927 237.781 123.868 237.918 123.81 238.048C123.751 238.179 123.686 238.316 123.627 238.446L123.451 238.85C123.386 238.981 123.327 239.111 123.269 239.248C123.21 239.385 123.145 239.515 123.086 239.646L122.91 240.043C122.845 240.18 122.786 240.311 122.727 240.448C122.669 240.584 122.604 240.708 122.545 240.845L122.369 241.243C122.304 241.373 122.245 241.51 122.186 241.641C122.128 241.771 122.062 241.908 122.004 242.045C120.885 244.427 120.31 247.028 120.322 249.66C120.322 260.157 129.384 268.737 140.592 268.737C151.558 268.737 161.097 260.157 161.097 249.66C161.095 247.659 160.744 245.673 160.06 243.792C160.015 243.603 159.969 243.466 159.917 243.329Z" fill="#263238"/>
<path d="M144.405 98.9211C110.782 98.9211 87.8909 118.709 87.8909 147.566V150.174C87.8969 150.605 88.0142 151.027 88.2312 151.399C88.4482 151.772 88.7577 152.082 89.1296 152.299C89.2703 152.435 89.4231 152.557 89.586 152.664C89.7273 152.802 89.8825 152.924 90.0489 153.03C90.1902 153.167 90.3454 153.289 90.5119 153.395C90.6519 153.534 90.8072 153.656 90.9748 153.76C91.1138 153.897 91.2667 154.019 91.4312 154.125C91.5723 154.264 91.7274 154.389 91.8941 154.497C92.037 154.632 92.192 154.754 92.357 154.862C92.4986 154.999 92.6537 155.121 92.8199 155.227C92.9592 155.364 93.1121 155.486 93.2763 155.592C93.4294 155.74 93.5977 155.871 93.7783 155.983C93.9112 156.104 94.0529 156.215 94.2021 156.316C94.3451 156.451 94.5 156.573 94.665 156.681C94.8057 156.816 94.9585 156.938 95.1214 157.046C95.2644 157.181 95.4193 157.303 95.5843 157.411C95.726 157.548 95.8811 157.67 96.0472 157.776C96.1866 157.913 96.3395 158.035 96.5036 158.141C96.6453 158.278 96.8004 158.4 96.9665 158.506C97.1059 158.643 97.2588 158.766 97.4229 158.871C97.5659 159.007 97.7208 159.129 97.8858 159.237C98.0252 159.373 98.1781 159.496 98.3422 159.602C99.0956 160.265 100.078 160.606 101.081 160.554L122.049 161.336C124.207 161.336 125.38 160.358 125.38 158.2V156.048C125.38 147.423 132.435 141.353 143.636 141.353C153.826 141.353 160.685 146.836 160.685 155.266C160.686 156.227 160.594 157.185 160.411 158.128C149.888 171.924 122.498 178.007 122.498 204.784V211.226C122.498 213.834 123.926 215.275 126.554 215.275H151.799C154.407 215.275 155.854 213.847 155.854 211.226V206.929C155.854 185.231 198.54 184.99 198.54 145.408C198.54 117.516 177.311 98.9211 144.405 98.9211Z" fill="#263238"/>
<path d="M122.466 211.239V204.797C122.466 171.65 164.435 170.242 164.435 146.614C164.435 136.358 156.089 129.662 143.689 129.662C130.095 129.662 121.521 137.055 121.521 147.546V150.154C121.521 152.762 120.087 153.975 117.466 153.975L91.9468 153.016C89.567 153.016 87.8979 151.823 87.8979 150.154V147.546C87.8979 118.689 110.789 98.9011 144.412 98.9011C177.318 98.9011 198.527 117.496 198.527 145.401C198.527 184.983 155.842 185.224 155.842 206.922V211.219C155.842 213.827 154.407 215.268 151.786 215.268H126.522C123.894 215.287 122.466 213.86 122.466 211.239ZM120.321 249.66C120.321 239.17 129.619 230.583 140.826 230.583C151.558 230.583 161.097 239.17 161.097 249.66C161.097 260.151 151.538 268.705 140.592 268.705C129.371 268.705 120.321 260.125 120.321 249.66Z" fill="#FFA401" stroke="#FFA401" stroke-miterlimit="10"/>
<path d="M139.548 290.083C159.212 290.083 175.153 286.519 175.153 282.123C175.153 277.726 159.212 274.162 139.548 274.162C119.884 274.162 103.943 277.726 103.943 282.123C103.943 286.519 119.884 290.083 139.548 290.083Z" fill="#263238"/>
<path d="M112.334 101.561L110.971 104.534C110.971 104.534 103.056 105.388 103.056 105.982C103.056 106.575 103.141 110.663 103.571 110.833C103.898 110.96 104.261 110.96 104.588 110.833L116.246 107.853L117.354 102.578L112.334 101.561Z" fill="white" stroke="#263238" stroke-linecap="round" stroke-linejoin="round"/>
<path d="M110.117 106.875C108.67 108.061 107.108 109.101 105.455 109.979C103.571 110.826 103.499 112.111 104.099 112.111C104.699 112.111 110.019 109.881 110.019 109.881C110.019 109.881 114.851 108.616 115.548 108.231C116.246 107.847 116.324 105.708 116.324 105.708" fill="white"/>
<path d="M110.117 106.875C108.67 108.061 107.108 109.101 105.455 109.979C103.571 110.826 103.499 112.111 104.099 112.111C104.699 112.111 110.019 109.881 110.019 109.881C110.019 109.881 114.851 108.616 115.548 108.231C116.246 107.847 116.324 105.708 116.324 105.708" stroke="#263238" stroke-linecap="round" stroke-linejoin="round"/>
<path d="M119.297 44.4341L114.433 81.7147L111.049 101.9L118.56 103.674L124.161 79.7979L126.814 64.7696L119.297 44.4341Z" fill="#7D7D7D" stroke="#263238" stroke-linecap="round" stroke-linejoin="round"/>
<path d="M158.547 17.4418L155.58 16.9724L149.504 14.6709L149.282 21.8884L158.703 22.7555L158.547 17.4418Z" fill="white" stroke="#263238" stroke-linecap="round" stroke-linejoin="round"/>
<path d="M123.868 149.645C121.657 152.223 119.591 154.922 117.68 157.73C115.17 161.564 116.057 165.684 119.154 166.721C122.251 167.758 126.221 164.948 127.258 162.737C128.295 160.527 127.995 159.354 129.612 157.143C131.229 154.933 132.559 152.723 131.972 149.776C131.385 146.829 125.459 147.585 123.868 149.645Z" fill="#7D7D7D" stroke="#263238" stroke-linecap="round" stroke-linejoin="round"/>
<path d="M126.958 163.291C126.75 162.848 126.509 162.379 126.222 161.877C123.855 157.71 119.702 158.043 117.094 158.819C115.379 162.32 116.357 165.802 119.167 166.74C121.977 167.679 125.602 165.384 126.958 163.291Z" fill="white" stroke="#263238" stroke-linecap="round" stroke-linejoin="round"/>
<path d="M126.221 161.877C125.341 163.181 124.161 166.741 119.59 165.267C118.316 164.94 117.176 164.222 116.33 163.213C116.429 164.008 116.748 164.76 117.252 165.383C117.755 166.007 118.423 166.477 119.18 166.741C122.27 167.771 126.247 164.967 127.284 162.757C128.321 160.547 128.021 159.373 129.638 157.163C131.254 154.953 132.584 152.742 131.998 149.795C131.998 153.329 130.694 153.916 129.051 155.833C127.408 157.75 127.108 160.547 126.221 161.877Z" fill="white" stroke="#263238" stroke-linecap="round" stroke-linejoin="round"/>
<path d="M167.349 149.645C169.56 152.223 171.625 154.922 173.536 157.73C176.046 161.564 175.16 165.684 172.063 166.721C168.966 167.758 164.995 164.948 163.958 162.737C162.922 160.527 163.222 159.354 161.605 157.143C159.988 154.933 158.658 152.723 159.244 149.776C159.831 146.829 165.732 147.585 167.349 149.645Z" fill="#7D7D7D" stroke="#263238" stroke-linecap="round" stroke-linejoin="round"/>
<path d="M164.265 163.291C164.467 162.848 164.709 162.379 164.995 161.877C167.362 157.71 171.515 158.043 174.123 158.819C175.838 162.32 174.86 165.802 172.05 166.74C169.24 167.679 165.615 165.384 164.265 163.291Z" fill="white" stroke="#263238" stroke-linecap="round" stroke-linejoin="round"/>
<path d="M164.995 161.877C165.875 163.181 167.055 166.741 171.626 165.267C172.9 164.94 174.04 164.222 174.886 163.213C174.787 164.008 174.468 164.76 173.964 165.383C173.461 166.007 172.793 166.477 172.036 166.741C168.946 167.771 164.969 164.967 163.932 162.757C162.896 160.547 163.195 159.373 161.579 157.163C159.962 154.953 158.632 152.742 159.218 149.795C159.218 153.329 160.522 153.916 162.165 155.833C163.808 157.75 164.108 160.547 164.995 161.877Z" fill="white" stroke="#263238" stroke-linecap="round" stroke-linejoin="round"/>
<path d="M174.259 98.8099C174.259 96.1563 169.695 93.2093 169.695 93.2093C162.817 86.2135 150.403 87.1393 145.819 87.7652C141.256 87.1132 128.829 86.2135 121.95 93.2093C121.95 93.2093 117.386 96.1563 117.386 98.8099C117.386 101.463 123.137 149.352 123.137 149.352C123.137 149.352 122.987 151.856 127.114 152.149C131.241 152.442 132.982 150.089 132.982 150.089L134.605 109.568C134.605 109.568 141.236 104.847 142.429 104.704C142.859 104.645 143.42 104.554 144.046 104.476V104.554C145.214 104.31 146.419 104.31 147.586 104.554V104.476C148.238 104.554 148.766 104.645 149.203 104.704C150.383 104.847 157.027 109.568 157.027 109.568L158.651 150.089C158.651 150.089 160.417 152.442 164.518 152.149C168.619 151.856 168.496 149.352 168.496 149.352C168.496 149.352 174.259 101.463 174.259 98.8099Z" fill="#263238" stroke="#263238" stroke-linecap="round" stroke-linejoin="round"/>
<path d="M157.021 109.568C157.021 109.568 156.134 99.84 160.411 96.1562" stroke="#707070" stroke-linecap="round" stroke-linejoin="round"/>
<path d="M134.625 109.568C134.625 109.568 135.069 101.463 134.182 98.5165C133.295 95.5695 131.822 94.3894 131.822 94.3894" stroke="#707070" stroke-linecap="round" stroke-linejoin="round"/>
<path d="M140.075 90.2622C140.075 90.2622 144.789 95.7128 145.676 100.283" stroke="#707070" stroke-linecap="round" stroke-linejoin="round"/>
<path d="M150.391 90.5752C150.391 90.5752 147.737 93.5222 147.444 95.7324" stroke="#707070" stroke-linecap="round" stroke-linejoin="round"/>
<path d="M143.76 33.2394C143.76 33.2394 139.49 32.6461 138.016 34.1196C136.543 35.5931 131.529 41.0241 131.529 41.0241L134.182 87.8825C134.182 87.8825 140.226 90.2427 145.384 90.2427C150.541 90.2427 156.435 88.3258 157.771 87.2957C159.108 86.2656 157.921 36.0169 157.921 36.0169C157.921 36.0169 146.974 32.796 143.76 33.2394Z" fill="#FFA401" stroke="#263238" stroke-linecap="round" stroke-linejoin="round"/>
<path d="M151.571 34.2696C153.814 33.929 156.076 33.7308 158.345 33.6763C161.292 33.6763 164.213 33.8263 164.213 33.8263L171.58 26.7522L156.754 23.3619L157.934 16.5877C157.934 16.5877 168.835 15.851 174.286 16.8811C179.736 17.9112 188.284 20.5648 188.727 20.5648C189.171 20.5648 189.757 22.1883 189.314 23.3619C188.871 24.5354 175.01 39.8702 170.869 43.8473C168.161 46.5014 165.604 49.305 163.209 52.2449L161.318 85.1051C161.318 85.1051 166.182 87.7587 167.068 88.6389C167.955 89.5191 168.985 93.0593 168.985 93.0593C168.985 93.0593 159.994 89.3756 157.634 89.0822C155.274 88.7888 153.807 88.6389 153.364 87.7783C152.92 86.9176 149.236 47.5506 149.236 47.5506L149.386 35.0259C149.386 35.0259 149.36 34.2696 151.571 34.2696Z" fill="#7D7D7D" stroke="#263238" stroke-linecap="round" stroke-linejoin="round"/>
<path d="M160.411 54.4551L152.451 55.4852L153.187 58.4322L157.171 59.4623L160.998 57.6955L160.411 54.4551Z" stroke="#263238" stroke-linecap="round" stroke-linejoin="round"/>
<path d="M164.975 36.7732L163.208 52.2449L167.778 39.1334" stroke="#263238" stroke-linecap="round" stroke-linejoin="round"/>
<path d="M171.606 26.7521C171.606 26.7521 175.289 27.4888 180.89 25.2786" stroke="#263238" stroke-linecap="round" stroke-linejoin="round"/>
<path d="M175.44 27.7823C177.86 27.8497 180.28 27.653 182.657 27.1956" stroke="#263238" stroke-linecap="round" stroke-linejoin="round"/>
<path d="M138.752 33.0896L139.489 43.8474C140.16 44.7308 141.03 45.4441 142.028 45.9299C143.025 46.4157 144.123 46.6604 145.233 46.6444C148.916 46.501 149.36 43.8474 149.36 43.8474V35.0064L138.752 33.0896Z" fill="white" stroke="#263238" stroke-linecap="round" stroke-linejoin="round"/>
<path d="M149.503 38.6902L149.209 47.5442L152.306 42.6803C152.306 42.6803 155.697 46.9508 156.577 46.8074C157.457 46.664 155.99 44.8906 155.697 43.2736C155.403 41.6567 152.893 35.8997 152.6 34.2827C152.306 32.6658 149.503 32.3659 149.34 33.1026C149.258 33.739 149.258 34.3831 149.34 35.0195L149.503 38.6902Z" fill="#7D7D7D" stroke="#263238" stroke-linecap="round" stroke-linejoin="round"/>
<path d="M139.339 46.6443C139.339 46.6443 139.926 87.9021 138.452 88.3715C136.979 88.841 131.085 88.9648 127.368 90.7317C123.652 92.4986 121.918 93.2354 121.918 93.2354C121.918 93.2354 123.685 88.9648 125.752 87.048C127.125 85.8133 128.661 84.7715 130.315 83.9511L126.488 64.2089C126.488 64.2089 119.414 45.4903 119.264 44.4602C119.114 43.43 132.676 35.7692 135.473 34.4391C138.27 33.1091 139.013 34.2957 139.013 34.2957L139.339 46.6443Z" fill="#7D7D7D" stroke="#263238" stroke-linecap="round" stroke-linejoin="round"/>
<path d="M135.656 32.3528C135.656 32.3528 132.122 43.554 131.822 45.0275C131.522 46.501 131.822 46.501 132.859 45.4643C133.895 44.4277 136.542 41.9305 136.542 41.9305L139.34 46.6444L139.19 37.9534V32.9396C139.19 32.9396 139.046 30.8794 135.656 32.3528Z" fill="#7D7D7D" stroke="#263238" stroke-linecap="round" stroke-linejoin="round"/>
<path d="M128.731 56.522H137.422L137.278 60.0557L133.445 61.3793L128.581 60.0557L128.731 56.522Z" stroke="#263238" stroke-linecap="round" stroke-linejoin="round"/>
<path d="M152.6 17.7679C152.6 17.7679 154.66 26.7523 155.104 28.1997C155.547 29.6471 152.75 35.4237 151.844 36.7472C151.499 37.3213 151.024 37.8066 150.458 38.1643C149.892 38.5221 149.25 38.7424 148.584 38.8075C147.554 38.8075 141.953 36.8972 140.623 36.0105C139.293 35.1238 137.976 34.0937 137.976 34.0937C137.349 34.3794 136.653 34.4761 135.972 34.3719C135.291 34.2677 134.655 33.9671 134.142 33.5069C132.375 31.8834 130.015 29.9666 130.602 28.643C130.888 27.9936 131.366 27.4476 131.973 27.0791C132.579 26.7106 133.284 26.5373 133.992 26.5828C135.616 26.5828 135.029 26.4328 135.029 26.4328C135.029 26.4328 132.082 22.1623 132.082 18.7719C132.082 15.3816 138.413 12.9041 142.097 12.9041C144.644 13.0102 147.146 13.6103 149.464 14.6709L152.6 17.7679Z" fill="white" stroke="#263238" stroke-linecap="round" stroke-linejoin="round"/>
<path d="M147.443 21.1516L150.097 26.1654L147.443 27.9323L146.263 26.4588" stroke="#263238" stroke-linecap="round" stroke-linejoin="round"/>
<path d="M152.307 25.7222C152.307 25.7222 152.451 26.9023 150.684 28.8191" stroke="#263238" stroke-linecap="round" stroke-linejoin="round"/>
<path d="M144.646 22.9967C144.646 23.6878 144.346 24.2485 143.994 24.2485C143.642 24.2485 143.342 23.6878 143.342 22.9967C143.342 22.3056 143.642 21.7449 143.994 21.7449C144.346 21.7449 144.646 22.3056 144.646 22.9967Z" fill="#263238"/>
<path d="M149.281 21.8884C149.649 21.8884 149.946 21.3279 149.946 20.6366C149.946 19.9452 149.649 19.3848 149.281 19.3848C148.914 19.3848 148.616 19.9452 148.616 20.6366C148.616 21.3279 148.914 21.8884 149.281 21.8884Z" fill="#263238"/>
<path d="M136.685 10.1004C136.685 10.1004 127.414 13.4908 127.108 17.7678C126.801 22.0448 135.362 27.9323 135.805 28.669C136.249 29.4058 137.572 27.7823 137.572 27.7823C137.277 27.3864 137.072 26.9315 136.969 26.4487C136.867 25.9659 136.87 25.4667 136.979 24.9853C137.422 23.5118 139.339 21.7254 139.339 21.0082C139.339 20.291 137.129 21.595 137.129 19.3847C137.129 17.1745 142.579 15.851 145.82 15.9944C149.06 16.1378 151.864 21.595 154.224 18.9414C156.584 16.2878 153.187 15.5576 153.187 15.5576C153.187 15.5576 157.751 14.9642 157.751 12.6106C157.751 10.2569 155.391 8.62693 154.361 8.62693C153.331 8.62693 150.534 10.4003 150.534 8.48349C150.534 6.56665 153.331 5.67994 150.677 2.6156C148.024 -0.448742 144.64 2.6156 144.64 3.7957C144.64 4.9758 143.753 7.17951 143.166 7.17951C142.579 7.17951 140.806 4.53244 138.746 6.00594C138.126 6.49848 137.621 7.11972 137.265 7.82668C136.91 8.53364 136.712 9.30944 136.685 10.1004Z" fill="#263238" stroke="#263238" stroke-linecap="round" stroke-linejoin="round"/>
<path d="M140.519 21.4516L145.233 19.6782" stroke="#263238" stroke-linecap="round" stroke-linejoin="round"/>
<path d="M145.97 17.6179C145.88 17.1553 145.954 16.6758 146.179 16.2617" stroke="#263238" stroke-linecap="round" stroke-linejoin="round"/>
<path d="M146.178 16.2487C146.511 15.5967 147.26 14.7556 148.916 14.071" stroke="white" stroke-linecap="round" stroke-linejoin="round"/>
</svg>
