<svg width="80" height="80" viewBox="0 0 80 80" fill="none" xmlns="http://www.w3.org/2000/svg">
<g filter="url(#filter0_d)">
<circle cx="40" cy="40" r="30" fill="#FFA400"/>
</g>
<path d="M51.4764 36.578H37.5311C37.2884 36.578 37.0916 36.7748 37.0916 37.0175C37.0916 37.2602 37.2884 37.4569 37.5311 37.4569H51.4764C51.7191 37.4569 51.9158 37.2602 51.9158 37.0175C51.9158 36.7748 51.7191 36.578 51.4764 36.578Z" fill="#111111"/>
<path d="M51.4764 39.9373H37.5311C37.2884 39.9373 37.0916 40.1341 37.0916 40.3768C37.0916 40.6195 37.2884 40.8162 37.5311 40.8162H51.4764C51.7191 40.8162 51.9158 40.6195 51.9158 40.3768C51.9158 40.1341 51.7191 39.9373 51.4764 39.9373Z" fill="#111111"/>
<path d="M51.4764 43.2967H37.5311C37.2884 43.2967 37.0916 43.4935 37.0916 43.7362C37.0916 43.9789 37.2884 44.1756 37.5311 44.1756H51.4764C51.7191 44.1756 51.9158 43.9789 51.9158 43.7362C51.9158 43.4935 51.7191 43.2967 51.4764 43.2967Z" fill="#111111"/>
<path d="M52.8722 32.7347H36.1352C34.7258 32.7347 33.5792 33.8813 33.5792 35.2907V45.8151C33.5792 47.2245 34.7258 48.3711 36.1352 48.3711H47.8663C47.9917 48.3711 48.1083 48.4275 48.1861 48.526L51.9745 53.3221C52.1238 53.5111 52.3416 53.6141 52.5697 53.6141C52.6545 53.6141 52.7408 53.5999 52.8254 53.5705C53.1375 53.4621 53.3392 53.1785 53.3392 52.8481V48.3274C54.5242 48.1061 55.4282 47.0583 55.4282 45.8151V35.2906C55.4282 33.8813 54.2817 32.7347 52.8722 32.7347ZM54.5493 45.8151C54.5493 46.7278 53.8068 47.4799 52.894 47.4915C52.6536 47.4946 52.4602 47.6904 52.4602 47.9309V52.5191L48.8758 47.9812C48.6304 47.6704 48.2624 47.4921 47.8663 47.4921H36.1352C35.2104 47.4921 34.4581 46.7398 34.4581 45.815V35.2906C34.4581 34.3659 35.2104 33.6135 36.1352 33.6135H52.8722C53.797 33.6135 54.5493 34.3659 54.5493 35.2906V45.8151Z" fill="#111111"/>
<path d="M31.9025 40.001C31.6019 40.0437 31.3327 40.1985 31.1445 40.4367L28.1257 44.2585V40.4282C28.1257 40.1877 27.9323 39.9918 27.6919 39.9887C26.9283 39.979 26.3071 39.3499 26.3071 38.5863V29.4245C26.3071 28.6509 26.9365 28.0215 27.7102 28.0215H42.2803C43.0539 28.0215 43.6833 28.6509 43.6833 29.4245V31.1198C43.6833 31.3624 43.88 31.5592 44.1227 31.5592C44.3654 31.5592 44.5622 31.3624 44.5622 31.1198V29.4245C44.5622 28.1663 43.5385 27.1426 42.2803 27.1426H27.7102C26.4519 27.1426 25.4282 28.1663 25.4282 29.4245V38.5863C25.4282 39.6801 26.2117 40.6042 27.2469 40.8201V44.7088C27.2469 45.021 27.4374 45.2889 27.7324 45.3913C27.8123 45.4191 27.8938 45.4326 27.9739 45.4326C28.1894 45.4326 28.3954 45.3352 28.5364 45.1567L31.8343 40.9815C31.8819 40.9212 31.95 40.8821 32.0261 40.8712C32.2663 40.8371 32.4335 40.6146 32.3994 40.3743C32.3653 40.1341 32.1431 39.9668 31.9025 40.001Z" fill="#111111"/>
<defs>
<filter id="filter0_d" x="0" y="0" width="80" height="80" filterUnits="userSpaceOnUse" color-interpolation-filters="sRGB">
<feFlood flood-opacity="0" result="BackgroundImageFix"/>
<feColorMatrix in="SourceAlpha" type="matrix" values="0 0 0 0 0 0 0 0 0 0 0 0 0 0 0 0 0 0 127 0"/>
<feOffset/>
<feGaussianBlur stdDeviation="5"/>
<feColorMatrix type="matrix" values="0 0 0 0 1 0 0 0 0 0.643137 0 0 0 0 0 0 0 0 0.5 0"/>
<feBlend mode="normal" in2="BackgroundImageFix" result="effect1_dropShadow"/>
<feBlend mode="normal" in="SourceGraphic" in2="effect1_dropShadow" result="shape"/>
</filter>
</defs>
</svg>
