<svg width="18" height="18" viewBox="0 0 18 18" fill="none" xmlns="http://www.w3.org/2000/svg">
<path d="M17.2825 7.35588H8.95548V10.8069H13.7475C13.3015 12.9999 11.4345 14.2599 8.95548 14.2599C6.03248 14.2599 3.67648 11.9039 3.67648 8.97987C3.67648 6.05687 6.03248 3.70088 8.95548 3.70088C10.2145 3.70088 11.3525 4.14788 12.2455 4.87888L14.8455 2.27988C13.2615 0.898875 11.2305 0.046875 8.95548 0.046875C4.00148 0.046875 0.0214844 4.02588 0.0214844 8.98088C0.0214844 13.9359 4.00048 17.9149 8.95548 17.9149C13.4225 17.9149 17.4845 14.6659 17.4845 8.98088C17.4845 8.45288 17.4035 7.88387 17.2825 7.35588Z" fill="#2E2E2E"/>
</svg>
