<svg width="18" height="18" viewBox="0 0 18 18" fill="none" xmlns="http://www.w3.org/2000/svg">
<path d="M9.70629 12.5352L11.1205 13.9494L8.99918 16.0707C7.04656 18.0233 3.88073 18.0233 1.92811 16.0707C-0.0245095 14.1181 -0.0245095 10.9522 1.92811 8.99962L4.04943 6.8783L5.46365 8.29252L3.34233 10.4138C2.17075 11.5854 2.17075 13.4849 3.34233 14.6565C4.5139 15.828 6.41339 15.828 7.58497 14.6565L9.70629 12.5352Z" fill="#2E2E2E"/>
<path d="M8.29207 5.46409L6.87786 4.04988L8.99918 1.92855C10.9518 -0.0240663 14.1176 -0.0240668 16.0702 1.92855C18.0229 3.88118 18.0229 7.047 16.0702 8.99962L13.9489 11.1209L12.5347 9.70673L14.656 7.58541C15.8276 6.41384 15.8276 4.51434 14.656 3.34277C13.4845 2.1712 11.585 2.1712 10.4134 3.34277L8.29207 5.46409Z" fill="#2E2E2E"/>
<path d="M11.8276 4.75698L4.75654 11.828L6.17075 13.2423L13.2418 6.1712L11.8276 4.75698Z" fill="#2E2E2E"/>
</svg>
