<svg width="20" height="21" viewBox="0 0 20 21" fill="none" xmlns="http://www.w3.org/2000/svg">
<g opacity="0.9">
<path d="M12.5 9.03963C12.5 10.4203 11.3807 11.5396 10 11.5396C8.61929 11.5396 7.50001 10.4203 7.50001 9.03963C7.50001 7.65892 8.61929 6.53963 10 6.53963C11.3807 6.53963 12.5 7.65892 12.5 9.03963Z" fill="black"/>
<path fill-rule="evenodd" clip-rule="evenodd" d="M4.16667 9.03963C4.16667 13.4146 10 18.2063 10 18.2063C10 18.2063 15.8333 13.4146 15.8333 9.03963C15.8333 5.81463 13.225 3.2063 10 3.2063C6.77501 3.2063 4.16667 5.81463 4.16667 9.03963ZM5.83334 9.03963C5.83334 6.73511 7.69548 4.87297 10 4.87297C12.3045 4.87297 14.1667 6.73511 14.1667 9.03963C14.1667 10.5902 13.0703 12.481 11.6379 14.1947C11.0595 14.8867 10.4777 15.4898 10 15.9541C9.52231 15.4898 8.94051 14.8867 8.36214 14.1947C6.92975 12.481 5.83334 10.5902 5.83334 9.03963Z" fill="black"/>
</g>
</svg>
