<svg width="30" height="31" viewBox="0 0 30 31" fill="none" xmlns="http://www.w3.org/2000/svg">
<g clip-path="url(#clip0)">
<path d="M28.8286 14.6201H1.17236C0.525137 14.6201 0.000488281 15.1448 0.000488281 15.792C0.000488281 16.4392 0.525137 16.9639 1.17236 16.9639H28.8286C29.4758 16.9639 30.0005 16.4392 30.0005 15.792C30.0005 15.1448 29.4758 14.6201 28.8286 14.6201Z" fill="black"/>
<path d="M28.8286 5.24512H1.17236C0.525137 5.24512 0.000488281 5.76977 0.000488281 6.41699C0.000488281 7.06422 0.525137 7.58887 1.17236 7.58887H28.8286C29.4758 7.58887 30.0005 7.06422 30.0005 6.41699C30.0005 5.76977 29.4758 5.24512 28.8286 5.24512Z" fill="black"/>
<path d="M28.8286 23.9951H1.17236C0.525137 23.9951 0.000488281 24.5198 0.000488281 25.167C0.000488281 25.8142 0.525137 26.3389 1.17236 26.3389H28.8286C29.4758 26.3389 30.0005 25.8142 30.0005 25.167C30.0005 24.5198 29.4758 23.9951 28.8286 23.9951Z" fill="black"/>
</g>
<defs>
<clipPath id="clip0">
<rect width="30" height="30" fill="white" transform="translate(0.000488281 0.791992)"/>
</clipPath>
</defs>
</svg>
