<svg width="296" height="318" viewBox="0 0 296 318" fill="none" xmlns="http://www.w3.org/2000/svg">
<path d="M145.247 55.8609L179.401 39.4084C179.401 39.4084 173.736 35.3664 165.337 40.4235C157.31 45.2308 155.202 41.971 150.745 43.6125C146.288 45.254 144.271 50.1937 145.247 55.8609Z" fill="#E0E0E0"/>
<path d="M99.4665 189.158C99.4665 189.158 96.934 192.656 105.359 197.404C113.784 202.153 118.676 204.02 118.676 204.02C118.676 204.02 120.435 205.252 119.203 206.441C117.971 207.63 114.557 209.191 115.069 211.319C115.604 213.532 118.026 214.374 121.612 214.087C125.199 213.799 133.117 213.524 133.829 213.501C134.541 213.478 135.548 213.921 134.838 214.865C134.128 215.808 127.667 221.142 130.375 224.054C133.084 226.967 142.994 224.581 144.08 224.339C145.167 224.097 145.618 224.328 145.863 224.85C146.108 225.372 143.768 226.96 141.989 228.553C140.209 230.146 138.434 232.307 140.141 233.859C141.849 235.411 149.174 236.189 161.393 229.695L166.859 226.32L166.771 219.866C165.739 206.072 161.179 200.288 158.96 199.667C156.741 199.046 155.861 201.71 155.466 204.064C155.07 206.418 154.972 209.243 154.398 209.314C153.824 209.386 153.392 209.127 153.008 208.064C152.624 207.001 149.37 197.362 145.456 196.624C141.542 195.885 140.476 204.194 140.039 205.307C139.602 206.419 138.704 205.79 138.346 205.181C137.989 204.572 134.018 197.724 132.322 194.535C130.625 191.345 128.648 189.751 126.497 190.48C124.345 191.209 124.925 194.897 124.576 196.576C124.226 198.255 122.245 197.424 122.245 197.424C122.245 197.424 118.051 194.286 109.557 189.686C101.063 185.086 99.424 189.243 99.424 189.243" fill="#EBEBEB"/>
<path d="M167.977 227.401C161.74 224.005 150.758 217.775 141.302 212.481C131.846 207.186 123.288 202.4 117.067 198.971C113.961 197.267 111.449 195.879 109.702 194.922L107.696 193.815L107.18 193.526C107.065 193.46 107.006 193.418 107.006 193.418C107.006 193.418 107.07 193.445 107.19 193.508L107.717 193.779L109.739 194.853C111.471 195.792 114.04 197.14 117.135 198.849C123.373 202.244 131.947 207.01 141.398 212.307C150.848 217.604 161.825 223.849 168.043 227.273" fill="#E0E0E0"/>
<path d="M119.938 209.332C120.08 209.271 120.229 209.223 120.381 209.189C120.668 209.109 121.085 209.004 121.608 208.88C122.645 208.63 124.086 208.326 125.674 208.022L129.778 207.242L131.02 207.002C131.169 206.959 131.322 206.935 131.477 206.929C131.336 206.995 131.189 207.044 131.037 207.077C130.749 207.158 130.332 207.263 129.807 207.381C128.77 207.619 127.334 207.933 125.728 208.214L121.636 209.02L120.398 209.264C120.248 209.308 120.093 209.331 119.938 209.332Z" fill="#E0E0E0"/>
<path d="M131.631 206.369C131.579 206.394 130.813 203.435 129.928 199.791C129.043 196.147 128.372 193.174 128.424 193.161C128.476 193.149 129.239 196.09 130.122 199.742C131.004 203.394 131.677 206.346 131.631 206.369Z" fill="#E0E0E0"/>
<path d="M145.772 215.128C145.751 214.972 145.75 214.813 145.768 214.657L145.818 213.352C145.865 212.267 145.919 210.744 145.927 209.101C145.936 207.459 145.887 205.921 145.853 204.856L145.808 203.565C145.787 203.407 145.789 203.246 145.815 203.088C145.854 203.243 145.878 203.4 145.888 203.559C145.92 203.864 145.957 204.3 145.995 204.845C146.072 205.934 146.138 207.439 146.129 209.107C146.119 210.775 146.035 212.275 145.957 213.362C145.911 213.903 145.868 214.346 145.833 214.645C145.828 214.807 145.807 214.97 145.772 215.128Z" fill="#E0E0E0"/>
<path d="M135.805 220.16C135.915 220.064 136.039 219.985 136.172 219.926L137.217 219.345C138.099 218.863 139.328 218.213 140.687 217.501C142.046 216.789 143.286 216.16 144.19 215.711L145.265 215.193C145.391 215.119 145.523 215.055 145.66 215.003C145.548 215.1 145.424 215.182 145.29 215.245L144.25 215.823C143.361 216.303 142.134 216.958 140.772 217.665C139.411 218.372 138.174 219.006 137.27 219.454L136.2 219.97C136.076 220.048 135.943 220.112 135.805 220.16Z" fill="#E0E0E0"/>
<path d="M147.326 229.529C147.478 229.409 147.643 229.306 147.818 229.221L149.154 228.475C150.283 227.855 151.85 227.004 153.587 226.078C155.323 225.152 156.903 224.327 158.046 223.737L159.408 223.043C159.574 222.946 159.748 222.862 159.927 222.793C159.772 222.909 159.608 223.011 159.435 223.1L158.099 223.846C156.971 224.467 155.403 225.318 153.667 226.244C151.93 227.17 150.35 227.995 149.207 228.584L147.845 229.279C147.679 229.376 147.505 229.46 147.326 229.529Z" fill="#E0E0E0"/>
<path d="M159.544 222.874C159.521 222.676 159.514 222.475 159.525 222.276L159.541 220.636C159.554 219.254 159.559 217.351 159.504 215.246C159.45 213.14 159.365 211.236 159.287 209.853L159.198 208.219C159.179 208.021 159.175 207.822 159.186 207.623C159.236 207.818 159.266 208.018 159.275 208.22C159.321 208.607 159.378 209.163 159.422 209.852C159.535 211.231 159.649 213.141 159.698 215.248C159.747 217.356 159.716 219.272 159.67 220.651C159.644 221.341 159.631 221.898 159.589 222.29C159.589 222.485 159.574 222.681 159.544 222.874Z" fill="#E0E0E0"/>
<path d="M170.919 122.944C161.397 118.987 157.167 108.692 155.384 98.9972C155.083 97.3759 154.535 95.7199 154.971 94.1532C155.406 92.5865 157 91.2174 158.588 91.5787C159.904 91.8792 160.728 93.1524 161.647 94.1562C162.869 95.4911 164.442 96.4546 166.186 96.9361C167.327 97.2443 168.659 97.2871 169.553 96.5112C170.77 95.4383 170.51 93.49 170.15 91.8909C169.473 88.9187 168.8 85.9448 168.13 82.9693C167.687 81.393 167.497 79.7564 167.567 78.1205C167.731 76.4931 168.544 74.834 169.95 74.0862C171.357 73.3384 173.449 73.7896 174.11 75.2822C174.317 75.9305 174.479 76.592 174.597 77.2622C174.661 77.5945 174.821 77.9007 175.057 78.143C175.293 78.3853 175.595 78.553 175.926 78.6254C176.593 78.6816 177.143 78.0837 177.518 77.5064C178.813 75.5321 179.479 73.208 180.068 70.9086C180.656 68.6092 181.209 66.2758 182.32 64.1852C183.431 62.0947 185.189 60.2432 187.452 59.6138C189.716 58.9844 192.462 59.863 193.532 61.9779C194.602 64.0929 193.8 66.6806 192.768 68.8161C191.248 71.9811 189.279 74.9103 186.923 77.5135C186.444 77.9347 186.112 78.4982 185.976 79.1217C185.882 80.255 187.102 81.1008 188.235 81.2335C189.515 81.3659 190.779 80.9616 192.06 80.8309C193.341 80.7002 194.81 80.9591 195.537 82.0297C196.549 83.5197 195.56 85.5321 194.464 86.9498C192.264 89.7801 189.596 92.2127 186.575 94.142C185.492 94.8301 184.34 95.481 183.569 96.5115C182.798 97.542 182.548 99.1088 183.379 100.104C184.21 101.098 185.749 101.144 186.928 100.641C188.106 100.137 189.065 99.2333 190.143 98.5348C192.154 97.2209 195.039 96.7399 196.846 98.3396C197.424 98.9006 197.864 99.5886 198.13 100.349C198.397 101.109 198.482 101.921 198.38 102.721C198.168 104.303 197.64 105.826 196.826 107.2C194.264 112.144 190.437 116.32 185.734 119.302C181.039 122.203 176.411 123.703 170.942 122.965" fill="#F5F5F5"/>
<path d="M172.577 123.169C172.088 119.283 171.722 121.527 172.084 116.367C172.529 110.771 173.295 105.205 174.378 99.6973C174.654 98.2331 174.929 96.7887 175.202 95.3641C175.481 93.9498 175.76 92.5355 176.097 91.1634C176.779 88.5475 177.604 85.9709 178.568 83.4452C179.47 81.0266 180.416 78.766 181.319 76.6544C182.222 74.5427 183.102 72.5958 183.981 70.8603C185.354 68.1058 186.943 65.4638 188.732 62.959C189.361 62.0735 189.897 61.3928 190.231 60.9567L190.628 60.452L190.772 60.2865C190.738 60.3525 190.697 60.415 190.651 60.473L190.266 61.0037C189.927 61.468 189.43 62.1493 188.816 63.0402C187.072 65.5653 185.522 68.2183 184.178 70.9766C183.314 72.7175 182.447 74.6647 181.555 76.7713C180.662 78.878 179.732 81.144 178.835 83.56C177.883 86.079 177.067 88.6469 176.39 91.2528C176.045 92.6094 175.795 94.0034 175.506 95.4356L174.681 99.7688C173.602 105.258 172.829 110.803 172.365 116.379C171.993 121.531 172.336 119.266 172.794 123.141" fill="#E0E0E0"/>
<path d="M176.199 91.1269C176.075 90.923 175.971 90.7072 175.889 90.4828C175.689 90.0672 175.456 89.4114 175.181 88.6672C174.603 87.1216 173.884 84.9655 173.097 82.5865C172.309 80.2075 171.559 78.0663 170.958 76.5385C170.659 75.7733 170.416 75.1611 170.241 74.733C170.136 74.5191 170.055 74.2938 170.001 74.0616C170.138 74.2581 170.254 74.468 170.348 74.6882C170.546 75.0985 170.848 75.7271 171.155 76.4563C171.808 77.9719 172.594 80.1085 173.379 82.4952C174.164 84.8819 174.85 86.9706 175.373 88.5746C175.618 89.308 175.825 89.9248 175.993 90.4199C176.088 90.6472 176.157 90.8843 176.199 91.1269Z" fill="#E0E0E0"/>
<path d="M195.863 82.7877C195.609 82.908 195.343 83.0018 195.07 83.0674C194.552 83.2274 193.801 83.4613 192.883 83.7753C191.048 84.3904 188.52 85.346 185.821 86.4924C183.122 87.6389 180.686 88.8125 178.957 89.7025C178.085 90.1229 177.424 90.5051 176.915 90.7762C176.671 90.9199 176.415 91.0429 176.151 91.144C176.37 90.9626 176.606 90.8021 176.854 90.6644C177.318 90.3772 177.994 89.9746 178.857 89.5076C180.56 88.5657 182.953 87.3811 185.704 86.2096C188.031 85.2103 190.406 84.3287 192.822 83.5681C193.746 83.2825 194.508 83.0823 195.038 82.9483C195.307 82.8684 195.584 82.8146 195.863 82.7877Z" fill="#E0E0E0"/>
<path d="M172.248 115.929C172.172 115.867 172.106 115.793 172.053 115.71C171.914 115.527 171.744 115.308 171.534 115.044C171.094 114.463 170.482 113.631 169.72 112.539C168.211 110.405 166.221 107.389 164.066 104.031C161.91 100.672 159.951 97.6417 158.493 95.4772C157.781 94.4248 157.185 93.547 156.756 92.9217C156.569 92.6405 156.413 92.4086 156.284 92.2211C156.234 92.1369 156.191 92.0482 156.157 91.9561C156.233 92.019 156.3 92.092 156.357 92.1731L156.871 92.8409C157.316 93.42 157.923 94.2541 158.685 95.3459C160.193 97.4802 162.184 100.496 164.339 103.854C166.495 107.213 168.454 110.244 169.912 112.408C170.629 113.458 171.22 114.338 171.651 114.969C171.841 115.242 171.992 115.477 172.121 115.664C172.175 115.747 172.217 115.836 172.248 115.929Z" fill="#E0E0E0"/>
<path d="M197.614 101.131C197.542 101.2 197.459 101.257 197.37 101.301L196.636 101.744L193.92 103.333C191.628 104.674 188.493 106.588 185.011 108.661C181.53 110.735 178.369 112.623 176.029 113.929C174.869 114.577 173.926 115.09 173.266 115.433L172.497 115.804C172.414 115.86 172.323 115.904 172.227 115.934C172.301 115.867 172.383 115.81 172.472 115.764L173.205 115.321L175.921 113.732C178.213 112.391 181.349 110.477 184.83 108.403C188.311 106.33 191.467 104.445 193.815 103.141C194.979 102.49 195.921 101.973 196.581 101.629L197.35 101.259C197.432 101.206 197.521 101.163 197.614 101.131Z" fill="#E0E0E0"/>
<path d="M243.539 144.142C243.561 144.235 243.573 144.331 243.573 144.427L243.621 145.255C243.656 146.006 243.705 147.064 243.765 148.385L244.222 159.577L244.221 159.641L244.164 159.669L232.583 167.807L228.698 170.53L228.521 170.653L228.478 170.444C227.567 165.897 226.693 161.704 225.984 158.173L226.099 158.265L217.116 158.522L214.626 158.576L213.987 158.576C213.912 158.58 213.836 158.575 213.762 158.563L213.982 158.54L214.635 158.501L217.136 158.378L226.115 158.02L226.216 158.017L226.256 158.1C226.993 161.649 227.86 165.826 228.804 170.364L228.583 170.278L232.466 167.55L244.067 159.44L244.011 159.55L243.657 148.361C243.62 147.022 243.595 145.959 243.575 145.2L243.559 144.37C243.548 144.294 243.541 144.218 243.539 144.142Z" fill="#E0E0E0"/>
<path d="M229.466 168.359L229.553 169.431L230.489 169.966L229.501 170.384L229.284 171.436L228.579 170.623L227.51 170.742L228.065 169.822L227.625 168.843L228.671 169.088L229.466 168.359Z" fill="#E0E0E0"/>
<path d="M213.764 157.846L213.81 158.38L214.27 158.645L213.78 158.849L213.674 159.374L213.321 158.974L212.792 159.03L213.064 158.573L212.847 158.082L213.366 158.203L213.764 157.846Z" fill="#E0E0E0"/>
<path d="M244.306 158.85L244.352 159.385L244.813 159.649L244.325 159.859L244.219 160.383L243.864 159.978L243.337 160.04L243.609 159.583L243.387 159.095L243.911 159.213L244.306 158.85Z" fill="#E0E0E0"/>
<path d="M226.322 157.536L226.366 158.065L226.834 158.333L226.338 158.539L226.233 159.064L225.883 158.657L225.351 158.721L225.628 158.261L225.406 157.773L225.925 157.894L226.322 157.536Z" fill="#E0E0E0"/>
<path d="M243.906 143.408L243.952 143.942L244.417 144.205L243.924 144.417L243.819 144.941L243.469 144.534L242.934 144.593L243.214 144.138L242.992 143.65L243.511 143.771L243.906 143.408Z" fill="#E0E0E0"/>
<path d="M104.669 257.058L131.868 243.956C131.868 243.956 127.354 240.736 120.659 244.748C114.266 248.576 112.598 245.975 109.032 247.276C105.467 248.578 103.895 252.541 104.669 257.058Z" fill="#E0E0E0"/>
<path d="M58.4929 147.385L85.6866 134.285C85.6866 134.285 81.1746 131.07 74.4775 135.077C68.0926 138.908 66.4185 136.31 62.8586 137.608C59.2987 138.907 57.7161 142.876 58.4929 147.385Z" fill="#F5F5F5"/>
<path d="M205.721 99.7678L228.058 89.008C228.058 89.008 224.352 86.3642 218.852 89.6537C213.607 92.8206 212.225 90.6701 209.301 91.7333C206.376 92.7965 205.082 96.0629 205.721 99.7678Z" fill="#F5F5F5"/>
<path d="M182.344 165.357C179.425 156.453 170.211 152.379 160.856 151.772C151.501 151.165 142.291 153.873 133.061 155.491C124.35 157.005 115.198 157.497 106.833 154.64C98.4685 151.783 91.0147 145.025 89.3426 136.346C88.9312 134.163 88.9044 131.782 90.0287 129.865C91.153 127.947 93.6977 126.76 95.6949 127.73C99.9453 129.805 97.6952 138.287 102.252 139.509C103.3 139.798 104.431 139.541 105.487 139.781C108.301 140.429 109.166 143.897 110.698 146.347C113.729 151.191 120.24 152.432 125.95 152.235C133.598 151.968 141.062 149.979 148.541 148.392C156.019 146.806 163.781 145.633 171.317 147.021C178.852 148.409 186.741 152.391 190.036 159.309C190.964 161.236 191.851 163.728 191.361 165.807C190.871 167.886 189.486 168.943 187.346 168.963C185.205 168.983 183.384 168.312 182.36 165.362" fill="#FFA401"/>
<g opacity="0.8">
<path opacity="0.8" d="M182.344 165.357C179.425 156.453 170.211 152.379 160.856 151.772C151.501 151.165 142.291 153.873 133.061 155.491C124.35 157.005 115.198 157.497 106.833 154.64C98.4685 151.783 91.0147 145.025 89.3426 136.346C88.9312 134.163 88.9044 131.782 90.0287 129.865C91.153 127.947 93.6977 126.76 95.6949 127.73C99.9453 129.805 97.6952 138.287 102.252 139.509C103.3 139.798 104.431 139.541 105.487 139.781C108.301 140.429 109.166 143.897 110.698 146.347C113.729 151.191 120.24 152.432 125.95 152.235C133.598 151.968 141.062 149.979 148.541 148.392C156.019 146.806 163.781 145.633 171.317 147.021C178.852 148.409 186.741 152.391 190.036 159.309C190.964 161.236 191.851 163.728 191.361 165.807C190.871 167.886 189.486 168.943 187.346 168.963C185.205 168.983 183.384 168.312 182.36 165.362" fill="white"/>
</g>
<path d="M114.71 115.96C112.944 112.971 113.962 109.172 115.895 106.461C117.827 103.751 120.555 101.708 122.643 99.121C127.834 92.6911 128.493 83.1255 125.104 75.2797C121.715 67.4338 114.667 61.3444 106.729 58.205C103.498 56.9324 99.7296 55.7783 98.1896 52.6609C96.582 49.4034 98.4888 45.3105 101.698 43.8156C104.908 42.3208 108.83 43.0491 112.009 44.8006C115.189 46.5521 117.757 49.2126 120.282 51.8364C118.924 50.8777 119.637 48.544 121.148 47.9887C122.66 47.4333 124.391 48.0777 125.834 48.8546C132.191 52.2212 137.128 57.7569 139.749 64.4555C142.283 71.0474 142.262 78.3484 139.69 84.9255C136.815 92.0704 131.089 97.5228 125.514 102.769L113.88 113.704" fill="#FFA401"/>
<g opacity="0.8">
<path opacity="0.8" d="M114.71 115.96C112.944 112.971 113.962 109.172 115.895 106.461C117.827 103.751 120.555 101.708 122.643 99.121C127.834 92.6911 128.493 83.1255 125.104 75.2797C121.715 67.4338 114.667 61.3444 106.729 58.205C103.498 56.9324 99.7296 55.7783 98.1896 52.6609C96.582 49.4034 98.4888 45.3105 101.698 43.8156C104.908 42.3208 108.83 43.0491 112.009 44.8006C115.189 46.5521 117.757 49.2126 120.282 51.8364C118.924 50.8777 119.637 48.544 121.148 47.9887C122.66 47.4333 124.391 48.0777 125.834 48.8546C132.191 52.2212 137.128 57.7569 139.749 64.4555C142.283 71.0474 142.262 78.3484 139.69 84.9255C136.815 92.0704 131.089 97.5228 125.514 102.769L113.88 113.704" fill="white"/>
</g>
<path d="M79.4924 52.6168C78.9349 53.2389 78.6393 54.0522 78.6671 54.8871C78.6949 55.722 79.0441 56.5138 79.6417 57.0974C80.2393 57.6811 81.0392 58.0114 81.8745 58.0194C82.7097 58.0275 83.5159 57.7127 84.1246 57.1407C84.7334 56.5687 85.0977 55.7837 85.1417 54.9496C85.1856 54.1154 84.9057 53.2965 84.3604 52.6638C83.8151 52.031 83.0465 51.6333 82.215 51.5535C81.3835 51.4738 80.5533 51.7183 79.8977 52.2359" fill="#FFA401"/>
<g opacity="0.8">
<path opacity="0.8" d="M79.4924 52.6168C78.9349 53.2389 78.6393 54.0522 78.6671 54.8871C78.6949 55.722 79.0441 56.5138 79.6417 57.0974C80.2393 57.6811 81.0392 58.0114 81.8745 58.0194C82.7097 58.0275 83.5159 57.7127 84.1246 57.1407C84.7334 56.5687 85.0977 55.7837 85.1417 54.9496C85.1856 54.1154 84.9057 53.2965 84.3604 52.6638C83.8151 52.031 83.0465 51.6333 82.215 51.5535C81.3835 51.4738 80.5533 51.7183 79.8977 52.2359" fill="white"/>
</g>
<path d="M192.828 244.625C189.466 241.951 188.842 236.895 190.176 232.809C191.51 228.723 194.399 225.367 197.181 222.107C203.342 214.889 209.646 206.797 209.976 197.319C210.088 194.123 209.5 190.95 208.912 187.803C207.779 181.718 206.206 174.943 200.986 171.615C199.481 170.656 197.621 170.036 195.916 170.537C193.959 171.083 192.603 172.958 192.179 174.948C191.868 176.964 192.091 179.025 192.826 180.928C194.049 184.582 196.101 187.913 197.394 191.527C198.687 195.141 199.204 199.417 197.324 202.742C195.023 206.826 189.823 208.665 187.69 212.835C185.975 216.222 186.652 220.273 185.824 223.974C185.116 227.074 183.353 229.804 181.898 232.63C180.443 235.456 179.241 238.62 179.791 241.754C180.076 243.393 180.829 244.914 181.957 246.136C183.086 247.358 184.543 248.229 186.154 248.644C187.765 249.059 189.461 249 191.04 248.475C192.618 247.95 194.012 246.982 195.054 245.685" fill="#FFA401"/>
<g opacity="0.8">
<path opacity="0.8" d="M192.828 244.625C189.466 241.951 188.842 236.895 190.176 232.809C191.51 228.723 194.399 225.367 197.181 222.107C203.342 214.889 209.646 206.797 209.976 197.319C210.088 194.123 209.5 190.95 208.912 187.803C207.779 181.718 206.206 174.943 200.986 171.615C199.481 170.656 197.621 170.036 195.916 170.537C193.959 171.083 192.603 172.958 192.179 174.948C191.868 176.964 192.091 179.025 192.826 180.928C194.049 184.582 196.101 187.913 197.394 191.527C198.687 195.141 199.204 199.417 197.324 202.742C195.023 206.826 189.823 208.665 187.69 212.835C185.975 216.222 186.652 220.273 185.824 223.974C185.116 227.074 183.353 229.804 181.898 232.63C180.443 235.456 179.241 238.62 179.791 241.754C180.076 243.393 180.829 244.914 181.957 246.136C183.086 247.358 184.543 248.229 186.154 248.644C187.765 249.059 189.461 249 191.04 248.475C192.618 247.95 194.012 246.982 195.054 245.685" fill="white"/>
</g>
<path d="M55.9983 93.5924C54.1205 93.2318 52.3559 92.4284 50.8508 91.249C49.3457 90.0696 48.1437 88.5483 47.3445 86.8112C46.5453 85.0741 46.1719 83.1715 46.2555 81.2612C46.339 79.3509 46.877 77.4881 47.8248 75.8274C48.8967 73.9607 50.4623 72.3745 51.2375 70.3435C51.9343 68.5615 51.9666 66.5427 52.9093 64.8726C53.492 63.8187 54.3962 62.9785 55.49 62.4746C56.5837 61.9706 57.8099 61.8293 58.9897 62.0713C60.1694 62.3133 61.241 62.9258 62.0481 63.8196C62.8552 64.7134 63.3556 65.8417 63.4764 67.0399C63.7054 69.176 62.7122 71.2992 62.8973 73.4372C63.1005 75.7457 64.6394 77.718 65.3656 79.8898C65.8094 81.2459 65.9423 82.6846 65.7544 84.099C65.5665 85.5135 65.0626 86.8676 64.2802 88.0608C63.4977 89.2541 62.4567 90.2559 61.2343 90.992C60.012 91.7282 58.6396 92.1797 57.2189 92.3132" fill="#FFA401"/>
<g opacity="0.8">
<path opacity="0.8" d="M55.9983 93.5924C54.1205 93.2318 52.3559 92.4284 50.8508 91.249C49.3457 90.0696 48.1437 88.5483 47.3445 86.8112C46.5453 85.0741 46.1719 83.1715 46.2555 81.2612C46.339 79.3509 46.877 77.4881 47.8248 75.8274C48.8967 73.9607 50.4623 72.3745 51.2375 70.3435C51.9343 68.5615 51.9666 66.5427 52.9093 64.8726C53.492 63.8187 54.3962 62.9785 55.49 62.4746C56.5837 61.9706 57.8099 61.8293 58.9897 62.0713C60.1694 62.3133 61.241 62.9258 62.0481 63.8196C62.8552 64.7134 63.3556 65.8417 63.4764 67.0399C63.7054 69.176 62.7122 71.2992 62.8973 73.4372C63.1005 75.7457 64.6394 77.718 65.3656 79.8898C65.8094 81.2459 65.9423 82.6846 65.7544 84.099C65.5665 85.5135 65.0626 86.8676 64.2802 88.0608C63.4977 89.2541 62.4567 90.2559 61.2343 90.992C60.012 91.7282 58.6396 92.1797 57.2189 92.3132" fill="white"/>
</g>
<path d="M50.8301 82.3597L57.2142 79.2844L63.5525 92.4423C63.7303 92.8114 63.8336 93.2118 63.8566 93.6208C63.8797 94.0298 63.8219 94.4393 63.6866 94.826C63.5514 95.2126 63.3413 95.5689 63.0684 95.8743C62.7954 96.1798 62.465 96.4285 62.096 96.6063L61.3376 96.9717C60.5922 97.3307 59.7348 97.3789 58.9539 97.1058C58.173 96.8326 57.5326 96.2604 57.1735 95.5151L50.8353 82.3572L50.8301 82.3597Z" fill="#FFA401"/>
<path d="M50.8298 82.3597L51.1992 74.969L57.214 79.2844L50.8298 82.3597Z" fill="#FFBE9D"/>
<path d="M51.0555 77.8936C51.0555 77.8936 52.73 78.8853 53.5852 76.675L51.2069 74.9662L51.0555 77.8936Z" fill="#FFA401"/>
<path d="M63.3339 91.7606C62.3196 92.4095 61.2549 92.9759 60.1499 93.4544C59.0887 94.0195 57.9838 94.4982 56.8459 94.8859C57.8584 94.2378 58.9215 93.6722 60.0248 93.1947C61.0876 92.6288 62.1943 92.1492 63.3339 91.7606Z" fill="#263238"/>
<path d="M62.7731 90.8211C61.7814 91.4591 60.7391 92.0147 59.6566 92.4824C58.6162 93.0374 57.532 93.5061 56.4149 93.8839C57.4103 93.2522 58.4531 92.6985 59.534 92.2278C60.5758 91.676 61.6587 91.2057 62.7731 90.8211Z" fill="#263238"/>
<path d="M52.749 81.5502C52.8165 81.5177 54.105 84.033 55.6189 87.1757C57.1327 90.3185 58.309 92.9198 58.2415 92.9523C58.174 92.9849 56.883 90.4643 55.3591 87.3008C53.8352 84.1373 52.6763 81.5852 52.749 81.5502Z" fill="#FAFAFA"/>
<path d="M55.333 80.3061C55.4057 80.2711 56.689 82.7889 58.2029 85.9316C59.7167 89.0744 60.8982 91.6732 60.8255 91.7083C60.7528 91.7433 59.467 89.2203 57.9431 86.0568C56.4192 82.8933 55.2603 80.3412 55.333 80.3061Z" fill="#FAFAFA"/>
<path d="M192.951 235.53L222.551 222.801L224.065 224.151L219.916 264.166L185.118 279.693L192.951 235.53Z" fill="#263238"/>
<path d="M182.371 277.312L217.84 262.658L222.395 225.987L210.227 233.116L183.616 259.835L182.371 277.312Z" fill="#E0E0E0"/>
<path d="M176.519 277.576L208.457 262.832C205.188 259.408 205.539 252.205 208.878 248.229C211.091 245.595 215.609 241.383 217.674 238.654C221.58 233.477 223.87 226.14 221.365 221.99L208.129 227.835L191.196 235.198C191.791 239.993 190.118 244.12 186.382 247.923C183.041 251.324 178.436 253.536 175.292 257.105C170.225 262.823 171.327 272.909 176.501 277.604" fill="#EBEBEB"/>
<path d="M176.517 277.576C176.517 277.576 176.454 277.523 176.339 277.406L175.828 276.903C175.55 276.619 175.292 276.315 175.058 275.994C174.723 275.57 174.417 275.122 174.144 274.655C173.393 273.355 172.824 271.959 172.452 270.504C171.96 268.541 171.83 266.505 172.066 264.495C172.127 263.917 172.225 263.344 172.359 262.779C172.433 262.494 172.492 262.191 172.578 261.906L172.878 261.025C172.975 260.726 173.096 260.435 173.239 260.154C173.374 259.864 173.5 259.567 173.656 259.281C173.983 258.694 174.355 258.134 174.769 257.605C176.434 255.44 178.839 253.725 181.321 251.889C182.573 250.979 183.855 250.029 185.086 248.969C186.348 247.87 187.479 246.629 188.457 245.271C188.962 244.571 189.408 243.83 189.789 243.055C190.186 242.266 190.502 241.439 190.731 240.586C191.207 238.824 191.331 236.985 191.094 235.175L191.083 235.072L191.171 235.029L205.265 228.88C210.16 226.753 215.194 224.488 220.367 222.207L221.307 221.793L221.421 221.738L221.476 221.852C222.025 222.814 222.364 223.88 222.472 224.982C222.53 225.524 222.553 226.068 222.54 226.613C222.518 227.153 222.465 227.691 222.383 228.225C222.045 230.325 221.396 232.363 220.457 234.272C219.558 236.136 218.439 237.885 217.123 239.481C215.814 241.04 214.415 242.469 213.054 243.88C211.692 245.291 210.33 246.664 209.103 248.087C208.501 248.795 207.994 249.577 207.593 250.415C207.371 250.816 207.238 251.258 207.059 251.67C206.88 252.083 206.77 252.533 206.684 252.977C206.26 254.686 206.187 256.463 206.468 258.202C206.703 259.862 207.418 261.417 208.527 262.675L208.641 262.793L208.495 262.863L185.241 273.566L178.784 276.516L177.089 277.275L176.513 277.553C176.513 277.553 176.71 277.458 177.089 277.275L178.767 276.467L185.197 273.459L208.405 262.676L208.372 262.859C207.225 261.57 206.485 259.973 206.242 258.265C205.945 256.493 206.014 254.678 206.445 252.933C206.529 252.483 206.697 252.049 206.823 251.605C206.948 251.161 207.142 250.728 207.365 250.313C207.772 249.456 208.291 248.657 208.909 247.938C210.137 246.501 211.506 245.119 212.868 243.707C214.23 242.296 215.62 240.865 216.917 239.318C218.214 237.74 219.315 236.011 220.196 234.168C221.123 232.287 221.765 230.278 222.099 228.208C222.183 227.688 222.241 227.165 222.272 226.64C222.284 226.11 222.262 225.58 222.205 225.053C222.102 223.992 221.777 222.965 221.251 222.037L221.431 222.091L220.489 222.513C215.315 224.794 210.279 227.054 205.377 229.153L191.278 235.304L191.357 235.164C191.593 237.008 191.464 238.881 190.979 240.677C190.744 241.545 190.421 242.387 190.014 243.19C189.627 243.978 189.171 244.731 188.653 245.439C187.665 246.812 186.519 248.064 185.24 249.17C183.999 250.247 182.706 251.19 181.452 252.095C178.955 253.899 176.563 255.615 174.917 257.739C174.512 258.255 174.149 258.803 173.83 259.376C173.671 259.657 173.551 259.952 173.405 260.221C173.263 260.499 173.144 260.788 173.047 261.085L172.732 261.972C172.64 262.26 172.584 262.555 172.51 262.841C172.371 263.398 172.27 263.964 172.207 264.536C171.962 266.527 172.082 268.547 172.563 270.495C172.916 271.944 173.469 273.336 174.204 274.633C174.468 275.102 174.765 275.551 175.094 275.977C175.322 276.301 175.572 276.608 175.844 276.896C176.062 277.123 176.222 277.296 176.339 277.419C176.456 277.542 176.517 277.576 176.517 277.576Z" fill="#263238"/>
<path d="M200.375 231.41C200.375 231.41 200.319 231.187 200.175 230.809C199.967 230.279 199.634 229.807 199.205 229.433C198.584 228.866 197.775 228.549 196.933 228.543C196.423 228.55 195.919 228.659 195.452 228.865C194.984 229.07 194.563 229.367 194.213 229.739C193.863 230.111 193.591 230.549 193.414 231.028C193.237 231.507 193.158 232.016 193.182 232.526C193.196 233.369 193.459 234.189 193.939 234.882C194.257 235.35 194.667 235.749 195.144 236.055C195.491 236.271 195.707 236.347 195.699 236.37C195.485 236.337 195.279 236.262 195.093 236.149C194.566 235.877 194.108 235.486 193.756 235.008C193.223 234.294 192.922 233.433 192.895 232.543C192.866 231.996 192.948 231.449 193.137 230.936C193.325 230.422 193.616 229.952 193.992 229.554C194.368 229.156 194.821 228.839 195.323 228.622C195.825 228.404 196.367 228.292 196.914 228.29C197.814 228.308 198.673 228.668 199.318 229.295C199.751 229.697 200.071 230.205 200.245 230.768C200.294 230.922 200.327 231.079 200.344 231.239C200.386 231.353 200.386 231.405 200.375 231.41Z" fill="#263238"/>
<path d="M205.345 229.016C205.319 229.028 205.289 228.793 205.145 228.414C204.934 227.886 204.602 227.414 204.175 227.038C203.551 226.473 202.74 226.157 201.898 226.151C201.387 226.159 200.884 226.269 200.417 226.474C199.95 226.68 199.529 226.978 199.179 227.349C198.829 227.72 198.557 228.158 198.38 228.637C198.203 229.115 198.123 229.625 198.146 230.134C198.162 230.977 198.427 231.796 198.908 232.487C199.225 232.957 199.635 233.357 200.113 233.66C200.461 233.877 200.676 233.952 200.668 233.975C200.452 233.947 200.243 233.873 200.058 233.758C199.532 233.483 199.075 233.093 198.721 232.616C198.191 231.9 197.893 231.039 197.865 230.148C197.836 229.603 197.918 229.056 198.106 228.543C198.295 228.03 198.585 227.561 198.961 227.163C199.336 226.766 199.788 226.449 200.29 226.231C200.791 226.014 201.332 225.901 201.878 225.898C202.778 225.917 203.637 226.276 204.282 226.903C204.714 227.306 205.035 227.812 205.215 228.374C205.265 228.528 205.296 228.687 205.308 228.847C205.332 228.9 205.345 228.958 205.345 229.016Z" fill="#263238"/>
<path d="M209.232 227.463C209.232 227.463 209.163 227.24 208.998 226.872C208.759 226.355 208.401 225.903 207.953 225.552C207.298 225.024 206.472 224.757 205.632 224.8C205.125 224.837 204.63 224.974 204.176 225.204C203.722 225.434 203.318 225.751 202.987 226.139C202.33 226.932 202.014 227.954 202.11 228.98C202.172 229.821 202.482 230.625 202.999 231.291C203.351 231.741 203.791 232.112 204.293 232.383C204.649 232.577 204.872 232.642 204.864 232.665C204.647 232.648 204.436 232.586 204.245 232.483C203.703 232.24 203.223 231.875 202.843 231.418C202.273 230.734 201.925 229.892 201.847 229.005C201.786 228.461 201.837 227.91 201.997 227.387C202.156 226.863 202.42 226.377 202.773 225.959C203.126 225.541 203.56 225.198 204.049 224.953C204.538 224.708 205.072 224.565 205.618 224.532C206.517 224.498 207.396 224.807 208.076 225.396C208.536 225.774 208.888 226.267 209.097 226.824C209.156 226.974 209.197 227.131 209.219 227.29C209.251 227.397 209.232 227.463 209.232 227.463Z" fill="#263238"/>
<path d="M213.396 225.738C213.396 225.738 213.296 225.531 213.121 225.167C212.857 224.663 212.475 224.23 212.008 223.905C211.327 223.41 210.487 223.186 209.65 223.274C209.144 223.337 208.655 223.501 208.214 223.756C207.772 224.011 207.386 224.352 207.079 224.759C206.772 225.166 206.549 225.631 206.425 226.125C206.301 226.62 206.278 227.135 206.357 227.638C206.462 228.475 206.814 229.261 207.368 229.897C207.744 230.327 208.204 230.676 208.719 230.923C209.083 231.093 209.307 231.145 209.301 231.174C209.083 231.166 208.869 231.115 208.672 231.022C208.118 230.807 207.62 230.469 207.216 230.034C206.608 229.383 206.212 228.562 206.083 227.681C205.995 227.141 206.018 226.589 206.148 226.058C206.278 225.527 206.513 225.028 206.84 224.59C207.171 224.153 207.588 223.788 208.065 223.517C208.542 223.247 209.07 223.076 209.615 223.016C210.507 222.934 211.398 223.19 212.111 223.734C212.594 224.092 212.973 224.572 213.21 225.124C213.274 225.27 213.323 225.422 213.358 225.578C213.4 225.679 213.407 225.733 213.396 225.738Z" fill="#263238"/>
<path d="M217.404 223.693C217.404 223.693 217.304 223.485 217.129 223.121C216.85 222.624 216.456 222.202 215.979 221.89C215.284 221.416 214.44 221.214 213.607 221.324C213.102 221.399 212.617 221.576 212.182 221.844C211.747 222.111 211.37 222.463 211.074 222.879C210.778 223.295 210.569 223.767 210.459 224.266C210.35 224.765 210.342 225.28 210.436 225.782C210.542 226.481 210.823 227.141 211.251 227.703C211.679 228.265 212.242 228.71 212.888 228.998C213.259 229.158 213.485 229.203 213.477 229.226C213.261 229.231 213.046 229.188 212.847 229.101C212.289 228.898 211.783 228.573 211.366 228.15C210.741 227.515 210.325 226.703 210.175 225.825C210.073 225.287 210.08 224.735 210.195 224.201C210.31 223.666 210.531 223.16 210.845 222.712C211.164 222.267 211.57 221.891 212.039 221.608C212.508 221.325 213.029 221.14 213.572 221.065C214.465 220.959 215.365 221.192 216.095 221.719C216.589 222.067 216.983 222.54 217.235 223.09C217.305 223.235 217.358 223.387 217.396 223.543C217.405 223.628 217.414 223.688 217.404 223.693Z" fill="#263238"/>
<path d="M221.04 222.498C221.04 222.498 220.94 222.29 220.764 221.926C220.506 221.419 220.128 220.981 219.664 220.652C218.989 220.153 218.155 219.919 217.319 219.996C216.812 220.051 216.321 220.209 215.876 220.458C215.432 220.708 215.041 221.045 214.729 221.448C214.417 221.852 214.19 222.314 214.06 222.807C213.93 223.301 213.902 223.815 213.975 224.32C214.055 225.022 214.309 225.692 214.714 226.27C215.119 226.849 215.662 227.317 216.294 227.632C216.66 227.808 216.878 227.862 216.878 227.888C216.66 227.879 216.447 227.825 216.251 227.729C215.698 227.51 215.203 227.166 214.806 226.723C214.206 226.064 213.823 225.236 213.709 224.352C213.628 223.811 213.657 223.26 213.793 222.73C213.929 222.201 214.17 221.704 214.502 221.269C214.839 220.837 215.26 220.478 215.74 220.213C216.22 219.949 216.749 219.785 217.295 219.732C218.191 219.659 219.082 219.93 219.785 220.491C220.264 220.853 220.637 221.335 220.868 221.889C220.931 222.036 220.979 222.189 221.011 222.345C221.043 222.438 221.053 222.498 221.04 222.498Z" fill="#263238"/>
<path d="M184.752 108.877C183.296 109.525 181.892 110.283 180.551 111.144C176.495 113.783 173.545 117.814 172.255 122.477C170.965 127.141 171.424 132.115 173.547 136.463C174.913 139.338 176.662 142.016 178.745 144.423C185.512 152.082 190.042 159.519 191.591 163.464L202.118 163.929C202.118 163.929 203.308 156.501 205.892 152.3C208.476 148.098 217.825 135.672 219.589 126.726C220.716 120.948 217.12 111.915 205.878 107.948C198.977 105.537 191.414 105.87 184.752 108.877Z" fill="#FFA401"/>
<path d="M192.248 175.063L201.767 175.508L199.861 184.119L193.721 184.26L192.248 175.063Z" fill="#455A64"/>
<path d="M192.741 175.14C192.661 175.147 192.328 172.542 192.002 169.327C191.675 166.111 191.469 163.491 191.549 163.484C191.629 163.478 191.959 166.077 192.288 169.297C192.617 172.518 192.819 175.128 192.741 175.14Z" fill="#263238"/>
<path d="M201.153 175.439C201.073 175.433 201.237 172.743 201.512 169.436C201.788 166.129 202.088 163.469 202.155 163.437C202.223 163.404 202.072 166.133 201.791 169.443C201.51 172.752 201.223 175.438 201.153 175.439Z" fill="#263238"/>
<g opacity="0.4">
<path opacity="0.4" d="M187.361 107.915C187.023 108.077 185.22 114.962 184.967 119.141C184.118 133.201 189.03 144.115 193.371 157.512C193.993 159.427 194.963 163.727 194.936 163.632C196.196 163.908 199.959 163.855 199.959 163.855C199.959 163.855 201.176 158.955 201.481 156.639C202.699 147.368 205.061 139.452 205.429 130.104C205.796 120.756 206.428 112.342 199.103 106.489C199.103 106.489 190.998 105.9 187.361 107.915Z" fill="black"/>
</g>
<path d="M220.123 127.837C220.043 127.782 219.968 127.72 219.899 127.651C219.757 127.527 219.556 127.323 219.271 127.089C218.459 126.406 217.572 125.818 216.627 125.336C215.174 124.589 213.602 124.099 211.981 123.887C209.897 123.601 207.774 123.802 205.78 124.474L205.718 124.504L205.667 124.478C203.989 123.577 202.237 122.824 200.429 122.227C198.451 121.574 196.378 121.253 194.295 121.277C192.214 121.327 190.175 121.871 188.345 122.863C186.671 123.752 185.284 125.099 184.348 126.747L184.295 126.837L184.197 126.807C182.166 126.242 180.01 126.309 178.018 127C176.472 127.539 175.079 128.443 173.956 129.635C173.229 130.406 172.619 131.279 172.146 132.228C171.987 132.561 171.869 132.822 171.8 132.997C171.768 133.089 171.727 133.177 171.677 133.261C171.7 133.167 171.728 133.074 171.761 132.983C171.821 132.801 171.923 132.534 172.072 132.194C172.518 131.216 173.117 130.316 173.847 129.527C174.972 128.296 176.381 127.358 177.951 126.795C179.984 126.072 182.19 125.991 184.27 126.561L184.125 126.631C185.08 124.934 186.501 123.545 188.22 122.629C190.083 121.611 192.161 121.049 194.284 120.988C196.4 120.964 198.505 121.293 200.513 121.962C202.336 122.567 204.102 123.333 205.789 124.253L205.688 124.243C207.719 123.564 209.881 123.374 211.999 123.687C213.641 123.916 215.229 124.431 216.694 125.208C217.64 125.709 218.521 126.325 219.318 127.041C219.595 127.285 219.788 127.499 219.923 127.633C219.994 127.697 220.061 127.765 220.123 127.837Z" fill="#263238"/>
<path d="M209.888 146.368C209.449 145.786 208.909 145.29 208.292 144.903C207.577 144.464 206.771 144.195 205.936 144.117C204.862 144.004 203.78 144.242 202.852 144.797L202.748 144.847L202.698 144.743C201.896 143.597 200.815 142.675 199.557 142.065C198.298 141.455 196.905 141.176 195.508 141.256C194.282 141.349 193.092 141.715 192.024 142.326C191.044 142.889 190.192 143.65 189.523 144.561L189.465 144.64L189.37 144.603C188.2 144.163 186.92 144.107 185.716 144.443C184.774 144.691 183.9 145.147 183.159 145.778C182.507 146.35 181.971 147.043 181.581 147.817C181.581 147.817 181.59 147.756 181.635 147.651C181.681 147.546 181.742 147.381 181.846 147.184C182.158 146.62 182.562 146.112 183.041 145.68C183.79 145.011 184.683 144.524 185.652 144.257C186.904 143.889 188.242 143.939 189.464 144.398L189.311 144.44C189.998 143.504 190.872 142.721 191.877 142.141C192.982 141.51 194.214 141.135 195.483 141.044C197.014 140.944 198.543 141.277 199.894 142.004C201.099 142.634 202.129 143.551 202.895 144.673L202.731 144.637C203.707 144.07 204.841 143.836 205.962 143.971C206.818 144.063 207.641 144.352 208.366 144.816C208.829 145.113 209.239 145.487 209.577 145.922C209.664 146.036 209.745 146.156 209.819 146.279C209.844 146.307 209.867 146.336 209.888 146.368Z" fill="#263238"/>
<path d="M201.26 178.179C201.26 178.179 201.127 178.115 200.894 178.125C200.562 178.177 200.257 178.337 200.026 178.582C199.842 178.754 199.636 178.903 199.414 179.024C199.273 179.09 199.12 179.127 198.964 179.133C198.809 179.139 198.653 179.113 198.508 179.057C197.905 178.829 197.457 178.283 196.885 178.066C196.751 178.009 196.606 177.983 196.461 177.99C196.316 177.997 196.174 178.036 196.046 178.105C195.793 178.263 195.554 178.444 195.334 178.646C195.113 178.843 194.85 178.987 194.565 179.068C194.256 179.133 193.934 179.109 193.638 179C193.342 178.89 193.082 178.699 192.89 178.448C192.799 178.35 192.74 178.227 192.72 178.095C192.72 178.095 192.78 178.219 192.968 178.385C193.204 178.624 193.506 178.789 193.836 178.856C194.055 178.907 194.283 178.9 194.499 178.838C194.746 178.757 194.972 178.622 195.159 178.443C195.389 178.224 195.641 178.03 195.911 177.863C196.073 177.773 196.254 177.721 196.439 177.71C196.625 177.699 196.81 177.731 196.982 177.802C197.674 178.108 198.084 178.615 198.594 178.811C198.824 178.905 199.082 178.905 199.311 178.811C199.519 178.708 199.712 178.578 199.887 178.425C200.159 178.171 200.516 178.026 200.888 178.019C201.166 178.039 201.27 178.174 201.26 178.179Z" fill="#263238"/>
<path d="M201.535 176.536C200.016 176.619 198.494 176.604 196.976 176.492C195.453 176.475 193.932 176.366 192.422 176.164C193.943 176.084 195.467 176.098 196.986 176.205C198.508 176.223 200.027 176.334 201.535 176.536Z" fill="#263238"/>
<path d="M200.956 179.176C200.956 179.176 200.877 179.278 200.735 179.449C200.662 179.535 200.588 179.648 200.472 179.78C200.334 179.919 200.168 180.027 199.985 180.098C199.517 180.292 198.999 180.334 198.506 180.215C198.214 180.139 197.945 179.995 197.72 179.794C197.517 179.589 197.282 179.419 197.024 179.291C196.76 179.223 196.486 179.212 196.218 179.257C195.95 179.303 195.694 179.404 195.468 179.554C195.05 179.819 194.582 179.992 194.093 180.063C193.749 180.092 193.407 179.989 193.136 179.775C192.955 179.613 192.923 179.468 192.936 179.468C192.949 179.468 193.023 179.567 193.207 179.683C193.468 179.841 193.776 179.903 194.078 179.859C194.531 179.766 194.961 179.582 195.342 179.32C195.6 179.146 195.892 179.029 196.199 178.979C196.506 178.928 196.821 178.944 197.121 179.027C197.406 179.169 197.665 179.358 197.889 179.585C198.082 179.763 198.314 179.894 198.566 179.969C199.008 180.081 199.472 180.062 199.903 179.914C200.193 179.805 200.449 179.62 200.643 179.378C200.829 179.218 200.948 179.161 200.956 179.176Z" fill="#263238"/>
<path d="M120.553 158.136L132.684 149.905L122.197 144.077L118.947 145.886C117.872 146.482 116.984 147.366 116.383 148.438C115.781 149.509 115.49 150.728 115.541 151.956C115.598 153.287 116.053 154.57 116.848 155.639L120.553 158.136Z" fill="#FFA401"/>
<path opacity="0.4" d="M120.553 158.136L132.684 149.905L122.197 144.077L118.947 145.886C117.872 146.482 116.984 147.366 116.383 148.438C115.781 149.509 115.49 150.728 115.541 151.956C115.598 153.287 116.053 154.57 116.848 155.639L120.553 158.136Z" fill="black"/>
<path d="M183.638 145.579C183.953 145.888 184.311 146.259 184.717 146.716C185.061 147.113 185.337 147.564 185.533 148.051C185.794 148.647 185.974 149.275 186.067 149.919C186.105 150.541 186.834 150.778 187.134 150.326C187.435 149.874 187.402 148.226 186.567 146.491C185.731 144.756 188.467 145.998 189.487 146.428C190.507 146.858 193.726 148.041 194.106 147.832C194.662 147.526 194.437 146.873 193.409 146.465C192.381 146.058 189.382 144.629 189.632 144.099C189.882 143.569 195.045 145.837 195.045 145.837C195.045 145.837 196.07 146.502 196.362 145.913C196.927 144.828 191.26 142.829 190.716 142.655C190.341 142.529 190.592 141.947 190.992 142.1C191.392 142.253 196.092 144.475 196.675 143.375C197.116 142.523 192.025 141.692 191.312 140.691C190.6 139.691 195.111 141.722 195.505 140.905C195.656 140.596 195.722 140.346 192.946 139.578C191.605 139.187 186.841 138.41 186.841 138.41L161.333 112.88L155.337 121.611L183.638 145.579Z" fill="#FFBE9D"/>
<path d="M91.845 118.27L72.98 109.744C72.5913 109.324 72.1644 108.94 71.7049 108.599C71.1523 108.162 70.5136 107.848 69.8307 107.676C69.1478 107.504 68.4363 107.479 67.743 107.602C66.9045 107.801 66.0718 108.304 65.2342 108.093C64.8617 107.998 64.5425 107.787 64.1519 107.693C63.7613 107.6 63.2889 107.802 63.2497 108.185C63.2587 108.323 63.2992 108.457 63.368 108.577C63.4369 108.697 63.5323 108.8 63.647 108.877C64.6064 109.718 65.767 110.297 67.016 110.557C66.0591 111.44 64.7042 112.733 64.7042 112.733C64.7042 112.733 60.8508 111.203 59.5546 111.834C58.2585 112.465 61.7771 113.791 61.7771 113.791C61.7771 113.791 58.7734 112.869 58.3895 113.72C58.0056 114.571 60.3457 115.203 60.3457 115.203C59.687 115.105 59.0142 115.225 58.4297 115.544C57.8903 115.925 57.7192 116.859 58.2788 117.21C58.5014 117.327 58.7497 117.385 59.0009 117.381L63.0462 117.621C63.7204 117.715 64.4074 117.648 65.0503 117.423C66.696 116.695 67.4442 115.099 69.0797 114.362C69.0797 114.362 87.274 129.028 88.6611 129.57C90.0483 130.111 110.556 121.877 110.556 121.877L117.274 106.449L91.845 118.27Z" fill="#FFBE9D"/>
<path d="M177.737 204.53L192.535 203.961L193.339 222.371C191.573 222.345 187.629 212.961 187.629 212.961L178.161 213.714L177.737 204.53Z" fill="#FFA401"/>
<g opacity="0.6">
<path opacity="0.6" d="M186.578 207.316C186.623 207.136 186.734 206.979 186.888 206.875C187.042 206.771 187.23 206.728 187.414 206.753C187.594 206.794 187.753 206.902 187.857 207.056C187.96 207.209 188.001 207.396 187.972 207.579C187.923 207.769 187.806 207.934 187.643 208.042C187.48 208.15 187.282 208.194 187.089 208.164C186.903 208.104 186.748 207.975 186.657 207.802C186.566 207.63 186.545 207.429 186.599 207.242" fill="white"/>
</g>
<path opacity="0.6" d="M192.532 203.962L191.04 204.079L192.366 221.686C192.366 221.686 192.757 222.497 193.336 222.371L192.532 203.962Z" fill="white"/>
<path d="M187.544 213.277C187.634 213.266 187.654 212.815 187.928 212.362C188.203 211.91 188.56 211.655 188.523 211.577C188.485 211.499 187.97 211.651 187.655 212.206C187.34 212.761 187.463 213.297 187.544 213.277Z" fill="#263238"/>
<path d="M188.424 215.17C188.516 215.189 188.651 214.792 189.02 214.467C189.388 214.142 189.781 214.042 189.778 213.955C189.774 213.867 189.256 213.828 188.806 214.237C188.357 214.645 188.341 215.171 188.424 215.17Z" fill="#263238"/>
<path d="M190.784 216.17C190.801 216.085 190.341 215.98 189.86 216.231C189.379 216.482 189.202 216.912 189.277 216.947C189.351 216.981 189.605 216.712 190.008 216.511C190.41 216.311 190.782 216.273 190.784 216.17Z" fill="#263238"/>
<path d="M185.366 213.207C185.449 213.166 185.303 212.757 185.32 212.249C185.338 211.741 185.476 211.336 185.396 211.291C185.317 211.246 185.01 211.644 185.003 212.242C184.997 212.84 185.298 213.252 185.366 213.207Z" fill="#263238"/>
<path d="M183.165 212.859C183.196 212.844 183.242 212.502 183.119 211.94C183.048 211.61 182.935 211.29 182.782 210.989C182.696 210.816 182.599 210.649 182.491 210.489C182.428 210.389 182.35 210.299 182.26 210.223C182.194 210.167 182.111 210.134 182.025 210.131C181.938 210.127 181.853 210.153 181.783 210.203C181.721 210.249 181.672 210.31 181.638 210.379C181.605 210.449 181.589 210.525 181.592 210.603C181.597 210.721 181.618 210.837 181.656 210.949C181.807 211.475 182.088 211.953 182.474 212.341C182.883 212.752 183.226 212.881 183.242 212.847C183.258 212.814 182.98 212.609 182.633 212.194C182.435 211.947 182.268 211.677 182.137 211.389C182.057 211.213 181.991 211.031 181.939 210.845C181.88 210.656 181.869 210.488 181.958 210.433C182.046 210.377 181.999 210.413 182.061 210.447C182.124 210.507 182.18 210.575 182.228 210.648C182.34 210.806 182.443 210.97 182.535 211.14C182.689 211.419 182.815 211.712 182.912 212.015C182.977 212.302 183.061 212.584 183.165 212.859Z" fill="#263238"/>
<path d="M183.286 212.743C183.286 212.743 182.972 212.542 182.387 212.536C182.044 212.534 181.704 212.592 181.381 212.707C181.199 212.771 181.025 212.855 180.861 212.957C180.742 213.013 180.639 213.098 180.562 213.205C180.484 213.312 180.435 213.436 180.419 213.567C180.426 213.649 180.455 213.727 180.504 213.793C180.552 213.859 180.619 213.91 180.695 213.94C180.806 213.981 180.921 214.007 181.039 214.017C181.248 214.04 181.46 214.031 181.666 213.99C182.006 213.919 182.324 213.766 182.591 213.545C183.048 213.165 183.146 212.785 183.118 212.779C182.91 212.987 182.69 213.182 182.459 213.365C182.204 213.537 181.913 213.65 181.609 213.698C181.431 213.724 181.25 213.724 181.072 213.7C180.877 213.68 180.718 213.615 180.734 213.543C180.754 213.47 180.79 213.401 180.839 213.343C180.889 213.285 180.95 213.238 181.02 213.207C181.185 213.107 181.359 213.023 181.54 212.957C181.831 212.841 182.138 212.766 182.451 212.736C182.926 212.712 183.275 212.786 183.286 212.743Z" fill="#263238"/>
<path d="M178.406 230.024L188.573 238.189L194.766 246.994C194.872 247.144 195.007 247.27 195.163 247.366C195.319 247.461 195.494 247.523 195.675 247.548C195.856 247.573 196.041 247.56 196.217 247.511C196.393 247.461 196.557 247.376 196.699 247.26C196.865 247.127 196.997 246.955 197.082 246.76C197.168 246.565 197.205 246.352 197.19 246.14C197.012 243.391 196.302 233.269 195.524 232.716C194.625 232.073 185.369 223.393 185.369 223.393L178.406 230.024Z" fill="#FFA401"/>
<path opacity="0.6" d="M196.687 247.234L194.837 232.125L195.262 232.477C195.627 232.784 195.871 233.211 195.951 233.681C196.162 234.943 196.68 238.45 197.202 246.083C197.218 246.303 197.18 246.523 197.09 246.723C197 246.924 196.862 247.1 196.687 247.234Z" fill="white"/>
<g opacity="0.6">
<path opacity="0.6" d="M189.897 231.465C189.883 231.663 189.943 231.859 190.066 232.015C190.188 232.171 190.364 232.276 190.56 232.31C190.758 232.331 190.957 232.275 191.115 232.153C191.274 232.032 191.379 231.854 191.41 231.657C191.422 231.447 191.355 231.24 191.224 231.076C191.093 230.911 190.906 230.801 190.699 230.765C190.49 230.764 190.289 230.845 190.139 230.99C189.989 231.135 189.902 231.333 189.896 231.542" fill="white"/>
</g>
<path d="M194.248 241.286C193.733 241.223 193.21 241.299 192.735 241.508C192.26 241.716 191.85 242.049 191.548 242.472C191.548 242.472 191.546 242.268 191.71 242.01C191.932 241.671 192.249 241.405 192.621 241.244C192.989 241.081 193.396 241.027 193.794 241.089C194.103 241.145 194.258 241.256 194.248 241.286Z" fill="#263238"/>
<path d="M195.007 243.109C194.607 243.259 194.217 243.434 193.839 243.633C193.507 243.903 193.191 244.192 192.893 244.499C192.815 244.485 193.001 243.807 193.677 243.391C193.86 243.241 194.076 243.137 194.308 243.088C194.539 243.039 194.779 243.046 195.007 243.109Z" fill="#263238"/>
<path d="M193.644 238.524C193.008 238.704 192.387 238.933 191.785 239.208C191.224 239.561 190.692 239.958 190.195 240.397C190.53 239.788 191.034 239.287 191.645 238.955C192.257 238.623 192.95 238.474 193.644 238.524Z" fill="#263238"/>
<path d="M190.764 235.784C190.802 235.862 190.108 236.215 189.479 236.915C188.849 237.615 188.542 238.32 188.463 238.287C188.539 237.686 188.824 237.13 189.267 236.716C189.641 236.238 190.171 235.908 190.764 235.784Z" fill="#263238"/>
<path d="M187.835 233.309C187.33 233.628 186.87 234.013 186.467 234.455C186.134 234.948 185.872 235.486 185.688 236.052C185.662 236.065 185.616 235.837 185.683 235.498C185.769 235.05 185.962 234.63 186.245 234.273C186.523 233.914 186.883 233.627 187.294 233.435C187.611 233.295 187.828 233.281 187.835 233.309Z" fill="#263238"/>
<path d="M185.929 233.972C185.781 233.895 185.649 233.792 185.539 233.667C185.224 233.341 184.975 232.956 184.808 232.534C184.657 232.237 184.608 231.898 184.67 231.57C184.7 231.469 184.759 231.379 184.841 231.311C184.922 231.244 185.021 231.202 185.127 231.19C185.343 231.192 185.551 231.271 185.714 231.413C186.03 231.718 186.231 232.124 186.28 232.561C186.329 232.997 186.224 233.438 185.983 233.805C185.738 234.163 185.392 234.441 184.99 234.603C184.587 234.765 184.146 234.804 183.721 234.716C183.612 234.692 183.51 234.644 183.422 234.576C183.333 234.507 183.261 234.421 183.211 234.321C183.168 234.219 183.159 234.107 183.184 233.999C183.209 233.892 183.268 233.795 183.351 233.722C183.613 233.524 183.923 233.397 184.249 233.354C184.696 233.266 185.156 233.262 185.606 233.34C185.917 233.389 186.078 233.458 186.075 233.479C185.483 233.416 184.884 233.446 184.3 233.566C184.016 233.612 183.749 233.73 183.524 233.908C183.477 233.947 183.445 233.999 183.43 234.058C183.416 234.117 183.421 234.179 183.444 234.234C183.484 234.294 183.535 234.344 183.595 234.384C183.655 234.423 183.721 234.45 183.792 234.464C184.16 234.531 184.54 234.49 184.887 234.347C185.233 234.204 185.531 233.965 185.745 233.657C185.957 233.344 186.054 232.967 186.02 232.591C185.985 232.214 185.822 231.861 185.557 231.591C185.448 231.486 185.305 231.425 185.154 231.42C185.094 231.422 185.035 231.442 184.987 231.479C184.939 231.516 184.905 231.567 184.888 231.625C184.834 231.903 184.87 232.191 184.989 232.447C185.21 233.007 185.528 233.523 185.929 233.972Z" fill="#263238"/>
<path d="M185.986 202.149L167.607 199.483L150.482 152.187L133.644 150.845L120.287 153.849C120.287 153.849 120.299 166.707 121.272 174.494C123.373 190.999 122.498 197.699 128.221 207.626C130.032 210.774 146.006 213.139 155.791 214C156.312 214.865 156.881 215.7 157.495 216.501C165.752 227 181.216 238.802 181.216 238.802L190.568 227.392L180.264 215.939L185.454 216.351L185.986 202.149ZM142.151 187.425L140.291 179.419C142.163 184.181 144.161 189.126 146.152 193.831C144.329 192.051 142.96 189.859 142.159 187.441L142.151 187.425Z" fill="#263238"/>
<path d="M181.236 238.792C181.169 238.749 181.107 238.7 181.05 238.645L180.522 238.201L178.534 236.452C176.811 234.921 174.334 232.715 171.293 229.924C168.253 227.133 164.65 223.825 160.755 220.005C159.787 219.044 158.814 218.047 157.842 216.999C157.375 216.456 156.867 215.945 156.44 215.338C156.331 215.192 156.215 215.043 156.111 214.895L155.817 214.429L155.232 213.495C154.446 212.235 153.678 210.937 152.927 209.6C152.555 208.934 152.184 208.256 151.817 207.575C151.451 206.894 151.087 206.192 150.796 205.455C148.277 199.693 146.162 194.094 144.202 189.016C142.242 183.938 140.505 179.36 139.032 175.506C137.56 171.653 136.331 168.571 135.437 166.448C135.004 165.377 134.655 164.559 134.415 164.009L134.151 163.368C134.109 163.304 134.075 163.234 134.051 163.16C134.09 163.227 134.124 163.296 134.151 163.368C134.226 163.524 134.324 163.727 134.452 163.991C134.714 164.537 135.076 165.355 135.527 166.411C136.44 168.531 137.699 171.611 139.206 175.442C140.712 179.273 142.463 183.851 144.423 188.929C146.382 194.007 148.518 199.596 151.046 205.335C151.344 206.062 151.721 206.738 152.059 207.439C152.397 208.14 152.79 208.796 153.169 209.464C153.919 210.809 154.682 212.104 155.456 213.348L156.043 214.288L156.335 214.749C156.439 214.897 156.55 215.035 156.659 215.181C157.068 215.765 157.574 216.283 158.038 216.821C158.995 217.864 159.968 218.861 160.931 219.825C164.786 223.657 168.381 226.987 171.396 229.791C174.411 232.595 176.876 234.831 178.576 236.38C179.416 237.154 180.075 237.751 180.533 238.171C180.744 238.37 180.915 238.524 181.034 238.64C181.154 238.755 181.236 238.792 181.236 238.792Z" fill="#455A64"/>
<path d="M132.764 161.899C132.764 161.899 132.609 161.884 132.329 161.794C131.947 161.635 131.594 161.41 131.287 161.132C130.324 160.184 129.54 159.07 128.973 157.843C128.372 156.636 127.845 155.395 127.393 154.124C127.177 153.614 127.008 153.085 126.888 152.544C127.17 153.021 127.411 153.522 127.608 154.04C128.004 154.982 128.545 156.289 129.241 157.682C129.807 158.878 130.554 159.98 131.455 160.949C131.738 161.224 132.056 161.46 132.401 161.651C132.628 161.804 132.774 161.881 132.764 161.899Z" fill="#455A64"/>
<path d="M122.414 153.669C122.733 154.017 122.975 154.428 123.124 154.876C123.553 155.943 123.689 157.106 123.518 158.244C123.347 159.382 122.875 160.453 122.151 161.347C121.876 161.731 121.523 162.054 121.116 162.294C121.096 162.252 121.488 161.91 121.993 161.232C122.647 160.341 123.074 159.304 123.239 158.211C123.404 157.119 123.301 156.002 122.939 154.958C122.657 154.147 122.367 153.691 122.414 153.669Z" fill="#455A64"/>
<path d="M156.599 169.496C156.599 169.496 156.622 169.543 156.664 169.631C156.707 169.72 156.779 169.87 156.826 170.046C156.964 170.44 157.163 170.985 157.421 171.68C157.923 173.108 158.644 175.135 159.525 177.629C161.315 182.674 163.717 189.626 166.402 197.299C167.759 200.866 169.651 204.206 172.012 207.204C173.041 208.51 174.153 209.749 175.34 210.913C176.449 212.017 177.478 213.051 178.426 213.996C180.296 215.873 181.813 217.401 182.88 218.474C183.388 218.998 183.79 219.406 184.106 219.689L184.415 220.013C184.453 220.046 184.484 220.085 184.509 220.128C184.509 220.128 184.492 220.092 184.392 220.031C184.292 219.97 184.198 219.855 184.066 219.727C183.764 219.444 183.354 219.046 182.849 218.528L178.331 214.119C177.38 213.181 176.336 212.155 175.22 211.061C174.017 209.895 172.89 208.652 171.847 207.341C169.455 204.331 167.54 200.971 166.171 197.378C163.466 189.689 161.108 182.723 159.375 177.676C158.53 175.165 157.825 173.13 157.356 171.692C157.124 170.997 156.946 170.455 156.808 170.036C156.73 169.875 156.709 169.725 156.675 169.613C156.644 169.578 156.619 169.539 156.599 169.496Z" fill="#455A64"/>
<path d="M120.247 153.771L119.757 147.306L128.102 152.208L120.846 153.713" fill="#FFBE9D"/>
<path d="M163.187 112.947L151.203 102.803C149.511 101.058 148.063 101.359 146.402 100.674L128.045 99.4878C115.444 100.246 116.676 117.457 116.676 117.457L117.622 143.881C108.17 153.023 120.294 157.826 120.294 157.826C120.294 157.826 114.672 153.98 116.762 150.612C118.941 147.086 124.982 150.697 130.76 154.109C137.581 158.132 152.31 155.786 152.31 155.786C153.051 153.471 149.955 148.12 149.698 144.571C149.619 143.45 148.586 118.508 148.586 118.508L156.072 125.212C156.072 125.212 157.995 117.886 159.751 116.029C160.807 114.906 161.956 113.875 163.187 112.947Z" fill="#FFA401"/>
<path d="M142.028 134.454C141.954 134.637 141.857 134.811 141.74 134.97C141.437 135.416 141.097 135.835 140.723 136.222C139.485 137.52 137.932 138.478 136.215 139.001C134.498 139.524 132.676 139.595 130.923 139.208C130.397 139.096 129.881 138.938 129.383 138.734C129.195 138.673 129.018 138.584 128.858 138.468C128.877 138.414 129.643 138.769 130.962 139.01C132.683 139.335 134.456 139.238 136.131 138.728C137.805 138.218 139.331 137.309 140.578 136.08C141.546 135.14 142.008 134.412 142.028 134.454Z" fill="#263238"/>
<path d="M108.26 125.466L117.574 122.017L124.571 100.086L116.047 103.834L101.834 112.498C104.693 116.426 106.866 120.811 108.26 125.466Z" fill="#FFA401"/>
<path d="M116.787 111.592C116.813 111.7 116.82 111.81 116.811 111.92L116.823 112.862C116.836 113.713 116.847 114.891 116.862 116.318C116.907 119.24 117.017 123.283 117.236 127.722C117.454 132.161 117.577 136.216 117.619 139.147C117.652 140.609 117.663 141.788 117.661 142.608L117.647 143.549C117.652 143.661 117.643 143.772 117.621 143.881C117.601 143.772 117.591 143.662 117.59 143.551L117.547 142.612L117.418 139.154C117.278 136.207 117.123 132.179 116.931 127.741C116.739 123.302 116.675 119.237 116.658 116.32C116.664 114.858 116.669 113.685 116.712 112.857C116.733 112.476 116.743 112.164 116.752 111.917C116.752 111.808 116.764 111.699 116.787 111.592Z" fill="#263238"/>
<path d="M146.089 102.872C146.138 102.906 145.73 103.454 145.277 104.466C145.02 105.053 144.818 105.662 144.675 106.286C144.504 107.054 144.414 107.837 144.406 108.623C144.412 109.408 144.498 110.191 144.66 110.959C144.801 111.586 145.002 112.199 145.26 112.788C145.699 113.793 146.108 114.35 146.059 114.381C145.939 114.273 145.836 114.148 145.752 114.01C145.631 113.858 145.523 113.696 145.429 113.526C145.293 113.311 145.171 113.088 145.063 112.857C144.773 112.266 144.549 111.644 144.394 111.004C144.204 110.212 144.104 109.402 144.094 108.588C144.106 107.781 144.206 106.977 144.393 106.191C144.553 105.554 144.781 104.936 145.072 104.347C145.179 104.118 145.301 103.897 145.438 103.685C145.529 103.517 145.634 103.358 145.752 103.207C145.846 103.078 145.96 102.965 146.089 102.872Z" fill="#263238"/>
<path d="M138.612 80.9827L137.781 100.634C137.714 102.18 137.064 103.644 135.962 104.731C134.86 105.817 133.388 106.446 131.841 106.491C131.005 106.511 130.174 106.36 129.399 106.046C128.624 105.733 127.922 105.264 127.335 104.669C126.749 104.073 126.29 103.364 125.988 102.585C125.686 101.805 125.547 100.972 125.58 100.137L125.713 96.7325C125.713 96.7325 120.943 96.1309 120.755 91.3831C120.585 87.1512 121.39 74.5783 121.563 71.9221L130.126 71.6821C131.299 71.7194 132.453 71.9915 133.519 72.4824C134.585 72.9733 135.542 73.673 136.333 74.54C137.124 75.4071 137.734 76.424 138.125 77.5306C138.516 78.6372 138.682 79.811 138.612 80.9827Z" fill="#FFBE9D"/>
<path d="M125.685 96.6754C127.878 96.6536 130.015 95.9804 131.825 94.7415C131.825 94.7415 130.457 98.1976 125.708 97.9058L125.685 96.6754Z" fill="#EB996E"/>
<path d="M122.354 82.889C122.357 83.0661 122.43 83.2348 122.555 83.3595C122.681 83.4841 122.851 83.5548 123.028 83.5566C123.114 83.5607 123.2 83.5476 123.281 83.5181C123.363 83.4886 123.437 83.4432 123.501 83.3847C123.564 83.3261 123.615 83.2555 123.651 83.1769C123.687 83.0983 123.707 83.0134 123.71 82.9271C123.707 82.75 123.634 82.5813 123.509 82.4566C123.383 82.332 123.214 82.2613 123.036 82.2595C122.95 82.2554 122.864 82.2685 122.783 82.298C122.702 82.3275 122.627 82.3729 122.563 82.4314C122.5 82.49 122.449 82.5606 122.413 82.6392C122.377 82.7178 122.357 82.8027 122.354 82.889Z" fill="#263238"/>
<path d="M122.146 82.3801C122.233 82.4665 122.744 82.0923 123.467 82.0514C124.189 82.0105 124.738 82.3796 124.817 82.2905C124.896 82.2014 124.76 82.0937 124.528 81.9304C124.205 81.7215 123.826 81.6161 123.442 81.6281C123.062 81.6385 122.694 81.7685 122.392 81.9995C122.175 82.1742 122.093 82.3226 122.146 82.3801Z" fill="#263238"/>
<path d="M129.298 82.9476C129.3 83.1251 129.372 83.2947 129.498 83.4197C129.624 83.5447 129.794 83.6149 129.972 83.6152C130.058 83.6189 130.145 83.6055 130.226 83.5755C130.307 83.5455 130.381 83.4996 130.445 83.4405C130.508 83.3814 130.559 83.3103 130.594 83.2313C130.63 83.1523 130.649 83.067 130.651 82.9805C130.647 82.8048 130.574 82.6377 130.449 82.5142C130.324 82.3907 130.156 82.3205 129.98 82.3181C129.894 82.3132 129.807 82.3257 129.726 82.3549C129.644 82.3841 129.569 82.4295 129.506 82.4882C129.442 82.5469 129.391 82.6179 129.355 82.6968C129.32 82.7757 129.3 82.861 129.298 82.9476Z" fill="#263238"/>
<path d="M129.321 82.3107C129.407 82.397 129.918 82.0229 130.641 81.982C131.363 81.9411 131.915 82.3154 131.993 82.2263C132.072 82.1372 131.942 82.027 131.702 81.861C131.38 81.654 131.001 81.5504 130.618 81.5639C130.238 81.5715 129.869 81.7017 129.568 81.9352C129.352 82.11 129.277 82.2739 129.321 82.3107Z" fill="#263238"/>
<path d="M126.822 87.7954C126.435 87.689 126.037 87.6295 125.636 87.618C125.448 87.5997 125.268 87.5713 125.233 87.447C125.199 87.3227 125.262 87.107 125.342 86.889L125.853 85.4524C126.33 84.2358 126.709 82.9832 126.986 81.7065C126.407 82.8804 125.924 84.0998 125.543 85.3524L125.055 86.7971C124.944 87.0252 124.917 87.2851 124.979 87.5309C125.009 87.5952 125.053 87.6521 125.107 87.6979C125.161 87.7436 125.224 87.7771 125.293 87.796C125.397 87.8197 125.503 87.8308 125.609 87.8291C126.013 87.8737 126.421 87.8623 126.822 87.7954Z" fill="#263238"/>
<path d="M128.983 88.2399C128.867 88.2382 128.889 89.0277 128.228 89.6085C127.566 90.1893 126.719 90.1304 126.715 90.2412C126.71 90.352 126.906 90.3859 127.264 90.386C127.728 90.3808 128.175 90.211 128.525 89.9069C128.864 89.6167 129.075 89.2047 129.112 88.7602C129.132 88.4304 129.039 88.2382 128.983 88.2399Z" fill="#263238"/>
<path d="M129.052 79.4575C129.144 79.6497 129.852 79.5389 130.71 79.6186C131.568 79.6983 132.271 79.9098 132.377 79.7309C132.425 79.6439 132.298 79.4615 132.012 79.2665C131.632 79.0436 131.207 78.9094 130.767 78.8739C130.328 78.8385 129.886 78.9025 129.475 79.0614C129.174 79.2066 129.014 79.3667 129.052 79.4575Z" fill="#263238"/>
<path d="M122.361 80.274C122.498 80.4385 122.99 80.2524 123.612 80.2151C124.234 80.1779 124.741 80.3117 124.847 80.1198C124.952 79.928 124.814 79.8666 124.584 79.7214C124.283 79.5342 123.93 79.4485 123.577 79.477C123.221 79.4917 122.879 79.6184 122.599 79.8391C122.36 80.0058 122.285 80.1826 122.361 80.274Z" fill="#263238"/>
<path d="M137.114 84.592C137.197 84.552 140.348 83.5334 140.338 86.7826C140.329 90.0318 137.09 89.3394 137.052 89.2614C137.015 89.1835 137.114 84.592 137.114 84.592Z" fill="#FFBE9D"/>
<path d="M138.058 88.0279C138.058 88.0279 138.114 88.0649 138.209 88.1153C138.345 88.1715 138.497 88.1738 138.634 88.1215C138.849 87.9901 139.024 87.8036 139.142 87.5812C139.26 87.3589 139.317 87.1089 139.305 86.8575C139.314 86.5797 139.262 86.3033 139.152 86.048C139.121 85.9466 139.066 85.8541 138.992 85.7784C138.918 85.7028 138.826 85.6463 138.725 85.6137C138.66 85.5973 138.591 85.6043 138.53 85.6336C138.469 85.6628 138.421 85.7125 138.393 85.7738C138.353 85.8635 138.37 85.9256 138.354 85.9331C138.339 85.9406 138.283 85.8779 138.308 85.7442C138.328 85.6631 138.374 85.5911 138.44 85.5398C138.53 85.4735 138.642 85.4447 138.753 85.4593C138.886 85.4868 139.01 85.5474 139.112 85.6355C139.215 85.7236 139.294 85.8363 139.342 85.9632C139.478 86.2449 139.545 86.5556 139.535 86.8686C139.55 87.158 139.479 87.4454 139.332 87.695C139.185 87.9446 138.967 88.1453 138.707 88.2722C138.618 88.2949 138.526 88.2989 138.436 88.2838C138.346 88.2687 138.261 88.2349 138.185 88.1845C138.064 88.108 138.048 88.0329 138.058 88.0279Z" fill="#EB996E"/>
<path d="M138.929 84.4531C138.625 84.4473 138.324 84.5219 138.058 84.6692C137.792 84.8165 137.569 85.0313 137.413 85.2921C137.215 85.7585 137.182 86.2867 136.994 86.7739C136.917 87.0177 136.76 87.2288 136.55 87.3741C136.34 87.5195 136.087 87.5908 135.832 87.5769C135.663 87.5283 135.51 87.4359 135.388 87.3092C135.266 87.1824 135.18 87.0257 135.138 86.8549C135.058 86.5106 135.045 86.154 135.1 85.8047C135.246 84.2879 135.521 82.7731 135.541 81.2467C135.622 79.7094 135.245 78.1825 134.458 76.8595C134.057 76.2064 133.487 75.6734 132.808 75.3167C132.129 74.96 131.367 74.7927 130.601 74.8325C129.599 74.944 128.686 75.4928 127.688 75.6663C127.093 75.7606 126.485 75.7189 125.909 75.5442C125.332 75.3696 124.803 75.0665 124.361 74.6579C124.159 74.5042 123.95 74.3616 123.733 74.2309C123.734 74.1536 123.79 73.4736 124.047 73.222C125.986 71.3216 129.551 70.7114 132.196 71.2997C133.54 71.5887 134.806 72.1677 135.904 72.9963C137.001 73.825 137.905 74.8832 138.552 76.0972C139.754 78.5262 139.512 81.9577 138.959 84.4639" fill="#263238"/>
<path d="M138.817 84.155C138.949 82.5554 139.701 81.0863 140.064 79.5288C140.427 77.9714 140.319 76.0718 139.023 75.1088C138.592 74.7724 138.061 74.5737 137.659 74.2042C137.287 73.7989 136.963 73.3509 136.696 72.8696C136.215 72.1695 135.58 71.5876 134.842 71.1676C134.103 70.7476 133.279 70.5004 132.431 70.4445C131.256 70.3704 130.091 70.6756 128.913 70.635C127.057 70.569 125.276 69.6479 123.388 69.7954C123.079 69.7939 122.773 69.8578 122.49 69.9829C122.208 70.1081 121.954 70.2917 121.748 70.5217C121.653 70.6411 121.585 70.779 121.548 70.9264C121.51 71.0739 121.504 71.2276 121.53 71.3776C121.555 71.5276 121.612 71.6705 121.697 71.797C121.782 71.9235 121.892 72.0307 122.021 72.1117C121.933 72.0068 121.822 71.9226 121.698 71.8649C121.574 71.8071 121.438 71.7773 121.301 71.7775C121.164 71.7777 121.028 71.8079 120.904 71.866C120.78 71.924 120.67 72.0086 120.582 72.1137C120.419 72.3407 120.327 72.6107 120.316 72.89C120.306 73.1692 120.379 73.4453 120.525 73.6834C120.827 74.154 121.251 74.5337 121.752 74.782C123.373 75.6834 125.262 75.9782 127.081 75.6136L130.535 73.604L134.524 74.3642L138.364 76.7831L136.888 83.8042L138.817 84.155Z" fill="#263238"/>
<path d="M106.534 74.5215C105.298 72.3285 103.495 70.5076 101.315 69.2493C99.1347 67.9909 96.6564 67.3411 94.1391 67.3678C91.6217 67.3946 89.1578 68.0969 87.0046 69.4013C84.8515 70.7057 83.0881 72.5645 81.8988 74.7833C80.7095 77.0021 80.1379 79.4996 80.2437 82.0149C80.3494 84.5301 81.1287 86.9708 82.5001 89.0819C83.8715 91.1931 85.7847 92.8972 88.0398 94.0162C90.2948 95.1353 92.8091 95.6282 95.3197 95.4435C96.1391 96.892 97.0639 98.5329 97.0639 98.5329L107.793 92.4812C107.793 92.4812 106.883 90.7116 106.03 89.1517C107.451 86.9952 108.25 84.4886 108.339 81.9075C108.428 79.3265 107.803 76.7708 106.534 74.5215Z" fill="#FFA401"/>
<path d="M103.881 94.6208C103.881 94.6208 103.854 94.5637 103.806 94.465C103.759 94.3663 103.679 94.2001 103.584 94.0027C103.391 93.6027 103.16 92.9778 102.855 92.1842C102.549 91.3905 102.185 90.4078 101.838 89.2499C101.437 87.9335 101.165 86.5813 101.026 85.2124C100.947 84.4142 100.939 83.6107 101.002 82.8111C101.036 82.3748 101.178 81.9539 101.417 81.5871C101.551 81.3975 101.728 81.2426 101.933 81.1357C102.139 81.0288 102.368 80.9729 102.6 80.9727C102.845 80.9727 103.081 81.0677 103.258 81.2377C103.445 81.4064 103.558 81.6413 103.574 81.8923C103.583 82.3853 103.411 82.8646 103.09 83.239C102.742 83.6135 102.323 83.9152 101.858 84.1266C101.392 84.338 100.89 84.455 100.379 84.4707C99.8677 84.4865 99.3588 84.4007 98.8812 84.2183C98.4037 84.0359 97.9672 83.7605 97.5969 83.4082C97.1835 83.0415 96.8814 82.5662 96.7248 82.0363C96.6424 81.7541 96.6611 81.452 96.7776 81.1821C96.8941 80.9121 97.1011 80.6913 97.3629 80.5577C97.5021 80.4961 97.6548 80.4713 97.8063 80.4858C97.9579 80.5002 98.1031 80.5533 98.2282 80.6401C98.4788 80.8032 98.6634 81.0499 98.7492 81.3363C98.8738 81.9076 98.8136 82.5037 98.5771 83.0384C98.3721 83.5896 98.0529 84.0912 97.6406 84.5104C97.2282 84.9296 96.7319 85.257 96.1842 85.4711C95.6309 85.6763 95.0361 85.7445 94.4507 85.6698C93.8653 85.5952 93.3066 85.3799 92.8225 85.0424C92.5785 84.8788 92.371 84.6665 92.2131 84.4187C92.0551 84.1709 91.9503 83.8931 91.905 83.6028C91.8801 83.4547 91.8879 83.3029 91.928 83.1582C91.968 83.0135 92.0394 82.8793 92.137 82.7651C92.2346 82.651 92.356 82.5597 92.4928 82.4976C92.6295 82.4355 92.7783 82.4042 92.9284 82.4058C93.2208 82.4013 93.5076 82.4865 93.7501 82.65C93.981 82.812 94.1793 83.0162 94.3343 83.2518C94.6353 83.7062 94.8402 84.2173 94.9363 84.7538C95.1388 85.7986 94.9347 86.8814 94.3656 87.7807C93.8184 88.631 92.9864 89.2587 92.0185 89.5513C91.5614 89.7211 91.0614 89.7372 90.5943 89.5974C90.361 89.5191 90.1613 89.3639 90.028 89.1571C89.8947 88.9503 89.8356 88.7044 89.8606 88.4596C89.9116 88.2208 90.0545 88.0116 90.2586 87.8775C90.4534 87.7509 90.6773 87.6761 90.9091 87.6601C91.3517 87.6625 91.7811 87.8112 92.1304 88.083C92.8143 88.5728 93.4232 89.0795 94.0222 89.5525C96.3923 91.47 98.2326 93.1115 99.4897 94.2595C100.118 94.8336 100.62 95.2768 100.925 95.5908C101.082 95.7452 101.204 95.8657 101.293 95.9443C101.336 95.9842 101.376 96.027 101.413 96.0725L101.28 95.957L100.901 95.6214L99.4425 94.3078C98.1697 93.1802 96.3163 91.5514 93.9409 89.6493C93.3443 89.1815 92.7201 88.6694 92.0488 88.1927C91.7226 87.9418 91.3237 87.8038 90.9122 87.7994C90.7062 87.8012 90.5062 87.8687 90.3411 87.9919C90.1761 88.1151 90.0546 88.2878 89.9944 88.4848C89.9795 88.695 90.0349 88.9042 90.1518 89.0796C90.2687 89.2549 90.4405 89.3865 90.6403 89.4536C91.0762 89.5839 91.5428 89.5682 91.969 89.4088C92.8994 89.1198 93.6965 88.509 94.2174 87.6857C94.7511 86.8191 94.9377 85.7828 94.7398 84.7845C94.6479 84.2689 94.4506 83.7779 94.1602 83.3421C94.0331 83.1172 93.8506 82.9285 93.6301 82.7939C93.4096 82.6593 93.1583 82.5833 92.9002 82.573C92.7738 82.5753 92.6494 82.6049 92.5355 82.6597C92.4217 82.7146 92.321 82.7934 92.2405 82.8908C92.1595 82.9917 92.1014 83.109 92.0701 83.2345C92.0389 83.3601 92.0353 83.4909 92.0595 83.618C92.1019 83.8846 92.1991 84.1395 92.3449 84.3666C92.4907 84.5938 92.6819 84.7883 92.9066 84.9379C93.3694 85.2521 93.9007 85.4508 94.4562 85.5173C95.0116 85.5838 95.5748 85.5163 96.0987 85.3203C96.6229 85.114 97.0975 84.7992 97.4914 84.3965C97.8853 83.9939 98.1897 83.5125 98.3845 82.984C98.6035 82.4882 98.6621 81.9364 98.5522 81.4056C98.477 81.1564 98.3168 80.9414 98.0995 80.7981C97.9972 80.7282 97.879 80.6851 97.7557 80.6729C97.6323 80.6608 97.5079 80.6798 97.3939 80.7284C97.1654 80.8403 96.9868 81.0335 96.8934 81.2703C96.7988 81.5065 96.7849 81.7675 96.8541 82.0124C97.0004 82.5125 97.2853 82.9611 97.6757 83.3062C98.0317 83.6481 98.4524 83.9155 98.9132 84.0926C99.3739 84.2698 99.8653 84.3531 100.359 84.3378C100.852 84.3225 101.337 84.2088 101.786 84.0035C102.235 83.7981 102.638 83.5052 102.973 83.1419C103.269 82.7968 103.43 82.3554 103.424 81.9004C103.414 81.6895 103.324 81.4903 103.173 81.3434C103.021 81.1965 102.819 81.1129 102.608 81.1095C102.398 81.1093 102.191 81.1595 102.005 81.256C101.819 81.3524 101.658 81.4922 101.537 81.6637C101.316 82.0085 101.183 82.4023 101.149 82.8107C101.086 83.6006 101.091 84.3945 101.166 85.1835C101.295 86.5437 101.557 87.888 101.947 89.1974C102.283 90.3602 102.635 91.3428 102.93 92.1414C103.225 92.9401 103.472 93.5446 103.633 93.9725C103.726 94.1647 103.769 94.3355 103.817 94.4471C103.864 94.5587 103.881 94.6208 103.881 94.6208Z" fill="#263238"/>
<path d="M108.086 94.9321L98.878 100.129C98.6936 100.232 98.4761 100.258 98.2726 100.202C98.0692 100.145 97.8963 100.011 97.7916 99.8272C97.689 99.6433 97.6635 99.4263 97.7206 99.2236C97.7777 99.0209 97.9128 98.8492 98.0964 98.746L107.312 93.5513C107.403 93.4999 107.503 93.4669 107.606 93.4542C107.709 93.4414 107.814 93.4492 107.914 93.477C108.014 93.5049 108.108 93.5522 108.19 93.6164C108.272 93.6805 108.34 93.7602 108.391 93.8509C108.494 94.0348 108.519 94.2518 108.462 94.4545C108.405 94.6571 108.27 94.8289 108.086 94.9321Z" fill="#263238"/>
<path d="M108.428 95.5357L99.2142 100.736C99.0315 100.839 98.8972 101.011 98.841 101.213C98.7849 101.415 98.8113 101.631 98.9147 101.814C99.018 101.997 99.1897 102.131 99.392 102.187C99.5943 102.244 99.8106 102.217 99.9934 102.114L101 101.546L103.787 103.346C103.944 103.445 104.125 103.5 104.311 103.506C104.497 103.511 104.681 103.465 104.844 103.374L108.136 101.519C108.298 101.425 108.431 101.29 108.523 101.126C108.614 100.963 108.66 100.778 108.655 100.591L108.52 97.3087L109.209 96.9191C109.381 96.8095 109.504 96.6384 109.553 96.4409C109.602 96.2434 109.574 96.0346 109.474 95.8574C109.373 95.6802 109.209 95.5481 109.015 95.4883C108.82 95.4284 108.61 95.4454 108.428 95.5357Z" fill="#263238"/>
<g opacity="0.2">
<path opacity="0.2" d="M82.027 78.0593C82.3685 76.9766 82.8882 75.9585 83.5645 75.0466C84.0009 74.4372 84.5251 73.8957 85.12 73.4397C85.5604 73.1316 85.8482 73.025 85.9269 73.1086C86.1046 73.3047 85.3622 74.1551 84.5998 75.6679C83.5497 77.6233 83.0844 79.8395 83.2594 82.052C83.4344 84.2646 84.2423 86.3801 85.5867 88.1461C86.6001 89.5459 87.4663 90.2678 87.3573 90.4931C87.2913 90.5953 86.993 90.5342 86.5143 90.2976C85.8434 89.9455 85.2315 89.491 84.7006 88.9505C83.9007 88.1506 83.2382 87.2242 82.7398 86.2087C82.1046 84.9521 81.7176 83.5848 81.6 82.1817" fill="white"/>
</g>
<g opacity="0.2">
<path opacity="0.2" d="M89.1796 71.9751C88.3996 72.4021 87.595 72.5785 87.2832 72.2102C87.1364 72.025 87.1588 71.7262 87.3416 71.4013C87.5937 71.013 87.9367 70.692 88.3408 70.466C88.745 70.2401 89.1981 70.1161 89.661 70.1048C90.0399 70.1207 90.3008 70.2638 90.3826 70.4868" fill="white"/>
</g>
<path d="M108.592 100.91C108.346 100.979 108.097 101.033 107.844 101.072C107.256 101.216 106.692 101.447 106.171 101.756C105.663 102.072 105.203 102.46 104.805 102.907C104.501 103.258 104.337 103.503 104.317 103.488C104.408 103.247 104.541 103.024 104.711 102.831C105.097 102.341 105.569 101.925 106.103 101.603C106.637 101.279 107.226 101.056 107.841 100.945C108.087 100.891 108.341 100.879 108.592 100.91Z" fill="#455A64"/>
<path d="M108.559 97.3275C108.579 97.369 106.935 98.3402 104.878 99.5039C102.821 100.668 101.142 101.566 101.114 101.522C101.087 101.478 102.738 100.509 104.793 99.3531C106.847 98.1971 108.534 97.2884 108.559 97.3275Z" fill="#455A64"/>
<path d="M108.598 98.7494C108.329 98.9721 108.042 99.1723 107.741 99.3479C107.202 99.7036 106.442 100.172 105.589 100.673C104.735 101.173 103.953 101.595 103.379 101.891C103.079 102.07 102.765 102.222 102.438 102.344C102.716 102.133 103.012 101.947 103.323 101.789L105.506 100.527L107.68 99.249C107.971 99.0568 108.278 98.8896 108.598 98.7494Z" fill="#455A64"/>
<path d="M70.7653 195.368L74.4371 197.676C74.4371 197.676 79.3618 185.314 89.1871 183.403C89.1665 183.4 78.1043 180.524 70.7653 195.368Z" fill="#FFA401"/>
<path d="M89.1645 183.401C89.1645 183.401 92.2486 173.262 102.505 170.293L105.29 169.432L103.751 168.336C103.751 168.336 84.5146 170.639 89.1645 183.401Z" fill="#FFA401"/>
<path d="M64.1096 166.294C64.1096 166.294 50.0809 170.307 43.8074 178.993L69.5445 197.878C69.5445 197.878 75.461 181.914 89.1847 183.38L64.1096 166.294Z" fill="#F5F5F5"/>
<path d="M64.1087 166.294C64.1512 166.314 64.1922 166.337 64.2315 166.363L64.5788 166.592L65.9349 167.494L71.0571 170.953L89.2467 183.311C89.2695 183.327 89.2866 183.35 89.2952 183.376C89.3038 183.403 89.3035 183.431 89.2943 183.457C89.2851 183.484 89.2676 183.506 89.2444 183.521C89.2212 183.537 89.1936 183.544 89.1659 183.542C87.1895 183.334 85.1915 183.5 83.2763 184.03C82.2787 184.326 81.3098 184.712 80.3814 185.182C79.4377 185.689 78.5372 186.272 77.6891 186.927C74.1702 189.83 71.4342 193.568 69.7304 197.8L69.6661 197.959C69.6605 197.977 69.6512 197.994 69.6388 198.008C69.6264 198.023 69.6112 198.034 69.5942 198.042C69.5772 198.051 69.5586 198.055 69.5397 198.056C69.5208 198.057 69.502 198.054 69.4843 198.047L69.4718 198.021L43.7328 179.092C43.72 179.083 43.709 179.073 43.7007 179.06C43.6923 179.047 43.6867 179.032 43.6843 179.017C43.6818 179.002 43.6826 178.987 43.6865 178.972C43.6903 178.957 43.6973 178.943 43.7068 178.931C45.7634 176.277 48.2656 174 51.1016 172.201C53.2588 170.815 55.5221 169.6 57.8705 168.57C59.8146 167.716 61.378 167.149 62.4458 166.788C62.9953 166.6 63.3968 166.477 63.6791 166.399L64.0002 166.308L64.0937 166.263L63.995 166.311L63.6814 166.417C63.4067 166.511 62.9972 166.644 62.4631 166.837C61.3742 167.234 59.8467 167.81 57.9178 168.681C55.5873 169.725 53.342 170.95 51.2026 172.345C48.399 174.147 45.9278 176.42 43.8983 179.063L43.8723 178.903L69.6094 197.788L69.3892 197.849L69.4535 197.691C70.3505 195.524 71.4954 193.47 72.8653 191.567C74.1729 189.729 75.7339 188.085 77.5019 186.684C78.3622 186.017 79.2786 185.426 80.2409 184.917C81.1834 184.435 82.1692 184.044 83.1851 183.748C85.1334 183.215 87.164 183.051 89.1726 183.264L89.0866 183.497L71.0061 171.087L65.9055 167.566L64.5629 166.626C64.4149 166.518 64.3 166.439 64.2184 166.376C64.18 166.351 64.1433 166.324 64.1087 166.294Z" fill="#263238"/>
<path d="M81.9593 151.275C81.9593 151.275 69.1595 149.761 64.265 166.199L89.3243 183.305C89.3243 183.305 87.4793 172.353 105.389 167.841L81.9593 151.275Z" fill="#F5F5F5"/>
<path d="M81.9607 151.275C82.0018 151.292 82.0405 151.314 82.0758 151.341C82.1549 151.399 82.2647 151.468 82.4 151.563L83.6714 152.435L88.4807 155.776L105.477 167.768C105.49 167.777 105.501 167.789 105.51 167.802C105.519 167.816 105.525 167.831 105.528 167.847C105.531 167.863 105.531 167.879 105.527 167.895C105.524 167.911 105.517 167.925 105.508 167.939C105.487 167.96 105.459 167.974 105.43 167.976L102.811 168.745C102.363 168.874 101.922 169.028 101.492 169.208L100.164 169.719C99.7126 169.892 99.2722 170.091 98.8449 170.316L97.5331 170.954C97.0864 171.17 96.6874 171.471 96.2607 171.727C95.8277 171.981 95.4125 172.265 95.0181 172.576L93.8282 173.52L92.7366 174.615C92.3886 174.998 92.0599 175.397 91.7519 175.813C91.5847 176.014 91.4357 176.229 91.3066 176.456L90.8944 177.128C90.6272 177.583 90.4291 178.076 90.203 178.549C90.0121 179.043 89.8514 179.548 89.7216 180.061C89.4485 181.102 89.3627 182.184 89.4682 183.255C89.4721 183.293 89.4607 183.331 89.4366 183.361C89.4125 183.391 89.3776 183.409 89.3396 183.413C89.3059 183.417 89.2721 183.408 89.2445 183.389L88.236 182.703C79.369 176.639 71.0786 171 64.1983 166.27C64.1765 166.256 64.1589 166.237 64.1478 166.214C64.1367 166.191 64.1325 166.165 64.1357 166.14C65.073 162.812 66.677 159.71 68.8502 157.021C70.5542 154.972 72.7324 153.369 75.196 152.351C76.7712 151.705 78.44 151.316 80.1386 151.199C80.5851 151.173 81.0328 151.171 81.4796 151.193L81.8248 151.219L81.938 151.241L81.822 151.24L81.4791 151.232C81.1774 151.23 80.7287 151.229 80.1503 151.277C77.9938 151.461 75.8961 152.076 73.9814 153.085C72.0667 154.094 70.3738 155.477 69.003 157.152C66.8634 159.829 65.2872 162.911 64.3693 166.213L64.3093 166.088L88.3856 182.522L89.4099 183.187L89.186 183.334C89.073 182.221 89.1577 181.097 89.4361 180.013C89.572 179.485 89.7355 178.964 89.9259 178.452C90.1626 177.961 90.3609 177.456 90.6385 176.996L91.0561 176.308C91.1896 176.076 91.3429 175.857 91.5145 175.652C91.8532 175.239 92.146 174.797 92.5177 174.426L93.63 173.321L94.8433 172.359C95.2428 172.042 95.6651 171.755 96.1067 171.501C96.5386 171.241 96.9453 170.943 97.3895 170.723L98.7246 170.08C99.1527 169.848 99.597 169.647 100.054 169.478L101.395 168.966C101.828 168.783 102.272 168.626 102.724 168.498L105.364 167.733L105.324 167.957C98.3467 162.998 92.5102 158.84 88.3988 155.911C86.3598 154.455 84.747 153.299 83.6395 152.502L82.384 151.596C82.2515 151.493 82.1443 151.417 82.0652 151.359C81.9861 151.301 81.9607 151.275 81.9607 151.275Z" fill="#263238"/>
<path d="M41.5605 165.034L69.7228 186.124C69.7228 186.124 81.3422 179.887 89.1581 183.251L64.2731 166.215C64.2731 166.215 51.5965 160.2 41.5605 165.034Z" fill="#F5F5F5"/>
<path d="M41.5601 165.033L41.9341 164.853L43.0787 164.359C43.2034 164.299 43.3384 164.234 43.4735 164.169L43.9397 164.034L44.9938 163.725C45.4024 163.605 45.8191 163.516 46.2408 163.457C46.713 163.354 47.1901 163.276 47.6703 163.223C51.7216 162.705 57.7634 163.263 64.3081 166.088L89.2063 183.099C89.2377 183.12 89.2592 183.153 89.2664 183.191C89.2736 183.228 89.2658 183.266 89.2446 183.298C89.2311 183.326 89.2082 183.349 89.1799 183.363C89.1516 183.377 89.1195 183.38 89.0888 183.373L88.2422 183.077C86.6534 182.557 84.9832 182.332 83.3135 182.411C81.6815 182.458 80.0588 182.673 78.4712 183.054C75.4521 183.763 72.5289 184.831 69.7645 186.237C69.7425 186.248 69.7181 186.253 69.6936 186.251C69.6692 186.249 69.6456 186.241 69.6254 186.227C61.3872 180.02 54.3504 174.712 49.3615 170.958C46.9158 169.096 44.9572 167.608 43.5899 166.59C42.9345 166.093 42.4219 165.706 42.0549 165.409L41.6698 165.115L41.5449 165.015C41.597 165.044 41.6458 165.078 41.6904 165.118L42.1012 165.412L43.6727 166.575L49.5243 170.937L69.7831 186.023L69.644 186.013C72.4232 184.591 75.3641 183.509 78.4029 182.793C80.0077 182.408 81.6475 182.189 83.2969 182.137C85.001 182.06 86.7051 182.293 88.3258 182.825L89.1983 183.122L89.0578 183.375C79.8183 177.042 71.2606 171.168 64.2016 166.318C61.2678 165.031 58.1824 164.122 55.0195 163.612C52.5974 163.206 50.1316 163.128 47.6886 163.38C47.2087 163.43 46.7317 163.504 46.2593 163.601C45.8397 163.655 45.4247 163.739 45.0177 163.854L43.9612 164.145L43.5029 164.27L43.1035 164.424L41.5601 165.033Z" fill="#263238"/>
<path d="M125.6 222.841L126.162 223.211C126.796 223.626 127.535 223.851 128.293 223.861L128.943 223.881L128.573 224.443C128.161 225.078 127.936 225.816 127.923 226.574L127.916 227.249L127.354 226.88C126.72 226.464 125.981 226.239 125.223 226.229L124.547 226.222L124.917 225.66C125.334 225.027 125.56 224.287 125.567 223.529L125.6 222.841Z" fill="#FFA401"/>
<path d="M45.1876 129.565L45.7495 129.934C46.3829 130.348 47.1214 130.572 47.8778 130.579L48.5274 130.599L48.1606 131.166C47.7417 131.798 47.5158 132.539 47.5103 133.297L47.4904 133.947L46.9285 133.577C46.2934 133.161 45.5519 132.936 44.7924 132.93L44.1169 132.922L44.4862 132.36C44.8987 131.723 45.1232 130.983 45.134 130.224L45.1876 129.565Z" fill="#FFA401"/>
<path d="M187.375 83.8486L187.937 84.2179C188.572 84.6344 189.314 84.8593 190.073 84.8657L190.749 84.8731L190.379 85.435C189.966 86.0705 189.743 86.8107 189.737 87.5686L189.717 88.2181L189.15 87.8513C188.517 87.436 187.778 87.212 187.021 87.2062L186.346 87.2117L186.712 86.6446C187.131 86.0124 187.357 85.2721 187.363 84.5137L187.375 83.8486Z" fill="#FFA401"/>
<path d="M217.587 186.819L218.149 187.188C218.784 187.601 219.524 187.824 220.282 187.831L220.958 187.838L220.591 188.405C220.176 189.039 219.95 189.778 219.941 190.536L219.938 191.209L219.371 190.842C218.738 190.425 217.999 190.199 217.24 190.192L216.565 190.184L216.934 189.623C217.351 188.988 217.576 188.246 217.582 187.487L217.587 186.819Z" fill="#FFA401"/>
<path d="M230.241 205.421L230.422 205.411C230.618 205.395 230.806 205.327 230.966 205.212L231.112 205.104L231.123 205.284C231.138 205.48 231.206 205.669 231.321 205.829L231.43 205.975L231.249 205.985C231.053 206 230.865 206.069 230.705 206.183L230.559 206.292L230.548 206.111C230.533 205.915 230.465 205.727 230.35 205.567L230.241 205.421Z" fill="#FFA401"/>
<path d="M174.011 65.5128L174.186 65.505C174.382 65.489 174.57 65.4205 174.731 65.3067L174.872 65.2005L174.887 65.3787C174.899 65.5754 174.968 65.7645 175.085 65.9231L175.194 66.0692L175.013 66.0794C174.817 66.0954 174.629 66.1639 174.469 66.2777L174.328 66.3839L174.313 66.2057C174.3 66.009 174.231 65.8199 174.114 65.6613L174.011 65.5128Z" fill="#FFA401"/>
<path d="M44.3038 112.756L44.482 112.74C44.6788 112.728 44.8678 112.659 45.0265 112.542L45.1875 112.465L45.1952 112.64C45.2113 112.836 45.2797 113.024 45.3935 113.185L45.4997 113.325L45.3216 113.341C45.1248 113.353 44.9358 113.422 44.7771 113.539L44.6161 113.617L44.6083 113.441C44.5923 113.245 44.5238 113.057 44.4101 112.897L44.3038 112.756Z" fill="#FFA401"/>
<path d="M110.398 210.94L110.576 210.924C110.773 210.914 110.963 210.845 111.12 210.726L111.269 210.622L111.279 210.803C111.294 210.999 111.363 211.187 111.477 211.347L111.583 211.488L111.405 211.504C111.209 211.516 111.02 211.585 110.861 211.702L110.715 211.811L110.705 211.63C110.689 211.434 110.62 211.246 110.506 211.086L110.398 210.94Z" fill="#FFA401"/>
<path d="M146.623 243.748L146.55 243.969L146.326 244.608L145.447 247.073L142.108 256.086L142.078 256.024C145.546 262.385 150.215 271.016 155.406 280.675L155.511 280.894L155.266 280.864L152.292 280.441L133.441 277.765L133.41 277.78L133.395 277.749C128.205 272.422 123.83 267.924 120.736 264.756C119.207 263.176 118.003 261.925 117.164 261.062L116.227 260.073C116.126 259.968 116.047 259.885 115.991 259.822C115.956 259.749 115.91 259.733 115.915 259.731L116.002 259.804L116.254 260.048C116.48 260.278 116.8 260.597 117.217 261.011L120.833 264.664C123.94 267.82 128.343 272.285 133.549 277.591L133.483 277.559L152.341 280.212L155.314 280.63L155.185 280.814C150.01 271.147 145.377 262.499 141.951 256.104L141.933 256.068L141.959 256.055L145.367 247.08L146.302 244.651L146.551 244.026C146.585 243.817 146.623 243.748 146.623 243.748Z" fill="#FFA401"/>
<path d="M154.637 277.365L155.299 278.858L156.909 279.157L155.693 280.248L155.904 281.868L154.487 281.053L153.015 281.756L153.358 280.157L152.231 278.972L153.858 278.803L154.637 277.365Z" fill="#FFA401"/>
<path d="M132.657 275.66L133.146 276.596L134.196 276.73L133.45 277.479L133.651 278.522L132.706 278.049L131.781 278.559L131.936 277.511L131.165 276.788L132.209 276.618L132.657 275.66Z" fill="#FFA401"/>
<path d="M115.019 257.961L116.181 258.54L117.315 257.905L117.129 259.191L118.077 260.072L116.8 260.29L116.254 261.468L115.65 260.32L114.365 260.164L115.269 259.236L115.019 257.961Z" fill="#FFA401"/>
<path d="M145.062 242.356L146.227 242.928L147.358 242.3L147.169 243.581L148.12 244.467L146.841 244.68L146.295 245.858L145.695 244.707L144.406 244.554L145.314 243.623L145.062 242.356Z" fill="#FFA401"/>
<path d="M141.351 255.113L142.093 255.485L142.813 255.081L142.695 255.899L143.301 256.465L142.484 256.602L142.135 257.353L141.751 256.623L140.927 256.52L141.506 255.928L141.351 255.113Z" fill="#FFA401"/>
<path d="M94.9289 229.072C100.649 226.316 103.053 219.445 100.297 213.724C97.5417 208.003 90.6704 205.6 84.9498 208.356C79.2292 211.111 76.8257 217.983 79.5813 223.703C82.337 229.424 89.2083 231.827 94.9289 229.072Z" fill="#FFA401"/>
<g opacity="0.3">
<path opacity="0.3" d="M90.1513 222.593C90.3139 222.928 90.3733 223.303 90.3222 223.672C90.271 224.041 90.1116 224.386 89.864 224.664C89.6164 224.942 89.2918 225.14 88.9314 225.233C88.5711 225.327 88.1911 225.311 87.8397 225.188C87.4884 225.065 87.1814 224.841 86.9577 224.543C86.7341 224.245 86.6038 223.888 86.5835 223.516C86.5631 223.145 86.6536 222.775 86.8435 222.455C87.0333 222.135 87.3139 221.878 87.6498 221.718C88.0978 221.504 88.6123 221.476 89.081 221.64C89.5497 221.803 89.9344 222.146 90.1513 222.593Z" fill="white"/>
</g>
<g opacity="0.3">
<path opacity="0.3" d="M85.4137 218.872C85.5088 219.067 85.544 219.285 85.5147 219.5C85.4854 219.715 85.3929 219.917 85.249 220.079C85.1051 220.241 84.9163 220.357 84.7064 220.412C84.4966 220.467 84.2752 220.458 84.0702 220.387C83.8653 220.316 83.6861 220.186 83.5553 220.013C83.4245 219.84 83.348 219.632 83.3355 219.415C83.323 219.199 83.3751 218.983 83.4852 218.796C83.5953 218.61 83.7583 218.459 83.9538 218.365C84.2146 218.24 84.5146 218.222 84.7882 218.317C85.0618 218.412 85.2866 218.611 85.4137 218.872Z" fill="white"/>
</g>
<path d="M81.0992 226.075C81.2336 226.234 76.4384 239.079 79.6179 239.793C82.7974 240.508 90.1917 231.186 95.2405 220.556C100.289 209.925 103.907 198.224 100.814 197.078C97.7207 195.931 90.4753 207.223 90.4753 207.223L92.0868 207.419C92.0868 207.419 96.3961 200.422 99.1053 201.024C101.815 201.626 99.1324 210.38 93.9878 219.988C88.8432 229.596 83.1434 237.334 81.201 236.317C79.2586 235.301 82.3084 227.323 82.3084 227.323L81.0992 226.075Z" fill="#FFA401"/>
<g opacity="0.3">
<path opacity="0.3" d="M81.0992 226.075C81.2336 226.234 76.4384 239.079 79.6179 239.793C82.7974 240.508 90.1917 231.186 95.2405 220.556C100.289 209.925 103.907 198.224 100.814 197.078C97.7207 195.931 90.4753 207.223 90.4753 207.223L92.0868 207.419C92.0868 207.419 96.3961 200.422 99.1053 201.024C101.815 201.626 99.1324 210.38 93.9878 219.988C88.8432 229.596 83.1434 237.334 81.201 236.317C79.2586 235.301 82.3084 227.323 82.3084 227.323L81.0992 226.075Z" fill="black"/>
</g>
<g opacity="0.3">
<path opacity="0.3" d="M80.717 214.165C80.8477 214.224 80.4342 215.159 80.215 216.736C79.9001 218.779 80.1906 220.87 81.0506 222.75C81.9106 224.63 83.3025 226.216 85.0543 227.314C86.3953 228.185 87.3709 228.483 87.3276 228.619C87.2844 228.755 86.2494 228.639 84.7342 227.859C83.8546 227.398 83.0488 226.809 82.3436 226.111C80.5751 224.378 79.5115 222.052 79.3581 219.581C79.2884 218.589 79.3692 217.592 79.5977 216.624C79.9985 214.972 80.6353 214.115 80.717 214.165Z" fill="white"/>
</g>
<path d="M166.243 69.9785C168.071 65.0693 165.573 59.6081 160.663 57.7805C155.754 55.9529 150.293 58.451 148.465 63.3602C146.638 68.2693 149.136 73.7306 154.045 75.5582C158.954 77.3858 164.416 74.8877 166.243 69.9785Z" fill="#FFA401"/>
<g opacity="0.4">
<path opacity="0.4" d="M158.568 62.0646C158.442 61.7864 158.401 61.4769 158.45 61.1754C158.5 60.8738 158.637 60.5937 158.846 60.3705C159.055 60.1472 159.325 59.9909 159.623 59.9212C159.92 59.8515 160.232 59.8715 160.518 59.9789C160.804 60.0862 161.052 60.276 161.23 60.5241C161.408 60.7723 161.509 61.0678 161.519 61.3732C161.53 61.6786 161.449 61.9803 161.288 62.24C161.127 62.4997 160.893 62.7058 160.615 62.8323C160.43 62.9171 160.23 62.9646 160.027 62.9718C159.824 62.9791 159.622 62.9461 159.431 62.8747C159.241 62.8034 159.067 62.695 158.919 62.556C158.771 62.417 158.651 62.25 158.568 62.0646Z" fill="black"/>
</g>
<g opacity="0.4">
<path opacity="0.4" d="M162.921 63.9746C162.846 63.8116 162.821 63.6301 162.85 63.4531C162.879 63.2762 162.959 63.1117 163.081 62.9805C163.204 62.8494 163.362 62.7575 163.536 62.7164C163.711 62.6754 163.894 62.6871 164.062 62.7501C164.229 62.813 164.375 62.9244 164.479 63.0701C164.584 63.2157 164.643 63.3892 164.648 63.5683C164.654 63.7475 164.607 63.9244 164.512 64.0765C164.417 64.2286 164.279 64.3492 164.116 64.4229C164.008 64.4723 163.891 64.5 163.773 64.5042C163.654 64.5084 163.536 64.4891 163.425 64.4475C163.314 64.4058 163.212 64.3426 163.126 64.2614C163.039 64.1802 162.969 64.0828 162.921 63.9746Z" fill="black"/>
</g>
<g opacity="0.4">
<path opacity="0.4" d="M163.035 66.991C163.074 66.9722 163.117 66.9614 163.16 66.9593C163.203 66.9572 163.247 66.9639 163.287 66.979C163.328 66.994 163.365 67.0171 163.397 67.0469C163.428 67.0766 163.454 67.1124 163.471 67.1522C163.507 67.2329 163.51 67.3244 163.479 67.4072C163.448 67.49 163.387 67.5576 163.307 67.5959C163.227 67.6312 163.136 67.6336 163.054 67.6025C162.972 67.5714 162.905 67.5093 162.869 67.4295C162.85 67.3899 162.84 67.347 162.839 67.3034C162.837 67.2597 162.844 67.2162 162.86 67.1754C162.875 67.1346 162.899 67.0972 162.929 67.0656C162.959 67.0339 162.995 67.0086 163.035 66.991Z" fill="black"/>
</g>
</svg>
