<svg width="20" height="21" viewBox="0 0 20 21" fill="none" xmlns="http://www.w3.org/2000/svg">
<g opacity="0.9">
<path d="M14.7558 10.9505C14.43 10.6247 13.9033 10.6247 13.5775 10.9505L12.2492 12.2788C11.6333 12.0955 10.4842 11.6788 9.75583 10.9505C9.0275 10.2222 8.61083 9.07301 8.4275 8.45718L9.75583 7.12884C10.0817 6.80301 10.0817 6.27634 9.75583 5.95051L6.4225 2.61718C6.09666 2.29134 5.57 2.29134 5.24417 2.61718L2.98417 4.87718C2.6675 5.19384 2.48917 5.62884 2.49583 6.07301C2.515 7.25968 2.82917 11.3813 6.0775 14.6297C9.32583 17.878 13.4475 18.1913 14.635 18.2113C14.6392 18.2113 14.6542 18.2113 14.6583 18.2113C15.0983 18.2113 15.5142 18.038 15.8292 17.723L18.0892 15.463C18.415 15.1372 18.415 14.6105 18.0892 14.2847L14.7558 10.9505ZM14.65 16.5438C13.61 16.5263 10.0517 16.2472 7.25583 13.4505C4.45083 10.6455 4.17916 7.07468 4.1625 6.05551L5.83333 4.38468L7.98833 6.53968L6.91083 7.61718C6.71167 7.81551 6.62667 8.10218 6.68417 8.37718C6.70416 8.47301 7.19333 10.7455 8.57666 12.1288C9.96 13.5122 12.2325 14.0013 12.3283 14.0213C12.6058 14.0805 12.89 13.9947 13.0883 13.7955L14.1667 12.718L16.3217 14.873L14.65 16.5438Z" fill="black"/>
</g>
</svg>
