<svg width="393" height="296" viewBox="0 0 393 296" fill="none" xmlns="http://www.w3.org/2000/svg">
<g opacity="0.2" filter="url(#filter0_f)">
<path d="M4.18982 256.973H389V257.165H4.18982V256.973Z" fill="#E6E6E6"/>
<path d="M301.369 263.145H327.844V263.337H301.369V263.145Z" fill="#E6E6E6"/>
<path d="M288.387 263.145H296.299V263.337H288.387V263.145Z" fill="#E6E6E6"/>
<path d="M249.352 259.366H264.252V259.559H249.352V259.366Z" fill="#E6E6E6"/>
<path d="M57.5941 267.417H90.834V267.609H57.5941V267.417Z" fill="#E6E6E6"/>
<path d="M45.8646 267.417H50.7363V267.609H45.8646V267.417Z" fill="#E6E6E6"/>
<path d="M82.4215 260.659H154.52V260.852H82.4215V260.659Z" fill="#E6E6E6"/>
<path d="M206.601 222.647H355.207C356.371 222.645 357.487 222.181 358.309 221.358C359.132 220.534 359.594 219.417 359.594 218.253V9.35483C359.584 8.19734 359.117 7.09059 358.296 6.27498C357.474 5.45936 356.364 5.00076 355.207 4.99878H206.601C205.435 4.99878 204.318 5.46177 203.493 6.28591C202.669 7.11004 202.206 8.22781 202.206 9.39331V218.253C202.206 219.418 202.669 220.536 203.493 221.36C204.318 222.184 205.435 222.647 206.601 222.647ZM355.207 5.1527C356.32 5.15474 357.387 5.59836 358.173 6.38619C358.96 7.17403 359.401 8.24169 359.401 9.35483V218.253C359.401 219.366 358.96 220.434 358.173 221.222C357.387 222.009 356.32 222.453 355.207 222.455H206.601C205.487 222.453 204.419 222.01 203.632 221.222C202.844 220.434 202.401 219.367 202.399 218.253V9.35483C202.401 8.24098 202.844 7.17334 203.632 6.38572C204.419 5.59811 205.487 5.15474 206.601 5.1527H355.207Z" fill="#E6E6E6"/>
<path d="M40.1226 222.647H188.736C189.901 222.645 191.018 222.182 191.841 221.358C192.665 220.534 193.129 219.418 193.131 218.253V9.35483C193.119 8.19664 192.651 7.0899 191.828 6.2745C191.005 5.4591 189.895 5.00074 188.736 4.99878H40.1226C38.9664 5.00278 37.8584 5.46228 37.0387 6.27768C36.219 7.09308 35.7536 8.19867 35.7435 9.35483V218.253C35.7435 219.416 36.2044 220.531 37.0252 221.355C37.846 222.179 38.9598 222.643 40.1226 222.647ZM188.736 5.1527C189.85 5.15474 190.918 5.59811 191.705 6.38572C192.493 7.17334 192.936 8.24098 192.938 9.35483V218.253C192.936 219.367 192.493 220.434 191.705 221.222C190.918 222.01 189.85 222.453 188.736 222.455H40.1226C39.0088 222.453 37.9411 222.01 37.1535 221.222C36.3659 220.434 35.9225 219.367 35.9205 218.253V9.35483C35.9225 8.24098 36.3659 7.17334 37.1535 6.38572C37.9411 5.59811 39.0088 5.15474 40.1226 5.1527H188.736Z" fill="#E6E6E6"/>
<path d="M66.5141 152.081H120.441V256.973H66.5141V152.081Z" fill="#F5F5F5"/>
<path d="M66.5145 152.081H70.9629V256.973H66.5145V152.081Z" fill="#F0F0F0"/>
<path d="M240.448 177.732L116.285 177.732V155.075H240.448V177.732Z" fill="#E0E0E0"/>
<path d="M188.675 257.049H241.91C242.114 257.049 242.31 256.968 242.454 256.824C242.599 256.68 242.68 256.484 242.68 256.28C242.68 256.076 242.599 255.88 242.454 255.736C242.31 255.591 242.114 255.51 241.91 255.51H188.675C180.979 255.51 179.956 253.263 179.956 244.351V131.986C179.956 131.782 179.875 131.586 179.73 131.442C179.586 131.298 179.39 131.217 179.186 131.217C178.982 131.217 178.786 131.298 178.642 131.442C178.497 131.586 178.416 131.782 178.416 131.986V244.351C178.416 253.879 179.894 257.049 188.675 257.049Z" fill="#E0E0E0"/>
<path d="M235.675 160.354L67.7285 160.354V152.489L235.675 152.489V160.354Z" fill="#F0F0F0"/>
<path d="M234.461 152.081H288.389V256.973H234.461V152.081Z" fill="#F5F5F5"/>
<path d="M234.47 152.081H238.918V256.973H234.47V152.081Z" fill="#F0F0F0"/>
<path d="M272.646 256.972V70.1855H318.924V256.972H272.646Z" fill="#FAFAFA"/>
<path d="M275.189 116.84V75.6423H316.387V116.84H275.189Z" fill="#F5F5F5"/>
<path d="M304.912 75.0884H286.641C286.641 76.2212 287.091 77.3077 287.892 78.1087C288.693 78.9097 289.78 79.3598 290.913 79.3598H300.61C301.173 79.3638 301.732 79.2563 302.254 79.0435C302.776 78.8307 303.25 78.5167 303.65 78.1196C304.05 77.7226 304.367 77.2504 304.584 76.7301C304.801 76.2099 304.912 75.6519 304.912 75.0884Z" fill="#E0E0E0"/>
<path d="M275.195 161.732V120.534H316.393V161.732H275.195Z" fill="#F5F5F5"/>
<path d="M275.189 206.624V165.426H316.387V206.624H275.189Z" fill="#F5F5F5"/>
<path d="M275.189 251.524V210.326H316.387V251.524H275.189Z" fill="#F5F5F5"/>
<path d="M304.912 119.988H286.641C286.643 121.12 287.094 122.206 287.895 123.006C288.695 123.807 289.781 124.257 290.913 124.259H300.61C301.173 124.262 301.731 124.154 302.253 123.941C302.774 123.728 303.248 123.414 303.648 123.017C304.048 122.62 304.365 122.148 304.582 121.629C304.799 121.109 304.911 120.551 304.912 119.988Z" fill="#E0E0E0"/>
<path d="M304.912 164.88H286.641C286.641 166.013 287.091 167.099 287.892 167.9C288.693 168.701 289.78 169.151 290.913 169.151H300.61C301.173 169.155 301.732 169.048 302.254 168.835C302.776 168.622 303.25 168.308 303.65 167.911C304.05 167.514 304.367 167.042 304.584 166.522C304.801 166.001 304.912 165.443 304.912 164.88Z" fill="#E0E0E0"/>
<path d="M304.912 209.772H286.641C286.641 210.905 287.091 211.991 287.892 212.792C288.693 213.593 289.78 214.043 290.913 214.043H300.61C301.173 214.047 301.732 213.94 302.254 213.727C302.776 213.514 303.25 213.2 303.65 212.803C304.05 212.406 304.367 211.934 304.584 211.413C304.801 210.893 304.912 210.335 304.912 209.772Z" fill="#E0E0E0"/>
<path d="M318.926 256.972V70.1855H342.037V256.972H318.926Z" fill="#F0F0F0"/>
<path d="M185.519 152.081H197.148L194.324 129.439H182.687L185.519 152.081Z" fill="#F0F0F0"/>
<path d="M182.941 152.081H194.578L191.746 129.439H180.117L182.941 152.081Z" fill="#F5F5F5"/>
<path d="M157.991 152.081H166.403L168.012 149.518H159.607L157.991 152.081Z" fill="#F0F0F0"/>
<path d="M112.921 152.081H163.831L165.439 149.518H119.786L112.921 152.081Z" fill="#FAFAFA"/>
<path d="M222.407 145.586H218.728C217.005 145.586 215.353 146.27 214.135 147.488C212.917 148.706 212.233 150.359 212.233 152.081H228.918C228.918 151.227 228.749 150.381 228.422 149.592C228.095 148.803 227.615 148.086 227.01 147.483C226.405 146.879 225.687 146.401 224.897 146.076C224.108 145.75 223.261 145.584 222.407 145.586Z" fill="#F0F0F0"/>
<path d="M181.533 140.76H193.162L191.746 129.439H180.117L181.533 140.76Z" fill="#F0F0F0"/>
<path d="M224.301 138.051H141.952C141.79 138.051 141.63 138.017 141.482 137.95C141.334 137.883 141.202 137.786 141.095 137.664C140.988 137.543 140.908 137.4 140.861 137.245C140.814 137.09 140.8 136.926 140.821 136.766L147.162 86.0322C147.196 85.7561 147.33 85.5018 147.538 85.3175C147.747 85.1332 148.015 85.0316 148.294 85.0317H230.62C230.781 85.0316 230.941 85.0658 231.088 85.132C231.235 85.1982 231.367 85.2948 231.473 85.4156C231.58 85.5364 231.661 85.6786 231.708 85.8326C231.756 85.9867 231.771 86.1492 231.751 86.3093L225.41 137.05C225.376 137.323 225.246 137.574 225.042 137.758C224.839 137.941 224.576 138.045 224.301 138.051Z" fill="#F0F0F0"/>
<path d="M223.054 138.051H140.758C140.596 138.051 140.436 138.017 140.288 137.95C140.14 137.883 140.009 137.786 139.901 137.664C139.794 137.543 139.715 137.4 139.667 137.245C139.62 137.09 139.606 136.926 139.627 136.766L145.969 86.0322C146.004 85.7567 146.138 85.5035 146.346 85.3194C146.554 85.1354 146.822 85.0332 147.1 85.0317H229.395C229.557 85.0316 229.716 85.0658 229.863 85.132C230.01 85.1982 230.142 85.2948 230.249 85.4156C230.356 85.5364 230.436 85.6786 230.484 85.8326C230.532 85.9867 230.546 86.1492 230.527 86.3093L224.185 137.05C224.151 137.327 224.017 137.581 223.809 137.765C223.601 137.949 223.332 138.051 223.054 138.051Z" fill="#F5F5F5"/>
<path d="M142.282 135.242L148.216 87.7563C148.227 87.6788 148.266 87.608 148.325 87.557C148.385 87.5061 148.461 87.4784 148.539 87.4792H227.556C227.601 87.4776 227.646 87.4859 227.688 87.5037C227.73 87.5215 227.767 87.5482 227.797 87.582C227.827 87.6158 227.849 87.6559 227.862 87.6993C227.875 87.7427 227.878 87.7885 227.871 87.8332L221.938 135.327C221.928 135.403 221.891 135.474 221.833 135.525C221.775 135.576 221.7 135.604 221.622 135.604H142.598C142.552 135.603 142.508 135.593 142.467 135.574C142.426 135.554 142.389 135.527 142.359 135.493C142.33 135.459 142.307 135.419 142.294 135.376C142.281 135.332 142.277 135.287 142.282 135.242Z" fill="#E0E0E0"/>
<path d="M172.359 152.081H191.307V151.842C191.307 151.342 191.109 150.863 190.755 150.509C190.402 150.156 189.922 149.957 189.422 149.957H174.245C173.745 149.957 173.265 150.156 172.912 150.509C172.558 150.863 172.359 151.342 172.359 151.842V152.081Z" fill="#FAFAFA"/>
<path d="M189.1 152.081H201.952V151.842C201.952 151.342 201.754 150.863 201.4 150.509C201.046 150.156 200.567 149.957 200.067 149.957H190.985C190.485 149.957 190.005 150.156 189.652 150.509C189.298 150.863 189.1 151.342 189.1 151.842V152.081Z" fill="#F0F0F0"/>
<path d="M299.371 49.0903V49.0518C299.194 48.4592 299.025 47.8589 298.879 47.2586C298.618 47.6735 298.264 48.0214 297.844 48.2741C297.424 48.5268 296.951 48.6772 296.462 48.7132H296.255C294.969 48.59 293.738 47.3433 292.961 45.3807C292.946 45.3454 292.938 45.3075 292.938 45.2691C292.938 45.2308 292.946 45.1928 292.961 45.1575C292.998 45.0873 293.062 45.0347 293.138 45.0113C294.06 44.7775 295.022 44.7409 295.959 44.9041C296.897 45.0672 297.789 45.4263 298.579 45.9579C298.463 45.3884 298.363 44.8112 298.279 44.2417C298.076 44.2808 297.87 44.3014 297.663 44.3033C295.57 44.3033 294.03 42.4331 293.953 42.3407C293.926 42.3068 293.907 42.267 293.899 42.2245C293.89 42.182 293.891 42.138 293.902 42.096C293.913 42.0541 293.934 42.0154 293.963 41.983C293.992 41.9507 294.028 41.9256 294.069 41.9097C294.555 41.6683 295.087 41.5325 295.629 41.5113C296.172 41.4901 296.713 41.5839 297.217 41.7866C297.754 42.06 298.189 42.5001 298.456 43.0411C298.848 41.8368 299.565 40.7641 300.528 39.9411C301.49 39.1182 302.662 38.577 303.912 38.3772C303.951 38.368 303.991 38.3681 304.03 38.3775C304.069 38.3868 304.105 38.4052 304.135 38.431C304.168 38.4537 304.194 38.4836 304.213 38.5184C304.232 38.5531 304.242 38.5917 304.243 38.6311C304.351 40.5321 304.289 42.8641 302.866 43.9723C302.27 44.4115 301.542 44.6342 300.803 44.6034C300.141 44.5874 299.483 44.4839 298.848 44.2956C299.051 45.671 299.347 47.0312 299.733 48.3668C301.126 46.4691 303.102 45.0796 305.359 44.411C305.43 44.3944 305.505 44.4059 305.569 44.4432C305.632 44.4805 305.678 44.5406 305.698 44.6111C306.129 46.2504 305.906 47.5818 305.059 48.4592C304.628 48.846 304.124 49.142 303.577 49.3298C303.03 49.5176 302.45 49.5932 301.873 49.5521C301.252 49.5481 300.634 49.4837 300.026 49.3597C300.38 50.4833 300.795 51.5839 301.188 52.6305C302.042 51.8609 304.559 49.9523 307.299 50.7527C307.372 50.777 307.433 50.8296 307.468 50.8989C307.483 50.9342 307.491 50.9721 307.491 51.0105C307.491 51.0488 307.483 51.0868 307.468 51.1221C306.698 52.9384 305.875 53.9466 304.813 54.2929C304.53 54.3862 304.233 54.433 303.935 54.4315C303.122 54.3969 302.33 54.1644 301.626 53.7542C302.211 55.1472 302.835 56.4479 303.427 57.6023C304.131 56.885 305.015 56.3706 305.986 56.1132C306.957 55.8559 307.979 55.8651 308.946 56.14C309.011 56.1531 309.07 56.1903 309.11 56.2444C309.15 56.2986 309.168 56.3656 309.161 56.4325C309.093 57.0145 308.873 57.5684 308.523 58.0385C308.173 58.5086 307.706 58.8784 307.168 59.1107C306.762 59.2853 306.324 59.3744 305.882 59.3724C305.269 59.3647 304.667 59.2089 304.128 58.9183C304.728 60.0343 305.282 60.9655 305.713 61.6736H310.947C311.778 60.2498 312.74 58.4797 313.679 56.494C313.241 56.6246 312.788 56.6945 312.332 56.7018C311.771 56.7088 311.215 56.5864 310.709 56.3443C310.203 56.1021 309.759 55.7465 309.412 55.3052C309.065 54.8639 308.825 54.3486 308.709 53.7994C308.594 53.2501 308.606 52.6817 308.745 52.138C308.763 52.0748 308.804 52.0205 308.859 51.985C308.914 51.9496 308.981 51.9356 309.046 51.9456C310.114 52.0498 311.142 52.4099 312.042 52.9953C312.943 53.5807 313.689 54.3742 314.217 55.3088C314.833 53.9235 315.433 52.4535 315.957 50.9374C315.291 51.3164 314.544 51.5326 313.779 51.5685C313.475 51.5719 313.173 51.5224 312.886 51.4222C311.347 50.9143 310.462 49.0595 309.707 47.1355C309.69 47.1007 309.682 47.0625 309.682 47.0239C309.682 46.9852 309.69 46.947 309.707 46.9123C309.725 46.8769 309.75 46.8457 309.781 46.8205C309.811 46.7953 309.846 46.7768 309.884 46.766C312.963 45.9041 315.495 48.8671 316.28 49.9292C316.691 48.6477 317.032 47.3452 317.304 46.0272C316.657 46.1538 316 46.2208 315.341 46.2273C314.686 46.2752 314.029 46.1878 313.409 45.9707C312.789 45.7536 312.221 45.4113 311.739 44.9651C310.808 43.98 310.585 42.5023 311.085 40.7014C311.094 40.6661 311.11 40.633 311.132 40.604C311.154 40.575 311.182 40.5508 311.213 40.5328C311.245 40.5148 311.28 40.5035 311.316 40.4994C311.352 40.4953 311.389 40.4986 311.424 40.509C313.88 41.2754 316.018 42.8241 317.511 44.9189L317.627 44.2186C317.635 44.158 317.662 44.1015 317.704 44.057C317.831 43.6016 318.052 43.1779 318.353 42.8134C318.654 42.4488 319.028 42.1514 319.451 41.9405C320.006 41.7263 320.6 41.632 321.195 41.6639C321.789 41.6957 322.37 41.8529 322.899 42.1252C322.939 42.1428 322.976 42.1692 323.005 42.2024C323.034 42.2357 323.056 42.275 323.068 42.3176C323.078 42.3594 323.077 42.4029 323.066 42.4444C323.055 42.4859 323.035 42.5242 323.007 42.5562C322.93 42.6563 321.236 44.6573 318.958 44.6573C318.713 44.6541 318.468 44.6283 318.227 44.5803C318.127 45.2345 318.004 45.8887 317.865 46.5352C318.743 45.9574 319.733 45.5722 320.771 45.4051C321.808 45.2379 322.869 45.2926 323.884 45.5654C323.96 45.5888 324.024 45.6414 324.061 45.7117C324.076 45.7482 324.084 45.7875 324.084 45.8271C324.084 45.8667 324.076 45.906 324.061 45.9425C323.176 48.0821 321.806 49.4366 320.39 49.5521H320.197C319.482 49.5521 318.512 49.2211 317.527 47.9051C317.139 49.4015 316.671 50.8761 316.126 52.3227C317.458 51.6916 320.451 50.6064 322.591 52.2611C322.62 52.2824 322.645 52.3094 322.664 52.3405C322.683 52.3716 322.695 52.4061 322.7 52.4421C322.705 52.478 322.703 52.5146 322.693 52.5496C322.684 52.5846 322.667 52.6174 322.645 52.6459C321.259 54.5315 319.982 55.4474 318.727 55.4474C317.688 55.4474 316.696 54.7932 315.703 53.5002C315.133 54.9163 314.518 56.2708 313.91 57.5176C315.241 56.6941 316.703 56.825 318.427 57.9101C318.467 57.9341 318.5 57.9679 318.523 58.0083C318.546 58.0488 318.558 58.0945 318.558 58.141C318.561 58.1863 318.552 58.2316 318.532 58.2722C318.512 58.3128 318.481 58.3473 318.443 58.3719C317.416 59.112 316.203 59.5517 314.941 59.6418C314.29 59.6547 313.651 59.4607 313.117 59.0877C312.624 60.0343 312.139 60.904 311.693 61.6813H314.071V63.0358H313.209L312.493 70.2087H301.957L301.249 63.0358H300.38V61.6813H305.113C304.59 60.8116 303.92 59.6495 303.204 58.2873C303.183 58.2598 303.167 58.2284 303.158 58.1949C302.973 57.8486 302.796 57.4945 302.612 57.1251C302.299 57.5987 301.877 57.9904 301.381 58.2676C300.886 58.5448 300.331 58.6993 299.764 58.7182C299.646 58.7259 299.528 58.7259 299.41 58.7182C298.783 58.6472 298.188 58.4039 297.691 58.0154C297.194 57.6269 296.814 57.1083 296.593 56.5171C296.57 56.4564 296.57 56.3895 296.593 56.3287C296.616 56.2679 296.659 56.2173 296.716 56.1862C297.523 55.7303 298.427 55.4731 299.353 55.4356C300.279 55.3981 301.201 55.5815 302.042 55.9707C301.642 55.1318 301.272 54.2314 300.872 53.3001C300.842 53.2656 300.823 53.2226 300.818 53.177C300.711 52.9153 300.611 52.6536 300.503 52.4074C299.587 53.5618 298.679 54.1313 297.732 54.1313C296.585 54.1313 295.423 53.2847 294.177 51.5377C294.133 51.4793 294.115 51.4062 294.125 51.3343C294.135 51.2623 294.173 51.1971 294.23 51.1529C296.193 49.6829 298.848 50.6911 300.095 51.276C299.841 50.5834 299.61 49.883 299.395 49.1673L299.371 49.0903Z" fill="#E0E0E0"/>
<path d="M79.251 45.8428H118.609V89.057H79.251V45.8428Z" fill="#E0E0E0"/>
<path d="M84.1075 47.6129C84.1404 47.6207 84.1747 47.6207 84.2076 47.6129C84.2999 47.5513 93.5969 42.0254 96.5215 42.0254C99.446 42.0254 108.335 47.5513 108.428 47.6052C108.449 47.6191 108.472 47.6285 108.497 47.6329C108.522 47.6373 108.547 47.6366 108.572 47.6309C108.596 47.6251 108.619 47.6144 108.639 47.5994C108.66 47.5844 108.677 47.5654 108.689 47.5436C108.715 47.5006 108.723 47.4491 108.712 47.4002C108.7 47.3513 108.67 47.3089 108.628 47.2819C108.258 47.0511 99.5846 41.6406 96.5215 41.6406C93.4584 41.6406 84.3615 47.028 83.9767 47.2819C83.9549 47.2946 83.9359 47.3115 83.9209 47.3317C83.9059 47.3519 83.8952 47.375 83.8894 47.3995C83.8836 47.424 83.8829 47.4494 83.8874 47.4742C83.8918 47.499 83.9012 47.5226 83.9151 47.5436C83.9368 47.5728 83.9666 47.595 84.0009 47.6073C84.0351 47.6196 84.0722 47.6216 84.1075 47.6129Z" fill="#EBEBEB"/>
<path d="M74.9951 45.8428H115.646V89.057H74.9951V45.8428Z" fill="#F5F5F5"/>
<path d="M78.3965 85.6474V49.2444H112.237V85.6474H78.3965Z" fill="white"/>
<path d="M88.7645 74.004C85.1428 70.3823 85.1428 64.5103 88.7645 60.8886C92.3862 57.2669 98.2582 57.2669 101.88 60.8886C105.502 64.5103 105.502 70.3823 101.88 74.0039C98.2582 77.6256 92.3862 77.6256 88.7645 74.004Z" fill="#E0E0E0"/>
<path d="M96.1055 204.523H61.6111C58.446 204.525 55.4063 203.286 53.1454 201.071C50.8845 198.856 49.5828 195.843 49.5203 192.678L48.2274 129.523C48.2038 128.351 48.4144 127.186 48.8467 126.097C49.279 125.007 49.9243 124.015 50.745 123.177C51.5656 122.34 52.545 121.675 53.6259 121.221C54.7067 120.768 55.8673 120.534 57.0396 120.534H78.6659C80.8294 120.534 82.9175 121.33 84.5315 122.771C86.1455 124.211 87.1725 126.196 87.4165 128.346L96.1055 204.523Z" fill="#E6E6E6"/>
<path d="M77.2793 204.523H114.036C114.494 204.523 114.932 204.341 115.255 204.018C115.579 203.694 115.76 203.256 115.76 202.799V202.637C115.76 201.384 115.262 200.182 114.376 199.296C113.49 198.41 112.288 197.912 111.035 197.912H77.2793V204.523Z" fill="#E6E6E6"/>
<path d="M80.1829 257.835C80.3619 257.839 80.5367 257.78 80.6772 257.669C80.8176 257.558 80.915 257.402 80.9526 257.227L91.7272 205.293H110.506L121.281 257.227C121.323 257.431 121.444 257.61 121.618 257.725C121.792 257.839 122.004 257.88 122.208 257.838C122.412 257.797 122.591 257.675 122.706 257.501C122.821 257.328 122.862 257.115 122.82 256.911L111.907 204.369C111.871 204.193 111.774 204.034 111.633 203.922C111.493 203.809 111.317 203.75 111.137 203.753H91.1269C90.9469 203.75 90.7713 203.809 90.6307 203.922C90.49 204.034 90.3933 204.193 90.3573 204.369L79.4518 256.911C79.4108 257.11 79.45 257.317 79.561 257.487C79.672 257.657 79.8458 257.777 80.0444 257.819C80.0898 257.83 80.1363 257.835 80.1829 257.835Z" fill="#E6E6E6"/>
<path d="M91.8865 257.834C91.9375 257.842 91.9893 257.842 92.0404 257.834C92.1394 257.814 92.2335 257.775 92.3173 257.718C92.4011 257.661 92.4729 257.589 92.5287 257.505C92.5844 257.42 92.623 257.326 92.6422 257.227C92.6614 257.127 92.6609 257.025 92.6407 256.926L81.7275 204.384C81.6915 204.208 81.5948 204.049 81.4541 203.937C81.3135 203.824 81.1379 203.765 80.9578 203.768H60.9477C60.7677 203.765 60.592 203.824 60.4514 203.937C60.3108 204.049 60.2141 204.208 60.1781 204.384L49.2726 256.926C49.2518 257.027 49.2512 257.131 49.2708 257.233C49.2903 257.334 49.3296 257.43 49.3864 257.517C49.4432 257.603 49.5165 257.677 49.6019 257.735C49.6874 257.792 49.7833 257.833 49.8844 257.854C49.9855 257.874 50.0896 257.875 50.1909 257.855C50.2922 257.836 50.3887 257.797 50.4748 257.74C50.5609 257.683 50.635 257.61 50.6928 257.524C50.7507 257.439 50.7911 257.343 50.8118 257.242L61.5865 205.308H80.3806L91.1553 257.242C91.1944 257.407 91.2874 257.556 91.4197 257.663C91.5521 257.77 91.7162 257.83 91.8865 257.834Z" fill="#E6E6E6"/>
<path d="M196.597 291.729C114.184 291.729 47.375 287.828 47.375 283.017C47.375 278.205 114.184 274.304 196.597 274.304C279.01 274.304 345.818 278.205 345.818 283.017C345.818 287.828 279.01 291.729 196.597 291.729Z" fill="#F5F5F5"/>
<path d="M183.428 275.905C183.669 275.904 183.903 275.82 184.089 275.668C184.276 275.515 184.404 275.302 184.452 275.066L199.074 203.06H224.541L239.164 275.066C239.234 275.322 239.398 275.543 239.625 275.682C239.851 275.822 240.122 275.87 240.382 275.817C240.643 275.764 240.873 275.614 241.027 275.398C241.181 275.181 241.247 274.914 241.211 274.65L226.419 201.806C226.37 201.57 226.241 201.358 226.055 201.206C225.869 201.053 225.636 200.969 225.395 200.967H198.228C197.987 200.967 197.753 201.051 197.567 201.204C197.38 201.357 197.252 201.569 197.204 201.806L182.404 274.65C182.35 274.922 182.405 275.204 182.558 275.434C182.711 275.665 182.949 275.826 183.22 275.882L183.428 275.905Z" fill="#FFA401"/>
<path d="M224.299 275.905C224.54 275.903 224.773 275.818 224.959 275.666C225.145 275.513 225.274 275.302 225.323 275.066L239.946 203.06H265.413L280.035 275.066C280.055 275.208 280.103 275.344 280.177 275.467C280.251 275.589 280.35 275.695 280.466 275.778C280.583 275.861 280.716 275.919 280.856 275.949C280.996 275.978 281.14 275.979 281.281 275.95C281.421 275.922 281.554 275.865 281.671 275.783C281.789 275.701 281.888 275.596 281.963 275.474C282.039 275.352 282.088 275.216 282.108 275.075C282.129 274.933 282.12 274.788 282.083 274.65L267.283 201.806C267.235 201.569 267.107 201.357 266.92 201.204C266.734 201.051 266.5 200.967 266.259 200.967H239.092C238.851 200.968 238.619 201.052 238.434 201.205C238.248 201.358 238.122 201.57 238.076 201.806L223.276 274.65C223.221 274.922 223.277 275.204 223.429 275.434C223.582 275.665 223.82 275.826 224.092 275.882L224.299 275.905Z" fill="#FFA401"/>
<path d="M218.582 202.021H265.375C269.67 202.022 273.794 200.339 276.862 197.333C279.93 194.327 281.697 190.238 281.784 185.944L283.523 114.831C283.556 113.242 283.271 111.661 282.685 110.183C282.1 108.705 281.225 107.359 280.113 106.223C279.001 105.087 277.673 104.184 276.207 103.568C274.742 102.951 273.168 102.633 271.578 102.633H242.24C239.304 102.634 236.472 103.716 234.282 105.672C232.092 107.628 230.698 110.321 230.365 113.238L218.582 202.021Z" fill="#FFA401"/>
<path d="M244.104 193.017H198.311C196.611 193.017 194.98 193.692 193.778 194.895C192.576 196.097 191.9 197.728 191.9 199.428V199.651C191.9 200.263 192.143 200.851 192.576 201.284C193.009 201.717 193.597 201.96 194.209 201.96H244.104V193.017Z" fill="#FFA401"/>
<g opacity="0.3">
<path opacity="0.3" d="M183.424 275.905C183.665 275.904 183.899 275.821 184.085 275.668C184.272 275.515 184.4 275.302 184.448 275.066L199.071 203.06H224.537L239.16 275.066C239.23 275.323 239.394 275.543 239.621 275.683C239.847 275.822 240.118 275.87 240.378 275.817C240.639 275.765 240.869 275.615 241.023 275.398C241.177 275.181 241.243 274.914 241.207 274.65L226.415 201.806C226.366 201.57 226.238 201.358 226.051 201.206C225.865 201.053 225.632 200.969 225.392 200.967H198.224C197.983 200.968 197.749 201.051 197.563 201.204C197.376 201.357 197.248 201.57 197.2 201.806L182.401 274.65C182.346 274.922 182.401 275.204 182.554 275.435C182.707 275.665 182.945 275.826 183.216 275.882L183.424 275.905Z" fill="black"/>
<path opacity="0.3" d="M224.299 275.905C224.54 275.903 224.773 275.819 224.959 275.666C225.145 275.514 225.274 275.302 225.323 275.066L239.946 203.06H265.413L280.035 275.066C280.055 275.208 280.103 275.344 280.177 275.467C280.251 275.589 280.35 275.695 280.466 275.778C280.583 275.861 280.716 275.919 280.856 275.949C280.996 275.979 281.14 275.979 281.281 275.951C281.421 275.922 281.554 275.865 281.671 275.783C281.789 275.701 281.888 275.596 281.963 275.474C282.039 275.352 282.088 275.216 282.108 275.075C282.129 274.933 282.12 274.789 282.083 274.65L267.283 201.806C267.235 201.57 267.107 201.357 266.92 201.204C266.734 201.051 266.5 200.968 266.259 200.967H239.092C238.851 200.968 238.619 201.052 238.434 201.205C238.248 201.358 238.122 201.57 238.076 201.806L223.276 274.65C223.221 274.922 223.277 275.204 223.429 275.435C223.582 275.665 223.82 275.826 224.092 275.882L224.299 275.905Z" fill="black"/>
<path opacity="0.3" d="M218.582 202.021H265.375C269.67 202.022 273.794 200.339 276.862 197.333C279.93 194.327 281.697 190.238 281.784 185.944L283.523 114.831C283.556 113.242 283.271 111.661 282.685 110.183C282.1 108.705 281.225 107.359 280.113 106.223C279.001 105.087 277.673 104.184 276.207 103.568C274.742 102.951 273.168 102.633 271.578 102.633H242.24C239.304 102.634 236.472 103.716 234.282 105.672C232.092 107.628 230.698 110.321 230.365 113.238L218.582 202.021Z" fill="black"/>
<path opacity="0.3" d="M244.102 193.017H198.309C196.609 193.017 194.978 193.692 193.776 194.895C192.574 196.097 191.898 197.728 191.898 199.428V199.651C191.898 200.263 192.141 200.851 192.574 201.284C193.007 201.717 193.595 201.96 194.207 201.96H244.102V193.017Z" fill="black"/>
</g>
<path d="M231.605 98.7075C231.605 98.7075 225.063 107.25 229.296 124.259C233.529 141.267 255.37 132.032 256.694 116.701C258.233 98.6305 237.946 111.091 234.375 95.021L231.605 98.7075Z" fill="#263238"/>
<path d="M236.354 93.6357C239.194 95.6368 240.318 98.5459 237.178 101.394C234.037 104.241 229.558 104.149 228.204 102.979C226.849 101.809 227.119 95.8676 227.119 95.8676L236.354 93.6357Z" fill="#FFA401"/>
<path opacity="0.8" d="M236.354 93.6357C239.194 95.6368 240.318 98.5459 237.178 101.394C234.037 104.241 229.558 104.149 228.204 102.979C226.849 101.809 227.119 95.8676 227.119 95.8676L236.354 93.6357Z" fill="white"/>
<path d="M200.487 131.493C200.41 131.839 200.279 132.378 200.156 132.832L199.787 134.279C199.525 135.249 199.24 136.219 198.94 137.188C198.371 139.143 197.74 141.09 197.078 143.037C196.416 144.985 195.739 146.886 195 148.856C194.638 149.818 194.276 150.788 193.892 151.75L193.445 152.904C193.356 153.101 193.239 153.285 193.099 153.45C192.003 154.558 190.669 155.401 189.197 155.913C187.399 156.637 185.546 157.213 183.656 157.637C181.701 158.091 179.692 158.468 177.66 158.784C175.629 159.099 173.543 159.353 171.542 159.554L171.473 163.694C175.863 164.148 180.289 164.148 184.679 163.694C186.974 163.458 189.243 163.017 191.46 162.378C192.66 162.016 193.829 161.555 194.954 161C196.249 160.371 197.434 159.537 198.463 158.53C199.061 157.935 199.578 157.265 200.002 156.537C200.118 156.352 200.218 156.144 200.326 155.952L200.526 155.536L200.88 154.766C201.357 153.789 201.834 152.812 202.273 151.819C203.166 149.833 204.035 147.832 204.813 145.793C205.59 143.753 206.352 141.698 206.998 139.636C207.314 138.574 207.622 137.519 207.906 136.434L208.33 134.81C208.453 134.225 208.568 133.74 208.691 133.048L200.487 131.493Z" fill="#E58A7B"/>
<path d="M203.106 122.75C199.804 123.589 197.503 137.165 197.503 137.165L206.592 143.322C206.592 143.322 215.312 129.623 212.749 125.998C210.125 122.273 207.924 121.55 203.106 122.75Z" fill="#FFA401"/>
<path opacity="0.5" d="M203.106 122.75C199.804 123.589 197.503 137.165 197.503 137.165L206.592 143.322C206.592 143.322 215.312 129.623 212.749 125.998C210.125 122.273 207.924 121.55 203.106 122.75Z" fill="white"/>
<path opacity="0.2" d="M204.289 126.167L212.193 132.432C210.654 136.238 208.782 139.9 206.598 143.376L200.295 139.089L204.289 126.167Z" fill="#FFA401"/>
<path d="M203.105 122.75C203.105 122.75 199.257 124.089 206.953 171.059H239.446C238.9 157.829 238.885 149.672 245.203 122.512C240.653 121.574 236.041 120.967 231.404 120.695C226.487 120.345 221.552 120.345 216.635 120.695C210.293 121.303 203.105 122.75 203.105 122.75Z" fill="#FFA401"/>
<path opacity="0.5" d="M203.105 122.75C203.105 122.75 199.257 124.089 206.953 171.059H239.446C238.9 157.829 238.885 149.672 245.203 122.512C240.653 121.574 236.041 120.967 231.404 120.695C226.487 120.345 221.552 120.345 216.635 120.695C210.293 121.303 203.105 122.75 203.105 122.75Z" fill="white"/>
<path d="M172.738 159.515L167.066 153.758L166.296 161.87C166.296 161.87 170.552 164.748 173.492 163.201L172.738 159.515Z" fill="#E58A7B"/>
<path d="M160.367 152.904L160.113 159.723L166.3 161.87L167.047 153.758L160.367 152.904Z" fill="#E58A7B"/>
<path d="M170.074 268.44H162.07L160.839 249.899H168.843L170.074 268.44Z" fill="#E58A7B"/>
<path d="M201.051 268.44H193.047L190.476 249.899H198.48L201.051 268.44Z" fill="#E58A7B"/>
<path d="M192.545 267.508H201.542C201.697 267.505 201.848 267.559 201.966 267.659C202.083 267.76 202.16 267.901 202.181 268.054L203.204 275.173C203.223 275.353 203.203 275.535 203.147 275.707C203.09 275.878 202.999 276.036 202.878 276.171C202.757 276.305 202.609 276.412 202.444 276.486C202.278 276.559 202.1 276.597 201.919 276.597C198.787 276.543 197.301 276.359 193.322 276.359C190.89 276.359 184.649 276.613 181.286 276.613C177.922 276.613 177.745 273.288 179.146 272.988C185.418 271.633 189.097 269.778 191.214 268.001C191.585 267.683 192.057 267.509 192.545 267.508Z" fill="#263238"/>
<path d="M161.447 267.508H170.429C170.583 267.507 170.733 267.561 170.851 267.662C170.968 267.762 171.045 267.902 171.067 268.055L172.091 275.174C172.109 275.354 172.09 275.535 172.033 275.707C171.977 275.879 171.886 276.037 171.764 276.171C171.643 276.305 171.495 276.412 171.33 276.486C171.165 276.559 170.986 276.597 170.806 276.598C167.673 276.544 166.188 276.359 162.209 276.359C159.769 276.359 154.744 276.613 151.381 276.613C148.017 276.613 147.84 273.288 149.241 272.988C155.513 271.633 157.984 269.779 160.093 268.001C160.471 267.681 160.951 267.506 161.447 267.508Z" fill="#263238"/>
<path d="M209.485 87.9021C206.606 88.0868 205.144 102.525 213.587 101.686C222.03 100.847 209.485 87.9021 209.485 87.9021Z" fill="#263238"/>
<path d="M160.836 249.899L161.474 259.458H169.479L168.847 249.899H160.836Z" fill="#CF6F64"/>
<path d="M198.481 249.899H190.469L191.801 259.458H199.812L198.481 249.899Z" fill="#CF6F64"/>
<path opacity="0.2" d="M241.955 137.612C241.185 141.552 240.639 144.954 240.223 148.017L238.322 133.31L241.955 137.612Z" fill="#FFA401"/>
<path d="M229.94 104.103C229.009 108.851 228.078 117.555 231.402 120.726C231.402 120.726 230.102 125.544 221.274 125.544C211.569 125.544 216.656 120.726 216.656 120.726C221.959 119.464 221.821 115.531 220.897 111.845L229.94 104.103Z" fill="#E58A7B"/>
<path d="M223.031 126.575L220.076 125.513L220.468 124.705L223.031 126.575Z" fill="#263238"/>
<path d="M217.298 125.96L220.076 125.513L219.476 124.613L217.298 125.96Z" fill="#263238"/>
<path d="M230.325 118.487L232.334 120.441C232.394 120.503 232.428 120.586 232.428 120.672C232.428 120.759 232.394 120.841 232.334 120.903L223.868 130.547C223.465 128.256 222.239 126.192 220.42 124.744C227.424 122.096 229.248 119.356 229.871 118.587C229.886 118.542 229.911 118.502 229.946 118.47C229.981 118.439 230.024 118.417 230.069 118.406C230.115 118.396 230.163 118.398 230.208 118.412C230.253 118.427 230.293 118.452 230.325 118.487Z" fill="#FFA401"/>
<path d="M218.23 119.964L215.736 120.641C215.662 120.662 215.594 120.702 215.54 120.758C215.486 120.813 215.447 120.882 215.428 120.957C214.724 124.12 214.857 127.412 215.813 130.508C216.167 129.2 217.352 126.067 219.477 124.613C217.168 123.02 218.099 120.965 218.43 120.187C218.441 120.158 218.443 120.127 218.438 120.097C218.432 120.066 218.418 120.038 218.397 120.015C218.377 119.992 218.35 119.975 218.321 119.966C218.291 119.957 218.26 119.957 218.23 119.964Z" fill="#FFA401"/>
<path d="M226.24 107.258L220.853 111.837C221.077 112.695 221.229 113.571 221.307 114.454C223.331 114.162 226.109 111.945 226.325 109.836C226.457 108.979 226.428 108.105 226.24 107.258Z" fill="#CF6F64"/>
<path d="M230.458 91.5882C231.374 99.4768 231.936 102.802 228.703 107.512C223.855 114.6 213.957 114 210.702 106.542C207.77 99.8309 206.769 88.0711 213.85 83.5765C215.407 82.5823 217.193 82.0029 219.038 81.8933C220.882 81.7838 222.724 82.1477 224.388 82.9505C226.053 83.7533 227.484 84.9684 228.546 86.4802C229.609 87.992 230.267 89.7504 230.458 91.5882Z" fill="#E58A7B"/>
<path d="M212.418 78.5589C225.463 73.4101 235.26 79.2207 237.284 87.4787C240.463 100.301 230.311 101.201 230.311 101.201L229.041 97.9225C227.217 99.0231 222.115 98.5382 223.654 89.018C224.562 83.6306 217.743 91.1344 209.093 90.2956C206.792 90.0724 203.644 82.0221 212.418 78.5589Z" fill="#263238"/>
<path d="M207.976 81.7296C209.692 79.0898 213.202 76.8271 220.475 75.7573C220.475 75.7573 216.696 76.6116 215.472 79.3745C214.248 82.1375 205.906 84.9081 207.976 81.7296Z" fill="#263238"/>
<path d="M232.966 98.4148C233.02 99.1734 232.923 99.9351 232.681 100.656C232.439 101.377 232.058 102.044 231.558 102.617C230.211 104.156 228.441 103.21 227.887 101.362C227.394 99.6923 227.494 96.8909 229.295 96.0443C231.096 95.1978 232.82 96.5369 232.966 98.4148Z" fill="#E58A7B"/>
<path d="M206.93 171.09C206.93 171.09 153.256 176.085 153.78 200.49C154.326 225.887 159.76 257.611 159.76 257.611H170.85C170.85 257.611 171.797 230.766 172.12 205.761C172.281 192.74 224.146 190.13 224.146 190.13L230.842 171.09H206.93Z" fill="#263238"/>
<path d="M215.521 171.09C215.521 171.09 180.834 182.596 179.957 196.834C178.348 223.047 189.869 257.634 189.869 257.634H200.79C200.79 257.634 200.167 234.699 198.866 210.949C197.219 181.103 249.877 210.533 239.448 171.113L215.521 171.09Z" fill="#263238"/>
<path d="M219.044 95.8907C219.159 96.5217 218.913 97.099 218.497 97.1759C218.082 97.2529 217.658 96.7911 217.543 96.16C217.428 95.5289 217.674 94.944 218.089 94.8748C218.505 94.8055 218.913 95.2519 219.044 95.8907Z" fill="#263238"/>
<path d="M211.866 97.1756C211.982 97.8067 211.735 98.3839 211.32 98.4608C210.904 98.5378 210.473 98.076 210.358 97.4449C210.242 96.8138 210.488 96.2289 210.904 96.1597C211.32 96.0904 211.751 96.5368 211.866 97.1756Z" fill="#263238"/>
<path d="M211.094 96.1598L209.485 95.9905C209.485 95.9905 210.447 97.0449 211.094 96.1598Z" fill="#263238"/>
<path d="M213.957 97.9224C213.649 99.4733 213.131 100.975 212.418 102.386C212.78 102.551 213.174 102.637 213.572 102.637C213.97 102.637 214.364 102.551 214.727 102.386L213.957 97.9224Z" fill="#DF5753"/>
<path d="M217.374 104.441C218.219 104.307 219.02 103.976 219.712 103.475C220.405 102.973 220.97 102.316 221.361 101.555C221.374 101.526 221.375 101.492 221.363 101.462C221.352 101.432 221.329 101.407 221.299 101.394C221.268 101.383 221.235 101.384 221.205 101.397C221.175 101.41 221.151 101.433 221.137 101.463C220.767 102.182 220.234 102.804 219.581 103.279C218.927 103.755 218.172 104.071 217.374 104.203C217.342 104.21 217.314 104.229 217.295 104.256C217.277 104.283 217.269 104.316 217.274 104.349C217.28 104.372 217.292 104.394 217.31 104.41C217.328 104.427 217.35 104.437 217.374 104.441Z" fill="#263238"/>
<path d="M220.73 93.0507C220.763 93.0519 220.796 93.0456 220.827 93.0323C220.857 93.019 220.885 92.999 220.907 92.9737C220.93 92.9521 220.948 92.9259 220.961 92.8968C220.974 92.8676 220.98 92.8362 220.98 92.8044C220.98 92.7726 220.974 92.7412 220.961 92.712C220.948 92.6829 220.93 92.6567 220.907 92.6351C220.492 92.23 219.986 91.9305 219.432 91.7617C218.877 91.5929 218.29 91.5599 217.72 91.6654C217.66 91.6833 217.609 91.7236 217.578 91.778C217.546 91.8323 217.537 91.8967 217.551 91.9578C217.558 91.9889 217.572 92.0181 217.59 92.0439C217.609 92.0697 217.633 92.0915 217.66 92.108C217.687 92.1245 217.717 92.1354 217.749 92.14C217.78 92.1446 217.813 92.1428 217.843 92.1348C218.335 92.0479 218.841 92.0802 219.317 92.2288C219.794 92.3774 220.228 92.6382 220.583 92.9891C220.625 93.0243 220.676 93.0458 220.73 93.0507Z" fill="#263238"/>
<path d="M207.937 94.3128C207.985 94.3145 208.032 94.3013 208.072 94.2752C208.112 94.249 208.143 94.211 208.16 94.1665C208.348 93.7046 208.643 93.2937 209.02 92.9673C209.397 92.6409 209.846 92.4084 210.331 92.2887C210.393 92.2773 210.449 92.2422 210.487 92.1905C210.524 92.1388 210.54 92.0747 210.531 92.0116C210.519 91.9473 210.483 91.8902 210.43 91.8526C210.376 91.8151 210.31 91.8003 210.246 91.8115C209.682 91.9421 209.158 92.2069 208.719 92.5834C208.279 92.96 207.937 93.4371 207.722 93.9741C207.696 94.0334 207.694 94.1005 207.717 94.161C207.74 94.2215 207.786 94.2705 207.845 94.2974L207.937 94.3128Z" fill="#263238"/>
<path d="M240.345 134.125C241.046 136.434 241.8 138.743 242.469 141.113C243.139 143.484 243.847 145.793 244.455 148.14C245.063 150.487 245.64 152.811 246.071 155.066C246.279 156.205 246.471 157.337 246.579 158.399C246.641 158.93 246.672 159.43 246.679 159.892C246.679 160 246.679 159.892 246.756 159.715C246.85 159.506 246.98 159.316 247.141 159.153C247.534 158.815 247.68 158.876 247.503 158.93C247.181 159.008 246.849 159.042 246.518 159.03C245.482 158.994 244.451 158.863 243.439 158.637C241.147 158.132 238.888 157.487 236.674 156.706C232.126 155.166 227.508 153.289 223.013 151.372L221.028 154.997C225.292 157.793 229.749 160.282 234.365 162.447C236.756 163.575 239.222 164.534 241.746 165.318C243.151 165.746 244.595 166.037 246.056 166.187C246.968 166.281 247.889 166.258 248.796 166.118C249.397 166.028 249.985 165.86 250.543 165.618C251.264 165.306 251.918 164.856 252.467 164.294C253.534 163.169 254.146 161.688 254.183 160.138C254.222 159.369 254.229 158.599 254.183 157.906C254.129 156.483 253.998 155.136 253.821 153.82C253.452 151.188 252.975 148.648 252.39 146.123C251.805 143.599 251.182 141.159 250.497 138.712C249.812 136.265 249.073 133.863 248.188 131.416L240.345 134.125Z" fill="#E58A7B"/>
<path d="M189.808 268.855C190.517 268.837 191.222 268.739 191.909 268.562C191.935 268.557 191.959 268.545 191.977 268.527C191.996 268.508 192.008 268.484 192.013 268.459C192.018 268.433 192.015 268.406 192.005 268.382C191.995 268.358 191.978 268.338 191.956 268.324C191.686 268.147 189.285 266.592 188.369 267C188.273 267.043 188.191 267.112 188.131 267.199C188.071 267.286 188.037 267.387 188.03 267.493C187.992 267.663 187.999 267.841 188.05 268.009C188.102 268.176 188.196 268.327 188.323 268.447C188.755 268.754 189.281 268.898 189.808 268.855ZM191.54 268.378C190.055 268.686 188.939 268.647 188.508 268.247C188.414 268.156 188.345 268.042 188.307 267.917C188.269 267.792 188.264 267.659 188.292 267.531C188.295 267.471 188.315 267.412 188.348 267.362C188.382 267.312 188.429 267.272 188.485 267.246C189.069 266.985 190.693 267.854 191.54 268.378Z" fill="#FFA401"/>
<path d="M191.877 268.57H191.946C191.968 268.558 191.986 268.54 191.998 268.518C192.01 268.497 192.016 268.472 192.016 268.447C192.016 268.355 192.016 266.077 191.154 265.323C191.053 265.226 190.931 265.154 190.797 265.112C190.663 265.071 190.522 265.061 190.384 265.084C190.245 265.083 190.11 265.13 190.002 265.217C189.894 265.304 189.82 265.425 189.791 265.561C189.63 266.392 190.969 268.093 191.808 268.57H191.877ZM190.523 265.323C190.692 265.324 190.854 265.39 190.977 265.507C191.585 266.046 191.708 267.57 191.746 268.178C190.977 267.624 189.945 266.223 190.076 265.6C190.076 265.5 190.153 265.369 190.43 265.33L190.523 265.323Z" fill="#FFA401"/>
<path d="M158.437 268.855C159.283 268.836 160.125 268.741 160.953 268.57C160.981 268.563 161.005 268.549 161.024 268.528C161.043 268.508 161.056 268.482 161.061 268.455C161.065 268.426 161.06 268.397 161.046 268.372C161.032 268.347 161.01 268.328 160.984 268.316C160.63 268.131 157.467 266.515 156.505 267.039C156.421 267.085 156.351 267.151 156.3 267.232C156.249 267.313 156.219 267.405 156.213 267.5C156.191 267.661 156.209 267.824 156.265 267.976C156.322 268.127 156.415 268.263 156.536 268.37C157.096 268.744 157.766 268.915 158.437 268.855ZM160.507 268.378C159.476 268.555 157.429 268.809 156.721 268.178C156.632 268.095 156.564 267.993 156.523 267.879C156.482 267.765 156.467 267.644 156.482 267.523C156.483 267.471 156.497 267.42 156.524 267.375C156.551 267.331 156.59 267.294 156.636 267.27C157.267 266.931 159.391 267.831 160.507 268.378Z" fill="#FFA401"/>
<path d="M160.922 268.57C160.947 268.578 160.974 268.578 160.999 268.57C161.018 268.555 161.033 268.537 161.044 268.516C161.054 268.494 161.06 268.471 161.061 268.447C161.061 268.355 160.868 266.223 159.883 265.369C159.745 265.251 159.584 265.163 159.411 265.11C159.237 265.057 159.055 265.04 158.875 265.061C158.382 265.107 158.244 265.353 158.205 265.546C158.067 266.431 159.929 268.124 160.868 268.547L160.922 268.57ZM159.021 265.322C159.274 265.321 159.518 265.415 159.706 265.584C160.429 266.184 160.683 267.624 160.76 268.201C159.752 267.639 158.375 266.192 158.452 265.599C158.452 265.538 158.452 265.369 158.875 265.33L159.021 265.322Z" fill="#FFA401"/>
<path d="M223.201 151.496L215.613 149.572L219.23 156.86C219.23 156.86 224.363 157.083 226.057 154.22L223.201 151.496Z" fill="#E58A7B"/>
<path d="M209.477 152.335L212.833 158.276L219.229 156.86L215.611 149.572L209.477 152.335Z" fill="#E58A7B"/>
<path d="M218.283 94.8746L216.675 94.7053C216.675 94.7053 217.668 95.7597 218.283 94.8746Z" fill="#263238"/>
<path d="M239.933 169.182L240.194 172.091C240.302 172.322 240.04 172.553 239.663 172.553H206.77C206.477 172.553 206.239 172.406 206.216 172.222L205.923 169.312C205.923 169.112 206.162 168.943 206.477 168.943H239.402C239.503 168.934 239.605 168.952 239.698 168.994C239.791 169.035 239.872 169.1 239.933 169.182Z" fill="#FFA401"/>
<path d="M235.506 172.868H236.391C236.568 172.868 236.699 172.776 236.691 172.668L236.275 168.881C236.275 168.774 236.106 168.681 235.929 168.681H235.075C234.898 168.681 234.767 168.774 234.775 168.881L235.19 172.668C235.183 172.776 235.337 172.868 235.506 172.868Z" fill="#263238"/>
<path d="M209.246 172.868H210.131C210.308 172.868 210.439 172.776 210.431 172.668L210.016 168.881C210.016 168.774 209.846 168.681 209.669 168.681H208.792C208.615 168.681 208.484 168.774 208.492 168.881L208.907 172.668C208.907 172.776 209.077 172.868 209.246 172.868Z" fill="#263238"/>
<path d="M222.377 172.868H223.262C223.439 172.868 223.57 172.776 223.562 172.668L223.147 168.881C223.147 168.774 222.977 168.681 222.8 168.681H221.923C221.746 168.681 221.615 168.774 221.623 168.881L222.038 172.668C222.054 172.776 222.2 172.868 222.377 172.868Z" fill="#263238"/>
<path d="M245.204 122.543C248.467 123.535 252.377 134.749 252.377 134.749L241.872 145.008C241.872 145.008 235.13 134.426 236.484 130.216C237.923 125.829 241.487 121.419 245.204 122.543Z" fill="#FFA401"/>
<path opacity="0.5" d="M245.204 122.543C248.467 123.535 252.377 134.749 252.377 134.749L241.872 145.008C241.872 145.008 235.13 134.426 236.484 130.216C237.923 125.829 241.487 121.419 245.204 122.543Z" fill="white"/>
<path d="M70.6401 163.094H131.871V282.193H70.6401V163.094Z" fill="#FFA401"/>
<path opacity="0.6" d="M70.6401 163.094H131.871V282.193H70.6401V163.094Z" fill="white"/>
<path d="M189.263 163.094H250.494V282.193H189.263V163.094Z" fill="#FFA401"/>
<path opacity="0.6" d="M189.263 163.094H250.494V282.193H189.263V163.094Z" fill="white"/>
<path d="M68.3497 163.094H73.3984V282.193H68.3497V163.094Z" fill="#FFA401"/>
<path opacity="0.3" d="M68.3497 163.094H73.3984V282.193H68.3497V163.094Z" fill="black"/>
<path d="M188.531 172.029L66.7852 172.029V163.094H188.531V172.029Z" fill="#FFA401"/>
<path opacity="0.3" d="M188.531 172.029L66.7852 172.029V163.094H188.531V172.029Z" fill="black"/>
<path d="M186.961 163.094H192.01V282.193H186.961V163.094Z" fill="#FFA401"/>
<path opacity="0.3" d="M186.961 163.094H192.01V282.193H186.961V163.094Z" fill="black"/>
<path d="M188.825 191.585L70.873 191.585V165.857H188.825V191.585Z" fill="#FFA401"/>
<path opacity="0.3" d="M188.825 191.585L70.873 191.585V165.857H188.825V191.585Z" fill="black"/>
<path d="M70.6086 285.656H104.603C106.911 285.654 109.123 284.736 110.755 283.104C112.387 281.472 113.305 279.259 113.307 276.952V169.697C113.307 167.656 114.118 165.699 115.561 164.255C117.005 162.812 118.962 162.001 121.003 162.001H131.178V161.231H121.011C118.766 161.231 116.612 162.123 115.025 163.711C113.437 165.299 112.545 167.452 112.545 169.697V276.952C112.543 279.055 111.707 281.072 110.219 282.56C108.731 284.048 106.714 284.884 104.61 284.886H70.6086C70.03 284.887 69.4657 284.706 68.9964 284.367C68.527 284.029 68.1765 283.551 67.9948 283.002C67.8131 282.452 67.8095 281.859 67.9845 281.308C68.1595 280.756 68.5041 280.274 68.9693 279.93L68.5152 279.314C67.9214 279.755 67.4815 280.372 67.2582 281.077C67.0348 281.782 67.0394 282.539 67.2712 283.241C67.503 283.944 67.9503 284.555 68.5494 284.988C69.1486 285.422 69.8691 285.655 70.6086 285.656Z" fill="#FFA401"/>
<path opacity="0.3" d="M70.6086 285.656H104.603C106.911 285.654 109.123 284.736 110.755 283.104C112.387 281.472 113.305 279.259 113.307 276.952V169.697C113.307 167.656 114.118 165.699 115.561 164.255C117.005 162.812 118.962 162.001 121.003 162.001H131.178V161.231H121.011C118.766 161.231 116.612 162.123 115.025 163.711C113.437 165.299 112.545 167.452 112.545 169.697V276.952C112.543 279.055 111.707 281.072 110.219 282.56C108.731 284.048 106.714 284.884 104.61 284.886H70.6086C70.03 284.887 69.4657 284.706 68.9964 284.367C68.527 284.029 68.1765 283.551 67.9948 283.002C67.8131 282.452 67.8095 281.859 67.9845 281.308C68.1595 280.756 68.5041 280.274 68.9693 279.93L68.5152 279.314C67.9214 279.755 67.4815 280.372 67.2582 281.077C67.0348 281.782 67.0394 282.539 67.2712 283.241C67.503 283.944 67.9503 284.555 68.5494 284.988C69.1486 285.422 69.8691 285.655 70.6086 285.656Z" fill="black"/>
<path d="M65.6542 198.235H66.4238V213.112H65.6542V198.235Z" fill="#FFA401"/>
<path opacity="0.3" d="M65.6542 198.235H66.4238V213.112H65.6542V198.235Z" fill="black"/>
<path d="M65.6542 189.453H66.4238V193.363H65.6542V189.453Z" fill="#FFA401"/>
<path opacity="0.3" d="M65.6542 189.453H66.4238V193.363H65.6542V189.453Z" fill="black"/>
<path d="M122.018 127.538H179.078L187.344 161.232H130.292L122.018 127.538Z" fill="#FFA401"/>
<path opacity="0.4" d="M122.018 127.538H179.078L187.344 161.232H130.292L122.018 127.538Z" fill="white"/>
<path d="M185.598 161.232L185.829 163.094H208.217L207.986 161.232H185.598Z" fill="#FFA401"/>
<path opacity="0.4" d="M185.598 161.232L185.829 163.094H208.217L207.986 161.232H185.598Z" fill="white"/>
<path d="M128.536 161.232L128.767 163.094H185.826L185.595 161.232H128.536Z" fill="#FFA401"/>
<path opacity="0.5" d="M128.536 161.232L128.767 163.094H185.826L185.595 161.232H128.536Z" fill="black"/>
<path d="M120.264 127.538H177.324L185.59 161.232H128.538L120.264 127.538Z" fill="#FFA401"/>
<path opacity="0.5" d="M120.264 127.538H177.324L185.59 161.232H128.538L120.264 127.538Z" fill="black"/>
<path d="M98.2293 154.605C98.2293 154.605 106.626 140.129 95.0046 128.607C95.0046 128.607 91.9646 130.593 92.0107 133.225C92.0569 135.857 95.2662 136.565 94.5813 138.782C93.8963 140.998 90.8563 143.192 92.8496 145.031C94.843 146.871 92.5264 148.502 92.6649 150.749C92.8034 152.997 98.2293 154.605 98.2293 154.605Z" fill="#FFA401"/>
<path d="M97.5914 155.929C97.5914 155.929 94.1897 139.544 108.874 132.286C108.874 132.286 111.137 135.126 110.252 137.673C109.367 140.221 106.111 139.813 106.065 142.145C106.019 144.477 108.205 147.494 105.734 148.61C103.264 149.726 104.964 152.012 104.11 154.105C103.256 156.198 97.5914 155.929 97.5914 155.929Z" fill="#FFA401"/>
<path opacity="0.5" d="M97.5914 155.929C97.5914 155.929 94.1897 139.544 108.874 132.286C108.874 132.286 111.137 135.126 110.252 137.673C109.367 140.221 106.111 139.813 106.065 142.145C106.019 144.477 108.205 147.494 105.734 148.61C103.264 149.726 104.964 152.012 104.11 154.105C103.256 156.198 97.5914 155.929 97.5914 155.929Z" fill="black"/>
<path d="M110.459 152.296C110.459 152.296 110.174 163.071 99.4688 163.071C88.7634 163.071 88.4863 152.296 88.4863 152.296H110.459Z" fill="#FFA401"/>
<path opacity="0.5" d="M110.459 152.296C110.459 152.296 110.174 163.071 99.4688 163.071C88.7634 163.071 88.4863 152.296 88.4863 152.296H110.459Z" fill="black"/>
<path d="M168.001 81.6994L177.144 69.8857L186.287 81.6994H181.985V96.9918H172.303V81.6994H168.001Z" fill="#FFA401"/>
<path d="M141.18 95.5909C141.18 89.8756 138.909 84.3945 134.868 80.3532C130.827 76.3119 125.346 74.0415 119.63 74.0415V79.652C121.722 79.651 123.793 80.0622 125.726 80.8619C127.659 81.6617 129.415 82.8345 130.895 84.3132C132.374 85.7919 133.548 87.5476 134.349 89.4801C135.149 91.4125 135.561 93.4837 135.561 95.5755L141.18 95.5909Z" fill="#FFA401"/>
<path d="M141.18 95.5908H135.561C135.561 99.816 133.883 103.868 130.895 106.856C127.908 109.843 123.856 111.522 119.63 111.522C116.835 111.527 114.088 110.789 111.672 109.382L108.856 114.285C112.132 116.176 115.848 117.172 119.631 117.172C123.413 117.172 127.129 116.176 130.405 114.285C133.681 112.393 136.402 109.673 138.293 106.397C140.184 103.121 141.18 99.4044 141.18 95.6216V95.5908Z" fill="#FFA401"/>
<path opacity="0.5" d="M141.18 95.5908H135.561C135.561 99.816 133.883 103.868 130.895 106.856C127.908 109.843 123.856 111.522 119.63 111.522C116.835 111.527 114.088 110.789 111.672 109.382L108.856 114.285C112.132 116.176 115.848 117.172 119.631 117.172C123.413 117.172 127.129 116.176 130.405 114.285C133.681 112.393 136.402 109.673 138.293 106.397C140.184 103.121 141.18 99.4044 141.18 95.6216V95.5908Z" fill="white"/>
<path d="M119.631 79.6522V74.0263C114.872 74.0081 110.241 75.5657 106.46 78.4561C102.68 81.3465 99.9621 85.4071 98.7317 90.0042C97.5014 94.6013 97.8274 99.4765 99.6589 103.869C101.49 108.261 104.724 111.924 108.856 114.285L111.665 109.413C108.605 107.671 106.209 104.964 104.851 101.716C103.494 98.4668 103.251 94.8597 104.161 91.4584C105.072 88.0571 107.084 85.0535 109.883 82.9173C112.682 80.7811 116.11 79.6329 119.631 79.6522Z" fill="#FFA401"/>
<path opacity="0.7" d="M119.631 79.6522V74.0263C114.872 74.0081 110.241 75.5657 106.46 78.4561C102.68 81.3465 99.9621 85.4071 98.7317 90.0042C97.5014 94.6013 97.8274 99.4765 99.6589 103.869C101.49 108.261 104.724 111.924 108.856 114.285L111.665 109.413C108.605 107.671 106.209 104.964 104.851 101.716C103.494 98.4668 103.251 94.8597 104.161 91.4584C105.072 88.0571 107.084 85.0535 109.883 82.9173C112.682 80.7811 116.11 79.6329 119.631 79.6522Z" fill="black"/>
<path d="M139.866 42.7102H159.499C160.199 42.7102 160.87 42.9883 161.365 43.4834C161.861 43.9784 162.139 44.6499 162.139 45.35V81.653C162.133 82.3491 161.852 83.0146 161.357 83.5047C160.863 83.9948 160.195 84.2697 159.499 84.2697H134.371C133.672 84.2677 133.003 83.9887 132.509 83.4938C132.016 82.999 131.739 82.3287 131.739 81.6299V50.8451L139.866 42.7102Z" fill="#263238"/>
<path d="M141.02 80.66H157.344C157.65 80.66 157.943 80.5384 158.16 80.3219C158.376 80.1054 158.498 79.8118 158.498 79.5056C158.496 79.2008 158.373 78.9091 158.157 78.6943C157.941 78.4794 157.648 78.3589 157.344 78.3589H141.012C140.707 78.3589 140.415 78.4794 140.199 78.6943C139.982 78.9091 139.86 79.2008 139.858 79.5056C139.86 79.8125 139.983 80.1061 140.201 80.3224C140.419 80.5387 140.713 80.6601 141.02 80.66Z" fill="#FFA401"/>
<path d="M148.716 48.6596H157.344C157.648 48.6596 157.941 48.539 158.157 48.3242C158.373 48.1093 158.496 47.8177 158.498 47.5128C158.498 47.2067 158.376 46.913 158.16 46.6965C157.943 46.48 157.65 46.3584 157.344 46.3584H148.708C148.402 46.3584 148.109 46.48 147.892 46.6965C147.676 46.913 147.554 47.2067 147.554 47.5128C147.555 47.6644 147.586 47.8144 147.645 47.954C147.704 48.0937 147.79 48.2204 147.898 48.3269C148.006 48.4334 148.133 48.5176 148.274 48.5746C148.414 48.6317 148.565 48.6606 148.716 48.6596Z" fill="#FFA401"/>
<path d="M143.075 53.2309H157.344C157.648 53.2309 157.941 53.1103 158.157 52.8955C158.373 52.6806 158.496 52.389 158.498 52.0841C158.498 51.7779 158.376 51.4843 158.16 51.2678C157.943 51.0513 157.65 50.9297 157.344 50.9297H143.067C142.762 50.9317 142.471 51.0542 142.256 51.2705C142.041 51.4868 141.92 51.7793 141.92 52.0841C141.92 52.2354 141.95 52.3851 142.008 52.5247C142.067 52.6644 142.152 52.7911 142.259 52.8977C142.366 53.0043 142.494 53.0886 142.634 53.1458C142.774 53.203 142.924 53.2319 143.075 53.2309Z" fill="#FFA401"/>
<path d="M136.518 57.8024H157.344C157.648 57.8024 157.941 57.6818 158.157 57.467C158.373 57.2521 158.496 56.9605 158.498 56.6557C158.498 56.3495 158.376 56.0558 158.16 55.8393C157.943 55.6228 157.65 55.5012 157.344 55.5012H136.51C136.204 55.5012 135.91 55.6228 135.694 55.8393C135.477 56.0558 135.356 56.3495 135.356 56.6557C135.357 56.8073 135.387 56.9572 135.446 57.0968C135.505 57.2365 135.591 57.3632 135.699 57.4697C135.807 57.5762 135.935 57.6604 136.075 57.7175C136.216 57.7745 136.366 57.8034 136.518 57.8024Z" fill="#FFA401"/>
<path d="M136.515 62.3742H148.629C148.934 62.3742 149.226 62.2536 149.442 62.0388C149.659 61.8239 149.781 61.5323 149.783 61.2274C149.783 60.9213 149.662 60.6276 149.445 60.4111C149.229 60.1946 148.935 60.073 148.629 60.073H136.515C136.209 60.073 135.915 60.1946 135.699 60.4111C135.482 60.6276 135.361 60.9213 135.361 61.2274C135.363 61.5323 135.485 61.8239 135.701 62.0388C135.918 62.2536 136.21 62.3742 136.515 62.3742Z" fill="#FFA401"/>
<path d="M154.188 62.3742H157.344C157.648 62.3742 157.941 62.2536 158.157 62.0388C158.373 61.8239 158.496 61.5323 158.498 61.2274C158.498 60.9213 158.376 60.6276 158.16 60.4111C157.943 60.1946 157.65 60.073 157.344 60.073H154.18C153.874 60.073 153.581 60.1946 153.364 60.4111C153.148 60.6276 153.026 60.9213 153.026 61.2274C153.027 61.379 153.058 61.529 153.117 61.6686C153.176 61.8083 153.262 61.935 153.37 62.0415C153.478 62.148 153.605 62.2322 153.746 62.2892C153.886 62.3463 154.037 62.3752 154.188 62.3742Z" fill="#FFA401"/>
<path d="M136.518 66.9455H157.344C157.65 66.9455 157.943 66.8238 158.16 66.6073C158.376 66.3908 158.498 66.0972 158.498 65.791C158.496 65.4862 158.373 65.1945 158.157 64.9797C157.941 64.7648 157.648 64.6443 157.344 64.6443H136.51C136.205 64.6443 135.913 64.7648 135.696 64.9797C135.48 65.1945 135.358 65.4862 135.356 65.791C135.356 65.9433 135.386 66.094 135.444 66.2346C135.503 66.3752 135.588 66.5028 135.696 66.6101C135.804 66.7174 135.933 66.8022 136.074 66.8598C136.215 66.9174 136.365 66.9465 136.518 66.9455Z" fill="#FFA401"/>
<path d="M144.56 71.5172H157.344C157.65 71.5172 157.943 71.3956 158.16 71.1791C158.376 70.9626 158.498 70.669 158.498 70.3628C158.496 70.058 158.373 69.7663 158.157 69.5515C157.941 69.3366 157.648 69.2161 157.344 69.2161H144.553C144.248 69.2161 143.955 69.3366 143.739 69.5515C143.523 69.7663 143.4 70.058 143.398 70.3628C143.398 70.515 143.428 70.6658 143.487 70.8064C143.545 70.9469 143.631 71.0745 143.739 71.1818C143.847 71.2891 143.975 71.374 144.116 71.4316C144.257 71.4891 144.408 71.5182 144.56 71.5172Z" fill="#FFA401"/>
<path d="M136.516 71.5172H139.933C140.238 71.5152 140.53 71.3927 140.745 71.1764C140.96 70.9601 141.08 70.6676 141.08 70.3628C141.08 70.0587 140.959 69.767 140.744 69.5519C140.529 69.3369 140.237 69.2161 139.933 69.2161H136.516C136.211 69.2161 135.919 69.3366 135.703 69.5515C135.486 69.7663 135.364 70.058 135.362 70.3628C135.362 70.669 135.483 70.9626 135.7 71.1791C135.916 71.3956 136.21 71.5172 136.516 71.5172Z" fill="#FFA401"/>
<path d="M136.518 76.0885H157.344C157.65 76.0885 157.943 75.9669 158.16 75.7504C158.376 75.5339 158.498 75.2403 158.498 74.9341C158.496 74.6292 158.373 74.3376 158.157 74.1227C157.941 73.9079 157.648 73.7873 157.344 73.7874H136.51C136.205 73.7873 135.913 73.9079 135.696 74.1227C135.48 74.3376 135.358 74.6292 135.356 74.9341C135.356 75.0863 135.386 75.2371 135.444 75.3777C135.503 75.5182 135.588 75.6458 135.696 75.7531C135.804 75.8604 135.933 75.9453 136.074 76.0029C136.215 76.0604 136.365 76.0895 136.518 76.0885Z" fill="#FFA401"/>
<g opacity="0.5">
<path opacity="0.5" d="M141.02 80.66H157.344C157.65 80.66 157.943 80.5384 158.16 80.3219C158.376 80.1054 158.498 79.8118 158.498 79.5056C158.496 79.2008 158.373 78.9091 158.157 78.6943C157.941 78.4794 157.648 78.3589 157.344 78.3589H141.012C140.707 78.3589 140.415 78.4794 140.199 78.6943C139.982 78.9091 139.86 79.2008 139.858 79.5056C139.86 79.8125 139.983 80.1061 140.201 80.3224C140.419 80.5387 140.713 80.6601 141.02 80.66Z" fill="white"/>
</g>
<g opacity="0.5">
<path opacity="0.5" d="M148.716 48.6596H157.344C157.648 48.6596 157.941 48.539 158.157 48.3242C158.373 48.1093 158.496 47.8177 158.498 47.5128C158.498 47.2067 158.376 46.913 158.16 46.6965C157.943 46.48 157.65 46.3584 157.344 46.3584H148.708C148.402 46.3584 148.109 46.48 147.892 46.6965C147.676 46.913 147.554 47.2067 147.554 47.5128C147.555 47.6644 147.586 47.8144 147.645 47.954C147.704 48.0937 147.79 48.2204 147.898 48.3269C148.006 48.4334 148.133 48.5176 148.274 48.5746C148.414 48.6317 148.565 48.6606 148.716 48.6596Z" fill="white"/>
</g>
<g opacity="0.5">
<path opacity="0.5" d="M143.075 53.2309H157.344C157.648 53.2309 157.941 53.1103 158.157 52.8955C158.373 52.6806 158.496 52.389 158.498 52.0841C158.498 51.7779 158.376 51.4843 158.16 51.2678C157.943 51.0513 157.65 50.9297 157.344 50.9297H143.067C142.762 50.9317 142.471 51.0542 142.256 51.2705C142.041 51.4868 141.92 51.7793 141.92 52.0841C141.92 52.2354 141.95 52.3851 142.008 52.5247C142.067 52.6644 142.152 52.7911 142.259 52.8977C142.366 53.0043 142.494 53.0886 142.634 53.1458C142.774 53.203 142.924 53.2319 143.075 53.2309Z" fill="white"/>
</g>
<g opacity="0.5">
<path opacity="0.5" d="M136.518 57.8024H157.344C157.648 57.8024 157.941 57.6818 158.157 57.467C158.373 57.2521 158.496 56.9605 158.498 56.6557C158.498 56.3495 158.376 56.0558 158.16 55.8393C157.943 55.6228 157.65 55.5012 157.344 55.5012H136.51C136.204 55.5012 135.91 55.6228 135.694 55.8393C135.477 56.0558 135.356 56.3495 135.356 56.6557C135.357 56.8073 135.387 56.9572 135.446 57.0968C135.505 57.2365 135.591 57.3632 135.699 57.4697C135.807 57.5762 135.935 57.6604 136.075 57.7175C136.216 57.7745 136.366 57.8034 136.518 57.8024Z" fill="white"/>
</g>
<g opacity="0.5">
<path opacity="0.5" d="M136.515 62.3742H148.629C148.934 62.3742 149.226 62.2536 149.442 62.0388C149.659 61.8239 149.781 61.5323 149.783 61.2274C149.783 60.9213 149.662 60.6276 149.445 60.4111C149.229 60.1946 148.935 60.073 148.629 60.073H136.515C136.209 60.073 135.915 60.1946 135.699 60.4111C135.482 60.6276 135.361 60.9213 135.361 61.2274C135.363 61.5323 135.485 61.8239 135.701 62.0388C135.918 62.2536 136.21 62.3742 136.515 62.3742Z" fill="white"/>
</g>
<g opacity="0.5">
<path opacity="0.5" d="M154.188 62.3742H157.344C157.648 62.3742 157.941 62.2536 158.157 62.0388C158.373 61.8239 158.496 61.5323 158.498 61.2274C158.498 60.9213 158.376 60.6276 158.16 60.4111C157.943 60.1946 157.65 60.073 157.344 60.073H154.18C153.874 60.073 153.581 60.1946 153.364 60.4111C153.148 60.6276 153.026 60.9213 153.026 61.2274C153.027 61.379 153.058 61.529 153.117 61.6686C153.176 61.8083 153.262 61.935 153.37 62.0415C153.478 62.148 153.605 62.2322 153.746 62.2892C153.886 62.3463 154.037 62.3752 154.188 62.3742Z" fill="white"/>
</g>
<g opacity="0.5">
<path opacity="0.5" d="M136.518 66.9455H157.344C157.65 66.9455 157.943 66.8238 158.16 66.6073C158.376 66.3908 158.498 66.0972 158.498 65.791C158.496 65.4862 158.373 65.1945 158.157 64.9797C157.941 64.7648 157.648 64.6443 157.344 64.6443H136.51C136.205 64.6443 135.913 64.7648 135.696 64.9797C135.48 65.1945 135.358 65.4862 135.356 65.791C135.356 65.9433 135.386 66.094 135.444 66.2346C135.503 66.3752 135.588 66.5028 135.696 66.6101C135.804 66.7174 135.933 66.8022 136.074 66.8598C136.215 66.9174 136.365 66.9465 136.518 66.9455Z" fill="white"/>
</g>
<g opacity="0.5">
<path opacity="0.5" d="M144.56 71.5172H157.344C157.65 71.5172 157.943 71.3956 158.16 71.1791C158.376 70.9626 158.498 70.669 158.498 70.3628C158.496 70.058 158.373 69.7663 158.157 69.5515C157.941 69.3366 157.648 69.2161 157.344 69.2161H144.553C144.248 69.2161 143.955 69.3366 143.739 69.5515C143.523 69.7663 143.4 70.058 143.398 70.3628C143.398 70.515 143.428 70.6658 143.487 70.8064C143.545 70.9469 143.631 71.0745 143.739 71.1818C143.847 71.2891 143.975 71.374 144.116 71.4316C144.257 71.4891 144.408 71.5182 144.56 71.5172Z" fill="white"/>
</g>
<g opacity="0.5">
<path opacity="0.5" d="M136.516 71.5172H139.933C140.238 71.5152 140.53 71.3927 140.745 71.1764C140.96 70.9601 141.08 70.6676 141.08 70.3628C141.08 70.0587 140.959 69.767 140.744 69.5519C140.529 69.3369 140.237 69.2161 139.933 69.2161H136.516C136.211 69.2161 135.919 69.3366 135.703 69.5515C135.486 69.7663 135.364 70.058 135.362 70.3628C135.362 70.669 135.483 70.9626 135.7 71.1791C135.916 71.3956 136.21 71.5172 136.516 71.5172Z" fill="white"/>
</g>
<g opacity="0.5">
<path opacity="0.5" d="M136.518 76.0885H157.344C157.65 76.0885 157.943 75.9669 158.16 75.7504C158.376 75.5339 158.498 75.2403 158.498 74.9341C158.496 74.6292 158.373 74.3376 158.157 74.1227C157.941 73.9079 157.648 73.7873 157.344 73.7874H136.51C136.205 73.7873 135.913 73.9079 135.696 74.1227C135.48 74.3376 135.358 74.6292 135.356 74.9341C135.356 75.0863 135.386 75.2371 135.444 75.3777C135.503 75.5182 135.588 75.6458 135.696 75.7531C135.804 75.8604 135.933 75.9453 136.074 76.0029C136.215 76.0604 136.365 76.0895 136.518 76.0885Z" fill="white"/>
</g>
<path d="M139.865 42.7102V48.2053C139.866 48.5522 139.799 48.896 139.666 49.2167C139.534 49.5374 139.34 49.8288 139.094 50.0742C138.849 50.3195 138.558 50.5139 138.237 50.6462C137.916 50.7785 137.572 50.8461 137.225 50.8451H131.738L139.865 42.7102Z" fill="#FFA401"/>
<path opacity="0.5" d="M139.865 42.7102V48.2053C139.866 48.5522 139.799 48.896 139.666 49.2167C139.534 49.5374 139.34 49.8288 139.094 50.0742C138.849 50.3195 138.558 50.5139 138.237 50.6462C137.916 50.7785 137.572 50.8461 137.225 50.8451H131.738L139.865 42.7102Z" fill="white"/>
</g>
<defs>
<filter id="filter0_f" x="0.189453" y="0.998779" width="392.81" height="294.73" filterUnits="userSpaceOnUse" color-interpolation-filters="sRGB">
<feFlood flood-opacity="0" result="BackgroundImageFix"/>
<feBlend mode="normal" in="SourceGraphic" in2="BackgroundImageFix" result="shape"/>
<feGaussianBlur stdDeviation="2" result="effect1_foregroundBlur"/>
</filter>
</defs>
</svg>
