<svg width="440" height="328" viewBox="0 0 440 328" fill="none" xmlns="http://www.w3.org/2000/svg">
<path d="M0.000152588 288.002H439.832V288.222H0.000152588V288.002Z" fill="#E6E6E6"/>
<path d="M339.674 295.057H369.934V295.277H339.674V295.057Z" fill="#E6E6E6"/>
<path d="M324.834 295.057H333.876V295.277H324.834V295.057Z" fill="#E6E6E6"/>
<path d="M280.217 290.738H297.248V290.958H280.217V290.738Z" fill="#E6E6E6"/>
<path d="M61.0401 299.939H99.0327V300.159H61.0401V299.939Z" fill="#E6E6E6"/>
<path d="M47.6339 299.939H53.2021V300.159H47.6339V299.939Z" fill="#E6E6E6"/>
<path d="M89.4178 292.215H171.825V292.435H89.4178V292.215Z" fill="#E6E6E6"/>
<path d="M231.351 248.769H401.206C402.536 248.767 403.812 248.236 404.752 247.295C405.692 246.353 406.22 245.077 406.22 243.746V4.9789C406.208 3.6559 405.675 2.39091 404.736 1.45867C403.797 0.526442 402.529 0.00226635 401.206 0H231.351C230.019 0 228.742 0.529195 227.8 1.47117C226.858 2.41314 226.328 3.69073 226.328 5.02288V243.746C226.328 245.078 226.858 246.356 227.8 247.298C228.742 248.24 230.019 248.769 231.351 248.769ZM401.206 0.175933C402.478 0.178264 403.697 0.685315 404.596 1.58579C405.495 2.48627 406 3.70659 406 4.9789V243.746C406 245.018 405.495 246.239 404.596 247.139C403.697 248.04 402.478 248.547 401.206 248.549H231.351C230.078 248.547 228.858 248.04 227.958 247.14C227.057 246.239 226.551 245.019 226.548 243.746V4.9789C226.551 3.70579 227.057 2.48548 227.958 1.58526C228.858 0.68503 230.078 0.178259 231.351 0.175933H401.206Z" fill="#E6E6E6"/>
<path d="M41.0716 248.769H210.935C212.266 248.767 213.542 248.237 214.484 247.295C215.425 246.354 215.955 245.077 215.958 243.746V4.9789C215.944 3.6551 215.409 2.39011 214.468 1.45812C213.528 0.526134 212.259 0.00224164 210.935 0H41.0716C39.75 0.00457821 38.4836 0.529777 37.5467 1.46176C36.6097 2.39375 36.0779 3.65742 36.0663 4.9789V243.746C36.0663 245.075 36.593 246.35 37.5312 247.292C38.4694 248.233 39.7425 248.764 41.0716 248.769ZM210.935 0.175933C212.208 0.178259 213.428 0.68503 214.328 1.58526C215.229 2.48548 215.735 3.70579 215.738 4.9789V243.746C215.735 245.019 215.229 246.239 214.328 247.14C213.428 248.04 212.208 248.547 210.935 248.549H41.0716C39.7985 248.547 38.5782 248.04 37.6779 247.14C36.7777 246.239 36.2709 245.019 36.2686 243.746V4.9789C36.2709 3.70579 36.7777 2.48548 37.6779 1.58526C38.5782 0.68503 39.7985 0.178259 41.0716 0.175933H210.935Z" fill="#E6E6E6"/>
<path d="M71.2355 168.113H132.874V288.002H71.2355V168.113Z" fill="#F5F5F5"/>
<path d="M71.2354 168.113H76.3198V288.002H71.2354V168.113Z" fill="#F0F0F0"/>
<path d="M270.039 197.432L128.123 197.432V171.534L270.039 171.534V197.432Z" fill="#E0E0E0"/>
<path d="M210.864 288.09H271.711C271.944 288.09 272.168 287.997 272.333 287.832C272.498 287.667 272.59 287.443 272.59 287.21C272.59 286.977 272.498 286.753 272.333 286.588C272.168 286.423 271.944 286.331 271.711 286.331H210.864C202.068 286.331 200.898 283.762 200.898 273.575V145.144C200.898 144.911 200.805 144.687 200.64 144.522C200.475 144.358 200.251 144.265 200.018 144.265C199.785 144.265 199.561 144.358 199.396 144.522C199.231 144.687 199.138 144.911 199.138 145.144V273.575C199.138 284.466 200.827 288.09 210.864 288.09Z" fill="#E0E0E0"/>
<path d="M264.585 177.569L72.625 177.569V168.579L264.585 168.579V177.569Z" fill="#F0F0F0"/>
<path d="M263.195 168.113H324.833V288.002H263.195V168.113Z" fill="#F5F5F5"/>
<path d="M263.204 168.113H268.289V288.002H263.204V168.113Z" fill="#F0F0F0"/>
<path d="M306.844 288.002V74.5075H359.738V288.002H306.844Z" fill="#FAFAFA"/>
<path d="M309.748 127.833V80.7443H356.836V127.833H309.748Z" fill="#F5F5F5"/>
<path d="M343.72 80.111H322.837C322.837 81.4058 323.351 82.6476 324.266 83.5631C325.182 84.4787 326.424 84.9931 327.719 84.9931H338.802C339.446 84.9977 340.085 84.8749 340.682 84.6316C341.278 84.3883 341.82 84.0295 342.277 83.5756C342.734 83.1218 343.097 82.5821 343.345 81.9874C343.592 81.3928 343.72 80.7551 343.72 80.111Z" fill="#E0E0E0"/>
<path d="M309.756 179.144V132.055H356.845V179.144H309.756Z" fill="#F5F5F5"/>
<path d="M309.748 230.454V183.366H356.836V230.454H309.748Z" fill="#F5F5F5"/>
<path d="M309.748 281.774V234.685H356.836V281.774H309.748Z" fill="#F5F5F5"/>
<path d="M343.72 131.431H322.837C322.839 132.725 323.354 133.965 324.269 134.88C325.184 135.795 326.425 136.31 327.719 136.313H338.802C339.446 136.316 340.084 136.192 340.68 135.949C341.276 135.705 341.818 135.346 342.275 134.893C342.732 134.439 343.094 133.9 343.342 133.306C343.59 132.712 343.719 132.074 343.72 131.431Z" fill="#E0E0E0"/>
<path d="M343.72 182.741H322.837C322.837 184.036 323.351 185.278 324.266 186.194C325.182 187.109 326.424 187.623 327.719 187.623H338.802C339.446 187.628 340.085 187.505 340.682 187.262C341.278 187.019 341.82 186.66 342.277 186.206C342.734 185.752 343.097 185.212 343.345 184.618C343.592 184.023 343.72 183.385 343.72 182.741Z" fill="#E0E0E0"/>
<path d="M343.72 234.052H322.837C322.837 235.347 323.351 236.589 324.266 237.504C325.182 238.42 326.424 238.934 327.719 238.934H338.802C339.446 238.939 340.085 238.816 340.682 238.573C341.278 238.33 341.82 237.971 342.277 237.517C342.734 237.063 343.097 236.523 343.345 235.929C343.592 235.334 343.72 234.696 343.72 234.052Z" fill="#E0E0E0"/>
<path d="M359.739 288.002V74.5075H386.155V288.002H359.739Z" fill="#F0F0F0"/>
<path d="M207.258 168.113H220.549L217.321 142.233H204.02L207.258 168.113Z" fill="#F0F0F0"/>
<path d="M204.311 168.113H217.611L214.374 142.233H201.082L204.311 168.113Z" fill="#F5F5F5"/>
<path d="M175.792 168.113H185.407L187.245 165.183H177.639L175.792 168.113Z" fill="#F0F0F0"/>
<path d="M124.279 168.113H182.469L184.307 165.183H132.125L124.279 168.113Z" fill="#FAFAFA"/>
<path d="M249.42 160.688H245.215C243.246 160.688 241.358 161.47 239.965 162.863C238.573 164.255 237.791 166.143 237.791 168.113H256.862C256.862 167.136 256.669 166.169 256.295 165.267C255.921 164.365 255.372 163.546 254.681 162.856C253.99 162.167 253.169 161.62 252.266 161.248C251.364 160.876 250.396 160.686 249.42 160.688Z" fill="#F0F0F0"/>
<path d="M202.701 155.173H215.993L214.374 142.233H201.082L202.701 155.173Z" fill="#F0F0F0"/>
<path d="M251.584 152.076H157.46C157.275 152.077 157.092 152.037 156.923 151.961C156.754 151.885 156.603 151.774 156.481 151.635C156.358 151.496 156.267 151.332 156.213 151.155C156.159 150.978 156.143 150.791 156.167 150.607L163.415 92.6198C163.454 92.3041 163.607 92.0136 163.845 91.8029C164.083 91.5922 164.39 91.476 164.708 91.4762H258.806C258.991 91.4761 259.173 91.5152 259.341 91.5908C259.509 91.6664 259.659 91.777 259.782 91.915C259.904 92.0531 259.995 92.2155 260.05 92.3916C260.105 92.5677 260.122 92.7534 260.099 92.9365L252.851 150.933C252.813 151.244 252.664 151.531 252.431 151.741C252.198 151.951 251.898 152.07 251.584 152.076Z" fill="#F0F0F0"/>
<path d="M250.159 152.076H156.096C155.911 152.077 155.728 152.037 155.559 151.961C155.39 151.885 155.239 151.774 155.117 151.635C154.995 151.496 154.903 151.332 154.849 151.155C154.795 150.978 154.779 150.791 154.803 150.607L162.052 92.6198C162.092 92.3049 162.246 92.0154 162.483 91.8051C162.721 91.5947 163.027 91.4779 163.345 91.4762H257.407C257.592 91.4761 257.774 91.5152 257.942 91.5908C258.11 91.6664 258.26 91.777 258.383 91.915C258.505 92.0531 258.597 92.2155 258.651 92.3916C258.706 92.5677 258.723 92.7534 258.7 92.9365L251.452 150.933C251.413 151.248 251.26 151.539 251.022 151.75C250.784 151.96 250.477 152.076 250.159 152.076Z" fill="#F5F5F5"/>
<path d="M157.838 148.865L164.62 94.5902C164.633 94.5016 164.677 94.4207 164.745 94.3625C164.813 94.3042 164.9 94.2726 164.99 94.2735H255.305C255.356 94.2717 255.408 94.2812 255.456 94.3015C255.503 94.3218 255.546 94.3524 255.58 94.3911C255.615 94.4297 255.64 94.4755 255.655 94.5251C255.67 94.5747 255.673 94.627 255.665 94.6782L248.883 148.962C248.872 149.05 248.83 149.131 248.763 149.189C248.697 149.248 248.611 149.28 248.523 149.279H158.199C158.147 149.278 158.096 149.266 158.049 149.245C158.002 149.223 157.96 149.191 157.926 149.152C157.892 149.113 157.867 149.068 157.852 149.018C157.837 148.969 157.832 148.917 157.838 148.865Z" fill="#E0E0E0"/>
<path d="M192.215 168.113H213.873V167.84C213.873 167.268 213.646 166.72 213.241 166.316C212.837 165.912 212.289 165.685 211.717 165.685H194.371C193.799 165.685 193.251 165.912 192.847 166.316C192.442 166.72 192.215 167.268 192.215 167.84V168.113Z" fill="#FAFAFA"/>
<path d="M211.348 168.113H226.039V167.84C226.039 167.268 225.811 166.72 225.407 166.316C225.003 165.912 224.455 165.685 223.883 165.685H213.503C212.932 165.685 212.384 165.912 211.979 166.316C211.575 166.72 211.348 167.268 211.348 167.84V168.113Z" fill="#F0F0F0"/>
<path d="M337.386 50.3959V50.3519C337.184 49.6746 336.99 48.9885 336.823 48.3023C336.526 48.7766 336.12 49.1742 335.641 49.463C335.161 49.7518 334.62 49.9237 334.061 49.9649H333.824C332.355 49.8241 330.947 48.3991 330.059 46.1559C330.042 46.1156 330.033 46.0722 330.033 46.0284C330.033 45.9846 330.042 45.9412 330.059 45.9008C330.101 45.8205 330.174 45.7604 330.261 45.7337C331.315 45.4664 332.414 45.4247 333.486 45.6111C334.558 45.7976 335.578 46.208 336.48 46.8157C336.348 46.1647 336.234 45.505 336.137 44.854C335.905 44.8988 335.67 44.9223 335.433 44.9244C333.041 44.9244 331.281 42.7868 331.193 42.6813C331.163 42.6425 331.141 42.597 331.131 42.5484C331.121 42.4998 331.122 42.4496 331.135 42.4016C331.148 42.3537 331.172 42.3094 331.205 42.2724C331.238 42.2354 331.279 42.2068 331.325 42.1887C331.881 41.9127 332.489 41.7575 333.109 41.7333C333.729 41.709 334.348 41.8162 334.923 42.0479C335.538 42.3605 336.035 42.8635 336.34 43.4818C336.788 42.1053 337.607 40.8792 338.708 39.9386C339.808 38.998 341.147 38.3794 342.576 38.151C342.621 38.1405 342.667 38.1406 342.711 38.1513C342.756 38.162 342.797 38.183 342.831 38.2126C342.868 38.2385 342.899 38.2727 342.92 38.3124C342.941 38.3521 342.953 38.3962 342.955 38.4413C343.078 40.6141 343.007 43.2794 341.38 44.5462C340.699 45.0481 339.868 45.3026 339.022 45.2675C338.265 45.2492 337.514 45.1309 336.788 44.9156C337.021 46.4877 337.358 48.0424 337.8 49.569C339.392 47.3999 341.65 45.8118 344.23 45.0476C344.312 45.0286 344.397 45.0418 344.469 45.0844C344.542 45.127 344.594 45.1957 344.617 45.2763C345.11 47.15 344.855 48.6718 343.887 49.6746C343.395 50.1167 342.819 50.4551 342.193 50.6697C341.568 50.8843 340.905 50.9707 340.245 50.9237C339.536 50.9192 338.829 50.8456 338.134 50.7038C338.539 51.9881 339.014 53.246 339.462 54.4424C340.439 53.5627 343.315 51.3811 346.447 52.296C346.531 52.3239 346.601 52.384 346.64 52.4631C346.658 52.5035 346.666 52.5469 346.666 52.5907C346.666 52.6345 346.658 52.6779 346.64 52.7182C345.761 54.7942 344.819 55.9466 343.606 56.3425C343.282 56.4491 342.943 56.5026 342.603 56.5008C341.673 56.4613 340.767 56.1956 339.964 55.7267C340.632 57.3189 341.345 58.8055 342.022 60.125C342.826 59.3051 343.836 58.7172 344.946 58.423C346.056 58.1289 347.225 58.1395 348.329 58.4536C348.405 58.4686 348.472 58.5112 348.517 58.573C348.563 58.6349 348.584 58.7115 348.576 58.7879C348.498 59.4532 348.246 60.0863 347.846 60.6236C347.446 61.1609 346.912 61.5836 346.297 61.8491C345.833 62.0487 345.333 62.1505 344.828 62.1482C344.128 62.1395 343.44 61.9614 342.823 61.6292C343.509 62.9047 344.142 63.9691 344.635 64.7784H350.616C351.567 63.151 352.666 61.1278 353.739 58.8583C353.239 59.0075 352.721 59.0874 352.2 59.0958C351.558 59.1038 350.924 58.9639 350.345 58.6871C349.766 58.4103 349.259 58.0039 348.863 57.4995C348.466 56.9951 348.191 56.4061 348.059 55.7784C347.927 55.1506 347.941 54.5008 348.101 53.8794C348.121 53.8072 348.167 53.7451 348.231 53.7046C348.294 53.6641 348.37 53.648 348.444 53.6595C349.665 53.7786 350.84 54.1901 351.869 54.8592C352.898 55.5283 353.751 56.4354 354.355 57.5036C355.059 55.9202 355.745 54.2401 356.343 52.5071C355.582 52.9403 354.729 53.1875 353.854 53.2284C353.506 53.2324 353.161 53.1758 352.833 53.0613C351.074 52.4807 350.062 50.3607 349.2 48.1616C349.181 48.1219 349.171 48.0782 349.171 48.034C349.171 47.9898 349.181 47.9462 349.2 47.9065C349.22 47.8661 349.249 47.8304 349.284 47.8016C349.319 47.7728 349.359 47.7516 349.403 47.7393C352.921 46.7541 355.815 50.1408 356.713 51.3548C357.182 49.89 357.572 48.4013 357.882 46.8949C357.143 47.0395 356.392 47.1161 355.639 47.1236C354.891 47.1783 354.139 47.0785 353.431 46.8303C352.723 46.5821 352.073 46.1909 351.523 45.6809C350.458 44.555 350.203 42.866 350.775 40.8076C350.785 40.7672 350.803 40.7294 350.828 40.6962C350.854 40.6631 350.885 40.6354 350.921 40.6149C350.957 40.5943 350.997 40.5813 351.039 40.5766C351.08 40.572 351.122 40.5757 351.162 40.5877C353.969 41.4637 356.413 43.2338 358.12 45.6281L358.252 44.8277C358.261 44.7584 358.292 44.6938 358.34 44.6429C358.485 44.1224 358.738 43.6382 359.082 43.2215C359.426 42.8048 359.853 42.4649 360.337 42.2238C360.971 41.979 361.651 41.8712 362.33 41.9076C363.009 41.944 363.673 42.1237 364.278 42.435C364.324 42.4551 364.366 42.4852 364.399 42.5232C364.433 42.5613 364.457 42.6062 364.471 42.6549C364.482 42.7027 364.481 42.7523 364.469 42.7998C364.457 42.8472 364.433 42.891 364.401 42.9276C364.313 43.0419 362.378 45.3291 359.774 45.3291C359.493 45.3254 359.213 45.296 358.938 45.2411C358.824 45.9888 358.683 46.7365 358.525 47.4754C359.528 46.8151 360.66 46.3748 361.845 46.1838C363.031 45.9927 364.244 46.0552 365.404 46.3671C365.491 46.3938 365.563 46.4539 365.606 46.5342C365.623 46.576 365.632 46.6209 365.632 46.6662C365.632 46.7114 365.623 46.7563 365.606 46.7981C364.594 49.2436 363.029 50.7918 361.41 50.9237H361.19C360.372 50.9237 359.264 50.5455 358.138 49.0412C357.694 50.7516 357.16 52.4371 356.537 54.0905C358.058 53.3692 361.48 52.1289 363.926 54.0201C363.959 54.0444 363.988 54.0753 364.009 54.1108C364.031 54.1464 364.045 54.1859 364.05 54.2269C364.056 54.268 364.053 54.3098 364.043 54.3499C364.032 54.3899 364.013 54.4274 363.987 54.46C362.404 56.6152 360.944 57.6619 359.51 57.6619C358.322 57.6619 357.188 56.9142 356.053 55.4364C355.402 57.055 354.698 58.6032 354.003 60.0282C355.525 59.087 357.196 59.2365 359.167 60.4769C359.212 60.5042 359.25 60.5429 359.276 60.5891C359.303 60.6354 359.316 60.6876 359.316 60.7408C359.32 60.7925 359.31 60.8443 359.286 60.8907C359.263 60.9371 359.228 60.9765 359.184 61.0047C358.011 61.8506 356.625 62.3531 355.182 62.4561C354.437 62.4709 353.708 62.2491 353.097 61.8228C352.534 62.9047 351.98 63.8988 351.47 64.7872H354.188V66.3354H353.203L352.385 74.5339H340.342L339.533 66.3354H338.539V64.7872H343.949C343.35 63.7932 342.585 62.4649 341.767 60.9079C341.743 60.8766 341.725 60.8407 341.714 60.8023C341.503 60.4065 341.301 60.0019 341.09 59.5796C340.732 60.1209 340.25 60.5687 339.684 60.8855C339.117 61.2022 338.483 61.3789 337.835 61.4005C337.7 61.4093 337.565 61.4093 337.43 61.4005C336.714 61.3193 336.034 61.0413 335.465 60.5972C334.897 60.1531 334.463 59.5604 334.211 58.8847C334.185 58.8153 334.185 58.7388 334.21 58.6693C334.236 58.5998 334.286 58.542 334.351 58.5064C335.274 57.9854 336.307 57.6913 337.365 57.6485C338.424 57.6057 339.477 57.8153 340.439 58.2601C339.981 57.3013 339.559 56.2721 339.102 55.2077C339.067 55.1682 339.046 55.1191 339.04 55.0669C338.917 54.7679 338.803 54.4688 338.679 54.1873C337.633 55.5068 336.595 56.1577 335.513 56.1577C334.202 56.1577 332.874 55.1901 331.449 53.1933C331.399 53.1265 331.378 53.043 331.389 52.9607C331.401 52.8785 331.444 52.804 331.51 52.7534C333.753 51.0733 336.788 52.2256 338.213 52.8942C337.923 52.1025 337.659 51.302 337.413 50.4839L337.386 50.3959Z" fill="#E0E0E0"/>
<path d="M85.7938 46.6837H130.78V96.0769H85.7938V46.6837Z" fill="#E0E0E0"/>
<path d="M91.3446 48.707C91.3822 48.716 91.4214 48.716 91.459 48.707C91.5646 48.6366 102.191 42.3206 105.534 42.3206C108.876 42.3206 119.036 48.6366 119.142 48.6982C119.166 48.7141 119.193 48.7248 119.221 48.7299C119.25 48.7349 119.279 48.7341 119.307 48.7276C119.335 48.721 119.361 48.7087 119.384 48.6916C119.407 48.6744 119.427 48.6527 119.441 48.6278C119.471 48.5786 119.48 48.5198 119.467 48.4639C119.454 48.4081 119.419 48.3595 119.371 48.3287C118.948 48.0648 109.035 41.8808 105.534 41.8808C102.033 41.8808 91.6349 48.0384 91.1951 48.3287C91.1702 48.3432 91.1485 48.3625 91.1313 48.3856C91.1142 48.4087 91.1019 48.4351 91.0953 48.4631C91.0888 48.4911 91.088 48.5202 91.093 48.5485C91.0981 48.5768 91.1089 48.6038 91.1247 48.6278C91.1495 48.6612 91.1836 48.6865 91.2227 48.7006C91.2619 48.7147 91.3043 48.7169 91.3446 48.707Z" fill="#EBEBEB"/>
<path d="M80.9292 46.6837H127.393V96.0769H80.9292V46.6837Z" fill="#F5F5F5"/>
<path d="M84.8174 92.18V50.5719H123.496V92.18H84.8174Z" fill="white"/>
<path d="M96.6655 78.8718C92.5259 74.7322 92.5259 68.0207 96.6655 63.8812C100.805 59.7416 107.517 59.7416 111.656 63.8812C115.796 68.0207 115.796 74.7322 111.656 78.8718C107.517 83.0113 100.805 83.0113 96.6655 78.8718Z" fill="#E0E0E0"/>
<path d="M105.059 228.053H65.6321C62.0145 228.056 58.5401 226.639 55.9559 224.108C53.3717 221.576 51.884 218.132 51.8125 214.515L50.3347 142.33C50.3078 140.99 50.5484 139.658 51.0425 138.413C51.5367 137.168 52.2743 136.033 53.2123 135.076C54.1503 134.12 55.2697 133.359 56.5051 132.841C57.7405 132.322 59.067 132.055 60.4069 132.055H85.1254C87.5983 132.054 89.9849 132.964 91.8297 134.611C93.6745 136.258 94.8484 138.527 95.1272 140.984L105.059 228.053Z" fill="#E6E6E6"/>
<path d="M83.542 228.053H125.555C126.077 228.053 126.579 227.845 126.948 227.476C127.318 227.106 127.525 226.605 127.525 226.082V225.898C127.525 224.465 126.956 223.091 125.943 222.078C124.93 221.066 123.557 220.497 122.124 220.497H83.542V228.053Z" fill="#E6E6E6"/>
<path d="M86.8582 288.987C87.0627 288.992 87.2625 288.925 87.423 288.798C87.5836 288.671 87.6949 288.492 87.7378 288.292L100.053 228.932H121.517L133.832 288.292C133.88 288.525 134.019 288.73 134.217 288.861C134.416 288.993 134.659 289.039 134.892 288.992C135.126 288.944 135.33 288.805 135.461 288.606C135.593 288.408 135.639 288.165 135.592 287.932L123.118 227.877C123.077 227.675 122.966 227.494 122.806 227.366C122.645 227.237 122.444 227.169 122.238 227.173H99.367C99.1612 227.169 98.9605 227.237 98.7998 227.366C98.639 227.494 98.5285 227.675 98.4873 227.877L86.0225 287.932C85.9756 288.159 86.0204 288.396 86.1473 288.59C86.2742 288.785 86.4728 288.921 86.6998 288.97C86.7517 288.982 86.8049 288.988 86.8582 288.987Z" fill="#E6E6E6"/>
<path d="M100.238 288.987C100.296 288.996 100.355 288.996 100.414 288.987C100.527 288.964 100.635 288.919 100.73 288.854C100.826 288.79 100.908 288.707 100.972 288.61C101.036 288.514 101.08 288.406 101.102 288.292C101.124 288.179 101.123 288.062 101.1 287.949L88.6262 227.894C88.5851 227.693 88.4746 227.512 88.3138 227.383C88.1531 227.255 87.9524 227.187 87.7466 227.191H64.8753C64.6695 227.187 64.4688 227.255 64.3081 227.383C64.1473 227.512 64.0368 227.693 63.9957 227.894L51.5308 287.949C51.5071 288.065 51.5064 288.184 51.5288 288.299C51.5511 288.415 51.596 288.526 51.661 288.624C51.7259 288.722 51.8096 288.807 51.9073 288.873C52.0049 288.939 52.1146 288.985 52.2302 289.009C52.3457 289.033 52.4647 289.033 52.5805 289.011C52.6963 288.989 52.8066 288.944 52.905 288.879C53.0034 288.814 53.0881 288.73 53.1542 288.633C53.2203 288.535 53.2665 288.425 53.2901 288.31L65.6054 228.95H87.0868L99.4021 288.31C99.4468 288.499 99.5531 288.668 99.7044 288.791C99.8556 288.914 100.043 288.983 100.238 288.987Z" fill="#E6E6E6"/>
<path d="M219.916 327.728C125.719 327.728 49.3576 323.269 49.3576 317.77C49.3576 312.27 125.719 307.812 219.916 307.812C314.112 307.812 390.474 312.27 390.474 317.77C390.474 323.269 314.112 327.728 219.916 327.728Z" fill="#F5F5F5"/>
<path d="M204.865 309.642C205.14 309.641 205.407 309.545 205.621 309.371C205.834 309.196 205.98 308.953 206.035 308.683L222.748 226.381H251.856L268.57 308.683C268.65 308.976 268.838 309.228 269.097 309.387C269.355 309.547 269.665 309.602 269.963 309.542C270.26 309.481 270.524 309.31 270.7 309.062C270.876 308.814 270.951 308.509 270.91 308.208L254.003 224.948C253.947 224.678 253.8 224.436 253.587 224.262C253.374 224.087 253.108 223.991 252.833 223.989H221.781C221.505 223.989 221.238 224.085 221.025 224.26C220.812 224.435 220.666 224.677 220.611 224.948L203.695 308.208C203.633 308.518 203.696 308.84 203.87 309.104C204.045 309.368 204.317 309.552 204.627 309.615L204.865 309.642Z" fill="#FFA401"/>
<path d="M251.584 309.642C251.859 309.639 252.125 309.543 252.338 309.369C252.551 309.194 252.698 308.952 252.754 308.683L269.467 226.381H298.576L315.289 308.683C315.311 308.845 315.366 309.001 315.451 309.141C315.536 309.281 315.648 309.402 315.782 309.497C315.915 309.592 316.067 309.658 316.227 309.692C316.387 309.726 316.552 309.726 316.713 309.694C316.873 309.661 317.025 309.596 317.159 309.503C317.293 309.409 317.407 309.289 317.493 309.149C317.579 309.01 317.635 308.855 317.659 308.693C317.682 308.531 317.672 308.366 317.629 308.208L300.713 224.948C300.658 224.677 300.512 224.435 300.299 224.26C300.086 224.085 299.819 223.989 299.543 223.989H268.491C268.216 223.99 267.951 224.086 267.739 224.261C267.527 224.435 267.383 224.678 267.33 224.948L250.414 308.208C250.352 308.518 250.415 308.84 250.59 309.104C250.764 309.368 251.036 309.552 251.346 309.615L251.584 309.642Z" fill="#FFA401"/>
<path d="M245.048 225.194H298.531C303.441 225.195 308.154 223.271 311.661 219.835C315.167 216.4 317.187 211.726 317.286 206.818L319.274 125.537C319.311 123.72 318.986 121.914 318.317 120.224C317.648 118.535 316.648 116.996 315.377 115.698C314.105 114.399 312.588 113.367 310.913 112.663C309.238 111.958 307.439 111.595 305.622 111.594H272.089C268.733 111.596 265.495 112.833 262.992 115.068C260.489 117.304 258.896 120.382 258.516 123.716L245.048 225.194Z" fill="#FFA401"/>
<path d="M274.218 214.902H221.878C219.934 214.902 218.071 215.674 216.696 217.048C215.322 218.422 214.55 220.286 214.55 222.229V222.485C214.55 223.184 214.828 223.856 215.323 224.351C215.818 224.846 216.489 225.124 217.189 225.124H274.218V214.902Z" fill="#FFA401"/>
<g opacity="0.3">
<path opacity="0.3" d="M204.865 309.642C205.14 309.641 205.407 309.545 205.621 309.371C205.834 309.196 205.98 308.953 206.035 308.683L222.748 226.381H251.856L268.57 308.683C268.65 308.976 268.838 309.228 269.097 309.387C269.355 309.547 269.665 309.602 269.963 309.542C270.26 309.481 270.524 309.31 270.7 309.062C270.876 308.814 270.951 308.509 270.91 308.208L254.003 224.948C253.947 224.678 253.8 224.436 253.587 224.262C253.374 224.087 253.108 223.991 252.833 223.989H221.781C221.505 223.989 221.238 224.085 221.025 224.26C220.812 224.435 220.666 224.677 220.611 224.948L203.695 308.208C203.633 308.518 203.696 308.84 203.87 309.104C204.045 309.368 204.317 309.552 204.627 309.615L204.865 309.642Z" fill="black"/>
<path opacity="0.3" d="M251.584 309.642C251.859 309.639 252.125 309.543 252.338 309.369C252.551 309.194 252.698 308.952 252.754 308.683L269.467 226.381H298.576L315.289 308.683C315.311 308.845 315.366 309.001 315.451 309.141C315.536 309.281 315.648 309.402 315.782 309.497C315.915 309.592 316.067 309.658 316.227 309.692C316.387 309.726 316.552 309.726 316.713 309.694C316.873 309.661 317.025 309.596 317.159 309.503C317.293 309.409 317.407 309.289 317.493 309.149C317.579 309.01 317.635 308.855 317.659 308.693C317.682 308.531 317.672 308.366 317.629 308.208L300.713 224.948C300.658 224.677 300.512 224.435 300.299 224.26C300.086 224.085 299.819 223.989 299.543 223.989H268.491C268.216 223.99 267.951 224.086 267.739 224.261C267.527 224.435 267.383 224.678 267.33 224.948L250.414 308.208C250.352 308.518 250.415 308.84 250.59 309.104C250.764 309.368 251.036 309.552 251.346 309.615L251.584 309.642Z" fill="black"/>
<path opacity="0.3" d="M245.048 225.194H298.531C303.441 225.195 308.154 223.271 311.661 219.835C315.167 216.4 317.187 211.726 317.286 206.818L319.274 125.537C319.311 123.72 318.986 121.914 318.317 120.224C317.648 118.535 316.648 116.996 315.377 115.698C314.105 114.399 312.588 113.367 310.913 112.663C309.238 111.958 307.439 111.595 305.622 111.594H272.089C268.733 111.596 265.495 112.833 262.992 115.068C260.489 117.304 258.896 120.382 258.516 123.716L245.048 225.194Z" fill="black"/>
<path opacity="0.3" d="M274.218 214.902H221.878C219.934 214.902 218.071 215.674 216.696 217.048C215.322 218.422 214.55 220.286 214.55 222.229V222.485C214.55 223.184 214.828 223.856 215.323 224.351C215.818 224.845 216.489 225.124 217.189 225.124H274.218V214.902Z" fill="black"/>
</g>
<path d="M259.932 107.108C259.932 107.108 252.455 116.872 257.293 136.313C262.131 155.753 287.096 145.197 288.609 127.674C290.368 107.02 267.18 121.262 263.099 102.894L259.932 107.108Z" fill="#263238"/>
<path d="M265.359 101.311C268.605 103.598 269.89 106.923 266.301 110.178C262.711 113.433 257.592 113.327 256.044 111.99C254.495 110.653 254.803 103.862 254.803 103.862L265.359 101.311Z" fill="#FFA401"/>
<path opacity="0.8" d="M265.359 101.311C268.605 103.598 269.89 106.923 266.301 110.178C262.711 113.433 257.592 113.327 256.044 111.99C254.495 110.653 254.803 103.862 254.803 103.862L265.359 101.311Z" fill="white"/>
<path d="M224.367 144.582C224.279 144.977 224.129 145.593 223.989 146.112L223.566 147.766C223.267 148.874 222.942 149.983 222.599 151.091C221.948 153.325 221.227 155.551 220.47 157.776C219.714 160.002 218.939 162.175 218.095 164.427C217.681 165.526 217.268 166.635 216.828 167.734L216.318 169.054C216.216 169.28 216.083 169.49 215.922 169.678C214.67 170.945 213.144 171.908 211.462 172.493C209.408 173.32 207.29 173.979 205.129 174.464C202.894 174.983 200.598 175.414 198.276 175.774C195.954 176.135 193.57 176.425 191.283 176.654L191.204 181.387C196.222 181.906 201.28 181.906 206.299 181.387C208.921 181.116 211.515 180.613 214.048 179.882C215.421 179.468 216.756 178.942 218.042 178.308C219.522 177.589 220.877 176.635 222.053 175.484C222.736 174.804 223.328 174.038 223.813 173.206C223.945 172.995 224.059 172.757 224.182 172.537L224.411 172.062L224.816 171.183C225.361 170.065 225.906 168.948 226.408 167.813C227.428 165.544 228.422 163.257 229.311 160.926C230.199 158.595 231.07 156.246 231.809 153.888C232.17 152.674 232.521 151.469 232.847 150.229L233.331 148.373C233.471 147.704 233.603 147.15 233.744 146.358L224.367 144.582Z" fill="#E58A7B"/>
<path d="M227.358 134.589C223.584 135.547 220.954 151.065 220.954 151.065L231.343 158.102C231.343 158.102 241.309 142.444 238.38 138.301C235.38 134.043 232.865 133.216 227.358 134.589Z" fill="#FFA401"/>
<path opacity="0.5" d="M227.358 134.589C223.584 135.547 220.954 151.065 220.954 151.065L231.343 158.102C231.343 158.102 241.309 142.444 238.38 138.301C235.38 134.043 232.865 133.216 227.358 134.589Z" fill="white"/>
<path opacity="0.2" d="M228.712 138.494L237.747 145.655C235.987 150.004 233.847 154.19 231.351 158.164L224.147 153.264L228.712 138.494Z" fill="#FFA401"/>
<path d="M227.358 134.589C227.358 134.589 222.96 136.119 231.756 189.805H268.896C268.271 174.684 268.254 165.359 275.476 134.316C270.275 133.245 265.004 132.551 259.703 132.24C254.083 131.839 248.442 131.839 242.822 132.24C235.574 132.935 227.358 134.589 227.358 134.589Z" fill="#FFA401"/>
<path opacity="0.5" d="M227.358 134.589C227.358 134.589 222.96 136.119 231.756 189.805H268.896C268.271 174.684 268.254 165.359 275.476 134.316C270.275 133.245 265.004 132.551 259.703 132.24C254.083 131.839 248.442 131.839 242.822 132.24C235.574 132.935 227.358 134.589 227.358 134.589Z" fill="white"/>
<path d="M192.646 176.61L186.163 170.03L185.283 179.302C185.283 179.302 190.148 182.592 193.508 180.824L192.646 176.61Z" fill="#E58A7B"/>
<path d="M178.51 169.054L178.22 176.848L185.292 179.302L186.146 170.03L178.51 169.054Z" fill="#E58A7B"/>
<path d="M189.603 301.109H180.454L179.047 279.918H188.195L189.603 301.109Z" fill="#E58A7B"/>
<path d="M225.009 301.109H215.861L212.923 279.918H222.071L225.009 301.109Z" fill="#E58A7B"/>
<path d="M215.289 300.044H225.572C225.749 300.041 225.922 300.102 226.057 300.218C226.191 300.333 226.279 300.493 226.302 300.669L227.472 308.806C227.493 309.011 227.471 309.219 227.407 309.415C227.342 309.612 227.238 309.792 227.099 309.946C226.961 310.099 226.792 310.222 226.603 310.306C226.414 310.39 226.21 310.433 226.003 310.433C222.423 310.372 220.725 310.161 216.178 310.161C213.398 310.161 206.264 310.451 202.42 310.451C198.575 310.451 198.373 306.651 199.974 306.308C207.143 304.759 211.348 302.64 213.767 300.607C214.192 300.245 214.731 300.045 215.289 300.044Z" fill="#263238"/>
<path d="M179.742 300.044H190.007C190.184 300.043 190.355 300.105 190.49 300.22C190.624 300.335 190.712 300.494 190.737 300.669L191.907 308.806C191.928 309.011 191.906 309.219 191.842 309.415C191.777 309.612 191.673 309.792 191.534 309.946C191.396 310.099 191.227 310.222 191.038 310.306C190.849 310.39 190.645 310.433 190.438 310.433C186.858 310.372 185.16 310.161 180.613 310.161C177.824 310.161 172.08 310.451 168.236 310.451C164.392 310.451 164.189 306.651 165.79 306.308C172.959 304.759 175.783 302.639 178.193 300.607C178.626 300.242 179.175 300.042 179.742 300.044Z" fill="#263238"/>
<path d="M234.651 94.7574C231.361 94.9685 229.689 111.471 239.339 110.512C248.989 109.553 234.651 94.7574 234.651 94.7574Z" fill="#263238"/>
<path d="M179.047 279.918L179.777 290.843H188.925L188.204 279.918H179.047Z" fill="#CF6F64"/>
<path d="M222.071 279.918H212.914L214.435 290.843H223.593L222.071 279.918Z" fill="#CF6F64"/>
<path opacity="0.2" d="M271.763 151.575C270.884 156.079 270.259 159.967 269.784 163.468L267.611 146.658L271.763 151.575Z" fill="#FFA401"/>
<path d="M258.032 113.274C256.967 118.702 255.903 128.651 259.703 132.275C259.703 132.275 258.217 137.782 248.127 137.782C237.034 137.782 242.849 132.275 242.849 132.275C248.91 130.832 248.751 126.337 247.696 122.124L258.032 113.274Z" fill="#E58A7B"/>
<path d="M250.132 138.96L246.754 137.747L247.203 136.823L250.132 138.96Z" fill="#263238"/>
<path d="M243.579 138.257L246.754 137.747L246.068 136.717L243.579 138.257Z" fill="#263238"/>
<path d="M258.472 129.715L260.768 131.95C260.837 132.02 260.875 132.115 260.875 132.213C260.875 132.312 260.837 132.407 260.768 132.477L251.091 143.5C250.631 140.882 249.23 138.523 247.151 136.867C255.155 133.841 257.24 130.709 257.953 129.83C257.969 129.778 257.999 129.733 258.039 129.696C258.079 129.66 258.127 129.635 258.18 129.624C258.232 129.612 258.287 129.614 258.338 129.63C258.389 129.647 258.435 129.676 258.472 129.715Z" fill="#FFA401"/>
<path d="M244.643 131.404L241.793 132.178C241.708 132.202 241.63 132.248 241.569 132.311C241.507 132.375 241.463 132.453 241.441 132.539C240.636 136.154 240.788 139.917 241.881 143.456C242.286 141.96 243.64 138.38 246.068 136.717C243.429 134.896 244.494 132.548 244.872 131.659C244.884 131.626 244.887 131.59 244.881 131.556C244.874 131.521 244.858 131.489 244.835 131.463C244.811 131.436 244.781 131.417 244.747 131.407C244.713 131.396 244.678 131.396 244.643 131.404Z" fill="#FFA401"/>
<path d="M253.801 116.881L247.643 122.115C247.899 123.096 248.072 124.096 248.162 125.106C250.475 124.772 253.651 122.238 253.897 119.828C254.048 118.848 254.015 117.849 253.801 116.881Z" fill="#CF6F64"/>
<path d="M258.621 98.9709C259.668 107.988 260.31 111.788 256.615 117.171C251.073 125.273 239.761 124.587 236.04 116.063C232.689 108.392 231.545 94.9509 239.638 89.8137C241.418 88.6773 243.459 88.0151 245.568 87.8898C247.676 87.7646 249.781 88.1806 251.683 89.0982C253.585 90.0158 255.221 91.4046 256.436 93.1326C257.65 94.8605 258.402 96.8703 258.621 98.9709Z" fill="#E58A7B"/>
<path d="M238.002 84.0783C252.912 78.1933 264.11 84.8348 266.424 94.2736C270.057 108.929 258.454 109.958 258.454 109.958L257.002 106.211C254.918 107.469 249.085 106.914 250.845 96.0329C251.883 89.8752 244.089 98.452 234.201 97.4931C231.571 97.238 227.973 88.0368 238.002 84.0783Z" fill="#263238"/>
<path d="M232.926 87.7025C234.888 84.6852 238.899 82.099 247.212 80.8763C247.212 80.8763 242.893 81.8527 241.494 85.0107C240.095 88.1687 230.56 91.3355 232.926 87.7025Z" fill="#263238"/>
<path d="M261.489 106.774C261.55 107.641 261.439 108.511 261.162 109.335C260.886 110.16 260.45 110.921 259.879 111.577C258.339 113.336 256.316 112.254 255.683 110.143C255.12 108.234 255.234 105.032 257.293 104.064C259.351 103.097 261.322 104.627 261.489 106.774Z" fill="#E58A7B"/>
<path d="M231.73 189.84C231.73 189.84 170.382 195.549 170.98 223.443C171.605 252.472 177.815 288.732 177.815 288.732H190.491C190.491 288.732 191.573 258.049 191.943 229.469C192.127 214.585 251.408 211.603 251.408 211.603L259.061 189.84H231.73Z" fill="#263238"/>
<path d="M241.547 189.84C241.547 189.84 201.9 202.991 200.898 219.265C199.059 249.226 212.228 288.758 212.228 288.758H224.71C224.71 288.758 223.998 262.544 222.511 235.398C220.628 201.285 280.815 234.923 268.896 189.867L241.547 189.84Z" fill="#263238"/>
<path d="M245.576 103.888C245.708 104.61 245.426 105.269 244.951 105.357C244.476 105.445 243.992 104.917 243.861 104.196C243.729 103.475 244.01 102.806 244.485 102.727C244.96 102.648 245.426 103.158 245.576 103.888Z" fill="#263238"/>
<path d="M237.368 105.357C237.5 106.079 237.219 106.738 236.744 106.826C236.269 106.914 235.776 106.387 235.644 105.665C235.512 104.944 235.794 104.275 236.269 104.196C236.744 104.117 237.236 104.627 237.368 105.357Z" fill="#263238"/>
<path d="M236.489 104.196L234.65 104.003C234.65 104.003 235.75 105.208 236.489 104.196Z" fill="#263238"/>
<path d="M239.761 106.211C239.409 107.983 238.817 109.7 238.002 111.313C238.416 111.501 238.866 111.599 239.321 111.599C239.776 111.599 240.226 111.501 240.641 111.313L239.761 106.211Z" fill="#DF5753"/>
<path d="M243.667 113.661C244.632 113.508 245.548 113.13 246.339 112.557C247.131 111.983 247.777 111.232 248.223 110.363C248.238 110.329 248.239 110.29 248.226 110.256C248.213 110.221 248.187 110.193 248.153 110.178C248.118 110.166 248.08 110.167 248.045 110.182C248.011 110.196 247.984 110.223 247.968 110.257C247.545 111.078 246.936 111.79 246.189 112.333C245.442 112.877 244.578 113.239 243.667 113.389C243.63 113.397 243.598 113.419 243.577 113.45C243.556 113.481 243.547 113.519 243.552 113.556C243.559 113.583 243.573 113.607 243.594 113.626C243.614 113.645 243.639 113.657 243.667 113.661Z" fill="#263238"/>
<path d="M247.502 100.642C247.54 100.644 247.578 100.637 247.613 100.621C247.648 100.606 247.68 100.583 247.705 100.554C247.731 100.53 247.752 100.5 247.767 100.466C247.782 100.433 247.789 100.397 247.789 100.361C247.789 100.324 247.782 100.289 247.767 100.255C247.752 100.222 247.731 100.192 247.705 100.167C247.231 99.7043 246.653 99.3619 246.019 99.169C245.385 98.9761 244.714 98.9384 244.063 99.0589C243.994 99.0794 243.936 99.1255 243.9 99.1876C243.864 99.2498 243.853 99.3233 243.869 99.3932C243.877 99.4287 243.893 99.4621 243.914 99.4916C243.935 99.5211 243.963 99.546 243.994 99.5649C244.025 99.5837 244.059 99.5962 244.096 99.6014C244.132 99.6067 244.168 99.6047 244.204 99.5955C244.766 99.4962 245.343 99.533 245.888 99.7029C246.433 99.8728 246.929 100.171 247.335 100.572C247.382 100.612 247.441 100.637 247.502 100.642Z" fill="#263238"/>
<path d="M232.882 102.085C232.937 102.087 232.991 102.072 233.036 102.042C233.082 102.012 233.117 101.969 233.137 101.918C233.352 101.39 233.689 100.92 234.12 100.547C234.551 100.174 235.065 99.9083 235.618 99.7715C235.69 99.7585 235.754 99.7183 235.796 99.6593C235.839 99.6002 235.857 99.5269 235.847 99.4548C235.834 99.3813 235.792 99.316 235.731 99.2731C235.67 99.2302 235.595 99.2133 235.521 99.2261C234.877 99.3754 234.278 99.678 233.776 100.108C233.273 100.539 232.882 101.084 232.636 101.698C232.606 101.766 232.604 101.842 232.631 101.912C232.657 101.981 232.709 102.037 232.777 102.067L232.882 102.085Z" fill="#263238"/>
<path d="M269.925 147.59C270.725 150.229 271.587 152.868 272.352 155.577C273.118 158.287 273.927 160.926 274.622 163.609C275.317 166.292 275.977 168.948 276.469 171.526C276.707 172.828 276.927 174.121 277.05 175.335C277.12 175.942 277.155 176.513 277.164 177.041C277.164 177.164 277.164 177.041 277.252 176.839C277.36 176.6 277.509 176.383 277.692 176.197C278.141 175.81 278.308 175.88 278.105 175.942C277.737 176.031 277.358 176.07 276.98 176.056C275.795 176.015 274.617 175.865 273.461 175.607C270.841 175.03 268.258 174.293 265.729 173.399C260.53 171.64 255.252 169.494 250.115 167.303L247.845 171.446C252.719 174.642 257.813 177.487 263.09 179.962C265.822 181.25 268.641 182.347 271.526 183.243C273.132 183.732 274.782 184.065 276.452 184.237C277.495 184.344 278.547 184.317 279.583 184.158C280.271 184.055 280.942 183.862 281.58 183.586C282.405 183.229 283.152 182.715 283.779 182.073C284.999 180.787 285.698 179.094 285.741 177.323C285.785 176.443 285.794 175.563 285.741 174.772C285.679 173.144 285.53 171.605 285.328 170.101C284.905 167.092 284.36 164.189 283.691 161.304C283.023 158.419 282.31 155.63 281.527 152.833C280.744 150.035 279.9 147.291 278.888 144.494L269.925 147.59Z" fill="#E58A7B"/>
<path d="M212.157 301.584C212.968 301.564 213.773 301.452 214.559 301.25C214.588 301.244 214.615 301.23 214.636 301.209C214.657 301.187 214.672 301.161 214.677 301.131C214.683 301.102 214.68 301.071 214.668 301.044C214.656 301.016 214.637 300.993 214.611 300.977C214.304 300.775 211.559 298.998 210.512 299.464C210.402 299.513 210.308 299.592 210.24 299.691C210.172 299.791 210.132 299.907 210.125 300.027C210.081 300.222 210.089 300.425 210.148 300.617C210.206 300.808 210.314 300.981 210.459 301.118C210.953 301.468 211.554 301.633 212.157 301.584ZM214.136 301.039C212.439 301.39 211.163 301.346 210.671 300.889C210.563 300.785 210.485 300.655 210.441 300.512C210.398 300.369 210.392 300.217 210.424 300.071C210.428 300.002 210.45 299.935 210.489 299.877C210.527 299.82 210.581 299.774 210.644 299.745C211.313 299.446 213.169 300.44 214.136 301.039Z" fill="#FFA401"/>
<path d="M214.524 301.258H214.603C214.628 301.244 214.648 301.224 214.662 301.199C214.676 301.174 214.683 301.146 214.682 301.118C214.682 301.012 214.682 298.408 213.697 297.546C213.581 297.436 213.442 297.353 213.289 297.306C213.137 297.259 212.975 297.248 212.817 297.274C212.659 297.272 212.505 297.326 212.381 297.425C212.258 297.525 212.172 297.664 212.14 297.819C211.955 298.769 213.486 300.713 214.445 301.258H214.524ZM212.976 297.546C213.169 297.548 213.355 297.623 213.495 297.757C214.189 298.373 214.33 300.115 214.374 300.81C213.495 300.176 212.316 298.575 212.465 297.863C212.465 297.749 212.553 297.599 212.87 297.555L212.976 297.546Z" fill="#FFA401"/>
<path d="M176.302 301.584C177.269 301.562 178.232 301.454 179.179 301.258C179.21 301.251 179.238 301.234 179.259 301.211C179.281 301.187 179.296 301.158 179.302 301.126C179.306 301.094 179.3 301.061 179.284 301.032C179.269 301.004 179.244 300.981 179.214 300.968C178.809 300.757 175.194 298.91 174.094 299.508C173.999 299.561 173.918 299.637 173.859 299.729C173.801 299.821 173.767 299.927 173.76 300.036C173.735 300.219 173.756 300.406 173.82 300.579C173.885 300.752 173.991 300.907 174.129 301.03C174.769 301.457 175.536 301.653 176.302 301.584ZM178.668 301.039C177.49 301.241 175.15 301.531 174.34 300.81C174.239 300.715 174.162 300.598 174.115 300.469C174.067 300.339 174.051 300.199 174.068 300.062C174.068 300.002 174.085 299.944 174.116 299.893C174.147 299.842 174.191 299.8 174.244 299.772C174.965 299.385 177.393 300.414 178.668 301.039Z" fill="#FFA401"/>
<path d="M179.143 301.258C179.172 301.267 179.203 301.267 179.231 301.258C179.253 301.242 179.27 301.22 179.282 301.196C179.294 301.172 179.301 301.145 179.302 301.118C179.302 301.012 179.082 298.575 177.956 297.599C177.798 297.465 177.614 297.364 177.416 297.303C177.218 297.243 177.009 297.224 176.804 297.247C176.241 297.3 176.082 297.581 176.038 297.801C175.88 298.813 178.009 300.748 179.082 301.232L179.143 301.258ZM176.971 297.546C177.26 297.545 177.539 297.652 177.754 297.845C178.58 298.531 178.871 300.176 178.959 300.836C177.806 300.194 176.232 298.54 176.32 297.863C176.32 297.793 176.32 297.599 176.804 297.555L176.971 297.546Z" fill="#FFA401"/>
<path d="M250.326 167.444L241.652 165.245L245.787 173.575C245.787 173.575 251.654 173.83 253.589 170.558L250.326 167.444Z" fill="#E58A7B"/>
<path d="M234.641 168.403L238.477 175.194L245.787 173.575L241.652 165.245L234.641 168.403Z" fill="#E58A7B"/>
<path d="M244.705 102.727L242.867 102.534C242.867 102.534 244.001 103.739 244.705 102.727Z" fill="#263238"/>
<path d="M269.45 187.659L269.749 190.984C269.872 191.248 269.573 191.512 269.142 191.512H231.545C231.211 191.512 230.938 191.344 230.912 191.133L230.578 187.808C230.578 187.579 230.85 187.386 231.211 187.386H268.843C268.959 187.376 269.075 187.396 269.182 187.444C269.288 187.492 269.38 187.565 269.45 187.659Z" fill="#FFA401"/>
<path d="M264.392 191.872H265.403C265.605 191.872 265.755 191.767 265.746 191.644L265.271 187.316C265.271 187.192 265.078 187.087 264.875 187.087H263.899C263.697 187.087 263.547 187.192 263.556 187.316L264.031 191.644C264.022 191.767 264.198 191.872 264.392 191.872Z" fill="#263238"/>
<path d="M234.377 191.872H235.389C235.591 191.872 235.741 191.767 235.732 191.644L235.257 187.316C235.257 187.192 235.064 187.087 234.861 187.087H233.858C233.656 187.087 233.507 187.192 233.515 187.316L233.99 191.644C233.99 191.767 234.184 191.872 234.377 191.872Z" fill="#263238"/>
<path d="M249.385 191.872H250.396C250.599 191.872 250.748 191.767 250.739 191.644L250.264 187.316C250.264 187.192 250.071 187.087 249.869 187.087H248.866C248.663 187.087 248.514 187.192 248.523 187.316L248.998 191.644C249.015 191.767 249.182 191.872 249.385 191.872Z" fill="#263238"/>
<path d="M275.475 134.351C279.205 135.486 283.674 148.302 283.674 148.302L271.666 160.028C271.666 160.028 263.961 147.933 265.509 143.121C267.154 138.107 271.227 133.067 275.475 134.351Z" fill="#FFA401"/>
<path opacity="0.5" d="M275.475 134.351C279.205 135.486 283.674 148.302 283.674 148.302L271.666 160.028C271.666 160.028 263.961 147.933 265.509 143.121C267.154 138.107 271.227 133.067 275.475 134.351Z" fill="white"/>
<path d="M75.9505 180.701H145.937V316.828H75.9505V180.701Z" fill="#FFA401"/>
<path opacity="0.6" d="M75.9505 180.701H145.937V316.828H75.9505V180.701Z" fill="white"/>
<path d="M211.533 180.701H281.519V316.828H211.533V180.701Z" fill="#FFA401"/>
<path opacity="0.6" d="M211.533 180.701H281.519V316.828H211.533V180.701Z" fill="white"/>
<path d="M73.329 180.701H79.0996V316.828H73.329V180.701Z" fill="#FFA401"/>
<path opacity="0.3" d="M73.329 180.701H79.0996V316.828H73.329V180.701Z" fill="black"/>
<path d="M210.697 190.913L71.5435 190.913V180.701L210.697 180.701V190.913Z" fill="#FFA401"/>
<path opacity="0.3" d="M210.697 190.913L71.5435 190.913V180.701L210.697 180.701V190.913Z" fill="black"/>
<path d="M208.903 180.701H214.673V316.828H208.903V180.701Z" fill="#FFA401"/>
<path opacity="0.3" d="M208.903 180.701H214.673V316.828H208.903V180.701Z" fill="black"/>
<path d="M211.032 213.266L76.2144 213.266V183.859L211.032 183.859V213.266Z" fill="#FFA401"/>
<path opacity="0.3" d="M211.032 213.266L76.2144 213.266V183.859L211.032 183.859V213.266Z" fill="black"/>
<path d="M75.915 320.787H114.77C117.408 320.785 119.937 319.736 121.802 317.87C123.667 316.005 124.716 313.476 124.719 310.838V188.248C124.719 185.915 125.646 183.678 127.295 182.028C128.945 180.378 131.182 179.451 133.515 179.451H145.145V178.572H133.524C130.958 178.572 128.497 179.591 126.682 181.406C124.867 183.221 123.848 185.682 123.848 188.248V310.838C123.846 313.243 122.889 315.548 121.189 317.248C119.489 318.949 117.183 319.905 114.779 319.907H75.915C75.2536 319.909 74.6087 319.701 74.0723 319.314C73.5358 318.927 73.1351 318.381 72.9275 317.753C72.7198 317.125 72.7156 316.448 72.9156 315.817C73.1157 315.187 73.5096 314.636 74.0413 314.242L73.5223 313.539C72.8435 314.042 72.3408 314.747 72.0855 315.553C71.8302 316.359 71.8354 317.224 72.1004 318.027C72.3653 318.83 72.8765 319.528 73.5614 320.024C74.2462 320.519 75.0697 320.786 75.915 320.787Z" fill="#FFA401"/>
<path opacity="0.3" d="M75.915 320.787H114.77C117.408 320.785 119.937 319.736 121.802 317.87C123.667 316.005 124.716 313.476 124.719 310.838V188.248C124.719 185.915 125.646 183.678 127.295 182.028C128.945 180.378 131.182 179.451 133.515 179.451H145.145V178.572H133.524C130.958 178.572 128.497 179.591 126.682 181.406C124.867 183.221 123.848 185.682 123.848 188.248V310.838C123.846 313.243 122.889 315.548 121.189 317.248C119.489 318.949 117.183 319.905 114.779 319.907H75.915C75.2536 319.909 74.6087 319.701 74.0723 319.314C73.5358 318.927 73.1351 318.381 72.9275 317.753C72.7198 317.125 72.7156 316.448 72.9156 315.817C73.1157 315.187 73.5096 314.636 74.0413 314.242L73.5223 313.539C72.8435 314.042 72.3408 314.747 72.0855 315.553C71.8302 316.359 71.8354 317.224 72.1004 318.027C72.3653 318.83 72.8765 319.528 73.5614 320.024C74.2462 320.519 75.0697 320.786 75.915 320.787Z" fill="black"/>
<path d="M70.2502 220.866H71.1299V237.87H70.2502V220.866Z" fill="#FFA401"/>
<path opacity="0.3" d="M70.2502 220.866H71.1299V237.87H70.2502V220.866Z" fill="black"/>
<path d="M70.2502 210.829H71.1299V215.298H70.2502V210.829Z" fill="#FFA401"/>
<path opacity="0.3" d="M70.2502 210.829H71.1299V215.298H70.2502V210.829Z" fill="black"/>
<path d="M134.677 140.06H199.895L209.343 178.572H144.133L134.677 140.06Z" fill="#FFA401"/>
<path opacity="0.4" d="M134.677 140.06H199.895L209.343 178.572H144.133L134.677 140.06Z" fill="white"/>
<path d="M207.346 178.572L207.61 180.701H233.199L232.935 178.572H207.346Z" fill="#FFA401"/>
<path opacity="0.4" d="M207.346 178.572L207.61 180.701H233.199L232.935 178.572H207.346Z" fill="white"/>
<path d="M142.128 178.572L142.392 180.701H207.61L207.346 178.572H142.128Z" fill="#FFA401"/>
<path opacity="0.5" d="M142.128 178.572L142.392 180.701H207.61L207.346 178.572H142.128Z" fill="black"/>
<path d="M132.671 140.06H197.889L207.337 178.572H142.127L132.671 140.06Z" fill="#FFA401"/>
<path opacity="0.5" d="M132.671 140.06H197.889L207.337 178.572H142.127L132.671 140.06Z" fill="black"/>
<path d="M107.486 170.998C107.486 170.998 117.083 154.451 103.8 141.283C103.8 141.283 100.326 143.552 100.378 146.561C100.431 149.569 104.1 150.378 103.317 152.912C102.534 155.445 99.059 157.952 101.337 160.055C103.616 162.157 100.968 164.022 101.126 166.591C101.285 169.159 107.486 170.998 107.486 170.998Z" fill="#FFA401"/>
<path d="M106.756 172.511C106.756 172.511 102.868 153.783 119.652 145.488C119.652 145.488 122.238 148.734 121.226 151.645C120.215 154.557 116.494 154.091 116.441 156.756C116.388 159.421 118.886 162.87 116.063 164.145C113.239 165.421 115.183 168.033 114.207 170.426C113.23 172.819 106.756 172.511 106.756 172.511Z" fill="#FFA401"/>
<path opacity="0.5" d="M106.756 172.511C106.756 172.511 102.868 153.783 119.652 145.488C119.652 145.488 122.238 148.734 121.226 151.645C120.215 154.557 116.494 154.091 116.441 156.756C116.388 159.421 118.886 162.87 116.063 164.145C113.239 165.421 115.183 168.033 114.207 170.426C113.23 172.819 106.756 172.511 106.756 172.511Z" fill="black"/>
<path d="M121.464 168.359C121.464 168.359 121.138 180.674 108.902 180.674C96.6661 180.674 96.3495 168.359 96.3495 168.359H121.464Z" fill="#FFA401"/>
<path opacity="0.5" d="M121.464 168.359C121.464 168.359 121.138 180.674 108.902 180.674C96.6661 180.674 96.3495 168.359 96.3495 168.359H121.464Z" fill="black"/>
<path d="M187.236 87.6673L197.687 74.1644L208.137 87.6673H203.22V105.146H192.154V87.6673H187.236Z" fill="#FFA401"/>
<path d="M156.58 103.545C156.58 97.0128 153.985 90.7479 149.366 86.1288C144.747 81.5096 138.482 78.9146 131.949 78.9146V85.3274C134.34 85.3262 136.708 85.7961 138.917 86.7103C141.126 87.6244 143.134 88.9648 144.825 90.655C146.516 92.3452 147.857 94.3519 148.772 96.5607C149.687 98.7694 150.159 101.137 150.159 103.528L156.58 103.545Z" fill="#FFA401"/>
<path d="M156.58 103.545H150.159C150.159 108.375 148.24 113.006 144.825 116.421C141.41 119.836 136.779 121.754 131.949 121.754C128.754 121.76 125.615 120.916 122.854 119.309L119.634 124.912C123.379 127.074 127.626 128.212 131.95 128.212C136.273 128.212 140.521 127.074 144.265 124.912C148.01 122.75 151.119 119.641 153.281 115.896C155.442 112.152 156.58 107.904 156.58 103.58V103.545Z" fill="#FFA401"/>
<path opacity="0.5" d="M156.58 103.545H150.159C150.159 108.375 148.24 113.006 144.825 116.421C141.41 119.836 136.779 121.754 131.949 121.754C128.754 121.76 125.615 120.916 122.854 119.309L119.634 124.912C123.379 127.074 127.626 128.212 131.95 128.212C136.273 128.212 140.521 127.074 144.265 124.912C148.01 122.75 151.119 119.641 153.281 115.896C155.442 112.152 156.58 107.904 156.58 103.58V103.545Z" fill="white"/>
<path d="M131.95 85.3274V78.897C126.51 78.8762 121.217 80.6566 116.896 83.9602C112.575 87.2639 109.469 91.9051 108.062 97.1595C106.656 102.414 107.029 107.986 109.122 113.007C111.215 118.027 114.912 122.213 119.634 124.912L122.845 119.344C119.348 117.353 116.609 114.259 115.057 110.545C113.505 106.832 113.228 102.709 114.268 98.8217C115.309 94.9341 117.609 91.5009 120.808 89.0593C124.007 86.6177 127.925 85.3053 131.95 85.3274Z" fill="#FFA401"/>
<path opacity="0.7" d="M131.95 85.3274V78.897C126.51 78.8762 121.217 80.6566 116.896 83.9602C112.575 87.2639 109.469 91.9051 108.062 97.1595C106.656 102.414 107.029 107.986 109.122 113.007C111.215 118.027 114.912 122.213 119.634 124.912L122.845 119.344C119.348 117.353 116.609 114.259 115.057 110.545C113.505 106.832 113.228 102.709 114.268 98.8217C115.309 94.9341 117.609 91.5009 120.808 89.0593C124.007 86.6177 127.925 85.3053 131.95 85.3274Z" fill="black"/>
<path d="M155.076 43.1035H177.516C178.316 43.1035 179.084 43.4214 179.649 43.9872C180.215 44.5531 180.533 45.3205 180.533 46.1208V87.6145C180.526 88.4101 180.205 89.1708 179.64 89.731C179.075 90.2911 178.312 90.6054 177.516 90.6054H148.795C147.996 90.603 147.231 90.2841 146.667 89.7185C146.103 89.1529 145.786 88.3868 145.786 87.5881V52.4016L155.076 43.1035Z" fill="#263238"/>
<path d="M156.395 86.4797H175.053C175.403 86.4797 175.739 86.3407 175.986 86.0933C176.234 85.8458 176.373 85.5102 176.373 85.1602C176.37 84.8118 176.23 84.4785 175.983 84.2329C175.736 83.9873 175.401 83.8495 175.053 83.8495H156.387C156.038 83.8495 155.704 83.9873 155.457 84.2329C155.209 84.4785 155.069 84.8118 155.067 85.1602C155.069 85.511 155.21 85.8466 155.459 86.0938C155.708 86.341 156.045 86.4797 156.395 86.4797Z" fill="#FFA401"/>
<path d="M165.192 49.9033H175.053C175.401 49.9033 175.736 49.7655 175.983 49.52C176.23 49.2744 176.37 48.9411 176.373 48.5926C176.373 48.2427 176.234 47.9071 175.986 47.6596C175.739 47.4121 175.403 47.2731 175.053 47.2731H165.183C164.833 47.2731 164.498 47.4121 164.25 47.6596C164.003 47.9071 163.864 48.2427 163.864 48.5926C163.865 48.7659 163.9 48.9373 163.968 49.0969C164.035 49.2566 164.133 49.4014 164.256 49.5231C164.38 49.6448 164.526 49.741 164.686 49.8063C164.847 49.8715 165.019 49.9045 165.192 49.9033Z" fill="#FFA401"/>
<path d="M158.744 55.1285H175.053C175.401 55.1285 175.736 54.9907 175.983 54.7452C176.23 54.4996 176.37 54.1662 176.373 53.8178C176.373 53.4679 176.234 53.1322 175.986 52.8848C175.739 52.6373 175.403 52.4983 175.053 52.4983H158.735C158.387 52.5006 158.054 52.6407 157.808 52.8879C157.562 53.1351 157.425 53.4694 157.425 53.8178C157.425 53.9907 157.459 54.1618 157.525 54.3214C157.592 54.481 157.689 54.6259 157.812 54.7477C157.934 54.8696 158.08 54.9659 158.24 55.0313C158.4 55.0966 158.571 55.1297 158.744 55.1285Z" fill="#FFA401"/>
<path d="M151.249 60.3537H175.053C175.401 60.3537 175.736 60.2159 175.983 59.9704C176.23 59.7248 176.37 59.3915 176.373 59.043C176.373 58.6931 176.234 58.3575 175.986 58.11C175.739 57.8626 175.403 57.7235 175.053 57.7235H151.241C150.891 57.7235 150.555 57.8626 150.308 58.11C150.06 58.3575 149.921 58.6931 149.921 59.043C149.922 59.2163 149.957 59.3877 150.025 59.5473C150.092 59.707 150.19 59.8518 150.314 59.9735C150.437 60.0952 150.583 60.1914 150.744 60.2567C150.904 60.3219 151.076 60.3549 151.249 60.3537Z" fill="#FFA401"/>
<path d="M151.249 65.5789H165.095C165.443 65.5789 165.778 65.4411 166.025 65.1956C166.272 64.95 166.412 64.6167 166.415 64.2682C166.415 63.9183 166.276 63.5827 166.028 63.3352C165.781 63.0877 165.445 62.9487 165.095 62.9487H151.249C150.899 62.9487 150.564 63.0877 150.316 63.3352C150.069 63.5827 149.93 63.9183 149.93 64.2682C149.932 64.6167 150.072 64.95 150.319 65.1956C150.566 65.4411 150.901 65.5789 151.249 65.5789Z" fill="#FFA401"/>
<path d="M171.446 65.5789H175.053C175.401 65.5789 175.736 65.4411 175.983 65.1956C176.23 64.95 176.37 64.6167 176.373 64.2682C176.373 63.9183 176.234 63.5827 175.986 63.3352C175.739 63.0877 175.403 62.9487 175.053 62.9487H171.438C171.088 62.9487 170.752 63.0877 170.505 63.3352C170.257 63.5827 170.118 63.9183 170.118 64.2682C170.119 64.4415 170.155 64.6129 170.222 64.7725C170.289 64.9322 170.387 65.077 170.511 65.1987C170.634 65.3204 170.78 65.4166 170.941 65.4819C171.101 65.5471 171.273 65.5801 171.446 65.5789Z" fill="#FFA401"/>
<path d="M151.249 70.8041H175.053C175.403 70.8041 175.739 70.6651 175.986 70.4176C176.234 70.1702 176.373 69.8346 176.373 69.4846C176.37 69.1362 176.23 68.8028 175.983 68.5573C175.736 68.3117 175.401 68.1739 175.053 68.1739H151.241C150.892 68.1739 150.558 68.3117 150.311 68.5573C150.063 68.8028 149.923 69.1362 149.921 69.4846C149.921 69.6586 149.955 69.8309 150.022 69.9916C150.089 70.1523 150.187 70.2981 150.311 70.4208C150.434 70.5434 150.581 70.6404 150.742 70.7062C150.903 70.772 151.075 70.8053 151.249 70.8041Z" fill="#FFA401"/>
<path d="M160.442 76.0293H175.053C175.403 76.0293 175.739 75.8903 175.986 75.6429C176.234 75.3954 176.373 75.0598 176.373 74.7098C176.37 74.3614 176.23 74.028 175.983 73.7825C175.736 73.5369 175.401 73.3991 175.053 73.3991H160.433C160.085 73.3991 159.75 73.5369 159.503 73.7825C159.256 74.028 159.116 74.3614 159.114 74.7098C159.114 74.8839 159.148 75.0562 159.215 75.2168C159.282 75.3775 159.38 75.5233 159.503 75.646C159.627 75.7686 159.773 75.8656 159.934 75.9314C160.095 75.9972 160.268 76.0305 160.442 76.0293Z" fill="#FFA401"/>
<path d="M151.249 76.0293H155.155C155.504 76.027 155.837 75.887 156.082 75.6398C156.328 75.3926 156.466 75.0583 156.466 74.7098C156.466 74.3622 156.328 74.0288 156.082 73.783C155.836 73.5372 155.503 73.3991 155.155 73.3991H151.249C150.901 73.3991 150.567 73.5369 150.32 73.7825C150.072 74.028 149.932 74.3614 149.93 74.7098C149.93 75.0598 150.069 75.3954 150.316 75.6429C150.564 75.8903 150.899 76.0293 151.249 76.0293Z" fill="#FFA401"/>
<path d="M151.249 81.2545H175.053C175.403 81.2545 175.739 81.1155 175.986 80.8681C176.234 80.6206 176.373 80.285 176.373 79.935C176.37 79.5866 176.23 79.2532 175.983 79.0077C175.736 78.7621 175.401 78.6243 175.053 78.6243H151.241C150.892 78.6243 150.558 78.7621 150.311 79.0077C150.063 79.2532 149.923 79.5866 149.921 79.935C149.921 80.109 149.955 80.2814 150.022 80.442C150.089 80.6027 150.187 80.7485 150.311 80.8712C150.434 80.9938 150.581 81.0908 150.742 81.1566C150.903 81.2224 151.075 81.2557 151.249 81.2545Z" fill="#FFA401"/>
<g opacity="0.5">
<path opacity="0.5" d="M156.395 86.4797H175.053C175.403 86.4797 175.739 86.3407 175.986 86.0933C176.234 85.8458 176.373 85.5102 176.373 85.1602C176.37 84.8118 176.23 84.4785 175.983 84.2329C175.736 83.9873 175.401 83.8495 175.053 83.8495H156.387C156.038 83.8495 155.704 83.9873 155.457 84.2329C155.209 84.4785 155.069 84.8118 155.067 85.1602C155.069 85.511 155.21 85.8466 155.459 86.0938C155.708 86.341 156.045 86.4797 156.395 86.4797Z" fill="white"/>
</g>
<g opacity="0.5">
<path opacity="0.5" d="M165.192 49.9033H175.053C175.401 49.9033 175.736 49.7655 175.983 49.52C176.23 49.2744 176.37 48.9411 176.373 48.5926C176.373 48.2427 176.234 47.9071 175.986 47.6596C175.739 47.4121 175.403 47.2731 175.053 47.2731H165.183C164.833 47.2731 164.498 47.4121 164.25 47.6596C164.003 47.9071 163.864 48.2427 163.864 48.5926C163.865 48.7659 163.9 48.9373 163.968 49.0969C164.035 49.2566 164.133 49.4014 164.256 49.5231C164.38 49.6448 164.526 49.741 164.686 49.8063C164.847 49.8715 165.019 49.9045 165.192 49.9033Z" fill="white"/>
</g>
<g opacity="0.5">
<path opacity="0.5" d="M158.744 55.1285H175.053C175.401 55.1285 175.736 54.9907 175.983 54.7452C176.23 54.4996 176.37 54.1662 176.373 53.8178C176.373 53.4679 176.234 53.1322 175.986 52.8848C175.739 52.6373 175.403 52.4983 175.053 52.4983H158.735C158.387 52.5006 158.054 52.6407 157.808 52.8879C157.562 53.1351 157.425 53.4694 157.425 53.8178C157.425 53.9907 157.459 54.1618 157.525 54.3214C157.592 54.481 157.689 54.6259 157.812 54.7477C157.934 54.8696 158.08 54.9659 158.24 55.0313C158.4 55.0966 158.571 55.1297 158.744 55.1285Z" fill="white"/>
</g>
<g opacity="0.5">
<path opacity="0.5" d="M151.249 60.3537H175.053C175.401 60.3537 175.736 60.2159 175.983 59.9704C176.23 59.7248 176.37 59.3915 176.373 59.043C176.373 58.6931 176.234 58.3575 175.986 58.11C175.739 57.8626 175.403 57.7235 175.053 57.7235H151.241C150.891 57.7235 150.555 57.8626 150.308 58.11C150.06 58.3575 149.921 58.6931 149.921 59.043C149.922 59.2163 149.957 59.3877 150.025 59.5473C150.092 59.707 150.19 59.8518 150.314 59.9735C150.437 60.0952 150.583 60.1914 150.744 60.2567C150.904 60.3219 151.076 60.3549 151.249 60.3537Z" fill="white"/>
</g>
<g opacity="0.5">
<path opacity="0.5" d="M151.249 65.5789H165.095C165.443 65.5789 165.778 65.4411 166.025 65.1956C166.272 64.95 166.412 64.6167 166.415 64.2682C166.415 63.9183 166.276 63.5827 166.028 63.3352C165.781 63.0877 165.445 62.9487 165.095 62.9487H151.249C150.899 62.9487 150.564 63.0877 150.316 63.3352C150.069 63.5827 149.93 63.9183 149.93 64.2682C149.932 64.6167 150.072 64.95 150.319 65.1956C150.566 65.4411 150.901 65.5789 151.249 65.5789Z" fill="white"/>
</g>
<g opacity="0.5">
<path opacity="0.5" d="M171.446 65.5789H175.053C175.401 65.5789 175.736 65.4411 175.983 65.1956C176.23 64.95 176.37 64.6167 176.373 64.2682C176.373 63.9183 176.234 63.5827 175.986 63.3352C175.739 63.0877 175.403 62.9487 175.053 62.9487H171.438C171.088 62.9487 170.752 63.0877 170.505 63.3352C170.257 63.5827 170.118 63.9183 170.118 64.2682C170.119 64.4415 170.155 64.6129 170.222 64.7725C170.289 64.9322 170.387 65.077 170.511 65.1987C170.634 65.3204 170.78 65.4166 170.941 65.4819C171.101 65.5471 171.273 65.5801 171.446 65.5789Z" fill="white"/>
</g>
<g opacity="0.5">
<path opacity="0.5" d="M151.249 70.8041H175.053C175.403 70.8041 175.739 70.6651 175.986 70.4176C176.234 70.1702 176.373 69.8346 176.373 69.4846C176.37 69.1362 176.23 68.8028 175.983 68.5573C175.736 68.3117 175.401 68.1739 175.053 68.1739H151.241C150.892 68.1739 150.558 68.3117 150.311 68.5573C150.063 68.8028 149.923 69.1362 149.921 69.4846C149.921 69.6586 149.955 69.8309 150.022 69.9916C150.089 70.1523 150.187 70.2981 150.311 70.4208C150.434 70.5434 150.581 70.6404 150.742 70.7062C150.903 70.772 151.075 70.8053 151.249 70.8041Z" fill="white"/>
</g>
<g opacity="0.5">
<path opacity="0.5" d="M160.442 76.0293H175.053C175.403 76.0293 175.739 75.8903 175.986 75.6429C176.234 75.3954 176.373 75.0598 176.373 74.7098C176.37 74.3614 176.23 74.028 175.983 73.7825C175.736 73.5369 175.401 73.3991 175.053 73.3991H160.433C160.085 73.3991 159.75 73.5369 159.503 73.7825C159.256 74.028 159.116 74.3614 159.114 74.7098C159.114 74.8839 159.148 75.0562 159.215 75.2168C159.282 75.3775 159.38 75.5233 159.503 75.646C159.627 75.7686 159.773 75.8656 159.934 75.9314C160.095 75.9972 160.268 76.0305 160.442 76.0293Z" fill="white"/>
</g>
<g opacity="0.5">
<path opacity="0.5" d="M151.249 76.0293H155.155C155.504 76.027 155.837 75.887 156.082 75.6398C156.328 75.3926 156.466 75.0583 156.466 74.7098C156.466 74.3622 156.328 74.0288 156.082 73.783C155.836 73.5372 155.503 73.3991 155.155 73.3991H151.249C150.901 73.3991 150.567 73.5369 150.32 73.7825C150.072 74.028 149.932 74.3614 149.93 74.7098C149.93 75.0598 150.069 75.3954 150.316 75.6429C150.564 75.8903 150.899 76.0293 151.249 76.0293Z" fill="white"/>
</g>
<g opacity="0.5">
<path opacity="0.5" d="M151.249 81.2545H175.053C175.403 81.2545 175.739 81.1155 175.986 80.8681C176.234 80.6206 176.373 80.285 176.373 79.935C176.37 79.5866 176.23 79.2532 175.983 79.0077C175.736 78.7621 175.401 78.6243 175.053 78.6243H151.241C150.892 78.6243 150.558 78.7621 150.311 79.0077C150.063 79.2532 149.923 79.5866 149.921 79.935C149.921 80.109 149.955 80.2814 150.022 80.442C150.089 80.6027 150.187 80.7485 150.311 80.8712C150.434 80.9938 150.581 81.0908 150.742 81.1566C150.903 81.2224 151.075 81.2557 151.249 81.2545Z" fill="white"/>
</g>
<path d="M155.076 43.1035V49.3843C155.077 49.7809 155 50.1737 154.848 50.5403C154.697 50.9069 154.475 51.24 154.195 51.5204C153.914 51.8008 153.581 52.023 153.214 52.1742C152.848 52.3255 152.455 52.4027 152.058 52.4016H145.786L155.076 43.1035Z" fill="#FFA401"/>
<path opacity="0.5" d="M155.076 43.1035V49.3843C155.077 49.7809 155 50.1737 154.848 50.5403C154.697 50.9069 154.475 51.24 154.195 51.5204C153.914 51.8008 153.581 52.023 153.214 52.1742C152.848 52.3255 152.455 52.4027 152.058 52.4016H145.786L155.076 43.1035Z" fill="white"/>
</svg>
