<svg width="20" height="20" viewBox="0 0 20 20" fill="none" xmlns="http://www.w3.org/2000/svg">
<path d="M7.67 12.001C8.22284 12.001 8.671 11.5528 8.671 11C8.671 10.4472 8.22284 9.999 7.67 9.999C7.11716 9.999 6.669 10.4472 6.669 11C6.669 11.5528 7.11716 12.001 7.67 12.001Z" fill="#2E2E2E"/>
<path d="M12.09 13.391C11.482 13.826 10.746 14.041 10 14C9.256 14.034 8.521 13.811 7.919 13.37C7.82 13.289 7.677 13.289 7.577 13.37C7.462 13.465 7.445 13.635 7.54 13.75C8.25 14.285 9.122 14.559 10.011 14.52C10.898 14.559 11.771 14.287 12.48 13.75V13.79C12.589 13.684 12.591 13.505 12.486 13.394C12.377 13.284 12.2 13.282 12.09 13.391ZM12.299 10.04C11.747 10.04 11.3 10.488 11.3 11.041C11.3 11.593 11.747 12.04 12.299 12.04L12.291 12.079C12.307 12.081 12.324 12.079 12.342 12.079C12.893 12.058 13.321 11.592 13.3 11.041C13.3 10.488 12.854 10.04 12.299 10.04Z" fill="#2E2E2E"/>
<path d="M10 0C4.479 0 0 4.477 0 10C0 15.521 4.479 20 10 20C15.521 20 20 15.521 20 10C20 4.477 15.521 0 10 0ZM15.859 11.33C15.871 11.476 15.871 11.623 15.859 11.769C15.859 14.009 13.25 15.831 10.029 15.831C6.808 15.831 4.199 14.011 4.199 11.769C4.187 11.623 4.187 11.476 4.199 11.33C4.054 11.264 3.924 11.175 3.807 11.066C3.22 10.513 3.193 9.588 3.744 9.003C4.296 8.415 5.221 8.387 5.807 8.94C6.959 8.159 8.316 7.731 9.706 7.71L10.449 4.24C10.449 4.24 10.449 4.238 10.449 4.236C10.487 4.069 10.652 3.964 10.82 4L13.269 4.49C13.429 4.215 13.709 4.032 14.027 3.998C14.577 3.939 15.068 4.336 15.129 4.886C15.188 5.435 14.791 5.928 14.24 5.987C13.691 6.046 13.199 5.649 13.138 5.1L11 4.65L10.351 7.77C11.726 7.799 13.062 8.227 14.201 9C14.46 8.752 14.8 8.607 15.158 8.594C15.965 8.565 16.64 9.194 16.67 10C16.68 10.563 16.363 11.08 15.859 11.33Z" fill="#2E2E2E"/>
</svg>
