<svg width="25" height="25" viewBox="0 0 25 25" fill="none" xmlns="http://www.w3.org/2000/svg">
<g clip-path="url(#clip0)">
<path fill-rule="evenodd" clip-rule="evenodd" d="M16.7272 13.9366C19.183 10.4907 18.8652 5.67586 15.7736 2.58435C12.3278 -0.861451 6.74109 -0.86145 3.29529 2.58435C-0.150513 6.03015 -0.150513 11.6169 3.29529 15.0627C6.3868 18.1542 11.2016 18.4721 14.6475 16.0163L23.0527 24.4215L25.1324 22.3417L16.7272 13.9366ZM13.6939 4.66408C15.9911 6.96128 15.9911 10.6858 13.6939 12.983C11.3967 15.2802 7.67222 15.2802 5.37502 12.983C3.07781 10.6858 3.07781 6.96128 5.37502 4.66408C7.67222 2.36688 11.3967 2.36688 13.6939 4.66408Z" fill="black"/>
</g>
<defs>
<clipPath id="clip0">
<rect width="25" height="25" fill="white"/>
</clipPath>
</defs>
</svg>
