<svg width="18" height="17" viewBox="0 0 18 17" fill="none" xmlns="http://www.w3.org/2000/svg">
<path fill-rule="evenodd" clip-rule="evenodd" d="M11.3755 9.47687C13.0454 7.13367 12.8292 3.85958 10.727 1.75736C8.38387 -0.585787 4.58488 -0.585786 2.24173 1.75736C-0.101411 4.1005 -0.101411 7.89949 2.24173 10.2426C4.34396 12.3449 7.61804 12.561 9.96125 10.8911L15.6768 16.6066L17.091 15.1924L11.3755 9.47687ZM9.3128 3.17157C10.8749 4.73367 10.8749 7.26633 9.3128 8.82843C7.75071 10.3905 5.21805 10.3905 3.65595 8.82843C2.09385 7.26633 2.09385 4.73367 3.65595 3.17157C5.21805 1.60948 7.75071 1.60948 9.3128 3.17157Z" fill="#2E3A59"/>
</svg>
