<svg width="30" height="30" viewBox="0 0 30 30" fill="none" xmlns="http://www.w3.org/2000/svg">
<path d="M0.366594 27.8663L8.89775 19.335C7.24525 17.2938 6.25028 14.7 6.25028 11.875C6.25028 5.32752 11.5777 0 18.1252 0C24.6726 0 30 5.32746 30 11.875C30 18.4225 24.6725 23.75 18.1251 23.75C15.3002 23.75 12.7064 22.755 10.6652 21.1025L2.13405 29.6337C1.89031 29.8775 1.57033 30 1.2503 30C0.93026 30 0.610283 29.8775 0.366535 29.6337C-0.12219 29.145 -0.12219 28.355 0.366594 27.8663ZM18.1251 21.25C23.2951 21.25 27.5 17.045 27.5 11.875C27.5 6.70494 23.2951 2.49996 18.1251 2.49996C12.9551 2.49996 8.75021 6.70494 8.75021 11.875C8.75021 17.045 12.9552 21.25 18.1251 21.25Z" fill="#999999"/>
</svg>
