<svg width="20" height="21" viewBox="0 0 20 21" fill="none" xmlns="http://www.w3.org/2000/svg">
<g opacity="0.9">
<path fill-rule="evenodd" clip-rule="evenodd" d="M10 12.373C11.8409 12.373 13.3333 10.8807 13.3333 9.03971C13.3333 7.19876 11.8409 5.70638 10 5.70638C8.15905 5.70638 6.66666 7.19876 6.66666 9.03971C6.66666 10.8807 8.15905 12.373 10 12.373ZM10 10.7064C10.9205 10.7064 11.6667 9.96019 11.6667 9.03971C11.6667 8.11924 10.9205 7.37305 10 7.37305C9.07952 7.37305 8.33333 8.11924 8.33333 9.03971C8.33333 9.96019 9.07952 10.7064 10 10.7064Z" fill="black"/>
<path fill-rule="evenodd" clip-rule="evenodd" d="M14.9384 17.4195C16.9975 15.9022 18.3333 13.4603 18.3333 10.7064C18.3333 6.10401 14.6024 2.37305 10 2.37305C5.39762 2.37305 1.66666 6.10401 1.66666 10.7064C1.66666 13.4603 3.00251 15.9022 5.06157 17.4195C5.09945 17.4474 5.13757 17.475 5.17594 17.5023C5.54997 17.7683 5.94692 18.0041 6.36323 18.2064C7.46219 18.7403 8.69613 19.0397 10 19.0397C11.3039 19.0397 12.5378 18.7403 13.6368 18.2064C13.6591 18.1955 13.6814 18.1846 13.7036 18.1735C14.1381 17.9576 14.5511 17.7049 14.9384 17.4195ZM14.3573 15.7522C15.7717 14.5297 16.6667 12.7226 16.6667 10.7064C16.6667 7.02448 13.6819 4.03971 10 4.03971C6.3181 4.03971 3.33333 7.02448 3.33333 10.7064C3.33333 12.7226 4.22834 14.5297 5.64273 15.7522C6.50055 14.2325 8.13045 13.2064 10 13.2064C11.8695 13.2064 13.4994 14.2325 14.3573 15.7522ZM12.9639 16.6796C12.4101 15.6066 11.2907 14.873 10 14.873C8.70929 14.873 7.58993 15.6066 7.0361 16.6796C7.92889 17.1235 8.9353 17.373 10 17.373C11.0647 17.373 12.0711 17.1235 12.9639 16.6796Z" fill="black"/>
</g>
</svg>
