<svg width="15" height="16" viewBox="0 0 15 16" fill="none" xmlns="http://www.w3.org/2000/svg">
<path d="M7.5 0C5.2025 0 3.33333 1.86917 3.33333 4.16667C3.33333 6.46417 5.2025 8.33333 7.5 8.33333C9.7975 8.33333 11.6667 6.46417 11.6667 4.16667C11.6667 1.86917 9.7975 0 7.5 0ZM7.5 6.66667C6.12167 6.66667 5 5.545 5 4.16667C5 2.78833 6.12167 1.66667 7.5 1.66667C8.87833 1.66667 10 2.78833 10 4.16667C10 5.545 8.87833 6.66667 7.5 6.66667ZM15 15.8333V15C15 11.7842 12.3825 9.16667 9.16667 9.16667H5.83333C2.61667 9.16667 0 11.7842 0 15V15.8333H1.66667V15C1.66667 12.7025 3.53583 10.8333 5.83333 10.8333H9.16667C11.4642 10.8333 13.3333 12.7025 13.3333 15V15.8333H15Z" fill="black"/>
</svg>
