<svg width="16" height="11" viewBox="0 0 16 11" fill="none" xmlns="http://www.w3.org/2000/svg">
<path d="M15 6C15.2761 6 15.5 5.77614 15.5 5.5C15.5 5.22386 15.2761 5 15 5L15 6ZM0.999999 5.5L0.647614 5.14528L0.29055 5.5L0.647613 5.85472L0.999999 5.5ZM5.17738 10.3547C5.37328 10.5493 5.68987 10.5483 5.88448 10.3524C6.0791 10.1565 6.07806 9.8399 5.88215 9.64528L5.17738 10.3547ZM5.88215 1.35472C6.07806 1.1601 6.0791 0.843519 5.88448 0.647614C5.68987 0.451709 5.37329 0.450666 5.17738 0.645283L5.88215 1.35472ZM15 5L0.999999 5L0.999999 6L15 6L15 5ZM0.647613 5.85472L5.17738 10.3547L5.88215 9.64528L1.35239 5.14528L0.647613 5.85472ZM1.35239 5.85472L5.88215 1.35472L5.17738 0.645283L0.647614 5.14528L1.35239 5.85472Z" fill="#3D9456"/>
</svg>
