<svg width="32" height="32" viewBox="0 0 32 32" fill="none" xmlns="http://www.w3.org/2000/svg">
<path d="M0 16C0 24.8366 7.16344 32 16 32C24.8366 32 32 24.8366 32 16C32 7.16344 24.8366 0 16 0C7.16344 0 0 7.16344 0 16Z" fill="#FFCD28"/>
<path d="M19.2932 18.7302C18.3994 18.7302 17.6722 19.4637 17.6722 20.3651C17.6722 21.2666 18.3994 22 19.2932 22C20.187 22 20.9141 21.2666 20.9141 20.3651C20.9141 19.4637 20.187 18.7302 19.2932 18.7302ZM19.2932 21.0191C18.9356 21.0191 18.6448 20.7258 18.6448 20.3651C18.6448 20.0045 18.9356 19.7112 19.2932 19.7112C19.6508 19.7112 19.9416 20.0045 19.9416 20.3651C19.9416 20.7258 19.6508 21.0191 19.2932 21.0191Z" fill="#292620"/>
<path d="M21.8967 12.4116C21.8046 12.2927 21.6634 12.2234 21.5138 12.2234H12.0017L11.564 10.3765C11.5117 10.1558 11.316 10 11.091 10H9.48628C9.2177 9.99997 9 10.2195 9 10.4904C9 10.7613 9.2177 10.9809 9.48628 10.9809H10.7072L12.2876 17.6506C12.34 17.8715 12.5356 18.0271 12.7606 18.0271H20.3305C20.554 18.0271 20.7489 17.8734 20.8025 17.6546L21.9858 12.8317C22.0216 12.6853 21.9887 12.5304 21.8967 12.4116ZM19.9501 17.0462H13.1445L12.2341 13.2043H20.8925L19.9501 17.0462Z" fill="#292620"/>
<path d="M13.4091 18.7302C12.5153 18.7302 11.7882 19.4637 11.7882 20.3651C11.7882 21.2666 12.5154 22 13.4091 22C14.3029 22 15.0301 21.2666 15.0301 20.3651C15.0301 19.4637 14.3029 18.7302 13.4091 18.7302ZM13.4091 21.0191C13.0516 21.0191 12.7608 20.7258 12.7608 20.3651C12.7608 20.0045 13.0516 19.7112 13.4091 19.7112C13.7667 19.7112 14.0575 20.0045 14.0575 20.3651C14.0575 20.7258 13.7667 21.0191 13.4091 21.0191Z" fill="#292620"/>
</svg>
