<svg width="84" height="50" viewBox="0 0 84 50" fill="none" xmlns="http://www.w3.org/2000/svg">
<path d="M78.0938 40.8766H5.90625C5.64518 40.8766 5.3948 40.7746 5.21019 40.593C5.02559 40.4115 4.92188 40.1652 4.92188 39.9085C4.92188 39.6518 5.02559 39.4055 5.21019 39.224C5.3948 39.0424 5.64518 38.9404 5.90625 38.9404H78.0938C78.3548 38.9404 78.6052 39.0424 78.7898 39.224C78.9744 39.4055 79.0781 39.6518 79.0781 39.9085C79.0781 40.1652 78.9744 40.4115 78.7898 40.593C78.6052 40.7746 78.3548 40.8766 78.0938 40.8766Z" fill="white"/>
<path d="M73.5 45.3941H11.8125C11.5514 45.3941 11.301 45.2922 11.1164 45.1106C10.9318 44.9291 10.8281 44.6828 10.8281 44.4261C10.8281 44.1693 10.9318 43.9231 11.1164 43.7415C11.301 43.56 11.5514 43.458 11.8125 43.458H73.5C73.7611 43.458 74.0115 43.56 74.1961 43.7415C74.3807 43.9231 74.4844 44.1693 74.4844 44.4261C74.4844 44.6828 74.3807 44.9291 74.1961 45.1106C74.0115 45.2922 73.7611 45.3941 73.5 45.3941Z" fill="white"/>
<path d="M75.2723 40.8766H10.6973L10.8351 39.7859C11.8374 32.1434 15.6056 25.1118 21.4495 19.9786C27.2934 14.8454 34.822 11.9542 42.6566 11.8345H42.9979C50.8979 11.8492 58.5216 14.6958 64.4408 19.8411C70.3601 24.9863 74.169 32.0773 75.1541 39.7859L75.2723 40.8766ZM12.9285 38.9404H73.0016C71.8386 31.9257 68.1807 25.5449 62.6797 20.9352C57.1787 16.3256 50.1922 13.7865 42.9651 13.7706H42.6566C35.4927 13.8851 28.5965 16.4665 23.1682 21.0654C17.74 25.6644 14.1235 31.9897 12.9482 38.9404H12.9285Z" fill="white"/>
<path d="M47.9062 8.60748C47.6452 8.60748 47.3948 8.50549 47.2102 8.32394C47.0256 8.14239 46.9219 7.89616 46.9219 7.63941C46.9219 6.52684 46.4725 5.45983 45.6725 4.67312C44.8725 3.88641 43.7876 3.44444 42.6562 3.44444C41.5249 3.44444 40.44 3.88641 39.64 4.67312C38.84 5.45983 38.3906 6.52684 38.3906 7.63941C38.3906 7.89616 38.2869 8.14239 38.1023 8.32394C37.9177 8.50549 37.6673 8.60748 37.4062 8.60748C37.1452 8.60748 36.8948 8.50549 36.7102 8.32394C36.5256 8.14239 36.4219 7.89616 36.4219 7.63941C36.4219 6.01334 37.0787 4.45387 38.2479 3.30406C39.4171 2.15426 41.0028 1.5083 42.6562 1.5083C44.3097 1.5083 45.8954 2.15426 47.0646 3.30406C48.2338 4.45387 48.8906 6.01334 48.8906 7.63941C48.8906 7.89616 48.7869 8.14239 48.6023 8.32394C48.4177 8.50549 48.1673 8.60748 47.9062 8.60748Z" fill="white"/>
<path d="M63.6561 34.4226C63.4187 34.422 63.1895 34.3376 63.01 34.1849C62.8306 34.0321 62.7129 33.821 62.6783 33.5901C62.1422 29.888 60.3988 26.4571 57.7101 23.8129C55.0214 21.1687 51.5327 19.4542 47.7683 18.927C47.639 18.9092 47.5146 18.8666 47.4021 18.8015C47.2896 18.7364 47.1912 18.6501 47.1126 18.5477C47.034 18.4452 46.9766 18.3285 46.9439 18.2042C46.9112 18.0799 46.9036 17.9506 46.9217 17.8234C46.9398 17.6963 46.9832 17.5739 47.0494 17.4633C47.1156 17.3526 47.2033 17.2559 47.3075 17.1786C47.4117 17.1013 47.5303 17.0449 47.6567 17.0127C47.7831 16.9805 47.9146 16.9731 48.0439 16.9909C52.2329 17.5816 56.1142 19.4924 59.1055 22.4364C62.0967 25.3804 64.0365 29.1989 64.6339 33.319C64.6678 33.5736 64.5987 33.8311 64.4417 34.0363C64.2846 34.2414 64.0521 34.3778 63.7939 34.4162L63.6561 34.4226Z" fill="white"/>
<path d="M68.9062 49.9117H16.4062C16.1452 49.9117 15.8948 49.8097 15.7102 49.6282C15.5256 49.4466 15.4219 49.2004 15.4219 48.9437C15.4219 48.6869 15.5256 48.4407 15.7102 48.2591C15.8948 48.0776 16.1452 47.9756 16.4062 47.9756H68.9062C69.1673 47.9756 69.4177 48.0776 69.6023 48.2591C69.7869 48.4407 69.8906 48.6869 69.8906 48.9437C69.8906 49.2004 69.7869 49.4466 69.6023 49.6282C69.4177 49.8097 69.1673 49.9117 68.9062 49.9117Z" fill="white"/>
</svg>
