<svg width="15" height="10" viewBox="0 0 15 10" fill="none" xmlns="http://www.w3.org/2000/svg">
<path d="M14.4141 4.44444H0.585938C0.262324 4.44444 0 4.69317 0 5C0 5.30683 0.262324 5.55556 0.585938 5.55556H14.4141C14.7377 5.55556 15 5.30683 15 5C15 4.69317 14.7377 4.44444 14.4141 4.44444Z" fill="black"/>
<path d="M14.4141 0H0.585938C0.262324 0 0 0.248722 0 0.555556C0 0.862389 0.262324 1.11111 0.585938 1.11111H14.4141C14.7377 1.11111 15 0.862389 15 0.555556C15 0.248722 14.7377 0 14.4141 0Z" fill="black"/>
<path d="M14.4141 8.88889H0.585938C0.262324 8.88889 0 9.13761 0 9.44444C0 9.75128 0.262324 10 0.585938 10H14.4141C14.7377 10 15 9.75128 15 9.44444C15 9.13761 14.7377 8.88889 14.4141 8.88889Z" fill="black"/>
</svg>
