<svg width="40" height="40" viewBox="0 0 40 40" fill="none" xmlns="http://www.w3.org/2000/svg">
<circle cx="20" cy="20" r="19.75" transform="rotate(90 20 20)" fill="#EDEEED" stroke="#DEDFDE" stroke-width="0.5"/>
<path fill-rule="evenodd" clip-rule="evenodd" d="M21.7723 15.1995L17.1935 19.5506C16.9355 19.7954 16.9355 20.204 17.1935 20.4498L21.7723 24.7998C22.0531 25.0667 22.4964 25.0667 22.7772 24.7998C23.0743 24.5174 23.0743 24.0469 22.7772 23.764L18.9423 20.1201C18.8728 20.0542 18.8728 19.9452 18.9423 19.8793L22.7772 16.2354C23.0743 15.9529 23.0743 15.4825 22.7772 15.1995C22.6365 15.0668 22.4558 15 22.275 15C22.0937 15 21.9129 15.0668 21.7723 15.1995Z" fill="#232E23"/>
</svg>
