<svg width="40" height="40" viewBox="0 0 40 40" fill="none" xmlns="http://www.w3.org/2000/svg">
<circle cx="20" cy="20" r="19.75" transform="rotate(-90 20 20)" fill="#EDEEED" stroke="#DEDFDE" stroke-width="0.5"/>
<path fill-rule="evenodd" clip-rule="evenodd" d="M18.2277 24.8005L22.8065 20.4494C23.0645 20.2046 23.0645 19.796 22.8065 19.5502L18.2277 15.2002C17.9469 14.9333 17.5036 14.9333 17.2228 15.2002C16.9257 15.4826 16.9257 15.9531 17.2228 16.236L21.0577 19.8799C21.1272 19.9458 21.1272 20.0548 21.0577 20.1207L17.2228 23.7646C16.9257 24.0471 16.9257 24.5175 17.2228 24.8005C17.3635 24.9332 17.5442 25 17.725 25C17.9063 25 18.0871 24.9332 18.2277 24.8005Z" fill="#232E23"/>
</svg>
