<svg width="42" height="42" viewBox="0 0 42 42" fill="none" xmlns="http://www.w3.org/2000/svg">
<path d="M28.2916 21.1047L17.9797 31.4167L15.0334 28.4704L22.3991 21.1047L15.0334 13.739L17.9797 10.7927L28.2916 21.1047Z" fill="white" fill-opacity="1"/>
<path fill-rule="evenodd" clip-rule="evenodd" d="M0.166626 21C0.166627 9.49409 9.49403 0.166686 21 0.166687C32.5059 0.166688 41.8333 9.49409 41.8333 21C41.8333 32.506 32.5059 41.8334 21 41.8334C9.49403 41.8334 0.166625 32.506 0.166626 21ZM4.33329 21C4.33329 11.7953 11.7952 4.33335 21 4.33335C30.2047 4.33335 37.6666 11.7953 37.6666 21C37.6666 30.2048 30.2047 37.6667 21 37.6667C11.7952 37.6667 4.33329 30.2048 4.33329 21Z" fill="white" fill-opacity="1"/>
</svg>
