<svg width="42" height="42" viewBox="0 0 42 42" fill="none" xmlns="http://www.w3.org/2000/svg">
<path d="M13.7083 20.8953L24.0203 10.5834L26.9666 13.5296L19.6009 20.8953L26.9666 28.261L24.0203 31.2073L13.7083 20.8953Z" fill="white"/>
<path fill-rule="evenodd" clip-rule="evenodd" d="M41.8333 21C41.8333 32.506 32.5059 41.8334 21 41.8334C9.49407 41.8334 0.166668 32.506 0.166668 21C0.166668 9.49409 9.49407 0.166687 21 0.166687C32.5059 0.166687 41.8333 9.49409 41.8333 21ZM37.6667 21C37.6667 30.2048 30.2048 37.6667 21 37.6667C11.7953 37.6667 4.33333 30.2048 4.33333 21C4.33333 11.7953 11.7953 4.33335 21 4.33335C30.2048 4.33335 37.6667 11.7953 37.6667 21Z" fill="white"/>
</svg>
