<svg width="17" height="17" viewBox="0 0 17 17" fill="none" xmlns="http://www.w3.org/2000/svg">
<path d="M9.87422 8.50011L15.7149 2.65911C16.095 2.27918 16.095 1.66488 15.7149 1.28495C15.335 0.905017 14.7207 0.905017 14.3408 1.28495L8.49991 7.12595L2.65921 1.28495C2.27911 0.905017 1.665 0.905017 1.28508 1.28495C0.904974 1.66488 0.904974 2.27918 1.28508 2.65911L7.12578 8.50011L1.28508 14.3411C0.904974 14.721 0.904974 15.3353 1.28508 15.7153C1.47442 15.9048 1.72337 16 1.97214 16C2.22092 16 2.4697 15.9048 2.65921 15.7153L8.49991 9.87428L14.3408 15.7153C14.5303 15.9048 14.7791 16 15.0279 16C15.2766 16 15.5254 15.9048 15.7149 15.7153C16.095 15.3353 16.095 14.721 15.7149 14.3411L9.87422 8.50011Z" fill="#232E23" stroke="#FAF8F5" stroke-width="0.5"/>
</svg>
