<svg width="14" height="16" viewBox="0 0 14 16" fill="none" xmlns="http://www.w3.org/2000/svg">
<path d="M9.52376 6.34612C9.53379 6.05861 9.30941 5.81714 9.02194 5.80607C8.733 5.79494 8.49001 6.02073 8.47993 6.30971L8.29006 11.7542C8.28003 12.0417 8.50446 12.2832 8.79196 12.2942C9.08087 12.3053 9.32381 12.0795 9.33389 11.7906L9.52376 6.34612Z" fill="#EB5757"/>
<path d="M7.52357 6.32904C7.52357 6.04065 7.28978 5.80685 7.00138 5.80685C6.71299 5.80685 6.4792 6.04065 6.4792 6.32904V11.7731C6.4792 12.0615 6.71299 12.2953 7.00138 12.2953C7.28978 12.2953 7.52357 12.0615 7.52357 11.7731V6.32904Z" fill="#EB5757"/>
<path d="M5.21065 12.2952C5.49811 12.2841 5.72248 12.0427 5.71245 11.7552L5.52258 6.31064C5.5125 6.02165 5.2695 5.79587 4.98055 5.807C4.69309 5.81808 4.46872 6.05955 4.47875 6.34705L4.66864 11.7916C4.67872 12.0806 4.9217 12.3063 5.21065 12.2952Z" fill="#EB5757"/>
<path d="M1.54831 3.10161C1.24549 3.10161 1 3.34709 1 3.64992C1 3.95274 1.24549 4.19822 1.54831 4.19822H1.87471L2.73805 14.4998C2.76172 14.7829 2.9875 15 3.25815 15H10.7253C10.996 15 11.222 14.7827 11.2454 14.4996L12.1088 4.19822H12.4517C12.7545 4.19822 13 3.95274 13 3.64992C13 3.34709 12.7545 3.10161 12.4517 3.10161H1.54831ZM10.247 13.9034H3.73633L2.9231 4.19822H11.0604L10.247 13.9034Z" fill="#EB5757"/>
<path d="M8.70602 1H5.29437C4.81447 1 4.42406 1.40995 4.42406 1.91385V3.10004L5.46843 3.10161V2.09661H8.53196V3.10004H9.57633V1.91385C9.57633 1.40995 9.18592 1 8.70602 1Z" fill="#EB5757"/>
<path d="M9.52376 6.34612C9.53379 6.05861 9.30941 5.81714 9.02194 5.80607C8.733 5.79494 8.49001 6.02073 8.47993 6.30971L8.29006 11.7542C8.28003 12.0417 8.50446 12.2832 8.79196 12.2942C9.08087 12.3053 9.32381 12.0795 9.33389 11.7906L9.52376 6.34612Z" stroke="white" stroke-width="0.2"/>
<path d="M7.52357 6.32904C7.52357 6.04065 7.28978 5.80685 7.00138 5.80685C6.71299 5.80685 6.4792 6.04065 6.4792 6.32904V11.7731C6.4792 12.0615 6.71299 12.2953 7.00138 12.2953C7.28978 12.2953 7.52357 12.0615 7.52357 11.7731V6.32904Z" stroke="white" stroke-width="0.2"/>
<path d="M5.21065 12.2952C5.49811 12.2841 5.72248 12.0427 5.71245 11.7552L5.52258 6.31064C5.5125 6.02165 5.2695 5.79587 4.98055 5.807C4.69309 5.81808 4.46872 6.05955 4.47875 6.34705L4.66864 11.7916C4.67872 12.0806 4.9217 12.3063 5.21065 12.2952Z" stroke="white" stroke-width="0.2"/>
<path d="M1.54831 3.10161C1.24549 3.10161 1 3.34709 1 3.64992C1 3.95274 1.24549 4.19822 1.54831 4.19822H1.87471L2.73805 14.4998C2.76172 14.7829 2.9875 15 3.25815 15H10.7253C10.996 15 11.222 14.7827 11.2454 14.4996L12.1088 4.19822H12.4517C12.7545 4.19822 13 3.95274 13 3.64992C13 3.34709 12.7545 3.10161 12.4517 3.10161H1.54831ZM10.247 13.9034H3.73633L2.9231 4.19822H11.0604L10.247 13.9034Z" stroke="white" stroke-width="0.2"/>
<path d="M8.70602 1H5.29437C4.81447 1 4.42406 1.40995 4.42406 1.91385V3.10004L5.46843 3.10161V2.09661H8.53196V3.10004H9.57633V1.91385C9.57633 1.40995 9.18592 1 8.70602 1Z" stroke="white" stroke-width="0.2"/>
</svg>
