<svg width="36" height="36" viewBox="0 0 36 36" fill="none" xmlns="http://www.w3.org/2000/svg">
<path d="M24.2636 21.3789L24.2638 21.379C24.7696 21.7578 24.8723 22.475 24.4927 22.9792L24.4917 22.9805C24.2681 23.2817 23.926 23.4387 23.5756 23.4387C23.3364 23.4387 23.0966 23.3645 22.8904 23.2098L22.7404 23.4098L22.8904 23.2098L17.3133 19.027L17.3128 19.0266C17.0252 18.812 16.8556 18.4724 16.8556 18.1115V9.74591C16.8556 9.11293 17.3669 8.60161 17.9999 8.60161C18.6329 8.60161 19.1442 9.11293 19.1442 9.74591V17.4143V17.5393L19.2442 17.6143L24.2636 21.3789ZM0.25 18C0.25 8.21227 8.21227 0.25 18 0.25C27.7877 0.25 35.75 8.21227 35.75 18C35.75 27.7877 27.7877 35.75 18 35.75C8.21227 35.75 0.25 27.7877 0.25 18ZM2.53852 18C2.53852 26.5246 9.47541 33.4615 18 33.4615C26.5246 33.4615 33.4615 26.5246 33.4615 18C33.4615 9.47542 26.526 2.53852 18 2.53852C9.47541 2.53852 2.53852 9.47541 2.53852 18Z" fill="#65B458" stroke="white" stroke-width="0.5"/>
</svg>
