<svg width="39" height="30" viewBox="0 0 39 30" fill="none" xmlns="http://www.w3.org/2000/svg">
<path d="M36.2058 7.75H36.4558V7.5V4.77273C36.4558 3.50116 35.3979 2.47727 34.1101 2.47727H4.88991C3.60209 2.47727 2.54423 3.50116 2.54423 4.77273V7.5V7.75H2.79423H36.2058ZM2.79423 9.97727H2.54423V10.2273V25.2273C2.54423 26.4988 3.60209 27.5227 4.88991 27.5227H34.1101C35.3979 27.5227 36.4558 26.4988 36.4558 25.2273V10.2273V9.97727H36.2058H2.79423ZM4.88991 0.25H34.1101C36.674 0.25 38.75 2.28483 38.75 4.77273V25.2273C38.75 27.7152 36.674 29.75 34.1101 29.75H4.88991C2.32597 29.75 0.25 27.7152 0.25 25.2273V4.77273C0.25 2.28483 2.32597 0.25 4.88991 0.25Z" fill="#65B458" stroke="white" stroke-width="0.5"/>
</svg>
