<svg width="36" height="36" viewBox="0 0 36 36" fill="none" xmlns="http://www.w3.org/2000/svg">
<path d="M28.6418 6.25296L28.641 6.25291L28.6002 6.25006C28.3304 6.2312 27.9738 6.20628 27.6526 6.16603C27.4838 6.14488 27.3191 6.11884 27.1786 6.08576C27.0482 6.05508 26.9033 6.01085 26.8011 5.9368C26.801 5.93671 26.8009 5.93661 26.8007 5.93652L26.9476 5.73422L28.6418 6.25296ZM28.6418 6.25296C29.3127 6.29791 30.0344 6.3469 30.7018 6.53451M28.6418 6.25296L30.7018 6.53451M3.50028 11.5111L3.50044 11.5117L3.50834 11.5427C3.5756 11.8072 3.66503 12.1589 3.72875 12.4803C3.76186 12.6472 3.78914 12.8114 3.80245 12.9545C3.81477 13.0868 3.81936 13.2376 3.78257 13.3565L3.78009 13.3645L3.77996 13.3645C3.74008 13.4794 3.64969 13.5952 3.5646 13.6914C3.47248 13.7955 3.35751 13.908 3.23657 14.0192C2.99845 14.2382 2.72155 14.4663 2.51681 14.6349L2.50677 14.6432L3.50028 11.5111ZM3.50028 11.5111C3.32498 10.8286 3.14688 10.1313 3.11609 9.45278M3.50028 11.5111L3.11609 9.45278M3.74544 22.6262L3.74558 22.6266C3.78487 22.7471 3.78171 22.8985 3.77008 23.0314C3.75756 23.1745 3.73064 23.338 3.69765 23.5036C3.63163 23.8351 3.53676 24.1972 3.4671 24.4618M3.74544 22.6262L3.22396 24.4034C2.88499 25.7072 2.46327 27.3294 3.42457 28.6041M3.74544 22.6262C3.70653 22.5075 3.61944 22.3894 3.53394 22.289C3.44277 22.182 3.32899 22.0676 3.20846 21.9546C2.96726 21.7283 2.68235 21.4917 2.461 21.3081C1.94516 20.8799 1.39114 20.4184 0.963171 19.8719C0.53865 19.3299 0.25 18.7184 0.25 17.9926C0.25 17.2625 0.544205 16.6459 0.977689 16.0977M3.74544 22.6262L0.977689 16.0977M3.4671 24.4618C3.46706 24.4619 3.46703 24.4621 3.46699 24.4622L3.22523 24.3985L3.46719 24.4614C3.46716 24.4616 3.46713 24.4617 3.4671 24.4618ZM3.4671 24.4618C3.29632 25.1187 3.11344 25.8245 3.08658 26.5216C3.05995 27.2128 3.18802 27.8752 3.62418 28.4536M3.62418 28.4536C3.6241 28.4535 3.62402 28.4534 3.62394 28.4533L3.42457 28.6041M3.62418 28.4536C4.05012 29.0164 4.64205 29.3307 5.3047 29.5151C5.97211 29.7009 6.69122 29.7498 7.35985 29.7948L7.36056 29.7948C7.37806 29.796 7.39597 29.7973 7.41427 29.7986C7.68228 29.8173 8.03237 29.8417 8.3483 29.8811C8.51699 29.9022 8.6817 29.9282 8.82244 29.9613C8.9533 29.9922 9.09852 30.0367 9.20108 30.1114C9.30346 30.1859 9.39133 30.3112 9.46201 30.4273C9.5381 30.5523 9.61531 30.7029 9.68926 30.8594C9.83651 31.1709 9.98008 31.5254 10.0858 31.7864L10.0875 31.7906L10.0875 31.7907C10.3528 32.4463 10.6244 33.1155 11.0048 33.6807C11.3817 34.2406 11.8551 34.6821 12.5166 34.8957L12.5182 34.8961C12.7844 34.984 13.048 35.0219 13.3057 35.0219C14.3387 35.0219 15.3076 34.4159 16.2545 33.8199M3.62418 28.4536L3.42457 28.6041M3.42457 28.6041L16.2545 33.8199M16.2545 33.8199L16.3881 34.0312M16.2545 33.8199L13.3057 35.2719C14.417 35.2719 15.4432 34.626 16.3697 34.0428L16.3881 34.0312M16.2545 33.8199C16.2547 33.8198 16.2548 33.8197 16.2549 33.8196M16.2545 33.8199L16.2549 33.8196M16.3881 34.0312L16.2549 33.8196M16.3881 34.0312L16.2549 33.8196M16.2549 33.8196L16.273 33.8082M16.2549 33.8196L16.273 33.8082M23.4851 34.8792L23.4855 34.8791C24.146 34.6541 24.618 34.2083 24.9932 33.6486C25.3718 33.0837 25.6421 32.4186 25.9066 31.7667L25.9067 31.7665L25.918 31.7388C26.0218 31.4835 26.1602 31.1432 26.3028 30.8421C26.3767 30.6862 26.4541 30.5356 26.5308 30.4102C26.6025 30.2931 26.6908 30.1683 26.7934 30.0929C26.7935 30.0928 26.7935 30.0928 26.7935 30.0928L26.9416 30.2942L23.4851 34.8792ZM23.4851 34.8792C22.8175 35.1078 22.1618 35.0253 21.5243 34.7902C20.8816 34.5532 20.2771 34.169 19.7152 33.8116C19.465 33.6517 19.142 33.4457 18.8409 33.2797C18.6903 33.1967 18.5402 33.1209 18.4037 33.0652C18.2745 33.0126 18.1296 32.9659 17.9992 32.9659C17.8674 32.9659 17.7207 33.0127 17.589 33.066M23.4851 34.8792L17.589 33.066M31.9196 19.4364L31.9189 19.4369C31.0364 20.1625 30.2003 20.861 29.8729 21.8444L29.8729 21.8446C29.5387 22.8456 29.8069 23.9308 30.0953 25.0691L30.0953 25.0692L30.0997 25.0864C30.1682 25.3575 30.2593 25.7181 30.3301 26.0363C30.3663 26.1985 30.3979 26.3532 30.4186 26.4812C30.4289 26.5451 30.437 26.6055 30.4413 26.6586C30.4453 26.7067 30.4479 26.7672 30.4388 26.8225L30.4224 26.9216L30.3421 26.9818C30.2405 27.058 30.0943 27.1028 29.9647 27.1336C29.8242 27.167 29.659 27.1933 29.4893 27.2147C29.1497 27.2574 28.77 27.2827 28.4918 27.3005C27.3692 27.3761 26.1961 27.4612 25.3326 28.0946L25.3324 28.0947C24.476 28.7222 24.0508 29.7542 23.6119 30.8371C23.5064 31.1001 23.363 31.4558 23.227 31.7632C23.1591 31.9168 23.0915 32.0618 23.0302 32.1787C22.9997 32.237 22.9691 32.2914 22.9395 32.3377C22.9126 32.3798 22.8765 32.4313 22.8327 32.4712L22.7612 32.5362H22.6645C22.5408 32.5362 22.401 32.4859 22.2835 32.4352C22.1558 32.3801 22.0129 32.3054 21.8696 32.2247C21.5985 32.072 21.3079 31.887 21.0867 31.7463L21.0487 31.7221C20.0991 31.1182 19.1008 30.4892 18.0007 30.4892C16.8988 30.4892 15.8915 31.12 14.9313 31.727L14.931 31.7272C14.9055 31.7432 14.879 31.76 14.8516 31.7772C14.6343 31.9142 14.3634 32.085 14.1216 32.2307C13.9856 32.3127 13.8562 32.3884 13.749 32.4464C13.6955 32.4753 13.6452 32.5012 13.6009 32.5216C13.5614 32.5398 13.5105 32.5615 13.4616 32.5721L13.3531 32.5958L13.2627 32.5311C13.16 32.4575 13.0726 32.3322 13.0031 32.2178C12.928 32.0939 12.8516 31.9443 12.7784 31.7889C12.6366 31.4879 12.4979 31.1458 12.394 30.8895L12.3837 30.8643L12.3836 30.864C11.94 29.767 11.5107 28.7248 10.647 28.1035L10.6469 28.1034C9.78838 27.4847 8.68427 27.4043 7.52447 27.3274L7.52443 27.3274C7.25674 27.3096 6.86709 27.2836 6.52104 27.2463C6.34836 27.2277 6.18185 27.2058 6.04451 27.1798C5.97597 27.1669 5.91066 27.1521 5.85351 27.135C5.80136 27.1194 5.73589 27.0961 5.68065 27.0585L5.61254 27.0122L5.5853 26.9345C5.54301 26.8137 5.54626 26.6605 5.55753 26.5292C5.56979 26.3863 5.59669 26.2223 5.62977 26.0558C5.69598 25.7224 5.79159 25.3566 5.86206 25.0896C6.14153 24.0124 6.42874 22.8851 6.10102 21.869C5.77158 20.8537 4.89101 20.1112 4.04438 19.4079L4.04421 19.4078L4.03983 19.4041C3.83703 19.2353 3.54264 18.9904 3.2901 18.758C3.16318 18.6413 3.04267 18.5239 2.94819 18.4183C2.90101 18.3656 2.85723 18.3125 2.8216 18.2612C2.78855 18.2136 2.75082 18.1514 2.73154 18.0823L2.7141 18.0199L2.72919 17.9569C2.76116 17.8233 2.85995 17.6905 2.949 17.5856C3.0472 17.4699 3.17214 17.3449 3.30328 17.2225C3.56601 16.9774 3.87205 16.7257 4.08121 16.5543C4.96374 15.8272 5.79966 15.1289 6.12699 14.1456L6.12709 14.1453C6.46403 13.1372 6.19035 12.0438 5.89737 10.8962L31.9196 19.4364ZM31.9196 19.4364L31.9342 19.4243C32.1356 19.2576 32.4218 19.0206 32.6728 18.788C32.8012 18.669 32.9243 18.5477 33.0236 18.4347C33.1168 18.3287 33.2114 18.2057 33.2551 18.0857L33.2876 17.9963L33.2525 17.9079C33.2072 17.794 33.1151 17.678 33.0247 17.5778C32.9285 17.4713 32.8102 17.3573 32.6872 17.2457C32.4542 17.0343 32.1906 16.8195 32.0002 16.6644L31.9687 16.6387L31.9681 16.6382C31.109 15.9421 30.2158 15.2088 29.884 14.1834C29.5547 13.1637 29.838 12.0313 30.1144 10.95C30.1841 10.6814 30.2785 10.3139 30.344 9.9795C30.3766 9.81242 30.4032 9.64802 30.4153 9.50511C30.4265 9.3739 30.4298 9.22097 30.3882 9.10096L30.3586 9.01568L30.2814 8.96895C30.2289 8.93716 30.1675 8.91721 30.1179 8.9036C30.0637 8.88871 30.0017 8.87572 29.9363 8.86415C29.8051 8.84097 29.6456 8.821 29.4784 8.80365C29.15 8.76957 28.7755 8.74396 28.4956 8.72481L28.4791 8.72368L28.4785 8.72365C27.3171 8.64673 26.2117 8.56634 25.3533 7.94631L25.3529 7.94601C24.4893 7.32479 24.06 6.28257 23.6163 5.18695L23.6163 5.1868L23.6114 5.17473C23.5068 4.91687 23.3654 4.56829 23.221 4.26206C23.1477 4.10669 23.0713 3.95716 22.9963 3.83342C22.927 3.71915 22.8399 3.594 22.7379 3.52043L22.6474 3.45518L22.5384 3.47896C22.4896 3.48961 22.4388 3.51118 22.3992 3.52938C22.355 3.54975 22.3046 3.57555 22.2512 3.60443C22.144 3.66232 22.0145 3.73785 21.8784 3.81977C21.6098 3.98152 21.3057 4.17404 21.0781 4.31811L21.0685 4.32418C21.0685 4.3242 21.0685 4.32422 21.0684 4.32424C20.1115 4.92946 19.1012 5.56037 18.0007 5.56037C16.8962 5.56037 15.8881 4.91505 14.931 4.29308L14.9308 4.29292L14.9192 4.28538C14.6931 4.13883 14.3874 3.94068 14.1026 3.77765C13.9579 3.69481 13.8137 3.61823 13.6848 3.56137C13.5659 3.50893 13.4259 3.45731 13.3022 3.45532L13.1987 3.45365L13.1244 3.52563C13.0837 3.56493 13.0498 3.61549 13.0245 3.65659C12.9964 3.70207 12.967 3.75572 12.9373 3.81356C12.8779 3.92947 12.8113 4.07368 12.7439 4.22687C12.609 4.53359 12.4653 4.88891 12.3597 5.15307C11.9209 6.23568 11.4956 7.26618 10.6393 7.89366C9.77543 8.52605 8.65022 8.60951 7.47224 8.68793L7.47208 8.68794C7.1966 8.70646 6.81987 8.73179 6.48277 8.77353C6.3144 8.79437 6.15047 8.81995 6.011 8.85218C5.88208 8.88199 5.73766 8.92504 5.63657 8.99771L5.54528 9.06334L5.53381 9.17518C5.52859 9.22602 5.53341 9.28251 5.53867 9.32748C5.54453 9.37761 5.55382 9.43551 5.56517 9.49756C5.58793 9.62194 5.62104 9.77394 5.65838 9.93454C5.73058 10.2451 5.82117 10.5987 5.8901 10.8678L5.89732 10.896L31.9196 19.4364ZM24.4919 12.5805L24.4918 12.5804C23.9641 12.1394 23.1861 12.2115 22.7495 12.7347L22.7493 12.7349L16.1158 20.6657L15.9405 20.8752L15.7473 20.6821L12.9252 17.8615L12.9251 17.8615C12.4411 17.3774 11.6591 17.3774 11.1751 17.8615L11.1751 17.8615C10.6911 18.3456 10.6911 19.1275 11.1751 19.6115L11.1751 19.6115L15.1472 23.5836L15.1482 23.5845C15.3784 23.8172 15.6933 23.9462 16.0223 23.9462C16.0333 23.9462 16.0399 23.9462 16.0457 23.946C16.0494 23.9459 16.0512 23.9457 16.0516 23.9457C16.0516 23.9457 16.0517 23.9457 16.0517 23.9457L16.0633 23.944L16.0756 23.9435C16.4244 23.9286 16.7471 23.7681 16.9701 23.5018C16.9701 23.5017 16.9701 23.5017 16.9701 23.5017L24.6462 14.3229L24.4919 12.5805ZM24.4919 12.5805C25.0161 13.0181 25.0848 13.7975 24.6463 14.3228L24.4919 12.5805ZM30.7018 6.53451C31.3642 6.72074 31.953 7.03838 32.3708 7.60765L30.7018 6.53451ZM10.0638 4.22149L10.0637 4.2217L10.058 4.23576C9.95354 4.49333 9.81278 4.84034 9.66754 5.14671C9.59363 5.30263 9.51622 5.45305 9.4395 5.57833C9.36789 5.69527 9.27966 5.81979 9.17722 5.8952M10.0638 4.22149L9.17686 5.89547C9.17698 5.89538 9.1771 5.89529 9.17722 5.8952M10.0638 4.22149L10.0644 4.22003C10.3287 3.57006 10.5988 2.90603 10.9774 2.34156C11.3527 1.78184 11.825 1.33564 12.4863 1.1107L10.0638 4.22149ZM9.17722 5.8952C9.07412 5.97138 8.92706 6.01677 8.79479 6.04819C8.65212 6.08209 8.48477 6.10871 8.31312 6.13024C7.96979 6.1733 7.58676 6.19863 7.30694 6.21714L7.30661 6.21716M9.17722 5.8952L7.30661 6.21716M7.30661 6.21716C6.59846 6.26512 5.876 6.31484 5.22008 6.50332C4.57074 6.68991 4.00484 7.00779 3.59926 7.58174L7.30661 6.21716ZM3.11609 9.45278C3.08559 8.78039 3.20115 8.14561 3.59921 7.58181L3.11609 9.45278ZM0.977689 16.0977C1.41457 15.5452 1.98012 15.0777 2.50661 14.6433L0.977689 16.0977ZM17.589 33.066C17.4502 33.1222 17.2975 33.1988 17.1444 33.2827M17.589 33.066L17.1444 33.2827M17.1444 33.2827C16.8455 33.4464 16.5253 33.6488 16.273 33.8082M17.1444 33.2827L16.273 33.8082M32.2361 13.4182L32.2366 13.4196L32.3709 7.60787C32.7905 8.18117 32.9129 8.83783 32.8854 9.52335C32.8576 10.2143 32.6788 10.9138 32.5118 11.5646C32.4429 11.8314 32.3488 12.1973 32.2834 12.5326C32.2507 12.7002 32.2241 12.8655 32.2118 13.0103C32.2003 13.1452 32.1975 13.2973 32.2361 13.4182ZM30.7309 29.4879C30.0768 29.6738 29.3592 29.7231 28.6562 29.7711L33.5261 14.7144C33.5262 14.7145 33.5263 14.7147 33.5264 14.7148C34.0454 15.1364 34.6026 15.59 35.033 16.1297C35.4599 16.665 35.75 17.2707 35.75 17.9941C35.75 18.7242 35.4558 19.3413 35.0221 19.8899C34.5851 20.4427 34.0191 20.9106 33.492 21.3449L33.4917 21.3451L33.4687 21.3642C33.2662 21.5315 32.9962 21.7547 32.7633 21.969C32.6425 22.0802 32.5276 22.1928 32.4355 22.2968C32.3504 22.393 32.2601 22.5087 32.2202 22.6237L32.22 22.6237L32.2173 22.6326C32.1813 22.7504 32.1856 22.8995 32.1976 23.0307C32.2105 23.1724 32.2371 23.335 32.2695 23.5003C32.3338 23.8288 32.4251 24.1889 32.4923 24.4542L32.4938 24.46C32.6683 25.1485 32.8456 25.8523 32.8715 26.5369C32.8973 27.215 32.7733 27.8556 32.3586 28.4242L32.3584 28.4243C31.9463 28.9903 31.3787 29.3038 30.7309 29.4879Z" fill="#65B458" stroke="white" stroke-width="0.5"/>
</svg>
