<svg width="46" height="46" viewBox="0 0 46 46" fill="none" xmlns="http://www.w3.org/2000/svg">
<rect x="0.5" y="-0.5" width="45" height="45" rx="22.5" transform="matrix(1 0 0 -1 0 45)" stroke="#EAEAEA"/>
<path d="M20.1231 15H26.2707C29.0997 15 31.3938 17.2941 31.3938 20.1231V26.2707C31.3938 29.0997 29.0997 31.3938 26.2707 31.3938H20.1231C17.2941 31.3938 15 29.0997 15 26.2707V20.1231C15 17.2941 17.2941 15 20.1231 15ZM16.5369 26.2707C16.5369 28.2482 18.1456 29.8569 20.1231 29.8569H26.2707C28.2482 29.8569 29.8569 28.2482 29.8569 26.2707V20.1231C29.8569 18.1456 28.2482 16.5369 26.2707 16.5369H20.1231C18.1456 16.5369 16.5369 18.1456 16.5369 20.1231V26.2707Z" fill="#33302D"/>
<path d="M23.1969 19.0984C25.4603 19.0984 27.2953 20.9335 27.2953 23.1969C27.2953 25.4603 25.4603 27.2953 23.1969 27.2953C20.9335 27.2953 19.0984 25.4603 19.0984 23.1969C19.0984 20.9335 20.9335 19.0984 23.1969 19.0984ZM23.1969 25.7584C24.6088 25.7584 25.7584 24.6088 25.7584 23.1969C25.7584 21.784 24.6088 20.6354 23.1969 20.6354C21.785 20.6354 20.6354 21.784 20.6354 23.1969C20.6354 24.6088 21.785 25.7584 23.1969 25.7584Z" fill="#33302D"/>
<path d="M27.6027 19.3372C27.3011 19.3372 27.0566 19.0927 27.0566 18.7911C27.0566 18.4895 27.3011 18.245 27.6027 18.245C27.9043 18.245 28.1489 18.4895 28.1489 18.7911C28.1489 19.0927 27.9043 19.3372 27.6027 19.3372Z" fill="#33302D"/>
</svg>
