<svg width="62" height="62" viewBox="0 0 62 62" fill="none" xmlns="http://www.w3.org/2000/svg">
<path d="M11.2133 30.208C10.614 30.8297 10.2441 31.6736 10.2441 32.6002V54.4504C10.2441 56.3483 11.7972 57.9013 13.695 57.9013H52.6353C54.5332 57.9013 56.0863 56.3483 56.0863 54.4504V32.5997C56.0863 31.6736 55.7164 30.8293 55.1171 30.208" stroke="#65B458" stroke-width="1.2" stroke-miterlimit="10" stroke-linecap="round" stroke-linejoin="round"/>
<path d="M39.4473 43.4396L55.1053 30.1987" stroke="#65B458" stroke-width="1.2" stroke-miterlimit="10" stroke-linecap="round" stroke-linejoin="round"/>
<path d="M11.2227 30.1973L26.8398 43.4041" stroke="#65B458" stroke-width="1.2" stroke-miterlimit="10" stroke-linecap="round" stroke-linejoin="round"/>
<path d="M14.0381 27.3828L11.2227 30.1974" stroke="#65B458" stroke-width="1.2" stroke-miterlimit="10" stroke-linecap="round" stroke-linejoin="round"/>
<path d="M42.655 17.7506L33.1643 8.26074L23.6641 17.7592" stroke="#65B458" stroke-width="1.2" stroke-miterlimit="10" stroke-linecap="round" stroke-linejoin="round"/>
<path d="M55.1051 30.1988L52.3086 27.4023" stroke="#65B458" stroke-width="1.2" stroke-miterlimit="10" stroke-linecap="round" stroke-linejoin="round"/>
<path d="M33.1646 38.2764L11.1172 56.7377" stroke="#65B458" stroke-width="1.2" stroke-miterlimit="10" stroke-linecap="round" stroke-linejoin="round"/>
<path d="M33.1641 38.2764L55.1052 56.7662" stroke="#65B458" stroke-width="1.2" stroke-miterlimit="10" stroke-linecap="round" stroke-linejoin="round"/>
<path d="M52.2918 32.5784L52.3413 17.7505H14.0391V32.5784" stroke="#65B458" stroke-width="1.2" stroke-miterlimit="10" stroke-linecap="round" stroke-linejoin="round"/>
<path d="M25.8299 30.7152C26.8875 30.5899 27.6432 29.6309 27.5178 28.5733C27.3925 27.5157 26.4335 26.76 25.3759 26.8853C24.3183 27.0107 23.5626 27.9697 23.6879 29.0273C23.8133 30.0849 24.7723 30.8406 25.8299 30.7152Z" stroke="#65B458" stroke-width="1.2" stroke-miterlimit="10" stroke-linecap="round" stroke-linejoin="round"/>
<path d="M33.7381 30.7157C34.7957 30.5904 35.5514 29.6314 35.426 28.5738C35.3007 27.5162 34.3417 26.7605 33.2841 26.8858C32.2265 27.0112 31.4708 27.9701 31.5961 29.0278C31.7215 30.0854 32.6805 30.8411 33.7381 30.7157Z" stroke="#65B458" stroke-width="1.2" stroke-miterlimit="10" stroke-linecap="round" stroke-linejoin="round"/>
<path d="M41.6463 30.7157C42.7039 30.5904 43.4596 29.6314 43.3342 28.5738C43.2089 27.5162 42.2499 26.7605 41.1923 26.8858C40.1347 27.0112 39.379 27.9701 39.5043 29.0278C39.6297 30.0854 40.5887 30.8411 41.6463 30.7157Z" stroke="#65B458" stroke-width="1.2" stroke-miterlimit="10" stroke-linecap="round" stroke-linejoin="round"/>
<path d="M49.8262 4.95068V10.0506" stroke="#65B458" stroke-width="1.2" stroke-miterlimit="10" stroke-linecap="round" stroke-linejoin="round"/>
<path d="M52.3768 7.50098H47.2773" stroke="#65B458" stroke-width="1.2" stroke-miterlimit="10" stroke-linecap="round" stroke-linejoin="round"/>
<path d="M3.85938 20.479V25.5785" stroke="#65B458" stroke-width="1.2" stroke-miterlimit="10" stroke-linecap="round" stroke-linejoin="round"/>
<path d="M1.31055 23.0288H6.41005" stroke="#65B458" stroke-width="1.2" stroke-miterlimit="10" stroke-linecap="round" stroke-linejoin="round"/>
<path d="M58.9844 22.3677V25.4207" stroke="#65B458" stroke-width="1.2" stroke-miterlimit="10" stroke-linecap="round" stroke-linejoin="round"/>
<path d="M60.5101 23.8945H57.457" stroke="#65B458" stroke-width="1.2" stroke-miterlimit="10" stroke-linecap="round" stroke-linejoin="round"/>
</svg>
