<svg xmlns="http://www.w3.org/2000/svg" viewBox="0 0 165 47.16"><defs><style>.cls-1{fill:#868686;}.cls-2{fill:#0069b3;}</style></defs><title>Ресурс 1ldpi</title><g id="Слой_2" data-name="Слой 2"><g id="Layer_1" data-name="Layer 1"><path class="cls-1" d="M24.76,7.28h0c1.62.06,2.93,2.23,2.93,4.9v3.76H2.93C1.31,15.88,0,13.71,0,11V7.28Z"/><path class="cls-2" d="M2.93,18.58h0C1.31,18.64,0,20.81,0,23.48v3.76H24.76c1.63-.06,2.93-2.23,2.93-4.9V18.58Z"/><path class="cls-2" d="M60.27,28.24V9.52L53.82,23.16H50.68L44.07,9.52V28.24H39.82V.24h4.25l8.18,17.42,8-17.42h4.25v28Z"/><path class="cls-2" d="M74.26,19.43C74.26,22.89,76,25,79.33,25a6,6,0,0,0,4.84-2l2.56,2.4a9.36,9.36,0,0,1-7.47,3.11c-5,0-9-2.63-9-10.22,0-6.49,3.34-10.19,8.45-10.19,5.35,0,8.46,3.85,8.46,9.67v1.69Zm8.42-5.51a4.36,4.36,0,0,0-7.91,0,6.21,6.21,0,0,0-.51,2.71h9A6.79,6.79,0,0,0,82.68,13.92Z"/><path class="cls-2" d="M103.95,28.24V26.11a6.14,6.14,0,0,1-5.27,2.36A6.89,6.89,0,0,1,93.8,26.7c-1.93-2-2.24-5.15-2.24-8.45s.31-6.45,2.24-8.42a6.79,6.79,0,0,1,4.84-1.77,6.17,6.17,0,0,1,5.23,2.24V.24h4v28ZM99.74,11.64c-3.66,0-4.17,3.07-4.17,6.61s.51,6.65,4.17,6.65,4.13-3.11,4.13-6.65S103.36,11.64,99.74,11.64Z"/><path class="cls-2" d="M114.12,4.36V.12h4.25V4.36Zm.12,23.87V8.3h4V28.24Z"/><path class="cls-1" d="M134.14,28.47a9.77,9.77,0,0,1-7.24-2.83c-2.71-2.75-2.83-5.55-2.83-11.4s.12-8.65,2.83-11.4A9.77,9.77,0,0,1,134.14,0c5.15,0,9,3.07,10,8.61H139.8c-.63-2.87-2.56-4.84-5.66-4.84A5.48,5.48,0,0,0,130,5.5c-1.42,1.49-1.69,3.19-1.69,8.73s.27,7.23,1.69,8.73a5.48,5.48,0,0,0,4.13,1.73c3.11,0,5.07-2,5.74-4.84h4.25C143.14,25.4,139.25,28.47,134.14,28.47Z"/><path class="cls-1" d="M162.64,26.11a8.07,8.07,0,0,1-6,2.36,8,8,0,0,1-5.94-2.36c-1.89-2-2.36-4.48-2.36-7.87s.47-5.86,2.36-7.83a8,8,0,0,1,5.94-2.36,8.07,8.07,0,0,1,6,2.36c1.89,2,2.36,4.48,2.36,7.83S164.53,24.15,162.64,26.11Zm-3-13.33a4.06,4.06,0,0,0-3-1.14,4,4,0,0,0-2.91,1.14c-1.22,1.22-1.38,3.3-1.38,5.47s.16,4.25,1.38,5.47a4,4,0,0,0,2.91,1.18,4.1,4.1,0,0,0,3-1.18c1.22-1.22,1.38-3.3,1.38-5.47S160.83,14,159.61,12.78Z"/><path class="cls-1" d="M9,44V39.84A1.59,1.59,0,0,0,7.3,38a1.59,1.59,0,0,0-1.7,1.7V44h-1V39.84A1.59,1.59,0,0,0,2.92,38a1.61,1.61,0,0,0-1.7,1.81V44h-1V37.22h1V38a2.48,2.48,0,0,1,1.92-.83,2.25,2.25,0,0,1,2.09,1.13,2.61,2.61,0,0,1,2.24-1.13,2.48,2.48,0,0,1,1.76.64,2.54,2.54,0,0,1,.73,1.9V44Z"/><path class="cls-1" d="M17.21,44v-.65a2.39,2.39,0,0,1-2,.73,2.42,2.42,0,0,1-1.92-.62,2,2,0,0,1-.51-1.38c0-1.19.83-2,2.35-2h2v-.65c0-1-.5-1.5-1.74-1.5a1.79,1.79,0,0,0-1.72.78l-.68-.62a2.64,2.64,0,0,1,2.41-1c1.83,0,2.73.79,2.73,2.27V44Zm0-3.14H15.3c-1,0-1.52.42-1.52,1.2s.48,1.16,1.56,1.16a2,2,0,0,0,1.52-.46,1.58,1.58,0,0,0,.35-1.18Z"/><path class="cls-1" d="M25.4,38.52a1.42,1.42,0,0,0-1.18-.5,1.66,1.66,0,0,0-1.63,1.83V44h-1V37.22h1V38a2.29,2.29,0,0,1,1.91-.91,2.1,2.1,0,0,1,1.63.64Z"/><path class="cls-1" d="M32.87,44l-2.16-3.49-1.33,1.52v2h-1V34.17h1v6.59l3.07-3.54H33.7l-2.31,2.6L34.11,44Z"/><path class="cls-1" d="M37.4,40.89c0,1.5.71,2.35,2,2.35a2.24,2.24,0,0,0,1.79-.77l.68.59a3.12,3.12,0,0,1-2.49,1.05c-1.8,0-3-1.08-3-3.49,0-2.2,1.07-3.49,2.8-3.49S42,38.41,42,40.43v.46ZM40.79,39a1.75,1.75,0,0,0-3.18,0,2.86,2.86,0,0,0-.21,1.13H41A2.88,2.88,0,0,0,40.79,39Z"/><path class="cls-1" d="M47,44a1.67,1.67,0,0,1-1.74-1.83V38h-.86v-.76h.86V35.13h1v2.13h1.45V38H46.24v4.15c0,.62.29,1,.93,1h.53V44Z"/><path class="cls-1" d="M50.58,35.28V34.16H51.7v1.12ZM50.64,44V37.22h1V44Z"/><path class="cls-1" d="M59.46,44V39.84A1.59,1.59,0,0,0,57.79,38a1.6,1.6,0,0,0-1.69,1.81V44h-1V37.22h1V38A2.46,2.46,0,0,1,58,37.14a2.39,2.39,0,0,1,1.74.64,2.52,2.52,0,0,1,.7,1.9V44Z"/><path class="cls-1" d="M66,47.16a3,3,0,0,1-2.31-.91l.65-.64a2.1,2.1,0,0,0,1.63.68c1.32,0,1.87-.93,1.87-2.09V43.13A2.19,2.19,0,0,1,66,44a2.34,2.34,0,0,1-1.65-.61,3.91,3.91,0,0,1-.83-2.84,3.91,3.91,0,0,1,.83-2.84,2.37,2.37,0,0,1,1.66-.6,2.15,2.15,0,0,1,1.91.89v-.8h1v7A2.71,2.71,0,0,1,66,47.16ZM66.19,38c-1.48,0-1.7,1.27-1.7,2.55s.22,2.55,1.7,2.55,1.69-1.27,1.69-2.55S67.67,38,66.19,38Z"/><path class="cls-1" d="M79.06,44,78.17,43a4.12,4.12,0,0,1-2.91,1.16,2.81,2.81,0,0,1-3.12-2.87c0-1.48,1.05-2.23,2.13-2.95a3.47,3.47,0,0,1-1.07-2.15,2.16,2.16,0,0,1,4.32,0,2.12,2.12,0,0,1-1.09,1.76l-.74.5,2.52,3a3.68,3.68,0,0,0,.55-2.26h1a4.62,4.62,0,0,1-.91,3L80.37,44ZM74.86,39c-.85.58-1.69,1.13-1.69,2.26a1.93,1.93,0,0,0,2.08,2,3.27,3.27,0,0,0,2.33-1Zm.52-4a1.09,1.09,0,0,0-1.13,1.15c0,.46.24.83.89,1.62l.53-.36c.46-.32.89-.67.89-1.23A1.15,1.15,0,0,0,75.39,35Z"/><path class="cls-1" d="M87.59,44v-.82a2.21,2.21,0,0,1-1.94.9A2.38,2.38,0,0,1,84,43.52a4.08,4.08,0,0,1-.83-2.89A4.07,4.07,0,0,1,84,37.73a2.37,2.37,0,0,1,1.66-.6,2.19,2.19,0,0,1,1.92.87V34.17h1V44Zm-1.72-6c-1.48,0-1.72,1.27-1.72,2.6s.24,2.6,1.72,2.6,1.7-1.27,1.7-2.6S87.36,38,85.88,38Z"/><path class="cls-1" d="M92,35.28V34.16H93.1v1.12ZM92,44V37.22h1V44Z"/><path class="cls-1" d="M98.64,44.11a3.76,3.76,0,0,1-2.8-1l.67-.66a2.78,2.78,0,0,0,2.12.79c1.12,0,1.81-.4,1.81-1.2,0-.59-.35-.93-1.13-1L98.19,41c-1.33-.11-2-.71-2-1.83s1.05-2,2.51-2a3.85,3.85,0,0,1,2.45.74l-.65.65A2.9,2.9,0,0,0,98.64,38c-1,0-1.52.43-1.52,1.12s.33.93,1.19,1l1.09.1c1.19.11,2,.57,2,1.84S100.29,44.11,98.64,44.11Z"/><path class="cls-1" d="M106.24,44a1.67,1.67,0,0,1-1.74-1.83V38h-.86v-.76h.86V35.13h1v2.13h1.45V38h-1.45v4.15c0,.62.29,1,.93,1h.53V44Z"/><path class="cls-1" d="M113.7,38.52a1.43,1.43,0,0,0-1.18-.5,1.66,1.66,0,0,0-1.63,1.83V44h-1V37.22h1V38a2.29,2.29,0,0,1,1.91-.91,2.1,2.1,0,0,1,1.63.64Z"/><path class="cls-1" d="M116.63,35.28V34.16h1.12v1.12Zm.05,8.75V37.22h1V44Z"/><path class="cls-1" d="M125.73,43.52a2.37,2.37,0,0,1-1.66.59,2.18,2.18,0,0,1-1.92-.9V44h-1V34.17h1V38a2.19,2.19,0,0,1,1.92-.87,2.37,2.37,0,0,1,1.66.6,4.06,4.06,0,0,1,.83,2.89A4.07,4.07,0,0,1,125.73,43.52ZM123.86,38c-1.48,0-1.72,1.27-1.72,2.6s.24,2.6,1.72,2.6,1.7-1.27,1.7-2.6S125.35,38,123.86,38Z"/><path class="cls-1" d="M134,44v-.76a2.5,2.5,0,0,1-1.92.84,2.42,2.42,0,0,1-1.76-.64,2.54,2.54,0,0,1-.69-1.91V37.22h1v4.2c0,1.2.64,1.81,1.66,1.81a1.61,1.61,0,0,0,1.7-1.81v-4.2h1V44Z"/><path class="cls-1" d="M140.31,44a1.67,1.67,0,0,1-1.74-1.83V38h-.86v-.76h.86V35.13h1v2.13H141V38h-1.45v4.15c0,.62.29,1,.93,1H141V44Z"/><path class="cls-1" d="M143.91,35.28V34.16H145v1.12ZM144,44V37.22h1V44Z"/><path class="cls-1" d="M152.81,43.34a2.84,2.84,0,0,1-3.9,0,3.66,3.66,0,0,1-.83-2.71,3.66,3.66,0,0,1,.83-2.71,2.84,2.84,0,0,1,3.9,0,3.66,3.66,0,0,1,.83,2.71A3.66,3.66,0,0,1,152.81,43.34Zm-.71-4.82a1.74,1.74,0,0,0-1.24-.5,1.72,1.72,0,0,0-1.23.5,3,3,0,0,0-.55,2.1,3,3,0,0,0,.55,2.1,1.72,1.72,0,0,0,1.23.5,1.74,1.74,0,0,0,1.24-.5,3,3,0,0,0,.54-2.1A3,3,0,0,0,152.1,38.52Z"/><path class="cls-1" d="M161.1,44V39.84a1.69,1.69,0,1,0-3.36,0V44h-1V37.22h1V38a2.46,2.46,0,0,1,1.91-.83,2.38,2.38,0,0,1,1.74.64,2.52,2.52,0,0,1,.71,1.9V44Z"/></g></g></svg>