<svg width="16" height="12" viewBox="0 0 16 12" fill="none" xmlns="http://www.w3.org/2000/svg">
<path d="M15.9451 9.7896C15.8769 9.672 15.7577 9.6 15.6295 9.6H0.370303C0.242143 9.6 0.122907 9.672 0.0554767 9.7896C-0.0119192 9.9072 -0.0185859 10.0544 0.0391919 10.1784C0.559192 11.3024 1.60437 12 2.76732 12H13.2325C14.3947 12 15.4399 11.3024 15.9614 10.1792C16.0177 10.0544 16.0125 9.90799 15.9451 9.7896Z" fill="#5FBB7A"/>
<path d="M9.01457 1.68319C9.0753 1.53517 9.11012 1.37197 9.11012 1.2C9.11012 0.538388 8.61161 0 7.99901 0C7.38641 0 6.8879 0.538388 6.8879 1.2C6.8879 1.37201 6.92272 1.53521 6.98345 1.68319C3.62717 2.1816 0.976785 5.1 0.636785 8.80001H15.3605C15.0205 5.10161 12.3694 2.1816 9.01457 1.68319ZM7.65307 3.99919C5.58123 4.1472 3.79679 5.60797 3.10863 7.7208C3.05529 7.88479 2.91158 7.98799 2.75901 7.98799C2.71828 7.98799 2.67679 7.98079 2.63606 7.9656C2.44345 7.89199 2.34199 7.66399 2.40939 7.45519C3.19606 5.03917 5.23533 3.3696 7.60422 3.20078C7.8005 3.18716 7.98422 3.35276 7.99828 3.57356C8.01161 3.7944 7.85752 3.98479 7.65307 3.99919Z" fill="#5FBB7A"/>
</svg>
