<svg width="8" height="8" viewBox="0 0 8 8" fill="none" xmlns="http://www.w3.org/2000/svg">
<path d="M4.36642 4.36632L7.48141 4.36624C7.68408 4.36628 7.84789 4.20248 7.84784 3.99981C7.84784 3.79719 7.68404 3.63339 7.48142 3.63339L4.36638 3.63342L4.36646 0.518423C4.36641 0.315755 4.20265 0.151999 4.00003 0.152001C3.79737 0.151956 3.63356 0.315762 3.6336 0.518431L3.63352 3.63343L0.518528 3.63351C0.315859 3.63346 0.152053 3.79727 0.152098 3.99994C0.15205 4.10096 0.193047 4.19273 0.259385 4.25907C0.325722 4.32541 0.417447 4.36636 0.51852 4.36636L3.63352 4.36628L3.63348 7.48132C3.63348 7.5824 3.67443 7.67412 3.74077 7.74046C3.80711 7.8068 3.89883 7.84775 3.99991 7.84775C4.20258 7.84779 4.36638 7.68398 4.36634 7.48132L4.36642 4.36632Z" fill="#232E23"/>
</svg>
