<svg width="60" height="59" viewBox="0 0 60 59" fill="none" xmlns="http://www.w3.org/2000/svg">
<path d="M27.4684 1.88161C28.8105 0.353988 31.1895 0.353987 32.5316 1.88161C33.5884 3.08441 35.3455 3.37763 36.7356 2.58311C38.5009 1.57404 40.7511 2.34654 41.5245 4.22716C42.1334 5.70792 43.7002 6.5558 45.2729 6.25567C47.2702 5.8745 49.1477 7.33577 49.2685 9.3656C49.3636 10.9638 50.5702 12.2745 52.1551 12.5013C54.168 12.7893 55.4693 14.781 54.9245 16.7401C54.4955 18.2826 55.2111 19.914 56.6365 20.6432C58.4468 21.5692 59.0309 23.8755 57.8795 25.5515C56.9729 26.8712 57.12 28.6466 58.2314 29.799C59.643 31.2627 59.4465 33.6336 57.8133 34.845C56.5273 35.7988 56.09 37.5257 56.767 38.9766C57.6269 40.8193 56.6712 42.998 54.7331 43.6134C53.2071 44.098 52.2328 45.5894 52.402 47.1815C52.6169 49.2035 51.0056 50.9539 48.9727 50.9067C47.3721 50.8695 45.9663 51.9637 45.6094 53.5245C45.1561 55.5067 43.0638 56.6391 41.1564 55.9343C39.6545 55.3794 37.9696 55.9579 37.1252 57.3182C36.0529 59.0459 33.7062 59.4375 32.131 58.1516C30.8907 57.1391 29.1093 57.1391 27.869 58.1516C26.2938 59.4375 23.9471 59.0459 22.8748 57.3182C22.0304 55.9579 20.3455 55.3794 18.8436 55.9343C16.9362 56.6391 14.8439 55.5067 14.3906 53.5245C14.0337 51.9637 12.6279 50.8695 11.0273 50.9067C8.99438 50.9539 7.38306 49.2035 7.59799 47.1815C7.76722 45.5894 6.79286 44.098 5.26687 43.6134C3.32881 42.998 2.37314 40.8193 3.23298 38.9766C3.90999 37.5257 3.47267 35.7988 2.18671 34.845C0.553477 33.6336 0.357012 31.2627 1.76858 29.799C2.88002 28.6466 3.02713 26.8712 2.12054 25.5515C0.969131 23.8755 1.55316 21.5692 3.3635 20.6432C4.78892 19.914 5.50452 18.2826 5.07555 16.7401C4.53073 14.781 5.83197 12.7893 7.8449 12.5013C9.42983 12.2745 10.6364 10.9638 10.7315 9.3656C10.8523 7.33577 12.7298 5.8745 14.7271 6.25567C16.2998 6.5558 17.8666 5.70792 18.4755 4.22716C19.2489 2.34654 21.4991 1.57404 23.2644 2.58312C24.6545 3.37763 26.4116 3.08441 27.4684 1.88161Z" fill="#5FBB7A"/>
</svg>
