<svg width="46" height="46" viewBox="0 0 46 46" fill="none" xmlns="http://www.w3.org/2000/svg">
<rect x="0.5" y="-0.5" width="45" height="45" rx="22.5" transform="matrix(1 0 0 -1 0 45)" stroke="#EAEAEA"/>
<path d="M31.9487 16.4566L29.2324 30.0342C29.0275 30.9924 28.493 31.2309 27.7335 30.7796L23.5948 27.5469L21.5978 29.5828C21.3768 29.817 21.1919 30.0129 20.766 30.0129L21.0634 25.5452L28.7341 18.1985C29.0677 17.8833 28.6618 17.7087 28.2158 18.0239L18.7328 24.3527L14.6503 22.9983C13.7623 22.7045 13.7462 22.0571 14.8351 21.6057L30.8035 15.0852C31.5428 14.7914 32.1898 15.2598 31.9487 16.4566Z" fill="#33302D"/>
</svg>
